# Converted from GDF: hub.gdf
# Rhino->WAMIT file export (mesh)
# Vertices: 988
# Faces: 3354

o Rhino->WAMIT_file_export_(mesh)

v -3.370410 -1.605890 2.466920
v -4.101080 -1.730560 2.441870
v -3.164120 -2.081560 2.474580
v -4.410150 1.442920 2.431150
v -4.060910 1.166340 2.443360
v -3.727390 1.418600 2.454980
v -1.731830 -1.725150 2.524610
v -1.446390 -0.752190 2.534540
v -1.848000 -1.252530 2.520550
v -0.875330 -0.400180 2.554550
v -1.283680 -0.143820 2.540150
v -4.973820 0.325680 2.411440
v -4.506690 0.410410 2.427730
v -4.347810 0.807020 2.433340
v -4.568070 -0.061540 2.425480
v -4.727660 -1.047350 2.420010
v -4.467880 -0.568070 2.429130
v -4.267840 -0.950100 2.436040
v -3.944930 -1.301030 2.447310
v -2.768550 -1.644800 2.488380
v -0.980350 0.736770 2.550920
v -1.229560 1.190670 2.542200
v -1.518830 0.842950 2.532350
v -1.322430 0.335650 2.538930
v -3.428520 2.001720 2.465450
v -2.276700 -1.989430 2.505540
v -1.907130 1.276610 2.518570
v -2.289570 -1.533630 2.505080
v -4.454730 -1.418910 2.429530
v -3.351650 1.569060 2.468110
v -2.836390 1.630840 2.486100
v -2.050990 1.876460 2.513550
v -2.321570 1.512840 2.504070
v -2.790300 -1.656500 2.337510
v -2.302590 -1.532620 2.354510
v -1.903910 -1.305140 2.368500
v -1.481560 -0.833840 2.383780
v -1.286050 -0.205080 2.390050
v -1.325260 0.428020 2.388490
v -1.643300 1.027310 2.377490
v -2.132300 1.435450 2.360350
v -2.684010 1.612550 2.341290
v -3.200660 1.606080 2.323210
v -3.646120 1.456550 2.307720
v -4.076650 1.158640 2.292720
v -4.442380 0.612480 2.279530
v -4.561800 0.003770 2.275710
v -4.497450 -0.446700 2.277960
v -4.342690 -0.826480 2.283270
v -4.010660 -1.244110 2.295000
v -3.470840 -1.569910 2.313480
v -3.940160 1.806040 2.448650
v -5.001080 -0.159730 2.410520
v -4.639310 1.156050 2.423140
v -0.857050 0.210890 2.555200
v -4.843880 0.790030 2.416040
v -1.579780 1.577670 2.530980
v -2.447150 2.009700 2.499960
v -2.948400 2.070980 2.481740
v -3.664250 -1.955470 2.457190
v -1.314670 -1.332620 2.538990
v -1.073150 -0.957220 2.547660
v -4.902610 -0.640810 2.414090
v -2.669000 -2.075290 2.491970
v -4.984870 -0.287690 2.103730
v -4.835970 -0.814240 2.120480
v -4.634110 -1.183590 2.123770
v -4.382330 -1.491080 2.135790
v -3.957280 -1.820050 2.146390
v -3.455050 -2.026730 2.165420
v -2.985180 -2.095600 2.182670
v -2.464020 -2.051720 2.201460
v -1.961310 -1.865120 2.219010
v -1.633060 -1.655070 2.231630
v -1.332900 -1.371190 2.240580
v -1.092070 -1.018140 2.252420
v -0.932470 -0.657240 2.253930
v -0.835780 -0.193830 2.257630
v -0.845320 0.220240 2.253960
v -0.929310 0.631730 2.253510
v -1.137310 1.072170 2.249400
v -1.420670 1.442450 2.237350
v -1.797460 1.744070 2.233770
v -2.306620 1.986290 2.202860
v -2.854700 2.074110 2.181410
v -3.291100 2.033230 2.177860
v -3.669000 1.928430 2.159950
v -4.109780 1.694860 2.147060
v -4.502650 1.341400 2.122010
v -4.677940 1.088530 2.127690
v -4.879240 0.677510 2.118080
v -4.985280 0.193930 2.117190
v -4.822850 -0.083230 2.266880
v -4.776660 0.388710 2.268240
v -1.133530 -0.688110 2.395600
v -1.381870 -1.135130 2.386700
v -4.323900 -1.301800 2.283980
v -4.682970 -0.758070 2.271690
v -4.636000 0.819450 2.273170
v -1.177550 0.765010 2.393950
v -1.043890 0.317880 2.398580
v -1.017800 -0.140280 2.399450
v -3.049860 -1.923830 2.328350
v -3.840040 -1.689710 2.301140
v -4.366150 1.221990 2.282610
v -1.663330 -1.447350 2.376890
v -3.979510 1.573140 2.296180
v -3.455550 1.818990 2.314480
v -2.921040 1.894070 2.333080
v -2.422210 1.827450 2.350580
v -2.172520 -1.776220 2.358870
v -1.824780 1.557210 2.371650
v -1.425900 1.167950 2.385240
v -5.442230 1.229430 -0.822370
v -5.535540 0.890350 -0.988870
v -5.537660 1.240390 -0.410100
v -5.440560 0.887090 1.213570
v -5.536870 1.077180 0.797440
v -5.537630 0.519460 1.222730
v -5.366920 0.118620 1.640260
v -5.279220 0.547320 1.685150
v -5.537330 -0.019540 1.331000
v -5.406400 -0.863270 1.327190
v -5.537410 -0.394480 1.276650
v -5.537470 -0.926380 0.976510
v -5.376070 -1.294630 0.993980
v -5.537690 -1.284110 0.409010
v -5.410130 -1.243950 -0.931930
v -5.537800 -1.290550 -0.383670
v -5.537510 -0.892290 -0.970330
v -5.354340 -0.359840 -1.609870
v -5.537480 -0.526690 -1.194960
v -5.536750 0.101380 -1.323620
v -5.372810 -1.548770 -0.505960
v -5.368420 -0.956930 -1.315020
v -5.244840 -1.686670 0.704320
v -5.318130 1.598160 -0.545660
v -5.355010 1.635270 0.011750
v -5.537470 1.305370 0.124920
v -5.270260 -0.370190 1.754780
v -5.178530 -0.786060 1.734180
v -5.245710 1.590490 0.844290
v -5.442980 1.419750 0.442350
v -5.316610 0.701650 -1.533740
v -5.205630 0.274750 -1.821360
v -5.537270 0.497310 -1.211130
v -5.252110 1.724870 0.431510
v -5.207850 -1.504360 -1.095050
v -5.136520 1.907380 -0.261730
v -5.119730 -1.976660 -0.129080
v -5.399650 -1.586260 0.095850
v -4.977810 -1.985170 -0.782130
v -5.122520 -0.475610 -1.887430
v -5.159550 -1.052720 -1.595810
v -4.970230 2.107480 0.152710
v -5.020510 0.833900 -1.883380
v -5.190030 1.148010 -1.451680
v -5.027550 1.719470 1.137200
v -4.899350 2.068580 0.713630
v -5.252200 1.258270 1.271810
v -4.912560 1.412960 1.669030
v -4.861280 -2.192150 0.510680
v -5.175600 -1.884340 0.240900
v -5.101440 -1.574510 1.229160
v -4.730330 -1.796890 1.526160
v -4.885180 -1.347140 1.777600
v -5.182510 -1.176060 1.491970
v -4.660190 -2.415030 -0.060980
v -4.902590 -0.949140 -1.967540
v -4.678570 0.756220 -2.237010
v -4.865050 0.323500 -2.180310
v -4.867190 -2.191650 -0.414420
v -4.883150 -1.962600 1.034900
v -4.755570 -1.355250 -1.880960
v -4.917870 -1.559030 -1.518920
v -4.617670 2.414710 -0.005780
v -4.866080 2.172270 -0.395240
v -4.728750 1.910380 1.342050
v -4.747620 -0.391270 -2.284410
v -4.544530 -0.698400 -2.369740
v -4.712500 0.011260 -2.333930
v -5.053780 -0.026940 -2.018400
v -4.649910 1.242370 -2.039830
v -4.647860 -2.285020 0.782240
v -4.532440 2.256500 1.025470
v -4.399340 -1.729870 1.922250
v -4.576100 -2.194620 1.138010
v -4.414780 -2.054170 1.561660
v -4.538590 2.415280 0.536060
v -4.498010 -1.175720 -2.214630
v -4.396120 2.551890 0.220140
v -4.306070 -0.151570 -2.612480
v -4.469820 0.343900 -2.488170
v -4.171160 -2.561660 0.900000
v -4.066420 2.439630 1.247650
v -4.146450 2.567780 0.822910
v -4.368570 2.191100 1.369320
v -4.052330 -2.129510 1.772820
v -4.035310 -2.466200 1.288080
v -4.035450 0.265110 -2.730150
v -4.227890 -1.045370 -2.449780
v -4.102020 -0.655460 -2.636370
v -4.032650 2.132890 1.751200
v -3.688680 2.456830 1.508050
v -4.458400 1.805190 1.785920
v -3.775110 2.676720 0.977590
v -4.246410 0.699710 -2.549580
v -3.764840 0.522130 -2.796390
v -3.719410 -2.302650 1.758030
v -3.677980 -2.741750 0.947450
v -3.816560 -2.807790 0.563680
v -3.423340 -2.691410 1.256230
v -3.536690 -0.030920 -2.918340
v -3.166010 -0.421480 -2.953680
v -3.724330 -0.596200 -2.798760
v -3.950370 -0.235810 -2.771900
v -3.562800 2.173870 1.942710
v -3.269620 2.467690 1.663810
v -3.350120 2.698810 1.202300
v -3.554610 -0.886630 -2.779910
v -3.153080 -0.852320 -2.860820
v -3.031940 0.176810 -2.981190
v -3.239980 0.510510 -2.925780
v -3.289780 -2.385740 1.808320
v -2.908280 2.444880 1.752630
v -2.886100 2.726930 1.260920
v -2.725130 -0.296600 -2.979830
v -2.734870 -2.464570 1.757300
v -3.072180 -2.561790 1.594980
v -2.716870 0.823300 -2.876900
v -2.569470 0.467330 -2.945220
v -2.545750 2.784520 1.082500
v -2.738110 2.913070 0.730170
v -2.845800 -2.788710 1.180060
v -2.375690 -2.640560 1.400760
v -2.703190 -0.866590 -2.874400
v -2.287290 -2.359910 1.817880
v -2.431750 2.281510 1.920010
v -2.370310 -2.817590 0.988270
v -2.768160 -2.934890 0.726240
v -2.251270 2.532940 1.514890
v -2.170730 2.744630 1.005500
v -2.195960 2.869840 0.604600
v -2.026790 0.523060 -2.832780
v -2.074930 0.157660 -2.891710
v -2.565440 0.092080 -2.980880
v -1.961130 -2.618770 1.247980
v -2.070600 -2.879110 0.558330
v -1.613770 -2.661170 0.743300
v -1.730470 -2.249630 1.690760
v -1.769160 2.655470 0.896330
v -1.858140 2.800970 0.458470
v -1.743090 2.434550 1.388440
v -1.968970 -2.134240 1.954700
v -2.260990 0.896150 -2.798220
v -1.757800 1.036950 -2.601960
v -1.665940 0.763470 -2.644270
v -1.581970 -1.900230 1.989130
v -2.189200 -0.572020 -2.874070
v -2.225560 -0.204770 -2.925260
v -1.712970 -0.292790 -2.763460
v -1.687710 -0.705990 -2.676490
v -1.223080 0.488290 -2.479670
v -1.573480 0.195250 -2.712900
v -1.474790 -2.391740 1.265320
v -1.462110 1.967800 1.818190
v -1.931150 2.158940 1.883770
v -1.411130 2.565120 0.607870
v -1.433500 2.650100 0.174260
v -1.311250 2.233230 1.306340
v -1.198680 2.348430 0.920100
v -1.266140 -1.928350 1.720170
v -1.365000 -0.404760 -2.579380
v -1.022650 -2.137270 1.146440
v -1.265570 -2.488320 0.680300
v -1.154550 -1.468450 2.040630
v -1.624020 -2.753670 0.330170
v -1.065820 -0.110520 -2.418900
v -1.299780 -2.602110 0.038790
v -1.102300 -2.450140 0.298760
v -0.965830 2.323100 0.352810
v -1.487830 -1.185680 -2.428360
v -1.063280 -0.633590 -2.335890
v -0.867980 -0.956830 -2.056850
v -1.187070 -1.365370 -2.112690
v -1.201850 0.915360 -2.336140
v -0.881390 1.084900 -1.991140
v -0.806160 0.572040 -2.126650
v -0.863190 0.124900 -2.250850
v -0.875230 1.924500 1.211260
v -1.143990 1.927350 1.564180
v -0.809640 1.623560 1.513170
v -1.083570 1.523310 1.916660
v -0.815500 -2.179170 0.552870
v -0.681580 1.098780 1.802820
v -0.627940 -0.889770 1.857560
v -0.751710 -1.167260 1.848060
v -0.803050 2.047350 0.817220
v -0.903470 -1.705230 1.582580
v -0.560060 -1.363350 1.442980
v -0.562030 -1.388120 -1.400480
v -0.836080 -1.860440 -1.286650
v -0.969090 -1.576630 -1.757020
v -0.789490 -1.255170 -1.799740
v -0.813580 -2.237310 -0.020920
v -0.512040 -1.906670 0.266960
v -0.642900 -0.389090 -2.017390
v -1.105830 -2.465420 -0.215990
v -0.941860 -2.288270 -0.530410
v -0.604660 -2.002410 -0.316230
v -0.611730 -1.689360 1.140370
v -0.815430 2.209330 -0.104320
v -0.534070 1.927460 0.019840
v -0.581570 1.894430 -0.565580
v -0.905220 2.214930 -0.606150
v -0.549620 -0.464730 1.914960
v -0.852540 -2.103920 -0.855690
v -0.607820 -1.889250 -0.728370
v -0.598220 1.519490 -1.283220
v -0.593650 1.159650 -1.616390
v -0.907570 1.643500 -1.606520
v -0.828800 1.940810 -1.101790
v -0.576720 1.908240 0.489880
v -0.555710 1.688300 0.997950
v -0.567770 -1.815870 0.811040
v -0.549970 0.615860 -1.839640
v -0.558290 0.086440 -1.945980
v -0.349840 -1.444510 -0.900490
v -0.566610 -0.930310 -1.732050
v -0.324470 -1.019380 -1.304900
v -0.334620 1.490120 -0.747860
v -0.524500 1.277910 1.433390
v -0.285680 1.314690 0.942670
v -0.354770 -0.503590 1.629560
v -0.327870 0.035530 1.683450
v -0.549810 0.051830 1.961910
v -0.319400 1.099260 -1.205540
v -0.348240 0.612590 1.576000
v -0.598820 0.590350 1.934190
v -0.294390 -0.839720 1.409980
v -0.325120 -1.520670 0.708860
v -0.292750 -1.628580 -0.131900
v -0.292480 -1.540160 -0.525760
v -0.342240 1.594900 0.487340
v -0.322300 0.653730 -1.507250
v -0.334040 0.090810 -1.651780
v -0.329570 1.651530 -0.058240
v -0.318490 -1.222280 1.133520
v -0.285350 -1.608580 0.260420
v -0.325490 -0.446130 -1.595520
v -3.684760 2.817390 0.615570
v -4.113650 2.684480 0.421830
v -4.986610 1.910250 -0.850340
v -4.976260 1.653230 -1.296950
v -5.196160 1.488590 -1.104840
v -4.383280 1.086980 -2.324490
v -4.053790 0.961540 -2.562930
v -3.701870 0.878570 -2.728440
v -3.307000 0.834970 -2.839100
v -1.327880 1.238130 -2.270350
v -1.101520 1.410710 -1.993020
v -3.931090 -0.952980 -2.627440
v -4.990370 -1.753180 -1.172000
v -4.270010 -2.654440 0.329990
v -3.290010 -2.910500 0.714150
v -2.368630 -2.915850 0.660180
v -1.939910 -1.002340 -2.685280
v -2.296410 -0.916970 -2.806120
v -5.153510 0.946820 1.679280
v -4.858400 1.443010 -1.684440
v -3.270520 2.891380 0.704240
v -1.121330 2.452180 -0.189050
v -0.292140 0.986860 1.288760
v -0.246460 1.600680 0.114300
v -0.236910 0.561130 1.521780
v -0.228860 -1.337160 -0.903330
v -0.242880 -0.391840 1.579930
v -0.237930 1.514130 0.519130
v -0.221930 -1.491140 0.648350
v -0.227450 0.061150 -1.589750
v -0.244970 0.426450 -1.539530
v -0.225950 0.081490 1.616600
v -0.234380 1.400350 -0.763290
v -0.211220 1.551680 -0.342440
v -0.208430 -1.212880 1.086140
v -0.219620 -0.925240 -1.325250
v -0.205940 1.115730 -1.129030
v -0.210020 -0.344180 -1.561730
v -0.202720 0.826190 -1.354610
v 0.000230 1.551290 -0.361180
v 0.000250 1.399110 -0.747820
v 0.000200 1.589650 0.133730
v 0.000250 1.486280 0.594500
v 0.000250 1.260930 0.989170
v 0.000280 0.986620 1.268190
v 0.000280 0.609470 1.495240
v 0.000270 0.216840 1.598710
v 0.000210 -0.351110 1.595890
v 0.000250 -0.949100 1.320740
v 0.000250 -1.301110 0.974540
v 0.000320 -1.555440 0.477260
v 0.000260 -1.618900 -0.075030
v 0.000250 -1.525740 -0.522890
v 0.000220 -1.310170 -0.944550
v 0.000250 -0.925740 -1.308630
v 0.000290 -0.473660 -1.530080
v 0.000230 0.025230 -1.592330
v 0.000260 0.433100 -1.529460
v 0.000240 0.797100 -1.371340
v 0.000200 1.134600 -1.116770
v 0.000220 -0.450250 -0.905610
v 0.000300 0.154850 -0.998210
v 0.000270 -0.803750 -0.609610
v 0.000290 0.674660 -0.727030
v 0.000250 0.304060 0.990860
v 0.000280 0.803750 0.609590
v 0.000340 0.999500 0.127250
v 0.000220 0.919880 -0.373680
v 0.000430 -0.351010 0.968010
v -0.000040 -0.893180 0.556080
v 0.000160 -1.025090 -0.143930
v -0.059660 0.663930 -0.760680
v -0.059800 -0.372620 -0.941900
v -0.059740 -0.820110 -0.605330
v -0.059820 -0.948500 0.441590
v -0.059840 -0.491740 0.906490
v -0.059780 -0.092530 1.013810
v -0.059880 0.451760 0.923900
v -0.060480 0.936830 0.397070
v -0.059770 0.960470 -0.257840
v -0.059850 -1.007990 -0.149910
v -0.059830 0.145730 -0.982080
v -0.061780 -0.421990 -1.472660
v -0.060980 -0.755490 -1.332440
v -0.062470 0.085250 -1.531670
v -0.061100 1.424680 -0.565240
v -0.061100 0.726180 -1.349800
v -0.061120 1.502310 0.317230
v -0.060400 -1.387300 -0.679890
v -0.063900 -1.534470 -0.243370
v -0.061010 -1.538680 0.190140
v -0.060760 -0.630990 1.421150
v -0.062020 -0.239530 1.539410
v -0.060650 -1.269430 0.902330
v -0.061690 0.389410 1.513830
v -0.060250 1.146740 1.024110
v -5.537570 0.232810 -0.715080
v -5.537340 -0.673050 -0.378810
v -5.537560 -0.282260 -0.706250
v -5.537490 0.597490 -0.438640
v -5.537640 0.282100 0.726480
v -5.537690 -0.327790 0.729000
v -5.537440 -0.768170 -0.025780
v -5.537520 0.750550 -0.027780
v -5.537480 0.645020 0.394190
v -5.537480 -0.700700 0.338370
v -5.457450 0.496940 -0.552200
v -5.457490 0.769920 -0.044310
v -5.456490 0.054440 -0.750260
v -5.457520 -0.410290 -0.636440
v -5.457300 -0.746530 -0.223980
v -5.457750 -0.704960 0.360360
v -5.457470 -0.368560 0.683480
v -5.457080 0.119530 0.769760
v -5.457420 0.579470 0.496270
v -5.457070 -1.237130 -0.110400
v -5.456260 -0.951130 -0.771210
v -5.457730 -0.462180 -1.129970
v -5.457780 0.887070 0.845540
v -5.457610 1.185910 0.208080
v -5.457480 0.196050 -1.180100
v -5.457300 1.092130 -0.540030
v -5.457680 0.248970 1.196090
v -5.456470 -0.237730 1.215190
v -5.457150 -0.755560 0.974600
v -5.457500 0.683920 -0.980120
v -5.457520 -1.087520 0.577380
v -0.087710 1.337410 0.762330
v -0.095480 -0.988320 1.215830
v -0.094650 0.884070 1.269310
v -0.081530 1.159020 -0.990320
v -0.093520 -1.131540 -1.063670
v -0.084750 1.524950 -0.106190
v -0.084900 -1.460800 0.548040
v -0.307510 1.421330 -0.577580
v -0.300670 1.225840 -0.911950
v -0.318730 0.931500 -1.217870
v -0.290200 0.450400 -1.468230
v -0.341780 -0.071870 -1.539560
v -0.298330 -0.538910 -1.444620
v -0.294920 -0.883040 -1.261860
v -0.288630 -1.147460 -1.036300
v -0.297790 -1.369190 -0.728780
v -0.328540 -1.506760 -0.400880
v -0.291880 -1.558580 -0.011710
v -0.273520 -1.514430 0.383640
v -0.335580 -1.401260 0.699810
v -0.304780 -1.214140 0.986890
v -0.332170 -0.845360 1.327680
v -0.337810 -0.335420 1.533860
v -0.289710 0.046820 1.556960
v -0.300920 0.776270 1.342320
v -0.324420 1.090250 1.105520
v -0.322770 1.370700 0.721440
v -0.301410 1.506830 0.296340
v -0.286600 1.532470 -0.095230
v -0.287430 0.431360 1.494420
v -0.427530 -1.587550 0.325790
v -0.424820 1.548380 -0.366920
v -0.419430 1.581750 0.182320
v -0.420280 0.131870 1.605060
v -0.421820 -1.270710 -0.967410
v -0.435330 -0.890430 -1.341070
v -0.439110 -1.608530 -0.289170
v -0.437860 -1.467880 -0.667630
v -0.457090 1.109210 -1.173840
v -0.450800 -1.415600 0.834020
v -0.453130 1.408340 0.814610
v -0.434350 -0.401600 -1.545600
v -0.469160 -0.003720 -1.635670
v -0.454790 -1.030840 1.289880
v -0.449960 1.054240 1.239560
v -0.439960 0.653900 1.484870
v -0.459990 -0.222510 1.638520
v -0.460570 -0.584650 1.542320
v -0.430460 0.345010 -1.547060
v -0.425380 0.672150 -1.436310
v -0.455790 1.389240 -0.816790
v -4.968230 2.264130 -0.840640
v -4.996260 2.006080 -1.285740
v -4.776820 2.545560 -0.366990
v -4.479710 2.768430 -0.001280
v -4.103370 2.949400 0.285840
v -3.693070 3.067840 0.462430
v -3.276130 3.141720 0.561400
v -2.847200 3.166850 0.574850
v -2.403280 3.149310 0.512800
v -1.823280 3.046890 0.295420
v -1.318730 2.839680 -0.099180
v -1.036510 2.618860 -0.500850
v -0.907650 2.436250 -0.826350
v -0.844790 2.231170 -1.185800
v -0.908760 1.907090 -1.740300
v -1.164100 1.626550 -2.210800
v -1.545630 1.385590 -2.603220
v -2.097040 1.194980 -2.893220
v -2.574350 1.112990 -3.002390
v -3.069330 1.082090 -3.020820
v -3.609790 1.123810 -2.910960
v -4.136180 1.239880 -2.673000
v -4.556740 1.434880 -2.305840
v -4.765380 1.589420 -2.023940
v -4.933680 1.796020 -1.653940
v -4.998580 -1.978110 -1.378740
v -4.835140 -1.685240 -1.897230
v -4.551900 -1.451730 -2.321480
v -4.182520 -1.287410 -2.631810
v -3.803400 -1.182650 -2.839720
v -3.354610 -1.121610 -2.977200
v -2.756900 -1.116390 -3.027610
v -2.189990 -1.200870 -2.921070
v -1.791100 -1.315250 -2.750350
v -1.358280 -1.511750 -2.440740
v -1.030490 -1.778940 -2.000700
v -0.897880 -1.983810 -1.655110
v -0.843240 -2.202740 -1.279870
v -0.932750 -2.527180 -0.711780
v -1.253680 -2.826830 -0.170270
v -1.662570 -3.017380 0.188760
v -2.056600 -3.122760 0.398380
v -2.559280 -3.190580 0.549880
v -3.164680 -3.178710 0.572670
v -3.757230 -3.083960 0.448650
v -4.262500 -2.907520 0.179670
v -4.585710 -2.725920 -0.112060
v -4.833840 -2.506580 -0.474820
v -4.972850 -2.266630 -0.880680
v -1.626810 -1.688430 -2.115770
v -1.311910 -2.351430 -0.989570
v -3.059220 1.303780 -2.637630
v -2.674710 2.951710 0.190200
v -3.290380 2.914510 0.168790
v -3.860040 2.779820 -0.024880
v -2.579490 1.334770 -2.617390
v -3.648350 1.363920 -2.492460
v -1.612370 2.671080 -0.369640
v -1.369300 2.431130 -0.802800
v -2.093390 1.439780 -2.469360
v -4.412750 1.728990 -1.806150
v -1.576390 1.685700 -2.079460
v -1.329290 1.983630 -1.580810
v -4.548990 1.974760 -1.371180
v -4.297440 2.534080 -0.419900
v -4.530930 2.263990 -0.871320
v -2.090340 2.858950 -0.011480
v -1.283660 2.224460 -1.166690
v -4.097810 1.517400 -2.194860
v -1.320300 1.837490 -1.534230
v -1.285190 2.127820 -1.033850
v -1.594190 1.551600 -2.010300
v -2.013620 1.334350 -2.357770
v -2.526070 1.211520 -2.534540
v -3.103750 1.169060 -2.568230
v -3.638750 1.239210 -2.408670
v -4.007290 1.349370 -2.192060
v -4.355800 1.551740 -1.816810
v -4.531400 1.800160 -1.374600
v -4.543750 2.097790 -0.859110
v -4.283390 2.419200 -0.320050
v -3.892090 2.625910 0.011070
v -3.474600 2.752180 0.201130
v -2.795660 2.825390 0.280080
v -2.077580 2.733700 0.070960
v -1.601700 2.527830 -0.318650
v -1.374990 2.317600 -0.698930
v -2.489010 2.946020 0.467700
v -3.489050 2.897900 0.452620
v -4.790590 2.121890 -0.799340
v -4.819070 1.870110 -1.233370
v -4.562510 2.434730 -0.273320
v -4.712750 1.620340 -1.673780
v -3.488540 1.071480 -2.709740
v -3.063370 1.041140 -2.791950
v -2.413290 1.088550 -2.755130
v -1.811390 1.252510 -2.513310
v -1.368400 1.485140 -2.141640
v -1.109190 1.753480 -1.694740
v -1.130710 2.378820 -0.609920
v -1.414930 2.634570 -0.147560
v -1.903490 2.834670 0.233740
v -4.128680 2.698570 0.153440
v -4.409700 1.351030 -2.161400
v -1.007510 2.069260 -1.155690
v -3.913850 1.152040 -2.540490
v -0.756550 0.340980 -1.961110
v -0.787620 -0.039720 -2.027850
v -0.655450 1.136490 -1.486770
v -0.710000 1.528080 -1.191680
v -0.722200 1.763460 -0.831170
v -0.638100 1.512530 1.100740
v -0.657330 1.765840 0.649720
v -0.641190 0.595260 1.784270
v -0.957670 0.960230 1.978260
v -0.709940 1.155410 1.587200
v -0.600820 -1.024960 1.532670
v -0.864380 -1.023500 1.862780
v -0.769920 -0.638770 1.933380
v -0.603820 -1.350960 1.254160
v -0.645690 -1.881160 0.236920
v -0.748220 -1.886170 0.700890
v -0.835690 -2.072710 -0.327460
v -0.715200 -1.800320 -0.785150
v -0.749690 -1.602120 -1.204870
v -0.680470 -1.211610 -1.486080
v -0.709930 -1.667240 1.049060
v -0.790200 0.827030 -1.847930
v -0.709740 -0.840090 -1.758070
v -0.719620 -0.411650 -1.905620
v -0.697550 -0.199690 1.943790
v -0.884920 2.064730 -0.455470
v -0.993100 1.733810 1.393570
v -0.948970 1.986820 0.910890
v -0.954610 -1.533580 1.601080
v -0.849080 0.371640 2.075050
v -1.021440 1.791840 -1.318750
v -0.981990 1.406780 -1.690000
v -0.996890 -0.547250 -2.151390
v -1.020720 -1.924850 1.199470
v -0.907860 -2.143140 0.284750
v -0.962110 -1.355900 -1.720590
v -1.085230 -1.680420 -1.555050
v -1.061240 -1.066060 -2.006610
v -1.038840 -0.360300 2.244260
v -1.015440 0.230660 2.243970
v -1.118430 0.884590 -2.136490
v -1.152550 0.333950 -2.305260
v -1.136170 -2.342460 -0.079430
v -1.027570 2.063160 -0.848860
v -1.441300 1.297930 -2.153460
v -1.006720 -1.896990 -1.179030
v -1.044130 -2.119290 -0.798630
v -1.172330 -1.243630 2.023800
v -1.250990 -0.194480 -2.395320
v -1.285710 2.331480 0.688580
v -1.103510 2.287630 0.162020
v -0.833760 2.045620 0.327240
v -1.201110 -0.850260 2.241070
v -1.241520 2.379300 -0.298040
v -1.367940 -0.613660 -2.394700
v -1.352900 -0.979550 -2.268400
v -1.256100 1.270930 2.056560
v -1.618490 1.610560 2.067380
v -1.316610 1.757640 1.722150
v -1.026300 1.371880 1.779640
v -1.443430 -1.632680 1.961050
v -1.201830 -2.285120 0.728860
v -1.434010 -2.268590 1.148390
v -1.408770 2.172830 1.248980
v -1.425280 0.482210 -2.452710
v -1.585120 0.040980 -2.594070
v -1.464960 2.508870 0.327700
v -1.599180 2.592510 0.103340
v -1.189070 0.806220 2.238810
v -1.565210 1.341830 2.222890
v -1.197380 -2.369330 0.306000
v -1.447380 -2.547870 -0.030880
v -1.691920 -1.477580 2.217810
v -1.420710 -1.192470 2.229010
v -1.453840 -1.320990 -2.150470
v -1.229720 -1.490900 -1.873040
v -1.634420 -2.594290 0.496450
v -1.643920 -2.488360 0.891730
v -1.572710 0.887980 -2.419880
v -1.792450 -0.613770 -2.623010
v -1.763030 -1.158790 -2.408430
v -1.830400 0.486540 -2.647580
v -1.643170 2.481650 0.837810
v -2.025940 2.738410 0.386570
v -1.801070 2.426330 1.152460
v -1.981960 -2.521970 1.166780
v -1.994710 -2.308590 1.560890
v -1.446610 -2.003930 1.576450
v -1.850980 -1.969040 1.898720
v -1.986740 1.053910 -2.540650
v -1.978860 -2.750700 0.359630
v -2.098860 -2.695810 0.784270
v -2.095570 1.711740 2.203880
v -2.160430 -1.766240 2.208930
v -2.185170 2.675420 0.851710
v -2.041100 -0.025620 -2.762580
v -2.264960 2.514410 1.291320
v -1.876930 1.975960 1.879110
v -2.241870 0.578620 -2.746260
v -2.364560 -0.300720 -2.824910
v -2.276720 0.238550 -2.806570
v -2.270800 2.278460 1.673070
v -2.410840 2.024580 2.013680
v -2.595280 -2.844050 0.556450
v -2.515930 -2.676940 1.077740
v -2.480320 -2.494670 1.438300
v -2.642980 0.485180 -2.825300
v -2.582810 0.935340 -2.706140
v -2.816430 -1.903700 2.210620
v -2.526650 -2.213650 1.867560
v -2.700770 2.339850 1.685980
v -2.884740 2.582690 1.287890
v -2.585590 2.707590 0.940990
v -2.892730 -2.537760 1.418700
v -3.124300 -2.236000 1.832070
v -2.430640 -0.702280 -2.758290
v -2.839280 -0.419300 -2.846520
v -2.924630 2.141390 1.935300
v -3.019690 -2.727930 0.990070
v -2.713770 1.889070 2.182480
v -2.718440 0.058360 -2.871210
v -3.113540 0.531280 -2.815930
v -3.072760 0.909040 -2.709300
v -3.408300 2.353230 1.581340
v -3.201080 -0.112160 -2.851100
v -3.501640 0.254900 -2.786380
v -3.175610 -2.822470 0.572090
v -3.345280 1.846750 2.161930
v -3.348310 -0.647780 -2.759360
v -3.395860 -0.976280 -2.662990
v -2.832740 -0.970870 -2.722950
v -3.378400 2.028190 1.985030
v -3.339920 2.609730 1.106480
v -3.086650 2.827850 0.564820
v -3.556830 2.668490 0.800180
v -3.403180 -1.846620 2.186600
v -3.665810 -2.011700 1.932150
v -3.423890 -2.410250 1.525720
v -3.440800 -2.686420 0.928420
v -3.669250 -0.154790 -2.749230
v -3.801030 -0.548700 -2.658320
v -3.577810 -2.759300 0.486600
v -3.805940 -2.624090 0.772100
v -3.498880 0.934390 -2.631230
v -3.711270 0.592930 -2.670260
v -3.829890 2.466130 1.116880
v -3.803470 2.051520 1.783440
v -3.842770 -1.029080 -2.492000
v -3.830820 1.656020 2.155080
v -3.770650 -2.453090 1.242760
v -3.985400 1.038690 -2.424540
v -4.167870 0.669910 -2.458800
v -3.994490 2.554650 0.652690
v -4.051350 -2.127080 1.566650
v -3.741810 2.696490 0.437030
v -3.993000 2.246190 1.389300
v -4.126720 0.264110 -2.560620
v -3.971940 -1.601420 2.136960
v -4.135050 -1.718730 1.946260
v -4.136360 1.813450 1.829380
v -4.269710 2.004130 1.506660
v -4.220820 -2.473490 0.621370
v -4.211360 -2.329930 1.064000
v -4.154910 -0.683090 -2.470540
v -4.248780 -1.161760 -2.228730
v -4.134510 1.449500 2.132730
v -4.410240 1.461440 1.936760
v -4.161490 2.541670 0.196960
v -4.385190 2.399610 0.357920
v -4.428980 -1.687310 1.753440
v -4.653470 1.982060 1.046310
v -4.335130 2.283970 0.933670
v -4.556870 -1.987730 1.238920
v -4.168780 -0.102710 -2.549330
v -4.462390 -0.438510 -2.339130
v -4.608360 1.572110 1.657810
v -4.551620 0.573480 -2.235510
v -4.572670 0.090800 -2.291270
v -4.562330 -2.225470 0.694410
v -4.694860 2.136830 0.539770
v -4.736290 2.161220 0.062420
v -4.448250 2.378260 -0.062350
v -4.283810 -2.509950 0.099950
v -4.546310 -2.323930 -0.197100
v -4.580930 -2.309380 0.201090
v -4.583510 -1.375320 -1.835580
v -4.535870 -0.974260 -2.117570
v -4.362910 1.204040 -2.123470
v -4.755560 1.000840 -1.897400
v -4.417790 1.154030 2.124480
v -4.827560 0.977240 1.866140
v -4.934040 -1.522470 1.323270
v -4.666310 2.178990 -0.395070
v -4.656840 -0.775080 2.114550
v -4.391430 -1.222400 2.127900
v -4.697320 -1.217550 1.866060
v -5.059850 -1.001960 1.573220
v -4.949140 -0.595540 1.901110
v -4.932030 -1.991100 0.280340
v -4.891640 -0.249420 -2.006040
v -4.874390 0.158950 -2.029690
v -4.867860 -1.878600 0.869430
v -4.619510 1.389010 -1.766910
v -4.754240 1.561750 -1.460190
v -5.009050 1.101180 -1.538580
v -4.985890 0.446500 1.885210
v -5.138830 0.810160 1.552130
v -4.701230 0.654780 2.113340
v -4.946740 1.920210 -0.384290
v -5.020340 1.876410 0.035570
v -4.977710 1.346460 1.397920
v -5.017900 -0.023380 1.904170
v -5.244720 0.216550 1.593110
v -4.812040 0.106480 2.110070
v -4.810360 1.742860 -1.142640
v -4.794760 1.957340 -0.767660
v -5.014280 1.694610 -0.814710
v -5.037330 1.597790 0.963170
v -4.959090 1.874820 0.545800
v -4.720660 1.750190 1.309010
v -4.792540 -0.335090 2.109490
v -4.758890 -2.088810 -0.600590
v -4.815230 -1.827920 -1.044740
v -5.058930 -1.634100 -0.880940
v -5.179260 -1.598680 0.615960
v -5.163000 -0.534740 -1.624740
v -5.221340 -0.868620 -1.376260
v -4.892040 -1.111910 -1.698760
v -4.777380 -0.692880 -2.013370
v -5.103950 0.504980 -1.702500
v -4.829210 0.568740 -1.992980
v -5.142100 1.357730 -1.068020
v -4.767840 -1.614330 -1.422050
v -5.143450 -1.223560 -1.239560
v -5.163860 -1.701720 -0.289970
v -5.295030 -1.515160 0.233260
v -4.843150 -2.077540 -0.186970
v -5.251190 -1.229630 1.040130
v -5.231440 1.580740 0.278160
v -5.250150 1.097220 1.155320
v -5.256770 -0.012260 -1.570480
v -5.280180 1.518900 -0.164980
v -5.282040 0.558300 -1.415340
v -5.373620 0.538540 1.275310
v -5.284080 1.385500 0.648320
v -5.266430 1.443890 -0.551850
v -5.273490 -0.661500 1.429220
v -5.241950 -0.171540 1.597150
v -5.321130 -1.310960 -0.688990
v -5.292810 0.901390 -1.201490
v -1.143510 -2.291990 -0.489160
v -3.936680 -2.662440 0.339400
v -2.453970 2.816510 0.486180
v -2.227150 -1.020140 -2.623970
v -1.781780 2.218990 1.518650
v -1.169980 1.530460 -1.762350
v -0.825370 2.056990 -0.106060
v -4.561820 -2.143010 -1.123550
v -4.455200 -2.407400 -0.672890
v -4.320120 -1.682200 -1.938430
v -4.508740 -1.888860 -1.567440
v -4.007960 -1.497600 -2.279780
v -3.417700 -1.350450 -2.576410
v -1.381890 -1.916590 -1.738040
v -4.112920 -2.689440 -0.209030
v -1.495530 -2.607080 -0.533990
v -1.966860 -2.853320 -0.074570
v -1.918860 -1.534920 -2.361200
v -1.289170 -2.145810 -1.347200
v -2.324540 -1.404120 -2.559520
v -2.799630 -1.337900 -2.641010
v -3.594250 -2.882730 0.090140
v -3.036150 -2.969550 0.201480
v -2.512920 -2.958890 0.146460
v -2.526000 -1.233620 -2.539790
v -3.158790 -1.200490 -2.553470
v -1.992950 -1.372710 -2.336800
v -1.686000 -1.519490 -2.104040
v -1.443900 -1.706020 -1.797830
v -1.273410 -2.006830 -1.288610
v -1.339720 -2.289030 -0.795460
v -1.589140 -2.551460 -0.322930
v -2.108670 -2.763300 0.079800
v -2.709920 -2.845540 0.264980
v -3.262100 -2.812700 0.245750
v -3.744630 -2.707810 0.098070
v -4.154650 -2.523070 -0.193560
v -4.400930 -2.332640 -0.505950
v -4.545570 -2.076320 -0.939890
v -4.517190 -1.761330 -1.487910
v -4.263480 -1.514230 -1.933100
v -3.974940 -1.362420 -2.216030
v -3.608830 -1.257660 -2.423180
v -4.225300 -1.291480 -2.321660
v -4.540980 -1.471220 -1.988260
v -4.746150 -1.698380 -1.580480
v -3.863140 -1.164420 -2.566900
v -4.754540 -2.217430 -0.681060
v -1.060310 -2.311030 -0.777070
v -1.021650 -2.015510 -1.291450
v -1.087130 -1.814190 -1.635460
v -1.265360 -1.597730 -1.997860
v -1.361270 -2.621820 -0.217730
v -1.642570 -1.349750 -2.401230
v -3.406610 -1.085080 -2.736360
v -4.529800 -2.488540 -0.227500
v -4.828230 -1.958090 -1.125040
v -1.830750 -2.841690 0.195550
v -4.095050 -2.737780 0.173930
v -2.148090 -1.173740 -2.670650
v -2.757020 -1.075560 -2.799550
v -3.658830 -2.876570 0.384060
v -3.091260 -2.971650 0.508620
v -2.398320 -2.955630 0.433010
v -2.440130 2.894750 0.456950
v -3.061250 2.907330 0.520590
v -3.395080 2.865580 0.472380
v -3.394310 2.796470 0.512060
v -2.774210 2.537160 0.018190
v -2.755450 2.622300 0.005810
v -3.059860 2.602500 -0.004460
v -3.093690 2.552980 0.069350
v -2.812620 2.692180 0.294470
v -3.031120 2.682630 0.289650
v -2.938580 2.589000 0.107040
v -2.755900 2.699420 0.171170
v -2.944150 2.800040 0.349500
v -3.077540 2.705340 0.199520
v -2.437830 -1.080740 -2.730140
v -3.038000 -1.032840 -2.772250
v -3.392080 -1.056840 -2.705270
v -2.437390 -1.018130 -2.680100
v -2.774700 -1.281450 -2.198620
v -2.764360 -1.332540 -2.274000
v -3.021930 -1.338190 -2.244050
v -3.093670 -1.246910 -2.237440
v -3.045580 -1.122510 -2.456180
v -2.825290 -1.190800 -2.349830
v -2.846430 -1.093400 -2.526420
v -3.009640 -1.126400 -2.595880
v -2.742020 -1.176900 -2.535150
v -2.434620 -1.858580 2.310440
v -3.397380 -1.866310 2.275150
v -2.436410 -1.845390 2.230260
v -2.774710 -1.292100 2.218650
v -2.755650 -1.324260 2.298540
v -3.045870 -1.311070 2.294720
v -3.093660 -1.344700 2.206740
v -3.031100 -1.600320 2.208870
v -2.833830 -1.636710 2.214450
v -2.896390 -1.376210 2.220960
v -2.728990 -1.483970 2.292590
v -3.096110 -1.517650 2.279370
v -2.909330 -1.732370 2.287260

f 1 2 3
f 1 3 3
f 4 5 6
f 4 6 6
f 7 8 9
f 7 9 9
f 10 11 8
f 10 8 8
f 12 13 14
f 12 14 14
f 12 15 13
f 12 13 13
f 7 10 8
f 7 8 8
f 15 12 16
f 15 16 16
f 16 17 15
f 16 15 15
f 18 17 16
f 18 16 16
f 1 19 2
f 1 2 2
f 20 1 3
f 20 3 3
f 21 22 23
f 21 23 24
f 25 4 6
f 25 6 6
f 4 12 14
f 4 14 14
f 20 3 26
f 20 26 26
f 24 11 21
f 24 21 21
f 22 27 23
f 22 23 23
f 14 5 4
f 14 4 4
f 19 18 2
f 19 2 2
f 26 7 28
f 26 28 28
f 7 9 28
f 7 28 28
f 16 29 2
f 16 2 18
f 11 10 21
f 11 21 21
f 25 30 31
f 25 31 31
f 28 20 26
f 28 26 26
f 6 30 25
f 6 25 25
f 32 31 33
f 32 33 33
f 32 33 27
f 32 27 27
f 31 32 25
f 31 25 25
f 27 22 32
f 27 32 32
f 34 20 28
f 34 28 35
f 36 35 28
f 36 28 28
f 37 36 9
f 37 9 9
f 38 37 8
f 38 8 8
f 39 38 11
f 39 11 11
f 40 39 23
f 40 23 23
f 41 40 27
f 41 27 27
f 42 41 33
f 42 33 33
f 43 42 31
f 43 31 31
f 44 43 30
f 44 30 30
f 45 44 6
f 45 6 6
f 46 45 14
f 46 14 14
f 47 46 13
f 47 13 13
f 48 47 15
f 48 15 15
f 49 48 17
f 49 17 17
f 50 49 18
f 50 18 18
f 51 50 19
f 51 19 19
f 34 51 1
f 34 1 1
f 1 20 34
f 1 34 34
f 19 1 51
f 19 51 51
f 18 19 50
f 18 50 50
f 17 18 49
f 17 49 49
f 15 17 48
f 15 48 48
f 13 15 47
f 13 47 47
f 14 13 46
f 14 46 46
f 5 14 45
f 5 45 45
f 6 5 45
f 6 45 45
f 30 6 44
f 30 44 44
f 31 30 43
f 31 43 43
f 33 31 42
f 33 42 42
f 27 33 41
f 27 41 41
f 23 27 40
f 23 40 40
f 24 23 39
f 24 39 39
f 11 24 39
f 11 39 39
f 8 11 38
f 8 38 38
f 9 8 37
f 9 37 37
f 28 9 36
f 28 36 36
f 52 4 25
f 52 25 25
f 53 16 12
f 53 12 12
f 54 12 4
f 54 4 4
f 55 21 10
f 55 10 10
f 54 56 12
f 54 12 12
f 32 22 57
f 32 57 57
f 58 59 32
f 58 32 32
f 3 2 60
f 3 60 60
f 61 62 10
f 61 10 10
f 16 53 63
f 16 63 63
f 25 32 59
f 25 59 59
f 3 64 26
f 3 26 26
f 10 7 61
f 10 61 61
f 63 53 65
f 63 65 65
f 66 16 63
f 66 63 63
f 29 16 67
f 29 67 67
f 29 67 68
f 29 68 68
f 68 2 29
f 68 29 29
f 2 68 69
f 2 69 69
f 60 2 69
f 60 69 69
f 60 69 70
f 60 70 70
f 70 3 60
f 70 60 60
f 3 70 71
f 3 71 71
f 64 3 71
f 64 71 71
f 64 71 72
f 64 72 72
f 72 26 64
f 72 64 64
f 26 72 73
f 26 73 73
f 73 7 26
f 73 26 26
f 7 73 74
f 7 74 74
f 75 61 7
f 75 7 74
f 76 62 61
f 76 61 75
f 10 62 77
f 10 77 77
f 10 77 78
f 10 78 78
f 78 55 10
f 78 10 10
f 55 79 80
f 55 80 80
f 80 21 55
f 80 55 55
f 21 80 81
f 21 81 81
f 81 22 21
f 81 21 21
f 57 22 82
f 57 82 82
f 32 57 83
f 32 83 83
f 83 84 32
f 83 32 32
f 84 58 32
f 84 32 32
f 85 59 58
f 85 58 58
f 86 25 59
f 86 59 59
f 86 87 25
f 86 25 25
f 52 25 87
f 52 87 87
f 4 52 88
f 4 88 88
f 4 89 90
f 4 90 90
f 90 54 4
f 90 4 4
f 56 54 90
f 56 90 90
f 90 91 56
f 90 56 56
f 91 12 56
f 91 56 56
f 91 92 12
f 91 12 12
f 92 53 12
f 92 12 12
f 92 65 53
f 92 53 53
f 88 89 4
f 88 4 4
f 87 88 52
f 87 52 52
f 85 86 59
f 85 59 59
f 84 85 58
f 84 58 58
f 82 83 57
f 82 57 57
f 81 82 22
f 81 22 22
f 78 79 55
f 78 55 55
f 76 77 62
f 76 62 62
f 66 67 16
f 66 16 16
f 65 66 63
f 65 63 63
f 93 94 47
f 93 47 47
f 46 47 94
f 46 94 94
f 95 96 37
f 95 37 37
f 97 49 50
f 97 50 50
f 97 98 49
f 97 49 49
f 46 94 99
f 46 99 99
f 100 39 40
f 100 40 40
f 99 45 46
f 99 46 46
f 39 100 101
f 39 101 101
f 39 101 102
f 39 102 38
f 103 104 51
f 103 51 51
f 93 47 48
f 93 48 48
f 45 99 105
f 45 105 105
f 37 96 106
f 37 106 36
f 104 97 50
f 104 50 50
f 45 105 107
f 45 107 107
f 44 45 107
f 44 107 107
f 108 109 43
f 108 43 43
f 109 42 43
f 109 43 43
f 109 110 42
f 109 42 42
f 37 38 95
f 37 95 95
f 36 106 111
f 36 111 111
f 35 36 111
f 35 111 111
f 110 112 41
f 110 41 41
f 40 113 100
f 40 100 100
f 50 51 104
f 50 104 104
f 48 98 93
f 48 93 93
f 107 108 44
f 107 44 44
f 110 41 42
f 110 42 42
f 103 51 34
f 103 34 34
f 40 41 112
f 40 112 112
f 48 49 98
f 48 98 98
f 43 44 108
f 43 108 108
f 38 102 95
f 38 95 95
f 40 112 113
f 40 113 113
f 34 111 103
f 34 103 103
f 34 35 111
f 34 111 111
f 114 115 116
f 114 116 116
f 117 118 119
f 117 119 119
f 120 121 119
f 120 119 122
f 123 124 125
f 123 125 125
f 126 125 127
f 126 127 127
f 128 129 130
f 128 130 130
f 131 132 133
f 131 133 133
f 134 129 128
f 134 128 128
f 135 132 131
f 135 131 131
f 126 127 136
f 126 136 136
f 114 116 137
f 114 137 137
f 138 137 116
f 138 116 139
f 140 120 122
f 140 122 124
f 123 141 140
f 123 140 124
f 142 143 118
f 142 118 118
f 144 145 133
f 144 133 146
f 144 146 115
f 144 115 115
f 126 123 125
f 126 125 125
f 147 143 142
f 147 142 142
f 148 134 128
f 148 128 128
f 149 137 138
f 149 138 138
f 148 128 135
f 148 135 135
f 150 151 134
f 150 134 134
f 152 134 148
f 152 148 148
f 131 153 154
f 131 154 135
f 155 149 138
f 155 138 147
f 140 65 92
f 140 92 120
f 156 144 157
f 156 157 157
f 142 158 159
f 142 159 147
f 158 160 161
f 158 161 161
f 162 136 163
f 162 163 163
f 164 165 166
f 164 166 167
f 150 168 162
f 150 162 163
f 169 154 153
f 169 153 153
f 156 170 171
f 156 171 145
f 66 65 140
f 66 140 141
f 150 134 152
f 150 152 172
f 173 136 162
f 173 162 162
f 174 175 154
f 174 154 169
f 155 176 177
f 155 177 149
f 165 164 173
f 165 173 173
f 166 67 66
f 166 66 141
f 178 158 161
f 178 161 161
f 169 153 179
f 169 179 180
f 181 182 171
f 181 171 171
f 170 156 183
f 170 183 183
f 184 173 162
f 184 162 162
f 159 158 178
f 159 178 185
f 186 68 166
f 186 166 165
f 165 173 187
f 165 187 188
f 189 159 185
f 189 185 185
f 190 169 180
f 190 180 180
f 191 176 189
f 191 189 189
f 192 181 193
f 192 193 193
f 188 186 165
f 188 165 165
f 194 187 184
f 194 184 184
f 195 196 185
f 195 185 197
f 198 69 186
f 198 186 188
f 199 188 187
f 199 187 194
f 200 192 193
f 200 193 193
f 201 180 202
f 201 202 202
f 203 204 195
f 203 195 197
f 88 87 203
f 88 203 205
f 206 196 195
f 206 195 195
f 200 207 208
f 200 208 208
f 209 198 199
f 209 199 199
f 210 194 211
f 210 211 211
f 212 199 210
f 212 210 210
f 213 214 215
f 213 215 216
f 204 203 217
f 204 217 218
f 206 195 204
f 206 204 219
f 220 215 214
f 220 214 221
f 222 213 223
f 222 223 223
f 71 70 224
f 71 224 224
f 218 225 226
f 218 226 219
f 225 218 86
f 225 86 85
f 214 213 222
f 214 222 227
f 228 224 229
f 228 229 229
f 223 230 231
f 223 231 222
f 232 233 226
f 232 226 226
f 234 235 228
f 234 228 229
f 236 221 214
f 236 214 227
f 228 237 72
f 228 72 71
f 84 238 85
f 84 85 85
f 239 234 240
f 239 240 240
f 241 232 226
f 241 226 225
f 241 225 238
f 241 238 238
f 232 242 243
f 232 243 233
f 231 244 245
f 231 245 246
f 241 242 232
f 241 232 232
f 247 235 239
f 247 239 239
f 248 249 247
f 248 247 239
f 247 250 237
f 247 237 235
f 251 252 243
f 251 243 242
f 253 251 242
f 253 242 241
f 72 237 254
f 72 254 73
f 250 254 237
f 250 237 237
f 244 255 256
f 244 256 257
f 258 73 254
f 258 254 254
f 259 260 261
f 259 261 262
f 258 254 250
f 258 250 250
f 257 263 264
f 257 264 244
f 265 250 247
f 265 247 247
f 266 267 83
f 266 83 83
f 268 269 252
f 268 252 252
f 253 270 271
f 253 271 251
f 272 258 250
f 272 250 250
f 273 262 261
f 273 261 261
f 265 274 272
f 265 272 250
f 275 265 249
f 275 249 249
f 273 261 264
f 273 264 264
f 258 272 276
f 258 276 74
f 275 249 277
f 275 277 277
f 278 273 264
f 278 264 263
f 277 279 280
f 277 280 275
f 281 269 268
f 281 268 268
f 274 265 275
f 274 275 275
f 282 283 284
f 282 284 285
f 286 287 288
f 286 288 263
f 289 278 263
f 289 263 263
f 290 270 291
f 290 291 291
f 292 291 293
f 292 293 293
f 294 275 280
f 294 280 280
f 295 293 81
f 295 81 81
f 296 77 76
f 296 76 297
f 271 270 290
f 271 290 298
f 299 300 297
f 299 297 276
f 301 302 303
f 301 303 304
f 304 285 284
f 304 284 284
f 289 263 288
f 289 288 288
f 305 306 294
f 305 294 280
f 278 289 307
f 278 307 283
f 305 308 309
f 305 309 310
f 298 281 271
f 298 271 271
f 311 299 274
f 311 274 274
f 284 283 307
f 284 307 307
f 312 313 314
f 312 314 315
f 316 78 77
f 316 77 77
f 309 317 318
f 309 318 310
f 319 320 321
f 319 321 321
f 314 322 315
f 314 315 315
f 281 323 313
f 281 313 312
f 323 281 298
f 323 298 298
f 324 298 290
f 324 290 290
f 325 311 274
f 325 274 294
f 288 326 327
f 288 327 289
f 326 288 287
f 326 287 320
f 324 290 292
f 324 292 292
f 300 299 311
f 300 311 311
f 302 301 328
f 302 328 318
f 329 330 301
f 329 301 304
f 331 319 322
f 331 322 314
f 324 292 332
f 324 332 333
f 316 334 335
f 316 335 336
f 337 320 319
f 337 319 319
f 335 338 339
f 335 339 336
f 296 297 300
f 296 300 340
f 341 311 325
f 341 325 325
f 306 305 310
f 306 310 342
f 343 342 310
f 343 310 318
f 324 333 344
f 324 344 323
f 326 345 346
f 326 346 327
f 347 331 314
f 347 314 314
f 348 300 311
f 348 311 341
f 342 349 306
f 342 306 306
f 350 330 329
f 350 329 329
f 329 284 307
f 329 307 350
f 307 327 346
f 307 346 350
f 196 206 351
f 196 351 352
f 353 354 355
f 353 355 355
f 207 356 357
f 207 357 357
f 358 208 207
f 358 207 357
f 359 223 208
f 359 208 358
f 223 359 230
f 223 230 230
f 286 257 256
f 286 256 360
f 287 286 360
f 287 360 361
f 321 320 287
f 321 287 361
f 321 322 319
f 321 319 319
f 362 202 215
f 362 215 220
f 190 180 201
f 190 201 201
f 363 152 148
f 363 148 148
f 194 364 211
f 194 211 211
f 365 240 234
f 365 234 212
f 239 240 366
f 239 366 366
f 248 239 366
f 248 366 366
f 277 249 248
f 277 248 248
f 308 305 280
f 308 280 279
f 262 282 367
f 262 367 367
f 367 259 262
f 367 262 262
f 259 367 368
f 259 368 368
f 259 368 236
f 259 236 236
f 224 228 71
f 224 71 71
f 69 198 209
f 69 209 70
f 91 369 121
f 91 121 121
f 89 205 161
f 89 161 90
f 217 87 86
f 217 86 86
f 85 238 225
f 85 225 225
f 83 267 84
f 83 84 84
f 82 293 266
f 82 266 83
f 82 81 293
f 82 293 293
f 80 339 295
f 80 295 81
f 79 336 339
f 79 339 80
f 79 78 336
f 79 336 336
f 258 74 73
f 258 73 73
f 75 74 276
f 75 276 276
f 76 75 276
f 76 276 276
f 88 205 89
f 88 89 89
f 67 166 68
f 67 68 68
f 69 68 186
f 69 186 186
f 303 285 304
f 303 304 304
f 302 318 317
f 302 317 317
f 365 210 211
f 365 211 211
f 172 168 150
f 172 150 150
f 363 148 175
f 363 175 175
f 362 201 202
f 362 202 202
f 230 255 231
f 230 231 231
f 370 157 355
f 370 355 354
f 353 137 149
f 353 149 177
f 189 196 352
f 189 352 191
f 206 219 371
f 206 371 351
f 315 372 312
f 315 312 312
f 301 330 328
f 301 328 328
f 341 325 306
f 341 306 349
f 300 348 340
f 300 340 340
f 316 296 340
f 316 340 334
f 373 332 295
f 373 295 338
f 332 373 333
f 332 333 333
f 344 347 313
f 344 313 323
f 347 314 313
f 347 313 313
f 319 331 337
f 319 337 337
f 345 320 337
f 345 337 337
f 318 328 343
f 318 343 343
f 339 338 295
f 339 295 295
f 326 320 345
f 326 345 345
f 294 306 325
f 294 325 325
f 292 293 295
f 292 295 332
f 78 316 336
f 78 336 336
f 298 324 323
f 298 323 323
f 289 327 307
f 289 307 307
f 77 296 316
f 77 316 316
f 284 329 304
f 284 304 304
f 291 292 290
f 291 290 290
f 276 297 76
f 276 76 76
f 372 281 312
f 372 312 312
f 275 294 274
f 275 274 274
f 274 299 272
f 274 272 272
f 272 299 276
f 272 276 276
f 269 281 372
f 269 372 372
f 273 278 283
f 273 283 283
f 268 271 281
f 268 281 281
f 282 262 273
f 282 273 283
f 266 293 291
f 266 291 291
f 266 291 270
f 266 270 270
f 257 286 263
f 257 263 263
f 251 271 268
f 251 268 268
f 253 267 266
f 253 266 270
f 252 251 268
f 252 268 268
f 247 249 265
f 247 265 265
f 261 260 245
f 261 245 264
f 244 264 245
f 244 245 245
f 241 238 267
f 241 267 253
f 238 84 267
f 238 267 267
f 246 245 260
f 246 260 260
f 231 255 244
f 231 244 244
f 228 235 237
f 228 237 237
f 259 236 227
f 259 227 260
f 234 239 235
f 234 235 235
f 227 246 260
f 227 260 260
f 222 231 246
f 222 246 246
f 222 246 227
f 222 227 227
f 371 219 226
f 371 226 233
f 212 234 229
f 212 229 229
f 217 86 218
f 217 218 218
f 212 229 224
f 212 224 224
f 204 218 219
f 204 219 219
f 209 224 70
f 209 70 70
f 210 365 212
f 210 212 212
f 209 199 212
f 209 212 224
f 208 223 213
f 208 213 213
f 203 87 217
f 203 217 217
f 200 208 213
f 200 213 213
f 200 213 216
f 200 216 216
f 194 210 199
f 194 199 199
f 202 216 215
f 202 215 215
f 192 200 216
f 192 216 216
f 192 216 202
f 192 202 202
f 188 199 198
f 188 198 198
f 197 178 205
f 197 205 203
f 193 207 200
f 193 200 200
f 180 179 192
f 180 192 202
f 185 196 189
f 185 189 189
f 184 364 194
f 184 194 194
f 207 193 170
f 207 170 356
f 364 184 162
f 364 162 168
f 181 192 179
f 181 179 179
f 178 197 185
f 178 185 185
f 183 356 170
f 183 170 170
f 171 193 181
f 171 181 181
f 169 190 174
f 169 174 174
f 155 159 189
f 155 189 176
f 171 170 193
f 171 193 193
f 173 184 187
f 173 187 187
f 161 205 178
f 161 178 178
f 156 157 370
f 156 370 183
f 182 181 179
f 182 179 179
f 90 161 369
f 90 369 91
f 182 179 153
f 182 153 153
f 136 173 164
f 136 164 164
f 121 120 92
f 121 92 91
f 148 135 154
f 148 154 175
f 145 171 182
f 145 182 182
f 167 166 141
f 167 141 141
f 355 114 137
f 355 137 353
f 369 161 160
f 369 160 160
f 147 159 155
f 147 155 155
f 144 156 145
f 144 145 145
f 160 158 142
f 160 142 142
f 131 182 153
f 131 153 153
f 131 133 145
f 131 145 182
f 167 123 126
f 167 126 164
f 136 127 151
f 136 151 163
f 126 136 164
f 126 164 164
f 123 167 141
f 123 141 141
f 115 114 355
f 115 355 157
f 151 150 163
f 151 163 163
f 118 160 142
f 118 142 142
f 115 157 144
f 115 144 144
f 138 139 143
f 138 143 147
f 117 369 160
f 117 160 160
f 117 119 121
f 117 121 369
f 117 160 118
f 117 118 118
f 129 134 151
f 129 151 151
f 130 135 128
f 130 128 128
f 118 143 139
f 118 139 139
f 130 132 135
f 130 135 135
f 127 129 151
f 127 151 151
f 347 344 374
f 347 374 374
f 373 338 375
f 373 375 375
f 343 328 376
f 343 376 376
f 335 334 377
f 335 377 377
f 344 333 378
f 344 378 378
f 341 349 379
f 341 379 379
f 374 344 378
f 374 378 378
f 350 346 380
f 350 380 380
f 346 345 381
f 346 381 381
f 375 335 382
f 375 382 382
f 383 331 384
f 383 384 384
f 331 347 384
f 331 384 384
f 340 348 385
f 340 385 385
f 376 330 386
f 376 386 386
f 330 350 386
f 330 386 386
f 384 347 374
f 384 374 374
f 348 341 385
f 348 385 385
f 337 331 387
f 337 387 387
f 386 350 388
f 386 388 388
f 383 387 331
f 383 331 331
f 387 389 337
f 387 337 337
f 380 388 350
f 380 350 350
f 379 385 341
f 379 341 341
f 337 389 345
f 337 345 345
f 389 381 345
f 389 345 345
f 381 380 346
f 381 346 346
f 330 376 328
f 330 328 328
f 335 375 338
f 335 338 338
f 377 382 335
f 377 335 335
f 340 377 334
f 340 334 334
f 383 384 390
f 383 390 391
f 374 392 390
f 374 390 384
f 374 378 393
f 374 393 392
f 393 378 333
f 393 333 333
f 394 393 333
f 394 333 333
f 394 333 373
f 394 373 395
f 373 375 396
f 373 396 395
f 397 396 375
f 397 375 375
f 397 375 382
f 397 382 382
f 398 397 382
f 398 382 382
f 340 399 398
f 340 398 398
f 385 400 399
f 385 399 399
f 400 385 379
f 400 379 379
f 379 401 400
f 379 400 400
f 402 401 349
f 402 349 349
f 342 343 403
f 342 403 402
f 343 376 404
f 343 404 403
f 405 404 386
f 405 386 386
f 386 406 405
f 386 405 405
f 388 407 406
f 388 406 406
f 407 380 381
f 407 381 408
f 381 389 409
f 381 409 408
f 389 387 410
f 389 410 409
f 410 387 383
f 410 383 383
f 391 410 383
f 391 383 383
f 388 380 407
f 388 407 407
f 386 388 406
f 386 406 406
f 376 386 404
f 376 404 404
f 349 342 402
f 349 402 402
f 379 349 401
f 379 401 401
f 340 385 399
f 340 399 399
f 377 340 398
f 377 398 398
f 382 377 398
f 382 398 398
f 405 406 411
f 405 411 411
f 406 407 412
f 406 412 411
f 413 404 405
f 413 405 411
f 409 410 414
f 409 414 414
f 415 416 395
f 415 395 396
f 392 393 417
f 392 417 417
f 418 391 390
f 418 390 390
f 396 397 415
f 396 415 415
f 398 419 415
f 398 415 397
f 400 401 420
f 400 420 420
f 401 402 421
f 401 421 420
f 412 407 408
f 412 408 408
f 393 394 416
f 393 416 417
f 419 398 399
f 419 399 399
f 399 400 420
f 399 420 419
f 412 408 409
f 412 409 414
f 391 418 414
f 391 414 410
f 402 403 421
f 402 421 421
f 390 392 417
f 390 417 418
f 394 395 416
f 394 416 416
f 403 404 413
f 403 413 421
f 414 418 422
f 414 422 422
f 412 414 422
f 412 422 422
f 411 412 423
f 411 423 423
f 413 411 424
f 413 424 424
f 421 413 424
f 421 424 424
f 420 421 425
f 420 425 425
f 419 420 426
f 419 426 426
f 415 419 427
f 415 427 427
f 416 415 428
f 416 428 428
f 417 416 429
f 417 429 429
f 418 417 430
f 418 430 430
f 430 422 418
f 430 418 418
f 429 430 417
f 429 417 417
f 428 429 416
f 428 416 416
f 427 428 415
f 427 415 415
f 426 427 419
f 426 419 419
f 425 426 420
f 425 420 420
f 431 425 421
f 431 421 421
f 424 431 421
f 424 421 421
f 423 424 411
f 423 411 411
f 432 423 412
f 432 412 412
f 422 432 412
f 422 412 412
f 433 434 423
f 433 423 423
f 435 433 423
f 435 423 432
f 424 423 434
f 424 434 434
f 422 430 436
f 422 436 436
f 436 437 422
f 436 422 422
f 432 422 437
f 432 437 435
f 438 436 430
f 438 430 430
f 439 440 431
f 439 431 424
f 434 439 424
f 434 424 424
f 430 429 438
f 430 438 438
f 440 441 431
f 440 431 431
f 425 431 441
f 425 441 441
f 426 442 443
f 426 443 427
f 425 444 442
f 425 442 426
f 427 443 445
f 427 445 428
f 429 428 446
f 429 446 446
f 445 446 428
f 445 428 428
f 441 444 425
f 441 425 425
f 429 446 438
f 429 438 438
f 447 146 133
f 447 133 133
f 130 448 449
f 130 449 132
f 115 146 447
f 115 447 450
f 133 132 449
f 133 449 447
f 116 115 450
f 116 450 450
f 122 451 452
f 122 452 124
f 451 122 119
f 451 119 119
f 453 129 127
f 453 127 127
f 116 450 454
f 116 454 454
f 130 129 448
f 130 448 448
f 453 448 129
f 453 129 129
f 455 118 139
f 455 139 454
f 452 125 124
f 452 124 124
f 451 119 118
f 451 118 455
f 456 127 125
f 456 125 452
f 139 116 454
f 139 454 454
f 127 456 453
f 127 453 453
f 457 458 450
f 457 450 450
f 459 457 447
f 459 447 447
f 460 459 449
f 460 449 449
f 461 460 448
f 461 448 448
f 462 461 453
f 462 453 453
f 463 462 452
f 463 452 452
f 464 463 452
f 464 452 452
f 465 464 451
f 465 451 451
f 458 465 455
f 458 455 455
f 454 450 458
f 454 458 458
f 455 454 458
f 455 458 458
f 451 455 465
f 451 465 465
f 452 451 464
f 452 464 464
f 456 452 462
f 456 462 462
f 453 456 462
f 453 462 462
f 448 453 461
f 448 461 461
f 449 448 460
f 449 460 460
f 447 449 459
f 447 459 459
f 450 447 457
f 450 457 457
f 461 466 467
f 461 467 467
f 459 460 468
f 459 468 468
f 469 465 458
f 469 458 470
f 468 471 459
f 468 459 459
f 458 472 470
f 458 470 470
f 469 473 464
f 469 464 465
f 474 475 463
f 474 463 463
f 460 461 467
f 460 467 467
f 471 476 457
f 471 457 459
f 457 476 472
f 457 472 472
f 474 463 464
f 474 464 473
f 475 477 462
f 475 462 463
f 458 457 472
f 458 472 472
f 462 477 466
f 462 466 461
f 467 468 460
f 467 460 460
f 438 446 478
f 438 478 478
f 442 444 479
f 442 479 479
f 445 480 446
f 445 446 446
f 436 481 437
f 436 437 437
f 434 482 439
f 434 439 439
f 438 483 436
f 438 436 436
f 441 484 444
f 441 444 444
f 436 485 486
f 436 486 486
f 486 481 436
f 486 436 436
f 486 487 481
f 486 481 481
f 437 481 487
f 437 487 487
f 487 488 437
f 487 437 437
f 488 435 437
f 488 437 437
f 488 489 435
f 488 435 435
f 489 433 435
f 489 435 435
f 489 490 433
f 489 433 433
f 490 434 433
f 490 433 433
f 490 491 434
f 490 434 434
f 482 434 491
f 482 491 491
f 482 491 492
f 482 492 492
f 482 492 493
f 482 493 493
f 439 482 493
f 439 493 493
f 439 493 494
f 439 494 494
f 440 439 494
f 440 494 494
f 440 494 495
f 440 495 495
f 441 440 495
f 441 495 495
f 495 496 441
f 495 441 441
f 496 484 441
f 496 441 441
f 484 496 497
f 484 497 497
f 444 484 497
f 444 497 497
f 444 497 498
f 444 498 498
f 479 444 498
f 479 498 498
f 499 442 479
f 499 479 479
f 500 443 442
f 500 442 442
f 500 501 443
f 500 443 443
f 501 445 443
f 501 443 443
f 502 480 445
f 502 445 445
f 503 446 480
f 503 480 480
f 503 504 478
f 503 478 446
f 504 438 478
f 504 478 478
f 504 505 438
f 504 438 438
f 506 483 438
f 506 438 505
f 506 485 436
f 506 436 483
f 502 503 480
f 502 480 480
f 445 507 502
f 445 502 502
f 445 501 507
f 445 507 507
f 499 500 442
f 499 442 442
f 498 499 479
f 498 479 479
f 508 496 495
f 508 495 495
f 509 485 506
f 509 506 506
f 510 506 505
f 510 505 505
f 511 501 500
f 511 500 500
f 512 493 492
f 512 492 492
f 513 492 491
f 513 491 491
f 513 491 490
f 513 490 490
f 514 495 494
f 514 494 494
f 515 493 512
f 515 512 512
f 516 487 486
f 516 486 486
f 517 498 497
f 517 497 497
f 518 505 504
f 518 504 504
f 513 490 519
f 513 519 519
f 520 490 489
f 520 489 489
f 521 499 498
f 521 498 498
f 514 494 515
f 514 515 515
f 517 497 508
f 517 508 508
f 522 503 523
f 522 523 523
f 524 500 525
f 524 525 525
f 526 520 489
f 526 489 489
f 499 521 525
f 499 525 525
f 500 524 511
f 500 511 511
f 487 516 527
f 487 527 527
f 485 528 516
f 485 516 516
f 498 517 521
f 498 521 521
f 499 525 500
f 499 500 500
f 503 522 518
f 503 518 518
f 503 518 504
f 503 504 504
f 485 509 528
f 485 528 528
f 490 520 519
f 490 519 519
f 505 518 510
f 505 510 510
f 493 515 494
f 493 494 494
f 502 523 503
f 502 503 503
f 495 514 508
f 495 508 508
f 486 485 516
f 486 516 516
f 488 526 489
f 488 489 489
f 488 487 527
f 488 527 527
f 488 527 526
f 488 526 526
f 492 513 512
f 492 512 512
f 496 508 497
f 496 497 497
f 507 511 523
f 507 523 523
f 507 523 502
f 507 502 502
f 501 511 507
f 501 507 507
f 506 510 509
f 506 509 509
f 353 529 530
f 353 530 530
f 531 529 177
f 531 177 177
f 176 532 531
f 176 531 531
f 532 176 191
f 532 191 191
f 191 533 532
f 191 532 532
f 533 352 351
f 533 351 534
f 351 371 535
f 351 535 534
f 535 371 233
f 535 233 536
f 537 536 233
f 537 233 233
f 243 538 537
f 243 537 537
f 538 252 269
f 538 269 269
f 539 538 269
f 539 269 269
f 539 269 372
f 539 372 372
f 540 539 372
f 540 372 372
f 541 540 315
f 541 315 315
f 315 322 542
f 315 542 541
f 543 542 322
f 543 322 322
f 322 321 543
f 322 543 543
f 361 544 543
f 361 543 543
f 360 545 544
f 360 544 544
f 546 545 256
f 546 256 256
f 546 256 255
f 546 255 255
f 546 255 230
f 546 230 230
f 230 547 546
f 230 546 546
f 230 548 547
f 230 547 547
f 549 548 359
f 549 359 359
f 359 358 549
f 359 549 549
f 358 550 549
f 358 549 549
f 550 358 357
f 550 357 357
f 550 357 356
f 550 356 356
f 356 551 550
f 356 550 550
f 183 552 551
f 183 551 551
f 370 553 552
f 370 552 552
f 354 530 553
f 354 553 553
f 530 354 353
f 530 353 353
f 370 354 553
f 370 553 553
f 183 370 552
f 183 552 552
f 356 183 551
f 356 551 551
f 230 359 548
f 230 548 548
f 360 256 545
f 360 545 545
f 361 360 544
f 361 544 544
f 321 361 543
f 321 543 543
f 372 315 540
f 372 540 540
f 243 252 538
f 243 538 538
f 233 243 537
f 233 537 537
f 191 352 533
f 191 533 533
f 177 176 531
f 177 531 531
f 353 177 529
f 353 529 529
f 554 363 175
f 554 175 175
f 555 554 175
f 555 175 175
f 555 175 174
f 555 174 174
f 174 556 555
f 174 555 555
f 556 174 190
f 556 190 190
f 556 190 201
f 556 201 557
f 557 201 362
f 557 362 362
f 362 558 557
f 362 557 557
f 362 220 558
f 362 558 558
f 559 558 220
f 559 220 220
f 559 220 221
f 559 221 221
f 221 560 559
f 221 559 559
f 368 561 560
f 368 560 560
f 561 368 367
f 561 367 367
f 562 561 367
f 562 367 367
f 563 562 282
f 563 282 282
f 285 564 563
f 285 563 563
f 564 285 303
f 564 303 303
f 303 565 564
f 303 564 564
f 302 566 565
f 302 565 565
f 566 302 317
f 566 317 317
f 317 567 566
f 317 566 566
f 309 308 567
f 309 567 567
f 308 568 567
f 308 567 567
f 308 279 568
f 308 568 568
f 568 279 277
f 568 277 569
f 277 248 570
f 277 570 569
f 248 366 571
f 248 571 570
f 240 572 571
f 240 571 571
f 572 240 365
f 572 365 365
f 365 573 572
f 365 572 572
f 364 574 573
f 364 573 211
f 575 574 364
f 575 364 364
f 575 364 168
f 575 168 168
f 168 576 575
f 168 575 575
f 576 168 172
f 576 172 172
f 172 577 576
f 172 576 576
f 577 172 152
f 577 152 152
f 152 363 554
f 152 554 577
f 365 211 573
f 365 573 573
f 366 240 571
f 366 571 571
f 317 309 567
f 317 567 567
f 303 302 565
f 303 565 565
f 282 285 563
f 282 563 563
f 367 282 562
f 367 562 562
f 236 368 560
f 236 560 560
f 221 236 560
f 221 560 560
f 554 555 577
f 554 577 577
f 561 562 563
f 561 563 563
f 565 578 563
f 565 563 564
f 567 579 565
f 567 565 566
f 576 577 574
f 576 574 574
f 561 563 560
f 561 560 560
f 574 575 576
f 574 576 576
f 558 556 557
f 558 557 557
f 570 568 569
f 570 569 569
f 574 572 573
f 574 573 573
f 572 570 571
f 572 571 571
f 560 558 559
f 560 559 559
f 537 538 536
f 537 536 536
f 531 532 529
f 531 529 529
f 535 536 534
f 535 534 534
f 534 532 533
f 534 533 533
f 539 540 538
f 539 538 538
f 546 544 545
f 546 545 545
f 541 542 540
f 541 540 540
f 551 553 550
f 551 550 550
f 529 553 530
f 529 530 530
f 550 580 548
f 550 548 549
f 546 547 548
f 546 548 548
f 544 542 543
f 544 543 543
f 553 551 552
f 553 552 552
f 534 536 581
f 534 581 582
f 534 582 583
f 534 583 583
f 546 548 580
f 546 580 584
f 550 585 580
f 550 580 580
f 583 532 534
f 583 534 534
f 536 538 581
f 536 581 581
f 538 540 586
f 538 586 586
f 540 587 586
f 540 586 586
f 546 584 588
f 546 588 588
f 550 553 589
f 550 589 589
f 544 590 591
f 544 591 591
f 553 529 592
f 553 592 592
f 529 593 594
f 529 594 594
f 586 595 538
f 586 538 538
f 583 593 532
f 583 532 532
f 596 587 540
f 596 540 542
f 542 591 596
f 542 596 596
f 542 544 591
f 542 591 591
f 588 544 546
f 588 546 546
f 589 597 550
f 589 550 550
f 595 581 538
f 595 538 538
f 588 590 544
f 588 544 544
f 597 585 550
f 597 550 550
f 553 592 589
f 553 589 589
f 593 529 532
f 593 532 532
f 594 592 529
f 594 529 529
f 598 599 596
f 598 596 596
f 600 598 590
f 600 590 590
f 601 600 590
f 601 590 590
f 602 601 588
f 602 588 588
f 603 602 584
f 603 584 584
f 604 603 585
f 604 585 585
f 605 604 585
f 605 585 585
f 606 605 597
f 606 597 597
f 607 606 589
f 607 589 589
f 608 607 592
f 608 592 592
f 609 608 594
f 609 594 594
f 610 609 583
f 610 583 583
f 611 610 583
f 611 583 583
f 612 611 582
f 612 582 582
f 613 612 581
f 613 581 581
f 614 613 586
f 614 586 586
f 615 614 586
f 615 586 586
f 599 615 587
f 599 587 587
f 587 596 599
f 587 599 599
f 586 587 615
f 586 615 615
f 595 586 613
f 595 613 613
f 581 595 613
f 581 613 613
f 582 581 612
f 582 612 612
f 583 582 611
f 583 611 611
f 593 583 609
f 593 609 609
f 594 593 609
f 594 609 609
f 592 594 608
f 592 608 608
f 589 592 607
f 589 607 607
f 597 589 606
f 597 606 606
f 585 597 605
f 585 605 605
f 580 585 603
f 580 603 603
f 584 580 603
f 584 603 603
f 588 584 602
f 588 602 602
f 590 588 601
f 590 601 601
f 591 590 598
f 591 598 598
f 596 591 598
f 596 598 598
f 616 617 612
f 616 612 612
f 608 618 619
f 608 619 619
f 608 620 618
f 608 618 618
f 607 619 621
f 607 621 621
f 606 607 621
f 606 621 621
f 612 613 616
f 612 616 616
f 607 608 619
f 607 619 619
f 622 623 603
f 622 603 603
f 624 602 603
f 624 603 623
f 624 625 601
f 624 601 601
f 626 627 598
f 626 598 600
f 614 615 628
f 614 628 628
f 614 628 629
f 614 629 629
f 629 630 613
f 629 613 614
f 630 616 613
f 630 613 613
f 617 610 611
f 617 611 611
f 622 603 604
f 622 604 604
f 631 609 610
f 631 610 610
f 631 620 609
f 631 609 609
f 632 605 606
f 632 606 606
f 633 628 599
f 633 599 599
f 611 612 617
f 611 617 617
f 632 634 605
f 632 605 605
f 624 601 602
f 624 602 602
f 615 599 628
f 615 628 628
f 604 634 622
f 604 622 622
f 600 601 625
f 600 625 626
f 606 621 632
f 606 632 632
f 604 605 634
f 604 634 634
f 608 609 620
f 608 620 620
f 610 617 631
f 610 631 631
f 598 627 633
f 598 633 633
f 599 598 633
f 599 633 633
f 520 526 635
f 520 635 636
f 527 516 637
f 527 637 637
f 516 638 637
f 516 637 637
f 528 509 639
f 528 639 639
f 518 640 641
f 518 641 641
f 642 643 644
f 642 644 523
f 523 511 642
f 523 642 642
f 645 646 647
f 645 647 525
f 525 521 645
f 525 645 645
f 521 517 648
f 521 648 648
f 508 649 650
f 508 650 650
f 514 651 649
f 514 649 508
f 514 515 652
f 514 652 652
f 515 512 653
f 515 653 652
f 512 513 654
f 512 654 653
f 655 517 650
f 655 650 650
f 526 527 656
f 526 656 635
f 654 513 657
f 654 657 657
f 519 520 636
f 519 636 658
f 524 525 647
f 524 647 659
f 527 637 656
f 527 656 656
f 639 509 660
f 639 660 660
f 640 661 662
f 640 662 641
f 663 646 645
f 663 645 648
f 511 659 664
f 511 664 642
f 638 665 666
f 638 666 637
f 514 652 651
f 514 651 651
f 656 637 666
f 656 666 666
f 658 636 667
f 658 667 667
f 655 650 668
f 655 668 668
f 650 649 669
f 650 669 669
f 670 671 653
f 670 653 654
f 667 672 657
f 667 657 658
f 673 659 647
f 673 647 647
f 659 673 674
f 659 674 664
f 657 672 670
f 657 670 654
f 675 676 635
f 675 635 656
f 669 651 677
f 669 677 677
f 639 678 665
f 639 665 638
f 666 679 675
f 666 675 656
f 680 681 652
f 680 652 653
f 636 635 676
f 636 676 676
f 646 663 682
f 646 682 682
f 683 636 676
f 683 676 676
f 684 685 686
f 684 686 662
f 687 646 682
f 687 682 682
f 678 660 688
f 678 688 688
f 667 689 690
f 667 690 672
f 691 692 693
f 691 693 694
f 682 663 695
f 682 695 695
f 668 696 697
f 668 697 697
f 662 661 698
f 662 698 698
f 676 699 700
f 676 700 683
f 701 702 688
f 701 688 685
f 684 662 698
f 684 698 698
f 691 703 704
f 691 704 704
f 705 677 706
f 705 706 706
f 695 707 708
f 695 708 682
f 709 710 672
f 709 672 690
f 711 712 696
f 711 696 705
f 699 676 675
f 699 675 713
f 697 696 712
f 697 712 712
f 683 700 714
f 683 714 689
f 714 715 690
f 714 690 689
f 700 699 716
f 700 716 716
f 701 684 717
f 701 717 717
f 702 701 718
f 702 718 718
f 717 698 719
f 717 719 719
f 697 712 720
f 697 720 720
f 697 720 721
f 697 721 722
f 723 722 721
f 723 721 721
f 716 713 724
f 716 724 724
f 711 725 726
f 711 726 712
f 692 704 727
f 692 727 727
f 707 695 723
f 707 723 728
f 717 719 729
f 717 729 729
f 714 700 730
f 714 730 730
f 729 719 731
f 729 731 731
f 732 692 727
f 732 727 727
f 716 724 733
f 716 733 733
f 714 730 734
f 714 734 734
f 730 700 716
f 730 716 735
f 736 732 737
f 736 737 737
f 726 725 738
f 726 738 738
f 720 739 740
f 720 740 721
f 720 726 739
f 720 739 739
f 735 733 741
f 735 741 741
f 741 733 742
f 741 742 742
f 743 728 744
f 743 744 744
f 731 736 745
f 731 745 745
f 731 745 746
f 731 746 747
f 748 749 744
f 748 744 740
f 750 734 751
f 750 751 751
f 745 736 737
f 745 737 752
f 739 738 753
f 739 753 753
f 737 754 752
f 737 752 752
f 755 741 756
f 755 756 756
f 742 757 756
f 742 756 741
f 743 744 749
f 743 749 749
f 745 752 758
f 745 758 746
f 751 755 759
f 751 759 759
f 756 760 759
f 756 759 755
f 753 738 761
f 753 761 761
f 752 754 762
f 752 762 762
f 763 764 765
f 763 765 751
f 752 762 766
f 752 766 766
f 763 751 759
f 763 759 759
f 767 746 758
f 767 758 758
f 768 767 769
f 768 769 769
f 770 749 771
f 770 771 771
f 772 748 753
f 772 753 773
f 774 775 763
f 774 763 759
f 776 777 773
f 776 773 761
f 774 759 760
f 774 760 760
f 756 778 779
f 756 779 760
f 767 758 780
f 767 780 780
f 769 767 780
f 769 780 780
f 758 766 781
f 758 781 781
f 775 782 764
f 775 764 763
f 766 762 783
f 766 783 781
f 784 773 777
f 784 777 777
f 785 786 779
f 785 779 778
f 769 780 787
f 769 787 787
f 772 784 788
f 772 788 771
f 789 769 787
f 789 787 787
f 758 781 790
f 758 790 790
f 760 779 791
f 760 791 774
f 791 779 786
f 791 786 786
f 792 771 793
f 792 793 793
f 781 794 795
f 781 795 790
f 777 796 797
f 777 797 784
f 782 775 798
f 782 798 798
f 782 798 799
f 782 799 799
f 783 800 801
f 783 801 794
f 802 787 803
f 802 803 803
f 793 788 804
f 793 804 804
f 795 805 806
f 795 806 790
f 788 797 807
f 788 807 807
f 798 808 809
f 798 809 809
f 795 794 810
f 795 810 810
f 804 788 807
f 804 807 807
f 811 812 791
f 811 791 786
f 797 796 813
f 797 813 813
f 808 791 812
f 808 812 812
f 803 787 806
f 803 806 814
f 809 808 812
f 809 812 812
f 803 814 815
f 803 815 816
f 817 818 819
f 817 819 819
f 820 799 821
f 820 821 821
f 811 786 822
f 811 822 823
f 801 824 825
f 801 825 825
f 804 807 826
f 804 826 826
f 827 816 815
f 827 815 815
f 828 829 830
f 828 830 830
f 830 831 832
f 830 832 828
f 813 819 833
f 813 833 833
f 834 812 835
f 834 835 835
f 807 797 813
f 807 813 836
f 837 838 839
f 837 839 823
f 830 804 826
f 830 826 826
f 836 813 833
f 836 833 833
f 840 841 825
f 840 825 842
f 843 827 815
f 843 815 844
f 810 801 825
f 810 825 845
f 846 847 840
f 846 840 848
f 849 850 851
f 849 851 851
f 805 852 853
f 805 853 814
f 854 810 845
f 854 845 845
f 848 855 846
f 848 846 846
f 856 857 858
f 856 858 858
f 850 843 851
f 850 851 851
f 836 833 859
f 836 859 859
f 860 861 862
f 860 862 863
f 823 839 864
f 823 864 865
f 838 849 866
f 838 866 839
f 867 868 858
f 867 858 857
f 867 862 868
f 867 868 868
f 852 854 845
f 852 845 845
f 869 870 833
f 869 833 871
f 835 865 864
f 835 864 864
f 859 872 826
f 859 826 836
f 844 853 873
f 844 873 873
f 852 845 874
f 852 874 874
f 875 834 835
f 875 835 864
f 843 844 876
f 843 876 876
f 845 841 874
f 845 874 874
f 864 839 877
f 864 877 877
f 847 878 841
f 847 841 840
f 853 852 879
f 853 879 873
f 859 833 870
f 859 870 870
f 860 834 875
f 860 875 875
f 866 851 880
f 866 880 880
f 832 881 882
f 832 882 846
f 831 826 872
f 831 872 872
f 876 844 873
f 876 873 873
f 870 869 466
f 870 466 466
f 847 846 882
f 847 882 882
f 869 858 883
f 869 883 883
f 881 831 872
f 881 872 475
f 883 868 467
f 883 467 467
f 474 473 847
f 474 847 882
f 859 870 477
f 859 477 872
f 861 860 468
f 861 468 468
f 875 864 877
f 875 877 471
f 876 873 470
f 876 470 470
f 467 868 861
f 467 861 468
f 877 884 476
f 877 476 476
f 880 876 472
f 880 472 472
f 860 875 468
f 860 468 468
f 470 879 469
f 470 469 469
f 477 870 466
f 477 466 466
f 468 875 471
f 468 471 471
f 756 757 778
f 756 778 778
f 822 837 823
f 822 823 823
f 787 802 789
f 787 789 789
f 885 706 677
f 885 677 677
f 711 706 725
f 711 725 725
f 682 708 687
f 682 687 687
f 840 842 848
f 840 848 848
f 855 828 832
f 855 832 832
f 727 754 737
f 727 737 737
f 856 871 818
f 856 818 818
f 710 671 670
f 710 670 670
f 715 709 690
f 715 690 690
f 473 469 878
f 473 878 878
f 475 474 881
f 475 881 881
f 470 472 876
f 470 876 876
f 476 471 877
f 476 877 877
f 467 466 883
f 467 883 883
f 884 866 472
f 884 472 476
f 847 473 878
f 847 878 878
f 477 475 872
f 477 872 872
f 879 852 874
f 879 874 469
f 879 470 873
f 879 873 873
f 883 466 869
f 883 869 869
f 874 841 878
f 874 878 469
f 880 472 866
f 880 866 866
f 881 474 882
f 881 882 882
f 868 883 858
f 868 858 858
f 880 851 843
f 880 843 876
f 884 877 839
f 884 839 839
f 866 884 839
f 866 839 839
f 831 881 832
f 831 832 832
f 861 868 862
f 861 862 862
f 869 871 856
f 869 856 858
f 834 860 863
f 834 863 863
f 841 845 825
f 841 825 825
f 815 814 853
f 815 853 844
f 826 831 830
f 826 830 830
f 854 852 805
f 854 805 805
f 851 866 849
f 851 849 849
f 836 826 807
f 836 807 807
f 832 846 855
f 832 855 855
f 819 818 871
f 819 871 833
f 862 820 821
f 862 821 863
f 843 850 827
f 843 827 827
f 835 812 811
f 835 811 865
f 862 867 820
f 862 820 820
f 834 863 809
f 834 809 809
f 823 865 811
f 823 811 811
f 812 834 809
f 812 809 809
f 805 814 806
f 805 806 806
f 809 863 821
f 809 821 821
f 842 825 824
f 842 824 824
f 810 854 795
f 810 795 795
f 854 805 795
f 854 795 795
f 796 817 819
f 796 819 813
f 821 799 798
f 821 798 809
f 829 793 804
f 829 804 830
f 801 810 794
f 801 794 794
f 824 801 800
f 824 800 800
f 803 816 802
f 803 802 802
f 822 786 785
f 822 785 785
f 817 796 886
f 817 886 886
f 793 829 792
f 793 792 792
f 790 806 780
f 790 780 780
f 780 806 787
f 780 787 787
f 775 774 808
f 775 808 798
f 784 797 788
f 784 788 788
f 788 793 771
f 788 771 771
f 791 808 774
f 791 774 774
f 886 796 777
f 886 777 777
f 783 794 781
f 783 781 781
f 758 790 780
f 758 780 780
f 886 777 776
f 886 776 776
f 771 792 770
f 771 770 770
f 773 784 772
f 773 772 772
f 772 771 749
f 772 749 749
f 768 769 789
f 768 789 789
f 761 773 753
f 761 753 753
f 766 758 752
f 766 752 752
f 768 747 746
f 768 746 767
f 772 749 748
f 772 748 748
f 749 770 743
f 749 743 743
f 755 751 734
f 755 734 734
f 748 740 739
f 748 739 753
f 751 765 750
f 751 750 750
f 747 768 887
f 747 887 887
f 750 765 888
f 750 888 888
f 747 887 729
f 747 729 729
f 729 887 718
f 729 718 718
f 731 747 729
f 731 729 729
f 741 755 735
f 741 735 735
f 734 730 735
f 734 735 755
f 738 739 726
f 738 726 726
f 740 744 721
f 740 721 721
f 742 733 724
f 742 724 724
f 734 750 714
f 734 714 714
f 750 888 714
f 750 714 714
f 744 728 723
f 744 723 721
f 727 737 732
f 727 732 732
f 731 719 889
f 731 889 736
f 733 735 716
f 733 716 716
f 714 888 715
f 714 715 715
f 732 736 889
f 732 889 889
f 726 720 712
f 726 712 712
f 718 701 717
f 718 717 729
f 679 724 713
f 679 713 713
f 889 719 698
f 889 698 698
f 889 698 693
f 889 693 732
f 713 716 699
f 713 699 699
f 692 732 693
f 692 693 693
f 722 723 695
f 722 695 695
f 706 711 705
f 706 705 705
f 698 717 684
f 698 684 684
f 679 713 675
f 679 675 675
f 704 692 691
f 704 691 691
f 697 722 668
f 697 668 668
f 693 698 661
f 693 661 661
f 683 689 667
f 683 667 667
f 684 701 685
f 684 685 685
f 663 668 722
f 663 722 695
f 703 691 643
f 703 643 643
f 885 677 651
f 885 651 651
f 890 679 666
f 890 666 666
f 643 691 694
f 643 694 694
f 647 646 687
f 647 687 673
f 665 890 666
f 665 666 666
f 672 710 670
f 672 670 670
f 681 885 651
f 681 651 651
f 677 705 669
f 677 669 669
f 694 693 661
f 694 661 661
f 636 683 667
f 636 667 667
f 705 696 669
f 705 669 669
f 669 696 650
f 669 650 650
f 688 660 891
f 688 891 685
f 671 680 653
f 671 653 653
f 674 703 664
f 674 664 664
f 650 696 668
f 650 668 668
f 643 642 664
f 643 664 703
f 661 640 644
f 661 644 694
f 686 685 891
f 686 891 891
f 652 681 651
f 652 651 651
f 643 694 644
f 643 644 644
f 660 678 639
f 660 639 639
f 663 648 655
f 663 655 668
f 651 669 649
f 651 649 649
f 662 686 641
f 662 641 641
f 509 510 891
f 509 891 660
f 641 686 510
f 641 510 510
f 686 891 510
f 686 510 510
f 657 513 519
f 657 519 658
f 655 648 517
f 655 517 517
f 644 640 522
f 644 522 522
f 659 511 524
f 659 524 524
f 522 640 518
f 522 518 518
f 639 638 528
f 639 528 528
f 650 517 508
f 650 508 508
f 648 645 521
f 648 521 521
f 644 522 523
f 644 523 523
f 641 510 518
f 641 518 518
f 638 516 528
f 638 528 528
f 892 893 577
f 892 577 577
f 556 894 895
f 556 895 555
f 556 558 896
f 556 896 896
f 897 558 560
f 897 560 560
f 898 578 565
f 898 565 565
f 574 893 899
f 574 899 899
f 574 577 893
f 574 893 893
f 900 579 567
f 900 567 567
f 568 901 900
f 568 900 900
f 577 555 895
f 577 895 895
f 896 894 556
f 896 556 556
f 578 902 563
f 578 563 563
f 579 903 565
f 579 565 565
f 900 567 568
f 900 568 568
f 558 897 896
f 558 896 896
f 903 898 565
f 903 565 565
f 895 892 577
f 895 577 577
f 904 905 560
f 904 560 560
f 902 904 563
f 902 563 563
f 899 906 574
f 899 574 574
f 905 897 560
f 905 560 560
f 568 570 901
f 568 901 901
f 572 907 908
f 572 908 908
f 906 907 572
f 906 572 572
f 906 572 574
f 906 574 574
f 904 560 563
f 904 563 563
f 908 901 570
f 908 570 570
f 908 570 572
f 908 572 572
f 909 910 905
f 909 905 905
f 911 909 904
f 911 904 904
f 912 911 902
f 912 902 902
f 913 912 578
f 913 578 578
f 914 913 898
f 914 898 898
f 915 914 579
f 915 579 579
f 916 915 900
f 916 900 900
f 917 916 901
f 917 901 901
f 918 917 908
f 918 908 908
f 919 918 907
f 919 907 907
f 920 919 906
f 920 906 906
f 921 920 899
f 921 899 899
f 922 921 899
f 922 899 899
f 923 922 893
f 923 893 893
f 924 923 892
f 924 892 892
f 925 924 894
f 925 894 894
f 926 925 896
f 926 896 896
f 927 926 896
f 927 896 896
f 910 927 897
f 910 897 897
f 897 905 910
f 897 910 910
f 896 897 927
f 896 927 927
f 894 896 925
f 894 925 925
f 895 894 924
f 895 924 924
f 892 895 924
f 892 924 924
f 893 892 923
f 893 923 923
f 899 893 922
f 899 922 922
f 906 899 920
f 906 920 920
f 907 906 919
f 907 919 919
f 908 907 918
f 908 918 918
f 901 908 917
f 901 917 917
f 900 901 916
f 900 916 916
f 579 900 915
f 579 915 915
f 903 579 914
f 903 914 914
f 898 903 914
f 898 914 914
f 578 898 913
f 578 913 913
f 902 578 912
f 902 912 912
f 904 902 911
f 904 911 911
f 905 904 909
f 905 909 909
f 928 925 926
f 928 926 926
f 925 928 929
f 925 929 929
f 929 930 924
f 929 924 925
f 926 931 928
f 926 928 928
f 932 922 923
f 932 923 923
f 933 934 914
f 933 914 915
f 913 935 936
f 913 936 936
f 933 915 916
f 933 916 937
f 913 914 935
f 913 935 935
f 912 913 936
f 912 936 936
f 911 912 938
f 911 938 938
f 927 910 939
f 927 939 939
f 932 940 922
f 932 922 922
f 924 930 941
f 924 941 941
f 942 916 917
f 942 917 917
f 914 934 935
f 914 935 935
f 912 936 938
f 912 938 938
f 923 924 941
f 923 941 941
f 941 932 923
f 941 923 923
f 940 921 922
f 940 922 922
f 940 943 921
f 940 921 921
f 938 944 911
f 938 911 911
f 909 911 944
f 909 944 944
f 944 945 909
f 944 909 909
f 927 939 931
f 927 931 931
f 943 920 921
f 943 921 921
f 926 927 931
f 926 931 931
f 920 946 947
f 920 947 919
f 910 945 939
f 910 939 939
f 947 948 918
f 947 918 918
f 916 942 937
f 916 937 937
f 920 943 946
f 920 946 946
f 918 919 947
f 918 947 947
f 917 918 948
f 917 948 948
f 948 942 917
f 948 917 917
f 910 909 945
f 910 945 945
f 890 665 627
f 890 627 627
f 679 890 626
f 679 626 626
f 626 625 679
f 626 679 679
f 724 679 625
f 724 625 625
f 757 742 623
f 757 623 623
f 623 622 778
f 623 778 757
f 622 634 778
f 622 778 778
f 785 778 634
f 785 634 634
f 822 785 632
f 822 632 632
f 632 837 822
f 632 822 822
f 837 632 621
f 837 621 621
f 838 837 621
f 838 621 621
f 619 849 838
f 619 838 838
f 850 619 618
f 850 618 618
f 827 850 618
f 827 618 618
f 827 618 620
f 827 620 620
f 816 827 620
f 816 620 620
f 802 816 631
f 802 631 631
f 789 802 631
f 789 631 631
f 631 617 789
f 631 789 789
f 616 630 718
f 616 718 718
f 702 718 630
f 702 630 630
f 629 688 702
f 629 702 702
f 678 688 628
f 678 628 628
f 665 678 633
f 665 633 633
f 949 950 616
f 949 616 616
f 950 951 617
f 950 617 617
f 789 617 951
f 789 951 951
f 951 952 789
f 951 789 789
f 768 789 952
f 768 952 952
f 949 616 718
f 949 718 718
f 617 616 950
f 617 950 950
f 628 633 678
f 628 678 678
f 629 628 688
f 629 688 688
f 630 629 702
f 630 702 702
f 620 631 816
f 620 816 816
f 850 849 619
f 850 619 619
f 621 619 838
f 621 838 838
f 634 632 785
f 634 785 785
f 624 623 742
f 624 742 742
f 742 724 624
f 742 624 624
f 625 624 724
f 625 724 724
f 627 626 890
f 627 890 890
f 633 627 665
f 633 665 665
f 718 887 949
f 718 949 949
f 949 887 953
f 949 953 954
f 955 953 956
f 955 956 956
f 953 955 954
f 953 954 954
f 951 955 956
f 951 956 956
f 956 952 951
f 956 951 951
f 957 887 768
f 957 768 768
f 952 956 958
f 952 958 958
f 953 887 957
f 953 957 957
f 953 957 959
f 953 959 959
f 959 958 956
f 959 956 956
f 768 958 957
f 768 957 957
f 959 956 953
f 959 953 953
f 768 952 958
f 768 958 958
f 949 954 960
f 949 960 960
f 951 950 961
f 951 961 962
f 954 955 960
f 954 960 960
f 955 959 960
f 955 960 960
f 950 949 960
f 950 960 960
f 960 961 950
f 960 950 950
f 955 962 959
f 955 959 959
f 962 955 951
f 962 951 951
f 959 957 960
f 959 960 960
f 958 959 962
f 958 962 962
f 957 958 961
f 957 961 961
f 961 960 957
f 961 957 957
f 962 961 958
f 962 958 958
f 933 885 681
f 933 681 681
f 706 885 937
f 706 937 937
f 937 942 706
f 937 706 706
f 725 942 948
f 725 948 948
f 738 725 948
f 738 948 948
f 948 947 738
f 948 738 738
f 761 738 947
f 761 947 947
f 776 947 946
f 776 946 946
f 886 776 946
f 886 946 946
f 817 886 943
f 817 943 943
f 940 818 817
f 940 817 817
f 856 818 940
f 856 940 940
f 856 940 932
f 856 932 932
f 856 932 941
f 856 941 941
f 857 856 941
f 857 941 941
f 867 857 941
f 867 941 941
f 941 930 867
f 941 867 867
f 820 867 930
f 820 930 930
f 799 820 929
f 799 929 929
f 799 929 928
f 799 928 928
f 931 782 799
f 931 799 928
f 931 939 764
f 931 764 782
f 944 715 888
f 944 888 888
f 715 944 938
f 715 938 938
f 938 709 715
f 938 715 715
f 710 709 936
f 710 936 936
f 935 934 680
f 935 680 671
f 963 964 945
f 963 945 945
f 964 965 939
f 964 939 939
f 764 939 965
f 764 965 965
f 963 944 888
f 963 888 888
f 888 765 966
f 888 966 966
f 939 945 964
f 939 964 964
f 945 944 963
f 945 963 963
f 671 710 935
f 671 935 935
f 936 935 710
f 936 710 710
f 938 936 709
f 938 709 709
f 930 929 820
f 930 820 820
f 943 940 817
f 943 817 817
f 946 943 886
f 946 886 886
f 776 761 947
f 776 947 947
f 725 706 942
f 725 942 942
f 933 937 885
f 933 885 885
f 681 680 933
f 681 933 933
f 934 933 680
f 934 680 680
f 888 966 963
f 888 963 963
f 963 966 967
f 963 967 968
f 969 967 970
f 969 970 970
f 967 969 968
f 967 968 968
f 965 969 970
f 965 970 970
f 970 764 965
f 970 965 965
f 764 970 971
f 764 971 971
f 967 966 972
f 967 972 972
f 973 972 966
f 973 966 966
f 765 764 971
f 765 971 971
f 972 970 967
f 972 967 967
f 973 966 765
f 973 765 765
f 765 971 973
f 765 973 973
f 970 972 971
f 970 971 971
f 974 969 965
f 974 965 965
f 965 964 974
f 965 974 974
f 964 963 974
f 964 974 974
f 963 975 974
f 963 974 974
f 968 975 963
f 968 963 963
f 975 968 972
f 975 972 972
f 975 973 974
f 975 974 974
f 971 972 969
f 971 969 969
f 973 971 974
f 973 974 974
f 969 974 971
f 969 971 971
f 975 972 973
f 975 973 973
f 968 969 972
f 968 972 972
f 674 102 101
f 674 101 101
f 101 100 674
f 101 674 674
f 703 674 100
f 703 100 100
f 703 100 113
f 703 113 113
f 113 704 703
f 113 703 703
f 113 112 704
f 113 704 704
f 727 704 112
f 727 112 112
f 727 112 110
f 727 110 110
f 754 727 110
f 754 110 110
f 110 109 754
f 110 754 754
f 762 754 109
f 762 109 109
f 109 108 762
f 109 762 762
f 783 762 108
f 783 108 108
f 108 107 783
f 108 783 783
f 800 783 107
f 800 107 107
f 800 107 105
f 800 105 105
f 824 800 105
f 824 105 105
f 824 105 99
f 824 99 99
f 99 842 824
f 99 824 824
f 94 848 842
f 94 842 842
f 848 94 93
f 848 93 93
f 855 93 98
f 855 98 98
f 98 828 855
f 98 855 855
f 829 828 98
f 829 98 98
f 792 829 97
f 792 97 97
f 792 97 104
f 792 104 104
f 770 792 104
f 770 104 104
f 707 728 111
f 707 111 111
f 708 707 106
f 708 106 106
f 687 96 95
f 687 95 95
f 673 687 95
f 673 95 95
f 674 673 102
f 674 102 102
f 976 977 103
f 976 103 103
f 770 104 977
f 770 977 977
f 728 743 978
f 728 978 978
f 976 111 728
f 976 728 728
f 104 103 977
f 104 977 977
f 103 111 976
f 103 976 976
f 95 102 673
f 95 673 673
f 687 708 96
f 687 96 96
f 106 96 708
f 106 708 708
f 111 106 707
f 111 707 707
f 98 97 829
f 98 829 829
f 855 848 93
f 855 93 93
f 99 94 842
f 99 842 842
f 728 978 976
f 728 976 976
f 976 978 979
f 976 979 980
f 981 979 982
f 981 982 982
f 979 981 980
f 979 980 980
f 982 770 977
f 982 977 977
f 977 981 982
f 977 982 982
f 770 982 983
f 770 983 983
f 979 978 984
f 979 984 984
f 984 978 743
f 984 743 743
f 985 982 979
f 985 979 979
f 982 985 983
f 982 983 983
f 984 985 979
f 984 979 979
f 743 983 984
f 743 984 984
f 743 770 983
f 743 983 983
f 976 980 986
f 976 986 986
f 987 981 977
f 987 977 977
f 986 988 976
f 986 976 976
f 977 988 987
f 977 987 987
f 977 976 988
f 977 988 988
f 981 986 980
f 981 980 980
f 986 981 985
f 986 985 985
f 987 985 981
f 987 981 981
f 985 984 986
f 985 986 986
f 983 985 987
f 983 987 987
f 984 983 988
f 984 988 988
f 988 986 984
f 988 984 984
f 987 988 983
f 987 983 983
