# Converted from GDF: L03 Centre column CS.gdf
# OrcaWave auto-generated control surface mesh for Main column
# Vertices: 1562
# Faces: 3158

o OrcaWave_auto-generated_control_surface_mesh_for_Main_column

v -6.250000 -6.168520 -23.000000
v -6.250000 -5.219510 -23.000000
v -5.288460 -5.219510 -23.000000
v -5.288460 -6.168520 -23.000000
v -4.326920 -5.219510 -23.000000
v -4.326920 -6.168520 -23.000000
v -3.365380 -5.219510 -23.000000
v -3.365380 -6.168520 -23.000000
v -2.403850 -5.219510 -23.000000
v -2.403850 -6.168520 -23.000000
v -1.442310 -5.219510 -23.000000
v -1.442310 -6.168520 -23.000000
v -0.480770 -5.219510 -23.000000
v -0.480770 -6.168520 -23.000000
v 0.480770 -5.219510 -23.000000
v 0.480770 -6.168520 -23.000000
v 1.442310 -5.219510 -23.000000
v 1.442310 -6.168520 -23.000000
v 2.403850 -5.219510 -23.000000
v 2.403850 -6.168520 -23.000000
v 3.365380 -5.219510 -23.000000
v 3.365380 -6.168520 -23.000000
v 4.326920 -5.219510 -23.000000
v 4.326920 -6.168520 -23.000000
v 5.288460 -5.219510 -23.000000
v 5.288460 -6.168520 -23.000000
v 6.250000 -5.219510 -23.000000
v 6.250000 -6.168520 -23.000000
v -6.250000 -4.270510 -23.000000
v -5.288460 -4.270510 -23.000000
v -4.326920 -4.270510 -23.000000
v -3.365380 -4.270510 -23.000000
v -2.403850 -4.270510 -23.000000
v -1.442310 -4.270510 -23.000000
v -0.480770 -4.270510 -23.000000
v 0.480770 -4.270510 -23.000000
v 1.442310 -4.270510 -23.000000
v 2.403850 -4.270510 -23.000000
v 3.365380 -4.270510 -23.000000
v 4.326920 -4.270510 -23.000000
v 5.288460 -4.270510 -23.000000
v 6.250000 -4.270510 -23.000000
v -6.250000 -3.321510 -23.000000
v -5.288460 -3.321510 -23.000000
v -4.326920 -3.321510 -23.000000
v -3.365380 -3.321510 -23.000000
v -2.403850 -3.321510 -23.000000
v -1.442310 -3.321510 -23.000000
v -0.480770 -3.321510 -23.000000
v 0.480770 -3.321510 -23.000000
v 1.442310 -3.321510 -23.000000
v 2.403850 -3.321510 -23.000000
v 3.365380 -3.321510 -23.000000
v 4.326920 -3.321510 -23.000000
v 5.288460 -3.321510 -23.000000
v 6.250000 -3.321510 -23.000000
v -6.250000 -2.372510 -23.000000
v -5.288460 -2.372510 -23.000000
v -4.326920 -2.372510 -23.000000
v -3.365380 -2.372510 -23.000000
v -2.403850 -2.372510 -23.000000
v -1.442310 -2.372510 -23.000000
v -0.480770 -2.372510 -23.000000
v 0.480770 -2.372510 -23.000000
v 1.442310 -2.372510 -23.000000
v 2.403850 -2.372510 -23.000000
v 3.365380 -2.372510 -23.000000
v 4.326920 -2.372510 -23.000000
v 5.288460 -2.372510 -23.000000
v 6.250000 -2.372510 -23.000000
v -6.250000 -1.423500 -23.000000
v -5.288460 -1.423500 -23.000000
v -4.326920 -1.423500 -23.000000
v -3.365380 -1.423500 -23.000000
v -2.403850 -1.423500 -23.000000
v -1.442310 -1.423500 -23.000000
v -0.480770 -1.423500 -23.000000
v 0.480770 -1.423500 -23.000000
v 1.442310 -1.423500 -23.000000
v 2.403850 -1.423500 -23.000000
v 3.365380 -1.423500 -23.000000
v 4.326920 -1.423500 -23.000000
v 5.288460 -1.423500 -23.000000
v 6.250000 -1.423500 -23.000000
v -6.250000 -0.474500 -23.000000
v -5.288460 -0.474500 -23.000000
v -4.326920 -0.474500 -23.000000
v -3.365380 -0.474500 -23.000000
v -2.403850 -0.474500 -23.000000
v -1.442310 -0.474500 -23.000000
v -0.480770 -0.474500 -23.000000
v 0.480770 -0.474500 -23.000000
v 1.442310 -0.474500 -23.000000
v 2.403850 -0.474500 -23.000000
v 3.365380 -0.474500 -23.000000
v 4.326920 -0.474500 -23.000000
v 5.288460 -0.474500 -23.000000
v 6.250000 -0.474500 -23.000000
v -6.250000 0.474500 -23.000000
v -5.288460 0.474500 -23.000000
v -4.326920 0.474500 -23.000000
v -3.365380 0.474500 -23.000000
v -2.403850 0.474500 -23.000000
v -1.442310 0.474500 -23.000000
v -0.480770 0.474500 -23.000000
v 0.480770 0.474500 -23.000000
v 1.442310 0.474500 -23.000000
v 2.403850 0.474500 -23.000000
v 3.365380 0.474500 -23.000000
v 4.326920 0.474500 -23.000000
v 5.288460 0.474500 -23.000000
v 6.250000 0.474500 -23.000000
v -6.250000 1.423500 -23.000000
v -5.288460 1.423500 -23.000000
v -4.326920 1.423500 -23.000000
v -3.365380 1.423500 -23.000000
v -2.403850 1.423500 -23.000000
v -1.442310 1.423500 -23.000000
v -0.480770 1.423500 -23.000000
v 0.480770 1.423500 -23.000000
v 1.442310 1.423500 -23.000000
v 2.403850 1.423500 -23.000000
v 3.365380 1.423500 -23.000000
v 4.326920 1.423500 -23.000000
v 5.288460 1.423500 -23.000000
v 6.250000 1.423500 -23.000000
v -6.250000 2.372510 -23.000000
v -5.288460 2.372510 -23.000000
v -4.326920 2.372510 -23.000000
v -3.365380 2.372510 -23.000000
v -2.403850 2.372510 -23.000000
v -1.442310 2.372510 -23.000000
v -0.480770 2.372510 -23.000000
v 0.480770 2.372510 -23.000000
v 1.442310 2.372510 -23.000000
v 2.403850 2.372510 -23.000000
v 3.365380 2.372510 -23.000000
v 4.326920 2.372510 -23.000000
v 5.288460 2.372510 -23.000000
v 6.250000 2.372510 -23.000000
v -6.250000 3.321510 -23.000000
v -5.288460 3.321510 -23.000000
v -4.326920 3.321510 -23.000000
v -3.365380 3.321510 -23.000000
v -2.403850 3.321510 -23.000000
v -1.442310 3.321510 -23.000000
v -0.480770 3.321510 -23.000000
v 0.480770 3.321510 -23.000000
v 1.442310 3.321510 -23.000000
v 2.403850 3.321510 -23.000000
v 3.365380 3.321510 -23.000000
v 4.326920 3.321510 -23.000000
v 5.288460 3.321510 -23.000000
v 6.250000 3.321510 -23.000000
v -6.250000 4.270510 -23.000000
v -5.288460 4.270510 -23.000000
v -4.326920 4.270510 -23.000000
v -3.365380 4.270510 -23.000000
v -2.403850 4.270510 -23.000000
v -1.442310 4.270510 -23.000000
v -0.480770 4.270510 -23.000000
v 0.480770 4.270510 -23.000000
v 1.442310 4.270510 -23.000000
v 2.403850 4.270510 -23.000000
v 3.365380 4.270510 -23.000000
v 4.326920 4.270510 -23.000000
v 5.288460 4.270510 -23.000000
v 6.250000 4.270510 -23.000000
v -6.250000 5.219510 -23.000000
v -5.288460 5.219510 -23.000000
v -4.326920 5.219510 -23.000000
v -3.365380 5.219510 -23.000000
v -2.403850 5.219510 -23.000000
v -1.442310 5.219510 -23.000000
v -0.480770 5.219510 -23.000000
v 0.480770 5.219510 -23.000000
v 1.442310 5.219510 -23.000000
v 2.403850 5.219510 -23.000000
v 3.365380 5.219510 -23.000000
v 4.326920 5.219510 -23.000000
v 5.288460 5.219510 -23.000000
v 6.250000 5.219510 -23.000000
v -6.250000 6.168520 -23.000000
v -5.288460 6.168520 -23.000000
v -4.326920 6.168520 -23.000000
v -3.365380 6.168520 -23.000000
v -2.403850 6.168520 -23.000000
v -1.442310 6.168520 -23.000000
v -0.480770 6.168520 -23.000000
v 0.480770 6.168520 -23.000000
v 1.442310 6.168520 -23.000000
v 2.403850 6.168520 -23.000000
v 3.365380 6.168520 -23.000000
v 4.326920 6.168520 -23.000000
v 5.288460 6.168520 -23.000000
v 6.250000 6.168520 -23.000000
v 6.250000 -5.219510 -22.000000
v 6.250000 -6.168520 -22.000000
v 6.250000 -5.219510 -21.000000
v 6.250000 -6.168520 -21.000000
v 6.250000 -5.219510 -20.000000
v 6.250000 -6.168520 -20.000000
v 6.250000 -5.219510 -19.000000
v 6.250000 -6.168520 -19.000000
v 6.250000 -5.219510 -18.000000
v 6.250000 -6.168520 -18.000000
v 6.250000 -5.219510 -17.000000
v 6.250000 -6.168520 -17.000000
v 6.250000 -5.219510 -16.000000
v 6.250000 -6.168520 -16.000000
v 6.250000 -5.219510 -15.000000
v 6.250000 -6.168520 -15.000000
v 6.250000 -5.219510 -14.000000
v 6.250000 -6.168520 -14.000000
v 6.250000 -5.219510 -13.000000
v 6.250000 -6.168520 -13.000000
v 6.250000 -5.219510 -12.000000
v 6.250000 -6.168520 -12.000000
v 6.250000 -5.219510 -11.000000
v 6.250000 -6.168520 -11.000000
v 6.250000 -5.219510 -10.000000
v 6.250000 -6.168520 -10.000000
v 6.250000 -5.219510 -9.000000
v 6.250000 -6.168520 -9.000000
v 6.250000 -5.219510 -8.000000
v 6.250000 -6.168520 -8.000000
v 6.250000 -5.219510 -7.000000
v 6.250000 -6.168520 -7.000000
v 6.250000 -5.219510 -6.000000
v 6.250000 -6.168520 -6.000000
v 6.250000 -5.219510 -5.000000
v 6.250000 -6.168520 -5.000000
v 6.250000 -5.219510 -4.000000
v 6.250000 -6.168520 -4.000000
v 6.250000 -5.219510 -3.000000
v 6.250000 -6.168520 -3.000000
v 6.250000 -5.219510 -2.000000
v 6.250000 -6.168520 -2.000000
v 6.250000 -5.219510 -1.000000
v 6.250000 -6.168520 -1.000000
v 6.250000 -5.219510 0.000000
v 6.250000 -6.168520 0.000000
v 6.250000 -4.270510 -22.000000
v 6.250000 -4.270510 -21.000000
v 6.250000 -4.270510 -20.000000
v 6.250000 -4.270510 -19.000000
v 6.250000 -4.270510 -18.000000
v 6.250000 -4.270510 -17.000000
v 6.250000 -4.270510 -16.000000
v 6.250000 -4.270510 -15.000000
v 6.250000 -4.270510 -14.000000
v 6.250000 -4.270510 -13.000000
v 6.250000 -4.270510 -12.000000
v 6.250000 -4.270510 -11.000000
v 6.250000 -4.270510 -10.000000
v 6.250000 -4.270510 -9.000000
v 6.250000 -4.270510 -8.000000
v 6.250000 -4.270510 -7.000000
v 6.250000 -4.270510 -6.000000
v 6.250000 -4.270510 -5.000000
v 6.250000 -4.270510 -4.000000
v 6.250000 -4.270510 -3.000000
v 6.250000 -4.270510 -2.000000
v 6.250000 -4.270510 -1.000000
v 6.250000 -4.270510 0.000000
v 6.250000 -3.321510 -22.000000
v 6.250000 -3.321510 -21.000000
v 6.250000 -3.321510 -20.000000
v 6.250000 -3.321510 -19.000000
v 6.250000 -3.321510 -18.000000
v 6.250000 -3.321510 -17.000000
v 6.250000 -3.321510 -16.000000
v 6.250000 -3.321510 -15.000000
v 6.250000 -3.321510 -14.000000
v 6.250000 -3.321510 -13.000000
v 6.250000 -3.321510 -12.000000
v 6.250000 -3.321510 -11.000000
v 6.250000 -3.321510 -10.000000
v 6.250000 -3.321510 -9.000000
v 6.250000 -3.321510 -8.000000
v 6.250000 -3.321510 -7.000000
v 6.250000 -3.321510 -6.000000
v 6.250000 -3.321510 -5.000000
v 6.250000 -3.321510 -4.000000
v 6.250000 -3.321510 -3.000000
v 6.250000 -3.321510 -2.000000
v 6.250000 -3.321510 -1.000000
v 6.250000 -3.321510 0.000000
v 6.250000 -2.372510 -22.000000
v 6.250000 -2.372510 -21.000000
v 6.250000 -2.372510 -20.000000
v 6.250000 -2.372510 -19.000000
v 6.250000 -2.372510 -18.000000
v 6.250000 -2.372510 -17.000000
v 6.250000 -2.372510 -16.000000
v 6.250000 -2.372510 -15.000000
v 6.250000 -2.372510 -14.000000
v 6.250000 -2.372510 -13.000000
v 6.250000 -2.372510 -12.000000
v 6.250000 -2.372510 -11.000000
v 6.250000 -2.372510 -10.000000
v 6.250000 -2.372510 -9.000000
v 6.250000 -2.372510 -8.000000
v 6.250000 -2.372510 -7.000000
v 6.250000 -2.372510 -6.000000
v 6.250000 -2.372510 -5.000000
v 6.250000 -2.372510 -4.000000
v 6.250000 -2.372510 -3.000000
v 6.250000 -2.372510 -2.000000
v 6.250000 -2.372510 -1.000000
v 6.250000 -2.372510 0.000000
v 6.250000 -1.423500 -22.000000
v 6.250000 -1.423500 -21.000000
v 6.250000 -1.423500 -20.000000
v 6.250000 -1.423500 -19.000000
v 6.250000 -1.423500 -18.000000
v 6.250000 -1.423500 -17.000000
v 6.250000 -1.423500 -16.000000
v 6.250000 -1.423500 -15.000000
v 6.250000 -1.423500 -14.000000
v 6.250000 -1.423500 -13.000000
v 6.250000 -1.423500 -12.000000
v 6.250000 -1.423500 -11.000000
v 6.250000 -1.423500 -10.000000
v 6.250000 -1.423500 -9.000000
v 6.250000 -1.423500 -8.000000
v 6.250000 -1.423500 -7.000000
v 6.250000 -1.423500 -6.000000
v 6.250000 -1.423500 -5.000000
v 6.250000 -1.423500 -4.000000
v 6.250000 -1.423500 -3.000000
v 6.250000 -1.423500 -2.000000
v 6.250000 -1.423500 -1.000000
v 6.250000 -1.423500 0.000000
v 6.250000 -0.474500 -22.000000
v 6.250000 -0.474500 -21.000000
v 6.250000 -0.474500 -20.000000
v 6.250000 -0.474500 -19.000000
v 6.250000 -0.474500 -18.000000
v 6.250000 -0.474500 -17.000000
v 6.250000 -0.474500 -16.000000
v 6.250000 -0.474500 -15.000000
v 6.250000 -0.474500 -14.000000
v 6.250000 -0.474500 -13.000000
v 6.250000 -0.474500 -12.000000
v 6.250000 -0.474500 -11.000000
v 6.250000 -0.474500 -10.000000
v 6.250000 -0.474500 -9.000000
v 6.250000 -0.474500 -8.000000
v 6.250000 -0.474500 -7.000000
v 6.250000 -0.474500 -6.000000
v 6.250000 -0.474500 -5.000000
v 6.250000 -0.474500 -4.000000
v 6.250000 -0.474500 -3.000000
v 6.250000 -0.474500 -2.000000
v 6.250000 -0.474500 -1.000000
v 6.250000 -0.474500 0.000000
v 6.250000 0.474500 -22.000000
v 6.250000 0.474500 -21.000000
v 6.250000 0.474500 -20.000000
v 6.250000 0.474500 -19.000000
v 6.250000 0.474500 -18.000000
v 6.250000 0.474500 -17.000000
v 6.250000 0.474500 -16.000000
v 6.250000 0.474500 -15.000000
v 6.250000 0.474500 -14.000000
v 6.250000 0.474500 -13.000000
v 6.250000 0.474500 -12.000000
v 6.250000 0.474500 -11.000000
v 6.250000 0.474500 -10.000000
v 6.250000 0.474500 -9.000000
v 6.250000 0.474500 -8.000000
v 6.250000 0.474500 -7.000000
v 6.250000 0.474500 -6.000000
v 6.250000 0.474500 -5.000000
v 6.250000 0.474500 -4.000000
v 6.250000 0.474500 -3.000000
v 6.250000 0.474500 -2.000000
v 6.250000 0.474500 -1.000000
v 6.250000 0.474500 0.000000
v 6.250000 1.423500 -22.000000
v 6.250000 1.423500 -21.000000
v 6.250000 1.423500 -20.000000
v 6.250000 1.423500 -19.000000
v 6.250000 1.423500 -18.000000
v 6.250000 1.423500 -17.000000
v 6.250000 1.423500 -16.000000
v 6.250000 1.423500 -15.000000
v 6.250000 1.423500 -14.000000
v 6.250000 1.423500 -13.000000
v 6.250000 1.423500 -12.000000
v 6.250000 1.423500 -11.000000
v 6.250000 1.423500 -10.000000
v 6.250000 1.423500 -9.000000
v 6.250000 1.423500 -8.000000
v 6.250000 1.423500 -7.000000
v 6.250000 1.423500 -6.000000
v 6.250000 1.423500 -5.000000
v 6.250000 1.423500 -4.000000
v 6.250000 1.423500 -3.000000
v 6.250000 1.423500 -2.000000
v 6.250000 1.423500 -1.000000
v 6.250000 1.423500 0.000000
v 6.250000 2.372510 -22.000000
v 6.250000 2.372510 -21.000000
v 6.250000 2.372510 -20.000000
v 6.250000 2.372510 -19.000000
v 6.250000 2.372510 -18.000000
v 6.250000 2.372510 -17.000000
v 6.250000 2.372510 -16.000000
v 6.250000 2.372510 -15.000000
v 6.250000 2.372510 -14.000000
v 6.250000 2.372510 -13.000000
v 6.250000 2.372510 -12.000000
v 6.250000 2.372510 -11.000000
v 6.250000 2.372510 -10.000000
v 6.250000 2.372510 -9.000000
v 6.250000 2.372510 -8.000000
v 6.250000 2.372510 -7.000000
v 6.250000 2.372510 -6.000000
v 6.250000 2.372510 -5.000000
v 6.250000 2.372510 -4.000000
v 6.250000 2.372510 -3.000000
v 6.250000 2.372510 -2.000000
v 6.250000 2.372510 -1.000000
v 6.250000 2.372510 0.000000
v 6.250000 3.321510 -22.000000
v 6.250000 3.321510 -21.000000
v 6.250000 3.321510 -20.000000
v 6.250000 3.321510 -19.000000
v 6.250000 3.321510 -18.000000
v 6.250000 3.321510 -17.000000
v 6.250000 3.321510 -16.000000
v 6.250000 3.321510 -15.000000
v 6.250000 3.321510 -14.000000
v 6.250000 3.321510 -13.000000
v 6.250000 3.321510 -12.000000
v 6.250000 3.321510 -11.000000
v 6.250000 3.321510 -10.000000
v 6.250000 3.321510 -9.000000
v 6.250000 3.321510 -8.000000
v 6.250000 3.321510 -7.000000
v 6.250000 3.321510 -6.000000
v 6.250000 3.321510 -5.000000
v 6.250000 3.321510 -4.000000
v 6.250000 3.321510 -3.000000
v 6.250000 3.321510 -2.000000
v 6.250000 3.321510 -1.000000
v 6.250000 3.321510 0.000000
v 6.250000 4.270510 -22.000000
v 6.250000 4.270510 -21.000000
v 6.250000 4.270510 -20.000000
v 6.250000 4.270510 -19.000000
v 6.250000 4.270510 -18.000000
v 6.250000 4.270510 -17.000000
v 6.250000 4.270510 -16.000000
v 6.250000 4.270510 -15.000000
v 6.250000 4.270510 -14.000000
v 6.250000 4.270510 -13.000000
v 6.250000 4.270510 -12.000000
v 6.250000 4.270510 -11.000000
v 6.250000 4.270510 -10.000000
v 6.250000 4.270510 -9.000000
v 6.250000 4.270510 -8.000000
v 6.250000 4.270510 -7.000000
v 6.250000 4.270510 -6.000000
v 6.250000 4.270510 -5.000000
v 6.250000 4.270510 -4.000000
v 6.250000 4.270510 -3.000000
v 6.250000 4.270510 -2.000000
v 6.250000 4.270510 -1.000000
v 6.250000 4.270510 0.000000
v 6.250000 5.219510 -22.000000
v 6.250000 5.219510 -21.000000
v 6.250000 5.219510 -20.000000
v 6.250000 5.219510 -19.000000
v 6.250000 5.219510 -18.000000
v 6.250000 5.219510 -17.000000
v 6.250000 5.219510 -16.000000
v 6.250000 5.219510 -15.000000
v 6.250000 5.219510 -14.000000
v 6.250000 5.219510 -13.000000
v 6.250000 5.219510 -12.000000
v 6.250000 5.219510 -11.000000
v 6.250000 5.219510 -10.000000
v 6.250000 5.219510 -9.000000
v 6.250000 5.219510 -8.000000
v 6.250000 5.219510 -7.000000
v 6.250000 5.219510 -6.000000
v 6.250000 5.219510 -5.000000
v 6.250000 5.219510 -4.000000
v 6.250000 5.219510 -3.000000
v 6.250000 5.219510 -2.000000
v 6.250000 5.219510 -1.000000
v 6.250000 5.219510 0.000000
v 6.250000 6.168520 -22.000000
v 6.250000 6.168520 -21.000000
v 6.250000 6.168520 -20.000000
v 6.250000 6.168520 -19.000000
v 6.250000 6.168520 -18.000000
v 6.250000 6.168520 -17.000000
v 6.250000 6.168520 -16.000000
v 6.250000 6.168520 -15.000000
v 6.250000 6.168520 -14.000000
v 6.250000 6.168520 -13.000000
v 6.250000 6.168520 -12.000000
v 6.250000 6.168520 -11.000000
v 6.250000 6.168520 -10.000000
v 6.250000 6.168520 -9.000000
v 6.250000 6.168520 -8.000000
v 6.250000 6.168520 -7.000000
v 6.250000 6.168520 -6.000000
v 6.250000 6.168520 -5.000000
v 6.250000 6.168520 -4.000000
v 6.250000 6.168520 -3.000000
v 6.250000 6.168520 -2.000000
v 6.250000 6.168520 -1.000000
v 6.250000 6.168520 0.000000
v -6.250000 -6.168520 -22.000000
v -6.250000 -5.219510 -22.000000
v -6.250000 -4.270510 -22.000000
v -6.250000 -3.321510 -22.000000
v -6.250000 -2.372510 -22.000000
v -6.250000 -1.423500 -22.000000
v -6.250000 -0.474500 -22.000000
v -6.250000 0.474500 -22.000000
v -6.250000 1.423500 -22.000000
v -6.250000 2.372510 -22.000000
v -6.250000 3.321510 -22.000000
v -6.250000 4.270510 -22.000000
v -6.250000 5.219510 -22.000000
v -6.250000 6.168520 -22.000000
v -6.250000 -6.168520 -21.000000
v -6.250000 -5.219510 -21.000000
v -6.250000 -4.270510 -21.000000
v -6.250000 -3.321510 -21.000000
v -6.250000 -2.372510 -21.000000
v -6.250000 -1.423500 -21.000000
v -6.250000 -0.474500 -21.000000
v -6.250000 0.474500 -21.000000
v -6.250000 1.423500 -21.000000
v -6.250000 2.372510 -21.000000
v -6.250000 3.321510 -21.000000
v -6.250000 4.270510 -21.000000
v -6.250000 5.219510 -21.000000
v -6.250000 6.168520 -21.000000
v -6.250000 -6.168520 -20.000000
v -6.250000 -5.219510 -20.000000
v -6.250000 -4.270510 -20.000000
v -6.250000 -3.321510 -20.000000
v -6.250000 -2.372510 -20.000000
v -6.250000 -1.423500 -20.000000
v -6.250000 -0.474500 -20.000000
v -6.250000 0.474500 -20.000000
v -6.250000 1.423500 -20.000000
v -6.250000 2.372510 -20.000000
v -6.250000 3.321510 -20.000000
v -6.250000 4.270510 -20.000000
v -6.250000 5.219510 -20.000000
v -6.250000 6.168520 -20.000000
v -6.250000 -6.168520 -19.000000
v -6.250000 -5.219510 -19.000000
v -6.250000 -4.270510 -19.000000
v -6.250000 -3.321510 -19.000000
v -6.250000 -2.372510 -19.000000
v -6.250000 -1.423500 -19.000000
v -6.250000 -0.474500 -19.000000
v -6.250000 0.474500 -19.000000
v -6.250000 1.423500 -19.000000
v -6.250000 2.372510 -19.000000
v -6.250000 3.321510 -19.000000
v -6.250000 4.270510 -19.000000
v -6.250000 5.219510 -19.000000
v -6.250000 6.168520 -19.000000
v -6.250000 -6.168520 -18.000000
v -6.250000 -5.219510 -18.000000
v -6.250000 -4.270510 -18.000000
v -6.250000 -3.321510 -18.000000
v -6.250000 -2.372510 -18.000000
v -6.250000 -1.423500 -18.000000
v -6.250000 -0.474500 -18.000000
v -6.250000 0.474500 -18.000000
v -6.250000 1.423500 -18.000000
v -6.250000 2.372510 -18.000000
v -6.250000 3.321510 -18.000000
v -6.250000 4.270510 -18.000000
v -6.250000 5.219510 -18.000000
v -6.250000 6.168520 -18.000000
v -6.250000 -6.168520 -17.000000
v -6.250000 -5.219510 -17.000000
v -6.250000 -4.270510 -17.000000
v -6.250000 -3.321510 -17.000000
v -6.250000 -2.372510 -17.000000
v -6.250000 -1.423500 -17.000000
v -6.250000 -0.474500 -17.000000
v -6.250000 0.474500 -17.000000
v -6.250000 1.423500 -17.000000
v -6.250000 2.372510 -17.000000
v -6.250000 3.321510 -17.000000
v -6.250000 4.270510 -17.000000
v -6.250000 5.219510 -17.000000
v -6.250000 6.168520 -17.000000
v -6.250000 -6.168520 -16.000000
v -6.250000 -5.219510 -16.000000
v -6.250000 -4.270510 -16.000000
v -6.250000 -3.321510 -16.000000
v -6.250000 -2.372510 -16.000000
v -6.250000 -1.423500 -16.000000
v -6.250000 -0.474500 -16.000000
v -6.250000 0.474500 -16.000000
v -6.250000 1.423500 -16.000000
v -6.250000 2.372510 -16.000000
v -6.250000 3.321510 -16.000000
v -6.250000 4.270510 -16.000000
v -6.250000 5.219510 -16.000000
v -6.250000 6.168520 -16.000000
v -6.250000 -6.168520 -15.000000
v -6.250000 -5.219510 -15.000000
v -6.250000 -4.270510 -15.000000
v -6.250000 -3.321510 -15.000000
v -6.250000 -2.372510 -15.000000
v -6.250000 -1.423500 -15.000000
v -6.250000 -0.474500 -15.000000
v -6.250000 0.474500 -15.000000
v -6.250000 1.423500 -15.000000
v -6.250000 2.372510 -15.000000
v -6.250000 3.321510 -15.000000
v -6.250000 4.270510 -15.000000
v -6.250000 5.219510 -15.000000
v -6.250000 6.168520 -15.000000
v -6.250000 -6.168520 -14.000000
v -6.250000 -5.219510 -14.000000
v -6.250000 -4.270510 -14.000000
v -6.250000 -3.321510 -14.000000
v -6.250000 -2.372510 -14.000000
v -6.250000 -1.423500 -14.000000
v -6.250000 -0.474500 -14.000000
v -6.250000 0.474500 -14.000000
v -6.250000 1.423500 -14.000000
v -6.250000 2.372510 -14.000000
v -6.250000 3.321510 -14.000000
v -6.250000 4.270510 -14.000000
v -6.250000 5.219510 -14.000000
v -6.250000 6.168520 -14.000000
v -6.250000 -6.168520 -13.000000
v -6.250000 -5.219510 -13.000000
v -6.250000 -4.270510 -13.000000
v -6.250000 -3.321510 -13.000000
v -6.250000 -2.372510 -13.000000
v -6.250000 -1.423500 -13.000000
v -6.250000 -0.474500 -13.000000
v -6.250000 0.474500 -13.000000
v -6.250000 1.423500 -13.000000
v -6.250000 2.372510 -13.000000
v -6.250000 3.321510 -13.000000
v -6.250000 4.270510 -13.000000
v -6.250000 5.219510 -13.000000
v -6.250000 6.168520 -13.000000
v -6.250000 -6.168520 -12.000000
v -6.250000 -5.219510 -12.000000
v -6.250000 -4.270510 -12.000000
v -6.250000 -3.321510 -12.000000
v -6.250000 -2.372510 -12.000000
v -6.250000 -1.423500 -12.000000
v -6.250000 -0.474500 -12.000000
v -6.250000 0.474500 -12.000000
v -6.250000 1.423500 -12.000000
v -6.250000 2.372510 -12.000000
v -6.250000 3.321510 -12.000000
v -6.250000 4.270510 -12.000000
v -6.250000 5.219510 -12.000000
v -6.250000 6.168520 -12.000000
v -6.250000 -6.168520 -11.000000
v -6.250000 -5.219510 -11.000000
v -6.250000 -4.270510 -11.000000
v -6.250000 -3.321510 -11.000000
v -6.250000 -2.372510 -11.000000
v -6.250000 -1.423500 -11.000000
v -6.250000 -0.474500 -11.000000
v -6.250000 0.474500 -11.000000
v -6.250000 1.423500 -11.000000
v -6.250000 2.372510 -11.000000
v -6.250000 3.321510 -11.000000
v -6.250000 4.270510 -11.000000
v -6.250000 5.219510 -11.000000
v -6.250000 6.168520 -11.000000
v -6.250000 -6.168520 -10.000000
v -6.250000 -5.219510 -10.000000
v -6.250000 -4.270510 -10.000000
v -6.250000 -3.321510 -10.000000
v -6.250000 -2.372510 -10.000000
v -6.250000 -1.423500 -10.000000
v -6.250000 -0.474500 -10.000000
v -6.250000 0.474500 -10.000000
v -6.250000 1.423500 -10.000000
v -6.250000 2.372510 -10.000000
v -6.250000 3.321510 -10.000000
v -6.250000 4.270510 -10.000000
v -6.250000 5.219510 -10.000000
v -6.250000 6.168520 -10.000000
v -6.250000 -6.168520 -9.000000
v -6.250000 -5.219510 -9.000000
v -6.250000 -4.270510 -9.000000
v -6.250000 -3.321510 -9.000000
v -6.250000 -2.372510 -9.000000
v -6.250000 -1.423500 -9.000000
v -6.250000 -0.474500 -9.000000
v -6.250000 0.474500 -9.000000
v -6.250000 1.423500 -9.000000
v -6.250000 2.372510 -9.000000
v -6.250000 3.321510 -9.000000
v -6.250000 4.270510 -9.000000
v -6.250000 5.219510 -9.000000
v -6.250000 6.168520 -9.000000
v -6.250000 -6.168520 -8.000000
v -6.250000 -5.219510 -8.000000
v -6.250000 -4.270510 -8.000000
v -6.250000 -3.321510 -8.000000
v -6.250000 -2.372510 -8.000000
v -6.250000 -1.423500 -8.000000
v -6.250000 -0.474500 -8.000000
v -6.250000 0.474500 -8.000000
v -6.250000 1.423500 -8.000000
v -6.250000 2.372510 -8.000000
v -6.250000 3.321510 -8.000000
v -6.250000 4.270510 -8.000000
v -6.250000 5.219510 -8.000000
v -6.250000 6.168520 -8.000000
v -6.250000 -6.168520 -7.000000
v -6.250000 -5.219510 -7.000000
v -6.250000 -4.270510 -7.000000
v -6.250000 -3.321510 -7.000000
v -6.250000 -2.372510 -7.000000
v -6.250000 -1.423500 -7.000000
v -6.250000 -0.474500 -7.000000
v -6.250000 0.474500 -7.000000
v -6.250000 1.423500 -7.000000
v -6.250000 2.372510 -7.000000
v -6.250000 3.321510 -7.000000
v -6.250000 4.270510 -7.000000
v -6.250000 5.219510 -7.000000
v -6.250000 6.168520 -7.000000
v -6.250000 -6.168520 -6.000000
v -6.250000 -5.219510 -6.000000
v -6.250000 -4.270510 -6.000000
v -6.250000 -3.321510 -6.000000
v -6.250000 -2.372510 -6.000000
v -6.250000 -1.423500 -6.000000
v -6.250000 -0.474500 -6.000000
v -6.250000 0.474500 -6.000000
v -6.250000 1.423500 -6.000000
v -6.250000 2.372510 -6.000000
v -6.250000 3.321510 -6.000000
v -6.250000 4.270510 -6.000000
v -6.250000 5.219510 -6.000000
v -6.250000 6.168520 -6.000000
v -6.250000 -6.168520 -5.000000
v -6.250000 -5.219510 -5.000000
v -6.250000 -4.270510 -5.000000
v -6.250000 -3.321510 -5.000000
v -6.250000 -2.372510 -5.000000
v -6.250000 -1.423500 -5.000000
v -6.250000 -0.474500 -5.000000
v -6.250000 0.474500 -5.000000
v -6.250000 1.423500 -5.000000
v -6.250000 2.372510 -5.000000
v -6.250000 3.321510 -5.000000
v -6.250000 4.270510 -5.000000
v -6.250000 5.219510 -5.000000
v -6.250000 6.168520 -5.000000
v -6.250000 -6.168520 -4.000000
v -6.250000 -5.219510 -4.000000
v -6.250000 -4.270510 -4.000000
v -6.250000 -3.321510 -4.000000
v -6.250000 -2.372510 -4.000000
v -6.250000 -1.423500 -4.000000
v -6.250000 -0.474500 -4.000000
v -6.250000 0.474500 -4.000000
v -6.250000 1.423500 -4.000000
v -6.250000 2.372510 -4.000000
v -6.250000 3.321510 -4.000000
v -6.250000 4.270510 -4.000000
v -6.250000 5.219510 -4.000000
v -6.250000 6.168520 -4.000000
v -6.250000 -6.168520 -3.000000
v -6.250000 -5.219510 -3.000000
v -6.250000 -4.270510 -3.000000
v -6.250000 -3.321510 -3.000000
v -6.250000 -2.372510 -3.000000
v -6.250000 -1.423500 -3.000000
v -6.250000 -0.474500 -3.000000
v -6.250000 0.474500 -3.000000
v -6.250000 1.423500 -3.000000
v -6.250000 2.372510 -3.000000
v -6.250000 3.321510 -3.000000
v -6.250000 4.270510 -3.000000
v -6.250000 5.219510 -3.000000
v -6.250000 6.168520 -3.000000
v -6.250000 -6.168520 -2.000000
v -6.250000 -5.219510 -2.000000
v -6.250000 -4.270510 -2.000000
v -6.250000 -3.321510 -2.000000
v -6.250000 -2.372510 -2.000000
v -6.250000 -1.423500 -2.000000
v -6.250000 -0.474500 -2.000000
v -6.250000 0.474500 -2.000000
v -6.250000 1.423500 -2.000000
v -6.250000 2.372510 -2.000000
v -6.250000 3.321510 -2.000000
v -6.250000 4.270510 -2.000000
v -6.250000 5.219510 -2.000000
v -6.250000 6.168520 -2.000000
v -6.250000 -6.168520 -1.000000
v -6.250000 -5.219510 -1.000000
v -6.250000 -4.270510 -1.000000
v -6.250000 -3.321510 -1.000000
v -6.250000 -2.372510 -1.000000
v -6.250000 -1.423500 -1.000000
v -6.250000 -0.474500 -1.000000
v -6.250000 0.474500 -1.000000
v -6.250000 1.423500 -1.000000
v -6.250000 2.372510 -1.000000
v -6.250000 3.321510 -1.000000
v -6.250000 4.270510 -1.000000
v -6.250000 5.219510 -1.000000
v -6.250000 6.168520 -1.000000
v -6.250000 -6.168520 0.000000
v -6.250000 -5.219510 0.000000
v -6.250000 -4.270510 0.000000
v -6.250000 -3.321510 0.000000
v -6.250000 -2.372510 0.000000
v -6.250000 -1.423500 0.000000
v -6.250000 -0.474500 0.000000
v -6.250000 0.474500 0.000000
v -6.250000 1.423500 0.000000
v -6.250000 2.372510 0.000000
v -6.250000 3.321510 0.000000
v -6.250000 4.270510 0.000000
v -6.250000 5.219510 0.000000
v -6.250000 6.168520 0.000000
v -5.288460 6.168520 -22.000000
v -4.326920 6.168520 -22.000000
v -3.365380 6.168520 -22.000000
v -2.403850 6.168520 -22.000000
v -1.442310 6.168520 -22.000000
v -0.480770 6.168520 -22.000000
v 0.480770 6.168520 -22.000000
v 1.442310 6.168520 -22.000000
v 2.403850 6.168520 -22.000000
v 3.365380 6.168520 -22.000000
v 4.326920 6.168520 -22.000000
v 5.288460 6.168520 -22.000000
v -5.288460 6.168520 -21.000000
v -4.326920 6.168520 -21.000000
v -3.365380 6.168520 -21.000000
v -2.403850 6.168520 -21.000000
v -1.442310 6.168520 -21.000000
v -0.480770 6.168520 -21.000000
v 0.480770 6.168520 -21.000000
v 1.442310 6.168520 -21.000000
v 2.403850 6.168520 -21.000000
v 3.365380 6.168520 -21.000000
v 4.326920 6.168520 -21.000000
v 5.288460 6.168520 -21.000000
v -5.288460 6.168520 -20.000000
v -4.326920 6.168520 -20.000000
v -3.365380 6.168520 -20.000000
v -2.403850 6.168520 -20.000000
v -1.442310 6.168520 -20.000000
v -0.480770 6.168520 -20.000000
v 0.480770 6.168520 -20.000000
v 1.442310 6.168520 -20.000000
v 2.403850 6.168520 -20.000000
v 3.365380 6.168520 -20.000000
v 4.326920 6.168520 -20.000000
v 5.288460 6.168520 -20.000000
v -5.288460 6.168520 -19.000000
v -4.326920 6.168520 -19.000000
v -3.365380 6.168520 -19.000000
v -2.403850 6.168520 -19.000000
v -1.442310 6.168520 -19.000000
v -0.480770 6.168520 -19.000000
v 0.480770 6.168520 -19.000000
v 1.442310 6.168520 -19.000000
v 2.403850 6.168520 -19.000000
v 3.365380 6.168520 -19.000000
v 4.326920 6.168520 -19.000000
v 5.288460 6.168520 -19.000000
v -5.288460 6.168520 -18.000000
v -4.326920 6.168520 -18.000000
v -3.365380 6.168520 -18.000000
v -2.403850 6.168520 -18.000000
v -1.442310 6.168520 -18.000000
v -0.480770 6.168520 -18.000000
v 0.480770 6.168520 -18.000000
v 1.442310 6.168520 -18.000000
v 2.403850 6.168520 -18.000000
v 3.365380 6.168520 -18.000000
v 4.326920 6.168520 -18.000000
v 5.288460 6.168520 -18.000000
v -5.288460 6.168520 -17.000000
v -4.326920 6.168520 -17.000000
v -3.365380 6.168520 -17.000000
v -2.403850 6.168520 -17.000000
v -1.442310 6.168520 -17.000000
v -0.480770 6.168520 -17.000000
v 0.480770 6.168520 -17.000000
v 1.442310 6.168520 -17.000000
v 2.403850 6.168520 -17.000000
v 3.365380 6.168520 -17.000000
v 4.326920 6.168520 -17.000000
v 5.288460 6.168520 -17.000000
v -5.288460 6.168520 -16.000000
v -4.326920 6.168520 -16.000000
v -3.365380 6.168520 -16.000000
v -2.403850 6.168520 -16.000000
v -1.442310 6.168520 -16.000000
v -0.480770 6.168520 -16.000000
v 0.480770 6.168520 -16.000000
v 1.442310 6.168520 -16.000000
v 2.403850 6.168520 -16.000000
v 3.365380 6.168520 -16.000000
v 4.326920 6.168520 -16.000000
v 5.288460 6.168520 -16.000000
v -5.288460 6.168520 -15.000000
v -4.326920 6.168520 -15.000000
v -3.365380 6.168520 -15.000000
v -2.403850 6.168520 -15.000000
v -1.442310 6.168520 -15.000000
v -0.480770 6.168520 -15.000000
v 0.480770 6.168520 -15.000000
v 1.442310 6.168520 -15.000000
v 2.403850 6.168520 -15.000000
v 3.365380 6.168520 -15.000000
v 4.326920 6.168520 -15.000000
v 5.288460 6.168520 -15.000000
v -5.288460 6.168520 -14.000000
v -4.326920 6.168520 -14.000000
v -3.365380 6.168520 -14.000000
v -2.403850 6.168520 -14.000000
v -1.442310 6.168520 -14.000000
v -0.480770 6.168520 -14.000000
v 0.480770 6.168520 -14.000000
v 1.442310 6.168520 -14.000000
v 2.403850 6.168520 -14.000000
v 3.365380 6.168520 -14.000000
v 4.326920 6.168520 -14.000000
v 5.288460 6.168520 -14.000000
v -5.288460 6.168520 -13.000000
v -4.326920 6.168520 -13.000000
v -3.365380 6.168520 -13.000000
v -2.403850 6.168520 -13.000000
v -1.442310 6.168520 -13.000000
v -0.480770 6.168520 -13.000000
v 0.480770 6.168520 -13.000000
v 1.442310 6.168520 -13.000000
v 2.403850 6.168520 -13.000000
v 3.365380 6.168520 -13.000000
v 4.326920 6.168520 -13.000000
v 5.288460 6.168520 -13.000000
v -5.288460 6.168520 -12.000000
v -4.326920 6.168520 -12.000000
v -3.365380 6.168520 -12.000000
v -2.403850 6.168520 -12.000000
v -1.442310 6.168520 -12.000000
v -0.480770 6.168520 -12.000000
v 0.480770 6.168520 -12.000000
v 1.442310 6.168520 -12.000000
v 2.403850 6.168520 -12.000000
v 3.365380 6.168520 -12.000000
v 4.326920 6.168520 -12.000000
v 5.288460 6.168520 -12.000000
v -5.288460 6.168520 -11.000000
v -4.326920 6.168520 -11.000000
v -3.365380 6.168520 -11.000000
v -2.403850 6.168520 -11.000000
v -1.442310 6.168520 -11.000000
v -0.480770 6.168520 -11.000000
v 0.480770 6.168520 -11.000000
v 1.442310 6.168520 -11.000000
v 2.403850 6.168520 -11.000000
v 3.365380 6.168520 -11.000000
v 4.326920 6.168520 -11.000000
v 5.288460 6.168520 -11.000000
v -5.288460 6.168520 -10.000000
v -4.326920 6.168520 -10.000000
v -3.365380 6.168520 -10.000000
v -2.403850 6.168520 -10.000000
v -1.442310 6.168520 -10.000000
v -0.480770 6.168520 -10.000000
v 0.480770 6.168520 -10.000000
v 1.442310 6.168520 -10.000000
v 2.403850 6.168520 -10.000000
v 3.365380 6.168520 -10.000000
v 4.326920 6.168520 -10.000000
v 5.288460 6.168520 -10.000000
v -5.288460 6.168520 -9.000000
v -4.326920 6.168520 -9.000000
v -3.365380 6.168520 -9.000000
v -2.403850 6.168520 -9.000000
v -1.442310 6.168520 -9.000000
v -0.480770 6.168520 -9.000000
v 0.480770 6.168520 -9.000000
v 1.442310 6.168520 -9.000000
v 2.403850 6.168520 -9.000000
v 3.365380 6.168520 -9.000000
v 4.326920 6.168520 -9.000000
v 5.288460 6.168520 -9.000000
v -5.288460 6.168520 -8.000000
v -4.326920 6.168520 -8.000000
v -3.365380 6.168520 -8.000000
v -2.403850 6.168520 -8.000000
v -1.442310 6.168520 -8.000000
v -0.480770 6.168520 -8.000000
v 0.480770 6.168520 -8.000000
v 1.442310 6.168520 -8.000000
v 2.403850 6.168520 -8.000000
v 3.365380 6.168520 -8.000000
v 4.326920 6.168520 -8.000000
v 5.288460 6.168520 -8.000000
v -5.288460 6.168520 -7.000000
v -4.326920 6.168520 -7.000000
v -3.365380 6.168520 -7.000000
v -2.403850 6.168520 -7.000000
v -1.442310 6.168520 -7.000000
v -0.480770 6.168520 -7.000000
v 0.480770 6.168520 -7.000000
v 1.442310 6.168520 -7.000000
v 2.403850 6.168520 -7.000000
v 3.365380 6.168520 -7.000000
v 4.326920 6.168520 -7.000000
v 5.288460 6.168520 -7.000000
v -5.288460 6.168520 -6.000000
v -4.326920 6.168520 -6.000000
v -3.365380 6.168520 -6.000000
v -2.403850 6.168520 -6.000000
v -1.442310 6.168520 -6.000000
v -0.480770 6.168520 -6.000000
v 0.480770 6.168520 -6.000000
v 1.442310 6.168520 -6.000000
v 2.403850 6.168520 -6.000000
v 3.365380 6.168520 -6.000000
v 4.326920 6.168520 -6.000000
v 5.288460 6.168520 -6.000000
v -5.288460 6.168520 -5.000000
v -4.326920 6.168520 -5.000000
v -3.365380 6.168520 -5.000000
v -2.403850 6.168520 -5.000000
v -1.442310 6.168520 -5.000000
v -0.480770 6.168520 -5.000000
v 0.480770 6.168520 -5.000000
v 1.442310 6.168520 -5.000000
v 2.403850 6.168520 -5.000000
v 3.365380 6.168520 -5.000000
v 4.326920 6.168520 -5.000000
v 5.288460 6.168520 -5.000000
v -5.288460 6.168520 -4.000000
v -4.326920 6.168520 -4.000000
v -3.365380 6.168520 -4.000000
v -2.403850 6.168520 -4.000000
v -1.442310 6.168520 -4.000000
v -0.480770 6.168520 -4.000000
v 0.480770 6.168520 -4.000000
v 1.442310 6.168520 -4.000000
v 2.403850 6.168520 -4.000000
v 3.365380 6.168520 -4.000000
v 4.326920 6.168520 -4.000000
v 5.288460 6.168520 -4.000000
v -5.288460 6.168520 -3.000000
v -4.326920 6.168520 -3.000000
v -3.365380 6.168520 -3.000000
v -2.403850 6.168520 -3.000000
v -1.442310 6.168520 -3.000000
v -0.480770 6.168520 -3.000000
v 0.480770 6.168520 -3.000000
v 1.442310 6.168520 -3.000000
v 2.403850 6.168520 -3.000000
v 3.365380 6.168520 -3.000000
v 4.326920 6.168520 -3.000000
v 5.288460 6.168520 -3.000000
v -5.288460 6.168520 -2.000000
v -4.326920 6.168520 -2.000000
v -3.365380 6.168520 -2.000000
v -2.403850 6.168520 -2.000000
v -1.442310 6.168520 -2.000000
v -0.480770 6.168520 -2.000000
v 0.480770 6.168520 -2.000000
v 1.442310 6.168520 -2.000000
v 2.403850 6.168520 -2.000000
v 3.365380 6.168520 -2.000000
v 4.326920 6.168520 -2.000000
v 5.288460 6.168520 -2.000000
v -5.288460 6.168520 -1.000000
v -4.326920 6.168520 -1.000000
v -3.365380 6.168520 -1.000000
v -2.403850 6.168520 -1.000000
v -1.442310 6.168520 -1.000000
v -0.480770 6.168520 -1.000000
v 0.480770 6.168520 -1.000000
v 1.442310 6.168520 -1.000000
v 2.403850 6.168520 -1.000000
v 3.365380 6.168520 -1.000000
v 4.326920 6.168520 -1.000000
v 5.288460 6.168520 -1.000000
v -5.288460 6.168520 0.000000
v -4.326920 6.168520 0.000000
v -3.365380 6.168520 0.000000
v -2.403850 6.168520 0.000000
v -1.442310 6.168520 0.000000
v -0.480770 6.168520 0.000000
v 0.480770 6.168520 0.000000
v 1.442310 6.168520 0.000000
v 2.403850 6.168520 0.000000
v 3.365380 6.168520 0.000000
v 4.326920 6.168520 0.000000
v 5.288460 6.168520 0.000000
v -5.288460 -6.168520 -22.000000
v -5.288460 -6.168520 -21.000000
v -5.288460 -6.168520 -20.000000
v -5.288460 -6.168520 -19.000000
v -5.288460 -6.168520 -18.000000
v -5.288460 -6.168520 -17.000000
v -5.288460 -6.168520 -16.000000
v -5.288460 -6.168520 -15.000000
v -5.288460 -6.168520 -14.000000
v -5.288460 -6.168520 -13.000000
v -5.288460 -6.168520 -12.000000
v -5.288460 -6.168520 -11.000000
v -5.288460 -6.168520 -10.000000
v -5.288460 -6.168520 -9.000000
v -5.288460 -6.168520 -8.000000
v -5.288460 -6.168520 -7.000000
v -5.288460 -6.168520 -6.000000
v -5.288460 -6.168520 -5.000000
v -5.288460 -6.168520 -4.000000
v -5.288460 -6.168520 -3.000000
v -5.288460 -6.168520 -2.000000
v -5.288460 -6.168520 -1.000000
v -5.288460 -6.168520 0.000000
v -4.326920 -6.168520 -22.000000
v -4.326920 -6.168520 -21.000000
v -4.326920 -6.168520 -20.000000
v -4.326920 -6.168520 -19.000000
v -4.326920 -6.168520 -18.000000
v -4.326920 -6.168520 -17.000000
v -4.326920 -6.168520 -16.000000
v -4.326920 -6.168520 -15.000000
v -4.326920 -6.168520 -14.000000
v -4.326920 -6.168520 -13.000000
v -4.326920 -6.168520 -12.000000
v -4.326920 -6.168520 -11.000000
v -4.326920 -6.168520 -10.000000
v -4.326920 -6.168520 -9.000000
v -4.326920 -6.168520 -8.000000
v -4.326920 -6.168520 -7.000000
v -4.326920 -6.168520 -6.000000
v -4.326920 -6.168520 -5.000000
v -4.326920 -6.168520 -4.000000
v -4.326920 -6.168520 -3.000000
v -4.326920 -6.168520 -2.000000
v -4.326920 -6.168520 -1.000000
v -4.326920 -6.168520 0.000000
v -3.365380 -6.168520 -22.000000
v -3.365380 -6.168520 -21.000000
v -3.365380 -6.168520 -20.000000
v -3.365380 -6.168520 -19.000000
v -3.365380 -6.168520 -18.000000
v -3.365380 -6.168520 -17.000000
v -3.365380 -6.168520 -16.000000
v -3.365380 -6.168520 -15.000000
v -3.365380 -6.168520 -14.000000
v -3.365380 -6.168520 -13.000000
v -3.365380 -6.168520 -12.000000
v -3.365380 -6.168520 -11.000000
v -3.365380 -6.168520 -10.000000
v -3.365380 -6.168520 -9.000000
v -3.365380 -6.168520 -8.000000
v -3.365380 -6.168520 -7.000000
v -3.365380 -6.168520 -6.000000
v -3.365380 -6.168520 -5.000000
v -3.365380 -6.168520 -4.000000
v -3.365380 -6.168520 -3.000000
v -3.365380 -6.168520 -2.000000
v -3.365380 -6.168520 -1.000000
v -3.365380 -6.168520 0.000000
v -2.403850 -6.168520 -22.000000
v -2.403850 -6.168520 -21.000000
v -2.403850 -6.168520 -20.000000
v -2.403850 -6.168520 -19.000000
v -2.403850 -6.168520 -18.000000
v -2.403850 -6.168520 -17.000000
v -2.403850 -6.168520 -16.000000
v -2.403850 -6.168520 -15.000000
v -2.403850 -6.168520 -14.000000
v -2.403850 -6.168520 -13.000000
v -2.403850 -6.168520 -12.000000
v -2.403850 -6.168520 -11.000000
v -2.403850 -6.168520 -10.000000
v -2.403850 -6.168520 -9.000000
v -2.403850 -6.168520 -8.000000
v -2.403850 -6.168520 -7.000000
v -2.403850 -6.168520 -6.000000
v -2.403850 -6.168520 -5.000000
v -2.403850 -6.168520 -4.000000
v -2.403850 -6.168520 -3.000000
v -2.403850 -6.168520 -2.000000
v -2.403850 -6.168520 -1.000000
v -2.403850 -6.168520 0.000000
v -1.442310 -6.168520 -22.000000
v -1.442310 -6.168520 -21.000000
v -1.442310 -6.168520 -20.000000
v -1.442310 -6.168520 -19.000000
v -1.442310 -6.168520 -18.000000
v -1.442310 -6.168520 -17.000000
v -1.442310 -6.168520 -16.000000
v -1.442310 -6.168520 -15.000000
v -1.442310 -6.168520 -14.000000
v -1.442310 -6.168520 -13.000000
v -1.442310 -6.168520 -12.000000
v -1.442310 -6.168520 -11.000000
v -1.442310 -6.168520 -10.000000
v -1.442310 -6.168520 -9.000000
v -1.442310 -6.168520 -8.000000
v -1.442310 -6.168520 -7.000000
v -1.442310 -6.168520 -6.000000
v -1.442310 -6.168520 -5.000000
v -1.442310 -6.168520 -4.000000
v -1.442310 -6.168520 -3.000000
v -1.442310 -6.168520 -2.000000
v -1.442310 -6.168520 -1.000000
v -1.442310 -6.168520 0.000000
v -0.480770 -6.168520 -22.000000
v -0.480770 -6.168520 -21.000000
v -0.480770 -6.168520 -20.000000
v -0.480770 -6.168520 -19.000000
v -0.480770 -6.168520 -18.000000
v -0.480770 -6.168520 -17.000000
v -0.480770 -6.168520 -16.000000
v -0.480770 -6.168520 -15.000000
v -0.480770 -6.168520 -14.000000
v -0.480770 -6.168520 -13.000000
v -0.480770 -6.168520 -12.000000
v -0.480770 -6.168520 -11.000000
v -0.480770 -6.168520 -10.000000
v -0.480770 -6.168520 -9.000000
v -0.480770 -6.168520 -8.000000
v -0.480770 -6.168520 -7.000000
v -0.480770 -6.168520 -6.000000
v -0.480770 -6.168520 -5.000000
v -0.480770 -6.168520 -4.000000
v -0.480770 -6.168520 -3.000000
v -0.480770 -6.168520 -2.000000
v -0.480770 -6.168520 -1.000000
v -0.480770 -6.168520 0.000000
v 0.480770 -6.168520 -22.000000
v 0.480770 -6.168520 -21.000000
v 0.480770 -6.168520 -20.000000
v 0.480770 -6.168520 -19.000000
v 0.480770 -6.168520 -18.000000
v 0.480770 -6.168520 -17.000000
v 0.480770 -6.168520 -16.000000
v 0.480770 -6.168520 -15.000000
v 0.480770 -6.168520 -14.000000
v 0.480770 -6.168520 -13.000000
v 0.480770 -6.168520 -12.000000
v 0.480770 -6.168520 -11.000000
v 0.480770 -6.168520 -10.000000
v 0.480770 -6.168520 -9.000000
v 0.480770 -6.168520 -8.000000
v 0.480770 -6.168520 -7.000000
v 0.480770 -6.168520 -6.000000
v 0.480770 -6.168520 -5.000000
v 0.480770 -6.168520 -4.000000
v 0.480770 -6.168520 -3.000000
v 0.480770 -6.168520 -2.000000
v 0.480770 -6.168520 -1.000000
v 0.480770 -6.168520 0.000000
v 1.442310 -6.168520 -22.000000
v 1.442310 -6.168520 -21.000000
v 1.442310 -6.168520 -20.000000
v 1.442310 -6.168520 -19.000000
v 1.442310 -6.168520 -18.000000
v 1.442310 -6.168520 -17.000000
v 1.442310 -6.168520 -16.000000
v 1.442310 -6.168520 -15.000000
v 1.442310 -6.168520 -14.000000
v 1.442310 -6.168520 -13.000000
v 1.442310 -6.168520 -12.000000
v 1.442310 -6.168520 -11.000000
v 1.442310 -6.168520 -10.000000
v 1.442310 -6.168520 -9.000000
v 1.442310 -6.168520 -8.000000
v 1.442310 -6.168520 -7.000000
v 1.442310 -6.168520 -6.000000
v 1.442310 -6.168520 -5.000000
v 1.442310 -6.168520 -4.000000
v 1.442310 -6.168520 -3.000000
v 1.442310 -6.168520 -2.000000
v 1.442310 -6.168520 -1.000000
v 1.442310 -6.168520 0.000000
v 2.403850 -6.168520 -22.000000
v 2.403850 -6.168520 -21.000000
v 2.403850 -6.168520 -20.000000
v 2.403850 -6.168520 -19.000000
v 2.403850 -6.168520 -18.000000
v 2.403850 -6.168520 -17.000000
v 2.403850 -6.168520 -16.000000
v 2.403850 -6.168520 -15.000000
v 2.403850 -6.168520 -14.000000
v 2.403850 -6.168520 -13.000000
v 2.403850 -6.168520 -12.000000
v 2.403850 -6.168520 -11.000000
v 2.403850 -6.168520 -10.000000
v 2.403850 -6.168520 -9.000000
v 2.403850 -6.168520 -8.000000
v 2.403850 -6.168520 -7.000000
v 2.403850 -6.168520 -6.000000
v 2.403850 -6.168520 -5.000000
v 2.403850 -6.168520 -4.000000
v 2.403850 -6.168520 -3.000000
v 2.403850 -6.168520 -2.000000
v 2.403850 -6.168520 -1.000000
v 2.403850 -6.168520 0.000000
v 3.365380 -6.168520 -22.000000
v 3.365380 -6.168520 -21.000000
v 3.365380 -6.168520 -20.000000
v 3.365380 -6.168520 -19.000000
v 3.365380 -6.168520 -18.000000
v 3.365380 -6.168520 -17.000000
v 3.365380 -6.168520 -16.000000
v 3.365380 -6.168520 -15.000000
v 3.365380 -6.168520 -14.000000
v 3.365380 -6.168520 -13.000000
v 3.365380 -6.168520 -12.000000
v 3.365380 -6.168520 -11.000000
v 3.365380 -6.168520 -10.000000
v 3.365380 -6.168520 -9.000000
v 3.365380 -6.168520 -8.000000
v 3.365380 -6.168520 -7.000000
v 3.365380 -6.168520 -6.000000
v 3.365380 -6.168520 -5.000000
v 3.365380 -6.168520 -4.000000
v 3.365380 -6.168520 -3.000000
v 3.365380 -6.168520 -2.000000
v 3.365380 -6.168520 -1.000000
v 3.365380 -6.168520 0.000000
v 4.326920 -6.168520 -22.000000
v 4.326920 -6.168520 -21.000000
v 4.326920 -6.168520 -20.000000
v 4.326920 -6.168520 -19.000000
v 4.326920 -6.168520 -18.000000
v 4.326920 -6.168520 -17.000000
v 4.326920 -6.168520 -16.000000
v 4.326920 -6.168520 -15.000000
v 4.326920 -6.168520 -14.000000
v 4.326920 -6.168520 -13.000000
v 4.326920 -6.168520 -12.000000
v 4.326920 -6.168520 -11.000000
v 4.326920 -6.168520 -10.000000
v 4.326920 -6.168520 -9.000000
v 4.326920 -6.168520 -8.000000
v 4.326920 -6.168520 -7.000000
v 4.326920 -6.168520 -6.000000
v 4.326920 -6.168520 -5.000000
v 4.326920 -6.168520 -4.000000
v 4.326920 -6.168520 -3.000000
v 4.326920 -6.168520 -2.000000
v 4.326920 -6.168520 -1.000000
v 4.326920 -6.168520 0.000000
v 5.288460 -6.168520 -22.000000
v 5.288460 -6.168520 -21.000000
v 5.288460 -6.168520 -20.000000
v 5.288460 -6.168520 -19.000000
v 5.288460 -6.168520 -18.000000
v 5.288460 -6.168520 -17.000000
v 5.288460 -6.168520 -16.000000
v 5.288460 -6.168520 -15.000000
v 5.288460 -6.168520 -14.000000
v 5.288460 -6.168520 -13.000000
v 5.288460 -6.168520 -12.000000
v 5.288460 -6.168520 -11.000000
v 5.288460 -6.168520 -10.000000
v 5.288460 -6.168520 -9.000000
v 5.288460 -6.168520 -8.000000
v 5.288460 -6.168520 -7.000000
v 5.288460 -6.168520 -6.000000
v 5.288460 -6.168520 -5.000000
v 5.288460 -6.168520 -4.000000
v 5.288460 -6.168520 -3.000000
v 5.288460 -6.168520 -2.000000
v 5.288460 -6.168520 -1.000000
v 5.288460 -6.168520 0.000000
v -5.357140 6.168520 0.000000
v -6.250000 5.287300 0.000000
v -6.250000 -5.287300 0.000000
v -5.357140 -6.168520 0.000000
v 5.357140 -6.168520 0.000000
v 6.250000 -5.287300 0.000000
v 6.250000 5.287300 0.000000
v 5.357140 6.168520 0.000000
v -5.288460 -5.219510 0.000000
v -4.326920 -5.219510 0.000000
v -4.464290 -6.168520 0.000000
v 4.464290 6.168520 0.000000
v 5.288460 5.219510 0.000000
v 4.326920 5.219510 0.000000
v -5.288460 3.321510 0.000000
v -5.288460 4.270510 0.000000
v -6.250000 3.524870 0.000000
v -5.288460 5.219510 0.000000
v 5.288460 -4.270510 0.000000
v 5.288460 -5.219510 0.000000
v 6.250000 -4.406080 0.000000
v -6.250000 -4.406080 0.000000
v -3.571430 -6.168520 0.000000
v -6.250000 4.406080 0.000000
v 5.288460 -3.321510 0.000000
v 6.250000 -3.524870 0.000000
v 5.288460 2.372510 0.000000
v 6.250000 2.643650 0.000000
v 5.288460 3.321510 0.000000
v 2.678570 6.168520 0.000000
v 1.785710 6.168520 0.000000
v 2.403850 5.219510 0.000000
v -6.250000 2.643650 0.000000
v -6.250000 1.762430 0.000000
v -5.288460 2.372510 0.000000
v -3.365380 -5.219510 0.000000
v -2.678570 -6.168520 0.000000
v -1.785710 -6.168520 0.000000
v -2.403850 -5.219510 0.000000
v -5.288460 -0.474500 0.000000
v -5.288460 0.474500 0.000000
v -6.250000 0.000000 0.000000
v -4.464290 6.168520 0.000000
v -4.326920 5.219510 0.000000
v -3.571430 6.168520 0.000000
v 3.571430 -6.168520 0.000000
v 4.464290 -6.168520 0.000000
v 4.326920 -5.219510 0.000000
v -1.442310 -5.219510 0.000000
v 3.571430 6.168520 0.000000
v 6.250000 4.406080 0.000000
v 5.288460 4.270510 0.000000
v 6.250000 1.762430 0.000000
v 5.288460 1.423500 0.000000
v 5.288460 -0.474500 0.000000
v 6.250000 0.000000 0.000000
v 5.288460 0.474500 0.000000
v 3.365380 -1.423500 0.000000
v 3.365380 -0.474500 0.000000
v 2.928150 -1.410120 0.000000
v 5.288460 -1.423500 0.000000
v 6.250000 -0.881220 0.000000
v 3.365380 -5.219510 0.000000
v 2.678570 -6.168520 0.000000
v -5.288460 -2.372510 0.000000
v -6.250000 -2.643650 0.000000
v -5.288460 -3.321510 0.000000
v 0.480770 -5.219510 0.000000
v -0.480770 -5.219510 0.000000
v 0.000000 -6.168520 0.000000
v -5.288460 1.423500 0.000000
v -6.250000 0.881220 0.000000
v -1.785710 6.168520 0.000000
v -2.678570 6.168520 0.000000
v -2.403850 5.219510 0.000000
v -5.288460 -1.423500 0.000000
v -6.250000 -1.762430 0.000000
v 0.892860 -6.168520 0.000000
v -1.442310 5.219510 0.000000
v -2.403850 4.270510 0.000000
v -1.442310 4.270510 0.000000
v 0.723190 3.168520 0.000000
v 0.480770 4.270510 0.000000
v -0.723190 3.168520 0.000000
v 1.442310 -5.219510 0.000000
v 1.785710 -6.168520 0.000000
v -1.442310 -4.270510 0.000000
v -0.480770 -4.270510 0.000000
v -0.723190 -3.168520 0.000000
v -6.250000 -0.881220 0.000000
v -3.365380 5.219510 0.000000
v 3.365380 3.321510 0.000000
v 2.403850 3.321510 0.000000
v 3.365380 2.372510 0.000000
v 1.442310 4.270510 0.000000
v 1.442310 5.219510 0.000000
v 0.892860 6.168520 0.000000
v 0.000000 6.168520 0.000000
v 0.480770 5.219510 0.000000
v 6.250000 0.881220 0.000000
v 3.250000 0.000000 0.000000
v 3.365380 0.474500 0.000000
v 2.928150 1.410120 0.000000
v 6.250000 3.524870 0.000000
v 5.288460 -2.372510 0.000000
v 6.250000 -2.643650 0.000000
v -0.480770 5.219510 0.000000
v 1.442310 3.321510 0.000000
v 2.026340 2.540950 0.000000
v -0.892860 -6.168520 0.000000
v -2.403850 -3.321510 0.000000
v -1.442310 -3.321510 0.000000
v -2.026340 -2.540950 0.000000
v 4.326920 -0.474500 0.000000
v 4.326920 0.474500 0.000000
v 3.365380 -2.372510 0.000000
v 6.250000 -1.762430 0.000000
v -1.442310 3.321510 0.000000
v -6.250000 -3.524870 0.000000
v -5.288460 -4.270510 0.000000
v -3.365380 3.321510 0.000000
v -3.365380 2.372510 0.000000
v -2.403850 3.321510 0.000000
v -2.928150 1.410120 0.000000
v -2.026340 2.540950 0.000000
v -3.250000 0.000000 0.000000
v -3.365380 0.474500 0.000000
v 3.365380 5.219510 0.000000
v -4.326920 2.372510 0.000000
v -4.326920 3.321510 0.000000
v -4.326920 0.474500 0.000000
v -0.480770 4.270510 0.000000
v -0.892860 6.168520 0.000000
v 4.326920 -2.372510 0.000000
v 4.326920 -3.321510 0.000000
v 0.723190 -3.168520 0.000000
v 3.365380 1.423500 0.000000
v 4.326920 -1.423500 0.000000
v -2.928150 -1.410120 0.000000
v -3.365380 -2.372510 0.000000
v -3.365380 1.423500 0.000000
v 2.026340 -2.540950 0.000000
v 1.442310 -3.321510 0.000000
v -4.326920 -2.372510 0.000000
v -4.326920 -1.423500 0.000000
v 3.365380 -3.321510 0.000000
v 2.403850 -4.270510 0.000000
v 2.403850 -5.219510 0.000000
v 3.365380 -4.270510 0.000000
v 2.403850 -3.321510 0.000000
v -4.326920 1.423500 0.000000
v 4.326920 1.423500 0.000000
v -3.365380 -1.423500 0.000000
v 4.326920 -4.270510 0.000000
v 1.442310 -4.270510 0.000000
v 0.480770 -4.270510 0.000000
v -3.365380 -0.474500 0.000000
v -4.326920 -0.474500 0.000000
v 2.403850 4.270510 0.000000
v 3.365380 4.270510 0.000000
v -4.326920 4.270510 0.000000
v -3.365380 4.270510 0.000000
v -4.326920 -3.321510 0.000000
v -3.365380 -3.321510 0.000000
v -4.326920 -4.270510 0.000000
v -2.403850 -4.270510 0.000000
v 4.326920 4.270510 0.000000
v 4.326920 3.321510 0.000000
v -3.365380 -4.270510 0.000000
v 4.326920 2.372510 0.000000

f 1 2 3
f 1 3 4
f 4 3 5
f 4 5 6
f 6 5 7
f 6 7 8
f 8 7 9
f 8 9 10
f 10 9 11
f 10 11 12
f 12 11 13
f 12 13 14
f 14 13 15
f 14 15 16
f 16 15 17
f 16 17 18
f 18 17 19
f 18 19 20
f 20 19 21
f 20 21 22
f 22 21 23
f 22 23 24
f 24 23 25
f 24 25 26
f 26 25 27
f 26 27 28
f 2 29 30
f 2 30 3
f 3 30 31
f 3 31 5
f 5 31 32
f 5 32 7
f 7 32 33
f 7 33 9
f 9 33 34
f 9 34 11
f 11 34 35
f 11 35 13
f 13 35 36
f 13 36 15
f 15 36 37
f 15 37 17
f 17 37 38
f 17 38 19
f 19 38 39
f 19 39 21
f 21 39 40
f 21 40 23
f 23 40 41
f 23 41 25
f 25 41 42
f 25 42 27
f 29 43 44
f 29 44 30
f 30 44 45
f 30 45 31
f 31 45 46
f 31 46 32
f 32 46 47
f 32 47 33
f 33 47 48
f 33 48 34
f 34 48 49
f 34 49 35
f 35 49 50
f 35 50 36
f 36 50 51
f 36 51 37
f 37 51 52
f 37 52 38
f 38 52 53
f 38 53 39
f 39 53 54
f 39 54 40
f 40 54 55
f 40 55 41
f 41 55 56
f 41 56 42
f 43 57 58
f 43 58 44
f 44 58 59
f 44 59 45
f 45 59 60
f 45 60 46
f 46 60 61
f 46 61 47
f 47 61 62
f 47 62 48
f 48 62 63
f 48 63 49
f 49 63 64
f 49 64 50
f 50 64 65
f 50 65 51
f 51 65 66
f 51 66 52
f 52 66 67
f 52 67 53
f 53 67 68
f 53 68 54
f 54 68 69
f 54 69 55
f 55 69 70
f 55 70 56
f 57 71 72
f 57 72 58
f 58 72 73
f 58 73 59
f 59 73 74
f 59 74 60
f 60 74 75
f 60 75 61
f 61 75 76
f 61 76 62
f 62 76 77
f 62 77 63
f 63 77 78
f 63 78 64
f 64 78 79
f 64 79 65
f 65 79 80
f 65 80 66
f 66 80 81
f 66 81 67
f 67 81 82
f 67 82 68
f 68 82 83
f 68 83 69
f 69 83 84
f 69 84 70
f 71 85 86
f 71 86 72
f 72 86 87
f 72 87 73
f 73 87 88
f 73 88 74
f 74 88 89
f 74 89 75
f 75 89 90
f 75 90 76
f 76 90 91
f 76 91 77
f 77 91 92
f 77 92 78
f 78 92 93
f 78 93 79
f 79 93 94
f 79 94 80
f 80 94 95
f 80 95 81
f 81 95 96
f 81 96 82
f 82 96 97
f 82 97 83
f 83 97 98
f 83 98 84
f 85 99 100
f 85 100 86
f 86 100 101
f 86 101 87
f 87 101 102
f 87 102 88
f 88 102 103
f 88 103 89
f 89 103 104
f 89 104 90
f 90 104 105
f 90 105 91
f 91 105 106
f 91 106 92
f 92 106 107
f 92 107 93
f 93 107 108
f 93 108 94
f 94 108 109
f 94 109 95
f 95 109 110
f 95 110 96
f 96 110 111
f 96 111 97
f 97 111 112
f 97 112 98
f 99 113 114
f 99 114 100
f 100 114 115
f 100 115 101
f 101 115 116
f 101 116 102
f 102 116 117
f 102 117 103
f 103 117 118
f 103 118 104
f 104 118 119
f 104 119 105
f 105 119 120
f 105 120 106
f 106 120 121
f 106 121 107
f 107 121 122
f 107 122 108
f 108 122 123
f 108 123 109
f 109 123 124
f 109 124 110
f 110 124 125
f 110 125 111
f 111 125 126
f 111 126 112
f 113 127 128
f 113 128 114
f 114 128 129
f 114 129 115
f 115 129 130
f 115 130 116
f 116 130 131
f 116 131 117
f 117 131 132
f 117 132 118
f 118 132 133
f 118 133 119
f 119 133 134
f 119 134 120
f 120 134 135
f 120 135 121
f 121 135 136
f 121 136 122
f 122 136 137
f 122 137 123
f 123 137 138
f 123 138 124
f 124 138 139
f 124 139 125
f 125 139 140
f 125 140 126
f 127 141 142
f 127 142 128
f 128 142 143
f 128 143 129
f 129 143 144
f 129 144 130
f 130 144 145
f 130 145 131
f 131 145 146
f 131 146 132
f 132 146 147
f 132 147 133
f 133 147 148
f 133 148 134
f 134 148 149
f 134 149 135
f 135 149 150
f 135 150 136
f 136 150 151
f 136 151 137
f 137 151 152
f 137 152 138
f 138 152 153
f 138 153 139
f 139 153 154
f 139 154 140
f 141 155 156
f 141 156 142
f 142 156 157
f 142 157 143
f 143 157 158
f 143 158 144
f 144 158 159
f 144 159 145
f 145 159 160
f 145 160 146
f 146 160 161
f 146 161 147
f 147 161 162
f 147 162 148
f 148 162 163
f 148 163 149
f 149 163 164
f 149 164 150
f 150 164 165
f 150 165 151
f 151 165 166
f 151 166 152
f 152 166 167
f 152 167 153
f 153 167 168
f 153 168 154
f 155 169 170
f 155 170 156
f 156 170 171
f 156 171 157
f 157 171 172
f 157 172 158
f 158 172 173
f 158 173 159
f 159 173 174
f 159 174 160
f 160 174 175
f 160 175 161
f 161 175 176
f 161 176 162
f 162 176 177
f 162 177 163
f 163 177 178
f 163 178 164
f 164 178 179
f 164 179 165
f 165 179 180
f 165 180 166
f 166 180 181
f 166 181 167
f 167 181 182
f 167 182 168
f 169 183 184
f 169 184 170
f 170 184 185
f 170 185 171
f 171 185 186
f 171 186 172
f 172 186 187
f 172 187 173
f 173 187 188
f 173 188 174
f 174 188 189
f 174 189 175
f 175 189 190
f 175 190 176
f 176 190 191
f 176 191 177
f 177 191 192
f 177 192 178
f 178 192 193
f 178 193 179
f 179 193 194
f 179 194 180
f 180 194 195
f 180 195 181
f 181 195 196
f 181 196 182
f 28 27 197
f 28 197 198
f 198 197 199
f 198 199 200
f 200 199 201
f 200 201 202
f 202 201 203
f 202 203 204
f 204 203 205
f 204 205 206
f 206 205 207
f 206 207 208
f 208 207 209
f 208 209 210
f 210 209 211
f 210 211 212
f 212 211 213
f 212 213 214
f 214 213 215
f 214 215 216
f 216 215 217
f 216 217 218
f 218 217 219
f 218 219 220
f 220 219 221
f 220 221 222
f 222 221 223
f 222 223 224
f 224 223 225
f 224 225 226
f 226 225 227
f 226 227 228
f 228 227 229
f 228 229 230
f 230 229 231
f 230 231 232
f 232 231 233
f 232 233 234
f 234 233 235
f 234 235 236
f 236 235 237
f 236 237 238
f 238 237 239
f 238 239 240
f 240 239 241
f 240 241 242
f 27 42 243
f 27 243 197
f 197 243 244
f 197 244 199
f 199 244 245
f 199 245 201
f 201 245 246
f 201 246 203
f 203 246 247
f 203 247 205
f 205 247 248
f 205 248 207
f 207 248 249
f 207 249 209
f 209 249 250
f 209 250 211
f 211 250 251
f 211 251 213
f 213 251 252
f 213 252 215
f 215 252 253
f 215 253 217
f 217 253 254
f 217 254 219
f 219 254 255
f 219 255 221
f 221 255 256
f 221 256 223
f 223 256 257
f 223 257 225
f 225 257 258
f 225 258 227
f 227 258 259
f 227 259 229
f 229 259 260
f 229 260 231
f 231 260 261
f 231 261 233
f 233 261 262
f 233 262 235
f 235 262 263
f 235 263 237
f 237 263 264
f 237 264 239
f 239 264 265
f 239 265 241
f 42 56 266
f 42 266 243
f 243 266 267
f 243 267 244
f 244 267 268
f 244 268 245
f 245 268 269
f 245 269 246
f 246 269 270
f 246 270 247
f 247 270 271
f 247 271 248
f 248 271 272
f 248 272 249
f 249 272 273
f 249 273 250
f 250 273 274
f 250 274 251
f 251 274 275
f 251 275 252
f 252 275 276
f 252 276 253
f 253 276 277
f 253 277 254
f 254 277 278
f 254 278 255
f 255 278 279
f 255 279 256
f 256 279 280
f 256 280 257
f 257 280 281
f 257 281 258
f 258 281 282
f 258 282 259
f 259 282 283
f 259 283 260
f 260 283 284
f 260 284 261
f 261 284 285
f 261 285 262
f 262 285 286
f 262 286 263
f 263 286 287
f 263 287 264
f 264 287 288
f 264 288 265
f 56 70 289
f 56 289 266
f 266 289 290
f 266 290 267
f 267 290 291
f 267 291 268
f 268 291 292
f 268 292 269
f 269 292 293
f 269 293 270
f 270 293 294
f 270 294 271
f 271 294 295
f 271 295 272
f 272 295 296
f 272 296 273
f 273 296 297
f 273 297 274
f 274 297 298
f 274 298 275
f 275 298 299
f 275 299 276
f 276 299 300
f 276 300 277
f 277 300 301
f 277 301 278
f 278 301 302
f 278 302 279
f 279 302 303
f 279 303 280
f 280 303 304
f 280 304 281
f 281 304 305
f 281 305 282
f 282 305 306
f 282 306 283
f 283 306 307
f 283 307 284
f 284 307 308
f 284 308 285
f 285 308 309
f 285 309 286
f 286 309 310
f 286 310 287
f 287 310 311
f 287 311 288
f 70 84 312
f 70 312 289
f 289 312 313
f 289 313 290
f 290 313 314
f 290 314 291
f 291 314 315
f 291 315 292
f 292 315 316
f 292 316 293
f 293 316 317
f 293 317 294
f 294 317 318
f 294 318 295
f 295 318 319
f 295 319 296
f 296 319 320
f 296 320 297
f 297 320 321
f 297 321 298
f 298 321 322
f 298 322 299
f 299 322 323
f 299 323 300
f 300 323 324
f 300 324 301
f 301 324 325
f 301 325 302
f 302 325 326
f 302 326 303
f 303 326 327
f 303 327 304
f 304 327 328
f 304 328 305
f 305 328 329
f 305 329 306
f 306 329 330
f 306 330 307
f 307 330 331
f 307 331 308
f 308 331 332
f 308 332 309
f 309 332 333
f 309 333 310
f 310 333 334
f 310 334 311
f 84 98 335
f 84 335 312
f 312 335 336
f 312 336 313
f 313 336 337
f 313 337 314
f 314 337 338
f 314 338 315
f 315 338 339
f 315 339 316
f 316 339 340
f 316 340 317
f 317 340 341
f 317 341 318
f 318 341 342
f 318 342 319
f 319 342 343
f 319 343 320
f 320 343 344
f 320 344 321
f 321 344 345
f 321 345 322
f 322 345 346
f 322 346 323
f 323 346 347
f 323 347 324
f 324 347 348
f 324 348 325
f 325 348 349
f 325 349 326
f 326 349 350
f 326 350 327
f 327 350 351
f 327 351 328
f 328 351 352
f 328 352 329
f 329 352 353
f 329 353 330
f 330 353 354
f 330 354 331
f 331 354 355
f 331 355 332
f 332 355 356
f 332 356 333
f 333 356 357
f 333 357 334
f 98 112 358
f 98 358 335
f 335 358 359
f 335 359 336
f 336 359 360
f 336 360 337
f 337 360 361
f 337 361 338
f 338 361 362
f 338 362 339
f 339 362 363
f 339 363 340
f 340 363 364
f 340 364 341
f 341 364 365
f 341 365 342
f 342 365 366
f 342 366 343
f 343 366 367
f 343 367 344
f 344 367 368
f 344 368 345
f 345 368 369
f 345 369 346
f 346 369 370
f 346 370 347
f 347 370 371
f 347 371 348
f 348 371 372
f 348 372 349
f 349 372 373
f 349 373 350
f 350 373 374
f 350 374 351
f 351 374 375
f 351 375 352
f 352 375 376
f 352 376 353
f 353 376 377
f 353 377 354
f 354 377 378
f 354 378 355
f 355 378 379
f 355 379 356
f 356 379 380
f 356 380 357
f 112 126 381
f 112 381 358
f 358 381 382
f 358 382 359
f 359 382 383
f 359 383 360
f 360 383 384
f 360 384 361
f 361 384 385
f 361 385 362
f 362 385 386
f 362 386 363
f 363 386 387
f 363 387 364
f 364 387 388
f 364 388 365
f 365 388 389
f 365 389 366
f 366 389 390
f 366 390 367
f 367 390 391
f 367 391 368
f 368 391 392
f 368 392 369
f 369 392 393
f 369 393 370
f 370 393 394
f 370 394 371
f 371 394 395
f 371 395 372
f 372 395 396
f 372 396 373
f 373 396 397
f 373 397 374
f 374 397 398
f 374 398 375
f 375 398 399
f 375 399 376
f 376 399 400
f 376 400 377
f 377 400 401
f 377 401 378
f 378 401 402
f 378 402 379
f 379 402 403
f 379 403 380
f 126 140 404
f 126 404 381
f 381 404 405
f 381 405 382
f 382 405 406
f 382 406 383
f 383 406 407
f 383 407 384
f 384 407 408
f 384 408 385
f 385 408 409
f 385 409 386
f 386 409 410
f 386 410 387
f 387 410 411
f 387 411 388
f 388 411 412
f 388 412 389
f 389 412 413
f 389 413 390
f 390 413 414
f 390 414 391
f 391 414 415
f 391 415 392
f 392 415 416
f 392 416 393
f 393 416 417
f 393 417 394
f 394 417 418
f 394 418 395
f 395 418 419
f 395 419 396
f 396 419 420
f 396 420 397
f 397 420 421
f 397 421 398
f 398 421 422
f 398 422 399
f 399 422 423
f 399 423 400
f 400 423 424
f 400 424 401
f 401 424 425
f 401 425 402
f 402 425 426
f 402 426 403
f 140 154 427
f 140 427 404
f 404 427 428
f 404 428 405
f 405 428 429
f 405 429 406
f 406 429 430
f 406 430 407
f 407 430 431
f 407 431 408
f 408 431 432
f 408 432 409
f 409 432 433
f 409 433 410
f 410 433 434
f 410 434 411
f 411 434 435
f 411 435 412
f 412 435 436
f 412 436 413
f 413 436 437
f 413 437 414
f 414 437 438
f 414 438 415
f 415 438 439
f 415 439 416
f 416 439 440
f 416 440 417
f 417 440 441
f 417 441 418
f 418 441 442
f 418 442 419
f 419 442 443
f 419 443 420
f 420 443 444
f 420 444 421
f 421 444 445
f 421 445 422
f 422 445 446
f 422 446 423
f 423 446 447
f 423 447 424
f 424 447 448
f 424 448 425
f 425 448 449
f 425 449 426
f 154 168 450
f 154 450 427
f 427 450 451
f 427 451 428
f 428 451 452
f 428 452 429
f 429 452 453
f 429 453 430
f 430 453 454
f 430 454 431
f 431 454 455
f 431 455 432
f 432 455 456
f 432 456 433
f 433 456 457
f 433 457 434
f 434 457 458
f 434 458 435
f 435 458 459
f 435 459 436
f 436 459 460
f 436 460 437
f 437 460 461
f 437 461 438
f 438 461 462
f 438 462 439
f 439 462 463
f 439 463 440
f 440 463 464
f 440 464 441
f 441 464 465
f 441 465 442
f 442 465 466
f 442 466 443
f 443 466 467
f 443 467 444
f 444 467 468
f 444 468 445
f 445 468 469
f 445 469 446
f 446 469 470
f 446 470 447
f 447 470 471
f 447 471 448
f 448 471 472
f 448 472 449
f 168 182 473
f 168 473 450
f 450 473 474
f 450 474 451
f 451 474 475
f 451 475 452
f 452 475 476
f 452 476 453
f 453 476 477
f 453 477 454
f 454 477 478
f 454 478 455
f 455 478 479
f 455 479 456
f 456 479 480
f 456 480 457
f 457 480 481
f 457 481 458
f 458 481 482
f 458 482 459
f 459 482 483
f 459 483 460
f 460 483 484
f 460 484 461
f 461 484 485
f 461 485 462
f 462 485 486
f 462 486 463
f 463 486 487
f 463 487 464
f 464 487 488
f 464 488 465
f 465 488 489
f 465 489 466
f 466 489 490
f 466 490 467
f 467 490 491
f 467 491 468
f 468 491 492
f 468 492 469
f 469 492 493
f 469 493 470
f 470 493 494
f 470 494 471
f 471 494 495
f 471 495 472
f 182 196 496
f 182 496 473
f 473 496 497
f 473 497 474
f 474 497 498
f 474 498 475
f 475 498 499
f 475 499 476
f 476 499 500
f 476 500 477
f 477 500 501
f 477 501 478
f 478 501 502
f 478 502 479
f 479 502 503
f 479 503 480
f 480 503 504
f 480 504 481
f 481 504 505
f 481 505 482
f 482 505 506
f 482 506 483
f 483 506 507
f 483 507 484
f 484 507 508
f 484 508 485
f 485 508 509
f 485 509 486
f 486 509 510
f 486 510 487
f 487 510 511
f 487 511 488
f 488 511 512
f 488 512 489
f 489 512 513
f 489 513 490
f 490 513 514
f 490 514 491
f 491 514 515
f 491 515 492
f 492 515 516
f 492 516 493
f 493 516 517
f 493 517 494
f 494 517 518
f 494 518 495
f 1 519 520
f 1 520 2
f 2 520 521
f 2 521 29
f 29 521 522
f 29 522 43
f 43 522 523
f 43 523 57
f 57 523 524
f 57 524 71
f 71 524 525
f 71 525 85
f 85 525 526
f 85 526 99
f 99 526 527
f 99 527 113
f 113 527 528
f 113 528 127
f 127 528 529
f 127 529 141
f 141 529 530
f 141 530 155
f 155 530 531
f 155 531 169
f 169 531 532
f 169 532 183
f 519 533 534
f 519 534 520
f 520 534 535
f 520 535 521
f 521 535 536
f 521 536 522
f 522 536 537
f 522 537 523
f 523 537 538
f 523 538 524
f 524 538 539
f 524 539 525
f 525 539 540
f 525 540 526
f 526 540 541
f 526 541 527
f 527 541 542
f 527 542 528
f 528 542 543
f 528 543 529
f 529 543 544
f 529 544 530
f 530 544 545
f 530 545 531
f 531 545 546
f 531 546 532
f 533 547 548
f 533 548 534
f 534 548 549
f 534 549 535
f 535 549 550
f 535 550 536
f 536 550 551
f 536 551 537
f 537 551 552
f 537 552 538
f 538 552 553
f 538 553 539
f 539 553 554
f 539 554 540
f 540 554 555
f 540 555 541
f 541 555 556
f 541 556 542
f 542 556 557
f 542 557 543
f 543 557 558
f 543 558 544
f 544 558 559
f 544 559 545
f 545 559 560
f 545 560 546
f 547 561 562
f 547 562 548
f 548 562 563
f 548 563 549
f 549 563 564
f 549 564 550
f 550 564 565
f 550 565 551
f 551 565 566
f 551 566 552
f 552 566 567
f 552 567 553
f 553 567 568
f 553 568 554
f 554 568 569
f 554 569 555
f 555 569 570
f 555 570 556
f 556 570 571
f 556 571 557
f 557 571 572
f 557 572 558
f 558 572 573
f 558 573 559
f 559 573 574
f 559 574 560
f 561 575 576
f 561 576 562
f 562 576 577
f 562 577 563
f 563 577 578
f 563 578 564
f 564 578 579
f 564 579 565
f 565 579 580
f 565 580 566
f 566 580 581
f 566 581 567
f 567 581 582
f 567 582 568
f 568 582 583
f 568 583 569
f 569 583 584
f 569 584 570
f 570 584 585
f 570 585 571
f 571 585 586
f 571 586 572
f 572 586 587
f 572 587 573
f 573 587 588
f 573 588 574
f 575 589 590
f 575 590 576
f 576 590 591
f 576 591 577
f 577 591 592
f 577 592 578
f 578 592 593
f 578 593 579
f 579 593 594
f 579 594 580
f 580 594 595
f 580 595 581
f 581 595 596
f 581 596 582
f 582 596 597
f 582 597 583
f 583 597 598
f 583 598 584
f 584 598 599
f 584 599 585
f 585 599 600
f 585 600 586
f 586 600 601
f 586 601 587
f 587 601 602
f 587 602 588
f 589 603 604
f 589 604 590
f 590 604 605
f 590 605 591
f 591 605 606
f 591 606 592
f 592 606 607
f 592 607 593
f 593 607 608
f 593 608 594
f 594 608 609
f 594 609 595
f 595 609 610
f 595 610 596
f 596 610 611
f 596 611 597
f 597 611 612
f 597 612 598
f 598 612 613
f 598 613 599
f 599 613 614
f 599 614 600
f 600 614 615
f 600 615 601
f 601 615 616
f 601 616 602
f 603 617 618
f 603 618 604
f 604 618 619
f 604 619 605
f 605 619 620
f 605 620 606
f 606 620 621
f 606 621 607
f 607 621 622
f 607 622 608
f 608 622 623
f 608 623 609
f 609 623 624
f 609 624 610
f 610 624 625
f 610 625 611
f 611 625 626
f 611 626 612
f 612 626 627
f 612 627 613
f 613 627 628
f 613 628 614
f 614 628 629
f 614 629 615
f 615 629 630
f 615 630 616
f 617 631 632
f 617 632 618
f 618 632 633
f 618 633 619
f 619 633 634
f 619 634 620
f 620 634 635
f 620 635 621
f 621 635 636
f 621 636 622
f 622 636 637
f 622 637 623
f 623 637 638
f 623 638 624
f 624 638 639
f 624 639 625
f 625 639 640
f 625 640 626
f 626 640 641
f 626 641 627
f 627 641 642
f 627 642 628
f 628 642 643
f 628 643 629
f 629 643 644
f 629 644 630
f 631 645 646
f 631 646 632
f 632 646 647
f 632 647 633
f 633 647 648
f 633 648 634
f 634 648 649
f 634 649 635
f 635 649 650
f 635 650 636
f 636 650 651
f 636 651 637
f 637 651 652
f 637 652 638
f 638 652 653
f 638 653 639
f 639 653 654
f 639 654 640
f 640 654 655
f 640 655 641
f 641 655 656
f 641 656 642
f 642 656 657
f 642 657 643
f 643 657 658
f 643 658 644
f 645 659 660
f 645 660 646
f 646 660 661
f 646 661 647
f 647 661 662
f 647 662 648
f 648 662 663
f 648 663 649
f 649 663 664
f 649 664 650
f 650 664 665
f 650 665 651
f 651 665 666
f 651 666 652
f 652 666 667
f 652 667 653
f 653 667 668
f 653 668 654
f 654 668 669
f 654 669 655
f 655 669 670
f 655 670 656
f 656 670 671
f 656 671 657
f 657 671 672
f 657 672 658
f 659 673 674
f 659 674 660
f 660 674 675
f 660 675 661
f 661 675 676
f 661 676 662
f 662 676 677
f 662 677 663
f 663 677 678
f 663 678 664
f 664 678 679
f 664 679 665
f 665 679 680
f 665 680 666
f 666 680 681
f 666 681 667
f 667 681 682
f 667 682 668
f 668 682 683
f 668 683 669
f 669 683 684
f 669 684 670
f 670 684 685
f 670 685 671
f 671 685 686
f 671 686 672
f 673 687 688
f 673 688 674
f 674 688 689
f 674 689 675
f 675 689 690
f 675 690 676
f 676 690 691
f 676 691 677
f 677 691 692
f 677 692 678
f 678 692 693
f 678 693 679
f 679 693 694
f 679 694 680
f 680 694 695
f 680 695 681
f 681 695 696
f 681 696 682
f 682 696 697
f 682 697 683
f 683 697 698
f 683 698 684
f 684 698 699
f 684 699 685
f 685 699 700
f 685 700 686
f 687 701 702
f 687 702 688
f 688 702 703
f 688 703 689
f 689 703 704
f 689 704 690
f 690 704 705
f 690 705 691
f 691 705 706
f 691 706 692
f 692 706 707
f 692 707 693
f 693 707 708
f 693 708 694
f 694 708 709
f 694 709 695
f 695 709 710
f 695 710 696
f 696 710 711
f 696 711 697
f 697 711 712
f 697 712 698
f 698 712 713
f 698 713 699
f 699 713 714
f 699 714 700
f 701 715 716
f 701 716 702
f 702 716 717
f 702 717 703
f 703 717 718
f 703 718 704
f 704 718 719
f 704 719 705
f 705 719 720
f 705 720 706
f 706 720 721
f 706 721 707
f 707 721 722
f 707 722 708
f 708 722 723
f 708 723 709
f 709 723 724
f 709 724 710
f 710 724 725
f 710 725 711
f 711 725 726
f 711 726 712
f 712 726 727
f 712 727 713
f 713 727 728
f 713 728 714
f 715 729 730
f 715 730 716
f 716 730 731
f 716 731 717
f 717 731 732
f 717 732 718
f 718 732 733
f 718 733 719
f 719 733 734
f 719 734 720
f 720 734 735
f 720 735 721
f 721 735 736
f 721 736 722
f 722 736 737
f 722 737 723
f 723 737 738
f 723 738 724
f 724 738 739
f 724 739 725
f 725 739 740
f 725 740 726
f 726 740 741
f 726 741 727
f 727 741 742
f 727 742 728
f 729 743 744
f 729 744 730
f 730 744 745
f 730 745 731
f 731 745 746
f 731 746 732
f 732 746 747
f 732 747 733
f 733 747 748
f 733 748 734
f 734 748 749
f 734 749 735
f 735 749 750
f 735 750 736
f 736 750 751
f 736 751 737
f 737 751 752
f 737 752 738
f 738 752 753
f 738 753 739
f 739 753 754
f 739 754 740
f 740 754 755
f 740 755 741
f 741 755 756
f 741 756 742
f 743 757 758
f 743 758 744
f 744 758 759
f 744 759 745
f 745 759 760
f 745 760 746
f 746 760 761
f 746 761 747
f 747 761 762
f 747 762 748
f 748 762 763
f 748 763 749
f 749 763 764
f 749 764 750
f 750 764 765
f 750 765 751
f 751 765 766
f 751 766 752
f 752 766 767
f 752 767 753
f 753 767 768
f 753 768 754
f 754 768 769
f 754 769 755
f 755 769 770
f 755 770 756
f 757 771 772
f 757 772 758
f 758 772 773
f 758 773 759
f 759 773 774
f 759 774 760
f 760 774 775
f 760 775 761
f 761 775 776
f 761 776 762
f 762 776 777
f 762 777 763
f 763 777 778
f 763 778 764
f 764 778 779
f 764 779 765
f 765 779 780
f 765 780 766
f 766 780 781
f 766 781 767
f 767 781 782
f 767 782 768
f 768 782 783
f 768 783 769
f 769 783 784
f 769 784 770
f 771 785 786
f 771 786 772
f 772 786 787
f 772 787 773
f 773 787 788
f 773 788 774
f 774 788 789
f 774 789 775
f 775 789 790
f 775 790 776
f 776 790 791
f 776 791 777
f 777 791 792
f 777 792 778
f 778 792 793
f 778 793 779
f 779 793 794
f 779 794 780
f 780 794 795
f 780 795 781
f 781 795 796
f 781 796 782
f 782 796 797
f 782 797 783
f 783 797 798
f 783 798 784
f 785 799 800
f 785 800 786
f 786 800 801
f 786 801 787
f 787 801 802
f 787 802 788
f 788 802 803
f 788 803 789
f 789 803 804
f 789 804 790
f 790 804 805
f 790 805 791
f 791 805 806
f 791 806 792
f 792 806 807
f 792 807 793
f 793 807 808
f 793 808 794
f 794 808 809
f 794 809 795
f 795 809 810
f 795 810 796
f 796 810 811
f 796 811 797
f 797 811 812
f 797 812 798
f 799 813 814
f 799 814 800
f 800 814 815
f 800 815 801
f 801 815 816
f 801 816 802
f 802 816 817
f 802 817 803
f 803 817 818
f 803 818 804
f 804 818 819
f 804 819 805
f 805 819 820
f 805 820 806
f 806 820 821
f 806 821 807
f 807 821 822
f 807 822 808
f 808 822 823
f 808 823 809
f 809 823 824
f 809 824 810
f 810 824 825
f 810 825 811
f 811 825 826
f 811 826 812
f 813 827 828
f 813 828 814
f 814 828 829
f 814 829 815
f 815 829 830
f 815 830 816
f 816 830 831
f 816 831 817
f 817 831 832
f 817 832 818
f 818 832 833
f 818 833 819
f 819 833 834
f 819 834 820
f 820 834 835
f 820 835 821
f 821 835 836
f 821 836 822
f 822 836 837
f 822 837 823
f 823 837 838
f 823 838 824
f 824 838 839
f 824 839 825
f 825 839 840
f 825 840 826
f 183 532 841
f 183 841 184
f 184 841 842
f 184 842 185
f 185 842 843
f 185 843 186
f 186 843 844
f 186 844 187
f 187 844 845
f 187 845 188
f 188 845 846
f 188 846 189
f 189 846 847
f 189 847 190
f 190 847 848
f 190 848 191
f 191 848 849
f 191 849 192
f 192 849 850
f 192 850 193
f 193 850 851
f 193 851 194
f 194 851 852
f 194 852 195
f 195 852 496
f 195 496 196
f 532 546 853
f 532 853 841
f 841 853 854
f 841 854 842
f 842 854 855
f 842 855 843
f 843 855 856
f 843 856 844
f 844 856 857
f 844 857 845
f 845 857 858
f 845 858 846
f 846 858 859
f 846 859 847
f 847 859 860
f 847 860 848
f 848 860 861
f 848 861 849
f 849 861 862
f 849 862 850
f 850 862 863
f 850 863 851
f 851 863 864
f 851 864 852
f 852 864 497
f 852 497 496
f 546 560 865
f 546 865 853
f 853 865 866
f 853 866 854
f 854 866 867
f 854 867 855
f 855 867 868
f 855 868 856
f 856 868 869
f 856 869 857
f 857 869 870
f 857 870 858
f 858 870 871
f 858 871 859
f 859 871 872
f 859 872 860
f 860 872 873
f 860 873 861
f 861 873 874
f 861 874 862
f 862 874 875
f 862 875 863
f 863 875 876
f 863 876 864
f 864 876 498
f 864 498 497
f 560 574 877
f 560 877 865
f 865 877 878
f 865 878 866
f 866 878 879
f 866 879 867
f 867 879 880
f 867 880 868
f 868 880 881
f 868 881 869
f 869 881 882
f 869 882 870
f 870 882 883
f 870 883 871
f 871 883 884
f 871 884 872
f 872 884 885
f 872 885 873
f 873 885 886
f 873 886 874
f 874 886 887
f 874 887 875
f 875 887 888
f 875 888 876
f 876 888 499
f 876 499 498
f 574 588 889
f 574 889 877
f 877 889 890
f 877 890 878
f 878 890 891
f 878 891 879
f 879 891 892
f 879 892 880
f 880 892 893
f 880 893 881
f 881 893 894
f 881 894 882
f 882 894 895
f 882 895 883
f 883 895 896
f 883 896 884
f 884 896 897
f 884 897 885
f 885 897 898
f 885 898 886
f 886 898 899
f 886 899 887
f 887 899 900
f 887 900 888
f 888 900 500
f 888 500 499
f 588 602 901
f 588 901 889
f 889 901 902
f 889 902 890
f 890 902 903
f 890 903 891
f 891 903 904
f 891 904 892
f 892 904 905
f 892 905 893
f 893 905 906
f 893 906 894
f 894 906 907
f 894 907 895
f 895 907 908
f 895 908 896
f 896 908 909
f 896 909 897
f 897 909 910
f 897 910 898
f 898 910 911
f 898 911 899
f 899 911 912
f 899 912 900
f 900 912 501
f 900 501 500
f 602 616 913
f 602 913 901
f 901 913 914
f 901 914 902
f 902 914 915
f 902 915 903
f 903 915 916
f 903 916 904
f 904 916 917
f 904 917 905
f 905 917 918
f 905 918 906
f 906 918 919
f 906 919 907
f 907 919 920
f 907 920 908
f 908 920 921
f 908 921 909
f 909 921 922
f 909 922 910
f 910 922 923
f 910 923 911
f 911 923 924
f 911 924 912
f 912 924 502
f 912 502 501
f 616 630 925
f 616 925 913
f 913 925 926
f 913 926 914
f 914 926 927
f 914 927 915
f 915 927 928
f 915 928 916
f 916 928 929
f 916 929 917
f 917 929 930
f 917 930 918
f 918 930 931
f 918 931 919
f 919 931 932
f 919 932 920
f 920 932 933
f 920 933 921
f 921 933 934
f 921 934 922
f 922 934 935
f 922 935 923
f 923 935 936
f 923 936 924
f 924 936 503
f 924 503 502
f 630 644 937
f 630 937 925
f 925 937 938
f 925 938 926
f 926 938 939
f 926 939 927
f 927 939 940
f 927 940 928
f 928 940 941
f 928 941 929
f 929 941 942
f 929 942 930
f 930 942 943
f 930 943 931
f 931 943 944
f 931 944 932
f 932 944 945
f 932 945 933
f 933 945 946
f 933 946 934
f 934 946 947
f 934 947 935
f 935 947 948
f 935 948 936
f 936 948 504
f 936 504 503
f 644 658 949
f 644 949 937
f 937 949 950
f 937 950 938
f 938 950 951
f 938 951 939
f 939 951 952
f 939 952 940
f 940 952 953
f 940 953 941
f 941 953 954
f 941 954 942
f 942 954 955
f 942 955 943
f 943 955 956
f 943 956 944
f 944 956 957
f 944 957 945
f 945 957 958
f 945 958 946
f 946 958 959
f 946 959 947
f 947 959 960
f 947 960 948
f 948 960 505
f 948 505 504
f 658 672 961
f 658 961 949
f 949 961 962
f 949 962 950
f 950 962 963
f 950 963 951
f 951 963 964
f 951 964 952
f 952 964 965
f 952 965 953
f 953 965 966
f 953 966 954
f 954 966 967
f 954 967 955
f 955 967 968
f 955 968 956
f 956 968 969
f 956 969 957
f 957 969 970
f 957 970 958
f 958 970 971
f 958 971 959
f 959 971 972
f 959 972 960
f 960 972 506
f 960 506 505
f 672 686 973
f 672 973 961
f 961 973 974
f 961 974 962
f 962 974 975
f 962 975 963
f 963 975 976
f 963 976 964
f 964 976 977
f 964 977 965
f 965 977 978
f 965 978 966
f 966 978 979
f 966 979 967
f 967 979 980
f 967 980 968
f 968 980 981
f 968 981 969
f 969 981 982
f 969 982 970
f 970 982 983
f 970 983 971
f 971 983 984
f 971 984 972
f 972 984 507
f 972 507 506
f 686 700 985
f 686 985 973
f 973 985 986
f 973 986 974
f 974 986 987
f 974 987 975
f 975 987 988
f 975 988 976
f 976 988 989
f 976 989 977
f 977 989 990
f 977 990 978
f 978 990 991
f 978 991 979
f 979 991 992
f 979 992 980
f 980 992 993
f 980 993 981
f 981 993 994
f 981 994 982
f 982 994 995
f 982 995 983
f 983 995 996
f 983 996 984
f 984 996 508
f 984 508 507
f 700 714 997
f 700 997 985
f 985 997 998
f 985 998 986
f 986 998 999
f 986 999 987
f 987 999 1000
f 987 1000 988
f 988 1000 1001
f 988 1001 989
f 989 1001 1002
f 989 1002 990
f 990 1002 1003
f 990 1003 991
f 991 1003 1004
f 991 1004 992
f 992 1004 1005
f 992 1005 993
f 993 1005 1006
f 993 1006 994
f 994 1006 1007
f 994 1007 995
f 995 1007 1008
f 995 1008 996
f 996 1008 509
f 996 509 508
f 714 728 1009
f 714 1009 997
f 997 1009 1010
f 997 1010 998
f 998 1010 1011
f 998 1011 999
f 999 1011 1012
f 999 1012 1000
f 1000 1012 1013
f 1000 1013 1001
f 1001 1013 1014
f 1001 1014 1002
f 1002 1014 1015
f 1002 1015 1003
f 1003 1015 1016
f 1003 1016 1004
f 1004 1016 1017
f 1004 1017 1005
f 1005 1017 1018
f 1005 1018 1006
f 1006 1018 1019
f 1006 1019 1007
f 1007 1019 1020
f 1007 1020 1008
f 1008 1020 510
f 1008 510 509
f 728 742 1021
f 728 1021 1009
f 1009 1021 1022
f 1009 1022 1010
f 1010 1022 1023
f 1010 1023 1011
f 1011 1023 1024
f 1011 1024 1012
f 1012 1024 1025
f 1012 1025 1013
f 1013 1025 1026
f 1013 1026 1014
f 1014 1026 1027
f 1014 1027 1015
f 1015 1027 1028
f 1015 1028 1016
f 1016 1028 1029
f 1016 1029 1017
f 1017 1029 1030
f 1017 1030 1018
f 1018 1030 1031
f 1018 1031 1019
f 1019 1031 1032
f 1019 1032 1020
f 1020 1032 511
f 1020 511 510
f 742 756 1033
f 742 1033 1021
f 1021 1033 1034
f 1021 1034 1022
f 1022 1034 1035
f 1022 1035 1023
f 1023 1035 1036
f 1023 1036 1024
f 1024 1036 1037
f 1024 1037 1025
f 1025 1037 1038
f 1025 1038 1026
f 1026 1038 1039
f 1026 1039 1027
f 1027 1039 1040
f 1027 1040 1028
f 1028 1040 1041
f 1028 1041 1029
f 1029 1041 1042
f 1029 1042 1030
f 1030 1042 1043
f 1030 1043 1031
f 1031 1043 1044
f 1031 1044 1032
f 1032 1044 512
f 1032 512 511
f 756 770 1045
f 756 1045 1033
f 1033 1045 1046
f 1033 1046 1034
f 1034 1046 1047
f 1034 1047 1035
f 1035 1047 1048
f 1035 1048 1036
f 1036 1048 1049
f 1036 1049 1037
f 1037 1049 1050
f 1037 1050 1038
f 1038 1050 1051
f 1038 1051 1039
f 1039 1051 1052
f 1039 1052 1040
f 1040 1052 1053
f 1040 1053 1041
f 1041 1053 1054
f 1041 1054 1042
f 1042 1054 1055
f 1042 1055 1043
f 1043 1055 1056
f 1043 1056 1044
f 1044 1056 513
f 1044 513 512
f 770 784 1057
f 770 1057 1045
f 1045 1057 1058
f 1045 1058 1046
f 1046 1058 1059
f 1046 1059 1047
f 1047 1059 1060
f 1047 1060 1048
f 1048 1060 1061
f 1048 1061 1049
f 1049 1061 1062
f 1049 1062 1050
f 1050 1062 1063
f 1050 1063 1051
f 1051 1063 1064
f 1051 1064 1052
f 1052 1064 1065
f 1052 1065 1053
f 1053 1065 1066
f 1053 1066 1054
f 1054 1066 1067
f 1054 1067 1055
f 1055 1067 1068
f 1055 1068 1056
f 1056 1068 514
f 1056 514 513
f 784 798 1069
f 784 1069 1057
f 1057 1069 1070
f 1057 1070 1058
f 1058 1070 1071
f 1058 1071 1059
f 1059 1071 1072
f 1059 1072 1060
f 1060 1072 1073
f 1060 1073 1061
f 1061 1073 1074
f 1061 1074 1062
f 1062 1074 1075
f 1062 1075 1063
f 1063 1075 1076
f 1063 1076 1064
f 1064 1076 1077
f 1064 1077 1065
f 1065 1077 1078
f 1065 1078 1066
f 1066 1078 1079
f 1066 1079 1067
f 1067 1079 1080
f 1067 1080 1068
f 1068 1080 515
f 1068 515 514
f 798 812 1081
f 798 1081 1069
f 1069 1081 1082
f 1069 1082 1070
f 1070 1082 1083
f 1070 1083 1071
f 1071 1083 1084
f 1071 1084 1072
f 1072 1084 1085
f 1072 1085 1073
f 1073 1085 1086
f 1073 1086 1074
f 1074 1086 1087
f 1074 1087 1075
f 1075 1087 1088
f 1075 1088 1076
f 1076 1088 1089
f 1076 1089 1077
f 1077 1089 1090
f 1077 1090 1078
f 1078 1090 1091
f 1078 1091 1079
f 1079 1091 1092
f 1079 1092 1080
f 1080 1092 516
f 1080 516 515
f 812 826 1093
f 812 1093 1081
f 1081 1093 1094
f 1081 1094 1082
f 1082 1094 1095
f 1082 1095 1083
f 1083 1095 1096
f 1083 1096 1084
f 1084 1096 1097
f 1084 1097 1085
f 1085 1097 1098
f 1085 1098 1086
f 1086 1098 1099
f 1086 1099 1087
f 1087 1099 1100
f 1087 1100 1088
f 1088 1100 1101
f 1088 1101 1089
f 1089 1101 1102
f 1089 1102 1090
f 1090 1102 1103
f 1090 1103 1091
f 1091 1103 1104
f 1091 1104 1092
f 1092 1104 517
f 1092 517 516
f 826 840 1105
f 826 1105 1093
f 1093 1105 1106
f 1093 1106 1094
f 1094 1106 1107
f 1094 1107 1095
f 1095 1107 1108
f 1095 1108 1096
f 1096 1108 1109
f 1096 1109 1097
f 1097 1109 1110
f 1097 1110 1098
f 1098 1110 1111
f 1098 1111 1099
f 1099 1111 1112
f 1099 1112 1100
f 1100 1112 1113
f 1100 1113 1101
f 1101 1113 1114
f 1101 1114 1102
f 1102 1114 1115
f 1102 1115 1103
f 1103 1115 1116
f 1103 1116 1104
f 1104 1116 518
f 1104 518 517
f 1 4 1117
f 1 1117 519
f 519 1117 1118
f 519 1118 533
f 533 1118 1119
f 533 1119 547
f 547 1119 1120
f 547 1120 561
f 561 1120 1121
f 561 1121 575
f 575 1121 1122
f 575 1122 589
f 589 1122 1123
f 589 1123 603
f 603 1123 1124
f 603 1124 617
f 617 1124 1125
f 617 1125 631
f 631 1125 1126
f 631 1126 645
f 645 1126 1127
f 645 1127 659
f 659 1127 1128
f 659 1128 673
f 673 1128 1129
f 673 1129 687
f 687 1129 1130
f 687 1130 701
f 701 1130 1131
f 701 1131 715
f 715 1131 1132
f 715 1132 729
f 729 1132 1133
f 729 1133 743
f 743 1133 1134
f 743 1134 757
f 757 1134 1135
f 757 1135 771
f 771 1135 1136
f 771 1136 785
f 785 1136 1137
f 785 1137 799
f 799 1137 1138
f 799 1138 813
f 813 1138 1139
f 813 1139 827
f 4 6 1140
f 4 1140 1117
f 1117 1140 1141
f 1117 1141 1118
f 1118 1141 1142
f 1118 1142 1119
f 1119 1142 1143
f 1119 1143 1120
f 1120 1143 1144
f 1120 1144 1121
f 1121 1144 1145
f 1121 1145 1122
f 1122 1145 1146
f 1122 1146 1123
f 1123 1146 1147
f 1123 1147 1124
f 1124 1147 1148
f 1124 1148 1125
f 1125 1148 1149
f 1125 1149 1126
f 1126 1149 1150
f 1126 1150 1127
f 1127 1150 1151
f 1127 1151 1128
f 1128 1151 1152
f 1128 1152 1129
f 1129 1152 1153
f 1129 1153 1130
f 1130 1153 1154
f 1130 1154 1131
f 1131 1154 1155
f 1131 1155 1132
f 1132 1155 1156
f 1132 1156 1133
f 1133 1156 1157
f 1133 1157 1134
f 1134 1157 1158
f 1134 1158 1135
f 1135 1158 1159
f 1135 1159 1136
f 1136 1159 1160
f 1136 1160 1137
f 1137 1160 1161
f 1137 1161 1138
f 1138 1161 1162
f 1138 1162 1139
f 6 8 1163
f 6 1163 1140
f 1140 1163 1164
f 1140 1164 1141
f 1141 1164 1165
f 1141 1165 1142
f 1142 1165 1166
f 1142 1166 1143
f 1143 1166 1167
f 1143 1167 1144
f 1144 1167 1168
f 1144 1168 1145
f 1145 1168 1169
f 1145 1169 1146
f 1146 1169 1170
f 1146 1170 1147
f 1147 1170 1171
f 1147 1171 1148
f 1148 1171 1172
f 1148 1172 1149
f 1149 1172 1173
f 1149 1173 1150
f 1150 1173 1174
f 1150 1174 1151
f 1151 1174 1175
f 1151 1175 1152
f 1152 1175 1176
f 1152 1176 1153
f 1153 1176 1177
f 1153 1177 1154
f 1154 1177 1178
f 1154 1178 1155
f 1155 1178 1179
f 1155 1179 1156
f 1156 1179 1180
f 1156 1180 1157
f 1157 1180 1181
f 1157 1181 1158
f 1158 1181 1182
f 1158 1182 1159
f 1159 1182 1183
f 1159 1183 1160
f 1160 1183 1184
f 1160 1184 1161
f 1161 1184 1185
f 1161 1185 1162
f 8 10 1186
f 8 1186 1163
f 1163 1186 1187
f 1163 1187 1164
f 1164 1187 1188
f 1164 1188 1165
f 1165 1188 1189
f 1165 1189 1166
f 1166 1189 1190
f 1166 1190 1167
f 1167 1190 1191
f 1167 1191 1168
f 1168 1191 1192
f 1168 1192 1169
f 1169 1192 1193
f 1169 1193 1170
f 1170 1193 1194
f 1170 1194 1171
f 1171 1194 1195
f 1171 1195 1172
f 1172 1195 1196
f 1172 1196 1173
f 1173 1196 1197
f 1173 1197 1174
f 1174 1197 1198
f 1174 1198 1175
f 1175 1198 1199
f 1175 1199 1176
f 1176 1199 1200
f 1176 1200 1177
f 1177 1200 1201
f 1177 1201 1178
f 1178 1201 1202
f 1178 1202 1179
f 1179 1202 1203
f 1179 1203 1180
f 1180 1203 1204
f 1180 1204 1181
f 1181 1204 1205
f 1181 1205 1182
f 1182 1205 1206
f 1182 1206 1183
f 1183 1206 1207
f 1183 1207 1184
f 1184 1207 1208
f 1184 1208 1185
f 10 12 1209
f 10 1209 1186
f 1186 1209 1210
f 1186 1210 1187
f 1187 1210 1211
f 1187 1211 1188
f 1188 1211 1212
f 1188 1212 1189
f 1189 1212 1213
f 1189 1213 1190
f 1190 1213 1214
f 1190 1214 1191
f 1191 1214 1215
f 1191 1215 1192
f 1192 1215 1216
f 1192 1216 1193
f 1193 1216 1217
f 1193 1217 1194
f 1194 1217 1218
f 1194 1218 1195
f 1195 1218 1219
f 1195 1219 1196
f 1196 1219 1220
f 1196 1220 1197
f 1197 1220 1221
f 1197 1221 1198
f 1198 1221 1222
f 1198 1222 1199
f 1199 1222 1223
f 1199 1223 1200
f 1200 1223 1224
f 1200 1224 1201
f 1201 1224 1225
f 1201 1225 1202
f 1202 1225 1226
f 1202 1226 1203
f 1203 1226 1227
f 1203 1227 1204
f 1204 1227 1228
f 1204 1228 1205
f 1205 1228 1229
f 1205 1229 1206
f 1206 1229 1230
f 1206 1230 1207
f 1207 1230 1231
f 1207 1231 1208
f 12 14 1232
f 12 1232 1209
f 1209 1232 1233
f 1209 1233 1210
f 1210 1233 1234
f 1210 1234 1211
f 1211 1234 1235
f 1211 1235 1212
f 1212 1235 1236
f 1212 1236 1213
f 1213 1236 1237
f 1213 1237 1214
f 1214 1237 1238
f 1214 1238 1215
f 1215 1238 1239
f 1215 1239 1216
f 1216 1239 1240
f 1216 1240 1217
f 1217 1240 1241
f 1217 1241 1218
f 1218 1241 1242
f 1218 1242 1219
f 1219 1242 1243
f 1219 1243 1220
f 1220 1243 1244
f 1220 1244 1221
f 1221 1244 1245
f 1221 1245 1222
f 1222 1245 1246
f 1222 1246 1223
f 1223 1246 1247
f 1223 1247 1224
f 1224 1247 1248
f 1224 1248 1225
f 1225 1248 1249
f 1225 1249 1226
f 1226 1249 1250
f 1226 1250 1227
f 1227 1250 1251
f 1227 1251 1228
f 1228 1251 1252
f 1228 1252 1229
f 1229 1252 1253
f 1229 1253 1230
f 1230 1253 1254
f 1230 1254 1231
f 14 16 1255
f 14 1255 1232
f 1232 1255 1256
f 1232 1256 1233
f 1233 1256 1257
f 1233 1257 1234
f 1234 1257 1258
f 1234 1258 1235
f 1235 1258 1259
f 1235 1259 1236
f 1236 1259 1260
f 1236 1260 1237
f 1237 1260 1261
f 1237 1261 1238
f 1238 1261 1262
f 1238 1262 1239
f 1239 1262 1263
f 1239 1263 1240
f 1240 1263 1264
f 1240 1264 1241
f 1241 1264 1265
f 1241 1265 1242
f 1242 1265 1266
f 1242 1266 1243
f 1243 1266 1267
f 1243 1267 1244
f 1244 1267 1268
f 1244 1268 1245
f 1245 1268 1269
f 1245 1269 1246
f 1246 1269 1270
f 1246 1270 1247
f 1247 1270 1271
f 1247 1271 1248
f 1248 1271 1272
f 1248 1272 1249
f 1249 1272 1273
f 1249 1273 1250
f 1250 1273 1274
f 1250 1274 1251
f 1251 1274 1275
f 1251 1275 1252
f 1252 1275 1276
f 1252 1276 1253
f 1253 1276 1277
f 1253 1277 1254
f 16 18 1278
f 16 1278 1255
f 1255 1278 1279
f 1255 1279 1256
f 1256 1279 1280
f 1256 1280 1257
f 1257 1280 1281
f 1257 1281 1258
f 1258 1281 1282
f 1258 1282 1259
f 1259 1282 1283
f 1259 1283 1260
f 1260 1283 1284
f 1260 1284 1261
f 1261 1284 1285
f 1261 1285 1262
f 1262 1285 1286
f 1262 1286 1263
f 1263 1286 1287
f 1263 1287 1264
f 1264 1287 1288
f 1264 1288 1265
f 1265 1288 1289
f 1265 1289 1266
f 1266 1289 1290
f 1266 1290 1267
f 1267 1290 1291
f 1267 1291 1268
f 1268 1291 1292
f 1268 1292 1269
f 1269 1292 1293
f 1269 1293 1270
f 1270 1293 1294
f 1270 1294 1271
f 1271 1294 1295
f 1271 1295 1272
f 1272 1295 1296
f 1272 1296 1273
f 1273 1296 1297
f 1273 1297 1274
f 1274 1297 1298
f 1274 1298 1275
f 1275 1298 1299
f 1275 1299 1276
f 1276 1299 1300
f 1276 1300 1277
f 18 20 1301
f 18 1301 1278
f 1278 1301 1302
f 1278 1302 1279
f 1279 1302 1303
f 1279 1303 1280
f 1280 1303 1304
f 1280 1304 1281
f 1281 1304 1305
f 1281 1305 1282
f 1282 1305 1306
f 1282 1306 1283
f 1283 1306 1307
f 1283 1307 1284
f 1284 1307 1308
f 1284 1308 1285
f 1285 1308 1309
f 1285 1309 1286
f 1286 1309 1310
f 1286 1310 1287
f 1287 1310 1311
f 1287 1311 1288
f 1288 1311 1312
f 1288 1312 1289
f 1289 1312 1313
f 1289 1313 1290
f 1290 1313 1314
f 1290 1314 1291
f 1291 1314 1315
f 1291 1315 1292
f 1292 1315 1316
f 1292 1316 1293
f 1293 1316 1317
f 1293 1317 1294
f 1294 1317 1318
f 1294 1318 1295
f 1295 1318 1319
f 1295 1319 1296
f 1296 1319 1320
f 1296 1320 1297
f 1297 1320 1321
f 1297 1321 1298
f 1298 1321 1322
f 1298 1322 1299
f 1299 1322 1323
f 1299 1323 1300
f 20 22 1324
f 20 1324 1301
f 1301 1324 1325
f 1301 1325 1302
f 1302 1325 1326
f 1302 1326 1303
f 1303 1326 1327
f 1303 1327 1304
f 1304 1327 1328
f 1304 1328 1305
f 1305 1328 1329
f 1305 1329 1306
f 1306 1329 1330
f 1306 1330 1307
f 1307 1330 1331
f 1307 1331 1308
f 1308 1331 1332
f 1308 1332 1309
f 1309 1332 1333
f 1309 1333 1310
f 1310 1333 1334
f 1310 1334 1311
f 1311 1334 1335
f 1311 1335 1312
f 1312 1335 1336
f 1312 1336 1313
f 1313 1336 1337
f 1313 1337 1314
f 1314 1337 1338
f 1314 1338 1315
f 1315 1338 1339
f 1315 1339 1316
f 1316 1339 1340
f 1316 1340 1317
f 1317 1340 1341
f 1317 1341 1318
f 1318 1341 1342
f 1318 1342 1319
f 1319 1342 1343
f 1319 1343 1320
f 1320 1343 1344
f 1320 1344 1321
f 1321 1344 1345
f 1321 1345 1322
f 1322 1345 1346
f 1322 1346 1323
f 22 24 1347
f 22 1347 1324
f 1324 1347 1348
f 1324 1348 1325
f 1325 1348 1349
f 1325 1349 1326
f 1326 1349 1350
f 1326 1350 1327
f 1327 1350 1351
f 1327 1351 1328
f 1328 1351 1352
f 1328 1352 1329
f 1329 1352 1353
f 1329 1353 1330
f 1330 1353 1354
f 1330 1354 1331
f 1331 1354 1355
f 1331 1355 1332
f 1332 1355 1356
f 1332 1356 1333
f 1333 1356 1357
f 1333 1357 1334
f 1334 1357 1358
f 1334 1358 1335
f 1335 1358 1359
f 1335 1359 1336
f 1336 1359 1360
f 1336 1360 1337
f 1337 1360 1361
f 1337 1361 1338
f 1338 1361 1362
f 1338 1362 1339
f 1339 1362 1363
f 1339 1363 1340
f 1340 1363 1364
f 1340 1364 1341
f 1341 1364 1365
f 1341 1365 1342
f 1342 1365 1366
f 1342 1366 1343
f 1343 1366 1367
f 1343 1367 1344
f 1344 1367 1368
f 1344 1368 1345
f 1345 1368 1369
f 1345 1369 1346
f 24 26 1370
f 24 1370 1347
f 1347 1370 1371
f 1347 1371 1348
f 1348 1371 1372
f 1348 1372 1349
f 1349 1372 1373
f 1349 1373 1350
f 1350 1373 1374
f 1350 1374 1351
f 1351 1374 1375
f 1351 1375 1352
f 1352 1375 1376
f 1352 1376 1353
f 1353 1376 1377
f 1353 1377 1354
f 1354 1377 1378
f 1354 1378 1355
f 1355 1378 1379
f 1355 1379 1356
f 1356 1379 1380
f 1356 1380 1357
f 1357 1380 1381
f 1357 1381 1358
f 1358 1381 1382
f 1358 1382 1359
f 1359 1382 1383
f 1359 1383 1360
f 1360 1383 1384
f 1360 1384 1361
f 1361 1384 1385
f 1361 1385 1362
f 1362 1385 1386
f 1362 1386 1363
f 1363 1386 1387
f 1363 1387 1364
f 1364 1387 1388
f 1364 1388 1365
f 1365 1388 1389
f 1365 1389 1366
f 1366 1389 1390
f 1366 1390 1367
f 1367 1390 1391
f 1367 1391 1368
f 1368 1391 1392
f 1368 1392 1369
f 26 28 198
f 26 198 1370
f 1370 198 200
f 1370 200 1371
f 1371 200 202
f 1371 202 1372
f 1372 202 204
f 1372 204 1373
f 1373 204 206
f 1373 206 1374
f 1374 206 208
f 1374 208 1375
f 1375 208 210
f 1375 210 1376
f 1376 210 212
f 1376 212 1377
f 1377 212 214
f 1377 214 1378
f 1378 214 216
f 1378 216 1379
f 1379 216 218
f 1379 218 1380
f 1380 218 220
f 1380 220 1381
f 1381 220 222
f 1381 222 1382
f 1382 222 224
f 1382 224 1383
f 1383 224 226
f 1383 226 1384
f 1384 226 228
f 1384 228 1385
f 1385 228 230
f 1385 230 1386
f 1386 230 232
f 1386 232 1387
f 1387 232 234
f 1387 234 1388
f 1388 234 236
f 1388 236 1389
f 1389 236 238
f 1389 238 1390
f 1390 238 240
f 1390 240 1391
f 1391 240 242
f 1391 242 1392
f 1393 840 1394
f 1393 1394 1394
f 1395 827 1396
f 1395 1396 1396
f 1397 242 1398
f 1397 1398 1398
f 1399 518 1400
f 1399 1400 1400
f 1396 1401 1395
f 1396 1395 1395
f 1402 1401 1403
f 1402 1403 1403
f 1400 1404 1405
f 1400 1405 1405
f 1404 1406 1405
f 1404 1405 1405
f 1407 1408 1409
f 1407 1409 1409
f 1394 1410 1393
f 1394 1393 1393
f 1411 1412 1413
f 1411 1413 1413
f 1398 1413 1412
f 1398 1412 1412
f 1395 1401 1414
f 1395 1414 1414
f 1415 1402 1403
f 1415 1403 1403
f 1410 1416 1408
f 1410 1408 1408
f 1417 1411 1418
f 1417 1418 1418
f 1419 1420 1421
f 1419 1421 1421
f 1422 1423 1424
f 1422 1424 1424
f 1425 1426 1427
f 1425 1427 1427
f 1428 1402 1415
f 1428 1415 1415
f 1429 1430 1431
f 1429 1431 1431
f 1432 1433 1434
f 1432 1434 1434
f 1435 1436 1437
f 1435 1437 1437
f 1438 1439 1440
f 1438 1440 1440
f 1441 1431 1430
f 1441 1430 1430
f 1404 1442 1406
f 1404 1406 1406
f 1443 1405 1444
f 1443 1444 1444
f 1420 1419 1445
f 1420 1445 1445
f 1419 1446 1445
f 1419 1445 1445
f 1447 1448 1449
f 1447 1449 1449
f 1450 1451 1452
f 1450 1452 1452
f 1447 1453 1454
f 1447 1454 1454
f 1438 1455 1456
f 1438 1456 1456
f 1457 1458 1459
f 1457 1459 1459
f 1460 1461 1462
f 1460 1462 1462
f 1433 1463 1464
f 1433 1464 1464
f 1465 1466 1467
f 1465 1467 1467
f 1468 1469 1457
f 1468 1457 1457
f 1470 1460 1462
f 1470 1462 1462
f 1471 1467 1472
f 1471 1472 1473
f 1474 1475 1476
f 1474 1476 1476
f 1460 1470 1477
f 1460 1477 1477
f 1478 1477 1470
f 1478 1470 1470
f 1479 1480 1481
f 1479 1481 1481
f 1482 1469 1468
f 1482 1468 1468
f 1468 1432 1482
f 1468 1482 1482
f 1467 1466 1483
f 1467 1483 1483
f 1484 1485 1486
f 1484 1486 1486
f 1487 1475 1474
f 1487 1474 1474
f 1488 1424 1423
f 1488 1423 1423
f 1489 1490 1491
f 1489 1491 1491
f 1492 1449 1448
f 1492 1448 1448
f 1493 1494 1495
f 1493 1495 1495
f 1496 1421 1420
f 1496 1420 1420
f 1497 1417 1498
f 1497 1498 1498
f 1491 1490 1499
f 1491 1499 1499
f 1485 1500 1501
f 1485 1501 1501
f 1397 1412 1439
f 1397 1439 1439
f 1461 1441 1502
f 1461 1502 1502
f 1503 1504 1505
f 1503 1505 1505
f 1506 1507 1493
f 1506 1493 1493
f 1508 1450 1452
f 1508 1452 1452
f 1498 1509 1497
f 1498 1497 1497
f 1437 1483 1466
f 1437 1466 1466
f 1476 1473 1510
f 1476 1510 1510
f 1511 1414 1512
f 1511 1512 1512
f 1513 1514 1515
f 1513 1515 1515
f 1427 1407 1425
f 1427 1425 1425
f 1479 1481 1504
f 1479 1504 1504
f 1431 1428 1429
f 1431 1429 1429
f 1393 1410 1435
f 1393 1435 1435
f 1516 1517 1514
f 1516 1514 1514
f 1476 1510 1517
f 1476 1517 1517
f 1426 1463 1427
f 1426 1427 1427
f 1518 1516 1519
f 1518 1519 1519
f 1424 1520 1422
f 1424 1422 1422
f 1436 1435 1410
f 1436 1410 1410
f 1394 1416 1410
f 1394 1410 1410
f 1521 1522 1407
f 1521 1407 1427
f 1458 1457 1469
f 1458 1469 1469
f 1519 1523 1518
f 1519 1518 1518
f 1524 1473 1476
f 1524 1476 1476
f 1525 1465 1471
f 1525 1471 1471
f 1453 1497 1509
f 1453 1509 1509
f 1526 1527 1417
f 1526 1417 1497
f 1399 1405 1443
f 1399 1443 1443
f 1528 1481 1480
f 1528 1480 1480
f 1524 1476 1475
f 1524 1475 1475
f 1492 1445 1446
f 1492 1446 1446
f 1529 1495 1494
f 1529 1494 1494
f 1440 1439 1412
f 1440 1412 1412
f 1413 1418 1411
f 1413 1411 1411
f 1454 1448 1447
f 1454 1447 1447
f 1506 1530 1453
f 1506 1453 1447
f 1512 1414 1401
f 1512 1401 1401
f 1531 1532 1505
f 1531 1505 1505
f 1481 1505 1504
f 1481 1504 1504
f 1516 1533 1519
f 1516 1519 1519
f 1511 1459 1458
f 1511 1458 1458
f 1503 1505 1532
f 1503 1532 1532
f 1534 1528 1535
f 1534 1535 1535
f 1536 1537 1468
f 1536 1468 1457
f 1527 1526 1508
f 1527 1508 1538
f 1539 1540 1455
f 1539 1455 1541
f 1534 1542 1508
f 1534 1508 1508
f 1517 1515 1514
f 1517 1514 1514
f 1533 1543 1523
f 1533 1523 1519
f 1418 1498 1417
f 1418 1417 1417
f 1493 1507 1494
f 1493 1494 1494
f 1494 1507 1544
f 1494 1544 1529
f 1532 1531 1545
f 1532 1545 1545
f 1534 1535 1542
f 1534 1542 1542
f 1538 1541 1546
f 1538 1546 1527
f 1491 1488 1489
f 1491 1489 1489
f 1426 1464 1463
f 1426 1463 1463
f 1535 1528 1547
f 1535 1547 1547
f 1480 1479 1441
f 1480 1441 1461
f 1528 1480 1548
f 1528 1548 1548
f 1478 1456 1540
f 1478 1540 1540
f 1434 1482 1432
f 1434 1432 1432
f 1537 1545 1549
f 1537 1549 1550
f 1551 1552 1520
f 1551 1520 1424
f 1484 1552 1551
f 1484 1551 1485
f 1416 1409 1408
f 1416 1408 1408
f 1553 1436 1410
f 1553 1410 1408
f 1493 1452 1451
f 1493 1451 1451
f 1516 1514 1533
f 1516 1533 1533
f 1533 1514 1521
f 1533 1521 1543
f 1399 1400 1405
f 1399 1405 1405
f 1459 1511 1512
f 1459 1512 1512
f 1553 1522 1513
f 1553 1513 1554
f 1554 1513 1515
f 1554 1515 1472
f 1550 1523 1433
f 1550 1433 1432
f 1536 1555 1556
f 1536 1556 1532
f 1555 1459 1512
f 1555 1512 1557
f 1550 1518 1523
f 1550 1523 1523
f 1550 1432 1468
f 1550 1468 1537
f 1558 1479 1504
f 1558 1504 1503
f 1496 1443 1444
f 1496 1444 1444
f 1518 1549 1531
f 1518 1531 1531
f 1495 1486 1501
f 1495 1501 1501
f 1477 1478 1540
f 1477 1540 1540
f 1547 1477 1540
f 1547 1540 1539
f 1544 1507 1449
f 1544 1449 1446
f 1525 1499 1490
f 1525 1490 1490
f 1396 1403 1401
f 1396 1401 1401
f 1401 1402 1557
f 1401 1557 1512
f 1442 1520 1406
f 1442 1406 1406
f 1406 1559 1444
f 1406 1444 1405
f 1501 1486 1485
f 1501 1485 1485
f 1552 1484 1560
f 1552 1560 1559
f 1548 1547 1528
f 1548 1528 1528
f 1521 1514 1513
f 1521 1513 1522
f 1521 1427 1463
f 1521 1463 1543
f 1415 1429 1428
f 1415 1428 1428
f 1402 1428 1561
f 1402 1561 1557
f 1520 1552 1559
f 1520 1559 1406
f 1442 1422 1520
f 1442 1520 1520
f 1502 1462 1461
f 1502 1461 1461
f 1461 1460 1548
f 1461 1548 1480
f 1486 1495 1529
f 1486 1529 1529
f 1562 1544 1446
f 1562 1446 1419
f 1464 1434 1433
f 1464 1433 1433
f 1433 1523 1543
f 1433 1543 1463
f 1465 1467 1471
f 1465 1471 1471
f 1473 1524 1499
f 1473 1499 1471
f 1437 1436 1483
f 1437 1483 1483
f 1483 1554 1472
f 1483 1472 1467
f 1430 1502 1441
f 1430 1441 1441
f 1441 1479 1558
f 1441 1558 1431
f 1542 1539 1541
f 1542 1541 1538
f 1538 1508 1542
f 1538 1542 1542
f 1451 1450 1530
f 1451 1530 1506
f 1506 1493 1451
f 1506 1451 1451
f 1452 1534 1508
f 1452 1508 1508
f 1508 1526 1530
f 1508 1530 1450
f 1547 1548 1460
f 1547 1460 1477
f 1547 1539 1542
f 1547 1542 1535
f 1474 1501 1500
f 1474 1500 1500
f 1488 1491 1475
f 1488 1475 1487
f 1561 1428 1431
f 1561 1431 1558
f 1556 1561 1558
f 1556 1558 1503
f 1553 1554 1483
f 1553 1483 1436
f 1500 1485 1551
f 1500 1551 1487
f 1487 1474 1500
f 1487 1500 1500
f 1499 1525 1471
f 1499 1471 1471
f 1499 1524 1475
f 1499 1475 1491
f 1510 1473 1472
f 1510 1472 1515
f 1515 1517 1510
f 1515 1510 1510
f 1536 1532 1545
f 1536 1545 1537
f 1536 1457 1459
f 1536 1459 1555
f 1509 1454 1453
f 1509 1453 1453
f 1453 1530 1526
f 1453 1526 1497
f 1556 1503 1532
f 1556 1532 1532
f 1556 1555 1557
f 1556 1557 1561
f 1397 1398 1412
f 1397 1412 1412
f 1412 1411 1546
f 1412 1546 1440
f 1484 1486 1562
f 1484 1562 1560
f 1421 1444 1559
f 1421 1559 1560
f 1562 1486 1529
f 1562 1529 1544
f 1449 1492 1446
f 1449 1446 1446
f 1449 1507 1506
f 1449 1506 1447
f 1545 1531 1549
f 1545 1549 1549
f 1518 1550 1549
f 1518 1549 1549
f 1409 1425 1407
f 1409 1407 1407
f 1407 1522 1553
f 1407 1553 1408
f 1540 1456 1455
f 1540 1455 1455
f 1438 1440 1455
f 1438 1455 1455
f 1423 1489 1488
f 1423 1488 1488
f 1488 1487 1551
f 1488 1551 1424
f 1421 1496 1444
f 1421 1444 1444
f 1421 1560 1562
f 1421 1562 1419
f 1546 1411 1417
f 1546 1417 1527
f 1546 1541 1455
f 1546 1455 1440
