$MeshFormat
2.2 0 8
$EndMeshFormat
$PhysicalNames
1
2 1 "Rhino->WAMIT_file_export_(mesh)"
$EndPhysicalNames
$Nodes
1078
1 -57 -9 -2.5
2 -57 -12 -2.5
3 -57 -12 0
4 -57 -9 0
5 -57 -9 -5
6 -57 -12 -5
7 -57 -9 -7.5
8 -57 -12 -7.5
9 -57 -9 -10
10 -57 -12 -10
11 -57 -6 -2.5
12 -57 -6 0
13 -57 -6 -5
14 -57 -6 -7.5
15 -57 -6 -10
16 -57 -3 -2.5
17 -57 -3 0
18 -57 -3 -5
19 -57 -3 -7.5
20 -57 -3 -10
21 -57 0 -2.5
22 -57 0 0
23 -57 0 -5
24 -57 0 -7.5
25 -57 0 -10
26 -54 -3 -10
27 -54 0 -10
28 -54 -6 -10
29 -54 -9 -10
30 -54 -12 -10
31 -51 -3 -10
32 -51 0 -10
33 -51 -6 -10
34 -51 -9 -10
35 -51 -12 -10
36 -48 -3 -10
37 -48 0 -10
38 -48 -6 -10
39 -48 -9 -10
40 -48 -12 -10
41 -45 -3 -10
42 -45 0 -10
43 -45 -6 -10
44 -45 -9 -10
45 -45 -12 -10
46 -42 -3 -10
47 -42 0 -10
48 -42 -6 -10
49 -42 -9 -10
50 -42 -12 -10
51 -39 -3 -10
52 -39 0 -10
53 -39 -6 -10
54 -39 -9 -10
55 -39 -12 -10
56 -36 -3 -10
57 -36 0 -10
58 -36 -6 -10
59 -36 -9 -10
60 -36 -12 -10
61 -33 -3 -10
62 -33 0 -10
63 -33 -6 -10
64 -33 -9 -10
65 -33 -12 -10
66 -30 -3 -10
67 -30 0 -10
68 -30 -6 -10
69 -30 -9 -10
70 -30 -12 -10
71 -27 -3 -10
72 -27 0 -10
73 -27 -6 -10
74 -27 -9 -10
75 -27 -12 -10
76 -24 -3 -10
77 -24 0 -10
78 -24 -6 -10
79 -24 -9 -10
80 -24 -12 -10
81 -21 -3 -10
82 -21 0 -10
83 -21 -6 -10
84 -21 -9 -10
85 -21 -12 -10
86 -18 -3 -10
87 -18 0 -10
88 -18 -6 -10
89 -18 -9 -10
90 -18 -12 -10
91 -15 -3 -10
92 -15 0 -10
93 -15 -6 -10
94 -15 -9 -10
95 -15 -12 -10
96 -12 -3 -10
97 -12 0 -10
98 -12 -6 -10
99 -12 -9 -10
100 -12 -12 -10
101 -9 -3 -10
102 -9 0 -10
103 -9 -6 -10
104 -9 -9 -10
105 -9 -12 -10
106 -6 -3 -10
107 -6 0 -10
108 -6 -6 -10
109 -6 -9 -10
110 -6 -12 -10
111 -3 -3 -10
112 -3 0 -10
113 -3 -6 -10
114 -3 -9 -10
115 -3 -12 -10
116 0 -3 -10
117 0 0 -10
118 0 -6 -10
119 0 -9 -10
120 0 -12 -10
121 3 -3 -10
122 3 0 -10
123 3 -6 -10
124 3 -9 -10
125 3 -12 -10
126 6 -3 -10
127 6 0 -10
128 6 -6 -10
129 6 -9 -10
130 6 -12 -10
131 9 -3 -10
132 9 0 -10
133 9 -6 -10
134 9 -9 -10
135 9 -12 -10
136 12 -3 -10
137 12 0 -10
138 12 -6 -10
139 12 -9 -10
140 12 -12 -10
141 15 -3 -10
142 15 0 -10
143 15 -6 -10
144 15 -9 -10
145 15 -12 -10
146 18 -3 -10
147 18 0 -10
148 18 -6 -10
149 18 -9 -10
150 18 -12 -10
151 21 -3 -10
152 21 0 -10
153 21 -6 -10
154 21 -9 -10
155 21 -12 -10
156 24 -3 -10
157 24 0 -10
158 24 -6 -10
159 24 -9 -10
160 24 -12 -10
161 27 -3 -10
162 27 0 -10
163 27 -6 -10
164 27 -9 -10
165 27 -12 -10
166 30 -3 -10
167 30 0 -10
168 30 -6 -10
169 30 -9 -10
170 30 -12 -10
171 33 -3 -10
172 33 0 -10
173 33 -6 -10
174 33 -9 -10
175 33 -12 -10
176 36 -3 -10
177 36 0 -10
178 36 -6 -10
179 36 -9 -10
180 36 -12 -10
181 39 -3 -10
182 39 0 -10
183 39 -6 -10
184 39 -9 -10
185 39 -12 -10
186 42 -3 -10
187 42 0 -10
188 42 -6 -10
189 42 -9 -10
190 42 -12 -10
191 45 -3 -10
192 45 0 -10
193 45 -6 -10
194 45 -9 -10
195 45 -12 -10
196 48 -3 -10
197 48 0 -10
198 48 -6 -10
199 48 -9 -10
200 48 -12 -10
201 51 -3 -10
202 51 0 -10
203 51 -6 -10
204 51 -9 -10
205 51 -12 -10
206 54 -3 -10
207 54 0 -10
208 54 -6 -10
209 54 -9 -10
210 54 -12 -10
211 57 -3 -10
212 57 0 -10
213 57 -6 -10
214 57 -9 -10
215 57 -12 -10
216 -54 -9 0
217 -54 -12 0
218 -54 -6 0
219 -54 -3 0
220 -54 -1.5 0
221 -54 0 0
222 -51 -9 0
223 -51 -12 0
224 -51 -6 0
225 -52.5 -3 0
226 -51 -3 0
227 -52.5 0 0
228 -52.5 -1.5 0
229 -48 -9 0
230 -48 -12 0
231 -48 -6 0
232 -45 -9 0
233 -45 -12 0
234 -46.5 -6 0
235 -45 -6 0
236 -46.5 -4.5 0
237 -48 -4.5 0
238 -42 -9 0
239 -42 -12 0
240 -43.5 -6 0
241 -42 -6 0
242 -39 -9 0
243 -39 -12 0
244 -37.5 -9 0
245 -36 -12 0
246 -36 -9 0
247 -37.5 -7.5 0
248 -39 -7.5 0
249 -36 -7.5 0
250 -34.5 -9 0
251 -33 -12 0
252 -33 -9 0
253 -34.5 -7.5 0
254 -31.5 -9 0
255 -30 -12 0
256 -30 -9 0
257 -28.5 -9 0
258 -27 -12 0
259 -27 -9 0
260 -25.5 -9 0
261 -24 -12 0
262 -24 -9 0
263 -22.5 -9 0
264 -21 -12 0
265 -21 -9 0
266 -19.5 -9 0
267 -18 -12 0
268 -18 -9 0
269 -16.5 -9 0
270 -15 -12 0
271 -15 -9 0
272 -13.5 -9 0
273 -12 -12 0
274 -12 -9 0
275 -10.5 -9 0
276 -9 -12 0
277 -9 -9 0
278 -7.5 -9 0
279 -6 -12 0
280 -6 -9 0
281 -4.5 -9 0
282 -3 -12 0
283 -3 -9 0
284 -1.5 -9 0
285 0 -12 0
286 0 -9 0
287 1.5 -9 0
288 3 -12 0
289 3 -9 0
290 4.5 -9 0
291 6 -12 0
292 6 -9 0
293 7.5 -9 0
294 9 -12 0
295 9 -9 0
296 10.5 -9 0
297 12 -12 0
298 12 -9 0
299 13.5 -9 0
300 15 -12 0
301 15 -9 0
302 16.5 -9 0
303 18 -12 0
304 18 -9 0
305 19.5 -9 0
306 21 -12 0
307 21 -9 0
308 22.5 -9 0
309 24 -12 0
310 24 -9 0
311 25.5 -9 0
312 27 -12 0
313 27 -9 0
314 28.5 -9 0
315 30 -12 0
316 30 -9 0
317 31.5 -9 0
318 33 -12 0
319 33 -9 0
320 34.5 -9 0
321 36 -12 0
322 36 -9 0
323 37.5 -9 0
324 39 -12 0
325 39 -9 0
326 40.5 -9 0
327 42 -12 0
328 42 -9 0
329 40.5 -7.5 0
330 42 -7.5 0
331 43.5 -9 0
332 45 -12 0
333 45 -9 0
334 45 -6 0
335 43.5 -6 0
336 43.5 -7.5 0
337 45 -7.5 0
338 48 -9 0
339 48 -12 0
340 46.5 -6 0
341 48 -6 0
342 48 -4.5 0
343 46.5 -4.5 0
344 51 -9 0
345 51 -12 0
346 51 -6 0
347 54 -9 0
348 54 -12 0
349 54 -6 0
350 54 -3 0
351 51 -3 0
352 57 -9 0
353 57 -12 0
354 57 -6 0
355 57 -3 0
356 -33.47999954 -7.28000021 0
357 -32.18999863 -7.46999979 0
358 -29.61499977 -7.820000172 0
359 -25.75 -7.980000019 0
360 -27.04000092 -7.980000019 0
361 -24.46500015 -7.980000019 0
362 -28.32999992 -7.980000019 0
363 -30.89999962 -7.659999847 0
364 -23.18000031 -7.980000019 0
365 -20.60000038 -7.980000019 0
366 -21.88999939 -7.980000019 0
367 -19.31500053 -7.980000019 0
368 -16.73999977 -7.980000019 0
369 -18.03000069 -7.980000019 0
370 -14.16499996 -7.980000019 0
371 -15.44999981 -7.980000019 0
372 -11.59000015 -7.980000019 0
373 -12.88000011 -7.980000019 0
374 -9.015000343 -7.980000019 0
375 -10.30000019 -7.980000019 0
376 -7.730000019 -7.980000019 0
377 -6.440000057 -7.980000019 0
378 -2.579999924 -7.980000019 0
379 -3.86500001 -7.980000019 0
380 -1.289999962 -7.980000019 0
381 0 -7.980000019 0
382 -5.150000095 -7.980000019 0
383 -47.63999939 -3.190000057 0
384 -45.06499863 -4.244999886 0
385 -46.34999847 -3.75 0
386 -43.77999878 -4.739999771 0
387 -42.49000168 -5.199999809 0
388 -41.20000076 -5.659999847 0
389 -51.5 -1.429999948 0
390 -51.5 0 0
391 -48.93000031 -2.630000114 0
392 -50.21500015 -2.029999971 0
393 -38.63000107 -6.28000021 0
394 -37.34000015 -6.590000153 0
395 -36.04999924 -6.900000095 0
396 -39.91500092 -5.96999979 0
397 -34.76499939 -7.090000153 0
398 1.289999962 -7.980000019 0
399 3.86500001 -7.980000019 0
400 2.579999924 -7.980000019 0
401 6.440000057 -7.980000019 0
402 5.150000095 -7.980000019 0
403 7.730000019 -7.980000019 0
404 10.30000019 -7.980000019 0
405 9.015000343 -7.980000019 0
406 11.59000015 -7.980000019 0
407 12.88000011 -7.980000019 0
408 14.16499996 -7.980000019 0
409 16.73999977 -7.980000019 0
410 15.44999981 -7.980000019 0
411 19.31500053 -7.980000019 0
412 18.03000069 -7.980000019 0
413 21.88999939 -7.980000019 0
414 20.60000038 -7.980000019 0
415 25.75 -7.980000019 0
416 24.46500015 -7.980000019 0
417 27.04000092 -7.980000019 0
418 23.18000031 -7.980000019 0
419 28.32999992 -7.980000019 0
420 29.61499977 -7.980000019 0
421 30.89999962 -7.980000019 0
422 33.47999954 -7.980000019 0
423 32.18999863 -7.980000019 0
424 36.04999924 -7.980000019 0
425 34.76499939 -7.980000019 0
426 38.63000107 -7.320000172 0
427 37.34000015 -7.650000095 0
428 41.20000076 -6.659999847 0
429 39.91500092 -6.989999771 0
430 42.49000168 -6.119999886 0
431 43.77999878 -5.579999924 0
432 45.06499863 -4.824999809 0
433 46.34999847 -4.070000172 0
434 47.63999939 -3.150000095 0
435 48.93000031 -2.230000019 0
436 50.21500015 -1.11500001 0
437 54 0 0
438 51.5 0 0
439 57 0 0
440 57 -9 -7.5
441 57 -12 -7.5
442 57 -9 -5
443 57 -12 -5
444 57 -9 -2.5
445 57 -12 -2.5
446 57 -6 -7.5
447 57 -6 -5
448 57 -6 -2.5
449 57 -3 -7.5
450 57 -3 -5
451 57 -3 -2.5
452 57 0 -7.5
453 57 0 -5
454 57 0 -2.5
455 -54 -12 -7.5
456 -54 -12 -5
457 -54 -12 -2.5
458 -51 -12 -7.5
459 -51 -12 -5
460 -51 -12 -2.5
461 -48 -12 -7.5
462 -48 -12 -5
463 -48 -12 -2.5
464 -45 -12 -7.5
465 -45 -12 -5
466 -45 -12 -2.5
467 -42 -12 -7.5
468 -42 -12 -5
469 -42 -12 -2.5
470 -39 -12 -7.5
471 -39 -12 -5
472 -39 -12 -2.5
473 -36 -12 -7.5
474 -36 -12 -5
475 -36 -12 -2.5
476 -33 -12 -7.5
477 -33 -12 -5
478 -33 -12 -2.5
479 -30 -12 -7.5
480 -30 -12 -5
481 -30 -12 -2.5
482 -27 -12 -7.5
483 -27 -12 -5
484 -27 -12 -2.5
485 -24 -12 -7.5
486 -24 -12 -5
487 -24 -12 -2.5
488 -21 -12 -7.5
489 -21 -12 -5
490 -21 -12 -2.5
491 -18 -12 -7.5
492 -18 -12 -5
493 -18 -12 -2.5
494 -15 -12 -7.5
495 -15 -12 -5
496 -15 -12 -2.5
497 -12 -12 -7.5
498 -12 -12 -5
499 -12 -12 -2.5
500 -9 -12 -7.5
501 -9 -12 -5
502 -9 -12 -2.5
503 -6 -12 -7.5
504 -6 -12 -5
505 -6 -12 -2.5
506 -3 -12 -7.5
507 -3 -12 -5
508 -3 -12 -2.5
509 0 -12 -7.5
510 0 -12 -5
511 0 -12 -2.5
512 3 -12 -7.5
513 3 -12 -5
514 3 -12 -2.5
515 6 -12 -7.5
516 6 -12 -5
517 6 -12 -2.5
518 9 -12 -7.5
519 9 -12 -5
520 9 -12 -2.5
521 12 -12 -7.5
522 12 -12 -5
523 12 -12 -2.5
524 15 -12 -7.5
525 15 -12 -5
526 15 -12 -2.5
527 18 -12 -7.5
528 18 -12 -5
529 18 -12 -2.5
530 21 -12 -7.5
531 21 -12 -5
532 21 -12 -2.5
533 24 -12 -7.5
534 24 -12 -5
535 24 -12 -2.5
536 27 -12 -7.5
537 27 -12 -5
538 27 -12 -2.5
539 30 -12 -7.5
540 30 -12 -5
541 30 -12 -2.5
542 33 -12 -7.5
543 33 -12 -5
544 33 -12 -2.5
545 36 -12 -7.5
546 36 -12 -5
547 36 -12 -2.5
548 39 -12 -7.5
549 39 -12 -5
550 39 -12 -2.5
551 42 -12 -7.5
552 42 -12 -5
553 42 -12 -2.5
554 45 -12 -7.5
555 45 -12 -5
556 45 -12 -2.5
557 48 -12 -7.5
558 48 -12 -5
559 48 -12 -2.5
560 51 -12 -7.5
561 51 -12 -5
562 51 -12 -2.5
563 54 -12 -7.5
564 54 -12 -5
565 54 -12 -2.5
566 -57 9 -2.5
567 -57 12 -2.5
568 -57 12 0
569 -57 9 0
570 -57 9 -5
571 -57 12 -5
572 -57 9 -7.5
573 -57 12 -7.5
574 -57 9 -10
575 -57 12 -10
576 -57 6 -2.5
577 -57 6 0
578 -57 6 -5
579 -57 6 -7.5
580 -57 6 -10
581 -57 3 -2.5
582 -57 3 0
583 -57 3 -5
584 -57 3 -7.5
585 -57 3 -10
586 -54 3 -10
587 -54 6 -10
588 -54 9 -10
589 -54 12 -10
590 -51 3 -10
591 -51 6 -10
592 -51 9 -10
593 -51 12 -10
594 -48 3 -10
595 -48 6 -10
596 -48 9 -10
597 -48 12 -10
598 -45 3 -10
599 -45 6 -10
600 -45 9 -10
601 -45 12 -10
602 -42 3 -10
603 -42 6 -10
604 -42 9 -10
605 -42 12 -10
606 -39 3 -10
607 -39 6 -10
608 -39 9 -10
609 -39 12 -10
610 -36 3 -10
611 -36 6 -10
612 -36 9 -10
613 -36 12 -10
614 -33 3 -10
615 -33 6 -10
616 -33 9 -10
617 -33 12 -10
618 -30 3 -10
619 -30 6 -10
620 -30 9 -10
621 -30 12 -10
622 -27 3 -10
623 -27 6 -10
624 -27 9 -10
625 -27 12 -10
626 -24 3 -10
627 -24 6 -10
628 -24 9 -10
629 -24 12 -10
630 -21 3 -10
631 -21 6 -10
632 -21 9 -10
633 -21 12 -10
634 -18 3 -10
635 -18 6 -10
636 -18 9 -10
637 -18 12 -10
638 -15 3 -10
639 -15 6 -10
640 -15 9 -10
641 -15 12 -10
642 -12 3 -10
643 -12 6 -10
644 -12 9 -10
645 -12 12 -10
646 -9 3 -10
647 -9 6 -10
648 -9 9 -10
649 -9 12 -10
650 -6 3 -10
651 -6 6 -10
652 -6 9 -10
653 -6 12 -10
654 -3 3 -10
655 -3 6 -10
656 -3 9 -10
657 -3 12 -10
658 0 3 -10
659 0 6 -10
660 0 9 -10
661 0 12 -10
662 3 3 -10
663 3 6 -10
664 3 9 -10
665 3 12 -10
666 6 3 -10
667 6 6 -10
668 6 9 -10
669 6 12 -10
670 9 3 -10
671 9 6 -10
672 9 9 -10
673 9 12 -10
674 12 3 -10
675 12 6 -10
676 12 9 -10
677 12 12 -10
678 15 3 -10
679 15 6 -10
680 15 9 -10
681 15 12 -10
682 18 3 -10
683 18 6 -10
684 18 9 -10
685 18 12 -10
686 21 3 -10
687 21 6 -10
688 21 9 -10
689 21 12 -10
690 24 3 -10
691 24 6 -10
692 24 9 -10
693 24 12 -10
694 27 3 -10
695 27 6 -10
696 27 9 -10
697 27 12 -10
698 30 3 -10
699 30 6 -10
700 30 9 -10
701 30 12 -10
702 33 3 -10
703 33 6 -10
704 33 9 -10
705 33 12 -10
706 36 3 -10
707 36 6 -10
708 36 9 -10
709 36 12 -10
710 39 3 -10
711 39 6 -10
712 39 9 -10
713 39 12 -10
714 42 3 -10
715 42 6 -10
716 42 9 -10
717 42 12 -10
718 45 3 -10
719 45 6 -10
720 45 9 -10
721 45 12 -10
722 48 3 -10
723 48 6 -10
724 48 9 -10
725 48 12 -10
726 51 3 -10
727 51 6 -10
728 51 9 -10
729 51 12 -10
730 54 3 -10
731 54 6 -10
732 54 9 -10
733 54 12 -10
734 57 3 -10
735 57 6 -10
736 57 9 -10
737 57 12 -10
738 -54 9 0
739 -54 12 0
740 -54 6 0
741 -54 3 0
742 -54 1.5 0
743 -51 9 0
744 -51 12 0
745 -51 6 0
746 -52.5 3 0
747 -51 3 0
748 -52.5 1.5 0
749 -48 9 0
750 -48 12 0
751 -48 6 0
752 -45 9 0
753 -45 12 0
754 -46.5 6 0
755 -45 6 0
756 -46.5 4.5 0
757 -48 4.5 0
758 -42 9 0
759 -42 12 0
760 -43.5 6 0
761 -42 6 0
762 -39 9 0
763 -39 12 0
764 -37.5 9 0
765 -36 12 0
766 -36 9 0
767 -37.5 7.5 0
768 -39 7.5 0
769 -36 7.5 0
770 -34.5 9 0
771 -33 12 0
772 -33 9 0
773 -34.5 7.5 0
774 -31.5 9 0
775 -30 12 0
776 -30 9 0
777 -28.5 9 0
778 -27 12 0
779 -27 9 0
780 -25.5 9 0
781 -24 12 0
782 -24 9 0
783 -22.5 9 0
784 -21 12 0
785 -21 9 0
786 -19.5 9 0
787 -18 12 0
788 -18 9 0
789 -16.5 9 0
790 -15 12 0
791 -15 9 0
792 -13.5 9 0
793 -12 12 0
794 -12 9 0
795 -10.5 9 0
796 -9 12 0
797 -9 9 0
798 -7.5 9 0
799 -6 12 0
800 -6 9 0
801 -4.5 9 0
802 -3 12 0
803 -3 9 0
804 -1.5 9 0
805 0 12 0
806 0 9 0
807 1.5 9 0
808 3 12 0
809 3 9 0
810 4.5 9 0
811 6 12 0
812 6 9 0
813 7.5 9 0
814 9 12 0
815 9 9 0
816 10.5 9 0
817 12 12 0
818 12 9 0
819 13.5 9 0
820 15 12 0
821 15 9 0
822 16.5 9 0
823 18 12 0
824 18 9 0
825 19.5 9 0
826 21 12 0
827 21 9 0
828 22.5 9 0
829 24 12 0
830 24 9 0
831 25.5 9 0
832 27 12 0
833 27 9 0
834 28.5 9 0
835 30 12 0
836 30 9 0
837 31.5 9 0
838 33 12 0
839 33 9 0
840 34.5 9 0
841 36 12 0
842 36 9 0
843 37.5 9 0
844 39 12 0
845 39 9 0
846 40.5 9 0
847 42 12 0
848 42 9 0
849 40.5 7.5 0
850 42 7.5 0
851 43.5 9 0
852 45 12 0
853 45 9 0
854 45 6 0
855 43.5 6 0
856 43.5 7.5 0
857 45 7.5 0
858 48 9 0
859 48 12 0
860 46.5 6 0
861 48 6 0
862 48 4.5 0
863 46.5 4.5 0
864 51 9 0
865 51 12 0
866 51 6 0
867 54 9 0
868 54 12 0
869 54 6 0
870 54 3 0
871 51 3 0
872 57 9 0
873 57 12 0
874 57 6 0
875 57 3 0
876 -33.47999954 7.28000021 0
877 -32.18999863 7.46999979 0
878 -29.61499977 7.820000172 0
879 -25.75 7.980000019 0
880 -27.04000092 7.980000019 0
881 -24.46500015 7.980000019 0
882 -28.32999992 7.980000019 0
883 -30.89999962 7.659999847 0
884 -23.18000031 7.980000019 0
885 -20.60000038 7.980000019 0
886 -21.88999939 7.980000019 0
887 -19.31500053 7.980000019 0
888 -16.73999977 7.980000019 0
889 -18.03000069 7.980000019 0
890 -14.16499996 7.980000019 0
891 -15.44999981 7.980000019 0
892 -11.59000015 7.980000019 0
893 -12.88000011 7.980000019 0
894 -9.015000343 7.980000019 0
895 -10.30000019 7.980000019 0
896 -7.730000019 7.980000019 0
897 -6.440000057 7.980000019 0
898 -2.579999924 7.980000019 0
899 -3.86500001 7.980000019 0
900 -1.289999962 7.980000019 0
901 0 7.980000019 0
902 -5.150000095 7.980000019 0
903 -47.63999939 3.190000057 0
904 -45.06499863 4.244999886 0
905 -46.34999847 3.75 0
906 -43.77999878 4.739999771 0
907 -42.49000168 5.199999809 0
908 -41.20000076 5.659999847 0
909 -51.5 1.429999948 0
910 -48.93000031 2.630000114 0
911 -50.21500015 2.029999971 0
912 -38.63000107 6.28000021 0
913 -37.34000015 6.590000153 0
914 -36.04999924 6.900000095 0
915 -39.91500092 5.96999979 0
916 -34.76499939 7.090000153 0
917 1.289999962 7.980000019 0
918 3.86500001 7.980000019 0
919 2.579999924 7.980000019 0
920 6.440000057 7.980000019 0
921 5.150000095 7.980000019 0
922 7.730000019 7.980000019 0
923 10.30000019 7.980000019 0
924 9.015000343 7.980000019 0
925 11.59000015 7.980000019 0
926 12.88000011 7.980000019 0
927 14.16499996 7.980000019 0
928 16.73999977 7.980000019 0
929 15.44999981 7.980000019 0
930 19.31500053 7.980000019 0
931 18.03000069 7.980000019 0
932 21.88999939 7.980000019 0
933 20.60000038 7.980000019 0
934 25.75 7.980000019 0
935 24.46500015 7.980000019 0
936 27.04000092 7.980000019 0
937 23.18000031 7.980000019 0
938 28.32999992 7.980000019 0
939 29.61499977 7.980000019 0
940 30.89999962 7.980000019 0
941 33.47999954 7.980000019 0
942 32.18999863 7.980000019 0
943 36.04999924 7.980000019 0
944 34.76499939 7.980000019 0
945 38.63000107 7.320000172 0
946 37.34000015 7.650000095 0
947 41.20000076 6.659999847 0
948 39.91500092 6.989999771 0
949 42.49000168 6.119999886 0
950 43.77999878 5.579999924 0
951 45.06499863 4.824999809 0
952 46.34999847 4.070000172 0
953 47.63999939 3.150000095 0
954 48.93000031 2.230000019 0
955 50.21500015 1.11500001 0
956 57 9 -7.5
957 57 12 -7.5
958 57 9 -5
959 57 12 -5
960 57 9 -2.5
961 57 12 -2.5
962 57 6 -7.5
963 57 6 -5
964 57 6 -2.5
965 57 3 -7.5
966 57 3 -5
967 57 3 -2.5
968 -54 12 -7.5
969 -54 12 -5
970 -54 12 -2.5
971 -51 12 -7.5
972 -51 12 -5
973 -51 12 -2.5
974 -48 12 -7.5
975 -48 12 -5
976 -48 12 -2.5
977 -45 12 -7.5
978 -45 12 -5
979 -45 12 -2.5
980 -42 12 -7.5
981 -42 12 -5
982 -42 12 -2.5
983 -39 12 -7.5
984 -39 12 -5
985 -39 12 -2.5
986 -36 12 -7.5
987 -36 12 -5
988 -36 12 -2.5
989 -33 12 -7.5
990 -33 12 -5
991 -33 12 -2.5
992 -30 12 -7.5
993 -30 12 -5
994 -30 12 -2.5
995 -27 12 -7.5
996 -27 12 -5
997 -27 12 -2.5
998 -24 12 -7.5
999 -24 12 -5
1000 -24 12 -2.5
1001 -21 12 -7.5
1002 -21 12 -5
1003 -21 12 -2.5
1004 -18 12 -7.5
1005 -18 12 -5
1006 -18 12 -2.5
1007 -15 12 -7.5
1008 -15 12 -5
1009 -15 12 -2.5
1010 -12 12 -7.5
1011 -12 12 -5
1012 -12 12 -2.5
1013 -9 12 -7.5
1014 -9 12 -5
1015 -9 12 -2.5
1016 -6 12 -7.5
1017 -6 12 -5
1018 -6 12 -2.5
1019 -3 12 -7.5
1020 -3 12 -5
1021 -3 12 -2.5
1022 0 12 -7.5
1023 0 12 -5
1024 0 12 -2.5
1025 3 12 -7.5
1026 3 12 -5
1027 3 12 -2.5
1028 6 12 -7.5
1029 6 12 -5
1030 6 12 -2.5
1031 9 12 -7.5
1032 9 12 -5
1033 9 12 -2.5
1034 12 12 -7.5
1035 12 12 -5
1036 12 12 -2.5
1037 15 12 -7.5
1038 15 12 -5
1039 15 12 -2.5
1040 18 12 -7.5
1041 18 12 -5
1042 18 12 -2.5
1043 21 12 -7.5
1044 21 12 -5
1045 21 12 -2.5
1046 24 12 -7.5
1047 24 12 -5
1048 24 12 -2.5
1049 27 12 -7.5
1050 27 12 -5
1051 27 12 -2.5
1052 30 12 -7.5
1053 30 12 -5
1054 30 12 -2.5
1055 33 12 -7.5
1056 33 12 -5
1057 33 12 -2.5
1058 36 12 -7.5
1059 36 12 -5
1060 36 12 -2.5
1061 39 12 -7.5
1062 39 12 -5
1063 39 12 -2.5
1064 42 12 -7.5
1065 42 12 -5
1066 42 12 -2.5
1067 45 12 -7.5
1068 45 12 -5
1069 45 12 -2.5
1070 48 12 -7.5
1071 48 12 -5
1072 48 12 -2.5
1073 51 12 -7.5
1074 51 12 -5
1075 51 12 -2.5
1076 54 12 -7.5
1077 54 12 -5
1078 54 12 -2.5
$EndNodes
$Elements
2348
1 2 2 1 1 1 2 3
2 2 2 1 1 1 3 4
3 2 2 1 1 5 6 2
4 2 2 1 1 5 2 1
5 2 2 1 1 7 8 6
6 2 2 1 1 7 6 5
7 2 2 1 1 9 10 8
8 2 2 1 1 9 8 7
9 2 2 1 1 11 1 4
10 2 2 1 1 11 4 12
11 2 2 1 1 13 5 1
12 2 2 1 1 13 1 11
13 2 2 1 1 14 7 5
14 2 2 1 1 14 5 13
15 2 2 1 1 15 9 7
16 2 2 1 1 15 7 14
17 2 2 1 1 16 11 12
18 2 2 1 1 16 12 17
19 2 2 1 1 18 13 11
20 2 2 1 1 18 11 16
21 2 2 1 1 19 14 13
22 2 2 1 1 19 13 18
23 2 2 1 1 20 15 14
24 2 2 1 1 20 14 19
25 2 2 1 1 21 16 17
26 2 2 1 1 21 17 22
27 2 2 1 1 23 18 16
28 2 2 1 1 23 16 21
29 2 2 1 1 24 19 18
30 2 2 1 1 24 18 23
31 2 2 1 1 25 20 19
32 2 2 1 1 25 19 24
33 2 2 1 1 26 20 25
34 2 2 1 1 26 25 27
35 2 2 1 1 28 15 20
36 2 2 1 1 28 20 26
37 2 2 1 1 29 9 15
38 2 2 1 1 29 15 28
39 2 2 1 1 30 10 9
40 2 2 1 1 30 9 29
41 2 2 1 1 31 26 27
42 2 2 1 1 31 27 32
43 2 2 1 1 33 28 26
44 2 2 1 1 33 26 31
45 2 2 1 1 34 29 28
46 2 2 1 1 34 28 33
47 2 2 1 1 35 30 29
48 2 2 1 1 35 29 34
49 2 2 1 1 36 31 32
50 2 2 1 1 36 32 37
51 2 2 1 1 38 33 31
52 2 2 1 1 38 31 36
53 2 2 1 1 39 34 33
54 2 2 1 1 39 33 38
55 2 2 1 1 40 35 34
56 2 2 1 1 40 34 39
57 2 2 1 1 41 36 37
58 2 2 1 1 41 37 42
59 2 2 1 1 43 38 36
60 2 2 1 1 43 36 41
61 2 2 1 1 44 39 38
62 2 2 1 1 44 38 43
63 2 2 1 1 45 40 39
64 2 2 1 1 45 39 44
65 2 2 1 1 46 41 42
66 2 2 1 1 46 42 47
67 2 2 1 1 48 43 41
68 2 2 1 1 48 41 46
69 2 2 1 1 49 44 43
70 2 2 1 1 49 43 48
71 2 2 1 1 50 45 44
72 2 2 1 1 50 44 49
73 2 2 1 1 51 46 47
74 2 2 1 1 51 47 52
75 2 2 1 1 53 48 46
76 2 2 1 1 53 46 51
77 2 2 1 1 54 49 48
78 2 2 1 1 54 48 53
79 2 2 1 1 55 50 49
80 2 2 1 1 55 49 54
81 2 2 1 1 56 51 52
82 2 2 1 1 56 52 57
83 2 2 1 1 58 53 51
84 2 2 1 1 58 51 56
85 2 2 1 1 59 54 53
86 2 2 1 1 59 53 58
87 2 2 1 1 60 55 54
88 2 2 1 1 60 54 59
89 2 2 1 1 61 56 57
90 2 2 1 1 61 57 62
91 2 2 1 1 63 58 56
92 2 2 1 1 63 56 61
93 2 2 1 1 64 59 58
94 2 2 1 1 64 58 63
95 2 2 1 1 65 60 59
96 2 2 1 1 65 59 64
97 2 2 1 1 66 61 62
98 2 2 1 1 66 62 67
99 2 2 1 1 68 63 61
100 2 2 1 1 68 61 66
101 2 2 1 1 69 64 63
102 2 2 1 1 69 63 68
103 2 2 1 1 70 65 64
104 2 2 1 1 70 64 69
105 2 2 1 1 71 66 67
106 2 2 1 1 71 67 72
107 2 2 1 1 73 68 66
108 2 2 1 1 73 66 71
109 2 2 1 1 74 69 68
110 2 2 1 1 74 68 73
111 2 2 1 1 75 70 69
112 2 2 1 1 75 69 74
113 2 2 1 1 76 71 72
114 2 2 1 1 76 72 77
115 2 2 1 1 78 73 71
116 2 2 1 1 78 71 76
117 2 2 1 1 79 74 73
118 2 2 1 1 79 73 78
119 2 2 1 1 80 75 74
120 2 2 1 1 80 74 79
121 2 2 1 1 81 76 77
122 2 2 1 1 81 77 82
123 2 2 1 1 83 78 76
124 2 2 1 1 83 76 81
125 2 2 1 1 84 79 78
126 2 2 1 1 84 78 83
127 2 2 1 1 85 80 79
128 2 2 1 1 85 79 84
129 2 2 1 1 86 81 82
130 2 2 1 1 86 82 87
131 2 2 1 1 88 83 81
132 2 2 1 1 88 81 86
133 2 2 1 1 89 84 83
134 2 2 1 1 89 83 88
135 2 2 1 1 90 85 84
136 2 2 1 1 90 84 89
137 2 2 1 1 91 86 87
138 2 2 1 1 91 87 92
139 2 2 1 1 93 88 86
140 2 2 1 1 93 86 91
141 2 2 1 1 94 89 88
142 2 2 1 1 94 88 93
143 2 2 1 1 95 90 89
144 2 2 1 1 95 89 94
145 2 2 1 1 96 91 92
146 2 2 1 1 96 92 97
147 2 2 1 1 98 93 91
148 2 2 1 1 98 91 96
149 2 2 1 1 99 94 93
150 2 2 1 1 99 93 98
151 2 2 1 1 100 95 94
152 2 2 1 1 100 94 99
153 2 2 1 1 101 96 97
154 2 2 1 1 101 97 102
155 2 2 1 1 103 98 96
156 2 2 1 1 103 96 101
157 2 2 1 1 104 99 98
158 2 2 1 1 104 98 103
159 2 2 1 1 105 100 99
160 2 2 1 1 105 99 104
161 2 2 1 1 106 101 102
162 2 2 1 1 106 102 107
163 2 2 1 1 108 103 101
164 2 2 1 1 108 101 106
165 2 2 1 1 109 104 103
166 2 2 1 1 109 103 108
167 2 2 1 1 110 105 104
168 2 2 1 1 110 104 109
169 2 2 1 1 111 106 107
170 2 2 1 1 111 107 112
171 2 2 1 1 113 108 106
172 2 2 1 1 113 106 111
173 2 2 1 1 114 109 108
174 2 2 1 1 114 108 113
175 2 2 1 1 115 110 109
176 2 2 1 1 115 109 114
177 2 2 1 1 116 111 112
178 2 2 1 1 116 112 117
179 2 2 1 1 118 113 111
180 2 2 1 1 118 111 116
181 2 2 1 1 119 114 113
182 2 2 1 1 119 113 118
183 2 2 1 1 120 115 114
184 2 2 1 1 120 114 119
185 2 2 1 1 121 116 117
186 2 2 1 1 121 117 122
187 2 2 1 1 123 118 116
188 2 2 1 1 123 116 121
189 2 2 1 1 124 119 118
190 2 2 1 1 124 118 123
191 2 2 1 1 125 120 119
192 2 2 1 1 125 119 124
193 2 2 1 1 126 121 122
194 2 2 1 1 126 122 127
195 2 2 1 1 128 123 121
196 2 2 1 1 128 121 126
197 2 2 1 1 129 124 123
198 2 2 1 1 129 123 128
199 2 2 1 1 130 125 124
200 2 2 1 1 130 124 129
201 2 2 1 1 131 126 127
202 2 2 1 1 131 127 132
203 2 2 1 1 133 128 126
204 2 2 1 1 133 126 131
205 2 2 1 1 134 129 128
206 2 2 1 1 134 128 133
207 2 2 1 1 135 130 129
208 2 2 1 1 135 129 134
209 2 2 1 1 136 131 132
210 2 2 1 1 136 132 137
211 2 2 1 1 138 133 131
212 2 2 1 1 138 131 136
213 2 2 1 1 139 134 133
214 2 2 1 1 139 133 138
215 2 2 1 1 140 135 134
216 2 2 1 1 140 134 139
217 2 2 1 1 141 136 137
218 2 2 1 1 141 137 142
219 2 2 1 1 143 138 136
220 2 2 1 1 143 136 141
221 2 2 1 1 144 139 138
222 2 2 1 1 144 138 143
223 2 2 1 1 145 140 139
224 2 2 1 1 145 139 144
225 2 2 1 1 146 141 142
226 2 2 1 1 146 142 147
227 2 2 1 1 148 143 141
228 2 2 1 1 148 141 146
229 2 2 1 1 149 144 143
230 2 2 1 1 149 143 148
231 2 2 1 1 150 145 144
232 2 2 1 1 150 144 149
233 2 2 1 1 151 146 147
234 2 2 1 1 151 147 152
235 2 2 1 1 153 148 146
236 2 2 1 1 153 146 151
237 2 2 1 1 154 149 148
238 2 2 1 1 154 148 153
239 2 2 1 1 155 150 149
240 2 2 1 1 155 149 154
241 2 2 1 1 156 151 152
242 2 2 1 1 156 152 157
243 2 2 1 1 158 153 151
244 2 2 1 1 158 151 156
245 2 2 1 1 159 154 153
246 2 2 1 1 159 153 158
247 2 2 1 1 160 155 154
248 2 2 1 1 160 154 159
249 2 2 1 1 161 156 157
250 2 2 1 1 161 157 162
251 2 2 1 1 163 158 156
252 2 2 1 1 163 156 161
253 2 2 1 1 164 159 158
254 2 2 1 1 164 158 163
255 2 2 1 1 165 160 159
256 2 2 1 1 165 159 164
257 2 2 1 1 166 161 162
258 2 2 1 1 166 162 167
259 2 2 1 1 168 163 161
260 2 2 1 1 168 161 166
261 2 2 1 1 169 164 163
262 2 2 1 1 169 163 168
263 2 2 1 1 170 165 164
264 2 2 1 1 170 164 169
265 2 2 1 1 171 166 167
266 2 2 1 1 171 167 172
267 2 2 1 1 173 168 166
268 2 2 1 1 173 166 171
269 2 2 1 1 174 169 168
270 2 2 1 1 174 168 173
271 2 2 1 1 175 170 169
272 2 2 1 1 175 169 174
273 2 2 1 1 176 171 172
274 2 2 1 1 176 172 177
275 2 2 1 1 178 173 171
276 2 2 1 1 178 171 176
277 2 2 1 1 179 174 173
278 2 2 1 1 179 173 178
279 2 2 1 1 180 175 174
280 2 2 1 1 180 174 179
281 2 2 1 1 181 176 177
282 2 2 1 1 181 177 182
283 2 2 1 1 183 178 176
284 2 2 1 1 183 176 181
285 2 2 1 1 184 179 178
286 2 2 1 1 184 178 183
287 2 2 1 1 185 180 179
288 2 2 1 1 185 179 184
289 2 2 1 1 186 181 182
290 2 2 1 1 186 182 187
291 2 2 1 1 188 183 181
292 2 2 1 1 188 181 186
293 2 2 1 1 189 184 183
294 2 2 1 1 189 183 188
295 2 2 1 1 190 185 184
296 2 2 1 1 190 184 189
297 2 2 1 1 191 186 187
298 2 2 1 1 191 187 192
299 2 2 1 1 193 188 186
300 2 2 1 1 193 186 191
301 2 2 1 1 194 189 188
302 2 2 1 1 194 188 193
303 2 2 1 1 195 190 189
304 2 2 1 1 195 189 194
305 2 2 1 1 196 191 192
306 2 2 1 1 196 192 197
307 2 2 1 1 198 193 191
308 2 2 1 1 198 191 196
309 2 2 1 1 199 194 193
310 2 2 1 1 199 193 198
311 2 2 1 1 200 195 194
312 2 2 1 1 200 194 199
313 2 2 1 1 201 196 197
314 2 2 1 1 201 197 202
315 2 2 1 1 203 198 196
316 2 2 1 1 203 196 201
317 2 2 1 1 204 199 198
318 2 2 1 1 204 198 203
319 2 2 1 1 205 200 199
320 2 2 1 1 205 199 204
321 2 2 1 1 206 201 202
322 2 2 1 1 206 202 207
323 2 2 1 1 208 203 201
324 2 2 1 1 208 201 206
325 2 2 1 1 209 204 203
326 2 2 1 1 209 203 208
327 2 2 1 1 210 205 204
328 2 2 1 1 210 204 209
329 2 2 1 1 211 206 207
330 2 2 1 1 211 207 212
331 2 2 1 1 213 208 206
332 2 2 1 1 213 206 211
333 2 2 1 1 214 209 208
334 2 2 1 1 214 208 213
335 2 2 1 1 215 210 209
336 2 2 1 1 215 209 214
337 2 2 1 1 216 4 3
338 2 2 1 1 216 3 217
339 2 2 1 1 218 12 4
340 2 2 1 1 218 4 216
341 2 2 1 1 219 17 12
342 2 2 1 1 219 12 218
343 2 2 1 1 220 221 22
344 2 2 1 1 220 22 22
345 2 2 1 1 17 219 220
346 2 2 1 1 17 220 220
347 2 2 1 1 22 17 220
348 2 2 1 1 22 220 220
349 2 2 1 1 222 216 217
350 2 2 1 1 222 217 223
351 2 2 1 1 224 218 216
352 2 2 1 1 224 216 222
353 2 2 1 1 225 219 218
354 2 2 1 1 225 218 218
355 2 2 1 1 224 226 225
356 2 2 1 1 224 225 225
357 2 2 1 1 218 224 225
358 2 2 1 1 218 225 225
359 2 2 1 1 227 221 220
360 2 2 1 1 227 220 228
361 2 2 1 1 228 220 219
362 2 2 1 1 228 219 225
363 2 2 1 1 229 222 223
364 2 2 1 1 229 223 230
365 2 2 1 1 231 224 222
366 2 2 1 1 231 222 229
367 2 2 1 1 232 229 230
368 2 2 1 1 232 230 233
369 2 2 1 1 234 231 229
370 2 2 1 1 234 229 229
371 2 2 1 1 232 235 234
372 2 2 1 1 232 234 234
373 2 2 1 1 229 232 234
374 2 2 1 1 229 234 234
375 2 2 1 1 236 237 231
376 2 2 1 1 236 231 234
377 2 2 1 1 236 234 235
378 2 2 1 1 236 235 235
379 2 2 1 1 238 232 233
380 2 2 1 1 238 233 239
381 2 2 1 1 240 235 232
382 2 2 1 1 240 232 232
383 2 2 1 1 238 241 240
384 2 2 1 1 238 240 240
385 2 2 1 1 232 238 240
386 2 2 1 1 232 240 240
387 2 2 1 1 242 238 239
388 2 2 1 1 242 239 243
389 2 2 1 1 244 242 243
390 2 2 1 1 244 243 243
391 2 2 1 1 245 246 244
392 2 2 1 1 245 244 244
393 2 2 1 1 243 245 244
394 2 2 1 1 243 244 244
395 2 2 1 1 247 248 242
396 2 2 1 1 247 242 244
397 2 2 1 1 249 247 244
398 2 2 1 1 249 244 246
399 2 2 1 1 250 246 245
400 2 2 1 1 250 245 245
401 2 2 1 1 251 252 250
402 2 2 1 1 251 250 250
403 2 2 1 1 245 251 250
404 2 2 1 1 245 250 250
405 2 2 1 1 253 249 246
406 2 2 1 1 253 246 250
407 2 2 1 1 254 252 251
408 2 2 1 1 254 251 251
409 2 2 1 1 255 256 254
410 2 2 1 1 255 254 254
411 2 2 1 1 251 255 254
412 2 2 1 1 251 254 254
413 2 2 1 1 257 256 255
414 2 2 1 1 257 255 255
415 2 2 1 1 258 259 257
416 2 2 1 1 258 257 257
417 2 2 1 1 255 258 257
418 2 2 1 1 255 257 257
419 2 2 1 1 260 259 258
420 2 2 1 1 260 258 258
421 2 2 1 1 261 262 260
422 2 2 1 1 261 260 260
423 2 2 1 1 258 261 260
424 2 2 1 1 258 260 260
425 2 2 1 1 263 262 261
426 2 2 1 1 263 261 261
427 2 2 1 1 264 265 263
428 2 2 1 1 264 263 263
429 2 2 1 1 261 264 263
430 2 2 1 1 261 263 263
431 2 2 1 1 266 265 264
432 2 2 1 1 266 264 264
433 2 2 1 1 267 268 266
434 2 2 1 1 267 266 266
435 2 2 1 1 264 267 266
436 2 2 1 1 264 266 266
437 2 2 1 1 269 268 267
438 2 2 1 1 269 267 267
439 2 2 1 1 270 271 269
440 2 2 1 1 270 269 269
441 2 2 1 1 267 270 269
442 2 2 1 1 267 269 269
443 2 2 1 1 272 271 270
444 2 2 1 1 272 270 270
445 2 2 1 1 273 274 272
446 2 2 1 1 273 272 272
447 2 2 1 1 270 273 272
448 2 2 1 1 270 272 272
449 2 2 1 1 275 274 273
450 2 2 1 1 275 273 273
451 2 2 1 1 276 277 275
452 2 2 1 1 276 275 275
453 2 2 1 1 273 276 275
454 2 2 1 1 273 275 275
455 2 2 1 1 278 277 276
456 2 2 1 1 278 276 276
457 2 2 1 1 279 280 278
458 2 2 1 1 279 278 278
459 2 2 1 1 276 279 278
460 2 2 1 1 276 278 278
461 2 2 1 1 281 280 279
462 2 2 1 1 281 279 279
463 2 2 1 1 282 283 281
464 2 2 1 1 282 281 281
465 2 2 1 1 279 282 281
466 2 2 1 1 279 281 281
467 2 2 1 1 284 283 282
468 2 2 1 1 284 282 282
469 2 2 1 1 285 286 284
470 2 2 1 1 285 284 284
471 2 2 1 1 282 285 284
472 2 2 1 1 282 284 284
473 2 2 1 1 287 286 285
474 2 2 1 1 287 285 285
475 2 2 1 1 288 289 287
476 2 2 1 1 288 287 287
477 2 2 1 1 285 288 287
478 2 2 1 1 285 287 287
479 2 2 1 1 290 289 288
480 2 2 1 1 290 288 288
481 2 2 1 1 291 292 290
482 2 2 1 1 291 290 290
483 2 2 1 1 288 291 290
484 2 2 1 1 288 290 290
485 2 2 1 1 293 292 291
486 2 2 1 1 293 291 291
487 2 2 1 1 294 295 293
488 2 2 1 1 294 293 293
489 2 2 1 1 291 294 293
490 2 2 1 1 291 293 293
491 2 2 1 1 296 295 294
492 2 2 1 1 296 294 294
493 2 2 1 1 297 298 296
494 2 2 1 1 297 296 296
495 2 2 1 1 294 297 296
496 2 2 1 1 294 296 296
497 2 2 1 1 299 298 297
498 2 2 1 1 299 297 297
499 2 2 1 1 300 301 299
500 2 2 1 1 300 299 299
501 2 2 1 1 297 300 299
502 2 2 1 1 297 299 299
503 2 2 1 1 302 301 300
504 2 2 1 1 302 300 300
505 2 2 1 1 303 304 302
506 2 2 1 1 303 302 302
507 2 2 1 1 300 303 302
508 2 2 1 1 300 302 302
509 2 2 1 1 305 304 303
510 2 2 1 1 305 303 303
511 2 2 1 1 306 307 305
512 2 2 1 1 306 305 305
513 2 2 1 1 303 306 305
514 2 2 1 1 303 305 305
515 2 2 1 1 308 307 306
516 2 2 1 1 308 306 306
517 2 2 1 1 309 310 308
518 2 2 1 1 309 308 308
519 2 2 1 1 306 309 308
520 2 2 1 1 306 308 308
521 2 2 1 1 311 310 309
522 2 2 1 1 311 309 309
523 2 2 1 1 312 313 311
524 2 2 1 1 312 311 311
525 2 2 1 1 309 312 311
526 2 2 1 1 309 311 311
527 2 2 1 1 314 313 312
528 2 2 1 1 314 312 312
529 2 2 1 1 315 316 314
530 2 2 1 1 315 314 314
531 2 2 1 1 312 315 314
532 2 2 1 1 312 314 314
533 2 2 1 1 317 316 315
534 2 2 1 1 317 315 315
535 2 2 1 1 318 319 317
536 2 2 1 1 318 317 317
537 2 2 1 1 315 318 317
538 2 2 1 1 315 317 317
539 2 2 1 1 320 319 318
540 2 2 1 1 320 318 318
541 2 2 1 1 321 322 320
542 2 2 1 1 321 320 320
543 2 2 1 1 318 321 320
544 2 2 1 1 318 320 320
545 2 2 1 1 323 322 321
546 2 2 1 1 323 321 321
547 2 2 1 1 324 325 323
548 2 2 1 1 324 323 323
549 2 2 1 1 321 324 323
550 2 2 1 1 321 323 323
551 2 2 1 1 326 325 324
552 2 2 1 1 326 324 324
553 2 2 1 1 327 328 326
554 2 2 1 1 327 326 326
555 2 2 1 1 324 327 326
556 2 2 1 1 324 326 326
557 2 2 1 1 325 326 329
558 2 2 1 1 325 329 329
559 2 2 1 1 330 329 326
560 2 2 1 1 330 326 328
561 2 2 1 1 331 328 327
562 2 2 1 1 331 327 327
563 2 2 1 1 332 333 331
564 2 2 1 1 332 331 331
565 2 2 1 1 327 332 331
566 2 2 1 1 327 331 331
567 2 2 1 1 334 335 336
568 2 2 1 1 334 336 337
569 2 2 1 1 336 330 328
570 2 2 1 1 336 328 331
571 2 2 1 1 337 336 331
572 2 2 1 1 337 331 333
573 2 2 1 1 338 333 332
574 2 2 1 1 338 332 339
575 2 2 1 1 340 334 337
576 2 2 1 1 340 337 337
577 2 2 1 1 337 333 338
578 2 2 1 1 337 338 338
579 2 2 1 1 338 341 340
580 2 2 1 1 338 340 340
581 2 2 1 1 340 337 338
582 2 2 1 1 340 338 338
583 2 2 1 1 342 343 340
584 2 2 1 1 342 340 341
585 2 2 1 1 344 338 339
586 2 2 1 1 344 339 345
587 2 2 1 1 346 341 338
588 2 2 1 1 346 338 344
589 2 2 1 1 347 344 345
590 2 2 1 1 347 345 348
591 2 2 1 1 349 346 344
592 2 2 1 1 349 344 347
593 2 2 1 1 350 351 346
594 2 2 1 1 350 346 349
595 2 2 1 1 352 347 348
596 2 2 1 1 352 348 353
597 2 2 1 1 354 349 347
598 2 2 1 1 354 347 352
599 2 2 1 1 355 350 349
600 2 2 1 1 355 349 354
601 2 2 1 1 242 248 238
602 2 2 1 1 242 238 238
603 2 2 1 1 252 356 250
604 2 2 1 1 252 250 250
605 2 2 1 1 254 357 252
606 2 2 1 1 254 252 252
607 2 2 1 1 257 358 256
608 2 2 1 1 257 256 256
609 2 2 1 1 259 260 359
610 2 2 1 1 259 359 360
611 2 2 1 1 260 262 361
612 2 2 1 1 260 361 359
613 2 2 1 1 257 259 360
614 2 2 1 1 257 360 362
615 2 2 1 1 256 363 254
616 2 2 1 1 256 254 254
617 2 2 1 1 364 361 262
618 2 2 1 1 364 262 262
619 2 2 1 1 263 265 365
620 2 2 1 1 263 365 366
621 2 2 1 1 265 266 367
622 2 2 1 1 265 367 365
623 2 2 1 1 364 263 366
624 2 2 1 1 364 366 366
625 2 2 1 1 364 262 263
626 2 2 1 1 364 263 263
627 2 2 1 1 358 257 362
628 2 2 1 1 358 362 362
629 2 2 1 1 268 269 368
630 2 2 1 1 268 368 369
631 2 2 1 1 271 272 370
632 2 2 1 1 271 370 371
633 2 2 1 1 272 274 372
634 2 2 1 1 272 372 373
635 2 2 1 1 269 271 371
636 2 2 1 1 269 371 368
637 2 2 1 1 275 277 374
638 2 2 1 1 275 374 375
639 2 2 1 1 277 278 376
640 2 2 1 1 277 376 374
641 2 2 1 1 278 280 377
642 2 2 1 1 278 377 376
643 2 2 1 1 274 275 375
644 2 2 1 1 274 375 372
645 2 2 1 1 369 367 266
646 2 2 1 1 369 266 268
647 2 2 1 1 281 283 378
648 2 2 1 1 281 378 379
649 2 2 1 1 283 284 380
650 2 2 1 1 283 380 378
651 2 2 1 1 284 286 381
652 2 2 1 1 284 381 380
653 2 2 1 1 272 373 370
654 2 2 1 1 272 370 370
655 2 2 1 1 280 281 382
656 2 2 1 1 280 382 377
657 2 2 1 1 237 224 231
658 2 2 1 1 237 231 231
659 2 2 1 1 236 383 237
660 2 2 1 1 236 237 237
661 2 2 1 1 236 235 384
662 2 2 1 1 236 384 384
663 2 2 1 1 384 385 236
664 2 2 1 1 384 236 236
665 2 2 1 1 226 224 237
666 2 2 1 1 226 237 237
667 2 2 1 1 386 235 240
668 2 2 1 1 386 240 240
669 2 2 1 1 386 240 387
670 2 2 1 1 386 387 387
671 2 2 1 1 241 387 240
672 2 2 1 1 241 240 240
673 2 2 1 1 388 387 241
674 2 2 1 1 388 241 241
675 2 2 1 1 384 235 386
676 2 2 1 1 384 386 386
677 2 2 1 1 389 228 225
678 2 2 1 1 389 225 225
679 2 2 1 1 390 227 389
680 2 2 1 1 390 389 389
681 2 2 1 1 228 389 227
682 2 2 1 1 228 227 227
683 2 2 1 1 389 225 226
684 2 2 1 1 389 226 226
685 2 2 1 1 383 391 237
686 2 2 1 1 383 237 237
687 2 2 1 1 392 226 391
688 2 2 1 1 392 391 391
689 2 2 1 1 391 226 237
690 2 2 1 1 391 237 237
691 2 2 1 1 389 226 392
692 2 2 1 1 389 392 392
693 2 2 1 1 236 385 383
694 2 2 1 1 236 383 383
695 2 2 1 1 358 363 256
696 2 2 1 1 358 256 256
697 2 2 1 1 363 357 254
698 2 2 1 1 363 254 254
699 2 2 1 1 379 382 281
700 2 2 1 1 379 281 281
701 2 2 1 1 393 247 394
702 2 2 1 1 393 394 394
703 2 2 1 1 395 394 247
704 2 2 1 1 395 247 247
705 2 2 1 1 388 241 396
706 2 2 1 1 388 396 396
707 2 2 1 1 393 396 248
708 2 2 1 1 393 248 248
709 2 2 1 1 393 248 247
710 2 2 1 1 393 247 247
711 2 2 1 1 253 397 249
712 2 2 1 1 253 249 249
713 2 2 1 1 356 252 357
714 2 2 1 1 356 357 357
715 2 2 1 1 356 253 250
716 2 2 1 1 356 250 250
717 2 2 1 1 249 397 395
718 2 2 1 1 249 395 395
719 2 2 1 1 253 356 397
720 2 2 1 1 253 397 397
721 2 2 1 1 247 249 395
722 2 2 1 1 247 395 395
723 2 2 1 1 396 241 238
724 2 2 1 1 396 238 238
725 2 2 1 1 238 248 396
726 2 2 1 1 238 396 396
727 2 2 1 1 398 381 286
728 2 2 1 1 398 286 287
729 2 2 1 1 289 290 399
730 2 2 1 1 289 399 400
731 2 2 1 1 287 289 400
732 2 2 1 1 287 400 398
733 2 2 1 1 290 292 401
734 2 2 1 1 290 401 402
735 2 2 1 1 292 293 403
736 2 2 1 1 292 403 401
737 2 2 1 1 295 296 404
738 2 2 1 1 295 404 405
739 2 2 1 1 296 298 406
740 2 2 1 1 296 406 404
741 2 2 1 1 293 295 405
742 2 2 1 1 293 405 403
743 2 2 1 1 298 299 407
744 2 2 1 1 298 407 406
745 2 2 1 1 290 402 399
746 2 2 1 1 290 399 399
747 2 2 1 1 407 299 408
748 2 2 1 1 407 408 408
749 2 2 1 1 301 302 409
750 2 2 1 1 301 409 410
751 2 2 1 1 411 412 304
752 2 2 1 1 411 304 305
753 2 2 1 1 302 304 412
754 2 2 1 1 302 412 409
755 2 2 1 1 307 308 413
756 2 2 1 1 307 413 414
757 2 2 1 1 310 311 415
758 2 2 1 1 310 415 416
759 2 2 1 1 311 313 417
760 2 2 1 1 311 417 415
761 2 2 1 1 308 310 416
762 2 2 1 1 308 416 418
763 2 2 1 1 305 307 414
764 2 2 1 1 305 414 411
765 2 2 1 1 408 301 410
766 2 2 1 1 408 410 410
767 2 2 1 1 313 314 419
768 2 2 1 1 313 419 417
769 2 2 1 1 314 316 420
770 2 2 1 1 314 420 419
771 2 2 1 1 316 317 421
772 2 2 1 1 316 421 420
773 2 2 1 1 317 319 422
774 2 2 1 1 317 422 423
775 2 2 1 1 320 322 424
776 2 2 1 1 320 424 425
777 2 2 1 1 323 424 322
778 2 2 1 1 323 322 322
779 2 2 1 1 319 320 425
780 2 2 1 1 319 425 422
781 2 2 1 1 325 426 323
782 2 2 1 1 325 323 323
783 2 2 1 1 299 301 408
784 2 2 1 1 299 408 408
785 2 2 1 1 308 418 413
786 2 2 1 1 308 413 413
787 2 2 1 1 427 424 323
788 2 2 1 1 427 323 323
789 2 2 1 1 428 329 330
790 2 2 1 1 428 330 330
791 2 2 1 1 325 329 429
792 2 2 1 1 325 429 429
793 2 2 1 1 429 426 325
794 2 2 1 1 429 325 325
795 2 2 1 1 329 428 429
796 2 2 1 1 329 429 429
797 2 2 1 1 428 330 430
798 2 2 1 1 428 430 430
799 2 2 1 1 323 426 427
800 2 2 1 1 323 427 427
801 2 2 1 1 423 421 317
802 2 2 1 1 423 317 317
803 2 2 1 1 335 430 336
804 2 2 1 1 335 336 336
805 2 2 1 1 330 336 430
806 2 2 1 1 330 430 430
807 2 2 1 1 431 335 334
808 2 2 1 1 431 334 334
809 2 2 1 1 432 431 334
810 2 2 1 1 432 334 334
811 2 2 1 1 430 335 431
812 2 2 1 1 430 431 431
813 2 2 1 1 432 340 343
814 2 2 1 1 432 343 343
815 2 2 1 1 346 342 341
816 2 2 1 1 346 341 341
817 2 2 1 1 433 432 343
818 2 2 1 1 433 343 343
819 2 2 1 1 334 340 432
820 2 2 1 1 334 432 432
821 2 2 1 1 434 433 342
822 2 2 1 1 434 342 342
823 2 2 1 1 343 342 433
824 2 2 1 1 343 433 433
825 2 2 1 1 342 435 434
826 2 2 1 1 342 434 434
827 2 2 1 1 435 351 436
828 2 2 1 1 435 436 436
829 2 2 1 1 351 435 342
830 2 2 1 1 351 342 342
831 2 2 1 1 351 350 437
832 2 2 1 1 351 437 438
833 2 2 1 1 346 351 342
834 2 2 1 1 346 342 342
835 2 2 1 1 355 439 437
836 2 2 1 1 355 437 350
837 2 2 1 1 436 351 438
838 2 2 1 1 436 438 438
839 2 2 1 1 440 441 215
840 2 2 1 1 440 215 214
841 2 2 1 1 442 443 441
842 2 2 1 1 442 441 440
843 2 2 1 1 444 445 443
844 2 2 1 1 444 443 442
845 2 2 1 1 352 353 445
846 2 2 1 1 352 445 444
847 2 2 1 1 446 440 214
848 2 2 1 1 446 214 213
849 2 2 1 1 447 442 440
850 2 2 1 1 447 440 446
851 2 2 1 1 448 444 442
852 2 2 1 1 448 442 447
853 2 2 1 1 354 352 444
854 2 2 1 1 354 444 448
855 2 2 1 1 449 446 213
856 2 2 1 1 449 213 211
857 2 2 1 1 450 447 446
858 2 2 1 1 450 446 449
859 2 2 1 1 451 448 447
860 2 2 1 1 451 447 450
861 2 2 1 1 355 354 448
862 2 2 1 1 355 448 451
863 2 2 1 1 452 449 211
864 2 2 1 1 452 211 212
865 2 2 1 1 453 450 449
866 2 2 1 1 453 449 452
867 2 2 1 1 454 451 450
868 2 2 1 1 454 450 453
869 2 2 1 1 439 355 451
870 2 2 1 1 439 451 454
871 2 2 1 1 455 8 10
872 2 2 1 1 455 10 30
873 2 2 1 1 456 6 8
874 2 2 1 1 456 8 455
875 2 2 1 1 457 2 6
876 2 2 1 1 457 6 456
877 2 2 1 1 217 3 2
878 2 2 1 1 217 2 457
879 2 2 1 1 458 455 30
880 2 2 1 1 458 30 35
881 2 2 1 1 459 456 455
882 2 2 1 1 459 455 458
883 2 2 1 1 460 457 456
884 2 2 1 1 460 456 459
885 2 2 1 1 223 217 457
886 2 2 1 1 223 457 460
887 2 2 1 1 461 458 35
888 2 2 1 1 461 35 40
889 2 2 1 1 462 459 458
890 2 2 1 1 462 458 461
891 2 2 1 1 463 460 459
892 2 2 1 1 463 459 462
893 2 2 1 1 230 223 460
894 2 2 1 1 230 460 463
895 2 2 1 1 464 461 40
896 2 2 1 1 464 40 45
897 2 2 1 1 465 462 461
898 2 2 1 1 465 461 464
899 2 2 1 1 466 463 462
900 2 2 1 1 466 462 465
901 2 2 1 1 233 230 463
902 2 2 1 1 233 463 466
903 2 2 1 1 467 464 45
904 2 2 1 1 467 45 50
905 2 2 1 1 468 465 464
906 2 2 1 1 468 464 467
907 2 2 1 1 469 466 465
908 2 2 1 1 469 465 468
909 2 2 1 1 239 233 466
910 2 2 1 1 239 466 469
911 2 2 1 1 470 467 50
912 2 2 1 1 470 50 55
913 2 2 1 1 471 468 467
914 2 2 1 1 471 467 470
915 2 2 1 1 472 469 468
916 2 2 1 1 472 468 471
917 2 2 1 1 243 239 469
918 2 2 1 1 243 469 472
919 2 2 1 1 473 470 55
920 2 2 1 1 473 55 60
921 2 2 1 1 474 471 470
922 2 2 1 1 474 470 473
923 2 2 1 1 475 472 471
924 2 2 1 1 475 471 474
925 2 2 1 1 245 243 472
926 2 2 1 1 245 472 475
927 2 2 1 1 476 473 60
928 2 2 1 1 476 60 65
929 2 2 1 1 477 474 473
930 2 2 1 1 477 473 476
931 2 2 1 1 478 475 474
932 2 2 1 1 478 474 477
933 2 2 1 1 251 245 475
934 2 2 1 1 251 475 478
935 2 2 1 1 479 476 65
936 2 2 1 1 479 65 70
937 2 2 1 1 480 477 476
938 2 2 1 1 480 476 479
939 2 2 1 1 481 478 477
940 2 2 1 1 481 477 480
941 2 2 1 1 255 251 478
942 2 2 1 1 255 478 481
943 2 2 1 1 482 479 70
944 2 2 1 1 482 70 75
945 2 2 1 1 483 480 479
946 2 2 1 1 483 479 482
947 2 2 1 1 484 481 480
948 2 2 1 1 484 480 483
949 2 2 1 1 258 255 481
950 2 2 1 1 258 481 484
951 2 2 1 1 485 482 75
952 2 2 1 1 485 75 80
953 2 2 1 1 486 483 482
954 2 2 1 1 486 482 485
955 2 2 1 1 487 484 483
956 2 2 1 1 487 483 486
957 2 2 1 1 261 258 484
958 2 2 1 1 261 484 487
959 2 2 1 1 488 485 80
960 2 2 1 1 488 80 85
961 2 2 1 1 489 486 485
962 2 2 1 1 489 485 488
963 2 2 1 1 490 487 486
964 2 2 1 1 490 486 489
965 2 2 1 1 264 261 487
966 2 2 1 1 264 487 490
967 2 2 1 1 491 488 85
968 2 2 1 1 491 85 90
969 2 2 1 1 492 489 488
970 2 2 1 1 492 488 491
971 2 2 1 1 493 490 489
972 2 2 1 1 493 489 492
973 2 2 1 1 267 264 490
974 2 2 1 1 267 490 493
975 2 2 1 1 494 491 90
976 2 2 1 1 494 90 95
977 2 2 1 1 495 492 491
978 2 2 1 1 495 491 494
979 2 2 1 1 496 493 492
980 2 2 1 1 496 492 495
981 2 2 1 1 270 267 493
982 2 2 1 1 270 493 496
983 2 2 1 1 497 494 95
984 2 2 1 1 497 95 100
985 2 2 1 1 498 495 494
986 2 2 1 1 498 494 497
987 2 2 1 1 499 496 495
988 2 2 1 1 499 495 498
989 2 2 1 1 273 270 496
990 2 2 1 1 273 496 499
991 2 2 1 1 500 497 100
992 2 2 1 1 500 100 105
993 2 2 1 1 501 498 497
994 2 2 1 1 501 497 500
995 2 2 1 1 502 499 498
996 2 2 1 1 502 498 501
997 2 2 1 1 276 273 499
998 2 2 1 1 276 499 502
999 2 2 1 1 503 500 105
1000 2 2 1 1 503 105 110
1001 2 2 1 1 504 501 500
1002 2 2 1 1 504 500 503
1003 2 2 1 1 505 502 501
1004 2 2 1 1 505 501 504
1005 2 2 1 1 279 276 502
1006 2 2 1 1 279 502 505
1007 2 2 1 1 506 503 110
1008 2 2 1 1 506 110 115
1009 2 2 1 1 507 504 503
1010 2 2 1 1 507 503 506
1011 2 2 1 1 508 505 504
1012 2 2 1 1 508 504 507
1013 2 2 1 1 282 279 505
1014 2 2 1 1 282 505 508
1015 2 2 1 1 509 506 115
1016 2 2 1 1 509 115 120
1017 2 2 1 1 510 507 506
1018 2 2 1 1 510 506 509
1019 2 2 1 1 511 508 507
1020 2 2 1 1 511 507 510
1021 2 2 1 1 285 282 508
1022 2 2 1 1 285 508 511
1023 2 2 1 1 512 509 120
1024 2 2 1 1 512 120 125
1025 2 2 1 1 513 510 509
1026 2 2 1 1 513 509 512
1027 2 2 1 1 514 511 510
1028 2 2 1 1 514 510 513
1029 2 2 1 1 288 285 511
1030 2 2 1 1 288 511 514
1031 2 2 1 1 515 512 125
1032 2 2 1 1 515 125 130
1033 2 2 1 1 516 513 512
1034 2 2 1 1 516 512 515
1035 2 2 1 1 517 514 513
1036 2 2 1 1 517 513 516
1037 2 2 1 1 291 288 514
1038 2 2 1 1 291 514 517
1039 2 2 1 1 518 515 130
1040 2 2 1 1 518 130 135
1041 2 2 1 1 519 516 515
1042 2 2 1 1 519 515 518
1043 2 2 1 1 520 517 516
1044 2 2 1 1 520 516 519
1045 2 2 1 1 294 291 517
1046 2 2 1 1 294 517 520
1047 2 2 1 1 521 518 135
1048 2 2 1 1 521 135 140
1049 2 2 1 1 522 519 518
1050 2 2 1 1 522 518 521
1051 2 2 1 1 523 520 519
1052 2 2 1 1 523 519 522
1053 2 2 1 1 297 294 520
1054 2 2 1 1 297 520 523
1055 2 2 1 1 524 521 140
1056 2 2 1 1 524 140 145
1057 2 2 1 1 525 522 521
1058 2 2 1 1 525 521 524
1059 2 2 1 1 526 523 522
1060 2 2 1 1 526 522 525
1061 2 2 1 1 300 297 523
1062 2 2 1 1 300 523 526
1063 2 2 1 1 527 524 145
1064 2 2 1 1 527 145 150
1065 2 2 1 1 528 525 524
1066 2 2 1 1 528 524 527
1067 2 2 1 1 529 526 525
1068 2 2 1 1 529 525 528
1069 2 2 1 1 303 300 526
1070 2 2 1 1 303 526 529
1071 2 2 1 1 530 527 150
1072 2 2 1 1 530 150 155
1073 2 2 1 1 531 528 527
1074 2 2 1 1 531 527 530
1075 2 2 1 1 532 529 528
1076 2 2 1 1 532 528 531
1077 2 2 1 1 306 303 529
1078 2 2 1 1 306 529 532
1079 2 2 1 1 533 530 155
1080 2 2 1 1 533 155 160
1081 2 2 1 1 534 531 530
1082 2 2 1 1 534 530 533
1083 2 2 1 1 535 532 531
1084 2 2 1 1 535 531 534
1085 2 2 1 1 309 306 532
1086 2 2 1 1 309 532 535
1087 2 2 1 1 536 533 160
1088 2 2 1 1 536 160 165
1089 2 2 1 1 537 534 533
1090 2 2 1 1 537 533 536
1091 2 2 1 1 538 535 534
1092 2 2 1 1 538 534 537
1093 2 2 1 1 312 309 535
1094 2 2 1 1 312 535 538
1095 2 2 1 1 539 536 165
1096 2 2 1 1 539 165 170
1097 2 2 1 1 540 537 536
1098 2 2 1 1 540 536 539
1099 2 2 1 1 541 538 537
1100 2 2 1 1 541 537 540
1101 2 2 1 1 315 312 538
1102 2 2 1 1 315 538 541
1103 2 2 1 1 542 539 170
1104 2 2 1 1 542 170 175
1105 2 2 1 1 543 540 539
1106 2 2 1 1 543 539 542
1107 2 2 1 1 544 541 540
1108 2 2 1 1 544 540 543
1109 2 2 1 1 318 315 541
1110 2 2 1 1 318 541 544
1111 2 2 1 1 545 542 175
1112 2 2 1 1 545 175 180
1113 2 2 1 1 546 543 542
1114 2 2 1 1 546 542 545
1115 2 2 1 1 547 544 543
1116 2 2 1 1 547 543 546
1117 2 2 1 1 321 318 544
1118 2 2 1 1 321 544 547
1119 2 2 1 1 548 545 180
1120 2 2 1 1 548 180 185
1121 2 2 1 1 549 546 545
1122 2 2 1 1 549 545 548
1123 2 2 1 1 550 547 546
1124 2 2 1 1 550 546 549
1125 2 2 1 1 324 321 547
1126 2 2 1 1 324 547 550
1127 2 2 1 1 551 548 185
1128 2 2 1 1 551 185 190
1129 2 2 1 1 552 549 548
1130 2 2 1 1 552 548 551
1131 2 2 1 1 553 550 549
1132 2 2 1 1 553 549 552
1133 2 2 1 1 327 324 550
1134 2 2 1 1 327 550 553
1135 2 2 1 1 554 551 190
1136 2 2 1 1 554 190 195
1137 2 2 1 1 555 552 551
1138 2 2 1 1 555 551 554
1139 2 2 1 1 556 553 552
1140 2 2 1 1 556 552 555
1141 2 2 1 1 332 327 553
1142 2 2 1 1 332 553 556
1143 2 2 1 1 557 554 195
1144 2 2 1 1 557 195 200
1145 2 2 1 1 558 555 554
1146 2 2 1 1 558 554 557
1147 2 2 1 1 559 556 555
1148 2 2 1 1 559 555 558
1149 2 2 1 1 339 332 556
1150 2 2 1 1 339 556 559
1151 2 2 1 1 560 557 200
1152 2 2 1 1 560 200 205
1153 2 2 1 1 561 558 557
1154 2 2 1 1 561 557 560
1155 2 2 1 1 562 559 558
1156 2 2 1 1 562 558 561
1157 2 2 1 1 345 339 559
1158 2 2 1 1 345 559 562
1159 2 2 1 1 563 560 205
1160 2 2 1 1 563 205 210
1161 2 2 1 1 564 561 560
1162 2 2 1 1 564 560 563
1163 2 2 1 1 565 562 561
1164 2 2 1 1 565 561 564
1165 2 2 1 1 348 345 562
1166 2 2 1 1 348 562 565
1167 2 2 1 1 441 563 210
1168 2 2 1 1 441 210 215
1169 2 2 1 1 443 564 563
1170 2 2 1 1 443 563 441
1171 2 2 1 1 445 565 564
1172 2 2 1 1 445 564 443
1173 2 2 1 1 353 348 565
1174 2 2 1 1 353 565 445
1175 2 2 1 1 568 567 566
1176 2 2 1 1 569 568 566
1177 2 2 1 1 567 571 570
1178 2 2 1 1 566 567 570
1179 2 2 1 1 571 573 572
1180 2 2 1 1 570 571 572
1181 2 2 1 1 573 575 574
1182 2 2 1 1 572 573 574
1183 2 2 1 1 569 566 576
1184 2 2 1 1 577 569 576
1185 2 2 1 1 566 570 578
1186 2 2 1 1 576 566 578
1187 2 2 1 1 570 572 579
1188 2 2 1 1 578 570 579
1189 2 2 1 1 572 574 580
1190 2 2 1 1 579 572 580
1191 2 2 1 1 577 576 581
1192 2 2 1 1 582 577 581
1193 2 2 1 1 576 578 583
1194 2 2 1 1 581 576 583
1195 2 2 1 1 578 579 584
1196 2 2 1 1 583 578 584
1197 2 2 1 1 579 580 585
1198 2 2 1 1 584 579 585
1199 2 2 1 1 582 581 21
1200 2 2 1 1 22 582 21
1201 2 2 1 1 581 583 23
1202 2 2 1 1 21 581 23
1203 2 2 1 1 583 584 24
1204 2 2 1 1 23 583 24
1205 2 2 1 1 584 585 25
1206 2 2 1 1 24 584 25
1207 2 2 1 1 25 585 586
1208 2 2 1 1 27 25 586
1209 2 2 1 1 585 580 587
1210 2 2 1 1 586 585 587
1211 2 2 1 1 580 574 588
1212 2 2 1 1 587 580 588
1213 2 2 1 1 574 575 589
1214 2 2 1 1 588 574 589
1215 2 2 1 1 27 586 590
1216 2 2 1 1 32 27 590
1217 2 2 1 1 586 587 591
1218 2 2 1 1 590 586 591
1219 2 2 1 1 587 588 592
1220 2 2 1 1 591 587 592
1221 2 2 1 1 588 589 593
1222 2 2 1 1 592 588 593
1223 2 2 1 1 32 590 594
1224 2 2 1 1 37 32 594
1225 2 2 1 1 590 591 595
1226 2 2 1 1 594 590 595
1227 2 2 1 1 591 592 596
1228 2 2 1 1 595 591 596
1229 2 2 1 1 592 593 597
1230 2 2 1 1 596 592 597
1231 2 2 1 1 37 594 598
1232 2 2 1 1 42 37 598
1233 2 2 1 1 594 595 599
1234 2 2 1 1 598 594 599
1235 2 2 1 1 595 596 600
1236 2 2 1 1 599 595 600
1237 2 2 1 1 596 597 601
1238 2 2 1 1 600 596 601
1239 2 2 1 1 42 598 602
1240 2 2 1 1 47 42 602
1241 2 2 1 1 598 599 603
1242 2 2 1 1 602 598 603
1243 2 2 1 1 599 600 604
1244 2 2 1 1 603 599 604
1245 2 2 1 1 600 601 605
1246 2 2 1 1 604 600 605
1247 2 2 1 1 47 602 606
1248 2 2 1 1 52 47 606
1249 2 2 1 1 602 603 607
1250 2 2 1 1 606 602 607
1251 2 2 1 1 603 604 608
1252 2 2 1 1 607 603 608
1253 2 2 1 1 604 605 609
1254 2 2 1 1 608 604 609
1255 2 2 1 1 52 606 610
1256 2 2 1 1 57 52 610
1257 2 2 1 1 606 607 611
1258 2 2 1 1 610 606 611
1259 2 2 1 1 607 608 612
1260 2 2 1 1 611 607 612
1261 2 2 1 1 608 609 613
1262 2 2 1 1 612 608 613
1263 2 2 1 1 57 610 614
1264 2 2 1 1 62 57 614
1265 2 2 1 1 610 611 615
1266 2 2 1 1 614 610 615
1267 2 2 1 1 611 612 616
1268 2 2 1 1 615 611 616
1269 2 2 1 1 612 613 617
1270 2 2 1 1 616 612 617
1271 2 2 1 1 62 614 618
1272 2 2 1 1 67 62 618
1273 2 2 1 1 614 615 619
1274 2 2 1 1 618 614 619
1275 2 2 1 1 615 616 620
1276 2 2 1 1 619 615 620
1277 2 2 1 1 616 617 621
1278 2 2 1 1 620 616 621
1279 2 2 1 1 67 618 622
1280 2 2 1 1 72 67 622
1281 2 2 1 1 618 619 623
1282 2 2 1 1 622 618 623
1283 2 2 1 1 619 620 624
1284 2 2 1 1 623 619 624
1285 2 2 1 1 620 621 625
1286 2 2 1 1 624 620 625
1287 2 2 1 1 72 622 626
1288 2 2 1 1 77 72 626
1289 2 2 1 1 622 623 627
1290 2 2 1 1 626 622 627
1291 2 2 1 1 623 624 628
1292 2 2 1 1 627 623 628
1293 2 2 1 1 624 625 629
1294 2 2 1 1 628 624 629
1295 2 2 1 1 77 626 630
1296 2 2 1 1 82 77 630
1297 2 2 1 1 626 627 631
1298 2 2 1 1 630 626 631
1299 2 2 1 1 627 628 632
1300 2 2 1 1 631 627 632
1301 2 2 1 1 628 629 633
1302 2 2 1 1 632 628 633
1303 2 2 1 1 82 630 634
1304 2 2 1 1 87 82 634
1305 2 2 1 1 630 631 635
1306 2 2 1 1 634 630 635
1307 2 2 1 1 631 632 636
1308 2 2 1 1 635 631 636
1309 2 2 1 1 632 633 637
1310 2 2 1 1 636 632 637
1311 2 2 1 1 87 634 638
1312 2 2 1 1 92 87 638
1313 2 2 1 1 634 635 639
1314 2 2 1 1 638 634 639
1315 2 2 1 1 635 636 640
1316 2 2 1 1 639 635 640
1317 2 2 1 1 636 637 641
1318 2 2 1 1 640 636 641
1319 2 2 1 1 92 638 642
1320 2 2 1 1 97 92 642
1321 2 2 1 1 638 639 643
1322 2 2 1 1 642 638 643
1323 2 2 1 1 639 640 644
1324 2 2 1 1 643 639 644
1325 2 2 1 1 640 641 645
1326 2 2 1 1 644 640 645
1327 2 2 1 1 97 642 646
1328 2 2 1 1 102 97 646
1329 2 2 1 1 642 643 647
1330 2 2 1 1 646 642 647
1331 2 2 1 1 643 644 648
1332 2 2 1 1 647 643 648
1333 2 2 1 1 644 645 649
1334 2 2 1 1 648 644 649
1335 2 2 1 1 102 646 650
1336 2 2 1 1 107 102 650
1337 2 2 1 1 646 647 651
1338 2 2 1 1 650 646 651
1339 2 2 1 1 647 648 652
1340 2 2 1 1 651 647 652
1341 2 2 1 1 648 649 653
1342 2 2 1 1 652 648 653
1343 2 2 1 1 107 650 654
1344 2 2 1 1 112 107 654
1345 2 2 1 1 650 651 655
1346 2 2 1 1 654 650 655
1347 2 2 1 1 651 652 656
1348 2 2 1 1 655 651 656
1349 2 2 1 1 652 653 657
1350 2 2 1 1 656 652 657
1351 2 2 1 1 112 654 658
1352 2 2 1 1 117 112 658
1353 2 2 1 1 654 655 659
1354 2 2 1 1 658 654 659
1355 2 2 1 1 655 656 660
1356 2 2 1 1 659 655 660
1357 2 2 1 1 656 657 661
1358 2 2 1 1 660 656 661
1359 2 2 1 1 117 658 662
1360 2 2 1 1 122 117 662
1361 2 2 1 1 658 659 663
1362 2 2 1 1 662 658 663
1363 2 2 1 1 659 660 664
1364 2 2 1 1 663 659 664
1365 2 2 1 1 660 661 665
1366 2 2 1 1 664 660 665
1367 2 2 1 1 122 662 666
1368 2 2 1 1 127 122 666
1369 2 2 1 1 662 663 667
1370 2 2 1 1 666 662 667
1371 2 2 1 1 663 664 668
1372 2 2 1 1 667 663 668
1373 2 2 1 1 664 665 669
1374 2 2 1 1 668 664 669
1375 2 2 1 1 127 666 670
1376 2 2 1 1 132 127 670
1377 2 2 1 1 666 667 671
1378 2 2 1 1 670 666 671
1379 2 2 1 1 667 668 672
1380 2 2 1 1 671 667 672
1381 2 2 1 1 668 669 673
1382 2 2 1 1 672 668 673
1383 2 2 1 1 132 670 674
1384 2 2 1 1 137 132 674
1385 2 2 1 1 670 671 675
1386 2 2 1 1 674 670 675
1387 2 2 1 1 671 672 676
1388 2 2 1 1 675 671 676
1389 2 2 1 1 672 673 677
1390 2 2 1 1 676 672 677
1391 2 2 1 1 137 674 678
1392 2 2 1 1 142 137 678
1393 2 2 1 1 674 675 679
1394 2 2 1 1 678 674 679
1395 2 2 1 1 675 676 680
1396 2 2 1 1 679 675 680
1397 2 2 1 1 676 677 681
1398 2 2 1 1 680 676 681
1399 2 2 1 1 142 678 682
1400 2 2 1 1 147 142 682
1401 2 2 1 1 678 679 683
1402 2 2 1 1 682 678 683
1403 2 2 1 1 679 680 684
1404 2 2 1 1 683 679 684
1405 2 2 1 1 680 681 685
1406 2 2 1 1 684 680 685
1407 2 2 1 1 147 682 686
1408 2 2 1 1 152 147 686
1409 2 2 1 1 682 683 687
1410 2 2 1 1 686 682 687
1411 2 2 1 1 683 684 688
1412 2 2 1 1 687 683 688
1413 2 2 1 1 684 685 689
1414 2 2 1 1 688 684 689
1415 2 2 1 1 152 686 690
1416 2 2 1 1 157 152 690
1417 2 2 1 1 686 687 691
1418 2 2 1 1 690 686 691
1419 2 2 1 1 687 688 692
1420 2 2 1 1 691 687 692
1421 2 2 1 1 688 689 693
1422 2 2 1 1 692 688 693
1423 2 2 1 1 157 690 694
1424 2 2 1 1 162 157 694
1425 2 2 1 1 690 691 695
1426 2 2 1 1 694 690 695
1427 2 2 1 1 691 692 696
1428 2 2 1 1 695 691 696
1429 2 2 1 1 692 693 697
1430 2 2 1 1 696 692 697
1431 2 2 1 1 162 694 698
1432 2 2 1 1 167 162 698
1433 2 2 1 1 694 695 699
1434 2 2 1 1 698 694 699
1435 2 2 1 1 695 696 700
1436 2 2 1 1 699 695 700
1437 2 2 1 1 696 697 701
1438 2 2 1 1 700 696 701
1439 2 2 1 1 167 698 702
1440 2 2 1 1 172 167 702
1441 2 2 1 1 698 699 703
1442 2 2 1 1 702 698 703
1443 2 2 1 1 699 700 704
1444 2 2 1 1 703 699 704
1445 2 2 1 1 700 701 705
1446 2 2 1 1 704 700 705
1447 2 2 1 1 172 702 706
1448 2 2 1 1 177 172 706
1449 2 2 1 1 702 703 707
1450 2 2 1 1 706 702 707
1451 2 2 1 1 703 704 708
1452 2 2 1 1 707 703 708
1453 2 2 1 1 704 705 709
1454 2 2 1 1 708 704 709
1455 2 2 1 1 177 706 710
1456 2 2 1 1 182 177 710
1457 2 2 1 1 706 707 711
1458 2 2 1 1 710 706 711
1459 2 2 1 1 707 708 712
1460 2 2 1 1 711 707 712
1461 2 2 1 1 708 709 713
1462 2 2 1 1 712 708 713
1463 2 2 1 1 182 710 714
1464 2 2 1 1 187 182 714
1465 2 2 1 1 710 711 715
1466 2 2 1 1 714 710 715
1467 2 2 1 1 711 712 716
1468 2 2 1 1 715 711 716
1469 2 2 1 1 712 713 717
1470 2 2 1 1 716 712 717
1471 2 2 1 1 187 714 718
1472 2 2 1 1 192 187 718
1473 2 2 1 1 714 715 719
1474 2 2 1 1 718 714 719
1475 2 2 1 1 715 716 720
1476 2 2 1 1 719 715 720
1477 2 2 1 1 716 717 721
1478 2 2 1 1 720 716 721
1479 2 2 1 1 192 718 722
1480 2 2 1 1 197 192 722
1481 2 2 1 1 718 719 723
1482 2 2 1 1 722 718 723
1483 2 2 1 1 719 720 724
1484 2 2 1 1 723 719 724
1485 2 2 1 1 720 721 725
1486 2 2 1 1 724 720 725
1487 2 2 1 1 197 722 726
1488 2 2 1 1 202 197 726
1489 2 2 1 1 722 723 727
1490 2 2 1 1 726 722 727
1491 2 2 1 1 723 724 728
1492 2 2 1 1 727 723 728
1493 2 2 1 1 724 725 729
1494 2 2 1 1 728 724 729
1495 2 2 1 1 202 726 730
1496 2 2 1 1 207 202 730
1497 2 2 1 1 726 727 731
1498 2 2 1 1 730 726 731
1499 2 2 1 1 727 728 732
1500 2 2 1 1 731 727 732
1501 2 2 1 1 728 729 733
1502 2 2 1 1 732 728 733
1503 2 2 1 1 207 730 734
1504 2 2 1 1 212 207 734
1505 2 2 1 1 730 731 735
1506 2 2 1 1 734 730 735
1507 2 2 1 1 731 732 736
1508 2 2 1 1 735 731 736
1509 2 2 1 1 732 733 737
1510 2 2 1 1 736 732 737
1511 2 2 1 1 568 569 738
1512 2 2 1 1 739 568 738
1513 2 2 1 1 569 577 740
1514 2 2 1 1 738 569 740
1515 2 2 1 1 577 582 741
1516 2 2 1 1 740 577 741
1517 2 2 1 1 22 221 742
1518 2 2 1 1 22 22 742
1519 2 2 1 1 742 741 582
1520 2 2 1 1 742 742 582
1521 2 2 1 1 742 582 22
1522 2 2 1 1 742 742 22
1523 2 2 1 1 739 738 743
1524 2 2 1 1 744 739 743
1525 2 2 1 1 738 740 745
1526 2 2 1 1 743 738 745
1527 2 2 1 1 740 741 746
1528 2 2 1 1 740 740 746
1529 2 2 1 1 746 747 745
1530 2 2 1 1 746 746 745
1531 2 2 1 1 746 745 740
1532 2 2 1 1 746 746 740
1533 2 2 1 1 742 221 227
1534 2 2 1 1 748 742 227
1535 2 2 1 1 741 742 748
1536 2 2 1 1 746 741 748
1537 2 2 1 1 744 743 749
1538 2 2 1 1 750 744 749
1539 2 2 1 1 743 745 751
1540 2 2 1 1 749 743 751
1541 2 2 1 1 750 749 752
1542 2 2 1 1 753 750 752
1543 2 2 1 1 749 751 754
1544 2 2 1 1 749 749 754
1545 2 2 1 1 754 755 752
1546 2 2 1 1 754 754 752
1547 2 2 1 1 754 752 749
1548 2 2 1 1 754 754 749
1549 2 2 1 1 751 757 756
1550 2 2 1 1 754 751 756
1551 2 2 1 1 755 754 756
1552 2 2 1 1 755 755 756
1553 2 2 1 1 753 752 758
1554 2 2 1 1 759 753 758
1555 2 2 1 1 752 755 760
1556 2 2 1 1 752 752 760
1557 2 2 1 1 760 761 758
1558 2 2 1 1 760 760 758
1559 2 2 1 1 760 758 752
1560 2 2 1 1 760 760 752
1561 2 2 1 1 759 758 762
1562 2 2 1 1 763 759 762
1563 2 2 1 1 763 762 764
1564 2 2 1 1 763 763 764
1565 2 2 1 1 764 766 765
1566 2 2 1 1 764 764 765
1567 2 2 1 1 764 765 763
1568 2 2 1 1 764 764 763
1569 2 2 1 1 762 768 767
1570 2 2 1 1 764 762 767
1571 2 2 1 1 764 767 769
1572 2 2 1 1 766 764 769
1573 2 2 1 1 765 766 770
1574 2 2 1 1 765 765 770
1575 2 2 1 1 770 772 771
1576 2 2 1 1 770 770 771
1577 2 2 1 1 770 771 765
1578 2 2 1 1 770 770 765
1579 2 2 1 1 766 769 773
1580 2 2 1 1 770 766 773
1581 2 2 1 1 771 772 774
1582 2 2 1 1 771 771 774
1583 2 2 1 1 774 776 775
1584 2 2 1 1 774 774 775
1585 2 2 1 1 774 775 771
1586 2 2 1 1 774 774 771
1587 2 2 1 1 775 776 777
1588 2 2 1 1 775 775 777
1589 2 2 1 1 777 779 778
1590 2 2 1 1 777 777 778
1591 2 2 1 1 777 778 775
1592 2 2 1 1 777 777 775
1593 2 2 1 1 778 779 780
1594 2 2 1 1 778 778 780
1595 2 2 1 1 780 782 781
1596 2 2 1 1 780 780 781
1597 2 2 1 1 780 781 778
1598 2 2 1 1 780 780 778
1599 2 2 1 1 781 782 783
1600 2 2 1 1 781 781 783
1601 2 2 1 1 783 785 784
1602 2 2 1 1 783 783 784
1603 2 2 1 1 783 784 781
1604 2 2 1 1 783 783 781
1605 2 2 1 1 784 785 786
1606 2 2 1 1 784 784 786
1607 2 2 1 1 786 788 787
1608 2 2 1 1 786 786 787
1609 2 2 1 1 786 787 784
1610 2 2 1 1 786 786 784
1611 2 2 1 1 787 788 789
1612 2 2 1 1 787 787 789
1613 2 2 1 1 789 791 790
1614 2 2 1 1 789 789 790
1615 2 2 1 1 789 790 787
1616 2 2 1 1 789 789 787
1617 2 2 1 1 790 791 792
1618 2 2 1 1 790 790 792
1619 2 2 1 1 792 794 793
1620 2 2 1 1 792 792 793
1621 2 2 1 1 792 793 790
1622 2 2 1 1 792 792 790
1623 2 2 1 1 793 794 795
1624 2 2 1 1 793 793 795
1625 2 2 1 1 795 797 796
1626 2 2 1 1 795 795 796
1627 2 2 1 1 795 796 793
1628 2 2 1 1 795 795 793
1629 2 2 1 1 796 797 798
1630 2 2 1 1 796 796 798
1631 2 2 1 1 798 800 799
1632 2 2 1 1 798 798 799
1633 2 2 1 1 798 799 796
1634 2 2 1 1 798 798 796
1635 2 2 1 1 799 800 801
1636 2 2 1 1 799 799 801
1637 2 2 1 1 801 803 802
1638 2 2 1 1 801 801 802
1639 2 2 1 1 801 802 799
1640 2 2 1 1 801 801 799
1641 2 2 1 1 802 803 804
1642 2 2 1 1 802 802 804
1643 2 2 1 1 804 806 805
1644 2 2 1 1 804 804 805
1645 2 2 1 1 804 805 802
1646 2 2 1 1 804 804 802
1647 2 2 1 1 805 806 807
1648 2 2 1 1 805 805 807
1649 2 2 1 1 807 809 808
1650 2 2 1 1 807 807 808
1651 2 2 1 1 807 808 805
1652 2 2 1 1 807 807 805
1653 2 2 1 1 808 809 810
1654 2 2 1 1 808 808 810
1655 2 2 1 1 810 812 811
1656 2 2 1 1 810 810 811
1657 2 2 1 1 810 811 808
1658 2 2 1 1 810 810 808
1659 2 2 1 1 811 812 813
1660 2 2 1 1 811 811 813
1661 2 2 1 1 813 815 814
1662 2 2 1 1 813 813 814
1663 2 2 1 1 813 814 811
1664 2 2 1 1 813 813 811
1665 2 2 1 1 814 815 816
1666 2 2 1 1 814 814 816
1667 2 2 1 1 816 818 817
1668 2 2 1 1 816 816 817
1669 2 2 1 1 816 817 814
1670 2 2 1 1 816 816 814
1671 2 2 1 1 817 818 819
1672 2 2 1 1 817 817 819
1673 2 2 1 1 819 821 820
1674 2 2 1 1 819 819 820
1675 2 2 1 1 819 820 817
1676 2 2 1 1 819 819 817
1677 2 2 1 1 820 821 822
1678 2 2 1 1 820 820 822
1679 2 2 1 1 822 824 823
1680 2 2 1 1 822 822 823
1681 2 2 1 1 822 823 820
1682 2 2 1 1 822 822 820
1683 2 2 1 1 823 824 825
1684 2 2 1 1 823 823 825
1685 2 2 1 1 825 827 826
1686 2 2 1 1 825 825 826
1687 2 2 1 1 825 826 823
1688 2 2 1 1 825 825 823
1689 2 2 1 1 826 827 828
1690 2 2 1 1 826 826 828
1691 2 2 1 1 828 830 829
1692 2 2 1 1 828 828 829
1693 2 2 1 1 828 829 826
1694 2 2 1 1 828 828 826
1695 2 2 1 1 829 830 831
1696 2 2 1 1 829 829 831
1697 2 2 1 1 831 833 832
1698 2 2 1 1 831 831 832
1699 2 2 1 1 831 832 829
1700 2 2 1 1 831 831 829
1701 2 2 1 1 832 833 834
1702 2 2 1 1 832 832 834
1703 2 2 1 1 834 836 835
1704 2 2 1 1 834 834 835
1705 2 2 1 1 834 835 832
1706 2 2 1 1 834 834 832
1707 2 2 1 1 835 836 837
1708 2 2 1 1 835 835 837
1709 2 2 1 1 837 839 838
1710 2 2 1 1 837 837 838
1711 2 2 1 1 837 838 835
1712 2 2 1 1 837 837 835
1713 2 2 1 1 838 839 840
1714 2 2 1 1 838 838 840
1715 2 2 1 1 840 842 841
1716 2 2 1 1 840 840 841
1717 2 2 1 1 840 841 838
1718 2 2 1 1 840 840 838
1719 2 2 1 1 841 842 843
1720 2 2 1 1 841 841 843
1721 2 2 1 1 843 845 844
1722 2 2 1 1 843 843 844
1723 2 2 1 1 843 844 841
1724 2 2 1 1 843 843 841
1725 2 2 1 1 844 845 846
1726 2 2 1 1 844 844 846
1727 2 2 1 1 846 848 847
1728 2 2 1 1 846 846 847
1729 2 2 1 1 846 847 844
1730 2 2 1 1 846 846 844
1731 2 2 1 1 849 846 845
1732 2 2 1 1 849 849 845
1733 2 2 1 1 846 849 850
1734 2 2 1 1 848 846 850
1735 2 2 1 1 847 848 851
1736 2 2 1 1 847 847 851
1737 2 2 1 1 851 853 852
1738 2 2 1 1 851 851 852
1739 2 2 1 1 851 852 847
1740 2 2 1 1 851 851 847
1741 2 2 1 1 856 855 854
1742 2 2 1 1 857 856 854
1743 2 2 1 1 848 850 856
1744 2 2 1 1 851 848 856
1745 2 2 1 1 851 856 857
1746 2 2 1 1 853 851 857
1747 2 2 1 1 852 853 858
1748 2 2 1 1 859 852 858
1749 2 2 1 1 857 854 860
1750 2 2 1 1 857 857 860
1751 2 2 1 1 858 853 857
1752 2 2 1 1 858 858 857
1753 2 2 1 1 860 861 858
1754 2 2 1 1 860 860 858
1755 2 2 1 1 858 857 860
1756 2 2 1 1 858 858 860
1757 2 2 1 1 860 863 862
1758 2 2 1 1 861 860 862
1759 2 2 1 1 859 858 864
1760 2 2 1 1 865 859 864
1761 2 2 1 1 858 861 866
1762 2 2 1 1 864 858 866
1763 2 2 1 1 865 864 867
1764 2 2 1 1 868 865 867
1765 2 2 1 1 864 866 869
1766 2 2 1 1 867 864 869
1767 2 2 1 1 866 871 870
1768 2 2 1 1 869 866 870
1769 2 2 1 1 868 867 872
1770 2 2 1 1 873 868 872
1771 2 2 1 1 867 869 874
1772 2 2 1 1 872 867 874
1773 2 2 1 1 869 870 875
1774 2 2 1 1 874 869 875
1775 2 2 1 1 758 768 762
1776 2 2 1 1 758 758 762
1777 2 2 1 1 770 876 772
1778 2 2 1 1 770 770 772
1779 2 2 1 1 772 877 774
1780 2 2 1 1 772 772 774
1781 2 2 1 1 776 878 777
1782 2 2 1 1 776 776 777
1783 2 2 1 1 879 780 779
1784 2 2 1 1 880 879 779
1785 2 2 1 1 881 782 780
1786 2 2 1 1 879 881 780
1787 2 2 1 1 880 779 777
1788 2 2 1 1 882 880 777
1789 2 2 1 1 774 883 776
1790 2 2 1 1 774 774 776
1791 2 2 1 1 782 881 884
1792 2 2 1 1 782 782 884
1793 2 2 1 1 885 785 783
1794 2 2 1 1 886 885 783
1795 2 2 1 1 887 786 785
1796 2 2 1 1 885 887 785
1797 2 2 1 1 886 783 884
1798 2 2 1 1 886 886 884
1799 2 2 1 1 783 782 884
1800 2 2 1 1 783 783 884
1801 2 2 1 1 882 777 878
1802 2 2 1 1 882 882 878
1803 2 2 1 1 888 789 788
1804 2 2 1 1 889 888 788
1805 2 2 1 1 890 792 791
1806 2 2 1 1 891 890 791
1807 2 2 1 1 892 794 792
1808 2 2 1 1 893 892 792
1809 2 2 1 1 891 791 789
1810 2 2 1 1 888 891 789
1811 2 2 1 1 894 797 795
1812 2 2 1 1 895 894 795
1813 2 2 1 1 896 798 797
1814 2 2 1 1 894 896 797
1815 2 2 1 1 897 800 798
1816 2 2 1 1 896 897 798
1817 2 2 1 1 895 795 794
1818 2 2 1 1 892 895 794
1819 2 2 1 1 786 887 889
1820 2 2 1 1 788 786 889
1821 2 2 1 1 898 803 801
1822 2 2 1 1 899 898 801
1823 2 2 1 1 900 804 803
1824 2 2 1 1 898 900 803
1825 2 2 1 1 901 806 804
1826 2 2 1 1 900 901 804
1827 2 2 1 1 890 893 792
1828 2 2 1 1 890 890 792
1829 2 2 1 1 902 801 800
1830 2 2 1 1 897 902 800
1831 2 2 1 1 751 745 757
1832 2 2 1 1 751 751 757
1833 2 2 1 1 757 903 756
1834 2 2 1 1 757 757 756
1835 2 2 1 1 904 755 756
1836 2 2 1 1 904 904 756
1837 2 2 1 1 756 905 904
1838 2 2 1 1 756 756 904
1839 2 2 1 1 757 745 747
1840 2 2 1 1 757 757 747
1841 2 2 1 1 760 755 906
1842 2 2 1 1 760 760 906
1843 2 2 1 1 907 760 906
1844 2 2 1 1 907 907 906
1845 2 2 1 1 760 907 761
1846 2 2 1 1 760 760 761
1847 2 2 1 1 761 907 908
1848 2 2 1 1 761 761 908
1849 2 2 1 1 906 755 904
1850 2 2 1 1 906 906 904
1851 2 2 1 1 746 748 909
1852 2 2 1 1 746 746 909
1853 2 2 1 1 909 227 390
1854 2 2 1 1 909 909 390
1855 2 2 1 1 227 909 748
1856 2 2 1 1 227 227 748
1857 2 2 1 1 747 746 909
1858 2 2 1 1 747 747 909
1859 2 2 1 1 757 910 903
1860 2 2 1 1 757 757 903
1861 2 2 1 1 910 747 911
1862 2 2 1 1 910 910 911
1863 2 2 1 1 757 747 910
1864 2 2 1 1 757 757 910
1865 2 2 1 1 911 747 909
1866 2 2 1 1 911 911 909
1867 2 2 1 1 903 905 756
1868 2 2 1 1 903 903 756
1869 2 2 1 1 776 883 878
1870 2 2 1 1 776 776 878
1871 2 2 1 1 774 877 883
1872 2 2 1 1 774 774 883
1873 2 2 1 1 801 902 899
1874 2 2 1 1 801 801 899
1875 2 2 1 1 913 767 912
1876 2 2 1 1 913 913 912
1877 2 2 1 1 767 913 914
1878 2 2 1 1 767 767 914
1879 2 2 1 1 915 761 908
1880 2 2 1 1 915 915 908
1881 2 2 1 1 768 915 912
1882 2 2 1 1 768 768 912
1883 2 2 1 1 767 768 912
1884 2 2 1 1 767 767 912
1885 2 2 1 1 769 916 773
1886 2 2 1 1 769 769 773
1887 2 2 1 1 877 772 876
1888 2 2 1 1 877 877 876
1889 2 2 1 1 770 773 876
1890 2 2 1 1 770 770 876
1891 2 2 1 1 914 916 769
1892 2 2 1 1 914 914 769
1893 2 2 1 1 916 876 773
1894 2 2 1 1 916 916 773
1895 2 2 1 1 914 769 767
1896 2 2 1 1 914 914 767
1897 2 2 1 1 758 761 915
1898 2 2 1 1 758 758 915
1899 2 2 1 1 915 768 758
1900 2 2 1 1 915 915 758
1901 2 2 1 1 806 901 917
1902 2 2 1 1 807 806 917
1903 2 2 1 1 918 810 809
1904 2 2 1 1 919 918 809
1905 2 2 1 1 919 809 807
1906 2 2 1 1 917 919 807
1907 2 2 1 1 920 812 810
1908 2 2 1 1 921 920 810
1909 2 2 1 1 922 813 812
1910 2 2 1 1 920 922 812
1911 2 2 1 1 923 816 815
1912 2 2 1 1 924 923 815
1913 2 2 1 1 925 818 816
1914 2 2 1 1 923 925 816
1915 2 2 1 1 924 815 813
1916 2 2 1 1 922 924 813
1917 2 2 1 1 926 819 818
1918 2 2 1 1 925 926 818
1919 2 2 1 1 918 921 810
1920 2 2 1 1 918 918 810
1921 2 2 1 1 927 819 926
1922 2 2 1 1 927 927 926
1923 2 2 1 1 928 822 821
1924 2 2 1 1 929 928 821
1925 2 2 1 1 824 931 930
1926 2 2 1 1 825 824 930
1927 2 2 1 1 931 824 822
1928 2 2 1 1 928 931 822
1929 2 2 1 1 932 828 827
1930 2 2 1 1 933 932 827
1931 2 2 1 1 934 831 830
1932 2 2 1 1 935 934 830
1933 2 2 1 1 936 833 831
1934 2 2 1 1 934 936 831
1935 2 2 1 1 935 830 828
1936 2 2 1 1 937 935 828
1937 2 2 1 1 933 827 825
1938 2 2 1 1 930 933 825
1939 2 2 1 1 929 821 927
1940 2 2 1 1 929 929 927
1941 2 2 1 1 938 834 833
1942 2 2 1 1 936 938 833
1943 2 2 1 1 939 836 834
1944 2 2 1 1 938 939 834
1945 2 2 1 1 940 837 836
1946 2 2 1 1 939 940 836
1947 2 2 1 1 941 839 837
1948 2 2 1 1 942 941 837
1949 2 2 1 1 943 842 840
1950 2 2 1 1 944 943 840
1951 2 2 1 1 842 943 843
1952 2 2 1 1 842 842 843
1953 2 2 1 1 944 840 839
1954 2 2 1 1 941 944 839
1955 2 2 1 1 843 945 845
1956 2 2 1 1 843 843 845
1957 2 2 1 1 927 821 819
1958 2 2 1 1 927 927 819
1959 2 2 1 1 932 937 828
1960 2 2 1 1 932 932 828
1961 2 2 1 1 843 943 946
1962 2 2 1 1 843 843 946
1963 2 2 1 1 850 849 947
1964 2 2 1 1 850 850 947
1965 2 2 1 1 948 849 845
1966 2 2 1 1 948 948 845
1967 2 2 1 1 845 945 948
1968 2 2 1 1 845 845 948
1969 2 2 1 1 948 947 849
1970 2 2 1 1 948 948 849
1971 2 2 1 1 949 850 947
1972 2 2 1 1 949 949 947
1973 2 2 1 1 946 945 843
1974 2 2 1 1 946 946 843
1975 2 2 1 1 837 940 942
1976 2 2 1 1 837 837 942
1977 2 2 1 1 856 949 855
1978 2 2 1 1 856 856 855
1979 2 2 1 1 949 856 850
1980 2 2 1 1 949 949 850
1981 2 2 1 1 854 855 950
1982 2 2 1 1 854 854 950
1983 2 2 1 1 854 950 951
1984 2 2 1 1 854 854 951
1985 2 2 1 1 950 855 949
1986 2 2 1 1 950 950 949
1987 2 2 1 1 863 860 951
1988 2 2 1 1 863 863 951
1989 2 2 1 1 861 862 866
1990 2 2 1 1 861 861 866
1991 2 2 1 1 863 951 952
1992 2 2 1 1 863 863 952
1993 2 2 1 1 951 860 854
1994 2 2 1 1 951 951 854
1995 2 2 1 1 862 952 953
1996 2 2 1 1 862 862 953
1997 2 2 1 1 952 862 863
1998 2 2 1 1 952 952 863
1999 2 2 1 1 953 954 862
2000 2 2 1 1 953 953 862
2001 2 2 1 1 955 871 954
2002 2 2 1 1 955 955 954
2003 2 2 1 1 862 954 871
2004 2 2 1 1 862 862 871
2005 2 2 1 1 437 870 871
2006 2 2 1 1 438 437 871
2007 2 2 1 1 862 871 866
2008 2 2 1 1 862 862 866
2009 2 2 1 1 437 439 875
2010 2 2 1 1 870 437 875
2011 2 2 1 1 438 871 955
2012 2 2 1 1 438 438 955
2013 2 2 1 1 737 957 956
2014 2 2 1 1 736 737 956
2015 2 2 1 1 957 959 958
2016 2 2 1 1 956 957 958
2017 2 2 1 1 959 961 960
2018 2 2 1 1 958 959 960
2019 2 2 1 1 961 873 872
2020 2 2 1 1 960 961 872
2021 2 2 1 1 736 956 962
2022 2 2 1 1 735 736 962
2023 2 2 1 1 956 958 963
2024 2 2 1 1 962 956 963
2025 2 2 1 1 958 960 964
2026 2 2 1 1 963 958 964
2027 2 2 1 1 960 872 874
2028 2 2 1 1 964 960 874
2029 2 2 1 1 735 962 965
2030 2 2 1 1 734 735 965
2031 2 2 1 1 962 963 966
2032 2 2 1 1 965 962 966
2033 2 2 1 1 963 964 967
2034 2 2 1 1 966 963 967
2035 2 2 1 1 964 874 875
2036 2 2 1 1 967 964 875
2037 2 2 1 1 734 965 452
2038 2 2 1 1 212 734 452
2039 2 2 1 1 965 966 453
2040 2 2 1 1 452 965 453
2041 2 2 1 1 966 967 454
2042 2 2 1 1 453 966 454
2043 2 2 1 1 967 875 439
2044 2 2 1 1 454 967 439
2045 2 2 1 1 575 573 968
2046 2 2 1 1 589 575 968
2047 2 2 1 1 573 571 969
2048 2 2 1 1 968 573 969
2049 2 2 1 1 571 567 970
2050 2 2 1 1 969 571 970
2051 2 2 1 1 567 568 739
2052 2 2 1 1 970 567 739
2053 2 2 1 1 589 968 971
2054 2 2 1 1 593 589 971
2055 2 2 1 1 968 969 972
2056 2 2 1 1 971 968 972
2057 2 2 1 1 969 970 973
2058 2 2 1 1 972 969 973
2059 2 2 1 1 970 739 744
2060 2 2 1 1 973 970 744
2061 2 2 1 1 593 971 974
2062 2 2 1 1 597 593 974
2063 2 2 1 1 971 972 975
2064 2 2 1 1 974 971 975
2065 2 2 1 1 972 973 976
2066 2 2 1 1 975 972 976
2067 2 2 1 1 973 744 750
2068 2 2 1 1 976 973 750
2069 2 2 1 1 597 974 977
2070 2 2 1 1 601 597 977
2071 2 2 1 1 974 975 978
2072 2 2 1 1 977 974 978
2073 2 2 1 1 975 976 979
2074 2 2 1 1 978 975 979
2075 2 2 1 1 976 750 753
2076 2 2 1 1 979 976 753
2077 2 2 1 1 601 977 980
2078 2 2 1 1 605 601 980
2079 2 2 1 1 977 978 981
2080 2 2 1 1 980 977 981
2081 2 2 1 1 978 979 982
2082 2 2 1 1 981 978 982
2083 2 2 1 1 979 753 759
2084 2 2 1 1 982 979 759
2085 2 2 1 1 605 980 983
2086 2 2 1 1 609 605 983
2087 2 2 1 1 980 981 984
2088 2 2 1 1 983 980 984
2089 2 2 1 1 981 982 985
2090 2 2 1 1 984 981 985
2091 2 2 1 1 982 759 763
2092 2 2 1 1 985 982 763
2093 2 2 1 1 609 983 986
2094 2 2 1 1 613 609 986
2095 2 2 1 1 983 984 987
2096 2 2 1 1 986 983 987
2097 2 2 1 1 984 985 988
2098 2 2 1 1 987 984 988
2099 2 2 1 1 985 763 765
2100 2 2 1 1 988 985 765
2101 2 2 1 1 613 986 989
2102 2 2 1 1 617 613 989
2103 2 2 1 1 986 987 990
2104 2 2 1 1 989 986 990
2105 2 2 1 1 987 988 991
2106 2 2 1 1 990 987 991
2107 2 2 1 1 988 765 771
2108 2 2 1 1 991 988 771
2109 2 2 1 1 617 989 992
2110 2 2 1 1 621 617 992
2111 2 2 1 1 989 990 993
2112 2 2 1 1 992 989 993
2113 2 2 1 1 990 991 994
2114 2 2 1 1 993 990 994
2115 2 2 1 1 991 771 775
2116 2 2 1 1 994 991 775
2117 2 2 1 1 621 992 995
2118 2 2 1 1 625 621 995
2119 2 2 1 1 992 993 996
2120 2 2 1 1 995 992 996
2121 2 2 1 1 993 994 997
2122 2 2 1 1 996 993 997
2123 2 2 1 1 994 775 778
2124 2 2 1 1 997 994 778
2125 2 2 1 1 625 995 998
2126 2 2 1 1 629 625 998
2127 2 2 1 1 995 996 999
2128 2 2 1 1 998 995 999
2129 2 2 1 1 996 997 1000
2130 2 2 1 1 999 996 1000
2131 2 2 1 1 997 778 781
2132 2 2 1 1 1000 997 781
2133 2 2 1 1 629 998 1001
2134 2 2 1 1 633 629 1001
2135 2 2 1 1 998 999 1002
2136 2 2 1 1 1001 998 1002
2137 2 2 1 1 999 1000 1003
2138 2 2 1 1 1002 999 1003
2139 2 2 1 1 1000 781 784
2140 2 2 1 1 1003 1000 784
2141 2 2 1 1 633 1001 1004
2142 2 2 1 1 637 633 1004
2143 2 2 1 1 1001 1002 1005
2144 2 2 1 1 1004 1001 1005
2145 2 2 1 1 1002 1003 1006
2146 2 2 1 1 1005 1002 1006
2147 2 2 1 1 1003 784 787
2148 2 2 1 1 1006 1003 787
2149 2 2 1 1 637 1004 1007
2150 2 2 1 1 641 637 1007
2151 2 2 1 1 1004 1005 1008
2152 2 2 1 1 1007 1004 1008
2153 2 2 1 1 1005 1006 1009
2154 2 2 1 1 1008 1005 1009
2155 2 2 1 1 1006 787 790
2156 2 2 1 1 1009 1006 790
2157 2 2 1 1 641 1007 1010
2158 2 2 1 1 645 641 1010
2159 2 2 1 1 1007 1008 1011
2160 2 2 1 1 1010 1007 1011
2161 2 2 1 1 1008 1009 1012
2162 2 2 1 1 1011 1008 1012
2163 2 2 1 1 1009 790 793
2164 2 2 1 1 1012 1009 793
2165 2 2 1 1 645 1010 1013
2166 2 2 1 1 649 645 1013
2167 2 2 1 1 1010 1011 1014
2168 2 2 1 1 1013 1010 1014
2169 2 2 1 1 1011 1012 1015
2170 2 2 1 1 1014 1011 1015
2171 2 2 1 1 1012 793 796
2172 2 2 1 1 1015 1012 796
2173 2 2 1 1 649 1013 1016
2174 2 2 1 1 653 649 1016
2175 2 2 1 1 1013 1014 1017
2176 2 2 1 1 1016 1013 1017
2177 2 2 1 1 1014 1015 1018
2178 2 2 1 1 1017 1014 1018
2179 2 2 1 1 1015 796 799
2180 2 2 1 1 1018 1015 799
2181 2 2 1 1 653 1016 1019
2182 2 2 1 1 657 653 1019
2183 2 2 1 1 1016 1017 1020
2184 2 2 1 1 1019 1016 1020
2185 2 2 1 1 1017 1018 1021
2186 2 2 1 1 1020 1017 1021
2187 2 2 1 1 1018 799 802
2188 2 2 1 1 1021 1018 802
2189 2 2 1 1 657 1019 1022
2190 2 2 1 1 661 657 1022
2191 2 2 1 1 1019 1020 1023
2192 2 2 1 1 1022 1019 1023
2193 2 2 1 1 1020 1021 1024
2194 2 2 1 1 1023 1020 1024
2195 2 2 1 1 1021 802 805
2196 2 2 1 1 1024 1021 805
2197 2 2 1 1 661 1022 1025
2198 2 2 1 1 665 661 1025
2199 2 2 1 1 1022 1023 1026
2200 2 2 1 1 1025 1022 1026
2201 2 2 1 1 1023 1024 1027
2202 2 2 1 1 1026 1023 1027
2203 2 2 1 1 1024 805 808
2204 2 2 1 1 1027 1024 808
2205 2 2 1 1 665 1025 1028
2206 2 2 1 1 669 665 1028
2207 2 2 1 1 1025 1026 1029
2208 2 2 1 1 1028 1025 1029
2209 2 2 1 1 1026 1027 1030
2210 2 2 1 1 1029 1026 1030
2211 2 2 1 1 1027 808 811
2212 2 2 1 1 1030 1027 811
2213 2 2 1 1 669 1028 1031
2214 2 2 1 1 673 669 1031
2215 2 2 1 1 1028 1029 1032
2216 2 2 1 1 1031 1028 1032
2217 2 2 1 1 1029 1030 1033
2218 2 2 1 1 1032 1029 1033
2219 2 2 1 1 1030 811 814
2220 2 2 1 1 1033 1030 814
2221 2 2 1 1 673 1031 1034
2222 2 2 1 1 677 673 1034
2223 2 2 1 1 1031 1032 1035
2224 2 2 1 1 1034 1031 1035
2225 2 2 1 1 1032 1033 1036
2226 2 2 1 1 1035 1032 1036
2227 2 2 1 1 1033 814 817
2228 2 2 1 1 1036 1033 817
2229 2 2 1 1 677 1034 1037
2230 2 2 1 1 681 677 1037
2231 2 2 1 1 1034 1035 1038
2232 2 2 1 1 1037 1034 1038
2233 2 2 1 1 1035 1036 1039
2234 2 2 1 1 1038 1035 1039
2235 2 2 1 1 1036 817 820
2236 2 2 1 1 1039 1036 820
2237 2 2 1 1 681 1037 1040
2238 2 2 1 1 685 681 1040
2239 2 2 1 1 1037 1038 1041
2240 2 2 1 1 1040 1037 1041
2241 2 2 1 1 1038 1039 1042
2242 2 2 1 1 1041 1038 1042
2243 2 2 1 1 1039 820 823
2244 2 2 1 1 1042 1039 823
2245 2 2 1 1 685 1040 1043
2246 2 2 1 1 689 685 1043
2247 2 2 1 1 1040 1041 1044
2248 2 2 1 1 1043 1040 1044
2249 2 2 1 1 1041 1042 1045
2250 2 2 1 1 1044 1041 1045
2251 2 2 1 1 1042 823 826
2252 2 2 1 1 1045 1042 826
2253 2 2 1 1 689 1043 1046
2254 2 2 1 1 693 689 1046
2255 2 2 1 1 1043 1044 1047
2256 2 2 1 1 1046 1043 1047
2257 2 2 1 1 1044 1045 1048
2258 2 2 1 1 1047 1044 1048
2259 2 2 1 1 1045 826 829
2260 2 2 1 1 1048 1045 829
2261 2 2 1 1 693 1046 1049
2262 2 2 1 1 697 693 1049
2263 2 2 1 1 1046 1047 1050
2264 2 2 1 1 1049 1046 1050
2265 2 2 1 1 1047 1048 1051
2266 2 2 1 1 1050 1047 1051
2267 2 2 1 1 1048 829 832
2268 2 2 1 1 1051 1048 832
2269 2 2 1 1 697 1049 1052
2270 2 2 1 1 701 697 1052
2271 2 2 1 1 1049 1050 1053
2272 2 2 1 1 1052 1049 1053
2273 2 2 1 1 1050 1051 1054
2274 2 2 1 1 1053 1050 1054
2275 2 2 1 1 1051 832 835
2276 2 2 1 1 1054 1051 835
2277 2 2 1 1 701 1052 1055
2278 2 2 1 1 705 701 1055
2279 2 2 1 1 1052 1053 1056
2280 2 2 1 1 1055 1052 1056
2281 2 2 1 1 1053 1054 1057
2282 2 2 1 1 1056 1053 1057
2283 2 2 1 1 1054 835 838
2284 2 2 1 1 1057 1054 838
2285 2 2 1 1 705 1055 1058
2286 2 2 1 1 709 705 1058
2287 2 2 1 1 1055 1056 1059
2288 2 2 1 1 1058 1055 1059
2289 2 2 1 1 1056 1057 1060
2290 2 2 1 1 1059 1056 1060
2291 2 2 1 1 1057 838 841
2292 2 2 1 1 1060 1057 841
2293 2 2 1 1 709 1058 1061
2294 2 2 1 1 713 709 1061
2295 2 2 1 1 1058 1059 1062
2296 2 2 1 1 1061 1058 1062
2297 2 2 1 1 1059 1060 1063
2298 2 2 1 1 1062 1059 1063
2299 2 2 1 1 1060 841 844
2300 2 2 1 1 1063 1060 844
2301 2 2 1 1 713 1061 1064
2302 2 2 1 1 717 713 1064
2303 2 2 1 1 1061 1062 1065
2304 2 2 1 1 1064 1061 1065
2305 2 2 1 1 1062 1063 1066
2306 2 2 1 1 1065 1062 1066
2307 2 2 1 1 1063 844 847
2308 2 2 1 1 1066 1063 847
2309 2 2 1 1 717 1064 1067
2310 2 2 1 1 721 717 1067
2311 2 2 1 1 1064 1065 1068
2312 2 2 1 1 1067 1064 1068
2313 2 2 1 1 1065 1066 1069
2314 2 2 1 1 1068 1065 1069
2315 2 2 1 1 1066 847 852
2316 2 2 1 1 1069 1066 852
2317 2 2 1 1 721 1067 1070
2318 2 2 1 1 725 721 1070
2319 2 2 1 1 1067 1068 1071
2320 2 2 1 1 1070 1067 1071
2321 2 2 1 1 1068 1069 1072
2322 2 2 1 1 1071 1068 1072
2323 2 2 1 1 1069 852 859
2324 2 2 1 1 1072 1069 859
2325 2 2 1 1 725 1070 1073
2326 2 2 1 1 729 725 1073
2327 2 2 1 1 1070 1071 1074
2328 2 2 1 1 1073 1070 1074
2329 2 2 1 1 1071 1072 1075
2330 2 2 1 1 1074 1071 1075
2331 2 2 1 1 1072 859 865
2332 2 2 1 1 1075 1072 865
2333 2 2 1 1 729 1073 1076
2334 2 2 1 1 733 729 1076
2335 2 2 1 1 1073 1074 1077
2336 2 2 1 1 1076 1073 1077
2337 2 2 1 1 1074 1075 1078
2338 2 2 1 1 1077 1074 1078
2339 2 2 1 1 1075 865 868
2340 2 2 1 1 1078 1075 868
2341 2 2 1 1 733 1076 957
2342 2 2 1 1 737 733 957
2343 2 2 1 1 1076 1077 959
2344 2 2 1 1 957 1076 959
2345 2 2 1 1 1077 1078 961
2346 2 2 1 1 959 1077 961
2347 2 2 1 1 1078 868 873
2348 2 2 1 1 961 1078 873
$EndElements
