# Converted from GDF: L01 Vessel mesh.gdf
# Rhino->WAMIT file export (mesh)
# Vertices: 922
# Faces: 1540

o Rhino->WAMIT_file_export_(mesh)

v 46.350000 1.960000 -6.450000
v 46.350000 3.150000 -5.110000
v 46.350000 0.000000 -6.660000
v -51.500000 1.430000 0.000000
v -51.500000 0.000000 0.000000
v -51.500000 0.000000 2.499980
v -51.500000 1.430000 2.499970
v -49.206340 2.497950 2.499980
v -49.207550 2.500410 0.000000
v -51.500000 1.430000 5.000000
v -49.207470 2.500440 5.000000
v -51.500000 0.000000 5.000000
v 51.500000 0.000000 5.000000
v 51.500000 0.000000 2.499930
v 49.588420 1.656830 2.499980
v 49.589330 1.657890 5.000000
v 51.500000 0.000000 0.000000
v 49.589260 1.657960 0.000000
v 47.579610 3.193070 0.000000
v 47.579790 3.192890 2.499960
v 45.469410 4.587380 0.000000
v 45.468990 4.586800 2.500020
v 43.249790 5.801950 0.000000
v 43.248740 5.796980 2.500070
v 40.899860 6.737080 0.000000
v 40.898750 6.727880 2.500050
v 38.447990 7.366560 0.000000
v 38.449370 7.366030 2.500010
v 35.981550 7.980000 0.000000
v 35.985040 7.949090 2.500130
v 33.463330 7.980000 0.000000
v 33.463600 7.980000 2.499910
v 30.933240 7.980000 0.000000
v 30.933080 7.980000 2.500040
v 28.403060 7.980000 0.000000
v 28.403050 7.980000 2.500040
v 25.872890 7.980000 0.000000
v 25.872920 7.980000 2.500020
v 23.342800 7.980000 0.000000
v 23.342790 7.980000 2.500000
v 20.812630 7.980000 0.000000
v 20.812650 7.980000 2.500030
v 18.282580 7.980000 0.000000
v 18.282520 7.980000 2.500010
v 15.752360 7.980000 0.000000
v 15.752390 7.980000 2.500000
v 13.222250 7.980000 0.000000
v 13.222260 7.980000 2.500000
v 10.692120 7.980000 0.000000
v 10.692110 7.980000 2.500000
v 8.161980 7.980000 0.000000
v 8.161990 7.980000 2.499990
v 5.631840 7.980000 0.000000
v 5.631850 7.980000 2.500010
v 3.101710 7.980000 0.000000
v 3.101730 7.980000 2.500010
v 0.571590 7.980000 0.000000
v 0.571590 7.980000 2.500000
v -1.958540 7.980000 0.000000
v -1.958550 7.980000 2.500000
v -4.488680 7.980000 0.000000
v -4.488680 7.980000 2.499980
v -7.018860 7.980000 0.000000
v -7.018810 7.980000 2.500000
v -9.548950 7.980000 0.000000
v -9.548940 7.980000 2.500000
v -12.079120 7.980000 0.000000
v -12.079080 7.980000 2.500020
v -14.609210 7.980000 0.000000
v -14.609210 7.980000 2.500040
v -17.139320 7.980000 0.000000
v -17.139350 7.980000 2.500010
v -19.669480 7.980000 0.000000
v -19.669480 7.980000 2.499980
v -22.199630 7.980000 0.000000
v -22.199610 7.980000 2.500020
v -24.729890 7.980000 0.000000
v -24.729680 7.980000 2.500040
v -27.259320 7.980000 0.000000
v -27.259570 7.979350 2.499990
v -29.780170 7.799430 0.000000
v -29.779910 7.799140 2.499910
v -32.286890 7.455730 0.000000
v -32.286870 7.455670 2.500000
v -34.789800 7.086330 0.000000
v -34.789880 7.086100 2.500090
v -37.272410 6.606240 0.000000
v -37.272190 6.606000 2.500000
v -39.732210 6.014100 0.000000
v -39.732400 6.013930 2.500050
v -42.162270 5.316860 0.000000
v -42.162030 5.316120 2.499970
v -44.538250 4.447910 0.000000
v -44.538130 4.447700 2.499980
v -46.890090 3.515540 0.000000
v -46.889740 3.514810 2.499990
v -46.890160 3.515510 5.000000
v -44.538150 4.447950 5.000000
v -42.162490 5.316790 5.000000
v -39.732170 6.014110 5.000000
v -37.272490 6.606220 5.000000
v -34.789810 7.086330 5.000000
v -32.286680 7.455760 5.000000
v -29.780180 7.799430 5.000000
v -27.259530 7.980000 5.000000
v -24.729790 7.980000 5.000000
v -22.199600 7.980000 5.000000
v -19.669490 7.980000 5.000000
v -17.139350 7.980000 5.000000
v -14.609210 7.980000 5.000000
v -12.079040 7.980000 5.000000
v -9.548940 7.980000 5.000000
v -7.018770 7.980000 5.000000
v -4.488680 7.980000 5.000000
v -1.958540 7.980000 5.000000
v 0.571590 7.980000 5.000000
v 3.101720 7.980000 5.000000
v 5.631870 7.980000 5.000000
v 8.161990 7.980000 5.000000
v 10.692120 7.980000 5.000000
v 13.222250 7.980000 5.000000
v 15.752410 7.980000 5.000000
v 18.282480 7.980000 5.000000
v 20.812680 7.980000 5.000000
v 23.342780 7.980000 5.000000
v 25.872940 7.980000 5.000000
v 28.403050 7.980000 5.000000
v 30.933370 7.980000 5.000000
v 33.463390 7.980000 5.000000
v 35.986950 7.980000 5.000000
v 38.448030 7.366550 5.000000
v 40.901430 6.736680 5.000000
v 43.249920 5.801890 5.000000
v 45.469520 4.587320 5.000000
v 47.579650 3.193040 5.000000
v -51.500000 0.000000 -0.970000
v -48.930000 1.360000 -1.130000
v -48.930000 0.000000 -2.420000
v -48.930000 2.630000 0.000000
v -46.350000 1.000000 -4.300000
v -46.350000 0.000000 -6.660000
v -46.350000 2.270000 -1.510000
v -46.350000 3.750000 0.000000
v -43.780000 1.910000 -4.570000
v -43.780000 0.000000 -6.660000
v -43.780000 3.350000 -1.880000
v -43.780000 4.740000 0.000000
v -41.200000 2.790000 -4.890000
v -41.200000 0.000000 -6.660000
v -41.200000 4.310000 -2.260000
v -41.200000 5.660000 0.000000
v -38.630000 2.410000 -6.450000
v -38.630000 0.000000 -6.660000
v -38.630000 3.550000 -5.160000
v -38.630000 5.110000 -2.530000
v -38.630000 6.280000 0.000000
v -36.050000 2.030000 -6.660000
v -36.050000 0.000000 -6.660000
v -36.050000 4.310000 -5.430000
v -36.050000 5.900000 -2.800000
v -36.050000 6.900000 0.000000
v -33.480000 2.030000 -6.660000
v -33.480000 0.000000 -6.660000
v -33.480000 4.150000 -6.660000
v -33.480000 4.950000 -5.660000
v -33.480000 6.500000 -3.010000
v -33.480000 7.280000 0.000000
v -30.900000 2.030000 -6.660000
v -30.900000 0.000000 -6.660000
v -30.900000 3.990000 -6.660000
v -30.900000 5.580000 -5.870000
v -30.900000 7.100000 -3.230000
v -30.900000 7.660000 0.000000
v -28.330000 2.030000 -6.660000
v -28.330000 0.000000 -6.660000
v -28.330000 3.990000 -6.660000
v -28.330000 6.060000 -6.450000
v -28.330000 7.820000 -3.440000
v -28.330000 7.980000 0.000000
v -25.750000 2.030000 -6.660000
v -25.750000 0.000000 -6.660000
v -25.750000 3.990000 -6.660000
v -25.750000 6.540000 -6.450000
v -25.750000 7.740000 -3.440000
v -25.750000 7.980000 0.000000
v -23.180000 2.030000 -6.660000
v -23.180000 0.000000 -6.660000
v -23.180000 3.990000 -6.660000
v -23.180000 6.300000 -6.560000
v -23.180000 6.980000 -6.300000
v -23.180000 7.860000 -3.440000
v -23.180000 7.980000 0.000000
v -20.600000 2.030000 -6.660000
v -20.600000 0.000000 -6.660000
v -20.600000 3.990000 -6.660000
v -20.600000 6.060000 -6.660000
v -20.600000 7.420000 -6.130000
v -20.600000 7.980000 -3.440000
v -20.600000 7.980000 0.000000
v -18.030000 2.030000 -6.660000
v -18.030000 0.000000 -6.660000
v -18.030000 3.990000 -6.660000
v -18.030000 6.060000 -6.660000
v -18.030000 7.660000 -6.130000
v -18.030000 7.980000 -3.440000
v -18.030000 7.980000 0.000000
v -15.450000 2.030000 -6.660000
v -15.450000 0.000000 -6.660000
v -15.450000 3.990000 -6.660000
v -15.450000 6.060000 -6.660000
v -15.450000 7.900000 -6.130000
v -15.450000 7.980000 -3.440000
v -15.450000 7.980000 0.000000
v -12.880000 2.030000 -6.660000
v -12.880000 0.000000 -6.660000
v -12.880000 3.990000 -6.660000
v -12.880000 6.060000 -6.660000
v -12.880000 7.900000 -6.130000
v -12.880000 7.980000 -3.440000
v -12.880000 7.980000 0.000000
v -10.300000 2.030000 -6.660000
v -10.300000 0.000000 -6.660000
v -10.300000 3.990000 -6.660000
v -10.300000 6.060000 -6.660000
v -10.300000 7.900000 -6.130000
v -10.300000 7.980000 -3.440000
v -10.300000 7.980000 0.000000
v -7.730000 2.030000 -6.660000
v -7.730000 0.000000 -6.660000
v -7.730000 3.990000 -6.660000
v -7.730000 6.060000 -6.660000
v -7.730000 7.900000 -6.130000
v -7.730000 7.980000 -3.440000
v -7.730000 7.980000 0.000000
v -5.150000 2.030000 -6.660000
v -5.150000 0.000000 -6.660000
v -5.150000 3.990000 -6.660000
v -5.150000 6.060000 -6.660000
v -5.150000 7.900000 -6.130000
v -5.150000 7.980000 -3.440000
v -5.150000 7.980000 0.000000
v -2.580000 2.030000 -6.660000
v -2.580000 0.000000 -6.660000
v -2.580000 3.990000 -6.660000
v -2.580000 6.060000 -6.660000
v -2.580000 7.900000 -6.130000
v -2.580000 7.980000 -3.440000
v -2.580000 7.980000 0.000000
v 0.000000 2.030000 -6.660000
v 0.000000 0.000000 -6.660000
v 0.000000 3.990000 -6.660000
v 0.000000 6.060000 -6.660000
v 0.000000 7.900000 -6.130000
v 0.000000 7.980000 -3.440000
v 0.000000 7.980000 0.000000
v 2.580000 2.030000 -6.660000
v 2.580000 0.000000 -6.660000
v 2.580000 3.990000 -6.660000
v 2.580000 6.060000 -6.660000
v 2.580000 7.900000 -6.130000
v 2.580000 7.980000 -3.440000
v 2.580000 7.980000 0.000000
v 5.150000 2.030000 -6.660000
v 5.150000 0.000000 -6.660000
v 5.150000 3.990000 -6.660000
v 5.150000 6.060000 -6.660000
v 5.150000 7.900000 -6.130000
v 5.150000 7.980000 -3.440000
v 5.150000 7.980000 0.000000
v 7.730000 2.030000 -6.660000
v 7.730000 0.000000 -6.660000
v 7.730000 3.990000 -6.660000
v 7.730000 6.060000 -6.660000
v 7.730000 7.900000 -6.130000
v 7.730000 7.980000 -3.440000
v 7.730000 7.980000 0.000000
v 10.300000 2.030000 -6.660000
v 10.300000 0.000000 -6.660000
v 10.300000 3.990000 -6.660000
v 10.300000 6.060000 -6.660000
v 10.300000 7.900000 -6.130000
v 10.300000 7.980000 -3.440000
v 10.300000 7.980000 0.000000
v 12.880000 2.030000 -6.660000
v 12.880000 0.000000 -6.660000
v 12.880000 3.990000 -6.660000
v 12.880000 6.060000 -6.660000
v 12.880000 7.900000 -6.130000
v 12.880000 7.980000 -3.440000
v 12.880000 7.980000 0.000000
v 15.450000 2.030000 -6.660000
v 15.450000 0.000000 -6.660000
v 15.450000 3.990000 -6.660000
v 15.450000 6.060000 -6.660000
v 15.450000 7.900000 -6.130000
v 15.450000 7.980000 -3.440000
v 15.450000 7.980000 0.000000
v 18.030000 2.030000 -6.660000
v 18.030000 0.000000 -6.660000
v 18.030000 3.990000 -6.660000
v 18.030000 6.060000 -6.660000
v 18.030000 7.900000 -6.130000
v 18.030000 7.980000 -3.440000
v 18.030000 7.980000 0.000000
v 20.600000 2.030000 -6.660000
v 20.600000 0.000000 -6.660000
v 20.600000 3.990000 -6.660000
v 20.600000 6.060000 -6.660000
v 20.600000 7.900000 -6.130000
v 20.600000 7.980000 -3.440000
v 20.600000 7.980000 0.000000
v 23.180000 2.030000 -6.660000
v 23.180000 0.000000 -6.660000
v 23.180000 3.990000 -6.660000
v 23.180000 6.060000 -6.660000
v 23.180000 7.900000 -6.130000
v 23.180000 7.980000 -3.440000
v 23.180000 7.980000 0.000000
v 25.750000 2.030000 -6.660000
v 25.750000 0.000000 -6.660000
v 25.750000 3.990000 -6.660000
v 25.750000 6.060000 -6.660000
v 25.750000 7.900000 -6.130000
v 25.750000 7.980000 -3.440000
v 25.750000 7.980000 0.000000
v 28.330000 2.030000 -6.660000
v 28.330000 0.000000 -6.660000
v 28.330000 3.990000 -6.660000
v 28.330000 6.060000 -6.660000
v 28.330000 7.900000 -6.130000
v 28.330000 7.980000 -3.440000
v 28.330000 7.980000 0.000000
v 30.900000 2.030000 -6.660000
v 30.900000 0.000000 -6.660000
v 30.900000 3.990000 -6.660000
v 30.900000 6.060000 -6.660000
v 30.900000 7.900000 -6.130000
v 30.900000 7.980000 -3.440000
v 30.900000 7.980000 0.000000
v 33.480000 2.030000 -6.660000
v 33.480000 0.000000 -6.660000
v 33.480000 3.990000 -6.660000
v 33.480000 6.420000 -6.400000
v 33.480000 7.340000 -6.130000
v 33.480000 7.820000 -3.440000
v 33.480000 7.980000 0.000000
v 36.050000 2.030000 -6.660000
v 36.050000 0.000000 -6.660000
v 36.050000 3.990000 -6.660000
v 36.050000 6.780000 -6.130000
v 36.050000 7.660000 -3.440000
v 36.050000 7.980000 0.000000
v 38.630000 2.030000 -6.660000
v 38.630000 0.000000 -6.660000
v 38.630000 3.990000 -6.660000
v 38.630000 6.120000 -5.860000
v 38.630000 7.020000 -3.280000
v 38.630000 7.320000 0.000000
v 41.200000 2.030000 -6.660000
v 41.200000 0.000000 -6.660000
v 41.200000 3.990000 -6.660000
v 41.200000 5.460000 -5.590000
v 41.200000 6.380000 -3.120000
v 41.200000 6.660000 0.000000
v 43.780000 2.030000 -6.660000
v 43.780000 0.000000 -6.660000
v 43.780000 4.230000 -5.590000
v 43.780000 5.260000 -2.800000
v 43.780000 5.580000 0.000000
v 46.350000 3.750000 -2.050000
v 46.350000 4.070000 0.000000
v 48.930000 1.760000 -5.050000
v 48.930000 0.000000 -6.660000
v 48.930000 2.030000 -3.490000
v 48.930000 2.070000 -1.880000
v 48.930000 2.230000 0.000000
v 51.500000 0.720000 -5.050000
v 51.500000 0.000000 -6.660000
v 51.500000 0.800000 -3.490000
v 51.500000 0.560000 -1.880000
v 51.710000 0.000000 -5.050000
v 51.710000 0.000000 -6.660000
v 51.710000 0.000000 -3.490000
v 51.710000 0.000000 -1.880000
v 48.768000 0.000000 5.000000
v 49.833920 1.445660 5.000000
v 47.024230 1.375050 5.000000
v 47.923380 2.947900 5.000000
v 45.765460 4.413440 5.000000
v 44.689400 2.316730 5.000000
v 46.583910 0.000000 5.000000
v 44.207540 0.000000 5.000000
v 42.303070 2.984640 5.000000
v 41.845090 0.000000 5.000000
v 43.410560 5.734650 5.000000
v 40.793560 6.764380 5.000000
v 39.862080 3.478580 5.000000
v 39.488850 0.000000 5.000000
v 37.380330 3.828670 5.000000
v 37.115810 0.000000 5.000000
v 38.027760 7.474060 5.000000
v 35.277110 7.980000 5.000000
v 34.877080 4.036070 5.000000
v 34.727270 0.000000 5.000000
v 32.382830 4.058430 5.000000
v 32.314780 0.000000 5.000000
v 32.497650 7.980000 5.000000
v 29.935060 7.980000 5.000000
v 29.898610 4.033650 5.000000
v 29.873130 0.000000 5.000000
v 27.423180 4.012350 5.000000
v 27.414620 0.000000 5.000000
v 27.431710 7.980000 5.000000
v 24.946120 7.980000 5.000000
v 24.944910 4.000860 5.000000
v 24.943110 0.000000 5.000000
v 22.464550 3.995300 5.000000
v 22.464470 0.000000 5.000000
v 22.464650 7.980000 5.000000
v 19.984150 7.980000 5.000000
v 19.984080 3.992630 5.000000
v 19.984000 0.000000 5.000000
v 17.503780 3.991300 5.000000
v 17.503710 0.000000 5.000000
v 17.503820 7.980000 5.000000
v 15.023530 7.980000 5.000000
v 15.023530 3.990630 5.000000
v 15.023510 0.000000 5.000000
v 12.543270 3.990310 5.000000
v 12.543270 0.000000 5.000000
v 12.543270 7.980000 5.000000
v 10.063000 7.980000 5.000000
v 10.063000 3.990150 5.000000
v 10.063000 0.000000 5.000000
v 7.582730 3.990070 5.000000
v 7.582730 0.000000 5.000000
v 7.582740 7.980000 5.000000
v 5.102470 7.980000 5.000000
v 5.102470 3.990040 5.000000
v 5.102470 0.000000 5.000000
v 2.622200 3.990020 5.000000
v 2.622200 0.000000 5.000000
v 2.622200 7.980000 5.000000
v 0.141930 7.980000 5.000000
v 0.141930 3.990010 5.000000
v 0.141930 0.000000 5.000000
v -2.338330 3.990010 5.000000
v -2.338330 0.000000 5.000000
v -2.338330 7.980000 5.000000
v -4.818600 7.980000 5.000000
v -4.818600 3.990010 5.000000
v -4.818600 0.000000 5.000000
v -7.298870 3.990020 5.000000
v -7.298870 0.000000 5.000000
v -7.298870 7.980000 5.000000
v -9.779140 7.980000 5.000000
v -9.779130 3.990040 5.000000
v -9.779130 0.000000 5.000000
v -12.259400 3.990070 5.000000
v -12.259390 0.000000 5.000000
v -12.259410 7.980000 5.000000
v -14.739700 7.980000 5.000000
v -14.739670 3.990140 5.000000
v -14.739700 0.000000 5.000000
v -17.220000 3.990290 5.000000
v -17.220120 0.000000 5.000000
v -17.220080 7.980000 5.000000
v -19.700920 7.980000 5.000000
v -19.700180 3.990600 5.000000
v -19.699310 0.000000 5.000000
v -22.179730 3.991130 5.000000
v -22.174850 0.000000 5.000000
v -22.185070 7.980000 5.000000
v -24.692140 7.980000 5.000000
v -24.657980 3.991090 5.000000
v -24.643220 0.000000 5.000000
v -27.149640 3.981870 5.000000
v -27.104240 0.000000 5.000000
v -27.309940 7.980000 5.000000
v -29.944690 7.778950 5.000000
v -29.639230 3.910770 5.000000
v -29.551770 0.000000 5.000000
v -32.107270 3.761200 5.000000
v -31.986760 0.000000 5.000000
v -32.506500 7.423380 5.000000
v -35.087700 7.042290 5.000000
v -34.581250 3.558120 5.000000
v -34.419190 0.000000 5.000000
v -37.041370 3.306370 5.000000
v -36.847220 0.000000 5.000000
v -37.630160 6.520270 5.000000
v -40.168510 5.908840 5.000000
v -39.499280 3.000650 5.000000
v -39.278020 0.000000 5.000000
v -41.956030 2.613790 5.000000
v -41.718350 0.000000 5.000000
v -42.645030 5.144720 5.000000
v -45.014040 4.264630 5.000000
v -44.376350 2.144200 5.000000
v -44.158330 0.000000 5.000000
v -46.763580 1.691300 5.000000
v -46.595080 0.000000 5.000000
v -47.291710 3.341200 5.000000
v -49.469850 2.377930 5.000000
v -49.139730 1.225370 5.000000
v -49.038600 0.000000 5.000000
v -51.500000 0.866050 5.000000
v 46.350000 -1.960000 -6.450000
v 46.350000 -3.150000 -5.110000
v -51.500000 -1.430000 0.000000
v -51.500000 -1.430000 2.499970
v -49.206340 -2.497950 2.499980
v -49.207550 -2.500410 0.000000
v -51.500000 -1.430000 5.000000
v -49.207470 -2.500440 5.000000
v 49.588420 -1.656830 2.499980
v 49.589330 -1.657890 5.000000
v 49.589260 -1.657960 0.000000
v 47.579610 -3.193070 0.000000
v 47.579790 -3.192890 2.499960
v 45.469410 -4.587380 0.000000
v 45.468990 -4.586800 2.500020
v 43.249790 -5.801950 0.000000
v 43.248740 -5.796980 2.500070
v 40.899860 -6.737080 0.000000
v 40.898750 -6.727880 2.500050
v 38.447990 -7.366560 0.000000
v 38.449370 -7.366030 2.500010
v 35.981550 -7.980000 0.000000
v 35.985040 -7.949090 2.500130
v 33.463330 -7.980000 0.000000
v 33.463600 -7.980000 2.499910
v 30.933240 -7.980000 0.000000
v 30.933080 -7.980000 2.500040
v 28.403060 -7.980000 0.000000
v 28.403050 -7.980000 2.500040
v 25.872890 -7.980000 0.000000
v 25.872920 -7.980000 2.500020
v 23.342800 -7.980000 0.000000
v 23.342790 -7.980000 2.500000
v 20.812630 -7.980000 0.000000
v 20.812650 -7.980000 2.500030
v 18.282580 -7.980000 0.000000
v 18.282520 -7.980000 2.500010
v 15.752360 -7.980000 0.000000
v 15.752390 -7.980000 2.500000
v 13.222250 -7.980000 0.000000
v 13.222260 -7.980000 2.500000
v 10.692120 -7.980000 0.000000
v 10.692110 -7.980000 2.500000
v 8.161980 -7.980000 0.000000
v 8.161990 -7.980000 2.499990
v 5.631840 -7.980000 0.000000
v 5.631850 -7.980000 2.500010
v 3.101710 -7.980000 0.000000
v 3.101730 -7.980000 2.500010
v 0.571590 -7.980000 0.000000
v 0.571590 -7.980000 2.500000
v -1.958540 -7.980000 0.000000
v -1.958550 -7.980000 2.500000
v -4.488680 -7.980000 0.000000
v -4.488680 -7.980000 2.499980
v -7.018860 -7.980000 0.000000
v -7.018810 -7.980000 2.500000
v -9.548950 -7.980000 0.000000
v -9.548940 -7.980000 2.500000
v -12.079120 -7.980000 0.000000
v -12.079080 -7.980000 2.500020
v -14.609210 -7.980000 0.000000
v -14.609210 -7.980000 2.500040
v -17.139320 -7.980000 0.000000
v -17.139350 -7.980000 2.500010
v -19.669480 -7.980000 0.000000
v -19.669480 -7.980000 2.499980
v -22.199630 -7.980000 0.000000
v -22.199610 -7.980000 2.500020
v -24.729890 -7.980000 0.000000
v -24.729680 -7.980000 2.500040
v -27.259320 -7.980000 0.000000
v -27.259570 -7.979350 2.499990
v -29.780170 -7.799430 0.000000
v -29.779910 -7.799140 2.499910
v -32.286890 -7.455730 0.000000
v -32.286870 -7.455670 2.500000
v -34.789800 -7.086330 0.000000
v -34.789880 -7.086100 2.500090
v -37.272410 -6.606240 0.000000
v -37.272190 -6.606000 2.500000
v -39.732210 -6.014100 0.000000
v -39.732400 -6.013930 2.500050
v -42.162270 -5.316860 0.000000
v -42.162030 -5.316120 2.499970
v -44.538250 -4.447910 0.000000
v -44.538130 -4.447700 2.499980
v -46.890090 -3.515540 0.000000
v -46.889740 -3.514810 2.499990
v -46.890160 -3.515510 5.000000
v -44.538150 -4.447950 5.000000
v -42.162490 -5.316790 5.000000
v -39.732170 -6.014110 5.000000
v -37.272490 -6.606220 5.000000
v -34.789810 -7.086330 5.000000
v -32.286680 -7.455760 5.000000
v -29.780180 -7.799430 5.000000
v -27.259530 -7.980000 5.000000
v -24.729790 -7.980000 5.000000
v -22.199600 -7.980000 5.000000
v -19.669490 -7.980000 5.000000
v -17.139350 -7.980000 5.000000
v -14.609210 -7.980000 5.000000
v -12.079040 -7.980000 5.000000
v -9.548940 -7.980000 5.000000
v -7.018770 -7.980000 5.000000
v -4.488680 -7.980000 5.000000
v -1.958540 -7.980000 5.000000
v 0.571590 -7.980000 5.000000
v 3.101720 -7.980000 5.000000
v 5.631870 -7.980000 5.000000
v 8.161990 -7.980000 5.000000
v 10.692120 -7.980000 5.000000
v 13.222250 -7.980000 5.000000
v 15.752410 -7.980000 5.000000
v 18.282480 -7.980000 5.000000
v 20.812680 -7.980000 5.000000
v 23.342780 -7.980000 5.000000
v 25.872940 -7.980000 5.000000
v 28.403050 -7.980000 5.000000
v 30.933370 -7.980000 5.000000
v 33.463390 -7.980000 5.000000
v 35.986950 -7.980000 5.000000
v 38.448030 -7.366550 5.000000
v 40.901430 -6.736680 5.000000
v 43.249920 -5.801890 5.000000
v 45.469520 -4.587320 5.000000
v 47.579650 -3.193040 5.000000
v -48.930000 -1.360000 -1.130000
v -48.930000 -2.630000 0.000000
v -46.350000 -1.000000 -4.300000
v -46.350000 -2.270000 -1.510000
v -46.350000 -3.750000 0.000000
v -43.780000 -1.910000 -4.570000
v -43.780000 -3.350000 -1.880000
v -43.780000 -4.740000 0.000000
v -41.200000 -2.790000 -4.890000
v -41.200000 -4.310000 -2.260000
v -41.200000 -5.660000 0.000000
v -38.630000 -2.410000 -6.450000
v -38.630000 -3.550000 -5.160000
v -38.630000 -5.110000 -2.530000
v -38.630000 -6.280000 0.000000
v -36.050000 -2.030000 -6.660000
v -36.050000 -4.310000 -5.430000
v -36.050000 -5.900000 -2.800000
v -36.050000 -6.900000 0.000000
v -33.480000 -2.030000 -6.660000
v -33.480000 -4.150000 -6.660000
v -33.480000 -4.950000 -5.660000
v -33.480000 -6.500000 -3.010000
v -33.480000 -7.280000 0.000000
v -30.900000 -2.030000 -6.660000
v -30.900000 -3.990000 -6.660000
v -30.900000 -5.580000 -5.870000
v -30.900000 -7.100000 -3.230000
v -30.900000 -7.660000 0.000000
v -28.330000 -2.030000 -6.660000
v -28.330000 -3.990000 -6.660000
v -28.330000 -6.060000 -6.450000
v -28.330000 -7.820000 -3.440000
v -28.330000 -7.980000 0.000000
v -25.750000 -2.030000 -6.660000
v -25.750000 -3.990000 -6.660000
v -25.750000 -6.540000 -6.450000
v -25.750000 -7.740000 -3.440000
v -25.750000 -7.980000 0.000000
v -23.180000 -2.030000 -6.660000
v -23.180000 -3.990000 -6.660000
v -23.180000 -6.300000 -6.560000
v -23.180000 -6.980000 -6.300000
v -23.180000 -7.860000 -3.440000
v -23.180000 -7.980000 0.000000
v -20.600000 -2.030000 -6.660000
v -20.600000 -3.990000 -6.660000
v -20.600000 -6.060000 -6.660000
v -20.600000 -7.420000 -6.130000
v -20.600000 -7.980000 -3.440000
v -20.600000 -7.980000 0.000000
v -18.030000 -2.030000 -6.660000
v -18.030000 -3.990000 -6.660000
v -18.030000 -6.060000 -6.660000
v -18.030000 -7.660000 -6.130000
v -18.030000 -7.980000 -3.440000
v -18.030000 -7.980000 0.000000
v -15.450000 -2.030000 -6.660000
v -15.450000 -3.990000 -6.660000
v -15.450000 -6.060000 -6.660000
v -15.450000 -7.900000 -6.130000
v -15.450000 -7.980000 -3.440000
v -15.450000 -7.980000 0.000000
v -12.880000 -2.030000 -6.660000
v -12.880000 -3.990000 -6.660000
v -12.880000 -6.060000 -6.660000
v -12.880000 -7.900000 -6.130000
v -12.880000 -7.980000 -3.440000
v -12.880000 -7.980000 0.000000
v -10.300000 -2.030000 -6.660000
v -10.300000 -3.990000 -6.660000
v -10.300000 -6.060000 -6.660000
v -10.300000 -7.900000 -6.130000
v -10.300000 -7.980000 -3.440000
v -10.300000 -7.980000 0.000000
v -7.730000 -2.030000 -6.660000
v -7.730000 -3.990000 -6.660000
v -7.730000 -6.060000 -6.660000
v -7.730000 -7.900000 -6.130000
v -7.730000 -7.980000 -3.440000
v -7.730000 -7.980000 0.000000
v -5.150000 -2.030000 -6.660000
v -5.150000 -3.990000 -6.660000
v -5.150000 -6.060000 -6.660000
v -5.150000 -7.900000 -6.130000
v -5.150000 -7.980000 -3.440000
v -5.150000 -7.980000 0.000000
v -2.580000 -2.030000 -6.660000
v -2.580000 -3.990000 -6.660000
v -2.580000 -6.060000 -6.660000
v -2.580000 -7.900000 -6.130000
v -2.580000 -7.980000 -3.440000
v -2.580000 -7.980000 0.000000
v 0.000000 -2.030000 -6.660000
v 0.000000 -3.990000 -6.660000
v 0.000000 -6.060000 -6.660000
v 0.000000 -7.900000 -6.130000
v 0.000000 -7.980000 -3.440000
v 0.000000 -7.980000 0.000000
v 2.580000 -2.030000 -6.660000
v 2.580000 -3.990000 -6.660000
v 2.580000 -6.060000 -6.660000
v 2.580000 -7.900000 -6.130000
v 2.580000 -7.980000 -3.440000
v 2.580000 -7.980000 0.000000
v 5.150000 -2.030000 -6.660000
v 5.150000 -3.990000 -6.660000
v 5.150000 -6.060000 -6.660000
v 5.150000 -7.900000 -6.130000
v 5.150000 -7.980000 -3.440000
v 5.150000 -7.980000 0.000000
v 7.730000 -2.030000 -6.660000
v 7.730000 -3.990000 -6.660000
v 7.730000 -6.060000 -6.660000
v 7.730000 -7.900000 -6.130000
v 7.730000 -7.980000 -3.440000
v 7.730000 -7.980000 0.000000
v 10.300000 -2.030000 -6.660000
v 10.300000 -3.990000 -6.660000
v 10.300000 -6.060000 -6.660000
v 10.300000 -7.900000 -6.130000
v 10.300000 -7.980000 -3.440000
v 10.300000 -7.980000 0.000000
v 12.880000 -2.030000 -6.660000
v 12.880000 -3.990000 -6.660000
v 12.880000 -6.060000 -6.660000
v 12.880000 -7.900000 -6.130000
v 12.880000 -7.980000 -3.440000
v 12.880000 -7.980000 0.000000
v 15.450000 -2.030000 -6.660000
v 15.450000 -3.990000 -6.660000
v 15.450000 -6.060000 -6.660000
v 15.450000 -7.900000 -6.130000
v 15.450000 -7.980000 -3.440000
v 15.450000 -7.980000 0.000000
v 18.030000 -2.030000 -6.660000
v 18.030000 -3.990000 -6.660000
v 18.030000 -6.060000 -6.660000
v 18.030000 -7.900000 -6.130000
v 18.030000 -7.980000 -3.440000
v 18.030000 -7.980000 0.000000
v 20.600000 -2.030000 -6.660000
v 20.600000 -3.990000 -6.660000
v 20.600000 -6.060000 -6.660000
v 20.600000 -7.900000 -6.130000
v 20.600000 -7.980000 -3.440000
v 20.600000 -7.980000 0.000000
v 23.180000 -2.030000 -6.660000
v 23.180000 -3.990000 -6.660000
v 23.180000 -6.060000 -6.660000
v 23.180000 -7.900000 -6.130000
v 23.180000 -7.980000 -3.440000
v 23.180000 -7.980000 0.000000
v 25.750000 -2.030000 -6.660000
v 25.750000 -3.990000 -6.660000
v 25.750000 -6.060000 -6.660000
v 25.750000 -7.900000 -6.130000
v 25.750000 -7.980000 -3.440000
v 25.750000 -7.980000 0.000000
v 28.330000 -2.030000 -6.660000
v 28.330000 -3.990000 -6.660000
v 28.330000 -6.060000 -6.660000
v 28.330000 -7.900000 -6.130000
v 28.330000 -7.980000 -3.440000
v 28.330000 -7.980000 0.000000
v 30.900000 -2.030000 -6.660000
v 30.900000 -3.990000 -6.660000
v 30.900000 -6.060000 -6.660000
v 30.900000 -7.900000 -6.130000
v 30.900000 -7.980000 -3.440000
v 30.900000 -7.980000 0.000000
v 33.480000 -2.030000 -6.660000
v 33.480000 -3.990000 -6.660000
v 33.480000 -6.420000 -6.400000
v 33.480000 -7.340000 -6.130000
v 33.480000 -7.820000 -3.440000
v 33.480000 -7.980000 0.000000
v 36.050000 -2.030000 -6.660000
v 36.050000 -3.990000 -6.660000
v 36.050000 -6.780000 -6.130000
v 36.050000 -7.660000 -3.440000
v 36.050000 -7.980000 0.000000
v 38.630000 -2.030000 -6.660000
v 38.630000 -3.990000 -6.660000
v 38.630000 -6.120000 -5.860000
v 38.630000 -7.020000 -3.280000
v 38.630000 -7.320000 0.000000
v 41.200000 -2.030000 -6.660000
v 41.200000 -3.990000 -6.660000
v 41.200000 -5.460000 -5.590000
v 41.200000 -6.380000 -3.120000
v 41.200000 -6.660000 0.000000
v 43.780000 -2.030000 -6.660000
v 43.780000 -4.230000 -5.590000
v 43.780000 -5.260000 -2.800000
v 43.780000 -5.580000 0.000000
v 46.350000 -3.750000 -2.050000
v 46.350000 -4.070000 0.000000
v 48.930000 -1.760000 -5.050000
v 48.930000 -2.030000 -3.490000
v 48.930000 -2.070000 -1.880000
v 48.930000 -2.230000 0.000000
v 51.500000 -0.720000 -5.050000
v 51.500000 -0.800000 -3.490000
v 51.500000 -0.560000 -1.880000
v 49.833920 -1.445660 5.000000
v 47.024230 -1.375050 5.000000
v 47.923380 -2.947900 5.000000
v 45.765460 -4.413440 5.000000
v 44.689400 -2.316730 5.000000
v 42.303070 -2.984640 5.000000
v 43.410560 -5.734650 5.000000
v 40.793560 -6.764380 5.000000
v 39.862080 -3.478580 5.000000
v 37.380330 -3.828670 5.000000
v 38.027760 -7.474060 5.000000
v 35.277110 -7.980000 5.000000
v 34.877080 -4.036070 5.000000
v 32.382830 -4.058430 5.000000
v 32.497650 -7.980000 5.000000
v 29.935060 -7.980000 5.000000
v 29.898610 -4.033650 5.000000
v 27.423180 -4.012350 5.000000
v 27.431710 -7.980000 5.000000
v 24.946120 -7.980000 5.000000
v 24.944910 -4.000860 5.000000
v 22.464550 -3.995300 5.000000
v 22.464650 -7.980000 5.000000
v 19.984150 -7.980000 5.000000
v 19.984080 -3.992630 5.000000
v 17.503780 -3.991300 5.000000
v 17.503820 -7.980000 5.000000
v 15.023530 -7.980000 5.000000
v 15.023530 -3.990630 5.000000
v 12.543270 -3.990310 5.000000
v 12.543270 -7.980000 5.000000
v 10.063000 -7.980000 5.000000
v 10.063000 -3.990150 5.000000
v 7.582730 -3.990070 5.000000
v 7.582740 -7.980000 5.000000
v 5.102470 -7.980000 5.000000
v 5.102470 -3.990040 5.000000
v 2.622200 -3.990020 5.000000
v 2.622200 -7.980000 5.000000
v 0.141930 -7.980000 5.000000
v 0.141930 -3.990010 5.000000
v -2.338330 -3.990010 5.000000
v -2.338330 -7.980000 5.000000
v -4.818600 -7.980000 5.000000
v -4.818600 -3.990010 5.000000
v -7.298870 -3.990020 5.000000
v -7.298870 -7.980000 5.000000
v -9.779140 -7.980000 5.000000
v -9.779130 -3.990040 5.000000
v -12.259400 -3.990070 5.000000
v -12.259410 -7.980000 5.000000
v -14.739700 -7.980000 5.000000
v -14.739670 -3.990140 5.000000
v -17.220000 -3.990290 5.000000
v -17.220080 -7.980000 5.000000
v -19.700920 -7.980000 5.000000
v -19.700180 -3.990600 5.000000
v -22.179730 -3.991130 5.000000
v -22.185070 -7.980000 5.000000
v -24.692140 -7.980000 5.000000
v -24.657980 -3.991090 5.000000
v -27.149640 -3.981870 5.000000
v -27.309940 -7.980000 5.000000
v -29.944690 -7.778950 5.000000
v -29.639230 -3.910770 5.000000
v -32.107270 -3.761200 5.000000
v -32.506500 -7.423380 5.000000
v -35.087700 -7.042290 5.000000
v -34.581250 -3.558120 5.000000
v -37.041370 -3.306370 5.000000
v -37.630160 -6.520270 5.000000
v -40.168510 -5.908840 5.000000
v -39.499280 -3.000650 5.000000
v -41.956030 -2.613790 5.000000
v -42.645030 -5.144720 5.000000
v -45.014040 -4.264630 5.000000
v -44.376350 -2.144200 5.000000
v -46.763580 -1.691300 5.000000
v -47.291710 -3.341200 5.000000
v -49.469850 -2.377930 5.000000
v -49.139730 -1.225370 5.000000
v -51.500000 -0.866050 5.000000

f 1 2 3
f 1 3 3
f 4 5 6
f 4 6 7
f 4 7 8
f 4 8 9
f 10 11 8
f 10 8 7
f 10 7 6
f 10 6 12
f 13 14 15
f 13 15 16
f 17 18 15
f 17 15 14
f 18 19 20
f 18 20 15
f 19 21 22
f 19 22 20
f 21 23 24
f 21 24 22
f 23 25 26
f 23 26 24
f 25 27 28
f 25 28 26
f 27 29 30
f 27 30 28
f 29 31 32
f 29 32 30
f 31 33 34
f 31 34 32
f 33 35 36
f 33 36 34
f 35 37 38
f 35 38 36
f 37 39 40
f 37 40 38
f 39 41 42
f 39 42 40
f 41 43 44
f 41 44 42
f 43 45 46
f 43 46 44
f 45 47 48
f 45 48 46
f 47 49 50
f 47 50 48
f 49 51 52
f 49 52 50
f 51 53 54
f 51 54 52
f 53 55 56
f 53 56 54
f 55 57 58
f 55 58 56
f 57 59 60
f 57 60 58
f 59 61 62
f 59 62 60
f 61 63 64
f 61 64 62
f 63 65 66
f 63 66 64
f 65 67 68
f 65 68 66
f 67 69 70
f 67 70 68
f 69 71 72
f 69 72 70
f 71 73 74
f 71 74 72
f 73 75 76
f 73 76 74
f 75 77 78
f 75 78 76
f 77 79 80
f 77 80 78
f 79 81 82
f 79 82 80
f 81 83 84
f 81 84 82
f 83 85 86
f 83 86 84
f 85 87 88
f 85 88 86
f 87 89 90
f 87 90 88
f 89 91 92
f 89 92 90
f 91 93 94
f 91 94 92
f 93 95 96
f 93 96 94
f 95 9 8
f 95 8 96
f 96 97 98
f 96 98 94
f 96 8 11
f 96 11 97
f 98 99 92
f 98 92 94
f 99 100 90
f 99 90 92
f 100 101 88
f 100 88 90
f 101 102 86
f 101 86 88
f 102 103 84
f 102 84 86
f 103 104 82
f 103 82 84
f 104 105 80
f 104 80 82
f 105 106 78
f 105 78 80
f 106 107 76
f 106 76 78
f 107 108 74
f 107 74 76
f 108 109 72
f 108 72 74
f 109 110 70
f 109 70 72
f 110 111 68
f 110 68 70
f 111 112 66
f 111 66 68
f 112 113 64
f 112 64 66
f 113 114 62
f 113 62 64
f 114 115 60
f 114 60 62
f 115 116 58
f 115 58 60
f 116 117 56
f 116 56 58
f 117 118 54
f 117 54 56
f 118 119 52
f 118 52 54
f 119 120 50
f 119 50 52
f 120 121 48
f 120 48 50
f 121 122 46
f 121 46 48
f 122 123 44
f 122 44 46
f 123 124 42
f 123 42 44
f 124 125 40
f 124 40 42
f 125 126 38
f 125 38 40
f 126 127 36
f 126 36 38
f 127 128 34
f 127 34 36
f 128 129 32
f 128 32 34
f 129 130 30
f 129 30 32
f 130 131 28
f 130 28 30
f 131 132 26
f 131 26 28
f 132 133 24
f 132 24 26
f 133 134 22
f 133 22 24
f 134 135 20
f 134 20 22
f 135 16 15
f 135 15 20
f 5 4 136
f 5 136 136
f 136 4 137
f 136 137 138
f 139 137 4
f 139 4 4
f 140 141 138
f 140 138 138
f 138 137 142
f 138 142 140
f 137 139 143
f 137 143 142
f 141 140 144
f 141 144 145
f 140 142 146
f 140 146 144
f 142 143 147
f 142 147 146
f 145 144 148
f 145 148 149
f 144 146 150
f 144 150 148
f 146 147 151
f 146 151 150
f 149 148 152
f 149 152 153
f 154 152 148
f 154 148 148
f 148 150 155
f 148 155 154
f 150 151 156
f 150 156 155
f 153 152 157
f 153 157 158
f 152 154 159
f 152 159 157
f 154 155 160
f 154 160 159
f 155 156 161
f 155 161 160
f 158 157 162
f 158 162 163
f 157 159 164
f 157 164 162
f 165 164 159
f 165 159 159
f 159 160 166
f 159 166 165
f 160 161 167
f 160 167 166
f 163 162 168
f 163 168 169
f 162 164 170
f 162 170 168
f 164 165 171
f 164 171 170
f 165 166 172
f 165 172 171
f 166 167 173
f 166 173 172
f 169 168 174
f 169 174 175
f 168 170 176
f 168 176 174
f 170 171 177
f 170 177 176
f 171 172 178
f 171 178 177
f 172 173 179
f 172 179 178
f 175 174 180
f 175 180 181
f 174 176 182
f 174 182 180
f 176 177 183
f 176 183 182
f 177 178 184
f 177 184 183
f 178 179 185
f 178 185 184
f 181 180 186
f 181 186 187
f 180 182 188
f 180 188 186
f 182 183 189
f 182 189 188
f 190 189 183
f 190 183 183
f 183 184 191
f 183 191 190
f 184 185 192
f 184 192 191
f 187 186 193
f 187 193 194
f 186 188 195
f 186 195 193
f 188 189 196
f 188 196 195
f 189 190 197
f 189 197 196
f 190 191 198
f 190 198 197
f 191 192 199
f 191 199 198
f 194 193 200
f 194 200 201
f 193 195 202
f 193 202 200
f 195 196 203
f 195 203 202
f 196 197 204
f 196 204 203
f 197 198 205
f 197 205 204
f 198 199 206
f 198 206 205
f 201 200 207
f 201 207 208
f 200 202 209
f 200 209 207
f 202 203 210
f 202 210 209
f 203 204 211
f 203 211 210
f 204 205 212
f 204 212 211
f 205 206 213
f 205 213 212
f 208 207 214
f 208 214 215
f 207 209 216
f 207 216 214
f 209 210 217
f 209 217 216
f 210 211 218
f 210 218 217
f 211 212 219
f 211 219 218
f 212 213 220
f 212 220 219
f 215 214 221
f 215 221 222
f 214 216 223
f 214 223 221
f 216 217 224
f 216 224 223
f 217 218 225
f 217 225 224
f 218 219 226
f 218 226 225
f 219 220 227
f 219 227 226
f 222 221 228
f 222 228 229
f 221 223 230
f 221 230 228
f 223 224 231
f 223 231 230
f 224 225 232
f 224 232 231
f 225 226 233
f 225 233 232
f 226 227 234
f 226 234 233
f 229 228 235
f 229 235 236
f 228 230 237
f 228 237 235
f 230 231 238
f 230 238 237
f 231 232 239
f 231 239 238
f 232 233 240
f 232 240 239
f 233 234 241
f 233 241 240
f 236 235 242
f 236 242 243
f 235 237 244
f 235 244 242
f 237 238 245
f 237 245 244
f 238 239 246
f 238 246 245
f 239 240 247
f 239 247 246
f 240 241 248
f 240 248 247
f 243 242 249
f 243 249 250
f 242 244 251
f 242 251 249
f 244 245 252
f 244 252 251
f 245 246 253
f 245 253 252
f 246 247 254
f 246 254 253
f 247 248 255
f 247 255 254
f 250 249 256
f 250 256 257
f 249 251 258
f 249 258 256
f 251 252 259
f 251 259 258
f 252 253 260
f 252 260 259
f 253 254 261
f 253 261 260
f 254 255 262
f 254 262 261
f 257 256 263
f 257 263 264
f 256 258 265
f 256 265 263
f 258 259 266
f 258 266 265
f 259 260 267
f 259 267 266
f 260 261 268
f 260 268 267
f 261 262 269
f 261 269 268
f 264 263 270
f 264 270 271
f 263 265 272
f 263 272 270
f 265 266 273
f 265 273 272
f 266 267 274
f 266 274 273
f 267 268 275
f 267 275 274
f 268 269 276
f 268 276 275
f 271 270 277
f 271 277 278
f 270 272 279
f 270 279 277
f 272 273 280
f 272 280 279
f 273 274 281
f 273 281 280
f 274 275 282
f 274 282 281
f 275 276 283
f 275 283 282
f 278 277 284
f 278 284 285
f 277 279 286
f 277 286 284
f 279 280 287
f 279 287 286
f 280 281 288
f 280 288 287
f 281 282 289
f 281 289 288
f 282 283 290
f 282 290 289
f 285 284 291
f 285 291 292
f 284 286 293
f 284 293 291
f 286 287 294
f 286 294 293
f 287 288 295
f 287 295 294
f 288 289 296
f 288 296 295
f 289 290 297
f 289 297 296
f 292 291 298
f 292 298 299
f 291 293 300
f 291 300 298
f 293 294 301
f 293 301 300
f 294 295 302
f 294 302 301
f 295 296 303
f 295 303 302
f 296 297 304
f 296 304 303
f 299 298 305
f 299 305 306
f 298 300 307
f 298 307 305
f 300 301 308
f 300 308 307
f 301 302 309
f 301 309 308
f 302 303 310
f 302 310 309
f 303 304 311
f 303 311 310
f 306 305 312
f 306 312 313
f 305 307 314
f 305 314 312
f 307 308 315
f 307 315 314
f 308 309 316
f 308 316 315
f 309 310 317
f 309 317 316
f 310 311 318
f 310 318 317
f 313 312 319
f 313 319 320
f 312 314 321
f 312 321 319
f 314 315 322
f 314 322 321
f 315 316 323
f 315 323 322
f 316 317 324
f 316 324 323
f 317 318 325
f 317 325 324
f 320 319 326
f 320 326 327
f 319 321 328
f 319 328 326
f 321 322 329
f 321 329 328
f 322 323 330
f 322 330 329
f 323 324 331
f 323 331 330
f 324 325 332
f 324 332 331
f 327 326 333
f 327 333 334
f 326 328 335
f 326 335 333
f 328 329 336
f 328 336 335
f 329 330 337
f 329 337 336
f 330 331 338
f 330 338 337
f 331 332 339
f 331 339 338
f 334 333 340
f 334 340 341
f 333 335 342
f 333 342 340
f 335 336 343
f 335 343 342
f 336 337 344
f 336 344 343
f 337 338 345
f 337 345 344
f 338 339 346
f 338 346 345
f 341 340 347
f 341 347 348
f 340 342 349
f 340 349 347
f 342 343 350
f 342 350 349
f 344 350 343
f 344 343 343
f 344 345 351
f 344 351 350
f 345 346 352
f 345 352 351
f 348 347 353
f 348 353 354
f 347 349 355
f 347 355 353
f 349 350 356
f 349 356 355
f 350 351 357
f 350 357 356
f 351 352 358
f 351 358 357
f 354 353 359
f 354 359 360
f 353 355 361
f 353 361 359
f 355 356 362
f 355 362 361
f 356 357 363
f 356 363 362
f 357 358 364
f 357 364 363
f 360 359 365
f 360 365 366
f 359 361 367
f 359 367 365
f 362 367 361
f 362 361 361
f 362 363 368
f 362 368 367
f 363 364 369
f 363 369 368
f 366 365 1
f 366 1 3
f 365 367 2
f 365 2 1
f 367 368 370
f 367 370 2
f 368 369 371
f 368 371 370
f 3 2 372
f 3 372 373
f 374 372 2
f 374 2 2
f 2 370 375
f 2 375 374
f 370 371 376
f 370 376 375
f 373 372 377
f 373 377 378
f 372 374 379
f 372 379 377
f 374 375 380
f 374 380 379
f 375 376 17
f 375 17 380
f 378 377 381
f 378 381 382
f 377 379 383
f 377 383 381
f 379 380 384
f 379 384 383
f 17 384 380
f 17 380 380
f 385 13 386
f 385 386 386
f 387 388 389
f 387 389 390
f 387 385 386
f 387 386 388
f 385 387 391
f 385 391 391
f 387 390 392
f 387 392 391
f 392 390 393
f 392 393 394
f 393 395 396
f 393 396 397
f 393 390 389
f 393 389 395
f 393 397 398
f 393 398 394
f 398 397 399
f 398 399 400
f 399 401 402
f 399 402 403
f 399 397 396
f 399 396 401
f 399 403 404
f 399 404 400
f 404 403 405
f 404 405 406
f 405 407 408
f 405 408 409
f 405 403 402
f 405 402 407
f 405 409 410
f 405 410 406
f 410 409 411
f 410 411 412
f 411 413 414
f 411 414 415
f 411 409 408
f 411 408 413
f 411 415 416
f 411 416 412
f 416 415 417
f 416 417 418
f 417 419 420
f 417 420 421
f 417 415 414
f 417 414 419
f 417 421 422
f 417 422 418
f 422 421 423
f 422 423 424
f 423 425 426
f 423 426 427
f 423 421 420
f 423 420 425
f 423 427 428
f 423 428 424
f 428 427 429
f 428 429 430
f 429 431 432
f 429 432 433
f 429 427 426
f 429 426 431
f 429 433 434
f 429 434 430
f 434 433 435
f 434 435 436
f 435 437 438
f 435 438 439
f 435 433 432
f 435 432 437
f 435 439 440
f 435 440 436
f 440 439 441
f 440 441 442
f 441 443 444
f 441 444 445
f 441 439 438
f 441 438 443
f 441 445 446
f 441 446 442
f 446 445 447
f 446 447 448
f 447 449 450
f 447 450 451
f 447 445 444
f 447 444 449
f 447 451 452
f 447 452 448
f 452 451 453
f 452 453 454
f 453 455 456
f 453 456 457
f 453 451 450
f 453 450 455
f 453 457 458
f 453 458 454
f 458 457 459
f 458 459 460
f 459 461 462
f 459 462 463
f 459 457 456
f 459 456 461
f 459 463 464
f 459 464 460
f 464 463 465
f 464 465 466
f 465 467 468
f 465 468 469
f 465 463 462
f 465 462 467
f 465 469 470
f 465 470 466
f 470 469 471
f 470 471 472
f 471 473 474
f 471 474 475
f 471 469 468
f 471 468 473
f 471 475 476
f 471 476 472
f 476 475 477
f 476 477 478
f 477 479 480
f 477 480 481
f 477 475 474
f 477 474 479
f 477 481 482
f 477 482 478
f 482 481 483
f 482 483 484
f 483 485 486
f 483 486 487
f 483 481 480
f 483 480 485
f 483 487 488
f 483 488 484
f 488 487 489
f 488 489 490
f 489 491 492
f 489 492 493
f 489 487 486
f 489 486 491
f 489 493 494
f 489 494 490
f 494 493 495
f 494 495 496
f 495 497 498
f 495 498 499
f 495 493 492
f 495 492 497
f 495 499 500
f 495 500 496
f 500 499 501
f 500 501 502
f 501 503 504
f 501 504 505
f 501 499 498
f 501 498 503
f 501 505 506
f 501 506 502
f 506 505 507
f 506 507 12
f 507 505 504
f 507 504 10
f 3 509 508
f 3 3 508
f 6 5 510
f 511 6 510
f 512 511 510
f 513 512 510
f 512 515 514
f 511 512 514
f 6 511 514
f 12 6 514
f 516 14 13
f 517 516 13
f 516 518 17
f 14 516 17
f 520 519 518
f 516 520 518
f 522 521 519
f 520 522 519
f 524 523 521
f 522 524 521
f 526 525 523
f 524 526 523
f 528 527 525
f 526 528 525
f 530 529 527
f 528 530 527
f 532 531 529
f 530 532 529
f 534 533 531
f 532 534 531
f 536 535 533
f 534 536 533
f 538 537 535
f 536 538 535
f 540 539 537
f 538 540 537
f 542 541 539
f 540 542 539
f 544 543 541
f 542 544 541
f 546 545 543
f 544 546 543
f 548 547 545
f 546 548 545
f 550 549 547
f 548 550 547
f 552 551 549
f 550 552 549
f 554 553 551
f 552 554 551
f 556 555 553
f 554 556 553
f 558 557 555
f 556 558 555
f 560 559 557
f 558 560 557
f 562 561 559
f 560 562 559
f 564 563 561
f 562 564 561
f 566 565 563
f 564 566 563
f 568 567 565
f 566 568 565
f 570 569 567
f 568 570 567
f 572 571 569
f 570 572 569
f 574 573 571
f 572 574 571
f 576 575 573
f 574 576 573
f 578 577 575
f 576 578 575
f 580 579 577
f 578 580 577
f 582 581 579
f 580 582 579
f 584 583 581
f 582 584 581
f 586 585 583
f 584 586 583
f 588 587 585
f 586 588 585
f 590 589 587
f 588 590 587
f 592 591 589
f 590 592 589
f 594 593 591
f 592 594 591
f 596 595 593
f 594 596 593
f 512 513 595
f 596 512 595
f 598 597 596
f 594 598 596
f 515 512 596
f 597 515 596
f 592 599 598
f 594 592 598
f 590 600 599
f 592 590 599
f 588 601 600
f 590 588 600
f 586 602 601
f 588 586 601
f 584 603 602
f 586 584 602
f 582 604 603
f 584 582 603
f 580 605 604
f 582 580 604
f 578 606 605
f 580 578 605
f 576 607 606
f 578 576 606
f 574 608 607
f 576 574 607
f 572 609 608
f 574 572 608
f 570 610 609
f 572 570 609
f 568 611 610
f 570 568 610
f 566 612 611
f 568 566 611
f 564 613 612
f 566 564 612
f 562 614 613
f 564 562 613
f 560 615 614
f 562 560 614
f 558 616 615
f 560 558 615
f 556 617 616
f 558 556 616
f 554 618 617
f 556 554 617
f 552 619 618
f 554 552 618
f 550 620 619
f 552 550 619
f 548 621 620
f 550 548 620
f 546 622 621
f 548 546 621
f 544 623 622
f 546 544 622
f 542 624 623
f 544 542 623
f 540 625 624
f 542 540 624
f 538 626 625
f 540 538 625
f 536 627 626
f 538 536 626
f 534 628 627
f 536 534 627
f 532 629 628
f 534 532 628
f 530 630 629
f 532 530 629
f 528 631 630
f 530 528 630
f 526 632 631
f 528 526 631
f 524 633 632
f 526 524 632
f 522 634 633
f 524 522 633
f 520 635 634
f 522 520 634
f 516 517 635
f 520 516 635
f 136 510 5
f 136 136 5
f 636 510 136
f 138 636 136
f 510 636 637
f 510 510 637
f 138 141 638
f 138 138 638
f 639 636 138
f 638 639 138
f 640 637 636
f 639 640 636
f 641 638 141
f 145 641 141
f 642 639 638
f 641 642 638
f 643 640 639
f 642 643 639
f 644 641 145
f 149 644 145
f 645 642 641
f 644 645 641
f 646 643 642
f 645 646 642
f 647 644 149
f 153 647 149
f 644 647 648
f 644 644 648
f 649 645 644
f 648 649 644
f 650 646 645
f 649 650 645
f 651 647 153
f 158 651 153
f 652 648 647
f 651 652 647
f 653 649 648
f 652 653 648
f 654 650 649
f 653 654 649
f 655 651 158
f 163 655 158
f 656 652 651
f 655 656 651
f 652 656 657
f 652 652 657
f 658 653 652
f 657 658 652
f 659 654 653
f 658 659 653
f 660 655 163
f 169 660 163
f 661 656 655
f 660 661 655
f 662 657 656
f 661 662 656
f 663 658 657
f 662 663 657
f 664 659 658
f 663 664 658
f 665 660 169
f 175 665 169
f 666 661 660
f 665 666 660
f 667 662 661
f 666 667 661
f 668 663 662
f 667 668 662
f 669 664 663
f 668 669 663
f 670 665 175
f 181 670 175
f 671 666 665
f 670 671 665
f 672 667 666
f 671 672 666
f 673 668 667
f 672 673 667
f 674 669 668
f 673 674 668
f 675 670 181
f 187 675 181
f 676 671 670
f 675 676 670
f 677 672 671
f 676 677 671
f 672 677 678
f 672 672 678
f 679 673 672
f 678 679 672
f 680 674 673
f 679 680 673
f 681 675 187
f 194 681 187
f 682 676 675
f 681 682 675
f 683 677 676
f 682 683 676
f 684 678 677
f 683 684 677
f 685 679 678
f 684 685 678
f 686 680 679
f 685 686 679
f 687 681 194
f 201 687 194
f 688 682 681
f 687 688 681
f 689 683 682
f 688 689 682
f 690 684 683
f 689 690 683
f 691 685 684
f 690 691 684
f 692 686 685
f 691 692 685
f 693 687 201
f 208 693 201
f 694 688 687
f 693 694 687
f 695 689 688
f 694 695 688
f 696 690 689
f 695 696 689
f 697 691 690
f 696 697 690
f 698 692 691
f 697 698 691
f 699 693 208
f 215 699 208
f 700 694 693
f 699 700 693
f 701 695 694
f 700 701 694
f 702 696 695
f 701 702 695
f 703 697 696
f 702 703 696
f 704 698 697
f 703 704 697
f 705 699 215
f 222 705 215
f 706 700 699
f 705 706 699
f 707 701 700
f 706 707 700
f 708 702 701
f 707 708 701
f 709 703 702
f 708 709 702
f 710 704 703
f 709 710 703
f 711 705 222
f 229 711 222
f 712 706 705
f 711 712 705
f 713 707 706
f 712 713 706
f 714 708 707
f 713 714 707
f 715 709 708
f 714 715 708
f 716 710 709
f 715 716 709
f 717 711 229
f 236 717 229
f 718 712 711
f 717 718 711
f 719 713 712
f 718 719 712
f 720 714 713
f 719 720 713
f 721 715 714
f 720 721 714
f 722 716 715
f 721 722 715
f 723 717 236
f 243 723 236
f 724 718 717
f 723 724 717
f 725 719 718
f 724 725 718
f 726 720 719
f 725 726 719
f 727 721 720
f 726 727 720
f 728 722 721
f 727 728 721
f 729 723 243
f 250 729 243
f 730 724 723
f 729 730 723
f 731 725 724
f 730 731 724
f 732 726 725
f 731 732 725
f 733 727 726
f 732 733 726
f 734 728 727
f 733 734 727
f 735 729 250
f 257 735 250
f 736 730 729
f 735 736 729
f 737 731 730
f 736 737 730
f 738 732 731
f 737 738 731
f 739 733 732
f 738 739 732
f 740 734 733
f 739 740 733
f 741 735 257
f 264 741 257
f 742 736 735
f 741 742 735
f 743 737 736
f 742 743 736
f 744 738 737
f 743 744 737
f 745 739 738
f 744 745 738
f 746 740 739
f 745 746 739
f 747 741 264
f 271 747 264
f 748 742 741
f 747 748 741
f 749 743 742
f 748 749 742
f 750 744 743
f 749 750 743
f 751 745 744
f 750 751 744
f 752 746 745
f 751 752 745
f 753 747 271
f 278 753 271
f 754 748 747
f 753 754 747
f 755 749 748
f 754 755 748
f 756 750 749
f 755 756 749
f 757 751 750
f 756 757 750
f 758 752 751
f 757 758 751
f 759 753 278
f 285 759 278
f 760 754 753
f 759 760 753
f 761 755 754
f 760 761 754
f 762 756 755
f 761 762 755
f 763 757 756
f 762 763 756
f 764 758 757
f 763 764 757
f 765 759 285
f 292 765 285
f 766 760 759
f 765 766 759
f 767 761 760
f 766 767 760
f 768 762 761
f 767 768 761
f 769 763 762
f 768 769 762
f 770 764 763
f 769 770 763
f 771 765 292
f 299 771 292
f 772 766 765
f 771 772 765
f 773 767 766
f 772 773 766
f 774 768 767
f 773 774 767
f 775 769 768
f 774 775 768
f 776 770 769
f 775 776 769
f 777 771 299
f 306 777 299
f 778 772 771
f 777 778 771
f 779 773 772
f 778 779 772
f 780 774 773
f 779 780 773
f 781 775 774
f 780 781 774
f 782 776 775
f 781 782 775
f 783 777 306
f 313 783 306
f 784 778 777
f 783 784 777
f 785 779 778
f 784 785 778
f 786 780 779
f 785 786 779
f 787 781 780
f 786 787 780
f 788 782 781
f 787 788 781
f 789 783 313
f 320 789 313
f 790 784 783
f 789 790 783
f 791 785 784
f 790 791 784
f 792 786 785
f 791 792 785
f 793 787 786
f 792 793 786
f 794 788 787
f 793 794 787
f 795 789 320
f 327 795 320
f 796 790 789
f 795 796 789
f 797 791 790
f 796 797 790
f 798 792 791
f 797 798 791
f 799 793 792
f 798 799 792
f 800 794 793
f 799 800 793
f 801 795 327
f 334 801 327
f 802 796 795
f 801 802 795
f 803 797 796
f 802 803 796
f 804 798 797
f 803 804 797
f 805 799 798
f 804 805 798
f 806 800 799
f 805 806 799
f 807 801 334
f 341 807 334
f 808 802 801
f 807 808 801
f 809 803 802
f 808 809 802
f 810 804 803
f 809 810 803
f 811 805 804
f 810 811 804
f 812 806 805
f 811 812 805
f 813 807 341
f 348 813 341
f 814 808 807
f 813 814 807
f 815 809 808
f 814 815 808
f 809 815 810
f 809 809 810
f 816 811 810
f 815 816 810
f 817 812 811
f 816 817 811
f 818 813 348
f 354 818 348
f 819 814 813
f 818 819 813
f 820 815 814
f 819 820 814
f 821 816 815
f 820 821 815
f 822 817 816
f 821 822 816
f 823 818 354
f 360 823 354
f 824 819 818
f 823 824 818
f 825 820 819
f 824 825 819
f 826 821 820
f 825 826 820
f 827 822 821
f 826 827 821
f 828 823 360
f 366 828 360
f 829 824 823
f 828 829 823
f 824 829 825
f 824 824 825
f 830 826 825
f 829 830 825
f 831 827 826
f 830 831 826
f 508 828 366
f 3 508 366
f 509 829 828
f 508 509 828
f 832 830 829
f 509 832 829
f 833 831 830
f 832 833 830
f 834 509 3
f 373 834 3
f 509 834 835
f 509 509 835
f 836 832 509
f 835 836 509
f 837 833 832
f 836 837 832
f 838 834 373
f 378 838 373
f 839 835 834
f 838 839 834
f 840 836 835
f 839 840 835
f 17 837 836
f 840 17 836
f 381 838 378
f 382 381 378
f 383 839 838
f 381 383 838
f 384 840 839
f 383 384 839
f 840 384 17
f 840 840 17
f 841 13 385
f 841 841 385
f 844 843 842
f 845 844 842
f 841 385 842
f 843 841 842
f 391 842 385
f 391 391 385
f 392 845 842
f 391 392 842
f 846 845 392
f 394 846 392
f 848 847 846
f 849 848 846
f 844 845 846
f 847 844 846
f 398 849 846
f 394 398 846
f 850 849 398
f 400 850 398
f 852 851 850
f 853 852 850
f 848 849 850
f 851 848 850
f 404 853 850
f 400 404 850
f 854 853 404
f 406 854 404
f 856 855 854
f 857 856 854
f 852 853 854
f 855 852 854
f 410 857 854
f 406 410 854
f 858 857 410
f 412 858 410
f 860 859 858
f 861 860 858
f 856 857 858
f 859 856 858
f 416 861 858
f 412 416 858
f 862 861 416
f 418 862 416
f 864 863 862
f 865 864 862
f 860 861 862
f 863 860 862
f 422 865 862
f 418 422 862
f 866 865 422
f 424 866 422
f 868 867 866
f 869 868 866
f 864 865 866
f 867 864 866
f 428 869 866
f 424 428 866
f 870 869 428
f 430 870 428
f 872 871 870
f 873 872 870
f 868 869 870
f 871 868 870
f 434 873 870
f 430 434 870
f 874 873 434
f 436 874 434
f 876 875 874
f 877 876 874
f 872 873 874
f 875 872 874
f 440 877 874
f 436 440 874
f 878 877 440
f 442 878 440
f 880 879 878
f 881 880 878
f 876 877 878
f 879 876 878
f 446 881 878
f 442 446 878
f 882 881 446
f 448 882 446
f 884 883 882
f 885 884 882
f 880 881 882
f 883 880 882
f 452 885 882
f 448 452 882
f 886 885 452
f 454 886 452
f 888 887 886
f 889 888 886
f 884 885 886
f 887 884 886
f 458 889 886
f 454 458 886
f 890 889 458
f 460 890 458
f 892 891 890
f 893 892 890
f 888 889 890
f 891 888 890
f 464 893 890
f 460 464 890
f 894 893 464
f 466 894 464
f 896 895 894
f 897 896 894
f 892 893 894
f 895 892 894
f 470 897 894
f 466 470 894
f 898 897 470
f 472 898 470
f 900 899 898
f 901 900 898
f 896 897 898
f 899 896 898
f 476 901 898
f 472 476 898
f 902 901 476
f 478 902 476
f 904 903 902
f 905 904 902
f 900 901 902
f 903 900 902
f 482 905 902
f 478 482 902
f 906 905 482
f 484 906 482
f 908 907 906
f 909 908 906
f 904 905 906
f 907 904 906
f 488 909 906
f 484 488 906
f 910 909 488
f 490 910 488
f 912 911 910
f 913 912 910
f 908 909 910
f 911 908 910
f 494 913 910
f 490 494 910
f 914 913 494
f 496 914 494
f 916 915 914
f 917 916 914
f 912 913 914
f 915 912 914
f 500 917 914
f 496 500 914
f 918 917 500
f 502 918 500
f 920 919 918
f 921 920 918
f 916 917 918
f 919 916 918
f 506 921 918
f 502 506 918
f 922 921 506
f 12 922 506
f 920 921 922
f 514 920 922
