# Converted from GDF: L03 Outer column.gdf
# gdf created by Python script
# Vertices: 1179
# Faces: 2356

o gdf_created_by_Python_script

v 6.000000 0.000000 -14.000000
v 5.918168 0.987568 -14.000000
v 5.918168 0.987568 -12.536602
v 6.000000 0.000000 -12.536602
v 5.674903 1.948197 -14.000000
v 5.674903 1.948197 -12.536602
v 5.276843 2.855684 -14.000000
v 5.276843 2.855684 -12.536602
v 4.734843 3.685276 -14.000000
v 4.734843 3.685276 -12.536602
v 4.063689 4.414343 -14.000000
v 4.063689 4.414343 -12.536602
v 3.281689 5.022999 -14.000000
v 3.281689 5.022999 -12.536602
v 2.410173 5.494640 -14.000000
v 2.410173 5.494640 -12.536602
v 1.472913 5.816402 -14.000000
v 1.472913 5.816402 -12.536602
v 0.495476 5.979507 -14.000000
v 0.495476 5.979507 -12.536602
v -0.495476 5.979507 -14.000000
v -0.495476 5.979507 -12.536602
v -1.472913 5.816402 -14.000000
v -1.472913 5.816402 -12.536602
v -2.410173 5.494640 -14.000000
v -2.410173 5.494640 -12.536602
v -3.281689 5.022999 -14.000000
v -3.281689 5.022999 -12.536602
v -4.063689 4.414343 -14.000000
v -4.063689 4.414343 -12.536602
v -4.734843 3.685276 -14.000000
v -4.734843 3.685276 -12.536602
v -5.276843 2.855684 -14.000000
v -5.276843 2.855684 -12.536602
v -5.674903 1.948197 -14.000000
v -5.674903 1.948197 -12.536602
v -5.918168 0.987568 -14.000000
v -5.918168 0.987568 -12.536602
v -6.000000 0.000000 -14.000000
v -6.000000 0.000000 -12.536602
v -5.918168 -0.987568 -14.000000
v -5.918168 -0.987568 -12.536602
v -5.674903 -1.948197 -14.000000
v -5.674903 -1.948197 -12.536602
v -5.276843 -2.855684 -14.000000
v -5.276843 -2.855684 -12.536602
v -4.734843 -3.685276 -14.000000
v -4.734843 -3.685276 -12.536602
v -4.063689 -4.414343 -14.000000
v -4.063689 -4.414343 -12.536602
v -3.281689 -5.022999 -14.000000
v -3.281689 -5.022999 -12.536602
v -2.410173 -5.494640 -14.000000
v -2.410173 -5.494640 -12.536602
v -1.472913 -5.816402 -14.000000
v -1.472913 -5.816402 -12.536602
v -0.495476 -5.979507 -14.000000
v -0.495476 -5.979507 -12.536602
v 0.495476 -5.979507 -14.000000
v 0.495476 -5.979507 -12.536602
v 1.472913 -5.816402 -14.000000
v 1.472913 -5.816402 -12.536602
v 2.410173 -5.494640 -14.000000
v 2.410173 -5.494640 -12.536602
v 3.281689 -5.022999 -14.000000
v 3.281689 -5.022999 -12.536602
v 4.063689 -4.414343 -14.000000
v 4.063689 -4.414343 -12.536602
v 4.734843 -3.685276 -14.000000
v 4.734843 -3.685276 -12.536602
v 5.276843 -2.855684 -14.000000
v 5.276843 -2.855684 -12.536602
v 5.674903 -1.948197 -14.000000
v 5.674903 -1.948197 -12.536602
v 5.918168 -0.987568 -14.000000
v 5.918168 -0.987568 -12.536602
v 5.918168 0.987568 -11.089236
v 6.000000 0.000000 -11.089236
v 5.674903 1.948197 -11.089236
v 5.276843 2.855684 -11.089236
v 4.734843 3.685276 -11.089236
v 4.063689 4.414343 -11.089236
v 3.281689 5.022999 -11.089236
v 2.410173 5.494640 -11.089236
v 1.472913 5.816402 -11.089236
v 0.495476 5.979507 -11.089236
v -0.495476 5.979507 -11.089236
v -1.472913 5.816402 -11.089236
v -2.410173 5.494640 -11.089236
v -3.281689 5.022999 -11.089236
v -4.063689 4.414343 -11.089236
v -4.734843 3.685276 -11.089236
v -5.276843 2.855684 -11.089236
v -5.674903 1.948197 -11.089236
v -5.918168 0.987568 -11.089236
v -6.000000 0.000000 -11.089236
v -5.918168 -0.987568 -11.089236
v -5.674903 -1.948197 -11.089236
v -5.276843 -2.855684 -11.089236
v -4.734843 -3.685276 -11.089236
v -4.063689 -4.414343 -11.089236
v -3.281689 -5.022999 -11.089236
v -2.410173 -5.494640 -11.089236
v -1.472913 -5.816402 -11.089236
v -0.495476 -5.979507 -11.089236
v 0.495476 -5.979507 -11.089236
v 1.472913 -5.816402 -11.089236
v 2.410173 -5.494640 -11.089236
v 3.281689 -5.022999 -11.089236
v 4.063689 -4.414343 -11.089236
v 4.734843 -3.685276 -11.089236
v 5.276843 -2.855684 -11.089236
v 5.674903 -1.948197 -11.089236
v 5.918168 -0.987568 -11.089236
v 5.918168 0.987568 -9.673762
v 6.000000 0.000000 -9.673762
v 5.674903 1.948197 -9.673762
v 5.276843 2.855684 -9.673762
v 4.734843 3.685276 -9.673762
v 4.063689 4.414343 -9.673762
v 3.281689 5.022999 -9.673762
v 2.410173 5.494640 -9.673762
v 1.472913 5.816402 -9.673762
v 0.495476 5.979507 -9.673762
v -0.495476 5.979507 -9.673762
v -1.472913 5.816402 -9.673762
v -2.410173 5.494640 -9.673762
v -3.281689 5.022999 -9.673762
v -4.063689 4.414343 -9.673762
v -4.734843 3.685276 -9.673762
v -5.276843 2.855684 -9.673762
v -5.674903 1.948197 -9.673762
v -5.918168 0.987568 -9.673762
v -6.000000 0.000000 -9.673762
v -5.918168 -0.987568 -9.673762
v -5.674903 -1.948197 -9.673762
v -5.276843 -2.855684 -9.673762
v -4.734843 -3.685276 -9.673762
v -4.063689 -4.414343 -9.673762
v -3.281689 -5.022999 -9.673762
v -2.410173 -5.494640 -9.673762
v -1.472913 -5.816402 -9.673762
v -0.495476 -5.979507 -9.673762
v 0.495476 -5.979507 -9.673762
v 1.472913 -5.816402 -9.673762
v 2.410173 -5.494640 -9.673762
v 3.281689 -5.022999 -9.673762
v 4.063689 -4.414343 -9.673762
v 4.734843 -3.685276 -9.673762
v 5.276843 -2.855684 -9.673762
v 5.674903 -1.948197 -9.673762
v 5.918168 -0.987568 -9.673762
v 5.918168 0.987568 -8.305687
v 6.000000 0.000000 -8.305687
v 5.674903 1.948197 -8.305687
v 5.276843 2.855684 -8.305687
v 4.734843 3.685276 -8.305687
v 4.063689 4.414343 -8.305687
v 3.281689 5.022999 -8.305687
v 2.410173 5.494640 -8.305687
v 1.472913 5.816402 -8.305687
v 0.495476 5.979507 -8.305687
v -0.495476 5.979507 -8.305687
v -1.472913 5.816402 -8.305687
v -2.410173 5.494640 -8.305687
v -3.281689 5.022999 -8.305687
v -4.063689 4.414343 -8.305687
v -4.734843 3.685276 -8.305687
v -5.276843 2.855684 -8.305687
v -5.674903 1.948197 -8.305687
v -5.918168 0.987568 -8.305687
v -6.000000 0.000000 -8.305687
v -5.918168 -0.987568 -8.305687
v -5.674903 -1.948197 -8.305687
v -5.276843 -2.855684 -8.305687
v -4.734843 -3.685276 -8.305687
v -4.063689 -4.414343 -8.305687
v -3.281689 -5.022999 -8.305687
v -2.410173 -5.494640 -8.305687
v -1.472913 -5.816402 -8.305687
v -0.495476 -5.979507 -8.305687
v 0.495476 -5.979507 -8.305687
v 1.472913 -5.816402 -8.305687
v 2.410173 -5.494640 -8.305687
v 3.281689 -5.022999 -8.305687
v 4.063689 -4.414343 -8.305687
v 4.734843 -3.685276 -8.305687
v 5.276843 -2.855684 -8.305687
v 5.674903 -1.948197 -8.305687
v 5.918168 -0.987568 -8.305687
v 5.918168 0.987568 -7.000000
v 6.000000 0.000000 -7.000000
v 5.674903 1.948197 -7.000000
v 5.276843 2.855684 -7.000000
v 4.734843 3.685276 -7.000000
v 4.063689 4.414343 -7.000000
v 3.281689 5.022999 -7.000000
v 2.410173 5.494640 -7.000000
v 1.472913 5.816402 -7.000000
v 0.495476 5.979507 -7.000000
v -0.495476 5.979507 -7.000000
v -1.472913 5.816402 -7.000000
v -2.410173 5.494640 -7.000000
v -3.281689 5.022999 -7.000000
v -4.063689 4.414343 -7.000000
v -4.734843 3.685276 -7.000000
v -5.276843 2.855684 -7.000000
v -5.674903 1.948197 -7.000000
v -5.918168 0.987568 -7.000000
v -6.000000 0.000000 -7.000000
v -5.918168 -0.987568 -7.000000
v -5.674903 -1.948197 -7.000000
v -5.276843 -2.855684 -7.000000
v -4.734843 -3.685276 -7.000000
v -4.063689 -4.414343 -7.000000
v -3.281689 -5.022999 -7.000000
v -2.410173 -5.494640 -7.000000
v -1.472913 -5.816402 -7.000000
v -0.495476 -5.979507 -7.000000
v 0.495476 -5.979507 -7.000000
v 1.472913 -5.816402 -7.000000
v 2.410173 -5.494640 -7.000000
v 3.281689 -5.022999 -7.000000
v 4.063689 -4.414343 -7.000000
v 4.734843 -3.685276 -7.000000
v 5.276843 -2.855684 -7.000000
v 5.674903 -1.948197 -7.000000
v 5.918168 -0.987568 -7.000000
v 5.918168 0.987568 -5.771006
v 6.000000 0.000000 -5.771006
v 5.674903 1.948197 -5.771006
v 5.276843 2.855684 -5.771006
v 4.734843 3.685276 -5.771006
v 4.063689 4.414343 -5.771006
v 3.281689 5.022999 -5.771006
v 2.410173 5.494640 -5.771006
v 1.472913 5.816402 -5.771006
v 0.495476 5.979507 -5.771006
v -0.495476 5.979507 -5.771006
v -1.472913 5.816402 -5.771006
v -2.410173 5.494640 -5.771006
v -3.281689 5.022999 -5.771006
v -4.063689 4.414343 -5.771006
v -4.734843 3.685276 -5.771006
v -5.276843 2.855684 -5.771006
v -5.674903 1.948197 -5.771006
v -5.918168 0.987568 -5.771006
v -6.000000 0.000000 -5.771006
v -5.918168 -0.987568 -5.771006
v -5.674903 -1.948197 -5.771006
v -5.276843 -2.855684 -5.771006
v -4.734843 -3.685276 -5.771006
v -4.063689 -4.414343 -5.771006
v -3.281689 -5.022999 -5.771006
v -2.410173 -5.494640 -5.771006
v -1.472913 -5.816402 -5.771006
v -0.495476 -5.979507 -5.771006
v 0.495476 -5.979507 -5.771006
v 1.472913 -5.816402 -5.771006
v 2.410173 -5.494640 -5.771006
v 3.281689 -5.022999 -5.771006
v 4.063689 -4.414343 -5.771006
v 4.734843 -3.685276 -5.771006
v 5.276843 -2.855684 -5.771006
v 5.674903 -1.948197 -5.771006
v 5.918168 -0.987568 -5.771006
v 5.918168 0.987568 -4.632172
v 6.000000 0.000000 -4.632172
v 5.674903 1.948197 -4.632172
v 5.276843 2.855684 -4.632172
v 4.734843 3.685276 -4.632172
v 4.063689 4.414343 -4.632172
v 3.281689 5.022999 -4.632172
v 2.410173 5.494640 -4.632172
v 1.472913 5.816402 -4.632172
v 0.495476 5.979507 -4.632172
v -0.495476 5.979507 -4.632172
v -1.472913 5.816402 -4.632172
v -2.410173 5.494640 -4.632172
v -3.281689 5.022999 -4.632172
v -4.063689 4.414343 -4.632172
v -4.734843 3.685276 -4.632172
v -5.276843 2.855684 -4.632172
v -5.674903 1.948197 -4.632172
v -5.918168 0.987568 -4.632172
v -6.000000 0.000000 -4.632172
v -5.918168 -0.987568 -4.632172
v -5.674903 -1.948197 -4.632172
v -5.276843 -2.855684 -4.632172
v -4.734843 -3.685276 -4.632172
v -4.063689 -4.414343 -4.632172
v -3.281689 -5.022999 -4.632172
v -2.410173 -5.494640 -4.632172
v -1.472913 -5.816402 -4.632172
v -0.495476 -5.979507 -4.632172
v 0.495476 -5.979507 -4.632172
v 1.472913 -5.816402 -4.632172
v 2.410173 -5.494640 -4.632172
v 3.281689 -5.022999 -4.632172
v 4.063689 -4.414343 -4.632172
v 4.734843 -3.685276 -4.632172
v 5.276843 -2.855684 -4.632172
v 5.674903 -1.948197 -4.632172
v 5.918168 -0.987568 -4.632172
v 5.918168 0.987568 -3.595972
v 6.000000 0.000000 -3.595972
v 5.674903 1.948197 -3.595972
v 5.276843 2.855684 -3.595972
v 4.734843 3.685276 -3.595972
v 4.063689 4.414343 -3.595972
v 3.281689 5.022999 -3.595972
v 2.410173 5.494640 -3.595972
v 1.472913 5.816402 -3.595972
v 0.495476 5.979507 -3.595972
v -0.495476 5.979507 -3.595972
v -1.472913 5.816402 -3.595972
v -2.410173 5.494640 -3.595972
v -3.281689 5.022999 -3.595972
v -4.063689 4.414343 -3.595972
v -4.734843 3.685276 -3.595972
v -5.276843 2.855684 -3.595972
v -5.674903 1.948197 -3.595972
v -5.918168 0.987568 -3.595972
v -6.000000 0.000000 -3.595972
v -5.918168 -0.987568 -3.595972
v -5.674903 -1.948197 -3.595972
v -5.276843 -2.855684 -3.595972
v -4.734843 -3.685276 -3.595972
v -4.063689 -4.414343 -3.595972
v -3.281689 -5.022999 -3.595972
v -2.410173 -5.494640 -3.595972
v -1.472913 -5.816402 -3.595972
v -0.495476 -5.979507 -3.595972
v 0.495476 -5.979507 -3.595972
v 1.472913 -5.816402 -3.595972
v 2.410173 -5.494640 -3.595972
v 3.281689 -5.022999 -3.595972
v 4.063689 -4.414343 -3.595972
v 4.734843 -3.685276 -3.595972
v 5.276843 -2.855684 -3.595972
v 5.674903 -1.948197 -3.595972
v 5.918168 -0.987568 -3.595972
v 5.918168 0.987568 -2.673762
v 6.000000 0.000000 -2.673762
v 5.674903 1.948197 -2.673762
v 5.276843 2.855684 -2.673762
v 4.734843 3.685276 -2.673762
v 4.063689 4.414343 -2.673762
v 3.281689 5.022999 -2.673762
v 2.410173 5.494640 -2.673762
v 1.472913 5.816402 -2.673762
v 0.495476 5.979507 -2.673762
v -0.495476 5.979507 -2.673762
v -1.472913 5.816402 -2.673762
v -2.410173 5.494640 -2.673762
v -3.281689 5.022999 -2.673762
v -4.063689 4.414343 -2.673762
v -4.734843 3.685276 -2.673762
v -5.276843 2.855684 -2.673762
v -5.674903 1.948197 -2.673762
v -5.918168 0.987568 -2.673762
v -6.000000 0.000000 -2.673762
v -5.918168 -0.987568 -2.673762
v -5.674903 -1.948197 -2.673762
v -5.276843 -2.855684 -2.673762
v -4.734843 -3.685276 -2.673762
v -4.063689 -4.414343 -2.673762
v -3.281689 -5.022999 -2.673762
v -2.410173 -5.494640 -2.673762
v -1.472913 -5.816402 -2.673762
v -0.495476 -5.979507 -2.673762
v 0.495476 -5.979507 -2.673762
v 1.472913 -5.816402 -2.673762
v 2.410173 -5.494640 -2.673762
v 3.281689 -5.022999 -2.673762
v 4.063689 -4.414343 -2.673762
v 4.734843 -3.685276 -2.673762
v 5.276843 -2.855684 -2.673762
v 5.674903 -1.948197 -2.673762
v 5.918168 -0.987568 -2.673762
v 5.918168 0.987568 -1.875644
v 6.000000 0.000000 -1.875644
v 5.674903 1.948197 -1.875644
v 5.276843 2.855684 -1.875644
v 4.734843 3.685276 -1.875644
v 4.063689 4.414343 -1.875644
v 3.281689 5.022999 -1.875644
v 2.410173 5.494640 -1.875644
v 1.472913 5.816402 -1.875644
v 0.495476 5.979507 -1.875644
v -0.495476 5.979507 -1.875644
v -1.472913 5.816402 -1.875644
v -2.410173 5.494640 -1.875644
v -3.281689 5.022999 -1.875644
v -4.063689 4.414343 -1.875644
v -4.734843 3.685276 -1.875644
v -5.276843 2.855684 -1.875644
v -5.674903 1.948197 -1.875644
v -5.918168 0.987568 -1.875644
v -6.000000 0.000000 -1.875644
v -5.918168 -0.987568 -1.875644
v -5.674903 -1.948197 -1.875644
v -5.276843 -2.855684 -1.875644
v -4.734843 -3.685276 -1.875644
v -4.063689 -4.414343 -1.875644
v -3.281689 -5.022999 -1.875644
v -2.410173 -5.494640 -1.875644
v -1.472913 -5.816402 -1.875644
v -0.495476 -5.979507 -1.875644
v 0.495476 -5.979507 -1.875644
v 1.472913 -5.816402 -1.875644
v 2.410173 -5.494640 -1.875644
v 3.281689 -5.022999 -1.875644
v 4.063689 -4.414343 -1.875644
v 4.734843 -3.685276 -1.875644
v 5.276843 -2.855684 -1.875644
v 5.674903 -1.948197 -1.875644
v 5.918168 -0.987568 -1.875644
v 5.918168 0.987568 -1.210364
v 6.000000 0.000000 -1.210364
v 5.674903 1.948197 -1.210364
v 5.276843 2.855684 -1.210364
v 4.734843 3.685276 -1.210364
v 4.063689 4.414343 -1.210364
v 3.281689 5.022999 -1.210364
v 2.410173 5.494640 -1.210364
v 1.472913 5.816402 -1.210364
v 0.495476 5.979507 -1.210364
v -0.495476 5.979507 -1.210364
v -1.472913 5.816402 -1.210364
v -2.410173 5.494640 -1.210364
v -3.281689 5.022999 -1.210364
v -4.063689 4.414343 -1.210364
v -4.734843 3.685276 -1.210364
v -5.276843 2.855684 -1.210364
v -5.674903 1.948197 -1.210364
v -5.918168 0.987568 -1.210364
v -6.000000 0.000000 -1.210364
v -5.918168 -0.987568 -1.210364
v -5.674903 -1.948197 -1.210364
v -5.276843 -2.855684 -1.210364
v -4.734843 -3.685276 -1.210364
v -4.063689 -4.414343 -1.210364
v -3.281689 -5.022999 -1.210364
v -2.410173 -5.494640 -1.210364
v -1.472913 -5.816402 -1.210364
v -0.495476 -5.979507 -1.210364
v 0.495476 -5.979507 -1.210364
v 1.472913 -5.816402 -1.210364
v 2.410173 -5.494640 -1.210364
v 3.281689 -5.022999 -1.210364
v 4.063689 -4.414343 -1.210364
v 4.734843 -3.685276 -1.210364
v 5.276843 -2.855684 -1.210364
v 5.674903 -1.948197 -1.210364
v 5.918168 -0.987568 -1.210364
v 5.918168 0.987568 -0.685209
v 6.000000 0.000000 -0.685209
v 5.674903 1.948197 -0.685209
v 5.276843 2.855684 -0.685209
v 4.734843 3.685276 -0.685209
v 4.063689 4.414343 -0.685209
v 3.281689 5.022999 -0.685209
v 2.410173 5.494640 -0.685209
v 1.472913 5.816402 -0.685209
v 0.495476 5.979507 -0.685209
v -0.495476 5.979507 -0.685209
v -1.472913 5.816402 -0.685209
v -2.410173 5.494640 -0.685209
v -3.281689 5.022999 -0.685209
v -4.063689 4.414343 -0.685209
v -4.734843 3.685276 -0.685209
v -5.276843 2.855684 -0.685209
v -5.674903 1.948197 -0.685209
v -5.918168 0.987568 -0.685209
v -6.000000 0.000000 -0.685209
v -5.918168 -0.987568 -0.685209
v -5.674903 -1.948197 -0.685209
v -5.276843 -2.855684 -0.685209
v -4.734843 -3.685276 -0.685209
v -4.063689 -4.414343 -0.685209
v -3.281689 -5.022999 -0.685209
v -2.410173 -5.494640 -0.685209
v -1.472913 -5.816402 -0.685209
v -0.495476 -5.979507 -0.685209
v 0.495476 -5.979507 -0.685209
v 1.472913 -5.816402 -0.685209
v 2.410173 -5.494640 -0.685209
v 3.281689 -5.022999 -0.685209
v 4.063689 -4.414343 -0.685209
v 4.734843 -3.685276 -0.685209
v 5.276843 -2.855684 -0.685209
v 5.674903 -1.948197 -0.685209
v 5.918168 -0.987568 -0.685209
v 5.918168 0.987568 -0.305934
v 6.000000 0.000000 -0.305934
v 5.674903 1.948197 -0.305934
v 5.276843 2.855684 -0.305934
v 4.734843 3.685276 -0.305934
v 4.063689 4.414343 -0.305934
v 3.281689 5.022999 -0.305934
v 2.410173 5.494640 -0.305934
v 1.472913 5.816402 -0.305934
v 0.495476 5.979507 -0.305934
v -0.495476 5.979507 -0.305934
v -1.472913 5.816402 -0.305934
v -2.410173 5.494640 -0.305934
v -3.281689 5.022999 -0.305934
v -4.063689 4.414343 -0.305934
v -4.734843 3.685276 -0.305934
v -5.276843 2.855684 -0.305934
v -5.674903 1.948197 -0.305934
v -5.918168 0.987568 -0.305934
v -6.000000 0.000000 -0.305934
v -5.918168 -0.987568 -0.305934
v -5.674903 -1.948197 -0.305934
v -5.276843 -2.855684 -0.305934
v -4.734843 -3.685276 -0.305934
v -4.063689 -4.414343 -0.305934
v -3.281689 -5.022999 -0.305934
v -2.410173 -5.494640 -0.305934
v -1.472913 -5.816402 -0.305934
v -0.495476 -5.979507 -0.305934
v 0.495476 -5.979507 -0.305934
v 1.472913 -5.816402 -0.305934
v 2.410173 -5.494640 -0.305934
v 3.281689 -5.022999 -0.305934
v 4.063689 -4.414343 -0.305934
v 4.734843 -3.685276 -0.305934
v 5.276843 -2.855684 -0.305934
v 5.674903 -1.948197 -0.305934
v 5.918168 -0.987568 -0.305934
v 5.918168 0.987568 -0.076693
v 6.000000 0.000000 -0.076693
v 5.674903 1.948197 -0.076693
v 5.276843 2.855684 -0.076693
v 4.734843 3.685276 -0.076693
v 4.063689 4.414343 -0.076693
v 3.281689 5.022999 -0.076693
v 2.410173 5.494640 -0.076693
v 1.472913 5.816402 -0.076693
v 0.495476 5.979507 -0.076693
v -0.495476 5.979507 -0.076693
v -1.472913 5.816402 -0.076693
v -2.410173 5.494640 -0.076693
v -3.281689 5.022999 -0.076693
v -4.063689 4.414343 -0.076693
v -4.734843 3.685276 -0.076693
v -5.276843 2.855684 -0.076693
v -5.674903 1.948197 -0.076693
v -5.918168 0.987568 -0.076693
v -6.000000 0.000000 -0.076693
v -5.918168 -0.987568 -0.076693
v -5.674903 -1.948197 -0.076693
v -5.276843 -2.855684 -0.076693
v -4.734843 -3.685276 -0.076693
v -4.063689 -4.414343 -0.076693
v -3.281689 -5.022999 -0.076693
v -2.410173 -5.494640 -0.076693
v -1.472913 -5.816402 -0.076693
v -0.495476 -5.979507 -0.076693
v 0.495476 -5.979507 -0.076693
v 1.472913 -5.816402 -0.076693
v 2.410173 -5.494640 -0.076693
v 3.281689 -5.022999 -0.076693
v 4.063689 -4.414343 -0.076693
v 4.734843 -3.685276 -0.076693
v 5.276843 -2.855684 -0.076693
v 5.674903 -1.948197 -0.076693
v 5.918168 -0.987568 -0.076693
v 5.918168 0.987568 0.000000
v 6.000000 0.000000 0.000000
v 5.674903 1.948197 0.000000
v 5.276843 2.855684 0.000000
v 4.734843 3.685276 0.000000
v 4.063689 4.414343 0.000000
v 3.281689 5.022999 0.000000
v 2.410173 5.494640 0.000000
v 1.472913 5.816402 0.000000
v 0.495476 5.979507 0.000000
v -0.495476 5.979507 0.000000
v -1.472913 5.816402 0.000000
v -2.410173 5.494640 0.000000
v -3.281689 5.022999 0.000000
v -4.063689 4.414343 0.000000
v -4.734843 3.685276 0.000000
v -5.276843 2.855684 0.000000
v -5.674903 1.948197 0.000000
v -5.918168 0.987568 0.000000
v -6.000000 0.000000 0.000000
v -5.918168 -0.987568 0.000000
v -5.674903 -1.948197 0.000000
v -5.276843 -2.855684 0.000000
v -4.734843 -3.685276 0.000000
v -4.063689 -4.414343 0.000000
v -3.281689 -5.022999 0.000000
v -2.410173 -5.494640 0.000000
v -1.472913 -5.816402 0.000000
v -0.495476 -5.979507 0.000000
v 0.495476 -5.979507 0.000000
v 1.472913 -5.816402 0.000000
v 2.410173 -5.494640 0.000000
v 3.281689 -5.022999 0.000000
v 4.063689 -4.414343 0.000000
v 4.734843 -3.685276 0.000000
v 5.276843 -2.855684 0.000000
v 5.674903 -1.948197 0.000000
v 5.918168 -0.987568 0.000000
v 7.500000 0.000000 -14.000000
v 7.397710 1.234459 -14.000000
v 7.093629 2.435246 -14.000000
v 6.596053 3.569605 -14.000000
v 5.918554 4.606595 -14.000000
v 5.079612 5.517929 -14.000000
v 4.102111 6.278749 -14.000000
v 3.012716 6.868300 -14.000000
v 1.841141 7.270502 -14.000000
v 0.619345 7.474384 -14.000000
v -0.619345 7.474384 -14.000000
v -1.841141 7.270502 -14.000000
v -3.012716 6.868300 -14.000000
v -4.102111 6.278749 -14.000000
v -5.079612 5.517929 -14.000000
v -5.918554 4.606595 -14.000000
v -6.596053 3.569605 -14.000000
v -7.093629 2.435246 -14.000000
v -7.397710 1.234459 -14.000000
v -7.500000 0.000000 -14.000000
v -7.397710 -1.234459 -14.000000
v -7.093629 -2.435246 -14.000000
v -6.596053 -3.569605 -14.000000
v -5.918554 -4.606595 -14.000000
v -5.079612 -5.517929 -14.000000
v -4.102111 -6.278749 -14.000000
v -3.012716 -6.868300 -14.000000
v -1.841141 -7.270502 -14.000000
v -0.619345 -7.474384 -14.000000
v 0.619345 -7.474384 -14.000000
v 1.841141 -7.270502 -14.000000
v 3.012716 -6.868300 -14.000000
v 4.102111 -6.278749 -14.000000
v 5.079612 -5.517929 -14.000000
v 5.918554 -4.606595 -14.000000
v 6.596053 -3.569605 -14.000000
v 7.093629 -2.435246 -14.000000
v 7.397710 -1.234459 -14.000000
v 9.000000 0.000000 -14.000000
v 8.877252 1.481351 -14.000000
v 8.512355 2.922295 -14.000000
v 7.915264 4.283527 -14.000000
v 7.102265 5.527914 -14.000000
v 6.095534 6.621515 -14.000000
v 4.922533 7.534498 -14.000000
v 3.615259 8.241960 -14.000000
v 2.209369 8.724602 -14.000000
v 0.743214 8.969260 -14.000000
v -0.743214 8.969260 -14.000000
v -2.209369 8.724602 -14.000000
v -3.615259 8.241960 -14.000000
v -4.922533 7.534498 -14.000000
v -6.095534 6.621515 -14.000000
v -7.102265 5.527914 -14.000000
v -7.915264 4.283527 -14.000000
v -8.512355 2.922295 -14.000000
v -8.877252 1.481351 -14.000000
v -9.000000 0.000000 -14.000000
v -8.877252 -1.481351 -14.000000
v -8.512355 -2.922295 -14.000000
v -7.915264 -4.283527 -14.000000
v -7.102265 -5.527914 -14.000000
v -6.095534 -6.621515 -14.000000
v -4.922533 -7.534498 -14.000000
v -3.615259 -8.241960 -14.000000
v -2.209369 -8.724602 -14.000000
v -0.743214 -8.969260 -14.000000
v 0.743214 -8.969260 -14.000000
v 2.209369 -8.724602 -14.000000
v 3.615259 -8.241960 -14.000000
v 4.922533 -7.534498 -14.000000
v 6.095534 -6.621515 -14.000000
v 7.102265 -5.527914 -14.000000
v 7.915264 -4.283527 -14.000000
v 8.512355 -2.922295 -14.000000
v 8.877252 -1.481351 -14.000000
v 10.500000 0.000000 -14.000000
v 10.356794 1.728243 -14.000000
v 9.931081 3.409344 -14.000000
v 9.234474 4.997448 -14.000000
v 8.285975 6.449233 -14.000000
v 7.111457 7.725101 -14.000000
v 5.742956 8.790248 -14.000000
v 4.217802 9.615620 -14.000000
v 2.577598 10.178703 -14.000000
v 0.867083 10.464137 -14.000000
v -0.867083 10.464137 -14.000000
v -2.577598 10.178703 -14.000000
v -4.217802 9.615620 -14.000000
v -5.742956 8.790248 -14.000000
v -7.111457 7.725101 -14.000000
v -8.285975 6.449233 -14.000000
v -9.234474 4.997448 -14.000000
v -9.931081 3.409344 -14.000000
v -10.356794 1.728243 -14.000000
v -10.500000 0.000000 -14.000000
v -10.356794 -1.728243 -14.000000
v -9.931081 -3.409344 -14.000000
v -9.234474 -4.997448 -14.000000
v -8.285975 -6.449233 -14.000000
v -7.111457 -7.725101 -14.000000
v -5.742956 -8.790248 -14.000000
v -4.217802 -9.615620 -14.000000
v -2.577598 -10.178703 -14.000000
v -0.867083 -10.464137 -14.000000
v 0.867083 -10.464137 -14.000000
v 2.577598 -10.178703 -14.000000
v 4.217802 -9.615620 -14.000000
v 5.742956 -8.790248 -14.000000
v 7.111457 -7.725101 -14.000000
v 8.285975 -6.449233 -14.000000
v 9.234474 -4.997448 -14.000000
v 9.931081 -3.409344 -14.000000
v 10.356794 -1.728243 -14.000000
v 12.000000 0.000000 -14.000000
v 11.836336 1.975135 -14.000000
v 11.349807 3.896394 -14.000000
v 10.553685 5.711369 -14.000000
v 9.469686 7.370553 -14.000000
v 8.127379 8.828687 -14.000000
v 6.563378 10.045998 -14.000000
v 4.820345 10.989280 -14.000000
v 2.945826 11.632803 -14.000000
v 0.990952 11.959014 -14.000000
v -0.990952 11.959014 -14.000000
v -2.945826 11.632803 -14.000000
v -4.820345 10.989280 -14.000000
v -6.563378 10.045998 -14.000000
v -8.127379 8.828687 -14.000000
v -9.469686 7.370553 -14.000000
v -10.553685 5.711369 -14.000000
v -11.349807 3.896394 -14.000000
v -11.836336 1.975135 -14.000000
v -12.000000 0.000000 -14.000000
v -11.836336 -1.975135 -14.000000
v -11.349807 -3.896394 -14.000000
v -10.553685 -5.711369 -14.000000
v -9.469686 -7.370553 -14.000000
v -8.127379 -8.828687 -14.000000
v -6.563378 -10.045998 -14.000000
v -4.820345 -10.989280 -14.000000
v -2.945826 -11.632803 -14.000000
v -0.990952 -11.959014 -14.000000
v 0.990952 -11.959014 -14.000000
v 2.945826 -11.632803 -14.000000
v 4.820345 -10.989280 -14.000000
v 6.563378 -10.045998 -14.000000
v 8.127379 -8.828687 -14.000000
v 9.469686 -7.370553 -14.000000
v 10.553685 -5.711369 -14.000000
v 11.349807 -3.896394 -14.000000
v 11.836336 -1.975135 -14.000000
v 12.000000 0.000000 -20.000000
v 11.836336 1.975135 -20.000000
v 11.836336 1.975135 -18.500000
v 12.000000 0.000000 -18.500000
v 11.349807 3.896394 -20.000000
v 11.349807 3.896394 -18.500000
v 10.553685 5.711369 -20.000000
v 10.553685 5.711369 -18.500000
v 9.469686 7.370553 -20.000000
v 9.469686 7.370553 -18.500000
v 8.127379 8.828687 -20.000000
v 8.127379 8.828687 -18.500000
v 6.563378 10.045998 -20.000000
v 6.563378 10.045998 -18.500000
v 4.820345 10.989280 -20.000000
v 4.820345 10.989280 -18.500000
v 2.945826 11.632803 -20.000000
v 2.945826 11.632803 -18.500000
v 0.990952 11.959014 -20.000000
v 0.990952 11.959014 -18.500000
v -0.990952 11.959014 -20.000000
v -0.990952 11.959014 -18.500000
v -2.945826 11.632803 -20.000000
v -2.945826 11.632803 -18.500000
v -4.820345 10.989280 -20.000000
v -4.820345 10.989280 -18.500000
v -6.563378 10.045998 -20.000000
v -6.563378 10.045998 -18.500000
v -8.127379 8.828687 -20.000000
v -8.127379 8.828687 -18.500000
v -9.469686 7.370553 -20.000000
v -9.469686 7.370553 -18.500000
v -10.553685 5.711369 -20.000000
v -10.553685 5.711369 -18.500000
v -11.349807 3.896394 -20.000000
v -11.349807 3.896394 -18.500000
v -11.836336 1.975135 -20.000000
v -11.836336 1.975135 -18.500000
v -12.000000 0.000000 -20.000000
v -12.000000 0.000000 -18.500000
v -11.836336 -1.975135 -20.000000
v -11.836336 -1.975135 -18.500000
v -11.349807 -3.896394 -20.000000
v -11.349807 -3.896394 -18.500000
v -10.553685 -5.711369 -20.000000
v -10.553685 -5.711369 -18.500000
v -9.469686 -7.370553 -20.000000
v -9.469686 -7.370553 -18.500000
v -8.127379 -8.828687 -20.000000
v -8.127379 -8.828687 -18.500000
v -6.563378 -10.045998 -20.000000
v -6.563378 -10.045998 -18.500000
v -4.820345 -10.989280 -20.000000
v -4.820345 -10.989280 -18.500000
v -2.945826 -11.632803 -20.000000
v -2.945826 -11.632803 -18.500000
v -0.990952 -11.959014 -20.000000
v -0.990952 -11.959014 -18.500000
v 0.990952 -11.959014 -20.000000
v 0.990952 -11.959014 -18.500000
v 2.945826 -11.632803 -20.000000
v 2.945826 -11.632803 -18.500000
v 4.820345 -10.989280 -20.000000
v 4.820345 -10.989280 -18.500000
v 6.563378 -10.045998 -20.000000
v 6.563378 -10.045998 -18.500000
v 8.127379 -8.828687 -20.000000
v 8.127379 -8.828687 -18.500000
v 9.469686 -7.370553 -20.000000
v 9.469686 -7.370553 -18.500000
v 10.553685 -5.711369 -20.000000
v 10.553685 -5.711369 -18.500000
v 11.349807 -3.896394 -20.000000
v 11.349807 -3.896394 -18.500000
v 11.836336 -1.975135 -20.000000
v 11.836336 -1.975135 -18.500000
v 11.836336 1.975135 -17.000000
v 12.000000 0.000000 -17.000000
v 11.349807 3.896394 -17.000000
v 10.553685 5.711369 -17.000000
v 9.469686 7.370553 -17.000000
v 8.127379 8.828687 -17.000000
v 6.563378 10.045998 -17.000000
v 4.820345 10.989280 -17.000000
v 2.945826 11.632803 -17.000000
v 0.990952 11.959014 -17.000000
v -0.990952 11.959014 -17.000000
v -2.945826 11.632803 -17.000000
v -4.820345 10.989280 -17.000000
v -6.563378 10.045998 -17.000000
v -8.127379 8.828687 -17.000000
v -9.469686 7.370553 -17.000000
v -10.553685 5.711369 -17.000000
v -11.349807 3.896394 -17.000000
v -11.836336 1.975135 -17.000000
v -12.000000 0.000000 -17.000000
v -11.836336 -1.975135 -17.000000
v -11.349807 -3.896394 -17.000000
v -10.553685 -5.711369 -17.000000
v -9.469686 -7.370553 -17.000000
v -8.127379 -8.828687 -17.000000
v -6.563378 -10.045998 -17.000000
v -4.820345 -10.989280 -17.000000
v -2.945826 -11.632803 -17.000000
v -0.990952 -11.959014 -17.000000
v 0.990952 -11.959014 -17.000000
v 2.945826 -11.632803 -17.000000
v 4.820345 -10.989280 -17.000000
v 6.563378 -10.045998 -17.000000
v 8.127379 -8.828687 -17.000000
v 9.469686 -7.370553 -17.000000
v 10.553685 -5.711369 -17.000000
v 11.349807 -3.896394 -17.000000
v 11.836336 -1.975135 -17.000000
v 11.836336 1.975135 -15.500000
v 12.000000 0.000000 -15.500000
v 11.349807 3.896394 -15.500000
v 10.553685 5.711369 -15.500000
v 9.469686 7.370553 -15.500000
v 8.127379 8.828687 -15.500000
v 6.563378 10.045998 -15.500000
v 4.820345 10.989280 -15.500000
v 2.945826 11.632803 -15.500000
v 0.990952 11.959014 -15.500000
v -0.990952 11.959014 -15.500000
v -2.945826 11.632803 -15.500000
v -4.820345 10.989280 -15.500000
v -6.563378 10.045998 -15.500000
v -8.127379 8.828687 -15.500000
v -9.469686 7.370553 -15.500000
v -10.553685 5.711369 -15.500000
v -11.349807 3.896394 -15.500000
v -11.836336 1.975135 -15.500000
v -12.000000 0.000000 -15.500000
v -11.836336 -1.975135 -15.500000
v -11.349807 -3.896394 -15.500000
v -10.553685 -5.711369 -15.500000
v -9.469686 -7.370553 -15.500000
v -8.127379 -8.828687 -15.500000
v -6.563378 -10.045998 -15.500000
v -4.820345 -10.989280 -15.500000
v -2.945826 -11.632803 -15.500000
v -0.990952 -11.959014 -15.500000
v 0.990952 -11.959014 -15.500000
v 2.945826 -11.632803 -15.500000
v 4.820345 -10.989280 -15.500000
v 6.563378 -10.045998 -15.500000
v 8.127379 -8.828687 -15.500000
v 9.469686 -7.370553 -15.500000
v 10.553685 -5.711369 -15.500000
v 11.349807 -3.896394 -15.500000
v 11.836336 -1.975135 -15.500000
v 0.000000 0.000000 -20.000000
v 1.479542 0.246892 -20.000000
v 1.500000 0.000000 -20.000000
v 1.418726 0.487049 -20.000000
v 1.319211 0.713921 -20.000000
v 1.183711 0.921319 -20.000000
v 1.015922 1.103586 -20.000000
v 0.820422 1.255750 -20.000000
v 0.602543 1.373660 -20.000000
v 0.368228 1.454100 -20.000000
v 0.123869 1.494877 -20.000000
v -0.123869 1.494877 -20.000000
v -0.368228 1.454100 -20.000000
v -0.602543 1.373660 -20.000000
v -0.820422 1.255750 -20.000000
v -1.015922 1.103586 -20.000000
v -1.183711 0.921319 -20.000000
v -1.319211 0.713921 -20.000000
v -1.418726 0.487049 -20.000000
v -1.479542 0.246892 -20.000000
v -1.500000 0.000000 -20.000000
v -1.479542 -0.246892 -20.000000
v -1.418726 -0.487049 -20.000000
v -1.319211 -0.713921 -20.000000
v -1.183711 -0.921319 -20.000000
v -1.015922 -1.103586 -20.000000
v -0.820422 -1.255750 -20.000000
v -0.602543 -1.373660 -20.000000
v -0.368228 -1.454100 -20.000000
v -0.123869 -1.494877 -20.000000
v 0.123869 -1.494877 -20.000000
v 0.368228 -1.454100 -20.000000
v 0.602543 -1.373660 -20.000000
v 0.820422 -1.255750 -20.000000
v 1.015922 -1.103586 -20.000000
v 1.183711 -0.921319 -20.000000
v 1.319211 -0.713921 -20.000000
v 1.418726 -0.487049 -20.000000
v 1.479542 -0.246892 -20.000000
v 2.959084 0.493784 -20.000000
v 3.000000 0.000000 -20.000000
v 2.837452 0.974098 -20.000000
v 2.638421 1.427842 -20.000000
v 2.367422 1.842638 -20.000000
v 2.031845 2.207172 -20.000000
v 1.640844 2.511499 -20.000000
v 1.205086 2.747320 -20.000000
v 0.736456 2.908201 -20.000000
v 0.247738 2.989753 -20.000000
v -0.247738 2.989753 -20.000000
v -0.736456 2.908201 -20.000000
v -1.205086 2.747320 -20.000000
v -1.640844 2.511499 -20.000000
v -2.031845 2.207172 -20.000000
v -2.367422 1.842638 -20.000000
v -2.638421 1.427842 -20.000000
v -2.837452 0.974098 -20.000000
v -2.959084 0.493784 -20.000000
v -3.000000 0.000000 -20.000000
v -2.959084 -0.493784 -20.000000
v -2.837452 -0.974098 -20.000000
v -2.638421 -1.427842 -20.000000
v -2.367422 -1.842638 -20.000000
v -2.031845 -2.207172 -20.000000
v -1.640844 -2.511499 -20.000000
v -1.205086 -2.747320 -20.000000
v -0.736456 -2.908201 -20.000000
v -0.247738 -2.989753 -20.000000
v 0.247738 -2.989753 -20.000000
v 0.736456 -2.908201 -20.000000
v 1.205086 -2.747320 -20.000000
v 1.640844 -2.511499 -20.000000
v 2.031845 -2.207172 -20.000000
v 2.367422 -1.842638 -20.000000
v 2.638421 -1.427842 -20.000000
v 2.837452 -0.974098 -20.000000
v 2.959084 -0.493784 -20.000000
v 4.438626 0.740676 -20.000000
v 4.500000 0.000000 -20.000000
v 4.256178 1.461148 -20.000000
v 3.957632 2.141763 -20.000000
v 3.551132 2.763957 -20.000000
v 3.047767 3.310758 -20.000000
v 2.461267 3.767249 -20.000000
v 1.807629 4.120980 -20.000000
v 1.104685 4.362301 -20.000000
v 0.371607 4.484630 -20.000000
v -0.371607 4.484630 -20.000000
v -1.104685 4.362301 -20.000000
v -1.807629 4.120980 -20.000000
v -2.461267 3.767249 -20.000000
v -3.047767 3.310758 -20.000000
v -3.551132 2.763957 -20.000000
v -3.957632 2.141763 -20.000000
v -4.256178 1.461148 -20.000000
v -4.438626 0.740676 -20.000000
v -4.500000 0.000000 -20.000000
v -4.438626 -0.740676 -20.000000
v -4.256178 -1.461148 -20.000000
v -3.957632 -2.141763 -20.000000
v -3.551132 -2.763957 -20.000000
v -3.047767 -3.310758 -20.000000
v -2.461267 -3.767249 -20.000000
v -1.807629 -4.120980 -20.000000
v -1.104685 -4.362301 -20.000000
v -0.371607 -4.484630 -20.000000
v 0.371607 -4.484630 -20.000000
v 1.104685 -4.362301 -20.000000
v 1.807629 -4.120980 -20.000000
v 2.461267 -3.767249 -20.000000
v 3.047767 -3.310758 -20.000000
v 3.551132 -2.763957 -20.000000
v 3.957632 -2.141763 -20.000000
v 4.256178 -1.461148 -20.000000
v 4.438626 -0.740676 -20.000000
v 5.918168 0.987568 -20.000000
v 6.000000 0.000000 -20.000000
v 5.674903 1.948197 -20.000000
v 5.276843 2.855684 -20.000000
v 4.734843 3.685276 -20.000000
v 4.063689 4.414343 -20.000000
v 3.281689 5.022999 -20.000000
v 2.410173 5.494640 -20.000000
v 1.472913 5.816402 -20.000000
v 0.495476 5.979507 -20.000000
v -0.495476 5.979507 -20.000000
v -1.472913 5.816402 -20.000000
v -2.410173 5.494640 -20.000000
v -3.281689 5.022999 -20.000000
v -4.063689 4.414343 -20.000000
v -4.734843 3.685276 -20.000000
v -5.276843 2.855684 -20.000000
v -5.674903 1.948197 -20.000000
v -5.918168 0.987568 -20.000000
v -6.000000 0.000000 -20.000000
v -5.918168 -0.987568 -20.000000
v -5.674903 -1.948197 -20.000000
v -5.276843 -2.855684 -20.000000
v -4.734843 -3.685276 -20.000000
v -4.063689 -4.414343 -20.000000
v -3.281689 -5.022999 -20.000000
v -2.410173 -5.494640 -20.000000
v -1.472913 -5.816402 -20.000000
v -0.495476 -5.979507 -20.000000
v 0.495476 -5.979507 -20.000000
v 1.472913 -5.816402 -20.000000
v 2.410173 -5.494640 -20.000000
v 3.281689 -5.022999 -20.000000
v 4.063689 -4.414343 -20.000000
v 4.734843 -3.685276 -20.000000
v 5.276843 -2.855684 -20.000000
v 5.674903 -1.948197 -20.000000
v 5.918168 -0.987568 -20.000000
v 7.397710 1.234459 -20.000000
v 7.500000 0.000000 -20.000000
v 7.093629 2.435246 -20.000000
v 6.596053 3.569605 -20.000000
v 5.918554 4.606595 -20.000000
v 5.079612 5.517929 -20.000000
v 4.102111 6.278749 -20.000000
v 3.012716 6.868300 -20.000000
v 1.841141 7.270502 -20.000000
v 0.619345 7.474384 -20.000000
v -0.619345 7.474384 -20.000000
v -1.841141 7.270502 -20.000000
v -3.012716 6.868300 -20.000000
v -4.102111 6.278749 -20.000000
v -5.079612 5.517929 -20.000000
v -5.918554 4.606595 -20.000000
v -6.596053 3.569605 -20.000000
v -7.093629 2.435246 -20.000000
v -7.397710 1.234459 -20.000000
v -7.500000 0.000000 -20.000000
v -7.397710 -1.234459 -20.000000
v -7.093629 -2.435246 -20.000000
v -6.596053 -3.569605 -20.000000
v -5.918554 -4.606595 -20.000000
v -5.079612 -5.517929 -20.000000
v -4.102111 -6.278749 -20.000000
v -3.012716 -6.868300 -20.000000
v -1.841141 -7.270502 -20.000000
v -0.619345 -7.474384 -20.000000
v 0.619345 -7.474384 -20.000000
v 1.841141 -7.270502 -20.000000
v 3.012716 -6.868300 -20.000000
v 4.102111 -6.278749 -20.000000
v 5.079612 -5.517929 -20.000000
v 5.918554 -4.606595 -20.000000
v 6.596053 -3.569605 -20.000000
v 7.093629 -2.435246 -20.000000
v 7.397710 -1.234459 -20.000000
v 8.877252 1.481351 -20.000000
v 9.000000 0.000000 -20.000000
v 8.512355 2.922295 -20.000000
v 7.915264 4.283527 -20.000000
v 7.102265 5.527914 -20.000000
v 6.095534 6.621515 -20.000000
v 4.922533 7.534498 -20.000000
v 3.615259 8.241960 -20.000000
v 2.209369 8.724602 -20.000000
v 0.743214 8.969260 -20.000000
v -0.743214 8.969260 -20.000000
v -2.209369 8.724602 -20.000000
v -3.615259 8.241960 -20.000000
v -4.922533 7.534498 -20.000000
v -6.095534 6.621515 -20.000000
v -7.102265 5.527914 -20.000000
v -7.915264 4.283527 -20.000000
v -8.512355 2.922295 -20.000000
v -8.877252 1.481351 -20.000000
v -9.000000 0.000000 -20.000000
v -8.877252 -1.481351 -20.000000
v -8.512355 -2.922295 -20.000000
v -7.915264 -4.283527 -20.000000
v -7.102265 -5.527914 -20.000000
v -6.095534 -6.621515 -20.000000
v -4.922533 -7.534498 -20.000000
v -3.615259 -8.241960 -20.000000
v -2.209369 -8.724602 -20.000000
v -0.743214 -8.969260 -20.000000
v 0.743214 -8.969260 -20.000000
v 2.209369 -8.724602 -20.000000
v 3.615259 -8.241960 -20.000000
v 4.922533 -7.534498 -20.000000
v 6.095534 -6.621515 -20.000000
v 7.102265 -5.527914 -20.000000
v 7.915264 -4.283527 -20.000000
v 8.512355 -2.922295 -20.000000
v 8.877252 -1.481351 -20.000000
v 10.356794 1.728243 -20.000000
v 10.500000 0.000000 -20.000000
v 9.931081 3.409344 -20.000000
v 9.234474 4.997448 -20.000000
v 8.285975 6.449233 -20.000000
v 7.111457 7.725101 -20.000000
v 5.742956 8.790248 -20.000000
v 4.217802 9.615620 -20.000000
v 2.577598 10.178703 -20.000000
v 0.867083 10.464137 -20.000000
v -0.867083 10.464137 -20.000000
v -2.577598 10.178703 -20.000000
v -4.217802 9.615620 -20.000000
v -5.742956 8.790248 -20.000000
v -7.111457 7.725101 -20.000000
v -8.285975 6.449233 -20.000000
v -9.234474 4.997448 -20.000000
v -9.931081 3.409344 -20.000000
v -10.356794 1.728243 -20.000000
v -10.500000 0.000000 -20.000000
v -10.356794 -1.728243 -20.000000
v -9.931081 -3.409344 -20.000000
v -9.234474 -4.997448 -20.000000
v -8.285975 -6.449233 -20.000000
v -7.111457 -7.725101 -20.000000
v -5.742956 -8.790248 -20.000000
v -4.217802 -9.615620 -20.000000
v -2.577598 -10.178703 -20.000000
v -0.867083 -10.464137 -20.000000
v 0.867083 -10.464137 -20.000000
v 2.577598 -10.178703 -20.000000
v 4.217802 -9.615620 -20.000000
v 5.742956 -8.790248 -20.000000
v 7.111457 -7.725101 -20.000000
v 8.285975 -6.449233 -20.000000
v 9.234474 -4.997448 -20.000000
v 9.931081 -3.409344 -20.000000
v 10.356794 -1.728243 -20.000000

f 1 2 3
f 1 3 4
f 2 5 6
f 2 6 3
f 5 7 8
f 5 8 6
f 7 9 10
f 7 10 8
f 9 11 12
f 9 12 10
f 11 13 14
f 11 14 12
f 13 15 16
f 13 16 14
f 15 17 18
f 15 18 16
f 17 19 20
f 17 20 18
f 19 21 22
f 19 22 20
f 21 23 24
f 21 24 22
f 23 25 26
f 23 26 24
f 25 27 28
f 25 28 26
f 27 29 30
f 27 30 28
f 29 31 32
f 29 32 30
f 31 33 34
f 31 34 32
f 33 35 36
f 33 36 34
f 35 37 38
f 35 38 36
f 37 39 40
f 37 40 38
f 39 41 42
f 39 42 40
f 41 43 44
f 41 44 42
f 43 45 46
f 43 46 44
f 45 47 48
f 45 48 46
f 47 49 50
f 47 50 48
f 49 51 52
f 49 52 50
f 51 53 54
f 51 54 52
f 53 55 56
f 53 56 54
f 55 57 58
f 55 58 56
f 57 59 60
f 57 60 58
f 59 61 62
f 59 62 60
f 61 63 64
f 61 64 62
f 63 65 66
f 63 66 64
f 65 67 68
f 65 68 66
f 67 69 70
f 67 70 68
f 69 71 72
f 69 72 70
f 71 73 74
f 71 74 72
f 73 75 76
f 73 76 74
f 75 1 4
f 75 4 76
f 4 3 77
f 4 77 78
f 3 6 79
f 3 79 77
f 6 8 80
f 6 80 79
f 8 10 81
f 8 81 80
f 10 12 82
f 10 82 81
f 12 14 83
f 12 83 82
f 14 16 84
f 14 84 83
f 16 18 85
f 16 85 84
f 18 20 86
f 18 86 85
f 20 22 87
f 20 87 86
f 22 24 88
f 22 88 87
f 24 26 89
f 24 89 88
f 26 28 90
f 26 90 89
f 28 30 91
f 28 91 90
f 30 32 92
f 30 92 91
f 32 34 93
f 32 93 92
f 34 36 94
f 34 94 93
f 36 38 95
f 36 95 94
f 38 40 96
f 38 96 95
f 40 42 97
f 40 97 96
f 42 44 98
f 42 98 97
f 44 46 99
f 44 99 98
f 46 48 100
f 46 100 99
f 48 50 101
f 48 101 100
f 50 52 102
f 50 102 101
f 52 54 103
f 52 103 102
f 54 56 104
f 54 104 103
f 56 58 105
f 56 105 104
f 58 60 106
f 58 106 105
f 60 62 107
f 60 107 106
f 62 64 108
f 62 108 107
f 64 66 109
f 64 109 108
f 66 68 110
f 66 110 109
f 68 70 111
f 68 111 110
f 70 72 112
f 70 112 111
f 72 74 113
f 72 113 112
f 74 76 114
f 74 114 113
f 76 4 78
f 76 78 114
f 78 77 115
f 78 115 116
f 77 79 117
f 77 117 115
f 79 80 118
f 79 118 117
f 80 81 119
f 80 119 118
f 81 82 120
f 81 120 119
f 82 83 121
f 82 121 120
f 83 84 122
f 83 122 121
f 84 85 123
f 84 123 122
f 85 86 124
f 85 124 123
f 86 87 125
f 86 125 124
f 87 88 126
f 87 126 125
f 88 89 127
f 88 127 126
f 89 90 128
f 89 128 127
f 90 91 129
f 90 129 128
f 91 92 130
f 91 130 129
f 92 93 131
f 92 131 130
f 93 94 132
f 93 132 131
f 94 95 133
f 94 133 132
f 95 96 134
f 95 134 133
f 96 97 135
f 96 135 134
f 97 98 136
f 97 136 135
f 98 99 137
f 98 137 136
f 99 100 138
f 99 138 137
f 100 101 139
f 100 139 138
f 101 102 140
f 101 140 139
f 102 103 141
f 102 141 140
f 103 104 142
f 103 142 141
f 104 105 143
f 104 143 142
f 105 106 144
f 105 144 143
f 106 107 145
f 106 145 144
f 107 108 146
f 107 146 145
f 108 109 147
f 108 147 146
f 109 110 148
f 109 148 147
f 110 111 149
f 110 149 148
f 111 112 150
f 111 150 149
f 112 113 151
f 112 151 150
f 113 114 152
f 113 152 151
f 114 78 116
f 114 116 152
f 116 115 153
f 116 153 154
f 115 117 155
f 115 155 153
f 117 118 156
f 117 156 155
f 118 119 157
f 118 157 156
f 119 120 158
f 119 158 157
f 120 121 159
f 120 159 158
f 121 122 160
f 121 160 159
f 122 123 161
f 122 161 160
f 123 124 162
f 123 162 161
f 124 125 163
f 124 163 162
f 125 126 164
f 125 164 163
f 126 127 165
f 126 165 164
f 127 128 166
f 127 166 165
f 128 129 167
f 128 167 166
f 129 130 168
f 129 168 167
f 130 131 169
f 130 169 168
f 131 132 170
f 131 170 169
f 132 133 171
f 132 171 170
f 133 134 172
f 133 172 171
f 134 135 173
f 134 173 172
f 135 136 174
f 135 174 173
f 136 137 175
f 136 175 174
f 137 138 176
f 137 176 175
f 138 139 177
f 138 177 176
f 139 140 178
f 139 178 177
f 140 141 179
f 140 179 178
f 141 142 180
f 141 180 179
f 142 143 181
f 142 181 180
f 143 144 182
f 143 182 181
f 144 145 183
f 144 183 182
f 145 146 184
f 145 184 183
f 146 147 185
f 146 185 184
f 147 148 186
f 147 186 185
f 148 149 187
f 148 187 186
f 149 150 188
f 149 188 187
f 150 151 189
f 150 189 188
f 151 152 190
f 151 190 189
f 152 116 154
f 152 154 190
f 154 153 191
f 154 191 192
f 153 155 193
f 153 193 191
f 155 156 194
f 155 194 193
f 156 157 195
f 156 195 194
f 157 158 196
f 157 196 195
f 158 159 197
f 158 197 196
f 159 160 198
f 159 198 197
f 160 161 199
f 160 199 198
f 161 162 200
f 161 200 199
f 162 163 201
f 162 201 200
f 163 164 202
f 163 202 201
f 164 165 203
f 164 203 202
f 165 166 204
f 165 204 203
f 166 167 205
f 166 205 204
f 167 168 206
f 167 206 205
f 168 169 207
f 168 207 206
f 169 170 208
f 169 208 207
f 170 171 209
f 170 209 208
f 171 172 210
f 171 210 209
f 172 173 211
f 172 211 210
f 173 174 212
f 173 212 211
f 174 175 213
f 174 213 212
f 175 176 214
f 175 214 213
f 176 177 215
f 176 215 214
f 177 178 216
f 177 216 215
f 178 179 217
f 178 217 216
f 179 180 218
f 179 218 217
f 180 181 219
f 180 219 218
f 181 182 220
f 181 220 219
f 182 183 221
f 182 221 220
f 183 184 222
f 183 222 221
f 184 185 223
f 184 223 222
f 185 186 224
f 185 224 223
f 186 187 225
f 186 225 224
f 187 188 226
f 187 226 225
f 188 189 227
f 188 227 226
f 189 190 228
f 189 228 227
f 190 154 192
f 190 192 228
f 192 191 229
f 192 229 230
f 191 193 231
f 191 231 229
f 193 194 232
f 193 232 231
f 194 195 233
f 194 233 232
f 195 196 234
f 195 234 233
f 196 197 235
f 196 235 234
f 197 198 236
f 197 236 235
f 198 199 237
f 198 237 236
f 199 200 238
f 199 238 237
f 200 201 239
f 200 239 238
f 201 202 240
f 201 240 239
f 202 203 241
f 202 241 240
f 203 204 242
f 203 242 241
f 204 205 243
f 204 243 242
f 205 206 244
f 205 244 243
f 206 207 245
f 206 245 244
f 207 208 246
f 207 246 245
f 208 209 247
f 208 247 246
f 209 210 248
f 209 248 247
f 210 211 249
f 210 249 248
f 211 212 250
f 211 250 249
f 212 213 251
f 212 251 250
f 213 214 252
f 213 252 251
f 214 215 253
f 214 253 252
f 215 216 254
f 215 254 253
f 216 217 255
f 216 255 254
f 217 218 256
f 217 256 255
f 218 219 257
f 218 257 256
f 219 220 258
f 219 258 257
f 220 221 259
f 220 259 258
f 221 222 260
f 221 260 259
f 222 223 261
f 222 261 260
f 223 224 262
f 223 262 261
f 224 225 263
f 224 263 262
f 225 226 264
f 225 264 263
f 226 227 265
f 226 265 264
f 227 228 266
f 227 266 265
f 228 192 230
f 228 230 266
f 230 229 267
f 230 267 268
f 229 231 269
f 229 269 267
f 231 232 270
f 231 270 269
f 232 233 271
f 232 271 270
f 233 234 272
f 233 272 271
f 234 235 273
f 234 273 272
f 235 236 274
f 235 274 273
f 236 237 275
f 236 275 274
f 237 238 276
f 237 276 275
f 238 239 277
f 238 277 276
f 239 240 278
f 239 278 277
f 240 241 279
f 240 279 278
f 241 242 280
f 241 280 279
f 242 243 281
f 242 281 280
f 243 244 282
f 243 282 281
f 244 245 283
f 244 283 282
f 245 246 284
f 245 284 283
f 246 247 285
f 246 285 284
f 247 248 286
f 247 286 285
f 248 249 287
f 248 287 286
f 249 250 288
f 249 288 287
f 250 251 289
f 250 289 288
f 251 252 290
f 251 290 289
f 252 253 291
f 252 291 290
f 253 254 292
f 253 292 291
f 254 255 293
f 254 293 292
f 255 256 294
f 255 294 293
f 256 257 295
f 256 295 294
f 257 258 296
f 257 296 295
f 258 259 297
f 258 297 296
f 259 260 298
f 259 298 297
f 260 261 299
f 260 299 298
f 261 262 300
f 261 300 299
f 262 263 301
f 262 301 300
f 263 264 302
f 263 302 301
f 264 265 303
f 264 303 302
f 265 266 304
f 265 304 303
f 266 230 268
f 266 268 304
f 268 267 305
f 268 305 306
f 267 269 307
f 267 307 305
f 269 270 308
f 269 308 307
f 270 271 309
f 270 309 308
f 271 272 310
f 271 310 309
f 272 273 311
f 272 311 310
f 273 274 312
f 273 312 311
f 274 275 313
f 274 313 312
f 275 276 314
f 275 314 313
f 276 277 315
f 276 315 314
f 277 278 316
f 277 316 315
f 278 279 317
f 278 317 316
f 279 280 318
f 279 318 317
f 280 281 319
f 280 319 318
f 281 282 320
f 281 320 319
f 282 283 321
f 282 321 320
f 283 284 322
f 283 322 321
f 284 285 323
f 284 323 322
f 285 286 324
f 285 324 323
f 286 287 325
f 286 325 324
f 287 288 326
f 287 326 325
f 288 289 327
f 288 327 326
f 289 290 328
f 289 328 327
f 290 291 329
f 290 329 328
f 291 292 330
f 291 330 329
f 292 293 331
f 292 331 330
f 293 294 332
f 293 332 331
f 294 295 333
f 294 333 332
f 295 296 334
f 295 334 333
f 296 297 335
f 296 335 334
f 297 298 336
f 297 336 335
f 298 299 337
f 298 337 336
f 299 300 338
f 299 338 337
f 300 301 339
f 300 339 338
f 301 302 340
f 301 340 339
f 302 303 341
f 302 341 340
f 303 304 342
f 303 342 341
f 304 268 306
f 304 306 342
f 306 305 343
f 306 343 344
f 305 307 345
f 305 345 343
f 307 308 346
f 307 346 345
f 308 309 347
f 308 347 346
f 309 310 348
f 309 348 347
f 310 311 349
f 310 349 348
f 311 312 350
f 311 350 349
f 312 313 351
f 312 351 350
f 313 314 352
f 313 352 351
f 314 315 353
f 314 353 352
f 315 316 354
f 315 354 353
f 316 317 355
f 316 355 354
f 317 318 356
f 317 356 355
f 318 319 357
f 318 357 356
f 319 320 358
f 319 358 357
f 320 321 359
f 320 359 358
f 321 322 360
f 321 360 359
f 322 323 361
f 322 361 360
f 323 324 362
f 323 362 361
f 324 325 363
f 324 363 362
f 325 326 364
f 325 364 363
f 326 327 365
f 326 365 364
f 327 328 366
f 327 366 365
f 328 329 367
f 328 367 366
f 329 330 368
f 329 368 367
f 330 331 369
f 330 369 368
f 331 332 370
f 331 370 369
f 332 333 371
f 332 371 370
f 333 334 372
f 333 372 371
f 334 335 373
f 334 373 372
f 335 336 374
f 335 374 373
f 336 337 375
f 336 375 374
f 337 338 376
f 337 376 375
f 338 339 377
f 338 377 376
f 339 340 378
f 339 378 377
f 340 341 379
f 340 379 378
f 341 342 380
f 341 380 379
f 342 306 344
f 342 344 380
f 344 343 381
f 344 381 382
f 343 345 383
f 343 383 381
f 345 346 384
f 345 384 383
f 346 347 385
f 346 385 384
f 347 348 386
f 347 386 385
f 348 349 387
f 348 387 386
f 349 350 388
f 349 388 387
f 350 351 389
f 350 389 388
f 351 352 390
f 351 390 389
f 352 353 391
f 352 391 390
f 353 354 392
f 353 392 391
f 354 355 393
f 354 393 392
f 355 356 394
f 355 394 393
f 356 357 395
f 356 395 394
f 357 358 396
f 357 396 395
f 358 359 397
f 358 397 396
f 359 360 398
f 359 398 397
f 360 361 399
f 360 399 398
f 361 362 400
f 361 400 399
f 362 363 401
f 362 401 400
f 363 364 402
f 363 402 401
f 364 365 403
f 364 403 402
f 365 366 404
f 365 404 403
f 366 367 405
f 366 405 404
f 367 368 406
f 367 406 405
f 368 369 407
f 368 407 406
f 369 370 408
f 369 408 407
f 370 371 409
f 370 409 408
f 371 372 410
f 371 410 409
f 372 373 411
f 372 411 410
f 373 374 412
f 373 412 411
f 374 375 413
f 374 413 412
f 375 376 414
f 375 414 413
f 376 377 415
f 376 415 414
f 377 378 416
f 377 416 415
f 378 379 417
f 378 417 416
f 379 380 418
f 379 418 417
f 380 344 382
f 380 382 418
f 382 381 419
f 382 419 420
f 381 383 421
f 381 421 419
f 383 384 422
f 383 422 421
f 384 385 423
f 384 423 422
f 385 386 424
f 385 424 423
f 386 387 425
f 386 425 424
f 387 388 426
f 387 426 425
f 388 389 427
f 388 427 426
f 389 390 428
f 389 428 427
f 390 391 429
f 390 429 428
f 391 392 430
f 391 430 429
f 392 393 431
f 392 431 430
f 393 394 432
f 393 432 431
f 394 395 433
f 394 433 432
f 395 396 434
f 395 434 433
f 396 397 435
f 396 435 434
f 397 398 436
f 397 436 435
f 398 399 437
f 398 437 436
f 399 400 438
f 399 438 437
f 400 401 439
f 400 439 438
f 401 402 440
f 401 440 439
f 402 403 441
f 402 441 440
f 403 404 442
f 403 442 441
f 404 405 443
f 404 443 442
f 405 406 444
f 405 444 443
f 406 407 445
f 406 445 444
f 407 408 446
f 407 446 445
f 408 409 447
f 408 447 446
f 409 410 448
f 409 448 447
f 410 411 449
f 410 449 448
f 411 412 450
f 411 450 449
f 412 413 451
f 412 451 450
f 413 414 452
f 413 452 451
f 414 415 453
f 414 453 452
f 415 416 454
f 415 454 453
f 416 417 455
f 416 455 454
f 417 418 456
f 417 456 455
f 418 382 420
f 418 420 456
f 420 419 457
f 420 457 458
f 419 421 459
f 419 459 457
f 421 422 460
f 421 460 459
f 422 423 461
f 422 461 460
f 423 424 462
f 423 462 461
f 424 425 463
f 424 463 462
f 425 426 464
f 425 464 463
f 426 427 465
f 426 465 464
f 427 428 466
f 427 466 465
f 428 429 467
f 428 467 466
f 429 430 468
f 429 468 467
f 430 431 469
f 430 469 468
f 431 432 470
f 431 470 469
f 432 433 471
f 432 471 470
f 433 434 472
f 433 472 471
f 434 435 473
f 434 473 472
f 435 436 474
f 435 474 473
f 436 437 475
f 436 475 474
f 437 438 476
f 437 476 475
f 438 439 477
f 438 477 476
f 439 440 478
f 439 478 477
f 440 441 479
f 440 479 478
f 441 442 480
f 441 480 479
f 442 443 481
f 442 481 480
f 443 444 482
f 443 482 481
f 444 445 483
f 444 483 482
f 445 446 484
f 445 484 483
f 446 447 485
f 446 485 484
f 447 448 486
f 447 486 485
f 448 449 487
f 448 487 486
f 449 450 488
f 449 488 487
f 450 451 489
f 450 489 488
f 451 452 490
f 451 490 489
f 452 453 491
f 452 491 490
f 453 454 492
f 453 492 491
f 454 455 493
f 454 493 492
f 455 456 494
f 455 494 493
f 456 420 458
f 456 458 494
f 458 457 495
f 458 495 496
f 457 459 497
f 457 497 495
f 459 460 498
f 459 498 497
f 460 461 499
f 460 499 498
f 461 462 500
f 461 500 499
f 462 463 501
f 462 501 500
f 463 464 502
f 463 502 501
f 464 465 503
f 464 503 502
f 465 466 504
f 465 504 503
f 466 467 505
f 466 505 504
f 467 468 506
f 467 506 505
f 468 469 507
f 468 507 506
f 469 470 508
f 469 508 507
f 470 471 509
f 470 509 508
f 471 472 510
f 471 510 509
f 472 473 511
f 472 511 510
f 473 474 512
f 473 512 511
f 474 475 513
f 474 513 512
f 475 476 514
f 475 514 513
f 476 477 515
f 476 515 514
f 477 478 516
f 477 516 515
f 478 479 517
f 478 517 516
f 479 480 518
f 479 518 517
f 480 481 519
f 480 519 518
f 481 482 520
f 481 520 519
f 482 483 521
f 482 521 520
f 483 484 522
f 483 522 521
f 484 485 523
f 484 523 522
f 485 486 524
f 485 524 523
f 486 487 525
f 486 525 524
f 487 488 526
f 487 526 525
f 488 489 527
f 488 527 526
f 489 490 528
f 489 528 527
f 490 491 529
f 490 529 528
f 491 492 530
f 491 530 529
f 492 493 531
f 492 531 530
f 493 494 532
f 493 532 531
f 494 458 496
f 494 496 532
f 496 495 533
f 496 533 534
f 495 497 535
f 495 535 533
f 497 498 536
f 497 536 535
f 498 499 537
f 498 537 536
f 499 500 538
f 499 538 537
f 500 501 539
f 500 539 538
f 501 502 540
f 501 540 539
f 502 503 541
f 502 541 540
f 503 504 542
f 503 542 541
f 504 505 543
f 504 543 542
f 505 506 544
f 505 544 543
f 506 507 545
f 506 545 544
f 507 508 546
f 507 546 545
f 508 509 547
f 508 547 546
f 509 510 548
f 509 548 547
f 510 511 549
f 510 549 548
f 511 512 550
f 511 550 549
f 512 513 551
f 512 551 550
f 513 514 552
f 513 552 551
f 514 515 553
f 514 553 552
f 515 516 554
f 515 554 553
f 516 517 555
f 516 555 554
f 517 518 556
f 517 556 555
f 518 519 557
f 518 557 556
f 519 520 558
f 519 558 557
f 520 521 559
f 520 559 558
f 521 522 560
f 521 560 559
f 522 523 561
f 522 561 560
f 523 524 562
f 523 562 561
f 524 525 563
f 524 563 562
f 525 526 564
f 525 564 563
f 526 527 565
f 526 565 564
f 527 528 566
f 527 566 565
f 528 529 567
f 528 567 566
f 529 530 568
f 529 568 567
f 530 531 569
f 530 569 568
f 531 532 570
f 531 570 569
f 532 496 534
f 532 534 570
f 534 533 571
f 534 571 572
f 533 535 573
f 533 573 571
f 535 536 574
f 535 574 573
f 536 537 575
f 536 575 574
f 537 538 576
f 537 576 575
f 538 539 577
f 538 577 576
f 539 540 578
f 539 578 577
f 540 541 579
f 540 579 578
f 541 542 580
f 541 580 579
f 542 543 581
f 542 581 580
f 543 544 582
f 543 582 581
f 544 545 583
f 544 583 582
f 545 546 584
f 545 584 583
f 546 547 585
f 546 585 584
f 547 548 586
f 547 586 585
f 548 549 587
f 548 587 586
f 549 550 588
f 549 588 587
f 550 551 589
f 550 589 588
f 551 552 590
f 551 590 589
f 552 553 591
f 552 591 590
f 553 554 592
f 553 592 591
f 554 555 593
f 554 593 592
f 555 556 594
f 555 594 593
f 556 557 595
f 556 595 594
f 557 558 596
f 557 596 595
f 558 559 597
f 558 597 596
f 559 560 598
f 559 598 597
f 560 561 599
f 560 599 598
f 561 562 600
f 561 600 599
f 562 563 601
f 562 601 600
f 563 564 602
f 563 602 601
f 564 565 603
f 564 603 602
f 565 566 604
f 565 604 603
f 566 567 605
f 566 605 604
f 567 568 606
f 567 606 605
f 568 569 607
f 568 607 606
f 569 570 608
f 569 608 607
f 570 534 572
f 570 572 608
f 1 609 610
f 1 610 2
f 2 610 611
f 2 611 5
f 5 611 612
f 5 612 7
f 7 612 613
f 7 613 9
f 9 613 614
f 9 614 11
f 11 614 615
f 11 615 13
f 13 615 616
f 13 616 15
f 15 616 617
f 15 617 17
f 17 617 618
f 17 618 19
f 19 618 619
f 19 619 21
f 21 619 620
f 21 620 23
f 23 620 621
f 23 621 25
f 25 621 622
f 25 622 27
f 27 622 623
f 27 623 29
f 29 623 624
f 29 624 31
f 31 624 625
f 31 625 33
f 33 625 626
f 33 626 35
f 35 626 627
f 35 627 37
f 37 627 628
f 37 628 39
f 39 628 629
f 39 629 41
f 41 629 630
f 41 630 43
f 43 630 631
f 43 631 45
f 45 631 632
f 45 632 47
f 47 632 633
f 47 633 49
f 49 633 634
f 49 634 51
f 51 634 635
f 51 635 53
f 53 635 636
f 53 636 55
f 55 636 637
f 55 637 57
f 57 637 638
f 57 638 59
f 59 638 639
f 59 639 61
f 61 639 640
f 61 640 63
f 63 640 641
f 63 641 65
f 65 641 642
f 65 642 67
f 67 642 643
f 67 643 69
f 69 643 644
f 69 644 71
f 71 644 645
f 71 645 73
f 73 645 646
f 73 646 75
f 75 646 609
f 75 609 1
f 609 647 648
f 609 648 610
f 610 648 649
f 610 649 611
f 611 649 650
f 611 650 612
f 612 650 651
f 612 651 613
f 613 651 652
f 613 652 614
f 614 652 653
f 614 653 615
f 615 653 654
f 615 654 616
f 616 654 655
f 616 655 617
f 617 655 656
f 617 656 618
f 618 656 657
f 618 657 619
f 619 657 658
f 619 658 620
f 620 658 659
f 620 659 621
f 621 659 660
f 621 660 622
f 622 660 661
f 622 661 623
f 623 661 662
f 623 662 624
f 624 662 663
f 624 663 625
f 625 663 664
f 625 664 626
f 626 664 665
f 626 665 627
f 627 665 666
f 627 666 628
f 628 666 667
f 628 667 629
f 629 667 668
f 629 668 630
f 630 668 669
f 630 669 631
f 631 669 670
f 631 670 632
f 632 670 671
f 632 671 633
f 633 671 672
f 633 672 634
f 634 672 673
f 634 673 635
f 635 673 674
f 635 674 636
f 636 674 675
f 636 675 637
f 637 675 676
f 637 676 638
f 638 676 677
f 638 677 639
f 639 677 678
f 639 678 640
f 640 678 679
f 640 679 641
f 641 679 680
f 641 680 642
f 642 680 681
f 642 681 643
f 643 681 682
f 643 682 644
f 644 682 683
f 644 683 645
f 645 683 684
f 645 684 646
f 646 684 647
f 646 647 609
f 647 685 686
f 647 686 648
f 648 686 687
f 648 687 649
f 649 687 688
f 649 688 650
f 650 688 689
f 650 689 651
f 651 689 690
f 651 690 652
f 652 690 691
f 652 691 653
f 653 691 692
f 653 692 654
f 654 692 693
f 654 693 655
f 655 693 694
f 655 694 656
f 656 694 695
f 656 695 657
f 657 695 696
f 657 696 658
f 658 696 697
f 658 697 659
f 659 697 698
f 659 698 660
f 660 698 699
f 660 699 661
f 661 699 700
f 661 700 662
f 662 700 701
f 662 701 663
f 663 701 702
f 663 702 664
f 664 702 703
f 664 703 665
f 665 703 704
f 665 704 666
f 666 704 705
f 666 705 667
f 667 705 706
f 667 706 668
f 668 706 707
f 668 707 669
f 669 707 708
f 669 708 670
f 670 708 709
f 670 709 671
f 671 709 710
f 671 710 672
f 672 710 711
f 672 711 673
f 673 711 712
f 673 712 674
f 674 712 713
f 674 713 675
f 675 713 714
f 675 714 676
f 676 714 715
f 676 715 677
f 677 715 716
f 677 716 678
f 678 716 717
f 678 717 679
f 679 717 718
f 679 718 680
f 680 718 719
f 680 719 681
f 681 719 720
f 681 720 682
f 682 720 721
f 682 721 683
f 683 721 722
f 683 722 684
f 684 722 685
f 684 685 647
f 685 723 724
f 685 724 686
f 686 724 725
f 686 725 687
f 687 725 726
f 687 726 688
f 688 726 727
f 688 727 689
f 689 727 728
f 689 728 690
f 690 728 729
f 690 729 691
f 691 729 730
f 691 730 692
f 692 730 731
f 692 731 693
f 693 731 732
f 693 732 694
f 694 732 733
f 694 733 695
f 695 733 734
f 695 734 696
f 696 734 735
f 696 735 697
f 697 735 736
f 697 736 698
f 698 736 737
f 698 737 699
f 699 737 738
f 699 738 700
f 700 738 739
f 700 739 701
f 701 739 740
f 701 740 702
f 702 740 741
f 702 741 703
f 703 741 742
f 703 742 704
f 704 742 743
f 704 743 705
f 705 743 744
f 705 744 706
f 706 744 745
f 706 745 707
f 707 745 746
f 707 746 708
f 708 746 747
f 708 747 709
f 709 747 748
f 709 748 710
f 710 748 749
f 710 749 711
f 711 749 750
f 711 750 712
f 712 750 751
f 712 751 713
f 713 751 752
f 713 752 714
f 714 752 753
f 714 753 715
f 715 753 754
f 715 754 716
f 716 754 755
f 716 755 717
f 717 755 756
f 717 756 718
f 718 756 757
f 718 757 719
f 719 757 758
f 719 758 720
f 720 758 759
f 720 759 721
f 721 759 760
f 721 760 722
f 722 760 723
f 722 723 685
f 761 762 763
f 761 763 764
f 762 765 766
f 762 766 763
f 765 767 768
f 765 768 766
f 767 769 770
f 767 770 768
f 769 771 772
f 769 772 770
f 771 773 774
f 771 774 772
f 773 775 776
f 773 776 774
f 775 777 778
f 775 778 776
f 777 779 780
f 777 780 778
f 779 781 782
f 779 782 780
f 781 783 784
f 781 784 782
f 783 785 786
f 783 786 784
f 785 787 788
f 785 788 786
f 787 789 790
f 787 790 788
f 789 791 792
f 789 792 790
f 791 793 794
f 791 794 792
f 793 795 796
f 793 796 794
f 795 797 798
f 795 798 796
f 797 799 800
f 797 800 798
f 799 801 802
f 799 802 800
f 801 803 804
f 801 804 802
f 803 805 806
f 803 806 804
f 805 807 808
f 805 808 806
f 807 809 810
f 807 810 808
f 809 811 812
f 809 812 810
f 811 813 814
f 811 814 812
f 813 815 816
f 813 816 814
f 815 817 818
f 815 818 816
f 817 819 820
f 817 820 818
f 819 821 822
f 819 822 820
f 821 823 824
f 821 824 822
f 823 825 826
f 823 826 824
f 825 827 828
f 825 828 826
f 827 829 830
f 827 830 828
f 829 831 832
f 829 832 830
f 831 833 834
f 831 834 832
f 833 835 836
f 833 836 834
f 835 761 764
f 835 764 836
f 764 763 837
f 764 837 838
f 763 766 839
f 763 839 837
f 766 768 840
f 766 840 839
f 768 770 841
f 768 841 840
f 770 772 842
f 770 842 841
f 772 774 843
f 772 843 842
f 774 776 844
f 774 844 843
f 776 778 845
f 776 845 844
f 778 780 846
f 778 846 845
f 780 782 847
f 780 847 846
f 782 784 848
f 782 848 847
f 784 786 849
f 784 849 848
f 786 788 850
f 786 850 849
f 788 790 851
f 788 851 850
f 790 792 852
f 790 852 851
f 792 794 853
f 792 853 852
f 794 796 854
f 794 854 853
f 796 798 855
f 796 855 854
f 798 800 856
f 798 856 855
f 800 802 857
f 800 857 856
f 802 804 858
f 802 858 857
f 804 806 859
f 804 859 858
f 806 808 860
f 806 860 859
f 808 810 861
f 808 861 860
f 810 812 862
f 810 862 861
f 812 814 863
f 812 863 862
f 814 816 864
f 814 864 863
f 816 818 865
f 816 865 864
f 818 820 866
f 818 866 865
f 820 822 867
f 820 867 866
f 822 824 868
f 822 868 867
f 824 826 869
f 824 869 868
f 826 828 870
f 826 870 869
f 828 830 871
f 828 871 870
f 830 832 872
f 830 872 871
f 832 834 873
f 832 873 872
f 834 836 874
f 834 874 873
f 836 764 838
f 836 838 874
f 838 837 875
f 838 875 876
f 837 839 877
f 837 877 875
f 839 840 878
f 839 878 877
f 840 841 879
f 840 879 878
f 841 842 880
f 841 880 879
f 842 843 881
f 842 881 880
f 843 844 882
f 843 882 881
f 844 845 883
f 844 883 882
f 845 846 884
f 845 884 883
f 846 847 885
f 846 885 884
f 847 848 886
f 847 886 885
f 848 849 887
f 848 887 886
f 849 850 888
f 849 888 887
f 850 851 889
f 850 889 888
f 851 852 890
f 851 890 889
f 852 853 891
f 852 891 890
f 853 854 892
f 853 892 891
f 854 855 893
f 854 893 892
f 855 856 894
f 855 894 893
f 856 857 895
f 856 895 894
f 857 858 896
f 857 896 895
f 858 859 897
f 858 897 896
f 859 860 898
f 859 898 897
f 860 861 899
f 860 899 898
f 861 862 900
f 861 900 899
f 862 863 901
f 862 901 900
f 863 864 902
f 863 902 901
f 864 865 903
f 864 903 902
f 865 866 904
f 865 904 903
f 866 867 905
f 866 905 904
f 867 868 906
f 867 906 905
f 868 869 907
f 868 907 906
f 869 870 908
f 869 908 907
f 870 871 909
f 870 909 908
f 871 872 910
f 871 910 909
f 872 873 911
f 872 911 910
f 873 874 912
f 873 912 911
f 874 838 876
f 874 876 912
f 876 875 724
f 876 724 723
f 875 877 725
f 875 725 724
f 877 878 726
f 877 726 725
f 878 879 727
f 878 727 726
f 879 880 728
f 879 728 727
f 880 881 729
f 880 729 728
f 881 882 730
f 881 730 729
f 882 883 731
f 882 731 730
f 883 884 732
f 883 732 731
f 884 885 733
f 884 733 732
f 885 886 734
f 885 734 733
f 886 887 735
f 886 735 734
f 887 888 736
f 887 736 735
f 888 889 737
f 888 737 736
f 889 890 738
f 889 738 737
f 890 891 739
f 890 739 738
f 891 892 740
f 891 740 739
f 892 893 741
f 892 741 740
f 893 894 742
f 893 742 741
f 894 895 743
f 894 743 742
f 895 896 744
f 895 744 743
f 896 897 745
f 896 745 744
f 897 898 746
f 897 746 745
f 898 899 747
f 898 747 746
f 899 900 748
f 899 748 747
f 900 901 749
f 900 749 748
f 901 902 750
f 901 750 749
f 902 903 751
f 902 751 750
f 903 904 752
f 903 752 751
f 904 905 753
f 904 753 752
f 905 906 754
f 905 754 753
f 906 907 755
f 906 755 754
f 907 908 756
f 907 756 755
f 908 909 757
f 908 757 756
f 909 910 758
f 909 758 757
f 910 911 759
f 910 759 758
f 911 912 760
f 911 760 759
f 912 876 723
f 912 723 760
f 913 913 914
f 913 914 915
f 913 913 916
f 913 916 914
f 913 913 917
f 913 917 916
f 913 913 918
f 913 918 917
f 913 913 919
f 913 919 918
f 913 913 920
f 913 920 919
f 913 913 921
f 913 921 920
f 913 913 922
f 913 922 921
f 913 913 923
f 913 923 922
f 913 913 924
f 913 924 923
f 913 913 925
f 913 925 924
f 913 913 926
f 913 926 925
f 913 913 927
f 913 927 926
f 913 913 928
f 913 928 927
f 913 913 929
f 913 929 928
f 913 913 930
f 913 930 929
f 913 913 931
f 913 931 930
f 913 913 932
f 913 932 931
f 913 913 933
f 913 933 932
f 913 913 934
f 913 934 933
f 913 913 935
f 913 935 934
f 913 913 936
f 913 936 935
f 913 913 937
f 913 937 936
f 913 913 938
f 913 938 937
f 913 913 939
f 913 939 938
f 913 913 940
f 913 940 939
f 913 913 941
f 913 941 940
f 913 913 942
f 913 942 941
f 913 913 943
f 913 943 942
f 913 913 944
f 913 944 943
f 913 913 945
f 913 945 944
f 913 913 946
f 913 946 945
f 913 913 947
f 913 947 946
f 913 913 948
f 913 948 947
f 913 913 949
f 913 949 948
f 913 913 950
f 913 950 949
f 913 913 951
f 913 951 950
f 913 913 915
f 913 915 951
f 915 914 952
f 915 952 953
f 914 916 954
f 914 954 952
f 916 917 955
f 916 955 954
f 917 918 956
f 917 956 955
f 918 919 957
f 918 957 956
f 919 920 958
f 919 958 957
f 920 921 959
f 920 959 958
f 921 922 960
f 921 960 959
f 922 923 961
f 922 961 960
f 923 924 962
f 923 962 961
f 924 925 963
f 924 963 962
f 925 926 964
f 925 964 963
f 926 927 965
f 926 965 964
f 927 928 966
f 927 966 965
f 928 929 967
f 928 967 966
f 929 930 968
f 929 968 967
f 930 931 969
f 930 969 968
f 931 932 970
f 931 970 969
f 932 933 971
f 932 971 970
f 933 934 972
f 933 972 971
f 934 935 973
f 934 973 972
f 935 936 974
f 935 974 973
f 936 937 975
f 936 975 974
f 937 938 976
f 937 976 975
f 938 939 977
f 938 977 976
f 939 940 978
f 939 978 977
f 940 941 979
f 940 979 978
f 941 942 980
f 941 980 979
f 942 943 981
f 942 981 980
f 943 944 982
f 943 982 981
f 944 945 983
f 944 983 982
f 945 946 984
f 945 984 983
f 946 947 985
f 946 985 984
f 947 948 986
f 947 986 985
f 948 949 987
f 948 987 986
f 949 950 988
f 949 988 987
f 950 951 989
f 950 989 988
f 951 915 953
f 951 953 989
f 953 952 990
f 953 990 991
f 952 954 992
f 952 992 990
f 954 955 993
f 954 993 992
f 955 956 994
f 955 994 993
f 956 957 995
f 956 995 994
f 957 958 996
f 957 996 995
f 958 959 997
f 958 997 996
f 959 960 998
f 959 998 997
f 960 961 999
f 960 999 998
f 961 962 1000
f 961 1000 999
f 962 963 1001
f 962 1001 1000
f 963 964 1002
f 963 1002 1001
f 964 965 1003
f 964 1003 1002
f 965 966 1004
f 965 1004 1003
f 966 967 1005
f 966 1005 1004
f 967 968 1006
f 967 1006 1005
f 968 969 1007
f 968 1007 1006
f 969 970 1008
f 969 1008 1007
f 970 971 1009
f 970 1009 1008
f 971 972 1010
f 971 1010 1009
f 972 973 1011
f 972 1011 1010
f 973 974 1012
f 973 1012 1011
f 974 975 1013
f 974 1013 1012
f 975 976 1014
f 975 1014 1013
f 976 977 1015
f 976 1015 1014
f 977 978 1016
f 977 1016 1015
f 978 979 1017
f 978 1017 1016
f 979 980 1018
f 979 1018 1017
f 980 981 1019
f 980 1019 1018
f 981 982 1020
f 981 1020 1019
f 982 983 1021
f 982 1021 1020
f 983 984 1022
f 983 1022 1021
f 984 985 1023
f 984 1023 1022
f 985 986 1024
f 985 1024 1023
f 986 987 1025
f 986 1025 1024
f 987 988 1026
f 987 1026 1025
f 988 989 1027
f 988 1027 1026
f 989 953 991
f 989 991 1027
f 991 990 1028
f 991 1028 1029
f 990 992 1030
f 990 1030 1028
f 992 993 1031
f 992 1031 1030
f 993 994 1032
f 993 1032 1031
f 994 995 1033
f 994 1033 1032
f 995 996 1034
f 995 1034 1033
f 996 997 1035
f 996 1035 1034
f 997 998 1036
f 997 1036 1035
f 998 999 1037
f 998 1037 1036
f 999 1000 1038
f 999 1038 1037
f 1000 1001 1039
f 1000 1039 1038
f 1001 1002 1040
f 1001 1040 1039
f 1002 1003 1041
f 1002 1041 1040
f 1003 1004 1042
f 1003 1042 1041
f 1004 1005 1043
f 1004 1043 1042
f 1005 1006 1044
f 1005 1044 1043
f 1006 1007 1045
f 1006 1045 1044
f 1007 1008 1046
f 1007 1046 1045
f 1008 1009 1047
f 1008 1047 1046
f 1009 1010 1048
f 1009 1048 1047
f 1010 1011 1049
f 1010 1049 1048
f 1011 1012 1050
f 1011 1050 1049
f 1012 1013 1051
f 1012 1051 1050
f 1013 1014 1052
f 1013 1052 1051
f 1014 1015 1053
f 1014 1053 1052
f 1015 1016 1054
f 1015 1054 1053
f 1016 1017 1055
f 1016 1055 1054
f 1017 1018 1056
f 1017 1056 1055
f 1018 1019 1057
f 1018 1057 1056
f 1019 1020 1058
f 1019 1058 1057
f 1020 1021 1059
f 1020 1059 1058
f 1021 1022 1060
f 1021 1060 1059
f 1022 1023 1061
f 1022 1061 1060
f 1023 1024 1062
f 1023 1062 1061
f 1024 1025 1063
f 1024 1063 1062
f 1025 1026 1064
f 1025 1064 1063
f 1026 1027 1065
f 1026 1065 1064
f 1027 991 1029
f 1027 1029 1065
f 1029 1028 1066
f 1029 1066 1067
f 1028 1030 1068
f 1028 1068 1066
f 1030 1031 1069
f 1030 1069 1068
f 1031 1032 1070
f 1031 1070 1069
f 1032 1033 1071
f 1032 1071 1070
f 1033 1034 1072
f 1033 1072 1071
f 1034 1035 1073
f 1034 1073 1072
f 1035 1036 1074
f 1035 1074 1073
f 1036 1037 1075
f 1036 1075 1074
f 1037 1038 1076
f 1037 1076 1075
f 1038 1039 1077
f 1038 1077 1076
f 1039 1040 1078
f 1039 1078 1077
f 1040 1041 1079
f 1040 1079 1078
f 1041 1042 1080
f 1041 1080 1079
f 1042 1043 1081
f 1042 1081 1080
f 1043 1044 1082
f 1043 1082 1081
f 1044 1045 1083
f 1044 1083 1082
f 1045 1046 1084
f 1045 1084 1083
f 1046 1047 1085
f 1046 1085 1084
f 1047 1048 1086
f 1047 1086 1085
f 1048 1049 1087
f 1048 1087 1086
f 1049 1050 1088
f 1049 1088 1087
f 1050 1051 1089
f 1050 1089 1088
f 1051 1052 1090
f 1051 1090 1089
f 1052 1053 1091
f 1052 1091 1090
f 1053 1054 1092
f 1053 1092 1091
f 1054 1055 1093
f 1054 1093 1092
f 1055 1056 1094
f 1055 1094 1093
f 1056 1057 1095
f 1056 1095 1094
f 1057 1058 1096
f 1057 1096 1095
f 1058 1059 1097
f 1058 1097 1096
f 1059 1060 1098
f 1059 1098 1097
f 1060 1061 1099
f 1060 1099 1098
f 1061 1062 1100
f 1061 1100 1099
f 1062 1063 1101
f 1062 1101 1100
f 1063 1064 1102
f 1063 1102 1101
f 1064 1065 1103
f 1064 1103 1102
f 1065 1029 1067
f 1065 1067 1103
f 1067 1066 1104
f 1067 1104 1105
f 1066 1068 1106
f 1066 1106 1104
f 1068 1069 1107
f 1068 1107 1106
f 1069 1070 1108
f 1069 1108 1107
f 1070 1071 1109
f 1070 1109 1108
f 1071 1072 1110
f 1071 1110 1109
f 1072 1073 1111
f 1072 1111 1110
f 1073 1074 1112
f 1073 1112 1111
f 1074 1075 1113
f 1074 1113 1112
f 1075 1076 1114
f 1075 1114 1113
f 1076 1077 1115
f 1076 1115 1114
f 1077 1078 1116
f 1077 1116 1115
f 1078 1079 1117
f 1078 1117 1116
f 1079 1080 1118
f 1079 1118 1117
f 1080 1081 1119
f 1080 1119 1118
f 1081 1082 1120
f 1081 1120 1119
f 1082 1083 1121
f 1082 1121 1120
f 1083 1084 1122
f 1083 1122 1121
f 1084 1085 1123
f 1084 1123 1122
f 1085 1086 1124
f 1085 1124 1123
f 1086 1087 1125
f 1086 1125 1124
f 1087 1088 1126
f 1087 1126 1125
f 1088 1089 1127
f 1088 1127 1126
f 1089 1090 1128
f 1089 1128 1127
f 1090 1091 1129
f 1090 1129 1128
f 1091 1092 1130
f 1091 1130 1129
f 1092 1093 1131
f 1092 1131 1130
f 1093 1094 1132
f 1093 1132 1131
f 1094 1095 1133
f 1094 1133 1132
f 1095 1096 1134
f 1095 1134 1133
f 1096 1097 1135
f 1096 1135 1134
f 1097 1098 1136
f 1097 1136 1135
f 1098 1099 1137
f 1098 1137 1136
f 1099 1100 1138
f 1099 1138 1137
f 1100 1101 1139
f 1100 1139 1138
f 1101 1102 1140
f 1101 1140 1139
f 1102 1103 1141
f 1102 1141 1140
f 1103 1067 1105
f 1103 1105 1141
f 1105 1104 1142
f 1105 1142 1143
f 1104 1106 1144
f 1104 1144 1142
f 1106 1107 1145
f 1106 1145 1144
f 1107 1108 1146
f 1107 1146 1145
f 1108 1109 1147
f 1108 1147 1146
f 1109 1110 1148
f 1109 1148 1147
f 1110 1111 1149
f 1110 1149 1148
f 1111 1112 1150
f 1111 1150 1149
f 1112 1113 1151
f 1112 1151 1150
f 1113 1114 1152
f 1113 1152 1151
f 1114 1115 1153
f 1114 1153 1152
f 1115 1116 1154
f 1115 1154 1153
f 1116 1117 1155
f 1116 1155 1154
f 1117 1118 1156
f 1117 1156 1155
f 1118 1119 1157
f 1118 1157 1156
f 1119 1120 1158
f 1119 1158 1157
f 1120 1121 1159
f 1120 1159 1158
f 1121 1122 1160
f 1121 1160 1159
f 1122 1123 1161
f 1122 1161 1160
f 1123 1124 1162
f 1123 1162 1161
f 1124 1125 1163
f 1124 1163 1162
f 1125 1126 1164
f 1125 1164 1163
f 1126 1127 1165
f 1126 1165 1164
f 1127 1128 1166
f 1127 1166 1165
f 1128 1129 1167
f 1128 1167 1166
f 1129 1130 1168
f 1129 1168 1167
f 1130 1131 1169
f 1130 1169 1168
f 1131 1132 1170
f 1131 1170 1169
f 1132 1133 1171
f 1132 1171 1170
f 1133 1134 1172
f 1133 1172 1171
f 1134 1135 1173
f 1134 1173 1172
f 1135 1136 1174
f 1135 1174 1173
f 1136 1137 1175
f 1136 1175 1174
f 1137 1138 1176
f 1137 1176 1175
f 1138 1139 1177
f 1138 1177 1176
f 1139 1140 1178
f 1139 1178 1177
f 1140 1141 1179
f 1140 1179 1178
f 1141 1105 1143
f 1141 1143 1179
f 1143 1142 762
f 1143 762 761
f 1142 1144 765
f 1142 765 762
f 1144 1145 767
f 1144 767 765
f 1145 1146 769
f 1145 769 767
f 1146 1147 771
f 1146 771 769
f 1147 1148 773
f 1147 773 771
f 1148 1149 775
f 1148 775 773
f 1149 1150 777
f 1149 777 775
f 1150 1151 779
f 1150 779 777
f 1151 1152 781
f 1151 781 779
f 1152 1153 783
f 1152 783 781
f 1153 1154 785
f 1153 785 783
f 1154 1155 787
f 1154 787 785
f 1155 1156 789
f 1155 789 787
f 1156 1157 791
f 1156 791 789
f 1157 1158 793
f 1157 793 791
f 1158 1159 795
f 1158 795 793
f 1159 1160 797
f 1159 797 795
f 1160 1161 799
f 1160 799 797
f 1161 1162 801
f 1161 801 799
f 1162 1163 803
f 1162 803 801
f 1163 1164 805
f 1163 805 803
f 1164 1165 807
f 1164 807 805
f 1165 1166 809
f 1165 809 807
f 1166 1167 811
f 1166 811 809
f 1167 1168 813
f 1167 813 811
f 1168 1169 815
f 1168 815 813
f 1169 1170 817
f 1169 817 815
f 1170 1171 819
f 1170 819 817
f 1171 1172 821
f 1171 821 819
f 1172 1173 823
f 1172 823 821
f 1173 1174 825
f 1173 825 823
f 1174 1175 827
f 1174 827 825
f 1175 1176 829
f 1175 829 827
f 1176 1177 831
f 1176 831 829
f 1177 1178 833
f 1177 833 831
f 1178 1179 835
f 1178 835 833
f 1179 1143 761
f 1179 761 835
