$MeshFormat
2.2 0 8
$EndMeshFormat
$PhysicalNames
1
2 1 "gdf_created_by_Python_script"
$EndPhysicalNames
$Nodes
337
1 3.25 0 -20
2 2.928148985 1.410122037 -20
3 2.928148985 1.410122037 -18.5053978
4 3.25 0 -18.5053978
5 2.026341915 2.540951967 -20
6 2.026341915 2.540951967 -18.5053978
7 0.7231929898 3.168515921 -20
8 0.7231929898 3.168515921 -18.5053978
9 -0.7231929898 3.168515921 -20
10 -0.7231929898 3.168515921 -18.5053978
11 -2.026341915 2.540951967 -20
12 -2.026341915 2.540951967 -18.5053978
13 -2.928148985 1.410122037 -20
14 -2.928148985 1.410122037 -18.5053978
15 -3.25 0 -20
16 -3.25 0 -18.5053978
17 -2.928148985 -1.410122037 -20
18 -2.928148985 -1.410122037 -18.5053978
19 -2.026341915 -2.540951967 -20
20 -2.026341915 -2.540951967 -18.5053978
21 -0.7231929898 -3.168515921 -20
22 -0.7231929898 -3.168515921 -18.5053978
23 0.7231929898 -3.168515921 -20
24 0.7231929898 -3.168515921 -18.5053978
25 2.026341915 -2.540951967 -20
26 2.026341915 -2.540951967 -18.5053978
27 2.928148985 -1.410122037 -20
28 2.928148985 -1.410122037 -18.5053978
29 2.928148985 1.410122037 -17.0191555
30 3.25 0 -17.0191555
31 2.026341915 2.540951967 -17.0191555
32 0.7231929898 3.168515921 -17.0191555
33 -0.7231929898 3.168515921 -17.0191555
34 -2.026341915 2.540951967 -17.0191555
35 -2.928148985 1.410122037 -17.0191555
36 -3.25 0 -17.0191555
37 -2.928148985 -1.410122037 -17.0191555
38 -2.026341915 -2.540951967 -17.0191555
39 -0.7231929898 -3.168515921 -17.0191555
40 0.7231929898 -3.168515921 -17.0191555
41 2.026341915 -2.540951967 -17.0191555
42 2.928148985 -1.410122037 -17.0191555
43 2.928148985 1.410122037 -15.54958057
44 3.25 0 -15.54958057
45 2.026341915 2.540951967 -15.54958057
46 0.7231929898 3.168515921 -15.54958057
47 -0.7231929898 3.168515921 -15.54958057
48 -2.026341915 2.540951967 -15.54958057
49 -2.928148985 1.410122037 -15.54958057
50 -3.25 0 -15.54958057
51 -2.928148985 -1.410122037 -15.54958057
52 -2.026341915 -2.540951967 -15.54958057
53 -0.7231929898 -3.168515921 -15.54958057
54 0.7231929898 -3.168515921 -15.54958057
55 2.026341915 -2.540951967 -15.54958057
56 2.928148985 -1.410122037 -15.54958057
57 2.928148985 1.410122037 -14.10489655
58 3.25 0 -14.10489655
59 2.026341915 2.540951967 -14.10489655
60 0.7231929898 3.168515921 -14.10489655
61 -0.7231929898 3.168515921 -14.10489655
62 -2.026341915 2.540951967 -14.10489655
63 -2.928148985 1.410122037 -14.10489655
64 -3.25 0 -14.10489655
65 -2.928148985 -1.410122037 -14.10489655
66 -2.026341915 -2.540951967 -14.10489655
67 -0.7231929898 -3.168515921 -14.10489655
68 0.7231929898 -3.168515921 -14.10489655
69 2.026341915 -2.540951967 -14.10489655
70 2.928148985 -1.410122037 -14.10489655
71 2.928148985 1.410122037 -12.69318008
72 3.25 0 -12.69318008
73 2.026341915 2.540951967 -12.69318008
74 0.7231929898 3.168515921 -12.69318008
75 -0.7231929898 3.168515921 -12.69318008
76 -2.026341915 2.540951967 -12.69318008
77 -2.928148985 1.410122037 -12.69318008
78 -3.25 0 -12.69318008
79 -2.928148985 -1.410122037 -12.69318008
80 -2.026341915 -2.540951967 -12.69318008
81 -0.7231929898 -3.168515921 -12.69318008
82 0.7231929898 -3.168515921 -12.69318008
83 2.026341915 -2.540951967 -12.69318008
84 2.928148985 -1.410122037 -12.69318008
85 2.928148985 1.410122037 -11.32232475
86 3.25 0 -11.32232475
87 2.026341915 2.540951967 -11.32232475
88 0.7231929898 3.168515921 -11.32232475
89 -0.7231929898 3.168515921 -11.32232475
90 -2.026341915 2.540951967 -11.32232475
91 -2.928148985 1.410122037 -11.32232475
92 -3.25 0 -11.32232475
93 -2.928148985 -1.410122037 -11.32232475
94 -2.026341915 -2.540951967 -11.32232475
95 -0.7231929898 -3.168515921 -11.32232475
96 0.7231929898 -3.168515921 -11.32232475
97 2.026341915 -2.540951967 -11.32232475
98 2.928148985 -1.410122037 -11.32232475
99 2.928148985 1.410122037 -10
100 3.25 0 -10
101 2.026341915 2.540951967 -10
102 0.7231929898 3.168515921 -10
103 -0.7231929898 3.168515921 -10
104 -2.026341915 2.540951967 -10
105 -2.928148985 1.410122037 -10
106 -3.25 0 -10
107 -2.928148985 -1.410122037 -10
108 -2.026341915 -2.540951967 -10
109 -0.7231929898 -3.168515921 -10
110 0.7231929898 -3.168515921 -10
111 2.026341915 -2.540951967 -10
112 2.928148985 -1.410122037 -10
113 2.928148985 1.410122037 -8.733598709
114 3.25 0 -8.733598709
115 2.026341915 2.540951967 -8.733598709
116 0.7231929898 3.168515921 -8.733598709
117 -0.7231929898 3.168515921 -8.733598709
118 -2.026341915 2.540951967 -8.733598709
119 -2.928148985 1.410122037 -8.733598709
120 -3.25 0 -8.733598709
121 -2.928148985 -1.410122037 -8.733598709
122 -2.026341915 -2.540951967 -8.733598709
123 -0.7231929898 -3.168515921 -8.733598709
124 0.7231929898 -3.168515921 -8.733598709
125 2.026341915 -2.540951967 -8.733598709
126 2.928148985 -1.410122037 -8.733598709
127 2.928148985 1.410122037 -7.530203819
128 3.25 0 -7.530203819
129 2.026341915 2.540951967 -7.530203819
130 0.7231929898 3.168515921 -7.530203819
131 -0.7231929898 3.168515921 -7.530203819
132 -2.026341915 2.540951967 -7.530203819
133 -2.928148985 1.410122037 -7.530203819
134 -3.25 0 -7.530203819
135 -2.928148985 -1.410122037 -7.530203819
136 -2.026341915 -2.540951967 -7.530203819
137 -0.7231929898 -3.168515921 -7.530203819
138 0.7231929898 -3.168515921 -7.530203819
139 2.026341915 -2.540951967 -7.530203819
140 2.928148985 -1.410122037 -7.530203819
141 2.928148985 1.410122037 -6.396544933
142 3.25 0 -6.396544933
143 2.026341915 2.540951967 -6.396544933
144 0.7231929898 3.168515921 -6.396544933
145 -0.7231929898 3.168515921 -6.396544933
146 -2.026341915 2.540951967 -6.396544933
147 -2.928148985 1.410122037 -6.396544933
148 -3.25 0 -6.396544933
149 -2.928148985 -1.410122037 -6.396544933
150 -2.026341915 -2.540951967 -6.396544933
151 -0.7231929898 -3.168515921 -6.396544933
152 0.7231929898 -3.168515921 -6.396544933
153 2.026341915 -2.540951967 -6.396544933
154 2.928148985 -1.410122037 -6.396544933
155 2.928148985 1.410122037 -5.338963032
156 3.25 0 -5.338963032
157 2.026341915 2.540951967 -5.338963032
158 0.7231929898 3.168515921 -5.338963032
159 -0.7231929898 3.168515921 -5.338963032
160 -2.026341915 2.540951967 -5.338963032
161 -2.928148985 1.410122037 -5.338963032
162 -3.25 0 -5.338963032
163 -2.928148985 -1.410122037 -5.338963032
164 -2.026341915 -2.540951967 -5.338963032
165 -0.7231929898 -3.168515921 -5.338963032
166 0.7231929898 -3.168515921 -5.338963032
167 2.026341915 -2.540951967 -5.338963032
168 2.928148985 -1.410122037 -5.338963032
169 2.928148985 1.410122037 -4.363369942
170 3.25 0 -4.363369942
171 2.026341915 2.540951967 -4.363369942
172 0.7231929898 3.168515921 -4.363369942
173 -0.7231929898 3.168515921 -4.363369942
174 -2.026341915 2.540951967 -4.363369942
175 -2.928148985 1.410122037 -4.363369942
176 -3.25 0 -4.363369942
177 -2.928148985 -1.410122037 -4.363369942
178 -2.026341915 -2.540951967 -4.363369942
179 -0.7231929898 -3.168515921 -4.363369942
180 0.7231929898 -3.168515921 -4.363369942
181 2.026341915 -2.540951967 -4.363369942
182 2.928148985 -1.410122037 -4.363369942
183 2.928148985 1.410122037 -3.475224972
184 3.25 0 -3.475224972
185 2.026341915 2.540951967 -3.475224972
186 0.7231929898 3.168515921 -3.475224972
187 -0.7231929898 3.168515921 -3.475224972
188 -2.026341915 2.540951967 -3.475224972
189 -2.928148985 1.410122037 -3.475224972
190 -3.25 0 -3.475224972
191 -2.928148985 -1.410122037 -3.475224972
192 -2.026341915 -2.540951967 -3.475224972
193 -0.7231929898 -3.168515921 -3.475224972
194 0.7231929898 -3.168515921 -3.475224972
195 2.026341915 -2.540951967 -3.475224972
196 2.928148985 -1.410122037 -3.475224972
197 2.928148985 1.410122037 -2.679491997
198 3.25 0 -2.679491997
199 2.026341915 2.540951967 -2.679491997
200 0.7231929898 3.168515921 -2.679491997
201 -0.7231929898 3.168515921 -2.679491997
202 -2.026341915 2.540951967 -2.679491997
203 -2.928148985 1.410122037 -2.679491997
204 -3.25 0 -2.679491997
205 -2.928148985 -1.410122037 -2.679491997
206 -2.026341915 -2.540951967 -2.679491997
207 -0.7231929898 -3.168515921 -2.679491997
208 0.7231929898 -3.168515921 -2.679491997
209 2.026341915 -2.540951967 -2.679491997
210 2.928148985 -1.410122037 -2.679491997
211 2.928148985 1.410122037 -1.980623007
212 3.25 0 -1.980623007
213 2.026341915 2.540951967 -1.980623007
214 0.7231929898 3.168515921 -1.980623007
215 -0.7231929898 3.168515921 -1.980623007
216 -2.026341915 2.540951967 -1.980623007
217 -2.928148985 1.410122037 -1.980623007
218 -3.25 0 -1.980623007
219 -2.928148985 -1.410122037 -1.980623007
220 -2.026341915 -2.540951967 -1.980623007
221 -0.7231929898 -3.168515921 -1.980623007
222 0.7231929898 -3.168515921 -1.980623007
223 2.026341915 -2.540951967 -1.980623007
224 2.928148985 -1.410122037 -1.980623007
225 2.928148985 1.410122037 -1.382524967
226 3.25 0 -1.382524967
227 2.026341915 2.540951967 -1.382524967
228 0.7231929898 3.168515921 -1.382524967
229 -0.7231929898 3.168515921 -1.382524967
230 -2.026341915 2.540951967 -1.382524967
231 -2.928148985 1.410122037 -1.382524967
232 -3.25 0 -1.382524967
233 -2.928148985 -1.410122037 -1.382524967
234 -2.026341915 -2.540951967 -1.382524967
235 -0.7231929898 -3.168515921 -1.382524967
236 0.7231929898 -3.168515921 -1.382524967
237 2.026341915 -2.540951967 -1.382524967
238 2.928148985 -1.410122037 -1.382524967
239 2.928148985 1.410122037 -0.888544023
240 3.25 0 -0.888544023
241 2.026341915 2.540951967 -0.888544023
242 0.7231929898 3.168515921 -0.888544023
243 -0.7231929898 3.168515921 -0.888544023
244 -2.026341915 2.540951967 -0.888544023
245 -2.928148985 1.410122037 -0.888544023
246 -3.25 0 -0.888544023
247 -2.928148985 -1.410122037 -0.888544023
248 -2.026341915 -2.540951967 -0.888544023
249 -0.7231929898 -3.168515921 -0.888544023
250 0.7231929898 -3.168515921 -0.888544023
251 2.026341915 -2.540951967 -0.888544023
252 2.928148985 -1.410122037 -0.888544023
253 2.928148985 1.410122037 -0.5014420152
254 3.25 0 -0.5014420152
255 2.026341915 2.540951967 -0.5014420152
256 0.7231929898 3.168515921 -0.5014420152
257 -0.7231929898 3.168515921 -0.5014420152
258 -2.026341915 2.540951967 -0.5014420152
259 -2.928148985 1.410122037 -0.5014420152
260 -3.25 0 -0.5014420152
261 -2.928148985 -1.410122037 -0.5014420152
262 -2.026341915 -2.540951967 -0.5014420152
263 -0.7231929898 -3.168515921 -0.5014420152
264 0.7231929898 -3.168515921 -0.5014420152
265 2.026341915 -2.540951967 -0.5014420152
266 2.928148985 -1.410122037 -0.5014420152
267 2.928148985 1.410122037 -0.2233829945
268 3.25 0 -0.2233829945
269 2.026341915 2.540951967 -0.2233829945
270 0.7231929898 3.168515921 -0.2233829945
271 -0.7231929898 3.168515921 -0.2233829945
272 -2.026341915 2.540951967 -0.2233829945
273 -2.928148985 1.410122037 -0.2233829945
274 -3.25 0 -0.2233829945
275 -2.928148985 -1.410122037 -0.2233829945
276 -2.026341915 -2.540951967 -0.2233829945
277 -0.7231929898 -3.168515921 -0.2233829945
278 0.7231929898 -3.168515921 -0.2233829945
279 2.026341915 -2.540951967 -0.2233829945
280 2.928148985 -1.410122037 -0.2233829945
281 2.928148985 1.410122037 -0.05592399836
282 3.25 0 -0.05592399836
283 2.026341915 2.540951967 -0.05592399836
284 0.7231929898 3.168515921 -0.05592399836
285 -0.7231929898 3.168515921 -0.05592399836
286 -2.026341915 2.540951967 -0.05592399836
287 -2.928148985 1.410122037 -0.05592399836
288 -3.25 0 -0.05592399836
289 -2.928148985 -1.410122037 -0.05592399836
290 -2.026341915 -2.540951967 -0.05592399836
291 -0.7231929898 -3.168515921 -0.05592399836
292 0.7231929898 -3.168515921 -0.05592399836
293 2.026341915 -2.540951967 -0.05592399836
294 2.928148985 -1.410122037 -0.05592399836
295 2.928148985 1.410122037 0
296 3.25 0 0
297 2.026341915 2.540951967 0
298 0.7231929898 3.168515921 0
299 -0.7231929898 3.168515921 0
300 -2.026341915 2.540951967 0
301 -2.928148985 1.410122037 0
302 -3.25 0 0
303 -2.928148985 -1.410122037 0
304 -2.026341915 -2.540951967 0
305 -0.7231929898 -3.168515921 0
306 0.7231929898 -3.168515921 0
307 2.026341915 -2.540951967 0
308 2.928148985 -1.410122037 0
309 0 0 -20
310 0.9760500193 0.4700410068 -20
311 1.083333015 0 -20
312 0.6754469872 0.8469840288 -20
313 0.2410639971 1.056172013 -20
314 -0.2410639971 1.056172013 -20
315 -0.6754469872 0.8469840288 -20
316 -0.9760500193 0.4700410068 -20
317 -1.083333015 0 -20
318 -0.9760500193 -0.4700410068 -20
319 -0.6754469872 -0.8469840288 -20
320 -0.2410639971 -1.056172013 -20
321 0.2410639971 -1.056172013 -20
322 0.6754469872 -0.8469840288 -20
323 0.9760500193 -0.4700410068 -20
324 1.952098966 0.9400810003 -20
325 2.166666985 0 -20
326 1.350895047 1.693968058 -20
327 0.4821290076 2.112344027 -20
328 -0.4821290076 2.112344027 -20
329 -1.350895047 1.693968058 -20
330 -1.952098966 0.9400810003 -20
331 -2.166666985 0 -20
332 -1.952098966 -0.9400810003 -20
333 -1.350895047 -1.693968058 -20
334 -0.4821290076 -2.112344027 -20
335 0.4821290076 -2.112344027 -20
336 1.350895047 -1.693968058 -20
337 1.952098966 -0.9400810003 -20
$EndNodes
$Elements
672
1 2 2 1 1 1 2 3
2 2 2 1 1 1 3 4
3 2 2 1 1 2 5 6
4 2 2 1 1 2 6 3
5 2 2 1 1 5 7 8
6 2 2 1 1 5 8 6
7 2 2 1 1 7 9 10
8 2 2 1 1 7 10 8
9 2 2 1 1 9 11 12
10 2 2 1 1 9 12 10
11 2 2 1 1 11 13 14
12 2 2 1 1 11 14 12
13 2 2 1 1 13 15 16
14 2 2 1 1 13 16 14
15 2 2 1 1 15 17 18
16 2 2 1 1 15 18 16
17 2 2 1 1 17 19 20
18 2 2 1 1 17 20 18
19 2 2 1 1 19 21 22
20 2 2 1 1 19 22 20
21 2 2 1 1 21 23 24
22 2 2 1 1 21 24 22
23 2 2 1 1 23 25 26
24 2 2 1 1 23 26 24
25 2 2 1 1 25 27 28
26 2 2 1 1 25 28 26
27 2 2 1 1 27 1 4
28 2 2 1 1 27 4 28
29 2 2 1 1 4 3 29
30 2 2 1 1 4 29 30
31 2 2 1 1 3 6 31
32 2 2 1 1 3 31 29
33 2 2 1 1 6 8 32
34 2 2 1 1 6 32 31
35 2 2 1 1 8 10 33
36 2 2 1 1 8 33 32
37 2 2 1 1 10 12 34
38 2 2 1 1 10 34 33
39 2 2 1 1 12 14 35
40 2 2 1 1 12 35 34
41 2 2 1 1 14 16 36
42 2 2 1 1 14 36 35
43 2 2 1 1 16 18 37
44 2 2 1 1 16 37 36
45 2 2 1 1 18 20 38
46 2 2 1 1 18 38 37
47 2 2 1 1 20 22 39
48 2 2 1 1 20 39 38
49 2 2 1 1 22 24 40
50 2 2 1 1 22 40 39
51 2 2 1 1 24 26 41
52 2 2 1 1 24 41 40
53 2 2 1 1 26 28 42
54 2 2 1 1 26 42 41
55 2 2 1 1 28 4 30
56 2 2 1 1 28 30 42
57 2 2 1 1 30 29 43
58 2 2 1 1 30 43 44
59 2 2 1 1 29 31 45
60 2 2 1 1 29 45 43
61 2 2 1 1 31 32 46
62 2 2 1 1 31 46 45
63 2 2 1 1 32 33 47
64 2 2 1 1 32 47 46
65 2 2 1 1 33 34 48
66 2 2 1 1 33 48 47
67 2 2 1 1 34 35 49
68 2 2 1 1 34 49 48
69 2 2 1 1 35 36 50
70 2 2 1 1 35 50 49
71 2 2 1 1 36 37 51
72 2 2 1 1 36 51 50
73 2 2 1 1 37 38 52
74 2 2 1 1 37 52 51
75 2 2 1 1 38 39 53
76 2 2 1 1 38 53 52
77 2 2 1 1 39 40 54
78 2 2 1 1 39 54 53
79 2 2 1 1 40 41 55
80 2 2 1 1 40 55 54
81 2 2 1 1 41 42 56
82 2 2 1 1 41 56 55
83 2 2 1 1 42 30 44
84 2 2 1 1 42 44 56
85 2 2 1 1 44 43 57
86 2 2 1 1 44 57 58
87 2 2 1 1 43 45 59
88 2 2 1 1 43 59 57
89 2 2 1 1 45 46 60
90 2 2 1 1 45 60 59
91 2 2 1 1 46 47 61
92 2 2 1 1 46 61 60
93 2 2 1 1 47 48 62
94 2 2 1 1 47 62 61
95 2 2 1 1 48 49 63
96 2 2 1 1 48 63 62
97 2 2 1 1 49 50 64
98 2 2 1 1 49 64 63
99 2 2 1 1 50 51 65
100 2 2 1 1 50 65 64
101 2 2 1 1 51 52 66
102 2 2 1 1 51 66 65
103 2 2 1 1 52 53 67
104 2 2 1 1 52 67 66
105 2 2 1 1 53 54 68
106 2 2 1 1 53 68 67
107 2 2 1 1 54 55 69
108 2 2 1 1 54 69 68
109 2 2 1 1 55 56 70
110 2 2 1 1 55 70 69
111 2 2 1 1 56 44 58
112 2 2 1 1 56 58 70
113 2 2 1 1 58 57 71
114 2 2 1 1 58 71 72
115 2 2 1 1 57 59 73
116 2 2 1 1 57 73 71
117 2 2 1 1 59 60 74
118 2 2 1 1 59 74 73
119 2 2 1 1 60 61 75
120 2 2 1 1 60 75 74
121 2 2 1 1 61 62 76
122 2 2 1 1 61 76 75
123 2 2 1 1 62 63 77
124 2 2 1 1 62 77 76
125 2 2 1 1 63 64 78
126 2 2 1 1 63 78 77
127 2 2 1 1 64 65 79
128 2 2 1 1 64 79 78
129 2 2 1 1 65 66 80
130 2 2 1 1 65 80 79
131 2 2 1 1 66 67 81
132 2 2 1 1 66 81 80
133 2 2 1 1 67 68 82
134 2 2 1 1 67 82 81
135 2 2 1 1 68 69 83
136 2 2 1 1 68 83 82
137 2 2 1 1 69 70 84
138 2 2 1 1 69 84 83
139 2 2 1 1 70 58 72
140 2 2 1 1 70 72 84
141 2 2 1 1 72 71 85
142 2 2 1 1 72 85 86
143 2 2 1 1 71 73 87
144 2 2 1 1 71 87 85
145 2 2 1 1 73 74 88
146 2 2 1 1 73 88 87
147 2 2 1 1 74 75 89
148 2 2 1 1 74 89 88
149 2 2 1 1 75 76 90
150 2 2 1 1 75 90 89
151 2 2 1 1 76 77 91
152 2 2 1 1 76 91 90
153 2 2 1 1 77 78 92
154 2 2 1 1 77 92 91
155 2 2 1 1 78 79 93
156 2 2 1 1 78 93 92
157 2 2 1 1 79 80 94
158 2 2 1 1 79 94 93
159 2 2 1 1 80 81 95
160 2 2 1 1 80 95 94
161 2 2 1 1 81 82 96
162 2 2 1 1 81 96 95
163 2 2 1 1 82 83 97
164 2 2 1 1 82 97 96
165 2 2 1 1 83 84 98
166 2 2 1 1 83 98 97
167 2 2 1 1 84 72 86
168 2 2 1 1 84 86 98
169 2 2 1 1 86 85 99
170 2 2 1 1 86 99 100
171 2 2 1 1 85 87 101
172 2 2 1 1 85 101 99
173 2 2 1 1 87 88 102
174 2 2 1 1 87 102 101
175 2 2 1 1 88 89 103
176 2 2 1 1 88 103 102
177 2 2 1 1 89 90 104
178 2 2 1 1 89 104 103
179 2 2 1 1 90 91 105
180 2 2 1 1 90 105 104
181 2 2 1 1 91 92 106
182 2 2 1 1 91 106 105
183 2 2 1 1 92 93 107
184 2 2 1 1 92 107 106
185 2 2 1 1 93 94 108
186 2 2 1 1 93 108 107
187 2 2 1 1 94 95 109
188 2 2 1 1 94 109 108
189 2 2 1 1 95 96 110
190 2 2 1 1 95 110 109
191 2 2 1 1 96 97 111
192 2 2 1 1 96 111 110
193 2 2 1 1 97 98 112
194 2 2 1 1 97 112 111
195 2 2 1 1 98 86 100
196 2 2 1 1 98 100 112
197 2 2 1 1 100 99 113
198 2 2 1 1 100 113 114
199 2 2 1 1 99 101 115
200 2 2 1 1 99 115 113
201 2 2 1 1 101 102 116
202 2 2 1 1 101 116 115
203 2 2 1 1 102 103 117
204 2 2 1 1 102 117 116
205 2 2 1 1 103 104 118
206 2 2 1 1 103 118 117
207 2 2 1 1 104 105 119
208 2 2 1 1 104 119 118
209 2 2 1 1 105 106 120
210 2 2 1 1 105 120 119
211 2 2 1 1 106 107 121
212 2 2 1 1 106 121 120
213 2 2 1 1 107 108 122
214 2 2 1 1 107 122 121
215 2 2 1 1 108 109 123
216 2 2 1 1 108 123 122
217 2 2 1 1 109 110 124
218 2 2 1 1 109 124 123
219 2 2 1 1 110 111 125
220 2 2 1 1 110 125 124
221 2 2 1 1 111 112 126
222 2 2 1 1 111 126 125
223 2 2 1 1 112 100 114
224 2 2 1 1 112 114 126
225 2 2 1 1 114 113 127
226 2 2 1 1 114 127 128
227 2 2 1 1 113 115 129
228 2 2 1 1 113 129 127
229 2 2 1 1 115 116 130
230 2 2 1 1 115 130 129
231 2 2 1 1 116 117 131
232 2 2 1 1 116 131 130
233 2 2 1 1 117 118 132
234 2 2 1 1 117 132 131
235 2 2 1 1 118 119 133
236 2 2 1 1 118 133 132
237 2 2 1 1 119 120 134
238 2 2 1 1 119 134 133
239 2 2 1 1 120 121 135
240 2 2 1 1 120 135 134
241 2 2 1 1 121 122 136
242 2 2 1 1 121 136 135
243 2 2 1 1 122 123 137
244 2 2 1 1 122 137 136
245 2 2 1 1 123 124 138
246 2 2 1 1 123 138 137
247 2 2 1 1 124 125 139
248 2 2 1 1 124 139 138
249 2 2 1 1 125 126 140
250 2 2 1 1 125 140 139
251 2 2 1 1 126 114 128
252 2 2 1 1 126 128 140
253 2 2 1 1 128 127 141
254 2 2 1 1 128 141 142
255 2 2 1 1 127 129 143
256 2 2 1 1 127 143 141
257 2 2 1 1 129 130 144
258 2 2 1 1 129 144 143
259 2 2 1 1 130 131 145
260 2 2 1 1 130 145 144
261 2 2 1 1 131 132 146
262 2 2 1 1 131 146 145
263 2 2 1 1 132 133 147
264 2 2 1 1 132 147 146
265 2 2 1 1 133 134 148
266 2 2 1 1 133 148 147
267 2 2 1 1 134 135 149
268 2 2 1 1 134 149 148
269 2 2 1 1 135 136 150
270 2 2 1 1 135 150 149
271 2 2 1 1 136 137 151
272 2 2 1 1 136 151 150
273 2 2 1 1 137 138 152
274 2 2 1 1 137 152 151
275 2 2 1 1 138 139 153
276 2 2 1 1 138 153 152
277 2 2 1 1 139 140 154
278 2 2 1 1 139 154 153
279 2 2 1 1 140 128 142
280 2 2 1 1 140 142 154
281 2 2 1 1 142 141 155
282 2 2 1 1 142 155 156
283 2 2 1 1 141 143 157
284 2 2 1 1 141 157 155
285 2 2 1 1 143 144 158
286 2 2 1 1 143 158 157
287 2 2 1 1 144 145 159
288 2 2 1 1 144 159 158
289 2 2 1 1 145 146 160
290 2 2 1 1 145 160 159
291 2 2 1 1 146 147 161
292 2 2 1 1 146 161 160
293 2 2 1 1 147 148 162
294 2 2 1 1 147 162 161
295 2 2 1 1 148 149 163
296 2 2 1 1 148 163 162
297 2 2 1 1 149 150 164
298 2 2 1 1 149 164 163
299 2 2 1 1 150 151 165
300 2 2 1 1 150 165 164
301 2 2 1 1 151 152 166
302 2 2 1 1 151 166 165
303 2 2 1 1 152 153 167
304 2 2 1 1 152 167 166
305 2 2 1 1 153 154 168
306 2 2 1 1 153 168 167
307 2 2 1 1 154 142 156
308 2 2 1 1 154 156 168
309 2 2 1 1 156 155 169
310 2 2 1 1 156 169 170
311 2 2 1 1 155 157 171
312 2 2 1 1 155 171 169
313 2 2 1 1 157 158 172
314 2 2 1 1 157 172 171
315 2 2 1 1 158 159 173
316 2 2 1 1 158 173 172
317 2 2 1 1 159 160 174
318 2 2 1 1 159 174 173
319 2 2 1 1 160 161 175
320 2 2 1 1 160 175 174
321 2 2 1 1 161 162 176
322 2 2 1 1 161 176 175
323 2 2 1 1 162 163 177
324 2 2 1 1 162 177 176
325 2 2 1 1 163 164 178
326 2 2 1 1 163 178 177
327 2 2 1 1 164 165 179
328 2 2 1 1 164 179 178
329 2 2 1 1 165 166 180
330 2 2 1 1 165 180 179
331 2 2 1 1 166 167 181
332 2 2 1 1 166 181 180
333 2 2 1 1 167 168 182
334 2 2 1 1 167 182 181
335 2 2 1 1 168 156 170
336 2 2 1 1 168 170 182
337 2 2 1 1 170 169 183
338 2 2 1 1 170 183 184
339 2 2 1 1 169 171 185
340 2 2 1 1 169 185 183
341 2 2 1 1 171 172 186
342 2 2 1 1 171 186 185
343 2 2 1 1 172 173 187
344 2 2 1 1 172 187 186
345 2 2 1 1 173 174 188
346 2 2 1 1 173 188 187
347 2 2 1 1 174 175 189
348 2 2 1 1 174 189 188
349 2 2 1 1 175 176 190
350 2 2 1 1 175 190 189
351 2 2 1 1 176 177 191
352 2 2 1 1 176 191 190
353 2 2 1 1 177 178 192
354 2 2 1 1 177 192 191
355 2 2 1 1 178 179 193
356 2 2 1 1 178 193 192
357 2 2 1 1 179 180 194
358 2 2 1 1 179 194 193
359 2 2 1 1 180 181 195
360 2 2 1 1 180 195 194
361 2 2 1 1 181 182 196
362 2 2 1 1 181 196 195
363 2 2 1 1 182 170 184
364 2 2 1 1 182 184 196
365 2 2 1 1 184 183 197
366 2 2 1 1 184 197 198
367 2 2 1 1 183 185 199
368 2 2 1 1 183 199 197
369 2 2 1 1 185 186 200
370 2 2 1 1 185 200 199
371 2 2 1 1 186 187 201
372 2 2 1 1 186 201 200
373 2 2 1 1 187 188 202
374 2 2 1 1 187 202 201
375 2 2 1 1 188 189 203
376 2 2 1 1 188 203 202
377 2 2 1 1 189 190 204
378 2 2 1 1 189 204 203
379 2 2 1 1 190 191 205
380 2 2 1 1 190 205 204
381 2 2 1 1 191 192 206
382 2 2 1 1 191 206 205
383 2 2 1 1 192 193 207
384 2 2 1 1 192 207 206
385 2 2 1 1 193 194 208
386 2 2 1 1 193 208 207
387 2 2 1 1 194 195 209
388 2 2 1 1 194 209 208
389 2 2 1 1 195 196 210
390 2 2 1 1 195 210 209
391 2 2 1 1 196 184 198
392 2 2 1 1 196 198 210
393 2 2 1 1 198 197 211
394 2 2 1 1 198 211 212
395 2 2 1 1 197 199 213
396 2 2 1 1 197 213 211
397 2 2 1 1 199 200 214
398 2 2 1 1 199 214 213
399 2 2 1 1 200 201 215
400 2 2 1 1 200 215 214
401 2 2 1 1 201 202 216
402 2 2 1 1 201 216 215
403 2 2 1 1 202 203 217
404 2 2 1 1 202 217 216
405 2 2 1 1 203 204 218
406 2 2 1 1 203 218 217
407 2 2 1 1 204 205 219
408 2 2 1 1 204 219 218
409 2 2 1 1 205 206 220
410 2 2 1 1 205 220 219
411 2 2 1 1 206 207 221
412 2 2 1 1 206 221 220
413 2 2 1 1 207 208 222
414 2 2 1 1 207 222 221
415 2 2 1 1 208 209 223
416 2 2 1 1 208 223 222
417 2 2 1 1 209 210 224
418 2 2 1 1 209 224 223
419 2 2 1 1 210 198 212
420 2 2 1 1 210 212 224
421 2 2 1 1 212 211 225
422 2 2 1 1 212 225 226
423 2 2 1 1 211 213 227
424 2 2 1 1 211 227 225
425 2 2 1 1 213 214 228
426 2 2 1 1 213 228 227
427 2 2 1 1 214 215 229
428 2 2 1 1 214 229 228
429 2 2 1 1 215 216 230
430 2 2 1 1 215 230 229
431 2 2 1 1 216 217 231
432 2 2 1 1 216 231 230
433 2 2 1 1 217 218 232
434 2 2 1 1 217 232 231
435 2 2 1 1 218 219 233
436 2 2 1 1 218 233 232
437 2 2 1 1 219 220 234
438 2 2 1 1 219 234 233
439 2 2 1 1 220 221 235
440 2 2 1 1 220 235 234
441 2 2 1 1 221 222 236
442 2 2 1 1 221 236 235
443 2 2 1 1 222 223 237
444 2 2 1 1 222 237 236
445 2 2 1 1 223 224 238
446 2 2 1 1 223 238 237
447 2 2 1 1 224 212 226
448 2 2 1 1 224 226 238
449 2 2 1 1 226 225 239
450 2 2 1 1 226 239 240
451 2 2 1 1 225 227 241
452 2 2 1 1 225 241 239
453 2 2 1 1 227 228 242
454 2 2 1 1 227 242 241
455 2 2 1 1 228 229 243
456 2 2 1 1 228 243 242
457 2 2 1 1 229 230 244
458 2 2 1 1 229 244 243
459 2 2 1 1 230 231 245
460 2 2 1 1 230 245 244
461 2 2 1 1 231 232 246
462 2 2 1 1 231 246 245
463 2 2 1 1 232 233 247
464 2 2 1 1 232 247 246
465 2 2 1 1 233 234 248
466 2 2 1 1 233 248 247
467 2 2 1 1 234 235 249
468 2 2 1 1 234 249 248
469 2 2 1 1 235 236 250
470 2 2 1 1 235 250 249
471 2 2 1 1 236 237 251
472 2 2 1 1 236 251 250
473 2 2 1 1 237 238 252
474 2 2 1 1 237 252 251
475 2 2 1 1 238 226 240
476 2 2 1 1 238 240 252
477 2 2 1 1 240 239 253
478 2 2 1 1 240 253 254
479 2 2 1 1 239 241 255
480 2 2 1 1 239 255 253
481 2 2 1 1 241 242 256
482 2 2 1 1 241 256 255
483 2 2 1 1 242 243 257
484 2 2 1 1 242 257 256
485 2 2 1 1 243 244 258
486 2 2 1 1 243 258 257
487 2 2 1 1 244 245 259
488 2 2 1 1 244 259 258
489 2 2 1 1 245 246 260
490 2 2 1 1 245 260 259
491 2 2 1 1 246 247 261
492 2 2 1 1 246 261 260
493 2 2 1 1 247 248 262
494 2 2 1 1 247 262 261
495 2 2 1 1 248 249 263
496 2 2 1 1 248 263 262
497 2 2 1 1 249 250 264
498 2 2 1 1 249 264 263
499 2 2 1 1 250 251 265
500 2 2 1 1 250 265 264
501 2 2 1 1 251 252 266
502 2 2 1 1 251 266 265
503 2 2 1 1 252 240 254
504 2 2 1 1 252 254 266
505 2 2 1 1 254 253 267
506 2 2 1 1 254 267 268
507 2 2 1 1 253 255 269
508 2 2 1 1 253 269 267
509 2 2 1 1 255 256 270
510 2 2 1 1 255 270 269
511 2 2 1 1 256 257 271
512 2 2 1 1 256 271 270
513 2 2 1 1 257 258 272
514 2 2 1 1 257 272 271
515 2 2 1 1 258 259 273
516 2 2 1 1 258 273 272
517 2 2 1 1 259 260 274
518 2 2 1 1 259 274 273
519 2 2 1 1 260 261 275
520 2 2 1 1 260 275 274
521 2 2 1 1 261 262 276
522 2 2 1 1 261 276 275
523 2 2 1 1 262 263 277
524 2 2 1 1 262 277 276
525 2 2 1 1 263 264 278
526 2 2 1 1 263 278 277
527 2 2 1 1 264 265 279
528 2 2 1 1 264 279 278
529 2 2 1 1 265 266 280
530 2 2 1 1 265 280 279
531 2 2 1 1 266 254 268
532 2 2 1 1 266 268 280
533 2 2 1 1 268 267 281
534 2 2 1 1 268 281 282
535 2 2 1 1 267 269 283
536 2 2 1 1 267 283 281
537 2 2 1 1 269 270 284
538 2 2 1 1 269 284 283
539 2 2 1 1 270 271 285
540 2 2 1 1 270 285 284
541 2 2 1 1 271 272 286
542 2 2 1 1 271 286 285
543 2 2 1 1 272 273 287
544 2 2 1 1 272 287 286
545 2 2 1 1 273 274 288
546 2 2 1 1 273 288 287
547 2 2 1 1 274 275 289
548 2 2 1 1 274 289 288
549 2 2 1 1 275 276 290
550 2 2 1 1 275 290 289
551 2 2 1 1 276 277 291
552 2 2 1 1 276 291 290
553 2 2 1 1 277 278 292
554 2 2 1 1 277 292 291
555 2 2 1 1 278 279 293
556 2 2 1 1 278 293 292
557 2 2 1 1 279 280 294
558 2 2 1 1 279 294 293
559 2 2 1 1 280 268 282
560 2 2 1 1 280 282 294
561 2 2 1 1 282 281 295
562 2 2 1 1 282 295 296
563 2 2 1 1 281 283 297
564 2 2 1 1 281 297 295
565 2 2 1 1 283 284 298
566 2 2 1 1 283 298 297
567 2 2 1 1 284 285 299
568 2 2 1 1 284 299 298
569 2 2 1 1 285 286 300
570 2 2 1 1 285 300 299
571 2 2 1 1 286 287 301
572 2 2 1 1 286 301 300
573 2 2 1 1 287 288 302
574 2 2 1 1 287 302 301
575 2 2 1 1 288 289 303
576 2 2 1 1 288 303 302
577 2 2 1 1 289 290 304
578 2 2 1 1 289 304 303
579 2 2 1 1 290 291 305
580 2 2 1 1 290 305 304
581 2 2 1 1 291 292 306
582 2 2 1 1 291 306 305
583 2 2 1 1 292 293 307
584 2 2 1 1 292 307 306
585 2 2 1 1 293 294 308
586 2 2 1 1 293 308 307
587 2 2 1 1 294 282 296
588 2 2 1 1 294 296 308
589 2 2 1 1 309 309 310
590 2 2 1 1 309 310 311
591 2 2 1 1 309 309 312
592 2 2 1 1 309 312 310
593 2 2 1 1 309 309 313
594 2 2 1 1 309 313 312
595 2 2 1 1 309 309 314
596 2 2 1 1 309 314 313
597 2 2 1 1 309 309 315
598 2 2 1 1 309 315 314
599 2 2 1 1 309 309 316
600 2 2 1 1 309 316 315
601 2 2 1 1 309 309 317
602 2 2 1 1 309 317 316
603 2 2 1 1 309 309 318
604 2 2 1 1 309 318 317
605 2 2 1 1 309 309 319
606 2 2 1 1 309 319 318
607 2 2 1 1 309 309 320
608 2 2 1 1 309 320 319
609 2 2 1 1 309 309 321
610 2 2 1 1 309 321 320
611 2 2 1 1 309 309 322
612 2 2 1 1 309 322 321
613 2 2 1 1 309 309 323
614 2 2 1 1 309 323 322
615 2 2 1 1 309 309 311
616 2 2 1 1 309 311 323
617 2 2 1 1 311 310 324
618 2 2 1 1 311 324 325
619 2 2 1 1 310 312 326
620 2 2 1 1 310 326 324
621 2 2 1 1 312 313 327
622 2 2 1 1 312 327 326
623 2 2 1 1 313 314 328
624 2 2 1 1 313 328 327
625 2 2 1 1 314 315 329
626 2 2 1 1 314 329 328
627 2 2 1 1 315 316 330
628 2 2 1 1 315 330 329
629 2 2 1 1 316 317 331
630 2 2 1 1 316 331 330
631 2 2 1 1 317 318 332
632 2 2 1 1 317 332 331
633 2 2 1 1 318 319 333
634 2 2 1 1 318 333 332
635 2 2 1 1 319 320 334
636 2 2 1 1 319 334 333
637 2 2 1 1 320 321 335
638 2 2 1 1 320 335 334
639 2 2 1 1 321 322 336
640 2 2 1 1 321 336 335
641 2 2 1 1 322 323 337
642 2 2 1 1 322 337 336
643 2 2 1 1 323 311 325
644 2 2 1 1 323 325 337
645 2 2 1 1 325 324 2
646 2 2 1 1 325 2 1
647 2 2 1 1 324 326 5
648 2 2 1 1 324 5 2
649 2 2 1 1 326 327 7
650 2 2 1 1 326 7 5
651 2 2 1 1 327 328 9
652 2 2 1 1 327 9 7
653 2 2 1 1 328 329 11
654 2 2 1 1 328 11 9
655 2 2 1 1 329 330 13
656 2 2 1 1 329 13 11
657 2 2 1 1 330 331 15
658 2 2 1 1 330 15 13
659 2 2 1 1 331 332 17
660 2 2 1 1 331 17 15
661 2 2 1 1 332 333 19
662 2 2 1 1 332 19 17
663 2 2 1 1 333 334 21
664 2 2 1 1 333 21 19
665 2 2 1 1 334 335 23
666 2 2 1 1 334 23 21
667 2 2 1 1 335 336 25
668 2 2 1 1 335 25 23
669 2 2 1 1 336 337 27
670 2 2 1 1 336 27 25
671 2 2 1 1 337 325 1
672 2 2 1 1 337 1 27
$EndElements
