# Converted from GDF: L01 Control surface mesh.gdf
# Rhino->WAMIT file export (mesh)
# Vertices: 1078
# Faces: 2348

o Rhino->WAMIT_file_export_(mesh)

v -57.000000 -9.000000 -2.500000
v -57.000000 -12.000000 -2.500000
v -57.000000 -12.000000 0.000000
v -57.000000 -9.000000 0.000000
v -57.000000 -9.000000 -5.000000
v -57.000000 -12.000000 -5.000000
v -57.000000 -9.000000 -7.500000
v -57.000000 -12.000000 -7.500000
v -57.000000 -9.000000 -10.000000
v -57.000000 -12.000000 -10.000000
v -57.000000 -6.000000 -2.500000
v -57.000000 -6.000000 0.000000
v -57.000000 -6.000000 -5.000000
v -57.000000 -6.000000 -7.500000
v -57.000000 -6.000000 -10.000000
v -57.000000 -3.000000 -2.500000
v -57.000000 -3.000000 0.000000
v -57.000000 -3.000000 -5.000000
v -57.000000 -3.000000 -7.500000
v -57.000000 -3.000000 -10.000000
v -57.000000 0.000000 -2.500000
v -57.000000 0.000000 0.000000
v -57.000000 0.000000 -5.000000
v -57.000000 0.000000 -7.500000
v -57.000000 0.000000 -10.000000
v -54.000000 -3.000000 -10.000000
v -54.000000 0.000000 -10.000000
v -54.000000 -6.000000 -10.000000
v -54.000000 -9.000000 -10.000000
v -54.000000 -12.000000 -10.000000
v -51.000000 -3.000000 -10.000000
v -51.000000 0.000000 -10.000000
v -51.000000 -6.000000 -10.000000
v -51.000000 -9.000000 -10.000000
v -51.000000 -12.000000 -10.000000
v -48.000000 -3.000000 -10.000000
v -48.000000 0.000000 -10.000000
v -48.000000 -6.000000 -10.000000
v -48.000000 -9.000000 -10.000000
v -48.000000 -12.000000 -10.000000
v -45.000000 -3.000000 -10.000000
v -45.000000 0.000000 -10.000000
v -45.000000 -6.000000 -10.000000
v -45.000000 -9.000000 -10.000000
v -45.000000 -12.000000 -10.000000
v -42.000000 -3.000000 -10.000000
v -42.000000 0.000000 -10.000000
v -42.000000 -6.000000 -10.000000
v -42.000000 -9.000000 -10.000000
v -42.000000 -12.000000 -10.000000
v -39.000000 -3.000000 -10.000000
v -39.000000 0.000000 -10.000000
v -39.000000 -6.000000 -10.000000
v -39.000000 -9.000000 -10.000000
v -39.000000 -12.000000 -10.000000
v -36.000000 -3.000000 -10.000000
v -36.000000 0.000000 -10.000000
v -36.000000 -6.000000 -10.000000
v -36.000000 -9.000000 -10.000000
v -36.000000 -12.000000 -10.000000
v -33.000000 -3.000000 -10.000000
v -33.000000 0.000000 -10.000000
v -33.000000 -6.000000 -10.000000
v -33.000000 -9.000000 -10.000000
v -33.000000 -12.000000 -10.000000
v -30.000000 -3.000000 -10.000000
v -30.000000 0.000000 -10.000000
v -30.000000 -6.000000 -10.000000
v -30.000000 -9.000000 -10.000000
v -30.000000 -12.000000 -10.000000
v -27.000000 -3.000000 -10.000000
v -27.000000 0.000000 -10.000000
v -27.000000 -6.000000 -10.000000
v -27.000000 -9.000000 -10.000000
v -27.000000 -12.000000 -10.000000
v -24.000000 -3.000000 -10.000000
v -24.000000 0.000000 -10.000000
v -24.000000 -6.000000 -10.000000
v -24.000000 -9.000000 -10.000000
v -24.000000 -12.000000 -10.000000
v -21.000000 -3.000000 -10.000000
v -21.000000 0.000000 -10.000000
v -21.000000 -6.000000 -10.000000
v -21.000000 -9.000000 -10.000000
v -21.000000 -12.000000 -10.000000
v -18.000000 -3.000000 -10.000000
v -18.000000 0.000000 -10.000000
v -18.000000 -6.000000 -10.000000
v -18.000000 -9.000000 -10.000000
v -18.000000 -12.000000 -10.000000
v -15.000000 -3.000000 -10.000000
v -15.000000 0.000000 -10.000000
v -15.000000 -6.000000 -10.000000
v -15.000000 -9.000000 -10.000000
v -15.000000 -12.000000 -10.000000
v -12.000000 -3.000000 -10.000000
v -12.000000 0.000000 -10.000000
v -12.000000 -6.000000 -10.000000
v -12.000000 -9.000000 -10.000000
v -12.000000 -12.000000 -10.000000
v -9.000000 -3.000000 -10.000000
v -9.000000 0.000000 -10.000000
v -9.000000 -6.000000 -10.000000
v -9.000000 -9.000000 -10.000000
v -9.000000 -12.000000 -10.000000
v -6.000000 -3.000000 -10.000000
v -6.000000 0.000000 -10.000000
v -6.000000 -6.000000 -10.000000
v -6.000000 -9.000000 -10.000000
v -6.000000 -12.000000 -10.000000
v -3.000000 -3.000000 -10.000000
v -3.000000 0.000000 -10.000000
v -3.000000 -6.000000 -10.000000
v -3.000000 -9.000000 -10.000000
v -3.000000 -12.000000 -10.000000
v 0.000000 -3.000000 -10.000000
v 0.000000 0.000000 -10.000000
v 0.000000 -6.000000 -10.000000
v 0.000000 -9.000000 -10.000000
v 0.000000 -12.000000 -10.000000
v 3.000000 -3.000000 -10.000000
v 3.000000 0.000000 -10.000000
v 3.000000 -6.000000 -10.000000
v 3.000000 -9.000000 -10.000000
v 3.000000 -12.000000 -10.000000
v 6.000000 -3.000000 -10.000000
v 6.000000 0.000000 -10.000000
v 6.000000 -6.000000 -10.000000
v 6.000000 -9.000000 -10.000000
v 6.000000 -12.000000 -10.000000
v 9.000000 -3.000000 -10.000000
v 9.000000 0.000000 -10.000000
v 9.000000 -6.000000 -10.000000
v 9.000000 -9.000000 -10.000000
v 9.000000 -12.000000 -10.000000
v 12.000000 -3.000000 -10.000000
v 12.000000 0.000000 -10.000000
v 12.000000 -6.000000 -10.000000
v 12.000000 -9.000000 -10.000000
v 12.000000 -12.000000 -10.000000
v 15.000000 -3.000000 -10.000000
v 15.000000 0.000000 -10.000000
v 15.000000 -6.000000 -10.000000
v 15.000000 -9.000000 -10.000000
v 15.000000 -12.000000 -10.000000
v 18.000000 -3.000000 -10.000000
v 18.000000 0.000000 -10.000000
v 18.000000 -6.000000 -10.000000
v 18.000000 -9.000000 -10.000000
v 18.000000 -12.000000 -10.000000
v 21.000000 -3.000000 -10.000000
v 21.000000 0.000000 -10.000000
v 21.000000 -6.000000 -10.000000
v 21.000000 -9.000000 -10.000000
v 21.000000 -12.000000 -10.000000
v 24.000000 -3.000000 -10.000000
v 24.000000 0.000000 -10.000000
v 24.000000 -6.000000 -10.000000
v 24.000000 -9.000000 -10.000000
v 24.000000 -12.000000 -10.000000
v 27.000000 -3.000000 -10.000000
v 27.000000 0.000000 -10.000000
v 27.000000 -6.000000 -10.000000
v 27.000000 -9.000000 -10.000000
v 27.000000 -12.000000 -10.000000
v 30.000000 -3.000000 -10.000000
v 30.000000 0.000000 -10.000000
v 30.000000 -6.000000 -10.000000
v 30.000000 -9.000000 -10.000000
v 30.000000 -12.000000 -10.000000
v 33.000000 -3.000000 -10.000000
v 33.000000 0.000000 -10.000000
v 33.000000 -6.000000 -10.000000
v 33.000000 -9.000000 -10.000000
v 33.000000 -12.000000 -10.000000
v 36.000000 -3.000000 -10.000000
v 36.000000 0.000000 -10.000000
v 36.000000 -6.000000 -10.000000
v 36.000000 -9.000000 -10.000000
v 36.000000 -12.000000 -10.000000
v 39.000000 -3.000000 -10.000000
v 39.000000 0.000000 -10.000000
v 39.000000 -6.000000 -10.000000
v 39.000000 -9.000000 -10.000000
v 39.000000 -12.000000 -10.000000
v 42.000000 -3.000000 -10.000000
v 42.000000 0.000000 -10.000000
v 42.000000 -6.000000 -10.000000
v 42.000000 -9.000000 -10.000000
v 42.000000 -12.000000 -10.000000
v 45.000000 -3.000000 -10.000000
v 45.000000 0.000000 -10.000000
v 45.000000 -6.000000 -10.000000
v 45.000000 -9.000000 -10.000000
v 45.000000 -12.000000 -10.000000
v 48.000000 -3.000000 -10.000000
v 48.000000 0.000000 -10.000000
v 48.000000 -6.000000 -10.000000
v 48.000000 -9.000000 -10.000000
v 48.000000 -12.000000 -10.000000
v 51.000000 -3.000000 -10.000000
v 51.000000 0.000000 -10.000000
v 51.000000 -6.000000 -10.000000
v 51.000000 -9.000000 -10.000000
v 51.000000 -12.000000 -10.000000
v 54.000000 -3.000000 -10.000000
v 54.000000 0.000000 -10.000000
v 54.000000 -6.000000 -10.000000
v 54.000000 -9.000000 -10.000000
v 54.000000 -12.000000 -10.000000
v 57.000000 -3.000000 -10.000000
v 57.000000 0.000000 -10.000000
v 57.000000 -6.000000 -10.000000
v 57.000000 -9.000000 -10.000000
v 57.000000 -12.000000 -10.000000
v -54.000000 -9.000000 0.000000
v -54.000000 -12.000000 0.000000
v -54.000000 -6.000000 0.000000
v -54.000000 -3.000000 0.000000
v -54.000000 -1.500000 0.000000
v -54.000000 0.000000 0.000000
v -51.000000 -9.000000 0.000000
v -51.000000 -12.000000 0.000000
v -51.000000 -6.000000 0.000000
v -52.500000 -3.000000 0.000000
v -51.000000 -3.000000 0.000000
v -52.500000 0.000000 0.000000
v -52.500000 -1.500000 0.000000
v -48.000000 -9.000000 0.000000
v -48.000000 -12.000000 0.000000
v -48.000000 -6.000000 0.000000
v -45.000000 -9.000000 0.000000
v -45.000000 -12.000000 0.000000
v -46.500000 -6.000000 0.000000
v -45.000000 -6.000000 0.000000
v -46.500000 -4.500000 0.000000
v -48.000000 -4.500000 0.000000
v -42.000000 -9.000000 0.000000
v -42.000000 -12.000000 0.000000
v -43.500000 -6.000000 0.000000
v -42.000000 -6.000000 0.000000
v -39.000000 -9.000000 0.000000
v -39.000000 -12.000000 0.000000
v -37.500000 -9.000000 0.000000
v -36.000000 -12.000000 0.000000
v -36.000000 -9.000000 0.000000
v -37.500000 -7.500000 0.000000
v -39.000000 -7.500000 0.000000
v -36.000000 -7.500000 0.000000
v -34.500000 -9.000000 0.000000
v -33.000000 -12.000000 0.000000
v -33.000000 -9.000000 0.000000
v -34.500000 -7.500000 0.000000
v -31.500000 -9.000000 0.000000
v -30.000000 -12.000000 0.000000
v -30.000000 -9.000000 0.000000
v -28.500000 -9.000000 0.000000
v -27.000000 -12.000000 0.000000
v -27.000000 -9.000000 0.000000
v -25.500000 -9.000000 0.000000
v -24.000000 -12.000000 0.000000
v -24.000000 -9.000000 0.000000
v -22.500000 -9.000000 0.000000
v -21.000000 -12.000000 0.000000
v -21.000000 -9.000000 0.000000
v -19.500000 -9.000000 0.000000
v -18.000000 -12.000000 0.000000
v -18.000000 -9.000000 0.000000
v -16.500000 -9.000000 0.000000
v -15.000000 -12.000000 0.000000
v -15.000000 -9.000000 0.000000
v -13.500000 -9.000000 0.000000
v -12.000000 -12.000000 0.000000
v -12.000000 -9.000000 0.000000
v -10.500000 -9.000000 0.000000
v -9.000000 -12.000000 0.000000
v -9.000000 -9.000000 0.000000
v -7.500000 -9.000000 0.000000
v -6.000000 -12.000000 0.000000
v -6.000000 -9.000000 0.000000
v -4.500000 -9.000000 0.000000
v -3.000000 -12.000000 0.000000
v -3.000000 -9.000000 0.000000
v -1.500000 -9.000000 0.000000
v 0.000000 -12.000000 0.000000
v 0.000000 -9.000000 0.000000
v 1.500000 -9.000000 0.000000
v 3.000000 -12.000000 0.000000
v 3.000000 -9.000000 0.000000
v 4.500000 -9.000000 0.000000
v 6.000000 -12.000000 0.000000
v 6.000000 -9.000000 0.000000
v 7.500000 -9.000000 0.000000
v 9.000000 -12.000000 0.000000
v 9.000000 -9.000000 0.000000
v 10.500000 -9.000000 0.000000
v 12.000000 -12.000000 0.000000
v 12.000000 -9.000000 0.000000
v 13.500000 -9.000000 0.000000
v 15.000000 -12.000000 0.000000
v 15.000000 -9.000000 0.000000
v 16.500000 -9.000000 0.000000
v 18.000000 -12.000000 0.000000
v 18.000000 -9.000000 0.000000
v 19.500000 -9.000000 0.000000
v 21.000000 -12.000000 0.000000
v 21.000000 -9.000000 0.000000
v 22.500000 -9.000000 0.000000
v 24.000000 -12.000000 0.000000
v 24.000000 -9.000000 0.000000
v 25.500000 -9.000000 0.000000
v 27.000000 -12.000000 0.000000
v 27.000000 -9.000000 0.000000
v 28.500000 -9.000000 0.000000
v 30.000000 -12.000000 0.000000
v 30.000000 -9.000000 0.000000
v 31.500000 -9.000000 0.000000
v 33.000000 -12.000000 0.000000
v 33.000000 -9.000000 0.000000
v 34.500000 -9.000000 0.000000
v 36.000000 -12.000000 0.000000
v 36.000000 -9.000000 0.000000
v 37.500000 -9.000000 0.000000
v 39.000000 -12.000000 0.000000
v 39.000000 -9.000000 0.000000
v 40.500000 -9.000000 0.000000
v 42.000000 -12.000000 0.000000
v 42.000000 -9.000000 0.000000
v 40.500000 -7.500000 0.000000
v 42.000000 -7.500000 0.000000
v 43.500000 -9.000000 0.000000
v 45.000000 -12.000000 0.000000
v 45.000000 -9.000000 0.000000
v 45.000000 -6.000000 0.000000
v 43.500000 -6.000000 0.000000
v 43.500000 -7.500000 0.000000
v 45.000000 -7.500000 0.000000
v 48.000000 -9.000000 0.000000
v 48.000000 -12.000000 0.000000
v 46.500000 -6.000000 0.000000
v 48.000000 -6.000000 0.000000
v 48.000000 -4.500000 0.000000
v 46.500000 -4.500000 0.000000
v 51.000000 -9.000000 0.000000
v 51.000000 -12.000000 0.000000
v 51.000000 -6.000000 0.000000
v 54.000000 -9.000000 0.000000
v 54.000000 -12.000000 0.000000
v 54.000000 -6.000000 0.000000
v 54.000000 -3.000000 0.000000
v 51.000000 -3.000000 0.000000
v 57.000000 -9.000000 0.000000
v 57.000000 -12.000000 0.000000
v 57.000000 -6.000000 0.000000
v 57.000000 -3.000000 0.000000
v -33.480000 -7.280000 0.000000
v -32.190000 -7.470000 0.000000
v -29.615000 -7.820000 0.000000
v -25.750000 -7.980000 0.000000
v -27.040000 -7.980000 0.000000
v -24.465000 -7.980000 0.000000
v -28.330000 -7.980000 0.000000
v -30.900000 -7.660000 0.000000
v -23.180000 -7.980000 0.000000
v -20.600000 -7.980000 0.000000
v -21.890000 -7.980000 0.000000
v -19.315000 -7.980000 0.000000
v -16.740000 -7.980000 0.000000
v -18.030000 -7.980000 0.000000
v -14.165000 -7.980000 0.000000
v -15.450000 -7.980000 0.000000
v -11.590000 -7.980000 0.000000
v -12.880000 -7.980000 0.000000
v -9.015000 -7.980000 0.000000
v -10.300000 -7.980000 0.000000
v -7.730000 -7.980000 0.000000
v -6.440000 -7.980000 0.000000
v -2.580000 -7.980000 0.000000
v -3.865000 -7.980000 0.000000
v -1.290000 -7.980000 0.000000
v 0.000000 -7.980000 0.000000
v -5.150000 -7.980000 0.000000
v -47.640000 -3.190000 0.000000
v -45.065000 -4.245000 0.000000
v -46.350000 -3.750000 0.000000
v -43.780000 -4.740000 0.000000
v -42.490000 -5.200000 0.000000
v -41.200000 -5.660000 0.000000
v -51.500000 -1.430000 0.000000
v -51.500000 0.000000 0.000000
v -48.930000 -2.630000 0.000000
v -50.215000 -2.030000 0.000000
v -38.630000 -6.280000 0.000000
v -37.340000 -6.590000 0.000000
v -36.050000 -6.900000 0.000000
v -39.915000 -5.970000 0.000000
v -34.765000 -7.090000 0.000000
v 1.290000 -7.980000 0.000000
v 3.865000 -7.980000 0.000000
v 2.580000 -7.980000 0.000000
v 6.440000 -7.980000 0.000000
v 5.150000 -7.980000 0.000000
v 7.730000 -7.980000 0.000000
v 10.300000 -7.980000 0.000000
v 9.015000 -7.980000 0.000000
v 11.590000 -7.980000 0.000000
v 12.880000 -7.980000 0.000000
v 14.165000 -7.980000 0.000000
v 16.740000 -7.980000 0.000000
v 15.450000 -7.980000 0.000000
v 19.315000 -7.980000 0.000000
v 18.030000 -7.980000 0.000000
v 21.890000 -7.980000 0.000000
v 20.600000 -7.980000 0.000000
v 25.750000 -7.980000 0.000000
v 24.465000 -7.980000 0.000000
v 27.040000 -7.980000 0.000000
v 23.180000 -7.980000 0.000000
v 28.330000 -7.980000 0.000000
v 29.615000 -7.980000 0.000000
v 30.900000 -7.980000 0.000000
v 33.480000 -7.980000 0.000000
v 32.190000 -7.980000 0.000000
v 36.050000 -7.980000 0.000000
v 34.765000 -7.980000 0.000000
v 38.630000 -7.320000 0.000000
v 37.340000 -7.650000 0.000000
v 41.200000 -6.660000 0.000000
v 39.915000 -6.990000 0.000000
v 42.490000 -6.120000 0.000000
v 43.780000 -5.580000 0.000000
v 45.065000 -4.825000 0.000000
v 46.350000 -4.070000 0.000000
v 47.640000 -3.150000 0.000000
v 48.930000 -2.230000 0.000000
v 50.215000 -1.115000 0.000000
v 54.000000 0.000000 0.000000
v 51.500000 0.000000 0.000000
v 57.000000 0.000000 0.000000
v 57.000000 -9.000000 -7.500000
v 57.000000 -12.000000 -7.500000
v 57.000000 -9.000000 -5.000000
v 57.000000 -12.000000 -5.000000
v 57.000000 -9.000000 -2.500000
v 57.000000 -12.000000 -2.500000
v 57.000000 -6.000000 -7.500000
v 57.000000 -6.000000 -5.000000
v 57.000000 -6.000000 -2.500000
v 57.000000 -3.000000 -7.500000
v 57.000000 -3.000000 -5.000000
v 57.000000 -3.000000 -2.500000
v 57.000000 0.000000 -7.500000
v 57.000000 0.000000 -5.000000
v 57.000000 0.000000 -2.500000
v -54.000000 -12.000000 -7.500000
v -54.000000 -12.000000 -5.000000
v -54.000000 -12.000000 -2.500000
v -51.000000 -12.000000 -7.500000
v -51.000000 -12.000000 -5.000000
v -51.000000 -12.000000 -2.500000
v -48.000000 -12.000000 -7.500000
v -48.000000 -12.000000 -5.000000
v -48.000000 -12.000000 -2.500000
v -45.000000 -12.000000 -7.500000
v -45.000000 -12.000000 -5.000000
v -45.000000 -12.000000 -2.500000
v -42.000000 -12.000000 -7.500000
v -42.000000 -12.000000 -5.000000
v -42.000000 -12.000000 -2.500000
v -39.000000 -12.000000 -7.500000
v -39.000000 -12.000000 -5.000000
v -39.000000 -12.000000 -2.500000
v -36.000000 -12.000000 -7.500000
v -36.000000 -12.000000 -5.000000
v -36.000000 -12.000000 -2.500000
v -33.000000 -12.000000 -7.500000
v -33.000000 -12.000000 -5.000000
v -33.000000 -12.000000 -2.500000
v -30.000000 -12.000000 -7.500000
v -30.000000 -12.000000 -5.000000
v -30.000000 -12.000000 -2.500000
v -27.000000 -12.000000 -7.500000
v -27.000000 -12.000000 -5.000000
v -27.000000 -12.000000 -2.500000
v -24.000000 -12.000000 -7.500000
v -24.000000 -12.000000 -5.000000
v -24.000000 -12.000000 -2.500000
v -21.000000 -12.000000 -7.500000
v -21.000000 -12.000000 -5.000000
v -21.000000 -12.000000 -2.500000
v -18.000000 -12.000000 -7.500000
v -18.000000 -12.000000 -5.000000
v -18.000000 -12.000000 -2.500000
v -15.000000 -12.000000 -7.500000
v -15.000000 -12.000000 -5.000000
v -15.000000 -12.000000 -2.500000
v -12.000000 -12.000000 -7.500000
v -12.000000 -12.000000 -5.000000
v -12.000000 -12.000000 -2.500000
v -9.000000 -12.000000 -7.500000
v -9.000000 -12.000000 -5.000000
v -9.000000 -12.000000 -2.500000
v -6.000000 -12.000000 -7.500000
v -6.000000 -12.000000 -5.000000
v -6.000000 -12.000000 -2.500000
v -3.000000 -12.000000 -7.500000
v -3.000000 -12.000000 -5.000000
v -3.000000 -12.000000 -2.500000
v 0.000000 -12.000000 -7.500000
v 0.000000 -12.000000 -5.000000
v 0.000000 -12.000000 -2.500000
v 3.000000 -12.000000 -7.500000
v 3.000000 -12.000000 -5.000000
v 3.000000 -12.000000 -2.500000
v 6.000000 -12.000000 -7.500000
v 6.000000 -12.000000 -5.000000
v 6.000000 -12.000000 -2.500000
v 9.000000 -12.000000 -7.500000
v 9.000000 -12.000000 -5.000000
v 9.000000 -12.000000 -2.500000
v 12.000000 -12.000000 -7.500000
v 12.000000 -12.000000 -5.000000
v 12.000000 -12.000000 -2.500000
v 15.000000 -12.000000 -7.500000
v 15.000000 -12.000000 -5.000000
v 15.000000 -12.000000 -2.500000
v 18.000000 -12.000000 -7.500000
v 18.000000 -12.000000 -5.000000
v 18.000000 -12.000000 -2.500000
v 21.000000 -12.000000 -7.500000
v 21.000000 -12.000000 -5.000000
v 21.000000 -12.000000 -2.500000
v 24.000000 -12.000000 -7.500000
v 24.000000 -12.000000 -5.000000
v 24.000000 -12.000000 -2.500000
v 27.000000 -12.000000 -7.500000
v 27.000000 -12.000000 -5.000000
v 27.000000 -12.000000 -2.500000
v 30.000000 -12.000000 -7.500000
v 30.000000 -12.000000 -5.000000
v 30.000000 -12.000000 -2.500000
v 33.000000 -12.000000 -7.500000
v 33.000000 -12.000000 -5.000000
v 33.000000 -12.000000 -2.500000
v 36.000000 -12.000000 -7.500000
v 36.000000 -12.000000 -5.000000
v 36.000000 -12.000000 -2.500000
v 39.000000 -12.000000 -7.500000
v 39.000000 -12.000000 -5.000000
v 39.000000 -12.000000 -2.500000
v 42.000000 -12.000000 -7.500000
v 42.000000 -12.000000 -5.000000
v 42.000000 -12.000000 -2.500000
v 45.000000 -12.000000 -7.500000
v 45.000000 -12.000000 -5.000000
v 45.000000 -12.000000 -2.500000
v 48.000000 -12.000000 -7.500000
v 48.000000 -12.000000 -5.000000
v 48.000000 -12.000000 -2.500000
v 51.000000 -12.000000 -7.500000
v 51.000000 -12.000000 -5.000000
v 51.000000 -12.000000 -2.500000
v 54.000000 -12.000000 -7.500000
v 54.000000 -12.000000 -5.000000
v 54.000000 -12.000000 -2.500000
v -57.000000 9.000000 -2.500000
v -57.000000 12.000000 -2.500000
v -57.000000 12.000000 0.000000
v -57.000000 9.000000 0.000000
v -57.000000 9.000000 -5.000000
v -57.000000 12.000000 -5.000000
v -57.000000 9.000000 -7.500000
v -57.000000 12.000000 -7.500000
v -57.000000 9.000000 -10.000000
v -57.000000 12.000000 -10.000000
v -57.000000 6.000000 -2.500000
v -57.000000 6.000000 0.000000
v -57.000000 6.000000 -5.000000
v -57.000000 6.000000 -7.500000
v -57.000000 6.000000 -10.000000
v -57.000000 3.000000 -2.500000
v -57.000000 3.000000 0.000000
v -57.000000 3.000000 -5.000000
v -57.000000 3.000000 -7.500000
v -57.000000 3.000000 -10.000000
v -54.000000 3.000000 -10.000000
v -54.000000 6.000000 -10.000000
v -54.000000 9.000000 -10.000000
v -54.000000 12.000000 -10.000000
v -51.000000 3.000000 -10.000000
v -51.000000 6.000000 -10.000000
v -51.000000 9.000000 -10.000000
v -51.000000 12.000000 -10.000000
v -48.000000 3.000000 -10.000000
v -48.000000 6.000000 -10.000000
v -48.000000 9.000000 -10.000000
v -48.000000 12.000000 -10.000000
v -45.000000 3.000000 -10.000000
v -45.000000 6.000000 -10.000000
v -45.000000 9.000000 -10.000000
v -45.000000 12.000000 -10.000000
v -42.000000 3.000000 -10.000000
v -42.000000 6.000000 -10.000000
v -42.000000 9.000000 -10.000000
v -42.000000 12.000000 -10.000000
v -39.000000 3.000000 -10.000000
v -39.000000 6.000000 -10.000000
v -39.000000 9.000000 -10.000000
v -39.000000 12.000000 -10.000000
v -36.000000 3.000000 -10.000000
v -36.000000 6.000000 -10.000000
v -36.000000 9.000000 -10.000000
v -36.000000 12.000000 -10.000000
v -33.000000 3.000000 -10.000000
v -33.000000 6.000000 -10.000000
v -33.000000 9.000000 -10.000000
v -33.000000 12.000000 -10.000000
v -30.000000 3.000000 -10.000000
v -30.000000 6.000000 -10.000000
v -30.000000 9.000000 -10.000000
v -30.000000 12.000000 -10.000000
v -27.000000 3.000000 -10.000000
v -27.000000 6.000000 -10.000000
v -27.000000 9.000000 -10.000000
v -27.000000 12.000000 -10.000000
v -24.000000 3.000000 -10.000000
v -24.000000 6.000000 -10.000000
v -24.000000 9.000000 -10.000000
v -24.000000 12.000000 -10.000000
v -21.000000 3.000000 -10.000000
v -21.000000 6.000000 -10.000000
v -21.000000 9.000000 -10.000000
v -21.000000 12.000000 -10.000000
v -18.000000 3.000000 -10.000000
v -18.000000 6.000000 -10.000000
v -18.000000 9.000000 -10.000000
v -18.000000 12.000000 -10.000000
v -15.000000 3.000000 -10.000000
v -15.000000 6.000000 -10.000000
v -15.000000 9.000000 -10.000000
v -15.000000 12.000000 -10.000000
v -12.000000 3.000000 -10.000000
v -12.000000 6.000000 -10.000000
v -12.000000 9.000000 -10.000000
v -12.000000 12.000000 -10.000000
v -9.000000 3.000000 -10.000000
v -9.000000 6.000000 -10.000000
v -9.000000 9.000000 -10.000000
v -9.000000 12.000000 -10.000000
v -6.000000 3.000000 -10.000000
v -6.000000 6.000000 -10.000000
v -6.000000 9.000000 -10.000000
v -6.000000 12.000000 -10.000000
v -3.000000 3.000000 -10.000000
v -3.000000 6.000000 -10.000000
v -3.000000 9.000000 -10.000000
v -3.000000 12.000000 -10.000000
v 0.000000 3.000000 -10.000000
v 0.000000 6.000000 -10.000000
v 0.000000 9.000000 -10.000000
v 0.000000 12.000000 -10.000000
v 3.000000 3.000000 -10.000000
v 3.000000 6.000000 -10.000000
v 3.000000 9.000000 -10.000000
v 3.000000 12.000000 -10.000000
v 6.000000 3.000000 -10.000000
v 6.000000 6.000000 -10.000000
v 6.000000 9.000000 -10.000000
v 6.000000 12.000000 -10.000000
v 9.000000 3.000000 -10.000000
v 9.000000 6.000000 -10.000000
v 9.000000 9.000000 -10.000000
v 9.000000 12.000000 -10.000000
v 12.000000 3.000000 -10.000000
v 12.000000 6.000000 -10.000000
v 12.000000 9.000000 -10.000000
v 12.000000 12.000000 -10.000000
v 15.000000 3.000000 -10.000000
v 15.000000 6.000000 -10.000000
v 15.000000 9.000000 -10.000000
v 15.000000 12.000000 -10.000000
v 18.000000 3.000000 -10.000000
v 18.000000 6.000000 -10.000000
v 18.000000 9.000000 -10.000000
v 18.000000 12.000000 -10.000000
v 21.000000 3.000000 -10.000000
v 21.000000 6.000000 -10.000000
v 21.000000 9.000000 -10.000000
v 21.000000 12.000000 -10.000000
v 24.000000 3.000000 -10.000000
v 24.000000 6.000000 -10.000000
v 24.000000 9.000000 -10.000000
v 24.000000 12.000000 -10.000000
v 27.000000 3.000000 -10.000000
v 27.000000 6.000000 -10.000000
v 27.000000 9.000000 -10.000000
v 27.000000 12.000000 -10.000000
v 30.000000 3.000000 -10.000000
v 30.000000 6.000000 -10.000000
v 30.000000 9.000000 -10.000000
v 30.000000 12.000000 -10.000000
v 33.000000 3.000000 -10.000000
v 33.000000 6.000000 -10.000000
v 33.000000 9.000000 -10.000000
v 33.000000 12.000000 -10.000000
v 36.000000 3.000000 -10.000000
v 36.000000 6.000000 -10.000000
v 36.000000 9.000000 -10.000000
v 36.000000 12.000000 -10.000000
v 39.000000 3.000000 -10.000000
v 39.000000 6.000000 -10.000000
v 39.000000 9.000000 -10.000000
v 39.000000 12.000000 -10.000000
v 42.000000 3.000000 -10.000000
v 42.000000 6.000000 -10.000000
v 42.000000 9.000000 -10.000000
v 42.000000 12.000000 -10.000000
v 45.000000 3.000000 -10.000000
v 45.000000 6.000000 -10.000000
v 45.000000 9.000000 -10.000000
v 45.000000 12.000000 -10.000000
v 48.000000 3.000000 -10.000000
v 48.000000 6.000000 -10.000000
v 48.000000 9.000000 -10.000000
v 48.000000 12.000000 -10.000000
v 51.000000 3.000000 -10.000000
v 51.000000 6.000000 -10.000000
v 51.000000 9.000000 -10.000000
v 51.000000 12.000000 -10.000000
v 54.000000 3.000000 -10.000000
v 54.000000 6.000000 -10.000000
v 54.000000 9.000000 -10.000000
v 54.000000 12.000000 -10.000000
v 57.000000 3.000000 -10.000000
v 57.000000 6.000000 -10.000000
v 57.000000 9.000000 -10.000000
v 57.000000 12.000000 -10.000000
v -54.000000 9.000000 0.000000
v -54.000000 12.000000 0.000000
v -54.000000 6.000000 0.000000
v -54.000000 3.000000 0.000000
v -54.000000 1.500000 0.000000
v -51.000000 9.000000 0.000000
v -51.000000 12.000000 0.000000
v -51.000000 6.000000 0.000000
v -52.500000 3.000000 0.000000
v -51.000000 3.000000 0.000000
v -52.500000 1.500000 0.000000
v -48.000000 9.000000 0.000000
v -48.000000 12.000000 0.000000
v -48.000000 6.000000 0.000000
v -45.000000 9.000000 0.000000
v -45.000000 12.000000 0.000000
v -46.500000 6.000000 0.000000
v -45.000000 6.000000 0.000000
v -46.500000 4.500000 0.000000
v -48.000000 4.500000 0.000000
v -42.000000 9.000000 0.000000
v -42.000000 12.000000 0.000000
v -43.500000 6.000000 0.000000
v -42.000000 6.000000 0.000000
v -39.000000 9.000000 0.000000
v -39.000000 12.000000 0.000000
v -37.500000 9.000000 0.000000
v -36.000000 12.000000 0.000000
v -36.000000 9.000000 0.000000
v -37.500000 7.500000 0.000000
v -39.000000 7.500000 0.000000
v -36.000000 7.500000 0.000000
v -34.500000 9.000000 0.000000
v -33.000000 12.000000 0.000000
v -33.000000 9.000000 0.000000
v -34.500000 7.500000 0.000000
v -31.500000 9.000000 0.000000
v -30.000000 12.000000 0.000000
v -30.000000 9.000000 0.000000
v -28.500000 9.000000 0.000000
v -27.000000 12.000000 0.000000
v -27.000000 9.000000 0.000000
v -25.500000 9.000000 0.000000
v -24.000000 12.000000 0.000000
v -24.000000 9.000000 0.000000
v -22.500000 9.000000 0.000000
v -21.000000 12.000000 0.000000
v -21.000000 9.000000 0.000000
v -19.500000 9.000000 0.000000
v -18.000000 12.000000 0.000000
v -18.000000 9.000000 0.000000
v -16.500000 9.000000 0.000000
v -15.000000 12.000000 0.000000
v -15.000000 9.000000 0.000000
v -13.500000 9.000000 0.000000
v -12.000000 12.000000 0.000000
v -12.000000 9.000000 0.000000
v -10.500000 9.000000 0.000000
v -9.000000 12.000000 0.000000
v -9.000000 9.000000 0.000000
v -7.500000 9.000000 0.000000
v -6.000000 12.000000 0.000000
v -6.000000 9.000000 0.000000
v -4.500000 9.000000 0.000000
v -3.000000 12.000000 0.000000
v -3.000000 9.000000 0.000000
v -1.500000 9.000000 0.000000
v 0.000000 12.000000 0.000000
v 0.000000 9.000000 0.000000
v 1.500000 9.000000 0.000000
v 3.000000 12.000000 0.000000
v 3.000000 9.000000 0.000000
v 4.500000 9.000000 0.000000
v 6.000000 12.000000 0.000000
v 6.000000 9.000000 0.000000
v 7.500000 9.000000 0.000000
v 9.000000 12.000000 0.000000
v 9.000000 9.000000 0.000000
v 10.500000 9.000000 0.000000
v 12.000000 12.000000 0.000000
v 12.000000 9.000000 0.000000
v 13.500000 9.000000 0.000000
v 15.000000 12.000000 0.000000
v 15.000000 9.000000 0.000000
v 16.500000 9.000000 0.000000
v 18.000000 12.000000 0.000000
v 18.000000 9.000000 0.000000
v 19.500000 9.000000 0.000000
v 21.000000 12.000000 0.000000
v 21.000000 9.000000 0.000000
v 22.500000 9.000000 0.000000
v 24.000000 12.000000 0.000000
v 24.000000 9.000000 0.000000
v 25.500000 9.000000 0.000000
v 27.000000 12.000000 0.000000
v 27.000000 9.000000 0.000000
v 28.500000 9.000000 0.000000
v 30.000000 12.000000 0.000000
v 30.000000 9.000000 0.000000
v 31.500000 9.000000 0.000000
v 33.000000 12.000000 0.000000
v 33.000000 9.000000 0.000000
v 34.500000 9.000000 0.000000
v 36.000000 12.000000 0.000000
v 36.000000 9.000000 0.000000
v 37.500000 9.000000 0.000000
v 39.000000 12.000000 0.000000
v 39.000000 9.000000 0.000000
v 40.500000 9.000000 0.000000
v 42.000000 12.000000 0.000000
v 42.000000 9.000000 0.000000
v 40.500000 7.500000 0.000000
v 42.000000 7.500000 0.000000
v 43.500000 9.000000 0.000000
v 45.000000 12.000000 0.000000
v 45.000000 9.000000 0.000000
v 45.000000 6.000000 0.000000
v 43.500000 6.000000 0.000000
v 43.500000 7.500000 0.000000
v 45.000000 7.500000 0.000000
v 48.000000 9.000000 0.000000
v 48.000000 12.000000 0.000000
v 46.500000 6.000000 0.000000
v 48.000000 6.000000 0.000000
v 48.000000 4.500000 0.000000
v 46.500000 4.500000 0.000000
v 51.000000 9.000000 0.000000
v 51.000000 12.000000 0.000000
v 51.000000 6.000000 0.000000
v 54.000000 9.000000 0.000000
v 54.000000 12.000000 0.000000
v 54.000000 6.000000 0.000000
v 54.000000 3.000000 0.000000
v 51.000000 3.000000 0.000000
v 57.000000 9.000000 0.000000
v 57.000000 12.000000 0.000000
v 57.000000 6.000000 0.000000
v 57.000000 3.000000 0.000000
v -33.480000 7.280000 0.000000
v -32.190000 7.470000 0.000000
v -29.615000 7.820000 0.000000
v -25.750000 7.980000 0.000000
v -27.040000 7.980000 0.000000
v -24.465000 7.980000 0.000000
v -28.330000 7.980000 0.000000
v -30.900000 7.660000 0.000000
v -23.180000 7.980000 0.000000
v -20.600000 7.980000 0.000000
v -21.890000 7.980000 0.000000
v -19.315000 7.980000 0.000000
v -16.740000 7.980000 0.000000
v -18.030000 7.980000 0.000000
v -14.165000 7.980000 0.000000
v -15.450000 7.980000 0.000000
v -11.590000 7.980000 0.000000
v -12.880000 7.980000 0.000000
v -9.015000 7.980000 0.000000
v -10.300000 7.980000 0.000000
v -7.730000 7.980000 0.000000
v -6.440000 7.980000 0.000000
v -2.580000 7.980000 0.000000
v -3.865000 7.980000 0.000000
v -1.290000 7.980000 0.000000
v 0.000000 7.980000 0.000000
v -5.150000 7.980000 0.000000
v -47.640000 3.190000 0.000000
v -45.065000 4.245000 0.000000
v -46.350000 3.750000 0.000000
v -43.780000 4.740000 0.000000
v -42.490000 5.200000 0.000000
v -41.200000 5.660000 0.000000
v -51.500000 1.430000 0.000000
v -48.930000 2.630000 0.000000
v -50.215000 2.030000 0.000000
v -38.630000 6.280000 0.000000
v -37.340000 6.590000 0.000000
v -36.050000 6.900000 0.000000
v -39.915000 5.970000 0.000000
v -34.765000 7.090000 0.000000
v 1.290000 7.980000 0.000000
v 3.865000 7.980000 0.000000
v 2.580000 7.980000 0.000000
v 6.440000 7.980000 0.000000
v 5.150000 7.980000 0.000000
v 7.730000 7.980000 0.000000
v 10.300000 7.980000 0.000000
v 9.015000 7.980000 0.000000
v 11.590000 7.980000 0.000000
v 12.880000 7.980000 0.000000
v 14.165000 7.980000 0.000000
v 16.740000 7.980000 0.000000
v 15.450000 7.980000 0.000000
v 19.315000 7.980000 0.000000
v 18.030000 7.980000 0.000000
v 21.890000 7.980000 0.000000
v 20.600000 7.980000 0.000000
v 25.750000 7.980000 0.000000
v 24.465000 7.980000 0.000000
v 27.040000 7.980000 0.000000
v 23.180000 7.980000 0.000000
v 28.330000 7.980000 0.000000
v 29.615000 7.980000 0.000000
v 30.900000 7.980000 0.000000
v 33.480000 7.980000 0.000000
v 32.190000 7.980000 0.000000
v 36.050000 7.980000 0.000000
v 34.765000 7.980000 0.000000
v 38.630000 7.320000 0.000000
v 37.340000 7.650000 0.000000
v 41.200000 6.660000 0.000000
v 39.915000 6.990000 0.000000
v 42.490000 6.120000 0.000000
v 43.780000 5.580000 0.000000
v 45.065000 4.825000 0.000000
v 46.350000 4.070000 0.000000
v 47.640000 3.150000 0.000000
v 48.930000 2.230000 0.000000
v 50.215000 1.115000 0.000000
v 57.000000 9.000000 -7.500000
v 57.000000 12.000000 -7.500000
v 57.000000 9.000000 -5.000000
v 57.000000 12.000000 -5.000000
v 57.000000 9.000000 -2.500000
v 57.000000 12.000000 -2.500000
v 57.000000 6.000000 -7.500000
v 57.000000 6.000000 -5.000000
v 57.000000 6.000000 -2.500000
v 57.000000 3.000000 -7.500000
v 57.000000 3.000000 -5.000000
v 57.000000 3.000000 -2.500000
v -54.000000 12.000000 -7.500000
v -54.000000 12.000000 -5.000000
v -54.000000 12.000000 -2.500000
v -51.000000 12.000000 -7.500000
v -51.000000 12.000000 -5.000000
v -51.000000 12.000000 -2.500000
v -48.000000 12.000000 -7.500000
v -48.000000 12.000000 -5.000000
v -48.000000 12.000000 -2.500000
v -45.000000 12.000000 -7.500000
v -45.000000 12.000000 -5.000000
v -45.000000 12.000000 -2.500000
v -42.000000 12.000000 -7.500000
v -42.000000 12.000000 -5.000000
v -42.000000 12.000000 -2.500000
v -39.000000 12.000000 -7.500000
v -39.000000 12.000000 -5.000000
v -39.000000 12.000000 -2.500000
v -36.000000 12.000000 -7.500000
v -36.000000 12.000000 -5.000000
v -36.000000 12.000000 -2.500000
v -33.000000 12.000000 -7.500000
v -33.000000 12.000000 -5.000000
v -33.000000 12.000000 -2.500000
v -30.000000 12.000000 -7.500000
v -30.000000 12.000000 -5.000000
v -30.000000 12.000000 -2.500000
v -27.000000 12.000000 -7.500000
v -27.000000 12.000000 -5.000000
v -27.000000 12.000000 -2.500000
v -24.000000 12.000000 -7.500000
v -24.000000 12.000000 -5.000000
v -24.000000 12.000000 -2.500000
v -21.000000 12.000000 -7.500000
v -21.000000 12.000000 -5.000000
v -21.000000 12.000000 -2.500000
v -18.000000 12.000000 -7.500000
v -18.000000 12.000000 -5.000000
v -18.000000 12.000000 -2.500000
v -15.000000 12.000000 -7.500000
v -15.000000 12.000000 -5.000000
v -15.000000 12.000000 -2.500000
v -12.000000 12.000000 -7.500000
v -12.000000 12.000000 -5.000000
v -12.000000 12.000000 -2.500000
v -9.000000 12.000000 -7.500000
v -9.000000 12.000000 -5.000000
v -9.000000 12.000000 -2.500000
v -6.000000 12.000000 -7.500000
v -6.000000 12.000000 -5.000000
v -6.000000 12.000000 -2.500000
v -3.000000 12.000000 -7.500000
v -3.000000 12.000000 -5.000000
v -3.000000 12.000000 -2.500000
v 0.000000 12.000000 -7.500000
v 0.000000 12.000000 -5.000000
v 0.000000 12.000000 -2.500000
v 3.000000 12.000000 -7.500000
v 3.000000 12.000000 -5.000000
v 3.000000 12.000000 -2.500000
v 6.000000 12.000000 -7.500000
v 6.000000 12.000000 -5.000000
v 6.000000 12.000000 -2.500000
v 9.000000 12.000000 -7.500000
v 9.000000 12.000000 -5.000000
v 9.000000 12.000000 -2.500000
v 12.000000 12.000000 -7.500000
v 12.000000 12.000000 -5.000000
v 12.000000 12.000000 -2.500000
v 15.000000 12.000000 -7.500000
v 15.000000 12.000000 -5.000000
v 15.000000 12.000000 -2.500000
v 18.000000 12.000000 -7.500000
v 18.000000 12.000000 -5.000000
v 18.000000 12.000000 -2.500000
v 21.000000 12.000000 -7.500000
v 21.000000 12.000000 -5.000000
v 21.000000 12.000000 -2.500000
v 24.000000 12.000000 -7.500000
v 24.000000 12.000000 -5.000000
v 24.000000 12.000000 -2.500000
v 27.000000 12.000000 -7.500000
v 27.000000 12.000000 -5.000000
v 27.000000 12.000000 -2.500000
v 30.000000 12.000000 -7.500000
v 30.000000 12.000000 -5.000000
v 30.000000 12.000000 -2.500000
v 33.000000 12.000000 -7.500000
v 33.000000 12.000000 -5.000000
v 33.000000 12.000000 -2.500000
v 36.000000 12.000000 -7.500000
v 36.000000 12.000000 -5.000000
v 36.000000 12.000000 -2.500000
v 39.000000 12.000000 -7.500000
v 39.000000 12.000000 -5.000000
v 39.000000 12.000000 -2.500000
v 42.000000 12.000000 -7.500000
v 42.000000 12.000000 -5.000000
v 42.000000 12.000000 -2.500000
v 45.000000 12.000000 -7.500000
v 45.000000 12.000000 -5.000000
v 45.000000 12.000000 -2.500000
v 48.000000 12.000000 -7.500000
v 48.000000 12.000000 -5.000000
v 48.000000 12.000000 -2.500000
v 51.000000 12.000000 -7.500000
v 51.000000 12.000000 -5.000000
v 51.000000 12.000000 -2.500000
v 54.000000 12.000000 -7.500000
v 54.000000 12.000000 -5.000000
v 54.000000 12.000000 -2.500000

f 1 2 3
f 1 3 4
f 5 6 2
f 5 2 1
f 7 8 6
f 7 6 5
f 9 10 8
f 9 8 7
f 11 1 4
f 11 4 12
f 13 5 1
f 13 1 11
f 14 7 5
f 14 5 13
f 15 9 7
f 15 7 14
f 16 11 12
f 16 12 17
f 18 13 11
f 18 11 16
f 19 14 13
f 19 13 18
f 20 15 14
f 20 14 19
f 21 16 17
f 21 17 22
f 23 18 16
f 23 16 21
f 24 19 18
f 24 18 23
f 25 20 19
f 25 19 24
f 26 20 25
f 26 25 27
f 28 15 20
f 28 20 26
f 29 9 15
f 29 15 28
f 30 10 9
f 30 9 29
f 31 26 27
f 31 27 32
f 33 28 26
f 33 26 31
f 34 29 28
f 34 28 33
f 35 30 29
f 35 29 34
f 36 31 32
f 36 32 37
f 38 33 31
f 38 31 36
f 39 34 33
f 39 33 38
f 40 35 34
f 40 34 39
f 41 36 37
f 41 37 42
f 43 38 36
f 43 36 41
f 44 39 38
f 44 38 43
f 45 40 39
f 45 39 44
f 46 41 42
f 46 42 47
f 48 43 41
f 48 41 46
f 49 44 43
f 49 43 48
f 50 45 44
f 50 44 49
f 51 46 47
f 51 47 52
f 53 48 46
f 53 46 51
f 54 49 48
f 54 48 53
f 55 50 49
f 55 49 54
f 56 51 52
f 56 52 57
f 58 53 51
f 58 51 56
f 59 54 53
f 59 53 58
f 60 55 54
f 60 54 59
f 61 56 57
f 61 57 62
f 63 58 56
f 63 56 61
f 64 59 58
f 64 58 63
f 65 60 59
f 65 59 64
f 66 61 62
f 66 62 67
f 68 63 61
f 68 61 66
f 69 64 63
f 69 63 68
f 70 65 64
f 70 64 69
f 71 66 67
f 71 67 72
f 73 68 66
f 73 66 71
f 74 69 68
f 74 68 73
f 75 70 69
f 75 69 74
f 76 71 72
f 76 72 77
f 78 73 71
f 78 71 76
f 79 74 73
f 79 73 78
f 80 75 74
f 80 74 79
f 81 76 77
f 81 77 82
f 83 78 76
f 83 76 81
f 84 79 78
f 84 78 83
f 85 80 79
f 85 79 84
f 86 81 82
f 86 82 87
f 88 83 81
f 88 81 86
f 89 84 83
f 89 83 88
f 90 85 84
f 90 84 89
f 91 86 87
f 91 87 92
f 93 88 86
f 93 86 91
f 94 89 88
f 94 88 93
f 95 90 89
f 95 89 94
f 96 91 92
f 96 92 97
f 98 93 91
f 98 91 96
f 99 94 93
f 99 93 98
f 100 95 94
f 100 94 99
f 101 96 97
f 101 97 102
f 103 98 96
f 103 96 101
f 104 99 98
f 104 98 103
f 105 100 99
f 105 99 104
f 106 101 102
f 106 102 107
f 108 103 101
f 108 101 106
f 109 104 103
f 109 103 108
f 110 105 104
f 110 104 109
f 111 106 107
f 111 107 112
f 113 108 106
f 113 106 111
f 114 109 108
f 114 108 113
f 115 110 109
f 115 109 114
f 116 111 112
f 116 112 117
f 118 113 111
f 118 111 116
f 119 114 113
f 119 113 118
f 120 115 114
f 120 114 119
f 121 116 117
f 121 117 122
f 123 118 116
f 123 116 121
f 124 119 118
f 124 118 123
f 125 120 119
f 125 119 124
f 126 121 122
f 126 122 127
f 128 123 121
f 128 121 126
f 129 124 123
f 129 123 128
f 130 125 124
f 130 124 129
f 131 126 127
f 131 127 132
f 133 128 126
f 133 126 131
f 134 129 128
f 134 128 133
f 135 130 129
f 135 129 134
f 136 131 132
f 136 132 137
f 138 133 131
f 138 131 136
f 139 134 133
f 139 133 138
f 140 135 134
f 140 134 139
f 141 136 137
f 141 137 142
f 143 138 136
f 143 136 141
f 144 139 138
f 144 138 143
f 145 140 139
f 145 139 144
f 146 141 142
f 146 142 147
f 148 143 141
f 148 141 146
f 149 144 143
f 149 143 148
f 150 145 144
f 150 144 149
f 151 146 147
f 151 147 152
f 153 148 146
f 153 146 151
f 154 149 148
f 154 148 153
f 155 150 149
f 155 149 154
f 156 151 152
f 156 152 157
f 158 153 151
f 158 151 156
f 159 154 153
f 159 153 158
f 160 155 154
f 160 154 159
f 161 156 157
f 161 157 162
f 163 158 156
f 163 156 161
f 164 159 158
f 164 158 163
f 165 160 159
f 165 159 164
f 166 161 162
f 166 162 167
f 168 163 161
f 168 161 166
f 169 164 163
f 169 163 168
f 170 165 164
f 170 164 169
f 171 166 167
f 171 167 172
f 173 168 166
f 173 166 171
f 174 169 168
f 174 168 173
f 175 170 169
f 175 169 174
f 176 171 172
f 176 172 177
f 178 173 171
f 178 171 176
f 179 174 173
f 179 173 178
f 180 175 174
f 180 174 179
f 181 176 177
f 181 177 182
f 183 178 176
f 183 176 181
f 184 179 178
f 184 178 183
f 185 180 179
f 185 179 184
f 186 181 182
f 186 182 187
f 188 183 181
f 188 181 186
f 189 184 183
f 189 183 188
f 190 185 184
f 190 184 189
f 191 186 187
f 191 187 192
f 193 188 186
f 193 186 191
f 194 189 188
f 194 188 193
f 195 190 189
f 195 189 194
f 196 191 192
f 196 192 197
f 198 193 191
f 198 191 196
f 199 194 193
f 199 193 198
f 200 195 194
f 200 194 199
f 201 196 197
f 201 197 202
f 203 198 196
f 203 196 201
f 204 199 198
f 204 198 203
f 205 200 199
f 205 199 204
f 206 201 202
f 206 202 207
f 208 203 201
f 208 201 206
f 209 204 203
f 209 203 208
f 210 205 204
f 210 204 209
f 211 206 207
f 211 207 212
f 213 208 206
f 213 206 211
f 214 209 208
f 214 208 213
f 215 210 209
f 215 209 214
f 216 4 3
f 216 3 217
f 218 12 4
f 218 4 216
f 219 17 12
f 219 12 218
f 220 221 22
f 220 22 22
f 17 219 220
f 17 220 220
f 22 17 220
f 22 220 220
f 222 216 217
f 222 217 223
f 224 218 216
f 224 216 222
f 225 219 218
f 225 218 218
f 224 226 225
f 224 225 225
f 218 224 225
f 218 225 225
f 227 221 220
f 227 220 228
f 228 220 219
f 228 219 225
f 229 222 223
f 229 223 230
f 231 224 222
f 231 222 229
f 232 229 230
f 232 230 233
f 234 231 229
f 234 229 229
f 232 235 234
f 232 234 234
f 229 232 234
f 229 234 234
f 236 237 231
f 236 231 234
f 236 234 235
f 236 235 235
f 238 232 233
f 238 233 239
f 240 235 232
f 240 232 232
f 238 241 240
f 238 240 240
f 232 238 240
f 232 240 240
f 242 238 239
f 242 239 243
f 244 242 243
f 244 243 243
f 245 246 244
f 245 244 244
f 243 245 244
f 243 244 244
f 247 248 242
f 247 242 244
f 249 247 244
f 249 244 246
f 250 246 245
f 250 245 245
f 251 252 250
f 251 250 250
f 245 251 250
f 245 250 250
f 253 249 246
f 253 246 250
f 254 252 251
f 254 251 251
f 255 256 254
f 255 254 254
f 251 255 254
f 251 254 254
f 257 256 255
f 257 255 255
f 258 259 257
f 258 257 257
f 255 258 257
f 255 257 257
f 260 259 258
f 260 258 258
f 261 262 260
f 261 260 260
f 258 261 260
f 258 260 260
f 263 262 261
f 263 261 261
f 264 265 263
f 264 263 263
f 261 264 263
f 261 263 263
f 266 265 264
f 266 264 264
f 267 268 266
f 267 266 266
f 264 267 266
f 264 266 266
f 269 268 267
f 269 267 267
f 270 271 269
f 270 269 269
f 267 270 269
f 267 269 269
f 272 271 270
f 272 270 270
f 273 274 272
f 273 272 272
f 270 273 272
f 270 272 272
f 275 274 273
f 275 273 273
f 276 277 275
f 276 275 275
f 273 276 275
f 273 275 275
f 278 277 276
f 278 276 276
f 279 280 278
f 279 278 278
f 276 279 278
f 276 278 278
f 281 280 279
f 281 279 279
f 282 283 281
f 282 281 281
f 279 282 281
f 279 281 281
f 284 283 282
f 284 282 282
f 285 286 284
f 285 284 284
f 282 285 284
f 282 284 284
f 287 286 285
f 287 285 285
f 288 289 287
f 288 287 287
f 285 288 287
f 285 287 287
f 290 289 288
f 290 288 288
f 291 292 290
f 291 290 290
f 288 291 290
f 288 290 290
f 293 292 291
f 293 291 291
f 294 295 293
f 294 293 293
f 291 294 293
f 291 293 293
f 296 295 294
f 296 294 294
f 297 298 296
f 297 296 296
f 294 297 296
f 294 296 296
f 299 298 297
f 299 297 297
f 300 301 299
f 300 299 299
f 297 300 299
f 297 299 299
f 302 301 300
f 302 300 300
f 303 304 302
f 303 302 302
f 300 303 302
f 300 302 302
f 305 304 303
f 305 303 303
f 306 307 305
f 306 305 305
f 303 306 305
f 303 305 305
f 308 307 306
f 308 306 306
f 309 310 308
f 309 308 308
f 306 309 308
f 306 308 308
f 311 310 309
f 311 309 309
f 312 313 311
f 312 311 311
f 309 312 311
f 309 311 311
f 314 313 312
f 314 312 312
f 315 316 314
f 315 314 314
f 312 315 314
f 312 314 314
f 317 316 315
f 317 315 315
f 318 319 317
f 318 317 317
f 315 318 317
f 315 317 317
f 320 319 318
f 320 318 318
f 321 322 320
f 321 320 320
f 318 321 320
f 318 320 320
f 323 322 321
f 323 321 321
f 324 325 323
f 324 323 323
f 321 324 323
f 321 323 323
f 326 325 324
f 326 324 324
f 327 328 326
f 327 326 326
f 324 327 326
f 324 326 326
f 325 326 329
f 325 329 329
f 330 329 326
f 330 326 328
f 331 328 327
f 331 327 327
f 332 333 331
f 332 331 331
f 327 332 331
f 327 331 331
f 334 335 336
f 334 336 337
f 336 330 328
f 336 328 331
f 337 336 331
f 337 331 333
f 338 333 332
f 338 332 339
f 340 334 337
f 340 337 337
f 337 333 338
f 337 338 338
f 338 341 340
f 338 340 340
f 340 337 338
f 340 338 338
f 342 343 340
f 342 340 341
f 344 338 339
f 344 339 345
f 346 341 338
f 346 338 344
f 347 344 345
f 347 345 348
f 349 346 344
f 349 344 347
f 350 351 346
f 350 346 349
f 352 347 348
f 352 348 353
f 354 349 347
f 354 347 352
f 355 350 349
f 355 349 354
f 242 248 238
f 242 238 238
f 252 356 250
f 252 250 250
f 254 357 252
f 254 252 252
f 257 358 256
f 257 256 256
f 259 260 359
f 259 359 360
f 260 262 361
f 260 361 359
f 257 259 360
f 257 360 362
f 256 363 254
f 256 254 254
f 364 361 262
f 364 262 262
f 263 265 365
f 263 365 366
f 265 266 367
f 265 367 365
f 364 263 366
f 364 366 366
f 364 262 263
f 364 263 263
f 358 257 362
f 358 362 362
f 268 269 368
f 268 368 369
f 271 272 370
f 271 370 371
f 272 274 372
f 272 372 373
f 269 271 371
f 269 371 368
f 275 277 374
f 275 374 375
f 277 278 376
f 277 376 374
f 278 280 377
f 278 377 376
f 274 275 375
f 274 375 372
f 369 367 266
f 369 266 268
f 281 283 378
f 281 378 379
f 283 284 380
f 283 380 378
f 284 286 381
f 284 381 380
f 272 373 370
f 272 370 370
f 280 281 382
f 280 382 377
f 237 224 231
f 237 231 231
f 236 383 237
f 236 237 237
f 236 235 384
f 236 384 384
f 384 385 236
f 384 236 236
f 226 224 237
f 226 237 237
f 386 235 240
f 386 240 240
f 386 240 387
f 386 387 387
f 241 387 240
f 241 240 240
f 388 387 241
f 388 241 241
f 384 235 386
f 384 386 386
f 389 228 225
f 389 225 225
f 390 227 389
f 390 389 389
f 228 389 227
f 228 227 227
f 389 225 226
f 389 226 226
f 383 391 237
f 383 237 237
f 392 226 391
f 392 391 391
f 391 226 237
f 391 237 237
f 389 226 392
f 389 392 392
f 236 385 383
f 236 383 383
f 358 363 256
f 358 256 256
f 363 357 254
f 363 254 254
f 379 382 281
f 379 281 281
f 393 247 394
f 393 394 394
f 395 394 247
f 395 247 247
f 388 241 396
f 388 396 396
f 393 396 248
f 393 248 248
f 393 248 247
f 393 247 247
f 253 397 249
f 253 249 249
f 356 252 357
f 356 357 357
f 356 253 250
f 356 250 250
f 249 397 395
f 249 395 395
f 253 356 397
f 253 397 397
f 247 249 395
f 247 395 395
f 396 241 238
f 396 238 238
f 238 248 396
f 238 396 396
f 398 381 286
f 398 286 287
f 289 290 399
f 289 399 400
f 287 289 400
f 287 400 398
f 290 292 401
f 290 401 402
f 292 293 403
f 292 403 401
f 295 296 404
f 295 404 405
f 296 298 406
f 296 406 404
f 293 295 405
f 293 405 403
f 298 299 407
f 298 407 406
f 290 402 399
f 290 399 399
f 407 299 408
f 407 408 408
f 301 302 409
f 301 409 410
f 411 412 304
f 411 304 305
f 302 304 412
f 302 412 409
f 307 308 413
f 307 413 414
f 310 311 415
f 310 415 416
f 311 313 417
f 311 417 415
f 308 310 416
f 308 416 418
f 305 307 414
f 305 414 411
f 408 301 410
f 408 410 410
f 313 314 419
f 313 419 417
f 314 316 420
f 314 420 419
f 316 317 421
f 316 421 420
f 317 319 422
f 317 422 423
f 320 322 424
f 320 424 425
f 323 424 322
f 323 322 322
f 319 320 425
f 319 425 422
f 325 426 323
f 325 323 323
f 299 301 408
f 299 408 408
f 308 418 413
f 308 413 413
f 427 424 323
f 427 323 323
f 428 329 330
f 428 330 330
f 325 329 429
f 325 429 429
f 429 426 325
f 429 325 325
f 329 428 429
f 329 429 429
f 428 330 430
f 428 430 430
f 323 426 427
f 323 427 427
f 423 421 317
f 423 317 317
f 335 430 336
f 335 336 336
f 330 336 430
f 330 430 430
f 431 335 334
f 431 334 334
f 432 431 334
f 432 334 334
f 430 335 431
f 430 431 431
f 432 340 343
f 432 343 343
f 346 342 341
f 346 341 341
f 433 432 343
f 433 343 343
f 334 340 432
f 334 432 432
f 434 433 342
f 434 342 342
f 343 342 433
f 343 433 433
f 342 435 434
f 342 434 434
f 435 351 436
f 435 436 436
f 351 435 342
f 351 342 342
f 351 350 437
f 351 437 438
f 346 351 342
f 346 342 342
f 355 439 437
f 355 437 350
f 436 351 438
f 436 438 438
f 440 441 215
f 440 215 214
f 442 443 441
f 442 441 440
f 444 445 443
f 444 443 442
f 352 353 445
f 352 445 444
f 446 440 214
f 446 214 213
f 447 442 440
f 447 440 446
f 448 444 442
f 448 442 447
f 354 352 444
f 354 444 448
f 449 446 213
f 449 213 211
f 450 447 446
f 450 446 449
f 451 448 447
f 451 447 450
f 355 354 448
f 355 448 451
f 452 449 211
f 452 211 212
f 453 450 449
f 453 449 452
f 454 451 450
f 454 450 453
f 439 355 451
f 439 451 454
f 455 8 10
f 455 10 30
f 456 6 8
f 456 8 455
f 457 2 6
f 457 6 456
f 217 3 2
f 217 2 457
f 458 455 30
f 458 30 35
f 459 456 455
f 459 455 458
f 460 457 456
f 460 456 459
f 223 217 457
f 223 457 460
f 461 458 35
f 461 35 40
f 462 459 458
f 462 458 461
f 463 460 459
f 463 459 462
f 230 223 460
f 230 460 463
f 464 461 40
f 464 40 45
f 465 462 461
f 465 461 464
f 466 463 462
f 466 462 465
f 233 230 463
f 233 463 466
f 467 464 45
f 467 45 50
f 468 465 464
f 468 464 467
f 469 466 465
f 469 465 468
f 239 233 466
f 239 466 469
f 470 467 50
f 470 50 55
f 471 468 467
f 471 467 470
f 472 469 468
f 472 468 471
f 243 239 469
f 243 469 472
f 473 470 55
f 473 55 60
f 474 471 470
f 474 470 473
f 475 472 471
f 475 471 474
f 245 243 472
f 245 472 475
f 476 473 60
f 476 60 65
f 477 474 473
f 477 473 476
f 478 475 474
f 478 474 477
f 251 245 475
f 251 475 478
f 479 476 65
f 479 65 70
f 480 477 476
f 480 476 479
f 481 478 477
f 481 477 480
f 255 251 478
f 255 478 481
f 482 479 70
f 482 70 75
f 483 480 479
f 483 479 482
f 484 481 480
f 484 480 483
f 258 255 481
f 258 481 484
f 485 482 75
f 485 75 80
f 486 483 482
f 486 482 485
f 487 484 483
f 487 483 486
f 261 258 484
f 261 484 487
f 488 485 80
f 488 80 85
f 489 486 485
f 489 485 488
f 490 487 486
f 490 486 489
f 264 261 487
f 264 487 490
f 491 488 85
f 491 85 90
f 492 489 488
f 492 488 491
f 493 490 489
f 493 489 492
f 267 264 490
f 267 490 493
f 494 491 90
f 494 90 95
f 495 492 491
f 495 491 494
f 496 493 492
f 496 492 495
f 270 267 493
f 270 493 496
f 497 494 95
f 497 95 100
f 498 495 494
f 498 494 497
f 499 496 495
f 499 495 498
f 273 270 496
f 273 496 499
f 500 497 100
f 500 100 105
f 501 498 497
f 501 497 500
f 502 499 498
f 502 498 501
f 276 273 499
f 276 499 502
f 503 500 105
f 503 105 110
f 504 501 500
f 504 500 503
f 505 502 501
f 505 501 504
f 279 276 502
f 279 502 505
f 506 503 110
f 506 110 115
f 507 504 503
f 507 503 506
f 508 505 504
f 508 504 507
f 282 279 505
f 282 505 508
f 509 506 115
f 509 115 120
f 510 507 506
f 510 506 509
f 511 508 507
f 511 507 510
f 285 282 508
f 285 508 511
f 512 509 120
f 512 120 125
f 513 510 509
f 513 509 512
f 514 511 510
f 514 510 513
f 288 285 511
f 288 511 514
f 515 512 125
f 515 125 130
f 516 513 512
f 516 512 515
f 517 514 513
f 517 513 516
f 291 288 514
f 291 514 517
f 518 515 130
f 518 130 135
f 519 516 515
f 519 515 518
f 520 517 516
f 520 516 519
f 294 291 517
f 294 517 520
f 521 518 135
f 521 135 140
f 522 519 518
f 522 518 521
f 523 520 519
f 523 519 522
f 297 294 520
f 297 520 523
f 524 521 140
f 524 140 145
f 525 522 521
f 525 521 524
f 526 523 522
f 526 522 525
f 300 297 523
f 300 523 526
f 527 524 145
f 527 145 150
f 528 525 524
f 528 524 527
f 529 526 525
f 529 525 528
f 303 300 526
f 303 526 529
f 530 527 150
f 530 150 155
f 531 528 527
f 531 527 530
f 532 529 528
f 532 528 531
f 306 303 529
f 306 529 532
f 533 530 155
f 533 155 160
f 534 531 530
f 534 530 533
f 535 532 531
f 535 531 534
f 309 306 532
f 309 532 535
f 536 533 160
f 536 160 165
f 537 534 533
f 537 533 536
f 538 535 534
f 538 534 537
f 312 309 535
f 312 535 538
f 539 536 165
f 539 165 170
f 540 537 536
f 540 536 539
f 541 538 537
f 541 537 540
f 315 312 538
f 315 538 541
f 542 539 170
f 542 170 175
f 543 540 539
f 543 539 542
f 544 541 540
f 544 540 543
f 318 315 541
f 318 541 544
f 545 542 175
f 545 175 180
f 546 543 542
f 546 542 545
f 547 544 543
f 547 543 546
f 321 318 544
f 321 544 547
f 548 545 180
f 548 180 185
f 549 546 545
f 549 545 548
f 550 547 546
f 550 546 549
f 324 321 547
f 324 547 550
f 551 548 185
f 551 185 190
f 552 549 548
f 552 548 551
f 553 550 549
f 553 549 552
f 327 324 550
f 327 550 553
f 554 551 190
f 554 190 195
f 555 552 551
f 555 551 554
f 556 553 552
f 556 552 555
f 332 327 553
f 332 553 556
f 557 554 195
f 557 195 200
f 558 555 554
f 558 554 557
f 559 556 555
f 559 555 558
f 339 332 556
f 339 556 559
f 560 557 200
f 560 200 205
f 561 558 557
f 561 557 560
f 562 559 558
f 562 558 561
f 345 339 559
f 345 559 562
f 563 560 205
f 563 205 210
f 564 561 560
f 564 560 563
f 565 562 561
f 565 561 564
f 348 345 562
f 348 562 565
f 441 563 210
f 441 210 215
f 443 564 563
f 443 563 441
f 445 565 564
f 445 564 443
f 353 348 565
f 353 565 445
f 568 567 566
f 569 568 566
f 567 571 570
f 566 567 570
f 571 573 572
f 570 571 572
f 573 575 574
f 572 573 574
f 569 566 576
f 577 569 576
f 566 570 578
f 576 566 578
f 570 572 579
f 578 570 579
f 572 574 580
f 579 572 580
f 577 576 581
f 582 577 581
f 576 578 583
f 581 576 583
f 578 579 584
f 583 578 584
f 579 580 585
f 584 579 585
f 582 581 21
f 22 582 21
f 581 583 23
f 21 581 23
f 583 584 24
f 23 583 24
f 584 585 25
f 24 584 25
f 25 585 586
f 27 25 586
f 585 580 587
f 586 585 587
f 580 574 588
f 587 580 588
f 574 575 589
f 588 574 589
f 27 586 590
f 32 27 590
f 586 587 591
f 590 586 591
f 587 588 592
f 591 587 592
f 588 589 593
f 592 588 593
f 32 590 594
f 37 32 594
f 590 591 595
f 594 590 595
f 591 592 596
f 595 591 596
f 592 593 597
f 596 592 597
f 37 594 598
f 42 37 598
f 594 595 599
f 598 594 599
f 595 596 600
f 599 595 600
f 596 597 601
f 600 596 601
f 42 598 602
f 47 42 602
f 598 599 603
f 602 598 603
f 599 600 604
f 603 599 604
f 600 601 605
f 604 600 605
f 47 602 606
f 52 47 606
f 602 603 607
f 606 602 607
f 603 604 608
f 607 603 608
f 604 605 609
f 608 604 609
f 52 606 610
f 57 52 610
f 606 607 611
f 610 606 611
f 607 608 612
f 611 607 612
f 608 609 613
f 612 608 613
f 57 610 614
f 62 57 614
f 610 611 615
f 614 610 615
f 611 612 616
f 615 611 616
f 612 613 617
f 616 612 617
f 62 614 618
f 67 62 618
f 614 615 619
f 618 614 619
f 615 616 620
f 619 615 620
f 616 617 621
f 620 616 621
f 67 618 622
f 72 67 622
f 618 619 623
f 622 618 623
f 619 620 624
f 623 619 624
f 620 621 625
f 624 620 625
f 72 622 626
f 77 72 626
f 622 623 627
f 626 622 627
f 623 624 628
f 627 623 628
f 624 625 629
f 628 624 629
f 77 626 630
f 82 77 630
f 626 627 631
f 630 626 631
f 627 628 632
f 631 627 632
f 628 629 633
f 632 628 633
f 82 630 634
f 87 82 634
f 630 631 635
f 634 630 635
f 631 632 636
f 635 631 636
f 632 633 637
f 636 632 637
f 87 634 638
f 92 87 638
f 634 635 639
f 638 634 639
f 635 636 640
f 639 635 640
f 636 637 641
f 640 636 641
f 92 638 642
f 97 92 642
f 638 639 643
f 642 638 643
f 639 640 644
f 643 639 644
f 640 641 645
f 644 640 645
f 97 642 646
f 102 97 646
f 642 643 647
f 646 642 647
f 643 644 648
f 647 643 648
f 644 645 649
f 648 644 649
f 102 646 650
f 107 102 650
f 646 647 651
f 650 646 651
f 647 648 652
f 651 647 652
f 648 649 653
f 652 648 653
f 107 650 654
f 112 107 654
f 650 651 655
f 654 650 655
f 651 652 656
f 655 651 656
f 652 653 657
f 656 652 657
f 112 654 658
f 117 112 658
f 654 655 659
f 658 654 659
f 655 656 660
f 659 655 660
f 656 657 661
f 660 656 661
f 117 658 662
f 122 117 662
f 658 659 663
f 662 658 663
f 659 660 664
f 663 659 664
f 660 661 665
f 664 660 665
f 122 662 666
f 127 122 666
f 662 663 667
f 666 662 667
f 663 664 668
f 667 663 668
f 664 665 669
f 668 664 669
f 127 666 670
f 132 127 670
f 666 667 671
f 670 666 671
f 667 668 672
f 671 667 672
f 668 669 673
f 672 668 673
f 132 670 674
f 137 132 674
f 670 671 675
f 674 670 675
f 671 672 676
f 675 671 676
f 672 673 677
f 676 672 677
f 137 674 678
f 142 137 678
f 674 675 679
f 678 674 679
f 675 676 680
f 679 675 680
f 676 677 681
f 680 676 681
f 142 678 682
f 147 142 682
f 678 679 683
f 682 678 683
f 679 680 684
f 683 679 684
f 680 681 685
f 684 680 685
f 147 682 686
f 152 147 686
f 682 683 687
f 686 682 687
f 683 684 688
f 687 683 688
f 684 685 689
f 688 684 689
f 152 686 690
f 157 152 690
f 686 687 691
f 690 686 691
f 687 688 692
f 691 687 692
f 688 689 693
f 692 688 693
f 157 690 694
f 162 157 694
f 690 691 695
f 694 690 695
f 691 692 696
f 695 691 696
f 692 693 697
f 696 692 697
f 162 694 698
f 167 162 698
f 694 695 699
f 698 694 699
f 695 696 700
f 699 695 700
f 696 697 701
f 700 696 701
f 167 698 702
f 172 167 702
f 698 699 703
f 702 698 703
f 699 700 704
f 703 699 704
f 700 701 705
f 704 700 705
f 172 702 706
f 177 172 706
f 702 703 707
f 706 702 707
f 703 704 708
f 707 703 708
f 704 705 709
f 708 704 709
f 177 706 710
f 182 177 710
f 706 707 711
f 710 706 711
f 707 708 712
f 711 707 712
f 708 709 713
f 712 708 713
f 182 710 714
f 187 182 714
f 710 711 715
f 714 710 715
f 711 712 716
f 715 711 716
f 712 713 717
f 716 712 717
f 187 714 718
f 192 187 718
f 714 715 719
f 718 714 719
f 715 716 720
f 719 715 720
f 716 717 721
f 720 716 721
f 192 718 722
f 197 192 722
f 718 719 723
f 722 718 723
f 719 720 724
f 723 719 724
f 720 721 725
f 724 720 725
f 197 722 726
f 202 197 726
f 722 723 727
f 726 722 727
f 723 724 728
f 727 723 728
f 724 725 729
f 728 724 729
f 202 726 730
f 207 202 730
f 726 727 731
f 730 726 731
f 727 728 732
f 731 727 732
f 728 729 733
f 732 728 733
f 207 730 734
f 212 207 734
f 730 731 735
f 734 730 735
f 731 732 736
f 735 731 736
f 732 733 737
f 736 732 737
f 568 569 738
f 739 568 738
f 569 577 740
f 738 569 740
f 577 582 741
f 740 577 741
f 22 221 742
f 22 22 742
f 742 741 582
f 742 742 582
f 742 582 22
f 742 742 22
f 739 738 743
f 744 739 743
f 738 740 745
f 743 738 745
f 740 741 746
f 740 740 746
f 746 747 745
f 746 746 745
f 746 745 740
f 746 746 740
f 742 221 227
f 748 742 227
f 741 742 748
f 746 741 748
f 744 743 749
f 750 744 749
f 743 745 751
f 749 743 751
f 750 749 752
f 753 750 752
f 749 751 754
f 749 749 754
f 754 755 752
f 754 754 752
f 754 752 749
f 754 754 749
f 751 757 756
f 754 751 756
f 755 754 756
f 755 755 756
f 753 752 758
f 759 753 758
f 752 755 760
f 752 752 760
f 760 761 758
f 760 760 758
f 760 758 752
f 760 760 752
f 759 758 762
f 763 759 762
f 763 762 764
f 763 763 764
f 764 766 765
f 764 764 765
f 764 765 763
f 764 764 763
f 762 768 767
f 764 762 767
f 764 767 769
f 766 764 769
f 765 766 770
f 765 765 770
f 770 772 771
f 770 770 771
f 770 771 765
f 770 770 765
f 766 769 773
f 770 766 773
f 771 772 774
f 771 771 774
f 774 776 775
f 774 774 775
f 774 775 771
f 774 774 771
f 775 776 777
f 775 775 777
f 777 779 778
f 777 777 778
f 777 778 775
f 777 777 775
f 778 779 780
f 778 778 780
f 780 782 781
f 780 780 781
f 780 781 778
f 780 780 778
f 781 782 783
f 781 781 783
f 783 785 784
f 783 783 784
f 783 784 781
f 783 783 781
f 784 785 786
f 784 784 786
f 786 788 787
f 786 786 787
f 786 787 784
f 786 786 784
f 787 788 789
f 787 787 789
f 789 791 790
f 789 789 790
f 789 790 787
f 789 789 787
f 790 791 792
f 790 790 792
f 792 794 793
f 792 792 793
f 792 793 790
f 792 792 790
f 793 794 795
f 793 793 795
f 795 797 796
f 795 795 796
f 795 796 793
f 795 795 793
f 796 797 798
f 796 796 798
f 798 800 799
f 798 798 799
f 798 799 796
f 798 798 796
f 799 800 801
f 799 799 801
f 801 803 802
f 801 801 802
f 801 802 799
f 801 801 799
f 802 803 804
f 802 802 804
f 804 806 805
f 804 804 805
f 804 805 802
f 804 804 802
f 805 806 807
f 805 805 807
f 807 809 808
f 807 807 808
f 807 808 805
f 807 807 805
f 808 809 810
f 808 808 810
f 810 812 811
f 810 810 811
f 810 811 808
f 810 810 808
f 811 812 813
f 811 811 813
f 813 815 814
f 813 813 814
f 813 814 811
f 813 813 811
f 814 815 816
f 814 814 816
f 816 818 817
f 816 816 817
f 816 817 814
f 816 816 814
f 817 818 819
f 817 817 819
f 819 821 820
f 819 819 820
f 819 820 817
f 819 819 817
f 820 821 822
f 820 820 822
f 822 824 823
f 822 822 823
f 822 823 820
f 822 822 820
f 823 824 825
f 823 823 825
f 825 827 826
f 825 825 826
f 825 826 823
f 825 825 823
f 826 827 828
f 826 826 828
f 828 830 829
f 828 828 829
f 828 829 826
f 828 828 826
f 829 830 831
f 829 829 831
f 831 833 832
f 831 831 832
f 831 832 829
f 831 831 829
f 832 833 834
f 832 832 834
f 834 836 835
f 834 834 835
f 834 835 832
f 834 834 832
f 835 836 837
f 835 835 837
f 837 839 838
f 837 837 838
f 837 838 835
f 837 837 835
f 838 839 840
f 838 838 840
f 840 842 841
f 840 840 841
f 840 841 838
f 840 840 838
f 841 842 843
f 841 841 843
f 843 845 844
f 843 843 844
f 843 844 841
f 843 843 841
f 844 845 846
f 844 844 846
f 846 848 847
f 846 846 847
f 846 847 844
f 846 846 844
f 849 846 845
f 849 849 845
f 846 849 850
f 848 846 850
f 847 848 851
f 847 847 851
f 851 853 852
f 851 851 852
f 851 852 847
f 851 851 847
f 856 855 854
f 857 856 854
f 848 850 856
f 851 848 856
f 851 856 857
f 853 851 857
f 852 853 858
f 859 852 858
f 857 854 860
f 857 857 860
f 858 853 857
f 858 858 857
f 860 861 858
f 860 860 858
f 858 857 860
f 858 858 860
f 860 863 862
f 861 860 862
f 859 858 864
f 865 859 864
f 858 861 866
f 864 858 866
f 865 864 867
f 868 865 867
f 864 866 869
f 867 864 869
f 866 871 870
f 869 866 870
f 868 867 872
f 873 868 872
f 867 869 874
f 872 867 874
f 869 870 875
f 874 869 875
f 758 768 762
f 758 758 762
f 770 876 772
f 770 770 772
f 772 877 774
f 772 772 774
f 776 878 777
f 776 776 777
f 879 780 779
f 880 879 779
f 881 782 780
f 879 881 780
f 880 779 777
f 882 880 777
f 774 883 776
f 774 774 776
f 782 881 884
f 782 782 884
f 885 785 783
f 886 885 783
f 887 786 785
f 885 887 785
f 886 783 884
f 886 886 884
f 783 782 884
f 783 783 884
f 882 777 878
f 882 882 878
f 888 789 788
f 889 888 788
f 890 792 791
f 891 890 791
f 892 794 792
f 893 892 792
f 891 791 789
f 888 891 789
f 894 797 795
f 895 894 795
f 896 798 797
f 894 896 797
f 897 800 798
f 896 897 798
f 895 795 794
f 892 895 794
f 786 887 889
f 788 786 889
f 898 803 801
f 899 898 801
f 900 804 803
f 898 900 803
f 901 806 804
f 900 901 804
f 890 893 792
f 890 890 792
f 902 801 800
f 897 902 800
f 751 745 757
f 751 751 757
f 757 903 756
f 757 757 756
f 904 755 756
f 904 904 756
f 756 905 904
f 756 756 904
f 757 745 747
f 757 757 747
f 760 755 906
f 760 760 906
f 907 760 906
f 907 907 906
f 760 907 761
f 760 760 761
f 761 907 908
f 761 761 908
f 906 755 904
f 906 906 904
f 746 748 909
f 746 746 909
f 909 227 390
f 909 909 390
f 227 909 748
f 227 227 748
f 747 746 909
f 747 747 909
f 757 910 903
f 757 757 903
f 910 747 911
f 910 910 911
f 757 747 910
f 757 757 910
f 911 747 909
f 911 911 909
f 903 905 756
f 903 903 756
f 776 883 878
f 776 776 878
f 774 877 883
f 774 774 883
f 801 902 899
f 801 801 899
f 913 767 912
f 913 913 912
f 767 913 914
f 767 767 914
f 915 761 908
f 915 915 908
f 768 915 912
f 768 768 912
f 767 768 912
f 767 767 912
f 769 916 773
f 769 769 773
f 877 772 876
f 877 877 876
f 770 773 876
f 770 770 876
f 914 916 769
f 914 914 769
f 916 876 773
f 916 916 773
f 914 769 767
f 914 914 767
f 758 761 915
f 758 758 915
f 915 768 758
f 915 915 758
f 806 901 917
f 807 806 917
f 918 810 809
f 919 918 809
f 919 809 807
f 917 919 807
f 920 812 810
f 921 920 810
f 922 813 812
f 920 922 812
f 923 816 815
f 924 923 815
f 925 818 816
f 923 925 816
f 924 815 813
f 922 924 813
f 926 819 818
f 925 926 818
f 918 921 810
f 918 918 810
f 927 819 926
f 927 927 926
f 928 822 821
f 929 928 821
f 824 931 930
f 825 824 930
f 931 824 822
f 928 931 822
f 932 828 827
f 933 932 827
f 934 831 830
f 935 934 830
f 936 833 831
f 934 936 831
f 935 830 828
f 937 935 828
f 933 827 825
f 930 933 825
f 929 821 927
f 929 929 927
f 938 834 833
f 936 938 833
f 939 836 834
f 938 939 834
f 940 837 836
f 939 940 836
f 941 839 837
f 942 941 837
f 943 842 840
f 944 943 840
f 842 943 843
f 842 842 843
f 944 840 839
f 941 944 839
f 843 945 845
f 843 843 845
f 927 821 819
f 927 927 819
f 932 937 828
f 932 932 828
f 843 943 946
f 843 843 946
f 850 849 947
f 850 850 947
f 948 849 845
f 948 948 845
f 845 945 948
f 845 845 948
f 948 947 849
f 948 948 849
f 949 850 947
f 949 949 947
f 946 945 843
f 946 946 843
f 837 940 942
f 837 837 942
f 856 949 855
f 856 856 855
f 949 856 850
f 949 949 850
f 854 855 950
f 854 854 950
f 854 950 951
f 854 854 951
f 950 855 949
f 950 950 949
f 863 860 951
f 863 863 951
f 861 862 866
f 861 861 866
f 863 951 952
f 863 863 952
f 951 860 854
f 951 951 854
f 862 952 953
f 862 862 953
f 952 862 863
f 952 952 863
f 953 954 862
f 953 953 862
f 955 871 954
f 955 955 954
f 862 954 871
f 862 862 871
f 437 870 871
f 438 437 871
f 862 871 866
f 862 862 866
f 437 439 875
f 870 437 875
f 438 871 955
f 438 438 955
f 737 957 956
f 736 737 956
f 957 959 958
f 956 957 958
f 959 961 960
f 958 959 960
f 961 873 872
f 960 961 872
f 736 956 962
f 735 736 962
f 956 958 963
f 962 956 963
f 958 960 964
f 963 958 964
f 960 872 874
f 964 960 874
f 735 962 965
f 734 735 965
f 962 963 966
f 965 962 966
f 963 964 967
f 966 963 967
f 964 874 875
f 967 964 875
f 734 965 452
f 212 734 452
f 965 966 453
f 452 965 453
f 966 967 454
f 453 966 454
f 967 875 439
f 454 967 439
f 575 573 968
f 589 575 968
f 573 571 969
f 968 573 969
f 571 567 970
f 969 571 970
f 567 568 739
f 970 567 739
f 589 968 971
f 593 589 971
f 968 969 972
f 971 968 972
f 969 970 973
f 972 969 973
f 970 739 744
f 973 970 744
f 593 971 974
f 597 593 974
f 971 972 975
f 974 971 975
f 972 973 976
f 975 972 976
f 973 744 750
f 976 973 750
f 597 974 977
f 601 597 977
f 974 975 978
f 977 974 978
f 975 976 979
f 978 975 979
f 976 750 753
f 979 976 753
f 601 977 980
f 605 601 980
f 977 978 981
f 980 977 981
f 978 979 982
f 981 978 982
f 979 753 759
f 982 979 759
f 605 980 983
f 609 605 983
f 980 981 984
f 983 980 984
f 981 982 985
f 984 981 985
f 982 759 763
f 985 982 763
f 609 983 986
f 613 609 986
f 983 984 987
f 986 983 987
f 984 985 988
f 987 984 988
f 985 763 765
f 988 985 765
f 613 986 989
f 617 613 989
f 986 987 990
f 989 986 990
f 987 988 991
f 990 987 991
f 988 765 771
f 991 988 771
f 617 989 992
f 621 617 992
f 989 990 993
f 992 989 993
f 990 991 994
f 993 990 994
f 991 771 775
f 994 991 775
f 621 992 995
f 625 621 995
f 992 993 996
f 995 992 996
f 993 994 997
f 996 993 997
f 994 775 778
f 997 994 778
f 625 995 998
f 629 625 998
f 995 996 999
f 998 995 999
f 996 997 1000
f 999 996 1000
f 997 778 781
f 1000 997 781
f 629 998 1001
f 633 629 1001
f 998 999 1002
f 1001 998 1002
f 999 1000 1003
f 1002 999 1003
f 1000 781 784
f 1003 1000 784
f 633 1001 1004
f 637 633 1004
f 1001 1002 1005
f 1004 1001 1005
f 1002 1003 1006
f 1005 1002 1006
f 1003 784 787
f 1006 1003 787
f 637 1004 1007
f 641 637 1007
f 1004 1005 1008
f 1007 1004 1008
f 1005 1006 1009
f 1008 1005 1009
f 1006 787 790
f 1009 1006 790
f 641 1007 1010
f 645 641 1010
f 1007 1008 1011
f 1010 1007 1011
f 1008 1009 1012
f 1011 1008 1012
f 1009 790 793
f 1012 1009 793
f 645 1010 1013
f 649 645 1013
f 1010 1011 1014
f 1013 1010 1014
f 1011 1012 1015
f 1014 1011 1015
f 1012 793 796
f 1015 1012 796
f 649 1013 1016
f 653 649 1016
f 1013 1014 1017
f 1016 1013 1017
f 1014 1015 1018
f 1017 1014 1018
f 1015 796 799
f 1018 1015 799
f 653 1016 1019
f 657 653 1019
f 1016 1017 1020
f 1019 1016 1020
f 1017 1018 1021
f 1020 1017 1021
f 1018 799 802
f 1021 1018 802
f 657 1019 1022
f 661 657 1022
f 1019 1020 1023
f 1022 1019 1023
f 1020 1021 1024
f 1023 1020 1024
f 1021 802 805
f 1024 1021 805
f 661 1022 1025
f 665 661 1025
f 1022 1023 1026
f 1025 1022 1026
f 1023 1024 1027
f 1026 1023 1027
f 1024 805 808
f 1027 1024 808
f 665 1025 1028
f 669 665 1028
f 1025 1026 1029
f 1028 1025 1029
f 1026 1027 1030
f 1029 1026 1030
f 1027 808 811
f 1030 1027 811
f 669 1028 1031
f 673 669 1031
f 1028 1029 1032
f 1031 1028 1032
f 1029 1030 1033
f 1032 1029 1033
f 1030 811 814
f 1033 1030 814
f 673 1031 1034
f 677 673 1034
f 1031 1032 1035
f 1034 1031 1035
f 1032 1033 1036
f 1035 1032 1036
f 1033 814 817
f 1036 1033 817
f 677 1034 1037
f 681 677 1037
f 1034 1035 1038
f 1037 1034 1038
f 1035 1036 1039
f 1038 1035 1039
f 1036 817 820
f 1039 1036 820
f 681 1037 1040
f 685 681 1040
f 1037 1038 1041
f 1040 1037 1041
f 1038 1039 1042
f 1041 1038 1042
f 1039 820 823
f 1042 1039 823
f 685 1040 1043
f 689 685 1043
f 1040 1041 1044
f 1043 1040 1044
f 1041 1042 1045
f 1044 1041 1045
f 1042 823 826
f 1045 1042 826
f 689 1043 1046
f 693 689 1046
f 1043 1044 1047
f 1046 1043 1047
f 1044 1045 1048
f 1047 1044 1048
f 1045 826 829
f 1048 1045 829
f 693 1046 1049
f 697 693 1049
f 1046 1047 1050
f 1049 1046 1050
f 1047 1048 1051
f 1050 1047 1051
f 1048 829 832
f 1051 1048 832
f 697 1049 1052
f 701 697 1052
f 1049 1050 1053
f 1052 1049 1053
f 1050 1051 1054
f 1053 1050 1054
f 1051 832 835
f 1054 1051 835
f 701 1052 1055
f 705 701 1055
f 1052 1053 1056
f 1055 1052 1056
f 1053 1054 1057
f 1056 1053 1057
f 1054 835 838
f 1057 1054 838
f 705 1055 1058
f 709 705 1058
f 1055 1056 1059
f 1058 1055 1059
f 1056 1057 1060
f 1059 1056 1060
f 1057 838 841
f 1060 1057 841
f 709 1058 1061
f 713 709 1061
f 1058 1059 1062
f 1061 1058 1062
f 1059 1060 1063
f 1062 1059 1063
f 1060 841 844
f 1063 1060 844
f 713 1061 1064
f 717 713 1064
f 1061 1062 1065
f 1064 1061 1065
f 1062 1063 1066
f 1065 1062 1066
f 1063 844 847
f 1066 1063 847
f 717 1064 1067
f 721 717 1067
f 1064 1065 1068
f 1067 1064 1068
f 1065 1066 1069
f 1068 1065 1069
f 1066 847 852
f 1069 1066 852
f 721 1067 1070
f 725 721 1070
f 1067 1068 1071
f 1070 1067 1071
f 1068 1069 1072
f 1071 1068 1072
f 1069 852 859
f 1072 1069 859
f 725 1070 1073
f 729 725 1073
f 1070 1071 1074
f 1073 1070 1074
f 1071 1072 1075
f 1074 1071 1075
f 1072 859 865
f 1075 1072 865
f 729 1073 1076
f 733 729 1076
f 1073 1074 1077
f 1076 1073 1077
f 1074 1075 1078
f 1077 1074 1078
f 1075 865 868
f 1078 1075 868
f 733 1076 957
f 737 733 957
f 1076 1077 959
f 957 1076 959
f 1077 1078 961
f 959 1077 961
f 1078 868 873
f 961 1078 873
