$MeshFormat
2.2 0 8
$EndMeshFormat
$PhysicalNames
1
2 1 "Rhino->WAMIT_file_export_(mesh)"
$EndPhysicalNames
$Nodes
922
1 46.34999847 1.960000038 -6.449999809
2 46.34999847 3.150000095 -5.110000134
3 46.34999847 0 -6.659999847
4 -51.5 1.429999948 0
5 -51.5 0 0
6 -51.5 0 2.499979973
7 -51.5 1.429999948 2.499969959
8 -49.20634079 2.497950077 2.499979973
9 -49.20755005 2.50041008 0
10 -51.5 1.429999948 5
11 -49.20746994 2.500439882 5
12 -51.5 0 5
13 51.5 0 5
14 51.5 0 2.499929905
15 49.58842087 1.656829953 2.499979973
16 49.58932877 1.657889962 5
17 51.5 0 0
18 49.5892601 1.657960057 0
19 47.57960892 3.193069935 0
20 47.57978821 3.192889929 2.499959946
21 45.46940994 4.587379932 0
22 45.46899033 4.586800098 2.500020027
23 43.24979019 5.801949978 0
24 43.24874115 5.796979904 2.500070095
25 40.89986038 6.737080097 0
26 40.89875031 6.727880001 2.500050068
27 38.44799042 7.366559982 0
28 38.44937134 7.366030216 2.500010014
29 35.98154831 7.980000019 0
30 35.98503876 7.949090004 2.500129938
31 33.46332932 7.980000019 0
32 33.46360016 7.980000019 2.499910116
33 30.93324089 7.980000019 0
34 30.93308067 7.980000019 2.500040054
35 28.40306091 7.980000019 0
36 28.40304947 7.980000019 2.500040054
37 25.87289047 7.980000019 0
38 25.87291908 7.980000019 2.500020027
39 23.34280014 7.980000019 0
40 23.3427906 7.980000019 2.5
41 20.8126297 7.980000019 0
42 20.81265068 7.980000019 2.500030041
43 18.28257942 7.980000019 0
44 18.28252029 7.980000019 2.500010014
45 15.75236034 7.980000019 0
46 15.75238991 7.980000019 2.5
47 13.22224998 7.980000019 0
48 13.22226048 7.980000019 2.5
49 10.6921196 7.980000019 0
50 10.69211006 7.980000019 2.5
51 8.161979675 7.980000019 0
52 8.161990166 7.980000019 2.499989986
53 5.631840229 7.980000019 0
54 5.631849766 7.980000019 2.500010014
55 3.101710081 7.980000019 0
56 3.101730108 7.980000019 2.500010014
57 0.5715900064 7.980000019 0
58 0.5715900064 7.980000019 2.5
59 -1.958539963 7.980000019 0
60 -1.958549976 7.980000019 2.5
61 -4.488679886 7.980000019 0
62 -4.488679886 7.980000019 2.499979973
63 -7.018859863 7.980000019 0
64 -7.018809795 7.980000019 2.5
65 -9.548950195 7.980000019 0
66 -9.548939705 7.980000019 2.5
67 -12.07911968 7.980000019 0
68 -12.07907963 7.980000019 2.500020027
69 -14.60921001 7.980000019 0
70 -14.60921001 7.980000019 2.500040054
71 -17.13932037 7.980000019 0
72 -17.13935089 7.980000019 2.500010014
73 -19.66947937 7.980000019 0
74 -19.66947937 7.980000019 2.499979973
75 -22.19963074 7.980000019 0
76 -22.19960976 7.980000019 2.500020027
77 -24.72989082 7.980000019 0
78 -24.72967911 7.980000019 2.500040054
79 -27.25931931 7.980000019 0
80 -27.25956917 7.97935009 2.499989986
81 -29.78017044 7.799429893 0
82 -29.77990913 7.799139977 2.499910116
83 -32.28688812 7.455729961 0
84 -32.28686905 7.45566988 2.5
85 -34.78979874 7.086329937 0
86 -34.78987885 7.086100101 2.500089884
87 -37.27241135 6.606239796 0
88 -37.27219009 6.605999947 2.5
89 -39.73220825 6.014100075 0
90 -39.73239899 6.013929844 2.500050068
91 -42.16226959 5.316860199 0
92 -42.16202927 5.316120148 2.499969959
93 -44.53824997 4.447909832 0
94 -44.53813171 4.447700024 2.499979973
95 -46.89009094 3.515539885 0
96 -46.88973999 3.514810085 2.499989986
97 -46.89015961 3.515510082 5
98 -44.53815079 4.447949886 5
99 -42.16249084 5.316790104 5
100 -39.7321701 6.014110088 5
101 -37.27249146 6.606219769 5
102 -34.78981018 7.086329937 5
103 -32.28667831 7.455760002 5
104 -29.78017998 7.799429893 5
105 -27.25952911 7.980000019 5
106 -24.72978973 7.980000019 5
107 -22.19960022 7.980000019 5
108 -19.66949081 7.980000019 5
109 -17.13935089 7.980000019 5
110 -14.60921001 7.980000019 5
111 -12.07903957 7.980000019 5
112 -9.548939705 7.980000019 5
113 -7.018770218 7.980000019 5
114 -4.488679886 7.980000019 5
115 -1.958539963 7.980000019 5
116 0.5715900064 7.980000019 5
117 3.101720095 7.980000019 5
118 5.631869793 7.980000019 5
119 8.161990166 7.980000019 5
120 10.6921196 7.980000019 5
121 13.22224998 7.980000019 5
122 15.75240993 7.980000019 5
123 18.28248024 7.980000019 5
124 20.81267929 7.980000019 5
125 23.34277916 7.980000019 5
126 25.87294006 7.980000019 5
127 28.40304947 7.980000019 5
128 30.93337059 7.980000019 5
129 33.46339035 7.980000019 5
130 35.98694992 7.980000019 5
131 38.44802856 7.366549969 5
132 40.90142822 6.736680031 5
133 43.24991989 5.801889896 5
134 45.46952057 4.587319851 5
135 47.57965088 3.193039894 5
136 -51.5 0 -0.9700000286
137 -48.93000031 1.360000014 -1.129999995
138 -48.93000031 0 -2.420000076
139 -48.93000031 2.630000114 0
140 -46.34999847 1 -4.300000191
141 -46.34999847 0 -6.659999847
142 -46.34999847 2.269999981 -1.50999999
143 -46.34999847 3.75 0
144 -43.77999878 1.909999967 -4.570000172
145 -43.77999878 0 -6.659999847
146 -43.77999878 3.349999905 -1.879999995
147 -43.77999878 4.739999771 0
148 -41.20000076 2.789999962 -4.889999866
149 -41.20000076 0 -6.659999847
150 -41.20000076 4.309999943 -2.25999999
151 -41.20000076 5.659999847 0
152 -38.63000107 2.410000086 -6.449999809
153 -38.63000107 0 -6.659999847
154 -38.63000107 3.549999952 -5.159999847
155 -38.63000107 5.110000134 -2.529999971
156 -38.63000107 6.28000021 0
157 -36.04999924 2.029999971 -6.659999847
158 -36.04999924 0 -6.659999847
159 -36.04999924 4.309999943 -5.429999828
160 -36.04999924 5.900000095 -2.799999952
161 -36.04999924 6.900000095 0
162 -33.47999954 2.029999971 -6.659999847
163 -33.47999954 0 -6.659999847
164 -33.47999954 4.150000095 -6.659999847
165 -33.47999954 4.949999809 -5.659999847
166 -33.47999954 6.5 -3.00999999
167 -33.47999954 7.28000021 0
168 -30.89999962 2.029999971 -6.659999847
169 -30.89999962 0 -6.659999847
170 -30.89999962 3.99000001 -6.659999847
171 -30.89999962 5.579999924 -5.869999886
172 -30.89999962 7.099999905 -3.230000019
173 -30.89999962 7.659999847 0
174 -28.32999992 2.029999971 -6.659999847
175 -28.32999992 0 -6.659999847
176 -28.32999992 3.99000001 -6.659999847
177 -28.32999992 6.059999943 -6.449999809
178 -28.32999992 7.820000172 -3.440000057
179 -28.32999992 7.980000019 0
180 -25.75 2.029999971 -6.659999847
181 -25.75 0 -6.659999847
182 -25.75 3.99000001 -6.659999847
183 -25.75 6.539999962 -6.449999809
184 -25.75 7.739999771 -3.440000057
185 -25.75 7.980000019 0
186 -23.18000031 2.029999971 -6.659999847
187 -23.18000031 0 -6.659999847
188 -23.18000031 3.99000001 -6.659999847
189 -23.18000031 6.300000191 -6.559999943
190 -23.18000031 6.980000019 -6.300000191
191 -23.18000031 7.860000134 -3.440000057
192 -23.18000031 7.980000019 0
193 -20.60000038 2.029999971 -6.659999847
194 -20.60000038 0 -6.659999847
195 -20.60000038 3.99000001 -6.659999847
196 -20.60000038 6.059999943 -6.659999847
197 -20.60000038 7.420000076 -6.130000114
198 -20.60000038 7.980000019 -3.440000057
199 -20.60000038 7.980000019 0
200 -18.03000069 2.029999971 -6.659999847
201 -18.03000069 0 -6.659999847
202 -18.03000069 3.99000001 -6.659999847
203 -18.03000069 6.059999943 -6.659999847
204 -18.03000069 7.659999847 -6.130000114
205 -18.03000069 7.980000019 -3.440000057
206 -18.03000069 7.980000019 0
207 -15.44999981 2.029999971 -6.659999847
208 -15.44999981 0 -6.659999847
209 -15.44999981 3.99000001 -6.659999847
210 -15.44999981 6.059999943 -6.659999847
211 -15.44999981 7.900000095 -6.130000114
212 -15.44999981 7.980000019 -3.440000057
213 -15.44999981 7.980000019 0
214 -12.88000011 2.029999971 -6.659999847
215 -12.88000011 0 -6.659999847
216 -12.88000011 3.99000001 -6.659999847
217 -12.88000011 6.059999943 -6.659999847
218 -12.88000011 7.900000095 -6.130000114
219 -12.88000011 7.980000019 -3.440000057
220 -12.88000011 7.980000019 0
221 -10.30000019 2.029999971 -6.659999847
222 -10.30000019 0 -6.659999847
223 -10.30000019 3.99000001 -6.659999847
224 -10.30000019 6.059999943 -6.659999847
225 -10.30000019 7.900000095 -6.130000114
226 -10.30000019 7.980000019 -3.440000057
227 -10.30000019 7.980000019 0
228 -7.730000019 2.029999971 -6.659999847
229 -7.730000019 0 -6.659999847
230 -7.730000019 3.99000001 -6.659999847
231 -7.730000019 6.059999943 -6.659999847
232 -7.730000019 7.900000095 -6.130000114
233 -7.730000019 7.980000019 -3.440000057
234 -7.730000019 7.980000019 0
235 -5.150000095 2.029999971 -6.659999847
236 -5.150000095 0 -6.659999847
237 -5.150000095 3.99000001 -6.659999847
238 -5.150000095 6.059999943 -6.659999847
239 -5.150000095 7.900000095 -6.130000114
240 -5.150000095 7.980000019 -3.440000057
241 -5.150000095 7.980000019 0
242 -2.579999924 2.029999971 -6.659999847
243 -2.579999924 0 -6.659999847
244 -2.579999924 3.99000001 -6.659999847
245 -2.579999924 6.059999943 -6.659999847
246 -2.579999924 7.900000095 -6.130000114
247 -2.579999924 7.980000019 -3.440000057
248 -2.579999924 7.980000019 0
249 0 2.029999971 -6.659999847
250 0 0 -6.659999847
251 0 3.99000001 -6.659999847
252 0 6.059999943 -6.659999847
253 0 7.900000095 -6.130000114
254 0 7.980000019 -3.440000057
255 0 7.980000019 0
256 2.579999924 2.029999971 -6.659999847
257 2.579999924 0 -6.659999847
258 2.579999924 3.99000001 -6.659999847
259 2.579999924 6.059999943 -6.659999847
260 2.579999924 7.900000095 -6.130000114
261 2.579999924 7.980000019 -3.440000057
262 2.579999924 7.980000019 0
263 5.150000095 2.029999971 -6.659999847
264 5.150000095 0 -6.659999847
265 5.150000095 3.99000001 -6.659999847
266 5.150000095 6.059999943 -6.659999847
267 5.150000095 7.900000095 -6.130000114
268 5.150000095 7.980000019 -3.440000057
269 5.150000095 7.980000019 0
270 7.730000019 2.029999971 -6.659999847
271 7.730000019 0 -6.659999847
272 7.730000019 3.99000001 -6.659999847
273 7.730000019 6.059999943 -6.659999847
274 7.730000019 7.900000095 -6.130000114
275 7.730000019 7.980000019 -3.440000057
276 7.730000019 7.980000019 0
277 10.30000019 2.029999971 -6.659999847
278 10.30000019 0 -6.659999847
279 10.30000019 3.99000001 -6.659999847
280 10.30000019 6.059999943 -6.659999847
281 10.30000019 7.900000095 -6.130000114
282 10.30000019 7.980000019 -3.440000057
283 10.30000019 7.980000019 0
284 12.88000011 2.029999971 -6.659999847
285 12.88000011 0 -6.659999847
286 12.88000011 3.99000001 -6.659999847
287 12.88000011 6.059999943 -6.659999847
288 12.88000011 7.900000095 -6.130000114
289 12.88000011 7.980000019 -3.440000057
290 12.88000011 7.980000019 0
291 15.44999981 2.029999971 -6.659999847
292 15.44999981 0 -6.659999847
293 15.44999981 3.99000001 -6.659999847
294 15.44999981 6.059999943 -6.659999847
295 15.44999981 7.900000095 -6.130000114
296 15.44999981 7.980000019 -3.440000057
297 15.44999981 7.980000019 0
298 18.03000069 2.029999971 -6.659999847
299 18.03000069 0 -6.659999847
300 18.03000069 3.99000001 -6.659999847
301 18.03000069 6.059999943 -6.659999847
302 18.03000069 7.900000095 -6.130000114
303 18.03000069 7.980000019 -3.440000057
304 18.03000069 7.980000019 0
305 20.60000038 2.029999971 -6.659999847
306 20.60000038 0 -6.659999847
307 20.60000038 3.99000001 -6.659999847
308 20.60000038 6.059999943 -6.659999847
309 20.60000038 7.900000095 -6.130000114
310 20.60000038 7.980000019 -3.440000057
311 20.60000038 7.980000019 0
312 23.18000031 2.029999971 -6.659999847
313 23.18000031 0 -6.659999847
314 23.18000031 3.99000001 -6.659999847
315 23.18000031 6.059999943 -6.659999847
316 23.18000031 7.900000095 -6.130000114
317 23.18000031 7.980000019 -3.440000057
318 23.18000031 7.980000019 0
319 25.75 2.029999971 -6.659999847
320 25.75 0 -6.659999847
321 25.75 3.99000001 -6.659999847
322 25.75 6.059999943 -6.659999847
323 25.75 7.900000095 -6.130000114
324 25.75 7.980000019 -3.440000057
325 25.75 7.980000019 0
326 28.32999992 2.029999971 -6.659999847
327 28.32999992 0 -6.659999847
328 28.32999992 3.99000001 -6.659999847
329 28.32999992 6.059999943 -6.659999847
330 28.32999992 7.900000095 -6.130000114
331 28.32999992 7.980000019 -3.440000057
332 28.32999992 7.980000019 0
333 30.89999962 2.029999971 -6.659999847
334 30.89999962 0 -6.659999847
335 30.89999962 3.99000001 -6.659999847
336 30.89999962 6.059999943 -6.659999847
337 30.89999962 7.900000095 -6.130000114
338 30.89999962 7.980000019 -3.440000057
339 30.89999962 7.980000019 0
340 33.47999954 2.029999971 -6.659999847
341 33.47999954 0 -6.659999847
342 33.47999954 3.99000001 -6.659999847
343 33.47999954 6.420000076 -6.400000095
344 33.47999954 7.340000153 -6.130000114
345 33.47999954 7.820000172 -3.440000057
346 33.47999954 7.980000019 0
347 36.04999924 2.029999971 -6.659999847
348 36.04999924 0 -6.659999847
349 36.04999924 3.99000001 -6.659999847
350 36.04999924 6.78000021 -6.130000114
351 36.04999924 7.659999847 -3.440000057
352 36.04999924 7.980000019 0
353 38.63000107 2.029999971 -6.659999847
354 38.63000107 0 -6.659999847
355 38.63000107 3.99000001 -6.659999847
356 38.63000107 6.119999886 -5.860000134
357 38.63000107 7.019999981 -3.279999971
358 38.63000107 7.320000172 0
359 41.20000076 2.029999971 -6.659999847
360 41.20000076 0 -6.659999847
361 41.20000076 3.99000001 -6.659999847
362 41.20000076 5.460000038 -5.590000153
363 41.20000076 6.380000114 -3.119999886
364 41.20000076 6.659999847 0
365 43.77999878 2.029999971 -6.659999847
366 43.77999878 0 -6.659999847
367 43.77999878 4.230000019 -5.590000153
368 43.77999878 5.260000229 -2.799999952
369 43.77999878 5.579999924 0
370 46.34999847 3.75 -2.049999952
371 46.34999847 4.070000172 0
372 48.93000031 1.75999999 -5.050000191
373 48.93000031 0 -6.659999847
374 48.93000031 2.029999971 -3.49000001
375 48.93000031 2.069999933 -1.879999995
376 48.93000031 2.230000019 0
377 51.5 0.7200000286 -5.050000191
378 51.5 0 -6.659999847
379 51.5 0.8000000119 -3.49000001
380 51.5 0.5600000024 -1.879999995
381 51.70999908 0 -5.050000191
382 51.70999908 0 -6.659999847
383 51.70999908 0 -3.49000001
384 51.70999908 0 -1.879999995
385 48.76800156 0 5
386 49.83391953 1.445659995 5
387 47.02423096 1.375049949 5
388 47.92338181 2.947900057 5
389 45.76546097 4.413440228 5
390 44.68939972 2.316730022 5
391 46.5839119 0 5
392 44.2075386 0 5
393 42.30307007 2.984639883 5
394 41.84508896 0 5
395 43.41056061 5.734650135 5
396 40.79356003 6.764379978 5
397 39.86207962 3.478579998 5
398 39.48884964 0 5
399 37.38032913 3.828670025 5
400 37.11581039 0 5
401 38.02775955 7.474060059 5
402 35.27711105 7.980000019 5
403 34.87707901 4.03606987 5
404 34.72726822 0 5
405 32.38283157 4.058430195 5
406 32.31478119 0 5
407 32.49765015 7.980000019 5
408 29.9350605 7.980000019 5
409 29.89860916 4.033649921 5
410 29.8731308 0 5
411 27.42317963 4.012350082 5
412 27.41461945 0 5
413 27.43170929 7.980000019 5
414 24.94611931 7.980000019 5
415 24.94491005 4.000860214 5
416 24.94310951 0 5
417 22.46455002 3.995300055 5
418 22.46446991 0 5
419 22.4646492 7.980000019 5
420 19.98414993 7.980000019 5
421 19.98407936 3.992630005 5
422 19.98399925 0 5
423 17.50378036 3.991300106 5
424 17.50370979 0 5
425 17.50382042 7.980000019 5
426 15.02353001 7.980000019 5
427 15.02353001 3.990629911 5
428 15.02350998 0 5
429 12.54327011 3.990309954 5
430 12.54327011 0 5
431 12.54327011 7.980000019 5
432 10.06299973 7.980000019 5
433 10.06299973 3.990149975 5
434 10.06299973 0 5
435 7.582729816 3.990070105 5
436 7.582729816 0 5
437 7.58273983 7.980000019 5
438 5.102469921 7.980000019 5
439 5.102469921 3.990040064 5
440 5.102469921 0 5
441 2.622200012 3.990020037 5
442 2.622200012 0 5
443 2.622200012 7.980000019 5
444 0.141929999 7.980000019 5
445 0.141929999 3.990010023 5
446 0.141929999 0 5
447 -2.33833003 3.990010023 5
448 -2.33833003 0 5
449 -2.33833003 7.980000019 5
450 -4.818600178 7.980000019 5
451 -4.818600178 3.990010023 5
452 -4.818600178 0 5
453 -7.298870087 3.990020037 5
454 -7.298870087 0 5
455 -7.298870087 7.980000019 5
456 -9.779140472 7.980000019 5
457 -9.779129982 3.990040064 5
458 -9.779129982 0 5
459 -12.25940037 3.990070105 5
460 -12.25938988 0 5
461 -12.2594099 7.980000019 5
462 -14.73970032 7.980000019 5
463 -14.7396698 3.990139961 5
464 -14.73970032 0 5
465 -17.21999931 3.990289927 5
466 -17.22011948 0 5
467 -17.22007942 7.980000019 5
468 -19.7009201 7.980000019 5
469 -19.70018005 3.990600109 5
470 -19.6993103 0 5
471 -22.17972946 3.991130114 5
472 -22.17485046 0 5
473 -22.18507004 7.980000019 5
474 -24.69214058 7.980000019 5
475 -24.65797997 3.991090059 5
476 -24.6432209 0 5
477 -27.14963913 3.981869936 5
478 -27.10424042 0 5
479 -27.30994034 7.980000019 5
480 -29.9446907 7.778950214 5
481 -29.63923073 3.910769939 5
482 -29.55176926 0 5
483 -32.10726929 3.761199951 5
484 -31.98675919 0 5
485 -32.50650024 7.423379898 5
486 -35.08769989 7.042290211 5
487 -34.58124924 3.558120012 5
488 -34.41918945 0 5
489 -37.04137039 3.30637002 5
490 -36.84722137 0 5
491 -37.63016129 6.520269871 5
492 -40.16851044 5.908840179 5
493 -39.49927902 3.000649929 5
494 -39.27801895 0 5
495 -41.9560318 2.613790035 5
496 -41.71834946 0 5
497 -42.64503098 5.144720078 5
498 -45.0140419 4.264629841 5
499 -44.3763504 2.144200087 5
500 -44.15832901 0 5
501 -46.76358032 1.691300035 5
502 -46.59508133 0 5
503 -47.2917099 3.341200113 5
504 -49.46984863 2.377929926 5
505 -49.13972855 1.225370049 5
506 -49.03860092 0 5
507 -51.5 0.866050005 5
508 46.34999847 -1.960000038 -6.449999809
509 46.34999847 -3.150000095 -5.110000134
510 -51.5 -1.429999948 0
511 -51.5 -1.429999948 2.499969959
512 -49.20634079 -2.497950077 2.499979973
513 -49.20755005 -2.50041008 0
514 -51.5 -1.429999948 5
515 -49.20746994 -2.500439882 5
516 49.58842087 -1.656829953 2.499979973
517 49.58932877 -1.657889962 5
518 49.5892601 -1.657960057 0
519 47.57960892 -3.193069935 0
520 47.57978821 -3.192889929 2.499959946
521 45.46940994 -4.587379932 0
522 45.46899033 -4.586800098 2.500020027
523 43.24979019 -5.801949978 0
524 43.24874115 -5.796979904 2.500070095
525 40.89986038 -6.737080097 0
526 40.89875031 -6.727880001 2.500050068
527 38.44799042 -7.366559982 0
528 38.44937134 -7.366030216 2.500010014
529 35.98154831 -7.980000019 0
530 35.98503876 -7.949090004 2.500129938
531 33.46332932 -7.980000019 0
532 33.46360016 -7.980000019 2.499910116
533 30.93324089 -7.980000019 0
534 30.93308067 -7.980000019 2.500040054
535 28.40306091 -7.980000019 0
536 28.40304947 -7.980000019 2.500040054
537 25.87289047 -7.980000019 0
538 25.87291908 -7.980000019 2.500020027
539 23.34280014 -7.980000019 0
540 23.3427906 -7.980000019 2.5
541 20.8126297 -7.980000019 0
542 20.81265068 -7.980000019 2.500030041
543 18.28257942 -7.980000019 0
544 18.28252029 -7.980000019 2.500010014
545 15.75236034 -7.980000019 0
546 15.75238991 -7.980000019 2.5
547 13.22224998 -7.980000019 0
548 13.22226048 -7.980000019 2.5
549 10.6921196 -7.980000019 0
550 10.69211006 -7.980000019 2.5
551 8.161979675 -7.980000019 0
552 8.161990166 -7.980000019 2.499989986
553 5.631840229 -7.980000019 0
554 5.631849766 -7.980000019 2.500010014
555 3.101710081 -7.980000019 0
556 3.101730108 -7.980000019 2.500010014
557 0.5715900064 -7.980000019 0
558 0.5715900064 -7.980000019 2.5
559 -1.958539963 -7.980000019 0
560 -1.958549976 -7.980000019 2.5
561 -4.488679886 -7.980000019 0
562 -4.488679886 -7.980000019 2.499979973
563 -7.018859863 -7.980000019 0
564 -7.018809795 -7.980000019 2.5
565 -9.548950195 -7.980000019 0
566 -9.548939705 -7.980000019 2.5
567 -12.07911968 -7.980000019 0
568 -12.07907963 -7.980000019 2.500020027
569 -14.60921001 -7.980000019 0
570 -14.60921001 -7.980000019 2.500040054
571 -17.13932037 -7.980000019 0
572 -17.13935089 -7.980000019 2.500010014
573 -19.66947937 -7.980000019 0
574 -19.66947937 -7.980000019 2.499979973
575 -22.19963074 -7.980000019 0
576 -22.19960976 -7.980000019 2.500020027
577 -24.72989082 -7.980000019 0
578 -24.72967911 -7.980000019 2.500040054
579 -27.25931931 -7.980000019 0
580 -27.25956917 -7.97935009 2.499989986
581 -29.78017044 -7.799429893 0
582 -29.77990913 -7.799139977 2.499910116
583 -32.28688812 -7.455729961 0
584 -32.28686905 -7.45566988 2.5
585 -34.78979874 -7.086329937 0
586 -34.78987885 -7.086100101 2.500089884
587 -37.27241135 -6.606239796 0
588 -37.27219009 -6.605999947 2.5
589 -39.73220825 -6.014100075 0
590 -39.73239899 -6.013929844 2.500050068
591 -42.16226959 -5.316860199 0
592 -42.16202927 -5.316120148 2.499969959
593 -44.53824997 -4.447909832 0
594 -44.53813171 -4.447700024 2.499979973
595 -46.89009094 -3.515539885 0
596 -46.88973999 -3.514810085 2.499989986
597 -46.89015961 -3.515510082 5
598 -44.53815079 -4.447949886 5
599 -42.16249084 -5.316790104 5
600 -39.7321701 -6.014110088 5
601 -37.27249146 -6.606219769 5
602 -34.78981018 -7.086329937 5
603 -32.28667831 -7.455760002 5
604 -29.78017998 -7.799429893 5
605 -27.25952911 -7.980000019 5
606 -24.72978973 -7.980000019 5
607 -22.19960022 -7.980000019 5
608 -19.66949081 -7.980000019 5
609 -17.13935089 -7.980000019 5
610 -14.60921001 -7.980000019 5
611 -12.07903957 -7.980000019 5
612 -9.548939705 -7.980000019 5
613 -7.018770218 -7.980000019 5
614 -4.488679886 -7.980000019 5
615 -1.958539963 -7.980000019 5
616 0.5715900064 -7.980000019 5
617 3.101720095 -7.980000019 5
618 5.631869793 -7.980000019 5
619 8.161990166 -7.980000019 5
620 10.6921196 -7.980000019 5
621 13.22224998 -7.980000019 5
622 15.75240993 -7.980000019 5
623 18.28248024 -7.980000019 5
624 20.81267929 -7.980000019 5
625 23.34277916 -7.980000019 5
626 25.87294006 -7.980000019 5
627 28.40304947 -7.980000019 5
628 30.93337059 -7.980000019 5
629 33.46339035 -7.980000019 5
630 35.98694992 -7.980000019 5
631 38.44802856 -7.366549969 5
632 40.90142822 -6.736680031 5
633 43.24991989 -5.801889896 5
634 45.46952057 -4.587319851 5
635 47.57965088 -3.193039894 5
636 -48.93000031 -1.360000014 -1.129999995
637 -48.93000031 -2.630000114 0
638 -46.34999847 -1 -4.300000191
639 -46.34999847 -2.269999981 -1.50999999
640 -46.34999847 -3.75 0
641 -43.77999878 -1.909999967 -4.570000172
642 -43.77999878 -3.349999905 -1.879999995
643 -43.77999878 -4.739999771 0
644 -41.20000076 -2.789999962 -4.889999866
645 -41.20000076 -4.309999943 -2.25999999
646 -41.20000076 -5.659999847 0
647 -38.63000107 -2.410000086 -6.449999809
648 -38.63000107 -3.549999952 -5.159999847
649 -38.63000107 -5.110000134 -2.529999971
650 -38.63000107 -6.28000021 0
651 -36.04999924 -2.029999971 -6.659999847
652 -36.04999924 -4.309999943 -5.429999828
653 -36.04999924 -5.900000095 -2.799999952
654 -36.04999924 -6.900000095 0
655 -33.47999954 -2.029999971 -6.659999847
656 -33.47999954 -4.150000095 -6.659999847
657 -33.47999954 -4.949999809 -5.659999847
658 -33.47999954 -6.5 -3.00999999
659 -33.47999954 -7.28000021 0
660 -30.89999962 -2.029999971 -6.659999847
661 -30.89999962 -3.99000001 -6.659999847
662 -30.89999962 -5.579999924 -5.869999886
663 -30.89999962 -7.099999905 -3.230000019
664 -30.89999962 -7.659999847 0
665 -28.32999992 -2.029999971 -6.659999847
666 -28.32999992 -3.99000001 -6.659999847
667 -28.32999992 -6.059999943 -6.449999809
668 -28.32999992 -7.820000172 -3.440000057
669 -28.32999992 -7.980000019 0
670 -25.75 -2.029999971 -6.659999847
671 -25.75 -3.99000001 -6.659999847
672 -25.75 -6.539999962 -6.449999809
673 -25.75 -7.739999771 -3.440000057
674 -25.75 -7.980000019 0
675 -23.18000031 -2.029999971 -6.659999847
676 -23.18000031 -3.99000001 -6.659999847
677 -23.18000031 -6.300000191 -6.559999943
678 -23.18000031 -6.980000019 -6.300000191
679 -23.18000031 -7.860000134 -3.440000057
680 -23.18000031 -7.980000019 0
681 -20.60000038 -2.029999971 -6.659999847
682 -20.60000038 -3.99000001 -6.659999847
683 -20.60000038 -6.059999943 -6.659999847
684 -20.60000038 -7.420000076 -6.130000114
685 -20.60000038 -7.980000019 -3.440000057
686 -20.60000038 -7.980000019 0
687 -18.03000069 -2.029999971 -6.659999847
688 -18.03000069 -3.99000001 -6.659999847
689 -18.03000069 -6.059999943 -6.659999847
690 -18.03000069 -7.659999847 -6.130000114
691 -18.03000069 -7.980000019 -3.440000057
692 -18.03000069 -7.980000019 0
693 -15.44999981 -2.029999971 -6.659999847
694 -15.44999981 -3.99000001 -6.659999847
695 -15.44999981 -6.059999943 -6.659999847
696 -15.44999981 -7.900000095 -6.130000114
697 -15.44999981 -7.980000019 -3.440000057
698 -15.44999981 -7.980000019 0
699 -12.88000011 -2.029999971 -6.659999847
700 -12.88000011 -3.99000001 -6.659999847
701 -12.88000011 -6.059999943 -6.659999847
702 -12.88000011 -7.900000095 -6.130000114
703 -12.88000011 -7.980000019 -3.440000057
704 -12.88000011 -7.980000019 0
705 -10.30000019 -2.029999971 -6.659999847
706 -10.30000019 -3.99000001 -6.659999847
707 -10.30000019 -6.059999943 -6.659999847
708 -10.30000019 -7.900000095 -6.130000114
709 -10.30000019 -7.980000019 -3.440000057
710 -10.30000019 -7.980000019 0
711 -7.730000019 -2.029999971 -6.659999847
712 -7.730000019 -3.99000001 -6.659999847
713 -7.730000019 -6.059999943 -6.659999847
714 -7.730000019 -7.900000095 -6.130000114
715 -7.730000019 -7.980000019 -3.440000057
716 -7.730000019 -7.980000019 0
717 -5.150000095 -2.029999971 -6.659999847
718 -5.150000095 -3.99000001 -6.659999847
719 -5.150000095 -6.059999943 -6.659999847
720 -5.150000095 -7.900000095 -6.130000114
721 -5.150000095 -7.980000019 -3.440000057
722 -5.150000095 -7.980000019 0
723 -2.579999924 -2.029999971 -6.659999847
724 -2.579999924 -3.99000001 -6.659999847
725 -2.579999924 -6.059999943 -6.659999847
726 -2.579999924 -7.900000095 -6.130000114
727 -2.579999924 -7.980000019 -3.440000057
728 -2.579999924 -7.980000019 0
729 0 -2.029999971 -6.659999847
730 0 -3.99000001 -6.659999847
731 0 -6.059999943 -6.659999847
732 0 -7.900000095 -6.130000114
733 0 -7.980000019 -3.440000057
734 0 -7.980000019 0
735 2.579999924 -2.029999971 -6.659999847
736 2.579999924 -3.99000001 -6.659999847
737 2.579999924 -6.059999943 -6.659999847
738 2.579999924 -7.900000095 -6.130000114
739 2.579999924 -7.980000019 -3.440000057
740 2.579999924 -7.980000019 0
741 5.150000095 -2.029999971 -6.659999847
742 5.150000095 -3.99000001 -6.659999847
743 5.150000095 -6.059999943 -6.659999847
744 5.150000095 -7.900000095 -6.130000114
745 5.150000095 -7.980000019 -3.440000057
746 5.150000095 -7.980000019 0
747 7.730000019 -2.029999971 -6.659999847
748 7.730000019 -3.99000001 -6.659999847
749 7.730000019 -6.059999943 -6.659999847
750 7.730000019 -7.900000095 -6.130000114
751 7.730000019 -7.980000019 -3.440000057
752 7.730000019 -7.980000019 0
753 10.30000019 -2.029999971 -6.659999847
754 10.30000019 -3.99000001 -6.659999847
755 10.30000019 -6.059999943 -6.659999847
756 10.30000019 -7.900000095 -6.130000114
757 10.30000019 -7.980000019 -3.440000057
758 10.30000019 -7.980000019 0
759 12.88000011 -2.029999971 -6.659999847
760 12.88000011 -3.99000001 -6.659999847
761 12.88000011 -6.059999943 -6.659999847
762 12.88000011 -7.900000095 -6.130000114
763 12.88000011 -7.980000019 -3.440000057
764 12.88000011 -7.980000019 0
765 15.44999981 -2.029999971 -6.659999847
766 15.44999981 -3.99000001 -6.659999847
767 15.44999981 -6.059999943 -6.659999847
768 15.44999981 -7.900000095 -6.130000114
769 15.44999981 -7.980000019 -3.440000057
770 15.44999981 -7.980000019 0
771 18.03000069 -2.029999971 -6.659999847
772 18.03000069 -3.99000001 -6.659999847
773 18.03000069 -6.059999943 -6.659999847
774 18.03000069 -7.900000095 -6.130000114
775 18.03000069 -7.980000019 -3.440000057
776 18.03000069 -7.980000019 0
777 20.60000038 -2.029999971 -6.659999847
778 20.60000038 -3.99000001 -6.659999847
779 20.60000038 -6.059999943 -6.659999847
780 20.60000038 -7.900000095 -6.130000114
781 20.60000038 -7.980000019 -3.440000057
782 20.60000038 -7.980000019 0
783 23.18000031 -2.029999971 -6.659999847
784 23.18000031 -3.99000001 -6.659999847
785 23.18000031 -6.059999943 -6.659999847
786 23.18000031 -7.900000095 -6.130000114
787 23.18000031 -7.980000019 -3.440000057
788 23.18000031 -7.980000019 0
789 25.75 -2.029999971 -6.659999847
790 25.75 -3.99000001 -6.659999847
791 25.75 -6.059999943 -6.659999847
792 25.75 -7.900000095 -6.130000114
793 25.75 -7.980000019 -3.440000057
794 25.75 -7.980000019 0
795 28.32999992 -2.029999971 -6.659999847
796 28.32999992 -3.99000001 -6.659999847
797 28.32999992 -6.059999943 -6.659999847
798 28.32999992 -7.900000095 -6.130000114
799 28.32999992 -7.980000019 -3.440000057
800 28.32999992 -7.980000019 0
801 30.89999962 -2.029999971 -6.659999847
802 30.89999962 -3.99000001 -6.659999847
803 30.89999962 -6.059999943 -6.659999847
804 30.89999962 -7.900000095 -6.130000114
805 30.89999962 -7.980000019 -3.440000057
806 30.89999962 -7.980000019 0
807 33.47999954 -2.029999971 -6.659999847
808 33.47999954 -3.99000001 -6.659999847
809 33.47999954 -6.420000076 -6.400000095
810 33.47999954 -7.340000153 -6.130000114
811 33.47999954 -7.820000172 -3.440000057
812 33.47999954 -7.980000019 0
813 36.04999924 -2.029999971 -6.659999847
814 36.04999924 -3.99000001 -6.659999847
815 36.04999924 -6.78000021 -6.130000114
816 36.04999924 -7.659999847 -3.440000057
817 36.04999924 -7.980000019 0
818 38.63000107 -2.029999971 -6.659999847
819 38.63000107 -3.99000001 -6.659999847
820 38.63000107 -6.119999886 -5.860000134
821 38.63000107 -7.019999981 -3.279999971
822 38.63000107 -7.320000172 0
823 41.20000076 -2.029999971 -6.659999847
824 41.20000076 -3.99000001 -6.659999847
825 41.20000076 -5.460000038 -5.590000153
826 41.20000076 -6.380000114 -3.119999886
827 41.20000076 -6.659999847 0
828 43.77999878 -2.029999971 -6.659999847
829 43.77999878 -4.230000019 -5.590000153
830 43.77999878 -5.260000229 -2.799999952
831 43.77999878 -5.579999924 0
832 46.34999847 -3.75 -2.049999952
833 46.34999847 -4.070000172 0
834 48.93000031 -1.75999999 -5.050000191
835 48.93000031 -2.029999971 -3.49000001
836 48.93000031 -2.069999933 -1.879999995
837 48.93000031 -2.230000019 0
838 51.5 -0.7200000286 -5.050000191
839 51.5 -0.8000000119 -3.49000001
840 51.5 -0.5600000024 -1.879999995
841 49.83391953 -1.445659995 5
842 47.02423096 -1.375049949 5
843 47.92338181 -2.947900057 5
844 45.76546097 -4.413440228 5
845 44.68939972 -2.316730022 5
846 42.30307007 -2.984639883 5
847 43.41056061 -5.734650135 5
848 40.79356003 -6.764379978 5
849 39.86207962 -3.478579998 5
850 37.38032913 -3.828670025 5
851 38.02775955 -7.474060059 5
852 35.27711105 -7.980000019 5
853 34.87707901 -4.03606987 5
854 32.38283157 -4.058430195 5
855 32.49765015 -7.980000019 5
856 29.9350605 -7.980000019 5
857 29.89860916 -4.033649921 5
858 27.42317963 -4.012350082 5
859 27.43170929 -7.980000019 5
860 24.94611931 -7.980000019 5
861 24.94491005 -4.000860214 5
862 22.46455002 -3.995300055 5
863 22.4646492 -7.980000019 5
864 19.98414993 -7.980000019 5
865 19.98407936 -3.992630005 5
866 17.50378036 -3.991300106 5
867 17.50382042 -7.980000019 5
868 15.02353001 -7.980000019 5
869 15.02353001 -3.990629911 5
870 12.54327011 -3.990309954 5
871 12.54327011 -7.980000019 5
872 10.06299973 -7.980000019 5
873 10.06299973 -3.990149975 5
874 7.582729816 -3.990070105 5
875 7.58273983 -7.980000019 5
876 5.102469921 -7.980000019 5
877 5.102469921 -3.990040064 5
878 2.622200012 -3.990020037 5
879 2.622200012 -7.980000019 5
880 0.141929999 -7.980000019 5
881 0.141929999 -3.990010023 5
882 -2.33833003 -3.990010023 5
883 -2.33833003 -7.980000019 5
884 -4.818600178 -7.980000019 5
885 -4.818600178 -3.990010023 5
886 -7.298870087 -3.990020037 5
887 -7.298870087 -7.980000019 5
888 -9.779140472 -7.980000019 5
889 -9.779129982 -3.990040064 5
890 -12.25940037 -3.990070105 5
891 -12.2594099 -7.980000019 5
892 -14.73970032 -7.980000019 5
893 -14.7396698 -3.990139961 5
894 -17.21999931 -3.990289927 5
895 -17.22007942 -7.980000019 5
896 -19.7009201 -7.980000019 5
897 -19.70018005 -3.990600109 5
898 -22.17972946 -3.991130114 5
899 -22.18507004 -7.980000019 5
900 -24.69214058 -7.980000019 5
901 -24.65797997 -3.991090059 5
902 -27.14963913 -3.981869936 5
903 -27.30994034 -7.980000019 5
904 -29.9446907 -7.778950214 5
905 -29.63923073 -3.910769939 5
906 -32.10726929 -3.761199951 5
907 -32.50650024 -7.423379898 5
908 -35.08769989 -7.042290211 5
909 -34.58124924 -3.558120012 5
910 -37.04137039 -3.30637002 5
911 -37.63016129 -6.520269871 5
912 -40.16851044 -5.908840179 5
913 -39.49927902 -3.000649929 5
914 -41.9560318 -2.613790035 5
915 -42.64503098 -5.144720078 5
916 -45.0140419 -4.264629841 5
917 -44.3763504 -2.144200087 5
918 -46.76358032 -1.691300035 5
919 -47.2917099 -3.341200113 5
920 -49.46984863 -2.377929926 5
921 -49.13972855 -1.225370049 5
922 -51.5 -0.866050005 5
$EndNodes
$Elements
1540
1 2 2 1 1 1 2 3
2 2 2 1 1 1 3 3
3 2 2 1 1 4 5 6
4 2 2 1 1 4 6 7
5 2 2 1 1 4 7 8
6 2 2 1 1 4 8 9
7 2 2 1 1 10 11 8
8 2 2 1 1 10 8 7
9 2 2 1 1 10 7 6
10 2 2 1 1 10 6 12
11 2 2 1 1 13 14 15
12 2 2 1 1 13 15 16
13 2 2 1 1 17 18 15
14 2 2 1 1 17 15 14
15 2 2 1 1 18 19 20
16 2 2 1 1 18 20 15
17 2 2 1 1 19 21 22
18 2 2 1 1 19 22 20
19 2 2 1 1 21 23 24
20 2 2 1 1 21 24 22
21 2 2 1 1 23 25 26
22 2 2 1 1 23 26 24
23 2 2 1 1 25 27 28
24 2 2 1 1 25 28 26
25 2 2 1 1 27 29 30
26 2 2 1 1 27 30 28
27 2 2 1 1 29 31 32
28 2 2 1 1 29 32 30
29 2 2 1 1 31 33 34
30 2 2 1 1 31 34 32
31 2 2 1 1 33 35 36
32 2 2 1 1 33 36 34
33 2 2 1 1 35 37 38
34 2 2 1 1 35 38 36
35 2 2 1 1 37 39 40
36 2 2 1 1 37 40 38
37 2 2 1 1 39 41 42
38 2 2 1 1 39 42 40
39 2 2 1 1 41 43 44
40 2 2 1 1 41 44 42
41 2 2 1 1 43 45 46
42 2 2 1 1 43 46 44
43 2 2 1 1 45 47 48
44 2 2 1 1 45 48 46
45 2 2 1 1 47 49 50
46 2 2 1 1 47 50 48
47 2 2 1 1 49 51 52
48 2 2 1 1 49 52 50
49 2 2 1 1 51 53 54
50 2 2 1 1 51 54 52
51 2 2 1 1 53 55 56
52 2 2 1 1 53 56 54
53 2 2 1 1 55 57 58
54 2 2 1 1 55 58 56
55 2 2 1 1 57 59 60
56 2 2 1 1 57 60 58
57 2 2 1 1 59 61 62
58 2 2 1 1 59 62 60
59 2 2 1 1 61 63 64
60 2 2 1 1 61 64 62
61 2 2 1 1 63 65 66
62 2 2 1 1 63 66 64
63 2 2 1 1 65 67 68
64 2 2 1 1 65 68 66
65 2 2 1 1 67 69 70
66 2 2 1 1 67 70 68
67 2 2 1 1 69 71 72
68 2 2 1 1 69 72 70
69 2 2 1 1 71 73 74
70 2 2 1 1 71 74 72
71 2 2 1 1 73 75 76
72 2 2 1 1 73 76 74
73 2 2 1 1 75 77 78
74 2 2 1 1 75 78 76
75 2 2 1 1 77 79 80
76 2 2 1 1 77 80 78
77 2 2 1 1 79 81 82
78 2 2 1 1 79 82 80
79 2 2 1 1 81 83 84
80 2 2 1 1 81 84 82
81 2 2 1 1 83 85 86
82 2 2 1 1 83 86 84
83 2 2 1 1 85 87 88
84 2 2 1 1 85 88 86
85 2 2 1 1 87 89 90
86 2 2 1 1 87 90 88
87 2 2 1 1 89 91 92
88 2 2 1 1 89 92 90
89 2 2 1 1 91 93 94
90 2 2 1 1 91 94 92
91 2 2 1 1 93 95 96
92 2 2 1 1 93 96 94
93 2 2 1 1 95 9 8
94 2 2 1 1 95 8 96
95 2 2 1 1 96 97 98
96 2 2 1 1 96 98 94
97 2 2 1 1 96 8 11
98 2 2 1 1 96 11 97
99 2 2 1 1 98 99 92
100 2 2 1 1 98 92 94
101 2 2 1 1 99 100 90
102 2 2 1 1 99 90 92
103 2 2 1 1 100 101 88
104 2 2 1 1 100 88 90
105 2 2 1 1 101 102 86
106 2 2 1 1 101 86 88
107 2 2 1 1 102 103 84
108 2 2 1 1 102 84 86
109 2 2 1 1 103 104 82
110 2 2 1 1 103 82 84
111 2 2 1 1 104 105 80
112 2 2 1 1 104 80 82
113 2 2 1 1 105 106 78
114 2 2 1 1 105 78 80
115 2 2 1 1 106 107 76
116 2 2 1 1 106 76 78
117 2 2 1 1 107 108 74
118 2 2 1 1 107 74 76
119 2 2 1 1 108 109 72
120 2 2 1 1 108 72 74
121 2 2 1 1 109 110 70
122 2 2 1 1 109 70 72
123 2 2 1 1 110 111 68
124 2 2 1 1 110 68 70
125 2 2 1 1 111 112 66
126 2 2 1 1 111 66 68
127 2 2 1 1 112 113 64
128 2 2 1 1 112 64 66
129 2 2 1 1 113 114 62
130 2 2 1 1 113 62 64
131 2 2 1 1 114 115 60
132 2 2 1 1 114 60 62
133 2 2 1 1 115 116 58
134 2 2 1 1 115 58 60
135 2 2 1 1 116 117 56
136 2 2 1 1 116 56 58
137 2 2 1 1 117 118 54
138 2 2 1 1 117 54 56
139 2 2 1 1 118 119 52
140 2 2 1 1 118 52 54
141 2 2 1 1 119 120 50
142 2 2 1 1 119 50 52
143 2 2 1 1 120 121 48
144 2 2 1 1 120 48 50
145 2 2 1 1 121 122 46
146 2 2 1 1 121 46 48
147 2 2 1 1 122 123 44
148 2 2 1 1 122 44 46
149 2 2 1 1 123 124 42
150 2 2 1 1 123 42 44
151 2 2 1 1 124 125 40
152 2 2 1 1 124 40 42
153 2 2 1 1 125 126 38
154 2 2 1 1 125 38 40
155 2 2 1 1 126 127 36
156 2 2 1 1 126 36 38
157 2 2 1 1 127 128 34
158 2 2 1 1 127 34 36
159 2 2 1 1 128 129 32
160 2 2 1 1 128 32 34
161 2 2 1 1 129 130 30
162 2 2 1 1 129 30 32
163 2 2 1 1 130 131 28
164 2 2 1 1 130 28 30
165 2 2 1 1 131 132 26
166 2 2 1 1 131 26 28
167 2 2 1 1 132 133 24
168 2 2 1 1 132 24 26
169 2 2 1 1 133 134 22
170 2 2 1 1 133 22 24
171 2 2 1 1 134 135 20
172 2 2 1 1 134 20 22
173 2 2 1 1 135 16 15
174 2 2 1 1 135 15 20
175 2 2 1 1 5 4 136
176 2 2 1 1 5 136 136
177 2 2 1 1 136 4 137
178 2 2 1 1 136 137 138
179 2 2 1 1 139 137 4
180 2 2 1 1 139 4 4
181 2 2 1 1 140 141 138
182 2 2 1 1 140 138 138
183 2 2 1 1 138 137 142
184 2 2 1 1 138 142 140
185 2 2 1 1 137 139 143
186 2 2 1 1 137 143 142
187 2 2 1 1 141 140 144
188 2 2 1 1 141 144 145
189 2 2 1 1 140 142 146
190 2 2 1 1 140 146 144
191 2 2 1 1 142 143 147
192 2 2 1 1 142 147 146
193 2 2 1 1 145 144 148
194 2 2 1 1 145 148 149
195 2 2 1 1 144 146 150
196 2 2 1 1 144 150 148
197 2 2 1 1 146 147 151
198 2 2 1 1 146 151 150
199 2 2 1 1 149 148 152
200 2 2 1 1 149 152 153
201 2 2 1 1 154 152 148
202 2 2 1 1 154 148 148
203 2 2 1 1 148 150 155
204 2 2 1 1 148 155 154
205 2 2 1 1 150 151 156
206 2 2 1 1 150 156 155
207 2 2 1 1 153 152 157
208 2 2 1 1 153 157 158
209 2 2 1 1 152 154 159
210 2 2 1 1 152 159 157
211 2 2 1 1 154 155 160
212 2 2 1 1 154 160 159
213 2 2 1 1 155 156 161
214 2 2 1 1 155 161 160
215 2 2 1 1 158 157 162
216 2 2 1 1 158 162 163
217 2 2 1 1 157 159 164
218 2 2 1 1 157 164 162
219 2 2 1 1 165 164 159
220 2 2 1 1 165 159 159
221 2 2 1 1 159 160 166
222 2 2 1 1 159 166 165
223 2 2 1 1 160 161 167
224 2 2 1 1 160 167 166
225 2 2 1 1 163 162 168
226 2 2 1 1 163 168 169
227 2 2 1 1 162 164 170
228 2 2 1 1 162 170 168
229 2 2 1 1 164 165 171
230 2 2 1 1 164 171 170
231 2 2 1 1 165 166 172
232 2 2 1 1 165 172 171
233 2 2 1 1 166 167 173
234 2 2 1 1 166 173 172
235 2 2 1 1 169 168 174
236 2 2 1 1 169 174 175
237 2 2 1 1 168 170 176
238 2 2 1 1 168 176 174
239 2 2 1 1 170 171 177
240 2 2 1 1 170 177 176
241 2 2 1 1 171 172 178
242 2 2 1 1 171 178 177
243 2 2 1 1 172 173 179
244 2 2 1 1 172 179 178
245 2 2 1 1 175 174 180
246 2 2 1 1 175 180 181
247 2 2 1 1 174 176 182
248 2 2 1 1 174 182 180
249 2 2 1 1 176 177 183
250 2 2 1 1 176 183 182
251 2 2 1 1 177 178 184
252 2 2 1 1 177 184 183
253 2 2 1 1 178 179 185
254 2 2 1 1 178 185 184
255 2 2 1 1 181 180 186
256 2 2 1 1 181 186 187
257 2 2 1 1 180 182 188
258 2 2 1 1 180 188 186
259 2 2 1 1 182 183 189
260 2 2 1 1 182 189 188
261 2 2 1 1 190 189 183
262 2 2 1 1 190 183 183
263 2 2 1 1 183 184 191
264 2 2 1 1 183 191 190
265 2 2 1 1 184 185 192
266 2 2 1 1 184 192 191
267 2 2 1 1 187 186 193
268 2 2 1 1 187 193 194
269 2 2 1 1 186 188 195
270 2 2 1 1 186 195 193
271 2 2 1 1 188 189 196
272 2 2 1 1 188 196 195
273 2 2 1 1 189 190 197
274 2 2 1 1 189 197 196
275 2 2 1 1 190 191 198
276 2 2 1 1 190 198 197
277 2 2 1 1 191 192 199
278 2 2 1 1 191 199 198
279 2 2 1 1 194 193 200
280 2 2 1 1 194 200 201
281 2 2 1 1 193 195 202
282 2 2 1 1 193 202 200
283 2 2 1 1 195 196 203
284 2 2 1 1 195 203 202
285 2 2 1 1 196 197 204
286 2 2 1 1 196 204 203
287 2 2 1 1 197 198 205
288 2 2 1 1 197 205 204
289 2 2 1 1 198 199 206
290 2 2 1 1 198 206 205
291 2 2 1 1 201 200 207
292 2 2 1 1 201 207 208
293 2 2 1 1 200 202 209
294 2 2 1 1 200 209 207
295 2 2 1 1 202 203 210
296 2 2 1 1 202 210 209
297 2 2 1 1 203 204 211
298 2 2 1 1 203 211 210
299 2 2 1 1 204 205 212
300 2 2 1 1 204 212 211
301 2 2 1 1 205 206 213
302 2 2 1 1 205 213 212
303 2 2 1 1 208 207 214
304 2 2 1 1 208 214 215
305 2 2 1 1 207 209 216
306 2 2 1 1 207 216 214
307 2 2 1 1 209 210 217
308 2 2 1 1 209 217 216
309 2 2 1 1 210 211 218
310 2 2 1 1 210 218 217
311 2 2 1 1 211 212 219
312 2 2 1 1 211 219 218
313 2 2 1 1 212 213 220
314 2 2 1 1 212 220 219
315 2 2 1 1 215 214 221
316 2 2 1 1 215 221 222
317 2 2 1 1 214 216 223
318 2 2 1 1 214 223 221
319 2 2 1 1 216 217 224
320 2 2 1 1 216 224 223
321 2 2 1 1 217 218 225
322 2 2 1 1 217 225 224
323 2 2 1 1 218 219 226
324 2 2 1 1 218 226 225
325 2 2 1 1 219 220 227
326 2 2 1 1 219 227 226
327 2 2 1 1 222 221 228
328 2 2 1 1 222 228 229
329 2 2 1 1 221 223 230
330 2 2 1 1 221 230 228
331 2 2 1 1 223 224 231
332 2 2 1 1 223 231 230
333 2 2 1 1 224 225 232
334 2 2 1 1 224 232 231
335 2 2 1 1 225 226 233
336 2 2 1 1 225 233 232
337 2 2 1 1 226 227 234
338 2 2 1 1 226 234 233
339 2 2 1 1 229 228 235
340 2 2 1 1 229 235 236
341 2 2 1 1 228 230 237
342 2 2 1 1 228 237 235
343 2 2 1 1 230 231 238
344 2 2 1 1 230 238 237
345 2 2 1 1 231 232 239
346 2 2 1 1 231 239 238
347 2 2 1 1 232 233 240
348 2 2 1 1 232 240 239
349 2 2 1 1 233 234 241
350 2 2 1 1 233 241 240
351 2 2 1 1 236 235 242
352 2 2 1 1 236 242 243
353 2 2 1 1 235 237 244
354 2 2 1 1 235 244 242
355 2 2 1 1 237 238 245
356 2 2 1 1 237 245 244
357 2 2 1 1 238 239 246
358 2 2 1 1 238 246 245
359 2 2 1 1 239 240 247
360 2 2 1 1 239 247 246
361 2 2 1 1 240 241 248
362 2 2 1 1 240 248 247
363 2 2 1 1 243 242 249
364 2 2 1 1 243 249 250
365 2 2 1 1 242 244 251
366 2 2 1 1 242 251 249
367 2 2 1 1 244 245 252
368 2 2 1 1 244 252 251
369 2 2 1 1 245 246 253
370 2 2 1 1 245 253 252
371 2 2 1 1 246 247 254
372 2 2 1 1 246 254 253
373 2 2 1 1 247 248 255
374 2 2 1 1 247 255 254
375 2 2 1 1 250 249 256
376 2 2 1 1 250 256 257
377 2 2 1 1 249 251 258
378 2 2 1 1 249 258 256
379 2 2 1 1 251 252 259
380 2 2 1 1 251 259 258
381 2 2 1 1 252 253 260
382 2 2 1 1 252 260 259
383 2 2 1 1 253 254 261
384 2 2 1 1 253 261 260
385 2 2 1 1 254 255 262
386 2 2 1 1 254 262 261
387 2 2 1 1 257 256 263
388 2 2 1 1 257 263 264
389 2 2 1 1 256 258 265
390 2 2 1 1 256 265 263
391 2 2 1 1 258 259 266
392 2 2 1 1 258 266 265
393 2 2 1 1 259 260 267
394 2 2 1 1 259 267 266
395 2 2 1 1 260 261 268
396 2 2 1 1 260 268 267
397 2 2 1 1 261 262 269
398 2 2 1 1 261 269 268
399 2 2 1 1 264 263 270
400 2 2 1 1 264 270 271
401 2 2 1 1 263 265 272
402 2 2 1 1 263 272 270
403 2 2 1 1 265 266 273
404 2 2 1 1 265 273 272
405 2 2 1 1 266 267 274
406 2 2 1 1 266 274 273
407 2 2 1 1 267 268 275
408 2 2 1 1 267 275 274
409 2 2 1 1 268 269 276
410 2 2 1 1 268 276 275
411 2 2 1 1 271 270 277
412 2 2 1 1 271 277 278
413 2 2 1 1 270 272 279
414 2 2 1 1 270 279 277
415 2 2 1 1 272 273 280
416 2 2 1 1 272 280 279
417 2 2 1 1 273 274 281
418 2 2 1 1 273 281 280
419 2 2 1 1 274 275 282
420 2 2 1 1 274 282 281
421 2 2 1 1 275 276 283
422 2 2 1 1 275 283 282
423 2 2 1 1 278 277 284
424 2 2 1 1 278 284 285
425 2 2 1 1 277 279 286
426 2 2 1 1 277 286 284
427 2 2 1 1 279 280 287
428 2 2 1 1 279 287 286
429 2 2 1 1 280 281 288
430 2 2 1 1 280 288 287
431 2 2 1 1 281 282 289
432 2 2 1 1 281 289 288
433 2 2 1 1 282 283 290
434 2 2 1 1 282 290 289
435 2 2 1 1 285 284 291
436 2 2 1 1 285 291 292
437 2 2 1 1 284 286 293
438 2 2 1 1 284 293 291
439 2 2 1 1 286 287 294
440 2 2 1 1 286 294 293
441 2 2 1 1 287 288 295
442 2 2 1 1 287 295 294
443 2 2 1 1 288 289 296
444 2 2 1 1 288 296 295
445 2 2 1 1 289 290 297
446 2 2 1 1 289 297 296
447 2 2 1 1 292 291 298
448 2 2 1 1 292 298 299
449 2 2 1 1 291 293 300
450 2 2 1 1 291 300 298
451 2 2 1 1 293 294 301
452 2 2 1 1 293 301 300
453 2 2 1 1 294 295 302
454 2 2 1 1 294 302 301
455 2 2 1 1 295 296 303
456 2 2 1 1 295 303 302
457 2 2 1 1 296 297 304
458 2 2 1 1 296 304 303
459 2 2 1 1 299 298 305
460 2 2 1 1 299 305 306
461 2 2 1 1 298 300 307
462 2 2 1 1 298 307 305
463 2 2 1 1 300 301 308
464 2 2 1 1 300 308 307
465 2 2 1 1 301 302 309
466 2 2 1 1 301 309 308
467 2 2 1 1 302 303 310
468 2 2 1 1 302 310 309
469 2 2 1 1 303 304 311
470 2 2 1 1 303 311 310
471 2 2 1 1 306 305 312
472 2 2 1 1 306 312 313
473 2 2 1 1 305 307 314
474 2 2 1 1 305 314 312
475 2 2 1 1 307 308 315
476 2 2 1 1 307 315 314
477 2 2 1 1 308 309 316
478 2 2 1 1 308 316 315
479 2 2 1 1 309 310 317
480 2 2 1 1 309 317 316
481 2 2 1 1 310 311 318
482 2 2 1 1 310 318 317
483 2 2 1 1 313 312 319
484 2 2 1 1 313 319 320
485 2 2 1 1 312 314 321
486 2 2 1 1 312 321 319
487 2 2 1 1 314 315 322
488 2 2 1 1 314 322 321
489 2 2 1 1 315 316 323
490 2 2 1 1 315 323 322
491 2 2 1 1 316 317 324
492 2 2 1 1 316 324 323
493 2 2 1 1 317 318 325
494 2 2 1 1 317 325 324
495 2 2 1 1 320 319 326
496 2 2 1 1 320 326 327
497 2 2 1 1 319 321 328
498 2 2 1 1 319 328 326
499 2 2 1 1 321 322 329
500 2 2 1 1 321 329 328
501 2 2 1 1 322 323 330
502 2 2 1 1 322 330 329
503 2 2 1 1 323 324 331
504 2 2 1 1 323 331 330
505 2 2 1 1 324 325 332
506 2 2 1 1 324 332 331
507 2 2 1 1 327 326 333
508 2 2 1 1 327 333 334
509 2 2 1 1 326 328 335
510 2 2 1 1 326 335 333
511 2 2 1 1 328 329 336
512 2 2 1 1 328 336 335
513 2 2 1 1 329 330 337
514 2 2 1 1 329 337 336
515 2 2 1 1 330 331 338
516 2 2 1 1 330 338 337
517 2 2 1 1 331 332 339
518 2 2 1 1 331 339 338
519 2 2 1 1 334 333 340
520 2 2 1 1 334 340 341
521 2 2 1 1 333 335 342
522 2 2 1 1 333 342 340
523 2 2 1 1 335 336 343
524 2 2 1 1 335 343 342
525 2 2 1 1 336 337 344
526 2 2 1 1 336 344 343
527 2 2 1 1 337 338 345
528 2 2 1 1 337 345 344
529 2 2 1 1 338 339 346
530 2 2 1 1 338 346 345
531 2 2 1 1 341 340 347
532 2 2 1 1 341 347 348
533 2 2 1 1 340 342 349
534 2 2 1 1 340 349 347
535 2 2 1 1 342 343 350
536 2 2 1 1 342 350 349
537 2 2 1 1 344 350 343
538 2 2 1 1 344 343 343
539 2 2 1 1 344 345 351
540 2 2 1 1 344 351 350
541 2 2 1 1 345 346 352
542 2 2 1 1 345 352 351
543 2 2 1 1 348 347 353
544 2 2 1 1 348 353 354
545 2 2 1 1 347 349 355
546 2 2 1 1 347 355 353
547 2 2 1 1 349 350 356
548 2 2 1 1 349 356 355
549 2 2 1 1 350 351 357
550 2 2 1 1 350 357 356
551 2 2 1 1 351 352 358
552 2 2 1 1 351 358 357
553 2 2 1 1 354 353 359
554 2 2 1 1 354 359 360
555 2 2 1 1 353 355 361
556 2 2 1 1 353 361 359
557 2 2 1 1 355 356 362
558 2 2 1 1 355 362 361
559 2 2 1 1 356 357 363
560 2 2 1 1 356 363 362
561 2 2 1 1 357 358 364
562 2 2 1 1 357 364 363
563 2 2 1 1 360 359 365
564 2 2 1 1 360 365 366
565 2 2 1 1 359 361 367
566 2 2 1 1 359 367 365
567 2 2 1 1 362 367 361
568 2 2 1 1 362 361 361
569 2 2 1 1 362 363 368
570 2 2 1 1 362 368 367
571 2 2 1 1 363 364 369
572 2 2 1 1 363 369 368
573 2 2 1 1 366 365 1
574 2 2 1 1 366 1 3
575 2 2 1 1 365 367 2
576 2 2 1 1 365 2 1
577 2 2 1 1 367 368 370
578 2 2 1 1 367 370 2
579 2 2 1 1 368 369 371
580 2 2 1 1 368 371 370
581 2 2 1 1 3 2 372
582 2 2 1 1 3 372 373
583 2 2 1 1 374 372 2
584 2 2 1 1 374 2 2
585 2 2 1 1 2 370 375
586 2 2 1 1 2 375 374
587 2 2 1 1 370 371 376
588 2 2 1 1 370 376 375
589 2 2 1 1 373 372 377
590 2 2 1 1 373 377 378
591 2 2 1 1 372 374 379
592 2 2 1 1 372 379 377
593 2 2 1 1 374 375 380
594 2 2 1 1 374 380 379
595 2 2 1 1 375 376 17
596 2 2 1 1 375 17 380
597 2 2 1 1 378 377 381
598 2 2 1 1 378 381 382
599 2 2 1 1 377 379 383
600 2 2 1 1 377 383 381
601 2 2 1 1 379 380 384
602 2 2 1 1 379 384 383
603 2 2 1 1 17 384 380
604 2 2 1 1 17 380 380
605 2 2 1 1 385 13 386
606 2 2 1 1 385 386 386
607 2 2 1 1 387 388 389
608 2 2 1 1 387 389 390
609 2 2 1 1 387 385 386
610 2 2 1 1 387 386 388
611 2 2 1 1 385 387 391
612 2 2 1 1 385 391 391
613 2 2 1 1 387 390 392
614 2 2 1 1 387 392 391
615 2 2 1 1 392 390 393
616 2 2 1 1 392 393 394
617 2 2 1 1 393 395 396
618 2 2 1 1 393 396 397
619 2 2 1 1 393 390 389
620 2 2 1 1 393 389 395
621 2 2 1 1 393 397 398
622 2 2 1 1 393 398 394
623 2 2 1 1 398 397 399
624 2 2 1 1 398 399 400
625 2 2 1 1 399 401 402
626 2 2 1 1 399 402 403
627 2 2 1 1 399 397 396
628 2 2 1 1 399 396 401
629 2 2 1 1 399 403 404
630 2 2 1 1 399 404 400
631 2 2 1 1 404 403 405
632 2 2 1 1 404 405 406
633 2 2 1 1 405 407 408
634 2 2 1 1 405 408 409
635 2 2 1 1 405 403 402
636 2 2 1 1 405 402 407
637 2 2 1 1 405 409 410
638 2 2 1 1 405 410 406
639 2 2 1 1 410 409 411
640 2 2 1 1 410 411 412
641 2 2 1 1 411 413 414
642 2 2 1 1 411 414 415
643 2 2 1 1 411 409 408
644 2 2 1 1 411 408 413
645 2 2 1 1 411 415 416
646 2 2 1 1 411 416 412
647 2 2 1 1 416 415 417
648 2 2 1 1 416 417 418
649 2 2 1 1 417 419 420
650 2 2 1 1 417 420 421
651 2 2 1 1 417 415 414
652 2 2 1 1 417 414 419
653 2 2 1 1 417 421 422
654 2 2 1 1 417 422 418
655 2 2 1 1 422 421 423
656 2 2 1 1 422 423 424
657 2 2 1 1 423 425 426
658 2 2 1 1 423 426 427
659 2 2 1 1 423 421 420
660 2 2 1 1 423 420 425
661 2 2 1 1 423 427 428
662 2 2 1 1 423 428 424
663 2 2 1 1 428 427 429
664 2 2 1 1 428 429 430
665 2 2 1 1 429 431 432
666 2 2 1 1 429 432 433
667 2 2 1 1 429 427 426
668 2 2 1 1 429 426 431
669 2 2 1 1 429 433 434
670 2 2 1 1 429 434 430
671 2 2 1 1 434 433 435
672 2 2 1 1 434 435 436
673 2 2 1 1 435 437 438
674 2 2 1 1 435 438 439
675 2 2 1 1 435 433 432
676 2 2 1 1 435 432 437
677 2 2 1 1 435 439 440
678 2 2 1 1 435 440 436
679 2 2 1 1 440 439 441
680 2 2 1 1 440 441 442
681 2 2 1 1 441 443 444
682 2 2 1 1 441 444 445
683 2 2 1 1 441 439 438
684 2 2 1 1 441 438 443
685 2 2 1 1 441 445 446
686 2 2 1 1 441 446 442
687 2 2 1 1 446 445 447
688 2 2 1 1 446 447 448
689 2 2 1 1 447 449 450
690 2 2 1 1 447 450 451
691 2 2 1 1 447 445 444
692 2 2 1 1 447 444 449
693 2 2 1 1 447 451 452
694 2 2 1 1 447 452 448
695 2 2 1 1 452 451 453
696 2 2 1 1 452 453 454
697 2 2 1 1 453 455 456
698 2 2 1 1 453 456 457
699 2 2 1 1 453 451 450
700 2 2 1 1 453 450 455
701 2 2 1 1 453 457 458
702 2 2 1 1 453 458 454
703 2 2 1 1 458 457 459
704 2 2 1 1 458 459 460
705 2 2 1 1 459 461 462
706 2 2 1 1 459 462 463
707 2 2 1 1 459 457 456
708 2 2 1 1 459 456 461
709 2 2 1 1 459 463 464
710 2 2 1 1 459 464 460
711 2 2 1 1 464 463 465
712 2 2 1 1 464 465 466
713 2 2 1 1 465 467 468
714 2 2 1 1 465 468 469
715 2 2 1 1 465 463 462
716 2 2 1 1 465 462 467
717 2 2 1 1 465 469 470
718 2 2 1 1 465 470 466
719 2 2 1 1 470 469 471
720 2 2 1 1 470 471 472
721 2 2 1 1 471 473 474
722 2 2 1 1 471 474 475
723 2 2 1 1 471 469 468
724 2 2 1 1 471 468 473
725 2 2 1 1 471 475 476
726 2 2 1 1 471 476 472
727 2 2 1 1 476 475 477
728 2 2 1 1 476 477 478
729 2 2 1 1 477 479 480
730 2 2 1 1 477 480 481
731 2 2 1 1 477 475 474
732 2 2 1 1 477 474 479
733 2 2 1 1 477 481 482
734 2 2 1 1 477 482 478
735 2 2 1 1 482 481 483
736 2 2 1 1 482 483 484
737 2 2 1 1 483 485 486
738 2 2 1 1 483 486 487
739 2 2 1 1 483 481 480
740 2 2 1 1 483 480 485
741 2 2 1 1 483 487 488
742 2 2 1 1 483 488 484
743 2 2 1 1 488 487 489
744 2 2 1 1 488 489 490
745 2 2 1 1 489 491 492
746 2 2 1 1 489 492 493
747 2 2 1 1 489 487 486
748 2 2 1 1 489 486 491
749 2 2 1 1 489 493 494
750 2 2 1 1 489 494 490
751 2 2 1 1 494 493 495
752 2 2 1 1 494 495 496
753 2 2 1 1 495 497 498
754 2 2 1 1 495 498 499
755 2 2 1 1 495 493 492
756 2 2 1 1 495 492 497
757 2 2 1 1 495 499 500
758 2 2 1 1 495 500 496
759 2 2 1 1 500 499 501
760 2 2 1 1 500 501 502
761 2 2 1 1 501 503 504
762 2 2 1 1 501 504 505
763 2 2 1 1 501 499 498
764 2 2 1 1 501 498 503
765 2 2 1 1 501 505 506
766 2 2 1 1 501 506 502
767 2 2 1 1 506 505 507
768 2 2 1 1 506 507 12
769 2 2 1 1 507 505 504
770 2 2 1 1 507 504 10
771 2 2 1 1 3 509 508
772 2 2 1 1 3 3 508
773 2 2 1 1 6 5 510
774 2 2 1 1 511 6 510
775 2 2 1 1 512 511 510
776 2 2 1 1 513 512 510
777 2 2 1 1 512 515 514
778 2 2 1 1 511 512 514
779 2 2 1 1 6 511 514
780 2 2 1 1 12 6 514
781 2 2 1 1 516 14 13
782 2 2 1 1 517 516 13
783 2 2 1 1 516 518 17
784 2 2 1 1 14 516 17
785 2 2 1 1 520 519 518
786 2 2 1 1 516 520 518
787 2 2 1 1 522 521 519
788 2 2 1 1 520 522 519
789 2 2 1 1 524 523 521
790 2 2 1 1 522 524 521
791 2 2 1 1 526 525 523
792 2 2 1 1 524 526 523
793 2 2 1 1 528 527 525
794 2 2 1 1 526 528 525
795 2 2 1 1 530 529 527
796 2 2 1 1 528 530 527
797 2 2 1 1 532 531 529
798 2 2 1 1 530 532 529
799 2 2 1 1 534 533 531
800 2 2 1 1 532 534 531
801 2 2 1 1 536 535 533
802 2 2 1 1 534 536 533
803 2 2 1 1 538 537 535
804 2 2 1 1 536 538 535
805 2 2 1 1 540 539 537
806 2 2 1 1 538 540 537
807 2 2 1 1 542 541 539
808 2 2 1 1 540 542 539
809 2 2 1 1 544 543 541
810 2 2 1 1 542 544 541
811 2 2 1 1 546 545 543
812 2 2 1 1 544 546 543
813 2 2 1 1 548 547 545
814 2 2 1 1 546 548 545
815 2 2 1 1 550 549 547
816 2 2 1 1 548 550 547
817 2 2 1 1 552 551 549
818 2 2 1 1 550 552 549
819 2 2 1 1 554 553 551
820 2 2 1 1 552 554 551
821 2 2 1 1 556 555 553
822 2 2 1 1 554 556 553
823 2 2 1 1 558 557 555
824 2 2 1 1 556 558 555
825 2 2 1 1 560 559 557
826 2 2 1 1 558 560 557
827 2 2 1 1 562 561 559
828 2 2 1 1 560 562 559
829 2 2 1 1 564 563 561
830 2 2 1 1 562 564 561
831 2 2 1 1 566 565 563
832 2 2 1 1 564 566 563
833 2 2 1 1 568 567 565
834 2 2 1 1 566 568 565
835 2 2 1 1 570 569 567
836 2 2 1 1 568 570 567
837 2 2 1 1 572 571 569
838 2 2 1 1 570 572 569
839 2 2 1 1 574 573 571
840 2 2 1 1 572 574 571
841 2 2 1 1 576 575 573
842 2 2 1 1 574 576 573
843 2 2 1 1 578 577 575
844 2 2 1 1 576 578 575
845 2 2 1 1 580 579 577
846 2 2 1 1 578 580 577
847 2 2 1 1 582 581 579
848 2 2 1 1 580 582 579
849 2 2 1 1 584 583 581
850 2 2 1 1 582 584 581
851 2 2 1 1 586 585 583
852 2 2 1 1 584 586 583
853 2 2 1 1 588 587 585
854 2 2 1 1 586 588 585
855 2 2 1 1 590 589 587
856 2 2 1 1 588 590 587
857 2 2 1 1 592 591 589
858 2 2 1 1 590 592 589
859 2 2 1 1 594 593 591
860 2 2 1 1 592 594 591
861 2 2 1 1 596 595 593
862 2 2 1 1 594 596 593
863 2 2 1 1 512 513 595
864 2 2 1 1 596 512 595
865 2 2 1 1 598 597 596
866 2 2 1 1 594 598 596
867 2 2 1 1 515 512 596
868 2 2 1 1 597 515 596
869 2 2 1 1 592 599 598
870 2 2 1 1 594 592 598
871 2 2 1 1 590 600 599
872 2 2 1 1 592 590 599
873 2 2 1 1 588 601 600
874 2 2 1 1 590 588 600
875 2 2 1 1 586 602 601
876 2 2 1 1 588 586 601
877 2 2 1 1 584 603 602
878 2 2 1 1 586 584 602
879 2 2 1 1 582 604 603
880 2 2 1 1 584 582 603
881 2 2 1 1 580 605 604
882 2 2 1 1 582 580 604
883 2 2 1 1 578 606 605
884 2 2 1 1 580 578 605
885 2 2 1 1 576 607 606
886 2 2 1 1 578 576 606
887 2 2 1 1 574 608 607
888 2 2 1 1 576 574 607
889 2 2 1 1 572 609 608
890 2 2 1 1 574 572 608
891 2 2 1 1 570 610 609
892 2 2 1 1 572 570 609
893 2 2 1 1 568 611 610
894 2 2 1 1 570 568 610
895 2 2 1 1 566 612 611
896 2 2 1 1 568 566 611
897 2 2 1 1 564 613 612
898 2 2 1 1 566 564 612
899 2 2 1 1 562 614 613
900 2 2 1 1 564 562 613
901 2 2 1 1 560 615 614
902 2 2 1 1 562 560 614
903 2 2 1 1 558 616 615
904 2 2 1 1 560 558 615
905 2 2 1 1 556 617 616
906 2 2 1 1 558 556 616
907 2 2 1 1 554 618 617
908 2 2 1 1 556 554 617
909 2 2 1 1 552 619 618
910 2 2 1 1 554 552 618
911 2 2 1 1 550 620 619
912 2 2 1 1 552 550 619
913 2 2 1 1 548 621 620
914 2 2 1 1 550 548 620
915 2 2 1 1 546 622 621
916 2 2 1 1 548 546 621
917 2 2 1 1 544 623 622
918 2 2 1 1 546 544 622
919 2 2 1 1 542 624 623
920 2 2 1 1 544 542 623
921 2 2 1 1 540 625 624
922 2 2 1 1 542 540 624
923 2 2 1 1 538 626 625
924 2 2 1 1 540 538 625
925 2 2 1 1 536 627 626
926 2 2 1 1 538 536 626
927 2 2 1 1 534 628 627
928 2 2 1 1 536 534 627
929 2 2 1 1 532 629 628
930 2 2 1 1 534 532 628
931 2 2 1 1 530 630 629
932 2 2 1 1 532 530 629
933 2 2 1 1 528 631 630
934 2 2 1 1 530 528 630
935 2 2 1 1 526 632 631
936 2 2 1 1 528 526 631
937 2 2 1 1 524 633 632
938 2 2 1 1 526 524 632
939 2 2 1 1 522 634 633
940 2 2 1 1 524 522 633
941 2 2 1 1 520 635 634
942 2 2 1 1 522 520 634
943 2 2 1 1 516 517 635
944 2 2 1 1 520 516 635
945 2 2 1 1 136 510 5
946 2 2 1 1 136 136 5
947 2 2 1 1 636 510 136
948 2 2 1 1 138 636 136
949 2 2 1 1 510 636 637
950 2 2 1 1 510 510 637
951 2 2 1 1 138 141 638
952 2 2 1 1 138 138 638
953 2 2 1 1 639 636 138
954 2 2 1 1 638 639 138
955 2 2 1 1 640 637 636
956 2 2 1 1 639 640 636
957 2 2 1 1 641 638 141
958 2 2 1 1 145 641 141
959 2 2 1 1 642 639 638
960 2 2 1 1 641 642 638
961 2 2 1 1 643 640 639
962 2 2 1 1 642 643 639
963 2 2 1 1 644 641 145
964 2 2 1 1 149 644 145
965 2 2 1 1 645 642 641
966 2 2 1 1 644 645 641
967 2 2 1 1 646 643 642
968 2 2 1 1 645 646 642
969 2 2 1 1 647 644 149
970 2 2 1 1 153 647 149
971 2 2 1 1 644 647 648
972 2 2 1 1 644 644 648
973 2 2 1 1 649 645 644
974 2 2 1 1 648 649 644
975 2 2 1 1 650 646 645
976 2 2 1 1 649 650 645
977 2 2 1 1 651 647 153
978 2 2 1 1 158 651 153
979 2 2 1 1 652 648 647
980 2 2 1 1 651 652 647
981 2 2 1 1 653 649 648
982 2 2 1 1 652 653 648
983 2 2 1 1 654 650 649
984 2 2 1 1 653 654 649
985 2 2 1 1 655 651 158
986 2 2 1 1 163 655 158
987 2 2 1 1 656 652 651
988 2 2 1 1 655 656 651
989 2 2 1 1 652 656 657
990 2 2 1 1 652 652 657
991 2 2 1 1 658 653 652
992 2 2 1 1 657 658 652
993 2 2 1 1 659 654 653
994 2 2 1 1 658 659 653
995 2 2 1 1 660 655 163
996 2 2 1 1 169 660 163
997 2 2 1 1 661 656 655
998 2 2 1 1 660 661 655
999 2 2 1 1 662 657 656
1000 2 2 1 1 661 662 656
1001 2 2 1 1 663 658 657
1002 2 2 1 1 662 663 657
1003 2 2 1 1 664 659 658
1004 2 2 1 1 663 664 658
1005 2 2 1 1 665 660 169
1006 2 2 1 1 175 665 169
1007 2 2 1 1 666 661 660
1008 2 2 1 1 665 666 660
1009 2 2 1 1 667 662 661
1010 2 2 1 1 666 667 661
1011 2 2 1 1 668 663 662
1012 2 2 1 1 667 668 662
1013 2 2 1 1 669 664 663
1014 2 2 1 1 668 669 663
1015 2 2 1 1 670 665 175
1016 2 2 1 1 181 670 175
1017 2 2 1 1 671 666 665
1018 2 2 1 1 670 671 665
1019 2 2 1 1 672 667 666
1020 2 2 1 1 671 672 666
1021 2 2 1 1 673 668 667
1022 2 2 1 1 672 673 667
1023 2 2 1 1 674 669 668
1024 2 2 1 1 673 674 668
1025 2 2 1 1 675 670 181
1026 2 2 1 1 187 675 181
1027 2 2 1 1 676 671 670
1028 2 2 1 1 675 676 670
1029 2 2 1 1 677 672 671
1030 2 2 1 1 676 677 671
1031 2 2 1 1 672 677 678
1032 2 2 1 1 672 672 678
1033 2 2 1 1 679 673 672
1034 2 2 1 1 678 679 672
1035 2 2 1 1 680 674 673
1036 2 2 1 1 679 680 673
1037 2 2 1 1 681 675 187
1038 2 2 1 1 194 681 187
1039 2 2 1 1 682 676 675
1040 2 2 1 1 681 682 675
1041 2 2 1 1 683 677 676
1042 2 2 1 1 682 683 676
1043 2 2 1 1 684 678 677
1044 2 2 1 1 683 684 677
1045 2 2 1 1 685 679 678
1046 2 2 1 1 684 685 678
1047 2 2 1 1 686 680 679
1048 2 2 1 1 685 686 679
1049 2 2 1 1 687 681 194
1050 2 2 1 1 201 687 194
1051 2 2 1 1 688 682 681
1052 2 2 1 1 687 688 681
1053 2 2 1 1 689 683 682
1054 2 2 1 1 688 689 682
1055 2 2 1 1 690 684 683
1056 2 2 1 1 689 690 683
1057 2 2 1 1 691 685 684
1058 2 2 1 1 690 691 684
1059 2 2 1 1 692 686 685
1060 2 2 1 1 691 692 685
1061 2 2 1 1 693 687 201
1062 2 2 1 1 208 693 201
1063 2 2 1 1 694 688 687
1064 2 2 1 1 693 694 687
1065 2 2 1 1 695 689 688
1066 2 2 1 1 694 695 688
1067 2 2 1 1 696 690 689
1068 2 2 1 1 695 696 689
1069 2 2 1 1 697 691 690
1070 2 2 1 1 696 697 690
1071 2 2 1 1 698 692 691
1072 2 2 1 1 697 698 691
1073 2 2 1 1 699 693 208
1074 2 2 1 1 215 699 208
1075 2 2 1 1 700 694 693
1076 2 2 1 1 699 700 693
1077 2 2 1 1 701 695 694
1078 2 2 1 1 700 701 694
1079 2 2 1 1 702 696 695
1080 2 2 1 1 701 702 695
1081 2 2 1 1 703 697 696
1082 2 2 1 1 702 703 696
1083 2 2 1 1 704 698 697
1084 2 2 1 1 703 704 697
1085 2 2 1 1 705 699 215
1086 2 2 1 1 222 705 215
1087 2 2 1 1 706 700 699
1088 2 2 1 1 705 706 699
1089 2 2 1 1 707 701 700
1090 2 2 1 1 706 707 700
1091 2 2 1 1 708 702 701
1092 2 2 1 1 707 708 701
1093 2 2 1 1 709 703 702
1094 2 2 1 1 708 709 702
1095 2 2 1 1 710 704 703
1096 2 2 1 1 709 710 703
1097 2 2 1 1 711 705 222
1098 2 2 1 1 229 711 222
1099 2 2 1 1 712 706 705
1100 2 2 1 1 711 712 705
1101 2 2 1 1 713 707 706
1102 2 2 1 1 712 713 706
1103 2 2 1 1 714 708 707
1104 2 2 1 1 713 714 707
1105 2 2 1 1 715 709 708
1106 2 2 1 1 714 715 708
1107 2 2 1 1 716 710 709
1108 2 2 1 1 715 716 709
1109 2 2 1 1 717 711 229
1110 2 2 1 1 236 717 229
1111 2 2 1 1 718 712 711
1112 2 2 1 1 717 718 711
1113 2 2 1 1 719 713 712
1114 2 2 1 1 718 719 712
1115 2 2 1 1 720 714 713
1116 2 2 1 1 719 720 713
1117 2 2 1 1 721 715 714
1118 2 2 1 1 720 721 714
1119 2 2 1 1 722 716 715
1120 2 2 1 1 721 722 715
1121 2 2 1 1 723 717 236
1122 2 2 1 1 243 723 236
1123 2 2 1 1 724 718 717
1124 2 2 1 1 723 724 717
1125 2 2 1 1 725 719 718
1126 2 2 1 1 724 725 718
1127 2 2 1 1 726 720 719
1128 2 2 1 1 725 726 719
1129 2 2 1 1 727 721 720
1130 2 2 1 1 726 727 720
1131 2 2 1 1 728 722 721
1132 2 2 1 1 727 728 721
1133 2 2 1 1 729 723 243
1134 2 2 1 1 250 729 243
1135 2 2 1 1 730 724 723
1136 2 2 1 1 729 730 723
1137 2 2 1 1 731 725 724
1138 2 2 1 1 730 731 724
1139 2 2 1 1 732 726 725
1140 2 2 1 1 731 732 725
1141 2 2 1 1 733 727 726
1142 2 2 1 1 732 733 726
1143 2 2 1 1 734 728 727
1144 2 2 1 1 733 734 727
1145 2 2 1 1 735 729 250
1146 2 2 1 1 257 735 250
1147 2 2 1 1 736 730 729
1148 2 2 1 1 735 736 729
1149 2 2 1 1 737 731 730
1150 2 2 1 1 736 737 730
1151 2 2 1 1 738 732 731
1152 2 2 1 1 737 738 731
1153 2 2 1 1 739 733 732
1154 2 2 1 1 738 739 732
1155 2 2 1 1 740 734 733
1156 2 2 1 1 739 740 733
1157 2 2 1 1 741 735 257
1158 2 2 1 1 264 741 257
1159 2 2 1 1 742 736 735
1160 2 2 1 1 741 742 735
1161 2 2 1 1 743 737 736
1162 2 2 1 1 742 743 736
1163 2 2 1 1 744 738 737
1164 2 2 1 1 743 744 737
1165 2 2 1 1 745 739 738
1166 2 2 1 1 744 745 738
1167 2 2 1 1 746 740 739
1168 2 2 1 1 745 746 739
1169 2 2 1 1 747 741 264
1170 2 2 1 1 271 747 264
1171 2 2 1 1 748 742 741
1172 2 2 1 1 747 748 741
1173 2 2 1 1 749 743 742
1174 2 2 1 1 748 749 742
1175 2 2 1 1 750 744 743
1176 2 2 1 1 749 750 743
1177 2 2 1 1 751 745 744
1178 2 2 1 1 750 751 744
1179 2 2 1 1 752 746 745
1180 2 2 1 1 751 752 745
1181 2 2 1 1 753 747 271
1182 2 2 1 1 278 753 271
1183 2 2 1 1 754 748 747
1184 2 2 1 1 753 754 747
1185 2 2 1 1 755 749 748
1186 2 2 1 1 754 755 748
1187 2 2 1 1 756 750 749
1188 2 2 1 1 755 756 749
1189 2 2 1 1 757 751 750
1190 2 2 1 1 756 757 750
1191 2 2 1 1 758 752 751
1192 2 2 1 1 757 758 751
1193 2 2 1 1 759 753 278
1194 2 2 1 1 285 759 278
1195 2 2 1 1 760 754 753
1196 2 2 1 1 759 760 753
1197 2 2 1 1 761 755 754
1198 2 2 1 1 760 761 754
1199 2 2 1 1 762 756 755
1200 2 2 1 1 761 762 755
1201 2 2 1 1 763 757 756
1202 2 2 1 1 762 763 756
1203 2 2 1 1 764 758 757
1204 2 2 1 1 763 764 757
1205 2 2 1 1 765 759 285
1206 2 2 1 1 292 765 285
1207 2 2 1 1 766 760 759
1208 2 2 1 1 765 766 759
1209 2 2 1 1 767 761 760
1210 2 2 1 1 766 767 760
1211 2 2 1 1 768 762 761
1212 2 2 1 1 767 768 761
1213 2 2 1 1 769 763 762
1214 2 2 1 1 768 769 762
1215 2 2 1 1 770 764 763
1216 2 2 1 1 769 770 763
1217 2 2 1 1 771 765 292
1218 2 2 1 1 299 771 292
1219 2 2 1 1 772 766 765
1220 2 2 1 1 771 772 765
1221 2 2 1 1 773 767 766
1222 2 2 1 1 772 773 766
1223 2 2 1 1 774 768 767
1224 2 2 1 1 773 774 767
1225 2 2 1 1 775 769 768
1226 2 2 1 1 774 775 768
1227 2 2 1 1 776 770 769
1228 2 2 1 1 775 776 769
1229 2 2 1 1 777 771 299
1230 2 2 1 1 306 777 299
1231 2 2 1 1 778 772 771
1232 2 2 1 1 777 778 771
1233 2 2 1 1 779 773 772
1234 2 2 1 1 778 779 772
1235 2 2 1 1 780 774 773
1236 2 2 1 1 779 780 773
1237 2 2 1 1 781 775 774
1238 2 2 1 1 780 781 774
1239 2 2 1 1 782 776 775
1240 2 2 1 1 781 782 775
1241 2 2 1 1 783 777 306
1242 2 2 1 1 313 783 306
1243 2 2 1 1 784 778 777
1244 2 2 1 1 783 784 777
1245 2 2 1 1 785 779 778
1246 2 2 1 1 784 785 778
1247 2 2 1 1 786 780 779
1248 2 2 1 1 785 786 779
1249 2 2 1 1 787 781 780
1250 2 2 1 1 786 787 780
1251 2 2 1 1 788 782 781
1252 2 2 1 1 787 788 781
1253 2 2 1 1 789 783 313
1254 2 2 1 1 320 789 313
1255 2 2 1 1 790 784 783
1256 2 2 1 1 789 790 783
1257 2 2 1 1 791 785 784
1258 2 2 1 1 790 791 784
1259 2 2 1 1 792 786 785
1260 2 2 1 1 791 792 785
1261 2 2 1 1 793 787 786
1262 2 2 1 1 792 793 786
1263 2 2 1 1 794 788 787
1264 2 2 1 1 793 794 787
1265 2 2 1 1 795 789 320
1266 2 2 1 1 327 795 320
1267 2 2 1 1 796 790 789
1268 2 2 1 1 795 796 789
1269 2 2 1 1 797 791 790
1270 2 2 1 1 796 797 790
1271 2 2 1 1 798 792 791
1272 2 2 1 1 797 798 791
1273 2 2 1 1 799 793 792
1274 2 2 1 1 798 799 792
1275 2 2 1 1 800 794 793
1276 2 2 1 1 799 800 793
1277 2 2 1 1 801 795 327
1278 2 2 1 1 334 801 327
1279 2 2 1 1 802 796 795
1280 2 2 1 1 801 802 795
1281 2 2 1 1 803 797 796
1282 2 2 1 1 802 803 796
1283 2 2 1 1 804 798 797
1284 2 2 1 1 803 804 797
1285 2 2 1 1 805 799 798
1286 2 2 1 1 804 805 798
1287 2 2 1 1 806 800 799
1288 2 2 1 1 805 806 799
1289 2 2 1 1 807 801 334
1290 2 2 1 1 341 807 334
1291 2 2 1 1 808 802 801
1292 2 2 1 1 807 808 801
1293 2 2 1 1 809 803 802
1294 2 2 1 1 808 809 802
1295 2 2 1 1 810 804 803
1296 2 2 1 1 809 810 803
1297 2 2 1 1 811 805 804
1298 2 2 1 1 810 811 804
1299 2 2 1 1 812 806 805
1300 2 2 1 1 811 812 805
1301 2 2 1 1 813 807 341
1302 2 2 1 1 348 813 341
1303 2 2 1 1 814 808 807
1304 2 2 1 1 813 814 807
1305 2 2 1 1 815 809 808
1306 2 2 1 1 814 815 808
1307 2 2 1 1 809 815 810
1308 2 2 1 1 809 809 810
1309 2 2 1 1 816 811 810
1310 2 2 1 1 815 816 810
1311 2 2 1 1 817 812 811
1312 2 2 1 1 816 817 811
1313 2 2 1 1 818 813 348
1314 2 2 1 1 354 818 348
1315 2 2 1 1 819 814 813
1316 2 2 1 1 818 819 813
1317 2 2 1 1 820 815 814
1318 2 2 1 1 819 820 814
1319 2 2 1 1 821 816 815
1320 2 2 1 1 820 821 815
1321 2 2 1 1 822 817 816
1322 2 2 1 1 821 822 816
1323 2 2 1 1 823 818 354
1324 2 2 1 1 360 823 354
1325 2 2 1 1 824 819 818
1326 2 2 1 1 823 824 818
1327 2 2 1 1 825 820 819
1328 2 2 1 1 824 825 819
1329 2 2 1 1 826 821 820
1330 2 2 1 1 825 826 820
1331 2 2 1 1 827 822 821
1332 2 2 1 1 826 827 821
1333 2 2 1 1 828 823 360
1334 2 2 1 1 366 828 360
1335 2 2 1 1 829 824 823
1336 2 2 1 1 828 829 823
1337 2 2 1 1 824 829 825
1338 2 2 1 1 824 824 825
1339 2 2 1 1 830 826 825
1340 2 2 1 1 829 830 825
1341 2 2 1 1 831 827 826
1342 2 2 1 1 830 831 826
1343 2 2 1 1 508 828 366
1344 2 2 1 1 3 508 366
1345 2 2 1 1 509 829 828
1346 2 2 1 1 508 509 828
1347 2 2 1 1 832 830 829
1348 2 2 1 1 509 832 829
1349 2 2 1 1 833 831 830
1350 2 2 1 1 832 833 830
1351 2 2 1 1 834 509 3
1352 2 2 1 1 373 834 3
1353 2 2 1 1 509 834 835
1354 2 2 1 1 509 509 835
1355 2 2 1 1 836 832 509
1356 2 2 1 1 835 836 509
1357 2 2 1 1 837 833 832
1358 2 2 1 1 836 837 832
1359 2 2 1 1 838 834 373
1360 2 2 1 1 378 838 373
1361 2 2 1 1 839 835 834
1362 2 2 1 1 838 839 834
1363 2 2 1 1 840 836 835
1364 2 2 1 1 839 840 835
1365 2 2 1 1 17 837 836
1366 2 2 1 1 840 17 836
1367 2 2 1 1 381 838 378
1368 2 2 1 1 382 381 378
1369 2 2 1 1 383 839 838
1370 2 2 1 1 381 383 838
1371 2 2 1 1 384 840 839
1372 2 2 1 1 383 384 839
1373 2 2 1 1 840 384 17
1374 2 2 1 1 840 840 17
1375 2 2 1 1 841 13 385
1376 2 2 1 1 841 841 385
1377 2 2 1 1 844 843 842
1378 2 2 1 1 845 844 842
1379 2 2 1 1 841 385 842
1380 2 2 1 1 843 841 842
1381 2 2 1 1 391 842 385
1382 2 2 1 1 391 391 385
1383 2 2 1 1 392 845 842
1384 2 2 1 1 391 392 842
1385 2 2 1 1 846 845 392
1386 2 2 1 1 394 846 392
1387 2 2 1 1 848 847 846
1388 2 2 1 1 849 848 846
1389 2 2 1 1 844 845 846
1390 2 2 1 1 847 844 846
1391 2 2 1 1 398 849 846
1392 2 2 1 1 394 398 846
1393 2 2 1 1 850 849 398
1394 2 2 1 1 400 850 398
1395 2 2 1 1 852 851 850
1396 2 2 1 1 853 852 850
1397 2 2 1 1 848 849 850
1398 2 2 1 1 851 848 850
1399 2 2 1 1 404 853 850
1400 2 2 1 1 400 404 850
1401 2 2 1 1 854 853 404
1402 2 2 1 1 406 854 404
1403 2 2 1 1 856 855 854
1404 2 2 1 1 857 856 854
1405 2 2 1 1 852 853 854
1406 2 2 1 1 855 852 854
1407 2 2 1 1 410 857 854
1408 2 2 1 1 406 410 854
1409 2 2 1 1 858 857 410
1410 2 2 1 1 412 858 410
1411 2 2 1 1 860 859 858
1412 2 2 1 1 861 860 858
1413 2 2 1 1 856 857 858
1414 2 2 1 1 859 856 858
1415 2 2 1 1 416 861 858
1416 2 2 1 1 412 416 858
1417 2 2 1 1 862 861 416
1418 2 2 1 1 418 862 416
1419 2 2 1 1 864 863 862
1420 2 2 1 1 865 864 862
1421 2 2 1 1 860 861 862
1422 2 2 1 1 863 860 862
1423 2 2 1 1 422 865 862
1424 2 2 1 1 418 422 862
1425 2 2 1 1 866 865 422
1426 2 2 1 1 424 866 422
1427 2 2 1 1 868 867 866
1428 2 2 1 1 869 868 866
1429 2 2 1 1 864 865 866
1430 2 2 1 1 867 864 866
1431 2 2 1 1 428 869 866
1432 2 2 1 1 424 428 866
1433 2 2 1 1 870 869 428
1434 2 2 1 1 430 870 428
1435 2 2 1 1 872 871 870
1436 2 2 1 1 873 872 870
1437 2 2 1 1 868 869 870
1438 2 2 1 1 871 868 870
1439 2 2 1 1 434 873 870
1440 2 2 1 1 430 434 870
1441 2 2 1 1 874 873 434
1442 2 2 1 1 436 874 434
1443 2 2 1 1 876 875 874
1444 2 2 1 1 877 876 874
1445 2 2 1 1 872 873 874
1446 2 2 1 1 875 872 874
1447 2 2 1 1 440 877 874
1448 2 2 1 1 436 440 874
1449 2 2 1 1 878 877 440
1450 2 2 1 1 442 878 440
1451 2 2 1 1 880 879 878
1452 2 2 1 1 881 880 878
1453 2 2 1 1 876 877 878
1454 2 2 1 1 879 876 878
1455 2 2 1 1 446 881 878
1456 2 2 1 1 442 446 878
1457 2 2 1 1 882 881 446
1458 2 2 1 1 448 882 446
1459 2 2 1 1 884 883 882
1460 2 2 1 1 885 884 882
1461 2 2 1 1 880 881 882
1462 2 2 1 1 883 880 882
1463 2 2 1 1 452 885 882
1464 2 2 1 1 448 452 882
1465 2 2 1 1 886 885 452
1466 2 2 1 1 454 886 452
1467 2 2 1 1 888 887 886
1468 2 2 1 1 889 888 886
1469 2 2 1 1 884 885 886
1470 2 2 1 1 887 884 886
1471 2 2 1 1 458 889 886
1472 2 2 1 1 454 458 886
1473 2 2 1 1 890 889 458
1474 2 2 1 1 460 890 458
1475 2 2 1 1 892 891 890
1476 2 2 1 1 893 892 890
1477 2 2 1 1 888 889 890
1478 2 2 1 1 891 888 890
1479 2 2 1 1 464 893 890
1480 2 2 1 1 460 464 890
1481 2 2 1 1 894 893 464
1482 2 2 1 1 466 894 464
1483 2 2 1 1 896 895 894
1484 2 2 1 1 897 896 894
1485 2 2 1 1 892 893 894
1486 2 2 1 1 895 892 894
1487 2 2 1 1 470 897 894
1488 2 2 1 1 466 470 894
1489 2 2 1 1 898 897 470
1490 2 2 1 1 472 898 470
1491 2 2 1 1 900 899 898
1492 2 2 1 1 901 900 898
1493 2 2 1 1 896 897 898
1494 2 2 1 1 899 896 898
1495 2 2 1 1 476 901 898
1496 2 2 1 1 472 476 898
1497 2 2 1 1 902 901 476
1498 2 2 1 1 478 902 476
1499 2 2 1 1 904 903 902
1500 2 2 1 1 905 904 902
1501 2 2 1 1 900 901 902
1502 2 2 1 1 903 900 902
1503 2 2 1 1 482 905 902
1504 2 2 1 1 478 482 902
1505 2 2 1 1 906 905 482
1506 2 2 1 1 484 906 482
1507 2 2 1 1 908 907 906
1508 2 2 1 1 909 908 906
1509 2 2 1 1 904 905 906
1510 2 2 1 1 907 904 906
1511 2 2 1 1 488 909 906
1512 2 2 1 1 484 488 906
1513 2 2 1 1 910 909 488
1514 2 2 1 1 490 910 488
1515 2 2 1 1 912 911 910
1516 2 2 1 1 913 912 910
1517 2 2 1 1 908 909 910
1518 2 2 1 1 911 908 910
1519 2 2 1 1 494 913 910
1520 2 2 1 1 490 494 910
1521 2 2 1 1 914 913 494
1522 2 2 1 1 496 914 494
1523 2 2 1 1 916 915 914
1524 2 2 1 1 917 916 914
1525 2 2 1 1 912 913 914
1526 2 2 1 1 915 912 914
1527 2 2 1 1 500 917 914
1528 2 2 1 1 496 500 914
1529 2 2 1 1 918 917 500
1530 2 2 1 1 502 918 500
1531 2 2 1 1 920 919 918
1532 2 2 1 1 921 920 918
1533 2 2 1 1 916 917 918
1534 2 2 1 1 919 916 918
1535 2 2 1 1 506 921 918
1536 2 2 1 1 502 506 918
1537 2 2 1 1 922 921 506
1538 2 2 1 1 12 922 506
1539 2 2 1 1 920 921 922
1540 2 2 1 1 514 920 922
$EndElements
