# Converted from GDF: nacelle.gdf
# Rhino->WAMIT file export (mesh)
# Vertices: 1366
# Faces: 2718

o Rhino->WAMIT_file_export_(mesh)

v -4.692290 -0.000380 4.840990
v -4.692290 -5.263880 4.840990
v -4.761250 -5.222370 4.184910
v -4.829120 -5.098520 3.539180
v -4.894830 -4.894260 2.913980
v -4.957350 -4.612820 2.319170
v -5.015680 -4.258640 1.764130
v -5.068920 -3.837300 1.257620
v -5.116220 -3.355460 0.807610
v -5.156830 -2.820700 0.421220
v -5.190120 -2.241470 0.104520
v -5.215550 -1.626890 -0.137470
v -5.232730 -0.986660 -0.300950
v -5.241390 -0.330880 -0.383350
v -5.241390 0.330120 -0.383350
v -5.232730 0.985900 -0.300950
v -5.215550 1.626130 -0.137470
v -5.190120 2.240710 0.104520
v -5.156830 2.819950 0.421220
v -5.116220 3.354700 0.807610
v -5.068920 3.836550 1.257620
v -5.015680 4.257880 1.764130
v -4.957350 4.612060 2.319170
v -4.894830 4.893500 2.913980
v -4.829120 5.097760 3.539180
v -4.761250 5.221620 4.184910
v -4.692290 5.263120 4.840990
v -4.623340 5.221620 5.497070
v -4.555470 5.097760 6.142800
v -4.489760 4.893500 6.768000
v -4.427240 4.612060 7.362810
v -4.368900 4.257880 7.917850
v -4.315670 3.836550 8.424370
v -4.268370 3.354700 8.874370
v -4.227760 2.819950 9.260770
v -4.194470 2.240710 9.577460
v -4.169040 1.626130 9.819450
v -4.151850 0.985900 9.982940
v -4.143190 0.330120 10.065330
v -4.143190 -0.330880 10.065330
v -4.151850 -0.986660 9.982940
v -4.169040 -1.626890 9.819450
v -4.194470 -2.241470 9.577460
v -4.227760 -2.820700 9.260770
v -4.268370 -3.355460 8.874370
v -4.315670 -3.837300 8.424370
v -4.368900 -4.258640 7.917850
v -4.427240 -4.612820 7.362810
v -4.489760 -4.894260 6.768000
v -4.555470 -5.098520 6.142800
v -4.623340 -5.222370 5.497070
v -7.034390 -0.000380 5.087160
v -7.103350 -5.222370 4.431080
v -7.034390 -5.263880 5.087160
v -7.171220 -5.098520 3.785350
v -7.236930 -4.894260 3.160150
v -7.299450 -4.612820 2.565340
v -7.357780 -4.258640 2.010300
v -7.411020 -3.837300 1.503780
v -7.458320 -3.355460 1.053780
v -7.498930 -2.820700 0.667380
v -7.532210 -2.241470 0.350690
v -7.557650 -1.626890 0.108690
v -7.574830 -0.986660 -0.054790
v -7.583490 -0.330880 -0.137180
v -7.583490 0.330120 -0.137180
v -7.574830 0.985900 -0.054790
v -7.557650 1.626130 0.108690
v -7.532210 2.240710 0.350690
v -7.498930 2.819950 0.667380
v -7.458320 3.354700 1.053780
v -7.411020 3.836550 1.503780
v -7.357780 4.257880 2.010300
v -7.299450 4.612060 2.565340
v -7.236930 4.893500 3.160150
v -7.171220 5.097760 3.785350
v -7.103350 5.221620 4.431080
v -7.034390 5.263120 5.087160
v -6.965440 5.221620 5.743230
v -6.897570 5.097760 6.388960
v -6.831860 4.893500 7.014160
v -6.769340 4.612060 7.608970
v -6.711000 4.257880 8.164010
v -6.657760 3.836550 8.670530
v -6.610470 3.354700 9.120530
v -6.569860 2.819950 9.506930
v -6.536570 2.240710 9.823620
v -6.511130 1.626130 10.065620
v -6.493950 0.985900 10.229100
v -6.485290 0.330120 10.311490
v -6.485290 -0.330880 10.311490
v -6.493950 -0.986660 10.229100
v -6.511130 -1.626890 10.065620
v -6.536570 -2.241470 9.823620
v -6.569860 -2.820700 9.506930
v -6.610470 -3.355460 9.120530
v -6.657760 -3.837300 8.670530
v -6.711000 -4.258640 8.164010
v -6.769340 -4.612820 7.608970
v -6.831860 -4.894260 7.014160
v -6.897570 -5.098520 6.388960
v -6.965440 -5.222370 5.743230
v -5.322340 -0.958160 10.111350
v -5.313160 -0.000390 10.198740
v -6.484210 -0.000390 10.321820
v -6.493390 -0.958160 10.234430
v -4.151290 -0.958160 9.988270
v -4.142110 -0.000390 10.075660
v -5.351790 -1.937860 9.831200
v -6.522840 -1.937860 9.954290
v -4.180740 -1.937860 9.708120
v -5.402840 -2.880630 9.345460
v -6.573890 -2.880630 9.468550
v -4.231790 -2.880630 9.222380
v -5.474300 -3.722250 8.665540
v -6.645350 -3.722250 8.788620
v -4.303250 -3.722250 8.542460
v -5.562280 -4.405920 7.828530
v -6.733330 -4.405920 7.951620
v -4.391230 -4.405920 7.705450
v -5.660820 -4.894340 6.890930
v -6.831870 -4.894340 7.014010
v -4.489770 -4.894340 6.767840
v -5.763230 -5.176020 5.916590
v -6.934280 -5.176020 6.039670
v -4.592180 -5.176020 5.793510
v -5.863340 -5.263890 4.964070
v -7.034390 -5.263890 5.087160
v -4.692290 -5.263890 4.840990
v -5.963460 -5.176020 4.011560
v -7.134510 -5.176020 4.134640
v -4.792410 -5.176020 3.888470
v -6.065860 -4.894340 3.037220
v -7.236910 -4.894340 3.160300
v -4.894810 -4.894340 2.914140
v -6.164410 -4.405920 2.099610
v -7.335460 -4.405920 2.222690
v -4.993360 -4.405920 1.976530
v -6.252380 -3.722250 1.262610
v -7.423430 -3.722250 1.385690
v -5.081330 -3.722250 1.139520
v -6.323850 -2.880630 0.582680
v -7.494890 -2.880630 0.705760
v -5.152800 -2.880630 0.459600
v -6.374900 -1.937860 0.096940
v -7.545950 -1.937860 0.220020
v -5.203850 -1.937860 -0.026140
v -6.404340 -0.958160 -0.183200
v -7.575390 -0.958160 -0.060120
v -5.233290 -0.958160 -0.306280
v -6.413530 -0.000390 -0.270590
v -7.584580 -0.000390 -0.147510
v -5.242480 -0.000390 -0.393680
v -6.404340 0.957370 -0.183200
v -7.575390 0.957370 -0.060120
v -5.233290 0.957370 -0.306280
v -6.374900 1.937070 0.096940
v -7.545950 1.937070 0.220020
v -5.203850 1.937070 -0.026140
v -6.323850 2.879840 0.582680
v -7.494890 2.879840 0.705760
v -5.152800 2.879840 0.459600
v -6.252380 3.721460 1.262610
v -7.423430 3.721460 1.385690
v -5.081330 3.721460 1.139520
v -6.164410 4.405130 2.099610
v -7.335460 4.405130 2.222690
v -4.993360 4.405130 1.976530
v -6.065860 4.893550 3.037220
v -7.236910 4.893550 3.160300
v -4.894810 4.893550 2.914140
v -5.963460 5.175230 4.011560
v -7.134510 5.175230 4.134640
v -4.792410 5.175230 3.888470
v -5.863340 5.263110 4.964070
v -7.034390 5.263110 5.087160
v -4.692290 5.263110 4.840990
v -5.763230 5.175230 5.916590
v -6.934280 5.175230 6.039670
v -4.592180 5.175230 5.793510
v -5.660820 4.893550 6.890930
v -6.831870 4.893550 7.014010
v -4.489770 4.893550 6.767840
v -5.562280 4.405130 7.828530
v -6.733330 4.405130 7.951620
v -4.391230 4.405130 7.705450
v -5.474300 3.721460 8.665540
v -6.645350 3.721460 8.788620
v -4.303250 3.721460 8.542460
v -5.402840 2.879840 9.345460
v -6.573890 2.879840 9.468550
v -4.231790 2.879840 9.222380
v -5.351790 1.937070 9.831200
v -6.522840 1.937070 9.954290
v -4.180740 1.937070 9.708120
v -5.322340 0.957370 10.111350
v -6.493390 0.957370 10.234430
v -4.151290 0.957370 9.988270
v -4.692290 -1.200380 4.840990
v -4.723490 -1.162680 4.544200
v -4.683710 -1.162680 4.540020
v -4.652510 -1.200380 4.836810
v -4.752720 -1.051950 4.266050
v -4.712940 -1.051950 4.261870
v -4.778160 -0.875140 4.024030
v -4.738380 -0.875140 4.019850
v -4.798200 -0.643370 3.833350
v -4.758420 -0.643370 3.829170
v -4.811590 -0.371200 3.705980
v -4.771810 -0.371200 3.701790
v -4.817480 -0.075730 3.649920
v -4.777700 -0.075730 3.645740
v -4.815510 0.224480 3.668700
v -4.775720 0.224480 3.664520
v -4.805790 0.510560 3.761150
v -4.766010 0.510560 3.756970
v -4.788940 0.764530 3.921440
v -4.749160 0.764530 3.917260
v -4.766020 0.970440 4.139510
v -4.726240 0.970440 4.135330
v -4.738470 1.115350 4.401660
v -4.698690 1.115350 4.397480
v -4.708010 1.190160 4.691420
v -4.668230 1.190160 4.687230
v -4.676570 1.190160 4.990570
v -4.636790 1.190160 4.986390
v -4.646120 1.115350 5.280320
v -4.606340 1.115350 5.276140
v -4.618560 0.970440 5.542470
v -4.578780 0.970440 5.538290
v -4.595640 0.764530 5.760540
v -4.555860 0.764530 5.756360
v -4.578800 0.510560 5.920840
v -4.539020 0.510560 5.916650
v -4.569080 0.224480 6.013280
v -4.529300 0.224480 6.009100
v -4.567110 -0.075730 6.032060
v -4.527330 -0.075730 6.027880
v -4.573000 -0.371200 5.976010
v -4.533220 -0.371200 5.971830
v -4.586390 -0.643370 5.848630
v -4.546600 -0.643370 5.844450
v -4.606430 -0.875140 5.657950
v -4.566650 -0.875140 5.653770
v -4.631860 -1.051950 5.415930
v -4.592080 -1.051950 5.411750
v -4.661100 -1.162680 5.137780
v -4.621320 -1.162680 5.133600
v -4.643930 -1.162680 4.535840
v -4.612730 -1.200380 4.832630
v -4.673160 -1.051950 4.257690
v -4.698600 -0.875140 4.015670
v -4.718640 -0.643370 3.824990
v -4.732030 -0.371200 3.697610
v -4.737920 -0.075730 3.641560
v -4.735940 0.224480 3.660340
v -4.726230 0.510560 3.752780
v -4.709380 0.764530 3.913080
v -4.686460 0.970440 4.131150
v -4.658910 1.115350 4.393300
v -4.628450 1.190160 4.683050
v -4.597010 1.190160 4.982200
v -4.566560 1.115350 5.271960
v -4.539000 0.970440 5.534110
v -4.516080 0.764530 5.752180
v -4.499240 0.510560 5.912470
v -4.489520 0.224480 6.004920
v -4.487540 -0.075730 6.023700
v -4.493440 -0.371200 5.967640
v -4.506820 -0.643370 5.840270
v -4.526870 -0.875140 5.649590
v -4.552300 -1.051950 5.407570
v -4.581540 -1.162680 5.129420
v -4.604140 -1.162680 4.531650
v -4.572950 -1.200380 4.828450
v -4.633380 -1.051950 4.253510
v -4.658820 -0.875140 4.011490
v -4.678860 -0.643370 3.820800
v -4.692250 -0.371200 3.693430
v -4.698140 -0.075730 3.637380
v -4.696160 0.224480 3.656160
v -4.686450 0.510560 3.748600
v -4.669600 0.764530 3.908900
v -4.646680 0.970440 4.126970
v -4.619130 1.115350 4.389120
v -4.588670 1.190160 4.678870
v -4.557230 1.190160 4.978020
v -4.526770 1.115350 5.267780
v -4.499220 0.970440 5.529930
v -4.476300 0.764530 5.748000
v -4.459450 0.510560 5.908290
v -4.449740 0.224480 6.000740
v -4.447760 -0.075730 6.019520
v -4.453660 -0.371200 5.963460
v -4.467040 -0.643370 5.836090
v -4.487080 -0.875140 5.645400
v -4.512520 -1.051950 5.403390
v -4.541760 -1.162680 5.125240
v -4.564360 -1.162680 4.527470
v -4.533170 -1.200380 4.824270
v -4.593600 -1.051950 4.249330
v -4.619040 -0.875140 4.007310
v -4.639080 -0.643370 3.816620
v -4.652460 -0.371200 3.689250
v -4.658360 -0.075730 3.633200
v -4.656380 0.224480 3.651980
v -4.646670 0.510560 3.744420
v -4.629820 0.764530 3.904720
v -4.606900 0.970440 4.122790
v -4.579340 1.115350 4.384940
v -4.548890 1.190160 4.674690
v -4.517450 1.190160 4.973840
v -4.486990 1.115350 5.263600
v -4.459440 0.970440 5.525740
v -4.436520 0.764530 5.743820
v -4.419670 0.510560 5.904110
v -4.409960 0.224480 5.996550
v -4.407980 -0.075730 6.015340
v -4.413870 -0.371200 5.959280
v -4.427260 -0.643370 5.831910
v -4.447300 -0.875140 5.641220
v -4.472740 -1.051950 5.399200
v -4.501980 -1.162680 5.121060
v -4.524580 -1.162680 4.523290
v -4.493390 -1.200380 4.820090
v -4.553820 -1.051950 4.245150
v -4.579250 -0.875140 4.003130
v -4.599300 -0.643370 3.812440
v -4.612680 -0.371200 3.685070
v -4.618580 -0.075730 3.629010
v -4.616600 0.224480 3.647800
v -4.606880 0.510560 3.740240
v -4.590040 0.764530 3.900530
v -4.567120 0.970440 4.118610
v -4.539560 1.115350 4.380760
v -4.509110 1.190160 4.670510
v -4.477670 1.190160 4.969660
v -4.447210 1.115350 5.259410
v -4.419660 0.970440 5.521560
v -4.396740 0.764530 5.739640
v -4.379890 0.510560 5.899930
v -4.370180 0.224480 5.992370
v -4.368200 -0.075730 6.011160
v -4.374090 -0.371200 5.955100
v -4.387480 -0.643370 5.827730
v -4.407520 -0.875140 5.637040
v -4.432960 -1.051950 5.395020
v -4.462190 -1.162680 5.116880
v -4.493390 -0.000380 4.820090
v -4.395400 0.154650 3.552730
v -4.401100 -0.000000 3.547580
v -4.545840 -0.000000 3.646100
v -4.541520 0.142940 3.651360
v -4.117770 0.178060 3.275800
v -4.126100 -0.000000 3.271020
v -3.865060 0.201480 2.897380
v -3.875720 -0.000000 2.893110
v -3.750880 0.213190 2.673610
v -3.762560 -0.000000 2.669650
v -3.646370 0.224890 2.429140
v -3.658980 -0.000000 2.425520
v -3.469670 0.248310 1.888180
v -3.483820 -0.000000 1.885350
v -3.340430 0.271730 1.293990
v -3.355620 -0.000000 1.292070
v -3.294440 0.283430 0.981270
v -3.309960 -0.000000 0.979810
v -3.261200 0.295140 0.660170
v -3.276900 -0.000000 0.659190
v -3.234350 0.318560 0.000000
v -3.250000 -0.000000 0.000000
v -4.378500 0.307810 3.568030
v -4.528720 0.284510 3.667000
v -4.093110 0.354410 3.290020
v -3.833470 0.401020 2.910030
v -3.716220 0.424320 2.685340
v -3.608940 0.447620 2.439840
v -3.427640 0.494230 1.896540
v -3.295230 0.540830 1.299700
v -3.248230 0.564140 0.985580
v -3.214390 0.587440 0.663060
v -3.187550 0.634040 0.000000
v -4.350810 0.458000 3.593240
v -4.507740 0.423330 3.692800
v -4.052650 0.527350 3.313400
v -3.781610 0.596700 2.930830
v -3.659310 0.631370 2.704600
v -3.547460 0.666040 2.457420
v -3.358510 0.735390 1.910260
v -3.220750 0.804730 1.309060
v -3.172020 0.839410 0.992650
v -3.137090 0.874080 0.667800
v -3.110060 0.943430 0.000000
v -4.312760 0.603790 3.628040
v -4.478930 0.558080 3.728450
v -3.997040 0.695210 3.345620
v -3.710290 0.786630 2.959450
v -3.581020 0.832340 2.731100
v -3.462820 0.878050 2.481590
v -3.263240 0.969460 1.929120
v -3.117960 1.060880 1.321910
v -3.066750 1.106590 1.002360
v -3.030200 1.152300 0.674310
v -3.002610 1.243720 0.000000
v -4.264870 0.743760 3.672020
v -4.442670 0.687450 3.773530
v -3.927030 0.856370 3.386290
v -3.620440 0.968980 2.995540
v -3.482350 1.025290 2.764490
v -3.356120 1.081590 2.512030
v -3.143000 1.194210 1.952860
v -2.988050 1.306820 1.338090
v -2.933590 1.363120 1.014580
v -2.894870 1.419430 0.682500
v -2.866240 1.532040 0.000000
v -4.207710 0.876570 3.724700
v -4.399400 0.810210 3.827580
v -3.843450 1.009290 3.434950
v -3.513130 1.142010 3.038670
v -3.364460 1.208370 2.804400
v -3.228580 1.274730 2.548400
v -2.999140 1.407440 1.981200
v -2.832430 1.540160 1.357400
v -2.773950 1.606520 1.029160
v -2.732490 1.672880 0.692280
v -2.702280 1.805600 0.000000
v -4.141930 1.000930 3.785540
v -4.349610 0.925160 3.890040
v -3.747220 1.152480 3.491090
v -3.389520 1.304030 3.088390
v -3.228630 1.379810 2.850370
v -3.081570 1.455580 2.590280
v -2.833190 1.607130 2.013830
v -2.652710 1.758680 1.379620
v -2.589460 1.834450 1.045940
v -2.544700 1.910230 0.703520
v -2.512280 2.061780 0.000000
v -4.068220 1.115660 3.853920
v -4.293820 1.031200 3.960290
v -3.639360 1.284580 3.554120
v -3.250900 1.453500 3.144180
v -3.076260 1.537960 2.901940
v -2.916620 1.622420 2.637250
v -2.646840 1.791340 2.050410
v -2.450700 1.960260 1.404530
v -2.381980 2.044720 1.064750
v -2.333340 2.129180 0.716130
v -2.298100 2.298100 0.000000
v -3.987310 1.219640 3.929180
v -4.232580 1.127310 4.037640
v -3.520940 1.404300 3.623430
v -3.098670 1.588970 3.205480
v -2.908880 1.681300 2.958600
v -2.735370 1.773630 2.688840
v -2.441940 1.958290 2.090560
v -2.228400 2.142960 1.431860
v -2.153520 2.235290 1.085390
v -2.100490 2.327620 0.729960
v -2.061780 2.512280 0.000000
v -4.166510 1.212560 4.121330
v -4.484030 1.034980 4.115680
v -4.439660 1.113250 4.201030
v -3.900000 1.311870 4.010580
v -3.393120 1.510500 3.698340
v -2.934290 1.709130 3.271700
v -2.728120 1.808450 3.019780
v -2.539590 1.907760 2.744540
v -2.220490 2.106390 2.133900
v -1.987950 2.305020 1.461370
v -1.906300 2.404330 1.107670
v -1.848390 2.503650 0.744890
v -1.805600 2.702280 0.000000
v -4.096220 1.286140 4.210580
v -4.392460 1.180790 4.292070
v -3.807110 1.391480 4.097340
v -3.257120 1.602160 3.778130
v -2.759360 1.812840 3.342200
v -2.535710 1.918180 3.084900
v -2.331140 2.023520 2.803810
v -1.984590 2.234200 2.180020
v -1.731660 2.444880 1.492750
v -1.642710 2.550220 1.131360
v -1.579460 2.655560 0.760760
v -1.532040 2.866240 0.000000
v -4.022380 1.347320 4.304520
v -4.342880 1.236970 4.387940
v -3.709530 1.457680 4.188640
v -3.114220 1.678380 3.862050
v -2.575500 1.899090 3.416320
v -2.333460 2.009440 3.153360
v -2.111990 2.119790 2.866110
v -1.736490 2.340500 2.228470
v -1.461960 2.561200 1.525720
v -1.365230 2.671550 1.156250
v -1.296270 2.781900 0.777440
v -1.243720 3.002610 0.000000
v -3.945670 1.395540 4.402270
v -4.291370 1.281240 4.487720
v -3.608150 1.509840 4.283610
v -2.965740 1.738440 3.949320
v -2.384420 1.967040 3.493360
v -2.123240 2.081350 3.224510
v -1.884190 2.195650 2.930860
v -1.478510 2.424250 2.278820
v -1.181410 2.652850 1.559980
v -1.076510 2.767150 1.182110
v -1.001520 2.881450 0.794770
v -0.943430 3.110060 0.000000
v -3.866780 1.430310 4.502900
v -4.238410 1.313160 4.590460
v -3.503890 1.547460 4.381370
v -2.813030 1.781760 4.039110
v -2.187890 2.016060 3.572630
v -1.907010 2.133210 3.297700
v -1.649830 2.250360 2.997450
v -1.213040 2.484660 2.330590
v -0.892640 2.718960 1.595200
v -0.779280 2.836100 1.208710
v -0.698010 2.953250 0.812590
v -0.634040 3.187550 0.000000
v -3.786450 1.451310 4.605470
v -4.184470 1.332440 4.695200
v -3.397710 1.570180 4.480990
v -2.657500 1.807920 4.130610
v -1.987700 2.045660 3.653370
v -1.686730 2.164530 3.372250
v -1.411090 2.283400 3.065280
v -0.942560 2.521130 2.383330
v -0.598340 2.758870 1.631080
v -0.476320 2.877740 1.235790
v -0.388620 2.996610 0.830740
v -0.318560 3.234350 0.000000
v -3.705380 1.458330 4.709010
v -4.130040 1.338890 4.800940
v -3.290560 1.577780 4.581560
v -2.500550 1.816670 4.222960
v -1.785680 2.055560 3.734870
v -1.464430 2.175000 3.447490
v -1.170140 2.294440 3.133730
v -0.669550 2.533330 2.436540
v -0.301280 2.772220 1.667280
v -0.170490 2.891670 1.263120
v -0.076270 3.011110 0.849050
v 0.000000 3.250000 0.000000
v -3.624310 1.451310 4.812550
v -4.075610 1.332440 4.906680
v -3.183420 1.570180 4.682120
v -2.343600 1.807920 4.315300
v -1.583650 2.045660 3.816360
v -1.242130 2.164530 3.522740
v -0.929190 2.283400 3.202190
v -0.396550 2.521130 2.489760
v -0.004210 2.758870 1.703490
v 0.135340 2.877740 1.290450
v 0.236070 2.996610 0.867360
v 0.318560 3.234350 0.000000
v -3.543970 1.430310 4.915120
v -4.021670 1.313160 5.011420
v -3.077230 1.547460 4.781750
v -2.188070 1.781760 4.406800
v -1.383460 2.016060 3.897110
v -1.021850 2.133210 3.597290
v -0.690440 2.250360 3.270020
v -0.126070 2.484660 2.542490
v 0.290090 2.718960 1.739370
v 0.438300 2.836100 1.317540
v 0.545460 2.953250 0.885510
v 0.634040 3.187550 0.000000
v -3.465090 1.395540 5.015750
v -3.968710 1.281240 5.114160
v -2.972980 1.509840 4.879510
v -2.035360 1.738440 4.496590
v -1.186930 1.967040 3.976370
v -0.805620 2.081350 3.670480
v -0.456090 2.195650 3.336610
v 0.139400 2.424250 2.594270
v 0.578860 2.652850 1.774590
v 0.735530 2.767150 1.344130
v 0.848970 2.881450 0.903330
v 0.943430 3.110060 0.000000
v -3.388380 1.347320 5.113500
v -3.917200 1.236970 5.213940
v -2.871600 1.457680 4.974480
v -1.886880 1.678380 4.583860
v -0.995850 1.899090 4.053420
v -0.595410 2.009440 3.741630
v -0.228290 2.119790 3.401360
v 0.397380 2.340500 2.644610
v 0.859410 2.561200 1.808850
v 1.024250 2.671550 1.369990
v 1.143720 2.781900 0.920660
v 1.243720 3.002610 0.000000
v -3.314540 1.286140 5.207440
v -3.867620 1.180790 5.309810
v -2.774010 1.391480 5.065780
v -1.743980 1.602160 4.667780
v -0.811990 1.812840 4.127540
v -0.393150 1.918180 3.810090
v -0.009140 2.023520 3.463660
v 0.645480 2.234200 2.693070
v 1.129110 2.444880 1.841820
v 1.301730 2.550220 1.394880
v 1.426910 2.655560 0.937340
v 1.532040 2.866240 0.000000
v -3.244250 1.212560 5.296680
v -3.820430 1.113250 5.400850
v -2.681130 1.311870 5.152540
v -1.607980 1.510500 4.747580
v -0.637060 1.709130 4.198040
v -0.200740 1.808450 3.875210
v 0.199310 1.907760 3.522930
v 0.881380 2.106390 2.739180
v 1.385400 2.305020 1.873200
v 1.565320 2.404330 1.418580
v 1.695840 2.503650 0.953220
v 1.805600 2.702280 0.000000
v -3.178180 1.127310 5.380380
v -3.776050 1.034980 5.486190
v -2.593820 1.219640 5.233930
v -1.480160 1.404300 4.822490
v -0.472680 1.588970 4.264260
v -0.019980 1.681300 3.936390
v 0.395090 1.773630 3.578630
v 1.102840 1.958290 2.782520
v 1.625840 2.142960 1.902700
v 1.812540 2.235290 1.440850
v 1.947940 2.327620 0.968140
v 2.061780 2.512280 0.000000
v -3.116940 1.031200 5.457730
v -3.734930 0.946740 5.565020
v -2.512910 1.115660 5.309190
v -1.361740 1.284580 4.891790
v -0.320450 1.453500 4.325560
v 0.147400 1.537960 3.993040
v 0.576340 1.622420 3.630210
v 1.307730 1.791340 2.822670
v 1.848150 1.960260 1.930040
v 2.041000 2.044720 1.461490
v 2.180800 2.129180 0.981970
v 2.298100 2.298100 0.000000
v -3.061150 0.925160 5.527980
v -3.697460 0.849380 5.636570
v -2.439190 1.000930 5.377580
v -1.253880 1.152480 4.954830
v -0.181830 1.304030 4.381350
v 0.299760 1.379810 4.044620
v 0.741300 1.455580 3.677190
v 1.494080 1.607130 2.859250
v 2.050160 1.758680 1.954950
v 2.248480 1.834450 1.480300
v 2.392150 1.910230 0.994580
v 2.512280 2.061780 0.000000
v -3.011350 0.810210 5.590440
v -3.664010 0.743850 5.700150
v -2.373410 0.876570 5.438420
v -1.157650 1.009290 5.010960
v -0.058220 1.142010 4.431070
v 0.435600 1.208370 4.090590
v 0.888300 1.274730 3.719070
v 1.660030 1.407440 2.891880
v 2.229880 1.540160 1.977170
v 2.432970 1.606520 1.497080
v 2.579950 1.672880 1.005830
v 2.702280 1.805600 0.000000
v -2.968090 0.687450 5.644480
v -3.634950 0.631150 5.755120
v -2.316260 0.743760 5.491100
v -1.074070 0.856370 5.059620
v 0.049090 0.968980 4.474200
v 0.553490 1.025290 4.130490
v 1.015850 1.081590 3.755440
v 1.803890 1.194210 2.920220
v 2.385500 1.306820 1.996480
v 2.592610 1.363120 1.511670
v 2.742320 1.419430 1.015600
v 2.866240 1.532040 0.000000
v -2.931830 0.558080 5.689570
v -3.610590 0.512370 5.800930
v -2.268370 0.603790 5.535080
v -1.004060 0.695210 5.100290
v 0.138940 0.786630 4.510290
v 0.652160 0.832340 4.163890
v 1.122550 0.878050 3.785880
v 1.924130 0.969460 2.943960
v 2.515410 1.060880 2.012660
v 2.725770 1.106590 1.523890
v 2.877650 1.152300 1.023790
v 3.002610 1.243720 0.000000
v -2.903020 0.423330 5.725210
v -3.591230 0.388660 5.837120
v -2.230320 0.458000 5.569870
v -0.948450 0.527350 5.132510
v 0.210260 0.596700 4.538910
v 0.730450 0.631370 4.190390
v 1.207180 0.666040 3.810050
v 2.019400 0.735390 2.962820
v 2.618200 0.804730 2.025510
v 2.831040 0.839410 1.533600
v 2.984540 0.874080 1.030300
v 3.110060 0.943430 0.000000
v -2.882040 0.284510 5.751020
v -3.577140 0.261200 5.863280
v -2.202620 0.307810 5.595090
v -0.907990 0.354410 5.155900
v 0.262120 0.401020 4.559700
v 0.787360 0.424320 4.209650
v 1.268670 0.447620 3.827620
v 2.088530 0.494230 2.976540
v 2.692680 0.540830 2.034870
v 2.907250 0.564140 1.540670
v 3.061840 0.587440 1.035040
v 3.187550 0.634040 0.000000
v -2.869240 0.142940 5.766660
v -3.568540 0.131230 5.879130
v -2.185730 0.154650 5.610390
v -0.883330 0.178060 5.170110
v 0.293710 0.201480 4.572360
v 0.822010 0.213190 4.221380
v 1.306090 0.224890 3.838330
v 2.130560 0.248310 2.984900
v 2.737880 0.271730 2.040580
v 2.953460 0.283430 1.544980
v 3.108650 0.295140 1.037930
v 3.234350 0.318560 0.000000
v -2.864920 -0.000000 5.771910
v -3.565630 -0.000000 5.884450
v -2.180020 -0.000000 5.615530
v -0.875000 0.000000 5.174900
v 0.304370 0.000000 4.576630
v 0.833700 0.000000 4.225340
v 1.318710 0.000000 3.841940
v 2.144710 0.000000 2.987730
v 2.753070 0.000000 2.042500
v 2.968980 -0.000000 1.546430
v 3.124350 -0.000000 1.038910
v 3.250000 -0.000000 0.000000
v -4.564130 1.015750 4.147010
v -4.566270 0.999370 4.126640
v -4.568370 0.982500 4.106680
v -4.570430 0.965160 4.087120
v -4.561950 1.031630 4.167750
v -4.557470 1.061860 4.210370
v -4.555180 1.076180 4.232220
v -4.559730 1.047000 4.188880
v -4.552840 1.089960 4.254410
v -4.562630 0.849380 3.965310
v -4.584180 0.824170 3.956270
v -4.582250 0.847040 3.974640
v -4.586050 0.800850 3.938480
v -4.587860 0.777090 3.921260
v -4.580260 0.869440 3.993580
v -4.574410 0.929120 4.049240
v -4.572440 0.947360 4.067970
v -4.576330 0.910440 4.030950
v -4.578210 0.891340 4.013090
v -4.550480 1.103180 4.276930
v -4.518180 1.219220 4.584220
v -4.520530 1.214370 4.561880
v -4.522860 1.209030 4.539660
v -4.525190 1.203200 4.517550
v -4.515820 1.223580 4.606650
v -4.506310 1.236070 4.697180
v -4.508700 1.233690 4.674450
v -4.503990 1.237900 4.719180
v -4.511080 1.230810 4.651780
v -4.513450 1.227440 4.629180
v -4.501680 1.239270 4.741210
v -4.543180 1.139440 4.346340
v -4.541000 1.149050 4.367100
v -4.545640 1.127930 4.322900
v -4.548080 1.115840 4.299760
v -4.538800 1.158190 4.388060
v -4.532070 1.182830 4.452070
v -4.529790 1.190100 4.473750
v -4.527500 1.196890 4.495580
v -4.536570 1.166870 4.409220
v -4.534330 1.175090 4.430560
v -4.499360 1.240170 4.763260
v -4.609340 0.311770 3.716900
v -4.608570 0.342340 3.724200
v -4.610660 0.250170 3.704360
v -4.610030 0.281040 3.710280
v -4.611210 0.219170 3.699120
v -4.604780 0.462700 3.760300
v -4.606820 0.402940 3.740880
v -4.605830 0.432930 3.750250
v -4.607730 0.372730 3.732190
v -4.612860 0.062860 3.683370
v -4.613010 -0.000000 3.681960
v -4.612970 0.031440 3.682320
v -4.612680 0.094250 3.685130
v -4.612090 0.156870 3.690730
v -4.611680 0.188070 3.694580
v -4.612420 0.125590 3.687580
v -4.603650 0.492230 3.771050
v -4.591290 0.728340 3.888590
v -4.592920 0.703390 3.873140
v -4.594480 0.678070 3.858290
v -4.595980 0.652420 3.844030
v -4.589610 0.752910 3.904630
v -4.600090 0.573570 3.804840
v -4.602530 0.519590 3.781710
v -4.601340 0.546710 3.792980
v -4.598780 0.600150 3.817310
v -4.597410 0.626440 3.830370
v -4.497040 1.240610 4.785330
v -4.396690 0.719550 5.740090
v -4.395230 0.698480 5.753960
v -4.399740 0.760830 5.711090
v -4.398190 0.740340 5.725800
v -4.393820 0.677130 5.767410
v -4.388620 0.589150 5.816870
v -4.389850 0.611510 5.805160
v -4.392450 0.655510 5.780430
v -4.391130 0.633640 5.793010
v -4.387440 0.566560 5.828130
v -4.416710 0.940870 5.549680
v -4.418570 0.956730 5.531970
v -4.420460 0.972240 5.513940
v -4.422390 0.987390 5.495610
v -4.414880 0.924650 5.567080
v -4.402960 0.800900 5.680450
v -4.404630 0.820450 5.664530
v -4.401330 0.781020 5.695980
v -4.407910 0.856450 5.633400
v -4.411320 0.891200 5.600900
v -4.386300 0.543750 5.838950
v -4.375270 0.192490 5.943880
v -4.374890 0.166190 5.947540
v -4.375710 0.218720 5.939680
v -4.376210 0.244850 5.934950
v -4.374560 0.139810 5.950670
v -4.373770 0.005920 5.958190
v -4.373810 0.033150 5.957780
v -4.373910 0.060370 5.956800
v -4.374070 0.086890 5.955300
v -4.374290 0.113370 5.953250
v -4.376770 0.270880 5.929680
v -4.383180 0.474090 5.868670
v -4.382190 0.449280 5.878110
v -4.384170 0.497500 5.859220
v -4.385210 0.520730 5.849310
v -4.381250 0.424280 5.887040
v -4.378760 0.348240 5.910720
v -4.378040 0.322590 5.917570
v -4.377370 0.296800 5.923890
v -4.380360 0.399100 5.895450
v -4.379530 0.373750 5.903340
v -4.373770 0.000000 5.958210
v -4.473980 1.219920 5.004700
v -4.476260 1.224020 4.983010
v -4.478550 1.227670 4.961240
v -4.480850 1.230870 4.939400
v -4.471710 1.215390 5.026300
v -4.460320 1.185570 5.134720
v -4.464860 1.198890 5.091520
v -4.455840 1.170500 5.177340
v -4.467150 1.204880 5.069720
v -4.469450 1.210420 5.047810
v -4.451430 1.153710 5.219320
v -4.492400 1.240120 4.829470
v -4.490080 1.239180 4.851520
v -4.494720 1.240590 4.807400
v -4.487770 1.237780 4.873550
v -4.485460 1.235930 4.895540
v -4.483150 1.233630 4.917500
v -4.442830 1.115140 5.301120
v -4.438660 1.093450 5.340810
v -4.447090 1.135250 5.260600
v -4.434580 1.070210 5.379630
v -4.428350 1.030560 5.438870
v -4.430400 1.044180 5.419390
v -4.426330 1.016560 5.458070
v -4.432470 1.057400 5.399640
v -4.424350 1.002160 5.476990
v -2.869240 -0.142940 5.766660
v -3.568540 -0.131230 5.879130
v -2.185730 -0.154650 5.610390
v -0.883330 -0.178060 5.170110
v 0.293710 -0.201480 4.572360
v 0.822010 -0.213190 4.221380
v 1.306090 -0.224890 3.838330
v 2.130560 -0.248310 2.984900
v 2.737880 -0.271730 2.040580
v 2.953460 -0.283430 1.544980
v 3.108650 -0.295140 1.037930
v 3.234350 -0.318560 0.000000
v -2.882040 -0.284510 5.751020
v -3.577140 -0.261200 5.863280
v -2.202620 -0.307810 5.595090
v -0.907990 -0.354410 5.155900
v 0.262120 -0.401020 4.559700
v 0.787360 -0.424320 4.209650
v 1.268670 -0.447620 3.827620
v 2.088530 -0.494230 2.976540
v 2.692680 -0.540830 2.034870
v 2.907250 -0.564140 1.540670
v 3.061840 -0.587440 1.035040
v 3.187550 -0.634040 0.000000
v -2.903020 -0.423330 5.725210
v -3.591230 -0.388660 5.837120
v -2.230320 -0.458000 5.569870
v -0.948450 -0.527350 5.132510
v 0.210260 -0.596700 4.538910
v 0.730450 -0.631370 4.190390
v 1.207180 -0.666040 3.810050
v 2.019400 -0.735390 2.962820
v 2.618200 -0.804730 2.025510
v 2.831040 -0.839410 1.533600
v 2.984540 -0.874080 1.030300
v 3.110060 -0.943430 0.000000
v -2.931830 -0.558080 5.689570
v -3.610590 -0.512370 5.800930
v -2.268370 -0.603790 5.535080
v -1.004060 -0.695210 5.100290
v 0.138940 -0.786630 4.510290
v 0.652160 -0.832340 4.163890
v 1.122550 -0.878050 3.785880
v 1.924130 -0.969460 2.943960
v 2.515410 -1.060880 2.012660
v 2.725770 -1.106590 1.523890
v 2.877650 -1.152300 1.023790
v 3.002610 -1.243720 0.000000
v -2.968090 -0.687450 5.644480
v -3.634950 -0.631150 5.755120
v -2.316260 -0.743760 5.491100
v -1.074070 -0.856370 5.059620
v 0.049090 -0.968980 4.474200
v 0.553490 -1.025290 4.130490
v 1.015850 -1.081590 3.755440
v 1.803890 -1.194210 2.920220
v 2.385500 -1.306820 1.996480
v 2.592610 -1.363120 1.511670
v 2.742320 -1.419430 1.015600
v 2.866240 -1.532040 0.000000
v -3.011350 -0.810210 5.590440
v -3.664010 -0.743850 5.700150
v -2.373410 -0.876570 5.438420
v -1.157650 -1.009290 5.010960
v -0.058220 -1.142010 4.431070
v 0.435600 -1.208370 4.090590
v 0.888300 -1.274730 3.719070
v 1.660030 -1.407440 2.891880
v 2.229880 -1.540160 1.977170
v 2.432970 -1.606520 1.497080
v 2.579950 -1.672880 1.005830
v 2.702280 -1.805600 0.000000
v -3.061150 -0.925160 5.527980
v -3.697460 -0.849380 5.636570
v -2.439190 -1.000930 5.377580
v -1.253880 -1.152480 4.954830
v -0.181830 -1.304030 4.381350
v 0.299760 -1.379810 4.044620
v 0.741300 -1.455580 3.677190
v 1.494080 -1.607130 2.859250
v 2.050160 -1.758680 1.954950
v 2.248480 -1.834450 1.480300
v 2.392150 -1.910230 0.994580
v 2.512280 -2.061780 0.000000
v -3.116940 -1.031200 5.457730
v -3.734930 -0.946740 5.565020
v -2.512910 -1.115660 5.309190
v -1.361740 -1.284580 4.891790
v -0.320450 -1.453500 4.325560
v 0.147400 -1.537960 3.993040
v 0.576340 -1.622420 3.630210
v 1.307730 -1.791340 2.822670
v 1.848150 -1.960260 1.930040
v 2.041000 -2.044720 1.461490
v 2.180800 -2.129180 0.981970
v 2.298100 -2.298100 0.000000
v -3.178180 -1.127310 5.380380
v -3.776050 -1.034980 5.486190
v -2.593820 -1.219640 5.233930
v -1.480160 -1.404300 4.822490
v -0.472680 -1.588970 4.264260
v -0.019980 -1.681300 3.936390
v 0.395090 -1.773630 3.578630
v 1.102840 -1.958290 2.782520
v 1.625840 -2.142960 1.902700
v 1.812540 -2.235290 1.440850
v 1.947940 -2.327620 0.968140
v 2.061780 -2.512280 0.000000
v -3.244250 -1.212560 5.296680
v -3.820430 -1.113250 5.400850
v -2.681130 -1.311870 5.152540
v -1.607980 -1.510500 4.747580
v -0.637060 -1.709130 4.198040
v -0.200740 -1.808450 3.875210
v 0.199310 -1.907760 3.522930
v 0.881380 -2.106390 2.739180
v 1.385400 -2.305020 1.873200
v 1.565320 -2.404330 1.418580
v 1.695840 -2.503650 0.953220
v 1.805600 -2.702280 0.000000
v -3.314540 -1.286140 5.207440
v -3.867620 -1.180790 5.309810
v -2.774010 -1.391480 5.065780
v -1.743980 -1.602160 4.667780
v -0.811990 -1.812840 4.127540
v -0.393150 -1.918180 3.810090
v -0.009140 -2.023520 3.463660
v 0.645480 -2.234200 2.693070
v 1.129110 -2.444880 1.841820
v 1.301730 -2.550220 1.394880
v 1.426910 -2.655560 0.937340
v 1.532040 -2.866240 0.000000
v -3.388380 -1.347320 5.113500
v -3.917200 -1.236970 5.213940
v -2.871600 -1.457680 4.974480
v -1.886880 -1.678380 4.583860
v -0.995850 -1.899090 4.053420
v -0.595410 -2.009440 3.741630
v -0.228290 -2.119790 3.401360
v 0.397380 -2.340500 2.644610
v 0.859410 -2.561200 1.808850
v 1.024250 -2.671550 1.369990
v 1.143720 -2.781900 0.920660
v 1.243720 -3.002610 0.000000
v -3.465090 -1.395540 5.015750
v -3.968710 -1.281240 5.114160
v -2.972980 -1.509840 4.879510
v -2.035360 -1.738440 4.496590
v -1.186930 -1.967040 3.976370
v -0.805620 -2.081350 3.670480
v -0.456090 -2.195650 3.336610
v 0.139400 -2.424250 2.594270
v 0.578860 -2.652850 1.774590
v 0.735530 -2.767150 1.344130
v 0.848970 -2.881450 0.903330
v 0.943430 -3.110060 0.000000
v -3.543970 -1.430310 4.915120
v -4.021670 -1.313160 5.011420
v -3.077230 -1.547460 4.781750
v -2.188070 -1.781760 4.406800
v -1.383460 -2.016060 3.897110
v -1.021850 -2.133210 3.597290
v -0.690440 -2.250360 3.270020
v -0.126070 -2.484660 2.542490
v 0.290090 -2.718960 1.739370
v 0.438300 -2.836100 1.317540
v 0.545460 -2.953250 0.885510
v 0.634040 -3.187550 0.000000
v -3.624310 -1.451310 4.812550
v -4.075610 -1.332440 4.906680
v -3.183420 -1.570180 4.682120
v -2.343600 -1.807920 4.315300
v -1.583650 -2.045660 3.816360
v -1.242130 -2.164530 3.522740
v -0.929190 -2.283400 3.202190
v -0.396550 -2.521130 2.489760
v -0.004210 -2.758870 1.703490
v 0.135340 -2.877740 1.290450
v 0.236070 -2.996610 0.867360
v 0.318560 -3.234350 0.000000
v -3.705380 -1.458330 4.709010
v -4.130040 -1.338890 4.800940
v -3.290560 -1.577780 4.581560
v -2.500550 -1.816670 4.222960
v -1.785680 -2.055560 3.734870
v -1.464430 -2.175000 3.447490
v -1.170140 -2.294440 3.133730
v -0.669550 -2.533330 2.436540
v -0.301280 -2.772220 1.667280
v -0.170490 -2.891670 1.263120
v -0.076270 -3.011110 0.849050
v 0.000000 -3.250000 0.000000
v -3.786450 -1.451310 4.605470
v -4.184470 -1.332440 4.695200
v -3.397710 -1.570180 4.480990
v -2.657500 -1.807920 4.130610
v -1.987700 -2.045660 3.653370
v -1.686730 -2.164530 3.372250
v -1.411090 -2.283400 3.065280
v -0.942560 -2.521130 2.383330
v -0.598340 -2.758870 1.631080
v -0.476320 -2.877740 1.235790
v -0.388620 -2.996610 0.830740
v -0.318560 -3.234350 0.000000
v -3.866780 -1.430310 4.502900
v -4.238410 -1.313160 4.590460
v -3.503890 -1.547460 4.381370
v -2.813030 -1.781760 4.039110
v -2.187890 -2.016060 3.572630
v -1.907010 -2.133210 3.297700
v -1.649830 -2.250360 2.997450
v -1.213040 -2.484660 2.330590
v -0.892640 -2.718960 1.595200
v -0.779280 -2.836100 1.208710
v -0.698010 -2.953250 0.812590
v -0.634040 -3.187550 0.000000
v -3.945670 -1.395540 4.402270
v -4.291370 -1.281240 4.487720
v -3.608150 -1.509840 4.283610
v -2.965740 -1.738440 3.949320
v -2.384420 -1.967040 3.493360
v -2.123240 -2.081350 3.224510
v -1.884190 -2.195650 2.930860
v -1.478510 -2.424250 2.278820
v -1.181410 -2.652850 1.559980
v -1.076510 -2.767150 1.182110
v -1.001520 -2.881450 0.794770
v -0.943430 -3.110060 0.000000
v -4.022380 -1.347320 4.304520
v -4.342880 -1.236970 4.387940
v -3.709530 -1.457680 4.188640
v -3.114220 -1.678380 3.862050
v -2.575500 -1.899090 3.416320
v -2.333460 -2.009440 3.153360
v -2.111990 -2.119790 2.866110
v -1.736490 -2.340500 2.228470
v -1.461960 -2.561200 1.525720
v -1.365230 -2.671550 1.156250
v -1.296270 -2.781900 0.777440
v -1.243720 -3.002610 0.000000
v -4.096220 -1.286140 4.210580
v -4.392460 -1.180790 4.292070
v -3.807110 -1.391480 4.097340
v -3.257120 -1.602160 3.778130
v -2.759360 -1.812840 3.342200
v -2.535710 -1.918180 3.084900
v -2.331140 -2.023520 2.803810
v -1.984590 -2.234200 2.180020
v -1.731660 -2.444880 1.492750
v -1.642710 -2.550220 1.131360
v -1.579460 -2.655560 0.760760
v -1.532040 -2.866240 0.000000
v -4.166510 -1.212560 4.121330
v -4.439660 -1.113250 4.201030
v -3.900000 -1.311870 4.010580
v -3.393120 -1.510500 3.698340
v -2.934290 -1.709130 3.271700
v -2.728120 -1.808450 3.019780
v -2.539590 -1.907760 2.744540
v -2.220490 -2.106390 2.133900
v -1.987950 -2.305020 1.461370
v -1.906300 -2.404330 1.107670
v -1.848390 -2.503650 0.744890
v -1.805600 -2.702280 0.000000
v -4.232580 -1.127310 4.037640
v -4.484030 -1.034980 4.115680
v -3.987310 -1.219640 3.929180
v -3.520940 -1.404300 3.623430
v -3.098670 -1.588970 3.205480
v -2.908880 -1.681300 2.958600
v -2.735370 -1.773630 2.688840
v -2.441940 -1.958290 2.090560
v -2.228400 -2.142960 1.431860
v -2.153520 -2.235290 1.085390
v -2.100490 -2.327620 0.729960
v -2.061780 -2.512280 0.000000
v -4.068220 -1.115660 3.853920
v -4.293820 -1.031200 3.960290
v -3.639360 -1.284580 3.554120
v -3.250900 -1.453500 3.144180
v -3.076260 -1.537960 2.901940
v -2.916620 -1.622420 2.637250
v -2.646840 -1.791340 2.050410
v -2.450700 -1.960260 1.404530
v -2.381980 -2.044720 1.064750
v -2.333340 -2.129180 0.716130
v -2.298100 -2.298100 0.000000
v -4.141930 -1.000930 3.785540
v -4.349610 -0.925160 3.890040
v -3.747220 -1.152480 3.491090
v -3.389520 -1.304030 3.088390
v -3.228630 -1.379810 2.850370
v -3.081570 -1.455580 2.590280
v -2.833190 -1.607130 2.013830
v -2.652710 -1.758680 1.379620
v -2.589460 -1.834450 1.045940
v -2.544700 -1.910230 0.703520
v -2.512280 -2.061780 0.000000
v -4.207710 -0.876570 3.724700
v -4.399400 -0.810210 3.827580
v -3.843450 -1.009290 3.434950
v -3.513130 -1.142010 3.038670
v -3.364460 -1.208370 2.804400
v -3.228580 -1.274730 2.548400
v -2.999140 -1.407440 1.981200
v -2.832430 -1.540160 1.357400
v -2.773950 -1.606520 1.029160
v -2.732490 -1.672880 0.692280
v -2.702280 -1.805600 0.000000
v -4.264870 -0.743760 3.672020
v -4.442670 -0.687450 3.773530
v -3.927030 -0.856370 3.386290
v -3.620440 -0.968980 2.995540
v -3.482350 -1.025290 2.764490
v -3.356120 -1.081590 2.512030
v -3.143000 -1.194210 1.952860
v -2.988050 -1.306820 1.338090
v -2.933590 -1.363120 1.014580
v -2.894870 -1.419430 0.682500
v -2.866240 -1.532040 0.000000
v -4.312760 -0.603790 3.628040
v -4.478930 -0.558080 3.728450
v -3.997040 -0.695210 3.345620
v -3.710290 -0.786630 2.959450
v -3.581020 -0.832340 2.731100
v -3.462820 -0.878050 2.481590
v -3.263240 -0.969460 1.929120
v -3.117960 -1.060880 1.321910
v -3.066750 -1.106590 1.002360
v -3.030200 -1.152300 0.674310
v -3.002610 -1.243720 0.000000
v -4.350810 -0.458000 3.593240
v -4.507740 -0.423330 3.692800
v -4.052650 -0.527350 3.313400
v -3.781610 -0.596700 2.930830
v -3.659310 -0.631370 2.704600
v -3.547460 -0.666040 2.457420
v -3.358510 -0.735390 1.910260
v -3.220750 -0.804730 1.309060
v -3.172020 -0.839410 0.992650
v -3.137090 -0.874080 0.667800
v -3.110060 -0.943430 0.000000
v -4.378500 -0.307810 3.568030
v -4.528720 -0.284510 3.667000
v -4.093110 -0.354410 3.290020
v -3.833470 -0.401020 2.910030
v -3.716220 -0.424320 2.685340
v -3.608940 -0.447620 2.439840
v -3.427640 -0.494230 1.896540
v -3.295230 -0.540830 1.299700
v -3.248230 -0.564140 0.985580
v -3.214390 -0.587440 0.663060
v -3.187550 -0.634040 0.000000
v -4.395400 -0.154650 3.552730
v -4.541520 -0.142940 3.651360
v -4.117770 -0.178060 3.275800
v -3.865060 -0.201480 2.897380
v -3.750880 -0.213190 2.673610
v -3.646370 -0.224890 2.429140
v -3.469670 -0.248310 1.888180
v -3.340430 -0.271730 1.293990
v -3.294440 -0.283430 0.981270
v -3.261200 -0.295140 0.660170
v -3.234350 -0.318560 0.000000
v -4.373790 -0.021320 5.958030
v -4.373860 -0.048540 5.957300
v -4.374000 -0.075750 5.956000
v -4.374200 -0.102920 5.954120
v -4.374450 -0.130050 5.951680
v -4.374770 -0.157120 5.948680
v -4.375580 -0.211030 5.940970
v -4.375140 -0.184120 5.945100
v -4.376070 -0.237860 5.936270
v -4.376630 -0.264580 5.931010
v -4.377240 -0.291180 5.925190
v -4.377910 -0.317650 5.918820
v -4.378630 -0.343980 5.911890
v -4.379420 -0.370160 5.904410
v -4.380270 -0.396220 5.896380
v -4.381170 -0.422100 5.887790
v -4.382130 -0.447790 5.878660
v -4.383140 -0.473280 5.868990
v -4.384220 -0.498560 5.858780
v -4.385350 -0.523610 5.848040
v -4.386530 -0.548430 5.836770
v -4.387770 -0.573000 5.824980
v -4.389060 -0.597310 5.812660
v -4.390410 -0.621350 5.799830
v -4.391820 -0.645110 5.786480
v -4.393270 -0.668570 5.772630
v -4.394780 -0.691720 5.758280
v -4.396340 -0.714560 5.743430
v -4.397950 -0.737070 5.728090
v -4.399620 -0.759230 5.712270
v -4.401300 -0.780700 5.696220
v -4.403040 -0.801820 5.679720
v -4.404820 -0.822570 5.662760
v -4.406650 -0.842950 5.645360
v -4.410440 -0.882530 5.609250
v -4.408520 -0.862940 5.627520
v -4.414420 -0.920480 5.571440
v -4.412410 -0.901710 5.590560
v -4.416470 -0.938810 5.551920
v -4.418560 -0.956700 5.532000
v -4.420700 -0.974140 5.511680
v -4.422870 -0.991120 5.490980
v -4.425090 -1.007620 5.469900
v -4.427340 -1.023640 5.448460
v -4.431960 -1.054190 5.404520
v -4.429630 -1.039170 5.426660
v -4.434210 -1.068020 5.383110
v -4.436490 -1.081370 5.361410
v -4.441140 -1.106620 5.317160
v -4.438800 -1.094240 5.339430
v -4.443510 -1.118500 5.294630
v -4.445910 -1.129870 5.271840
v -4.450770 -1.151060 5.225530
v -4.448330 -1.140730 5.248800
v -4.455740 -1.170130 5.178320
v -4.453240 -1.160860 5.202030
v -4.458250 -1.178850 5.154400
v -4.460790 -1.187020 5.130290
v -4.463340 -1.194640 5.106000
v -4.465910 -1.201690 5.081540
v -4.471100 -1.214080 5.032170
v -4.468500 -1.208170 5.056920
v -4.473550 -1.219090 5.008840
v -4.476010 -1.223590 4.985410
v -4.478490 -1.227570 4.961880
v -4.483450 -1.233960 4.914600
v -4.480970 -1.231030 4.938280
v -4.488450 -1.238240 4.867080
v -4.485950 -1.236360 4.890860
v -4.490950 -1.239580 4.843260
v -4.493460 -1.240390 4.819420
v -4.495970 -1.240660 4.795560
v -4.498470 -1.240390 4.771710
v -4.500980 -1.239590 4.747870
v -4.503480 -1.238240 4.724050
v -4.505980 -1.236350 4.700260
v -4.508480 -1.233930 4.676530
v -4.510960 -1.230960 4.652860
v -4.513310 -1.227650 4.630510
v -4.515650 -1.223860 4.608240
v -4.517990 -1.219590 4.586060
v -4.520310 -1.214840 4.563970
v -4.522620 -1.209610 4.541990
v -4.524920 -1.203910 4.520130
v -4.527200 -1.197730 4.498390
v -4.529470 -1.191080 4.476800
v -4.531720 -1.183960 4.455350
v -4.533960 -1.176380 4.434060
v -4.536180 -1.168340 4.412930
v -4.538380 -1.159840 4.391990
v -4.540570 -1.150890 4.371230
v -4.542730 -1.141490 4.350670
v -4.544870 -1.131650 4.330310
v -4.546980 -1.121370 4.310170
v -4.549030 -1.110910 4.290710
v -4.553050 -1.088780 4.252470
v -4.551050 -1.100050 4.271480
v -4.556970 -1.065070 4.215180
v -4.555020 -1.077120 4.233700
v -4.558890 -1.052640 4.196910
v -4.562650 -1.026660 4.161140
v -4.560780 -1.039830 4.178890
v -4.564480 -1.013120 4.143670
v -4.569820 -0.970400 4.092930
v -4.566290 -0.999220 4.126470
v -4.573220 -0.940250 4.060570
v -4.576490 -0.908830 4.029420
v -4.579730 -0.875190 3.998610
v -4.582820 -0.840340 3.969160
v -4.562630 -0.849380 3.965310
v -4.585770 -0.804350 3.941090
v -4.588580 -0.767300 3.914430
v -4.591230 -0.729270 3.889180
v -4.593730 -0.690310 3.865370
v -4.596090 -0.650500 3.843000
v -4.600540 -0.564180 3.800610
v -4.602610 -0.517660 3.780940
v -4.598280 -0.609910 3.822070
v -4.604490 -0.470410 3.763030
v -4.606180 -0.422520 3.746910
v -4.609010 -0.325120 3.720000
v -4.610150 -0.275750 3.709210
v -4.607690 -0.374070 3.732560
v -4.611090 -0.226010 3.700210
v -4.612530 -0.113380 3.686540
v -4.612890 -0.056730 3.683110
v -4.611930 -0.169830 3.692250

f 1 2 3
f 1 3 3
f 1 3 4
f 1 4 4
f 1 4 5
f 1 5 5
f 1 5 6
f 1 6 6
f 1 6 7
f 1 7 7
f 1 7 8
f 1 8 8
f 1 8 9
f 1 9 9
f 1 9 10
f 1 10 10
f 1 10 11
f 1 11 11
f 1 11 12
f 1 12 12
f 1 12 13
f 1 13 13
f 1 13 14
f 1 14 14
f 1 14 15
f 1 15 15
f 1 15 16
f 1 16 16
f 1 16 17
f 1 17 17
f 1 17 18
f 1 18 18
f 1 18 19
f 1 19 19
f 1 19 20
f 1 20 20
f 1 20 21
f 1 21 21
f 1 21 22
f 1 22 22
f 1 22 23
f 1 23 23
f 1 23 24
f 1 24 24
f 1 24 25
f 1 25 25
f 1 25 26
f 1 26 26
f 1 26 27
f 1 27 27
f 1 27 28
f 1 28 28
f 1 28 29
f 1 29 29
f 1 29 30
f 1 30 30
f 1 30 31
f 1 31 31
f 1 31 32
f 1 32 32
f 1 32 33
f 1 33 33
f 1 33 34
f 1 34 34
f 1 34 35
f 1 35 35
f 1 35 36
f 1 36 36
f 1 36 37
f 1 37 37
f 1 37 38
f 1 38 38
f 1 38 39
f 1 39 39
f 1 39 40
f 1 40 40
f 1 40 41
f 1 41 41
f 1 41 42
f 1 42 42
f 1 42 43
f 1 43 43
f 1 43 44
f 1 44 44
f 1 44 45
f 1 45 45
f 1 45 46
f 1 46 46
f 1 46 47
f 1 47 47
f 1 47 48
f 1 48 48
f 1 48 49
f 1 49 49
f 1 49 50
f 1 50 50
f 1 50 51
f 1 51 51
f 1 51 2
f 1 2 2
f 52 53 54
f 52 54 54
f 52 55 53
f 52 53 53
f 52 56 55
f 52 55 55
f 52 57 56
f 52 56 56
f 52 58 57
f 52 57 57
f 52 59 58
f 52 58 58
f 52 60 59
f 52 59 59
f 52 61 60
f 52 60 60
f 52 62 61
f 52 61 61
f 52 63 62
f 52 62 62
f 52 64 63
f 52 63 63
f 52 65 64
f 52 64 64
f 52 66 65
f 52 65 65
f 52 67 66
f 52 66 66
f 52 68 67
f 52 67 67
f 52 69 68
f 52 68 68
f 52 70 69
f 52 69 69
f 52 71 70
f 52 70 70
f 52 72 71
f 52 71 71
f 52 73 72
f 52 72 72
f 52 74 73
f 52 73 73
f 52 75 74
f 52 74 74
f 52 76 75
f 52 75 75
f 52 77 76
f 52 76 76
f 52 78 77
f 52 77 77
f 52 79 78
f 52 78 78
f 52 80 79
f 52 79 79
f 52 81 80
f 52 80 80
f 52 82 81
f 52 81 81
f 52 83 82
f 52 82 82
f 52 84 83
f 52 83 83
f 52 85 84
f 52 84 84
f 52 86 85
f 52 85 85
f 52 87 86
f 52 86 86
f 52 88 87
f 52 87 87
f 52 89 88
f 52 88 88
f 52 90 89
f 52 89 89
f 52 91 90
f 52 90 90
f 52 92 91
f 52 91 91
f 52 93 92
f 52 92 92
f 52 94 93
f 52 93 93
f 52 95 94
f 52 94 94
f 52 96 95
f 52 95 95
f 52 97 96
f 52 96 96
f 52 98 97
f 52 97 97
f 52 99 98
f 52 98 98
f 52 100 99
f 52 99 99
f 52 101 100
f 52 100 100
f 52 102 101
f 52 101 101
f 52 54 102
f 52 102 102
f 103 104 105
f 103 105 106
f 107 108 104
f 107 104 103
f 109 103 106
f 109 106 110
f 111 107 103
f 111 103 109
f 112 109 110
f 112 110 113
f 114 111 109
f 114 109 112
f 115 112 113
f 115 113 116
f 117 114 112
f 117 112 115
f 118 115 116
f 118 116 119
f 120 117 115
f 120 115 118
f 121 118 119
f 121 119 122
f 123 120 118
f 123 118 121
f 124 121 122
f 124 122 125
f 126 123 121
f 126 121 124
f 127 124 125
f 127 125 128
f 129 126 124
f 129 124 127
f 130 127 128
f 130 128 131
f 132 129 127
f 132 127 130
f 133 130 131
f 133 131 134
f 135 132 130
f 135 130 133
f 136 133 134
f 136 134 137
f 138 135 133
f 138 133 136
f 139 136 137
f 139 137 140
f 141 138 136
f 141 136 139
f 142 139 140
f 142 140 143
f 144 141 139
f 144 139 142
f 145 142 143
f 145 143 146
f 147 144 142
f 147 142 145
f 148 145 146
f 148 146 149
f 150 147 145
f 150 145 148
f 151 148 149
f 151 149 152
f 153 150 148
f 153 148 151
f 154 151 152
f 154 152 155
f 156 153 151
f 156 151 154
f 157 154 155
f 157 155 158
f 159 156 154
f 159 154 157
f 160 157 158
f 160 158 161
f 162 159 157
f 162 157 160
f 163 160 161
f 163 161 164
f 165 162 160
f 165 160 163
f 166 163 164
f 166 164 167
f 168 165 163
f 168 163 166
f 169 166 167
f 169 167 170
f 171 168 166
f 171 166 169
f 172 169 170
f 172 170 173
f 174 171 169
f 174 169 172
f 175 172 173
f 175 173 176
f 177 174 172
f 177 172 175
f 178 175 176
f 178 176 179
f 180 177 175
f 180 175 178
f 181 178 179
f 181 179 182
f 183 180 178
f 183 178 181
f 184 181 182
f 184 182 185
f 186 183 181
f 186 181 184
f 187 184 185
f 187 185 188
f 189 186 184
f 189 184 187
f 190 187 188
f 190 188 191
f 192 189 187
f 192 187 190
f 193 190 191
f 193 191 194
f 195 192 190
f 195 190 193
f 196 193 194
f 196 194 197
f 198 195 193
f 198 193 196
f 104 196 197
f 104 197 105
f 108 198 196
f 108 196 104
f 199 200 201
f 199 201 202
f 200 203 204
f 200 204 201
f 203 205 206
f 203 206 204
f 205 207 208
f 205 208 206
f 207 209 210
f 207 210 208
f 209 211 212
f 209 212 210
f 211 213 214
f 211 214 212
f 213 215 216
f 213 216 214
f 215 217 218
f 215 218 216
f 217 219 220
f 217 220 218
f 219 221 222
f 219 222 220
f 221 223 224
f 221 224 222
f 223 225 226
f 223 226 224
f 225 227 228
f 225 228 226
f 227 229 230
f 227 230 228
f 229 231 232
f 229 232 230
f 231 233 234
f 231 234 232
f 233 235 236
f 233 236 234
f 235 237 238
f 235 238 236
f 237 239 240
f 237 240 238
f 239 241 242
f 239 242 240
f 241 243 244
f 241 244 242
f 243 245 246
f 243 246 244
f 245 247 248
f 245 248 246
f 247 199 202
f 247 202 248
f 202 201 249
f 202 249 250
f 201 204 251
f 201 251 249
f 204 206 252
f 204 252 251
f 206 208 253
f 206 253 252
f 208 210 254
f 208 254 253
f 210 212 255
f 210 255 254
f 212 214 256
f 212 256 255
f 214 216 257
f 214 257 256
f 216 218 258
f 216 258 257
f 218 220 259
f 218 259 258
f 220 222 260
f 220 260 259
f 222 224 261
f 222 261 260
f 224 226 262
f 224 262 261
f 226 228 263
f 226 263 262
f 228 230 264
f 228 264 263
f 230 232 265
f 230 265 264
f 232 234 266
f 232 266 265
f 234 236 267
f 234 267 266
f 236 238 268
f 236 268 267
f 238 240 269
f 238 269 268
f 240 242 270
f 240 270 269
f 242 244 271
f 242 271 270
f 244 246 272
f 244 272 271
f 246 248 273
f 246 273 272
f 248 202 250
f 248 250 273
f 250 249 274
f 250 274 275
f 249 251 276
f 249 276 274
f 251 252 277
f 251 277 276
f 252 253 278
f 252 278 277
f 253 254 279
f 253 279 278
f 254 255 280
f 254 280 279
f 255 256 281
f 255 281 280
f 256 257 282
f 256 282 281
f 257 258 283
f 257 283 282
f 258 259 284
f 258 284 283
f 259 260 285
f 259 285 284
f 260 261 286
f 260 286 285
f 261 262 287
f 261 287 286
f 262 263 288
f 262 288 287
f 263 264 289
f 263 289 288
f 264 265 290
f 264 290 289
f 265 266 291
f 265 291 290
f 266 267 292
f 266 292 291
f 267 268 293
f 267 293 292
f 268 269 294
f 268 294 293
f 269 270 295
f 269 295 294
f 270 271 296
f 270 296 295
f 271 272 297
f 271 297 296
f 272 273 298
f 272 298 297
f 273 250 275
f 273 275 298
f 275 274 299
f 275 299 300
f 274 276 301
f 274 301 299
f 276 277 302
f 276 302 301
f 277 278 303
f 277 303 302
f 278 279 304
f 278 304 303
f 279 280 305
f 279 305 304
f 280 281 306
f 280 306 305
f 281 282 307
f 281 307 306
f 282 283 308
f 282 308 307
f 283 284 309
f 283 309 308
f 284 285 310
f 284 310 309
f 285 286 311
f 285 311 310
f 286 287 312
f 286 312 311
f 287 288 313
f 287 313 312
f 288 289 314
f 288 314 313
f 289 290 315
f 289 315 314
f 290 291 316
f 290 316 315
f 291 292 317
f 291 317 316
f 292 293 318
f 292 318 317
f 293 294 319
f 293 319 318
f 294 295 320
f 294 320 319
f 295 296 321
f 295 321 320
f 296 297 322
f 296 322 321
f 297 298 323
f 297 323 322
f 298 275 300
f 298 300 323
f 300 299 324
f 300 324 325
f 299 301 326
f 299 326 324
f 301 302 327
f 301 327 326
f 302 303 328
f 302 328 327
f 303 304 329
f 303 329 328
f 304 305 330
f 304 330 329
f 305 306 331
f 305 331 330
f 306 307 332
f 306 332 331
f 307 308 333
f 307 333 332
f 308 309 334
f 308 334 333
f 309 310 335
f 309 335 334
f 310 311 336
f 310 336 335
f 311 312 337
f 311 337 336
f 312 313 338
f 312 338 337
f 313 314 339
f 313 339 338
f 314 315 340
f 314 340 339
f 315 316 341
f 315 341 340
f 316 317 342
f 316 342 341
f 317 318 343
f 317 343 342
f 318 319 344
f 318 344 343
f 319 320 345
f 319 345 344
f 320 321 346
f 320 346 345
f 321 322 347
f 321 347 346
f 322 323 348
f 322 348 347
f 323 300 325
f 323 325 348
f 1 200 199
f 1 199 199
f 1 203 200
f 1 200 200
f 1 205 203
f 1 203 203
f 1 207 205
f 1 205 205
f 1 209 207
f 1 207 207
f 1 211 209
f 1 209 209
f 1 213 211
f 1 211 211
f 1 215 213
f 1 213 213
f 1 217 215
f 1 215 215
f 1 219 217
f 1 217 217
f 1 221 219
f 1 219 219
f 1 223 221
f 1 221 221
f 1 225 223
f 1 223 223
f 1 227 225
f 1 225 225
f 1 229 227
f 1 227 227
f 1 231 229
f 1 229 229
f 1 233 231
f 1 231 231
f 1 235 233
f 1 233 233
f 1 237 235
f 1 235 235
f 1 239 237
f 1 237 237
f 1 241 239
f 1 239 239
f 1 243 241
f 1 241 241
f 1 245 243
f 1 243 243
f 1 247 245
f 1 245 245
f 1 199 247
f 1 247 247
f 349 325 324
f 349 324 324
f 349 324 326
f 349 326 326
f 349 326 327
f 349 327 327
f 349 327 328
f 349 328 328
f 349 328 329
f 349 329 329
f 349 329 330
f 349 330 330
f 349 330 331
f 349 331 331
f 349 331 332
f 349 332 332
f 349 332 333
f 349 333 333
f 349 333 334
f 349 334 334
f 349 334 335
f 349 335 335
f 349 335 336
f 349 336 336
f 349 336 337
f 349 337 337
f 349 337 338
f 349 338 338
f 349 338 339
f 349 339 339
f 349 339 340
f 349 340 340
f 349 340 341
f 349 341 341
f 349 341 342
f 349 342 342
f 349 342 343
f 349 343 343
f 349 343 344
f 349 344 344
f 349 344 345
f 349 345 345
f 349 345 346
f 349 346 346
f 349 346 347
f 349 347 347
f 349 347 348
f 349 348 348
f 349 348 325
f 349 325 325
f 350 351 352
f 350 352 353
f 354 355 351
f 354 351 350
f 356 357 355
f 356 355 354
f 358 359 357
f 358 357 356
f 360 361 359
f 360 359 358
f 362 363 361
f 362 361 360
f 364 365 363
f 364 363 362
f 366 367 365
f 366 365 364
f 368 369 367
f 368 367 366
f 370 371 369
f 370 369 368
f 372 350 353
f 372 353 373
f 374 354 350
f 374 350 372
f 375 356 354
f 375 354 374
f 376 358 356
f 376 356 375
f 377 360 358
f 377 358 376
f 378 362 360
f 378 360 377
f 379 364 362
f 379 362 378
f 380 366 364
f 380 364 379
f 381 368 366
f 381 366 380
f 382 370 368
f 382 368 381
f 383 372 373
f 383 373 384
f 385 374 372
f 385 372 383
f 386 375 374
f 386 374 385
f 387 376 375
f 387 375 386
f 388 377 376
f 388 376 387
f 389 378 377
f 389 377 388
f 390 379 378
f 390 378 389
f 391 380 379
f 391 379 390
f 392 381 380
f 392 380 391
f 393 382 381
f 393 381 392
f 394 383 384
f 394 384 395
f 396 385 383
f 396 383 394
f 397 386 385
f 397 385 396
f 398 387 386
f 398 386 397
f 399 388 387
f 399 387 398
f 400 389 388
f 400 388 399
f 401 390 389
f 401 389 400
f 402 391 390
f 402 390 401
f 403 392 391
f 403 391 402
f 404 393 392
f 404 392 403
f 405 394 395
f 405 395 406
f 407 396 394
f 407 394 405
f 408 397 396
f 408 396 407
f 409 398 397
f 409 397 408
f 410 399 398
f 410 398 409
f 411 400 399
f 411 399 410
f 412 401 400
f 412 400 411
f 413 402 401
f 413 401 412
f 414 403 402
f 414 402 413
f 415 404 403
f 415 403 414
f 416 405 406
f 416 406 417
f 418 407 405
f 418 405 416
f 419 408 407
f 419 407 418
f 420 409 408
f 420 408 419
f 421 410 409
f 421 409 420
f 422 411 410
f 422 410 421
f 423 412 411
f 423 411 422
f 424 413 412
f 424 412 423
f 425 414 413
f 425 413 424
f 426 415 414
f 426 414 425
f 427 416 417
f 427 417 428
f 429 418 416
f 429 416 427
f 430 419 418
f 430 418 429
f 431 420 419
f 431 419 430
f 432 421 420
f 432 420 431
f 433 422 421
f 433 421 432
f 434 423 422
f 434 422 433
f 435 424 423
f 435 423 434
f 436 425 424
f 436 424 435
f 437 426 425
f 437 425 436
f 438 427 428
f 438 428 439
f 440 429 427
f 440 427 438
f 441 430 429
f 441 429 440
f 442 431 430
f 442 430 441
f 443 432 431
f 443 431 442
f 444 433 432
f 444 432 443
f 445 434 433
f 445 433 444
f 446 435 434
f 446 434 445
f 447 436 435
f 447 435 446
f 448 437 436
f 448 436 447
f 449 438 439
f 449 439 450
f 451 440 438
f 451 438 449
f 452 441 440
f 452 440 451
f 453 442 441
f 453 441 452
f 454 443 442
f 454 442 453
f 455 444 443
f 455 443 454
f 456 445 444
f 456 444 455
f 457 446 445
f 457 445 456
f 458 447 446
f 458 446 457
f 459 448 447
f 459 447 458
f 460 450 461
f 460 461 462
f 463 449 450
f 463 450 460
f 464 451 449
f 464 449 463
f 465 452 451
f 465 451 464
f 466 453 452
f 466 452 465
f 467 454 453
f 467 453 466
f 468 455 454
f 468 454 467
f 469 456 455
f 469 455 468
f 470 457 456
f 470 456 469
f 471 458 457
f 471 457 470
f 472 459 458
f 472 458 471
f 473 460 462
f 473 462 474
f 475 463 460
f 475 460 473
f 476 464 463
f 476 463 475
f 477 465 464
f 477 464 476
f 478 466 465
f 478 465 477
f 479 467 466
f 479 466 478
f 480 468 467
f 480 467 479
f 481 469 468
f 481 468 480
f 482 470 469
f 482 469 481
f 483 471 470
f 483 470 482
f 484 472 471
f 484 471 483
f 485 473 474
f 485 474 486
f 487 475 473
f 487 473 485
f 488 476 475
f 488 475 487
f 489 477 476
f 489 476 488
f 490 478 477
f 490 477 489
f 491 479 478
f 491 478 490
f 492 480 479
f 492 479 491
f 493 481 480
f 493 480 492
f 494 482 481
f 494 481 493
f 495 483 482
f 495 482 494
f 496 484 483
f 496 483 495
f 497 485 486
f 497 486 498
f 499 487 485
f 499 485 497
f 500 488 487
f 500 487 499
f 501 489 488
f 501 488 500
f 502 490 489
f 502 489 501
f 503 491 490
f 503 490 502
f 504 492 491
f 504 491 503
f 505 493 492
f 505 492 504
f 506 494 493
f 506 493 505
f 507 495 494
f 507 494 506
f 508 496 495
f 508 495 507
f 509 497 498
f 509 498 510
f 511 499 497
f 511 497 509
f 512 500 499
f 512 499 511
f 513 501 500
f 513 500 512
f 514 502 501
f 514 501 513
f 515 503 502
f 515 502 514
f 516 504 503
f 516 503 515
f 517 505 504
f 517 504 516
f 518 506 505
f 518 505 517
f 519 507 506
f 519 506 518
f 520 508 507
f 520 507 519
f 521 509 510
f 521 510 522
f 523 511 509
f 523 509 521
f 524 512 511
f 524 511 523
f 525 513 512
f 525 512 524
f 526 514 513
f 526 513 525
f 527 515 514
f 527 514 526
f 528 516 515
f 528 515 527
f 529 517 516
f 529 516 528
f 530 518 517
f 530 517 529
f 531 519 518
f 531 518 530
f 532 520 519
f 532 519 531
f 533 521 522
f 533 522 534
f 535 523 521
f 535 521 533
f 536 524 523
f 536 523 535
f 537 525 524
f 537 524 536
f 538 526 525
f 538 525 537
f 539 527 526
f 539 526 538
f 540 528 527
f 540 527 539
f 541 529 528
f 541 528 540
f 542 530 529
f 542 529 541
f 543 531 530
f 543 530 542
f 544 532 531
f 544 531 543
f 545 533 534
f 545 534 546
f 547 535 533
f 547 533 545
f 548 536 535
f 548 535 547
f 549 537 536
f 549 536 548
f 550 538 537
f 550 537 549
f 551 539 538
f 551 538 550
f 552 540 539
f 552 539 551
f 553 541 540
f 553 540 552
f 554 542 541
f 554 541 553
f 555 543 542
f 555 542 554
f 556 544 543
f 556 543 555
f 557 545 546
f 557 546 558
f 559 547 545
f 559 545 557
f 560 548 547
f 560 547 559
f 561 549 548
f 561 548 560
f 562 550 549
f 562 549 561
f 563 551 550
f 563 550 562
f 564 552 551
f 564 551 563
f 565 553 552
f 565 552 564
f 566 554 553
f 566 553 565
f 567 555 554
f 567 554 566
f 568 556 555
f 568 555 567
f 569 557 558
f 569 558 570
f 571 559 557
f 571 557 569
f 572 560 559
f 572 559 571
f 573 561 560
f 573 560 572
f 574 562 561
f 574 561 573
f 575 563 562
f 575 562 574
f 576 564 563
f 576 563 575
f 577 565 564
f 577 564 576
f 578 566 565
f 578 565 577
f 579 567 566
f 579 566 578
f 580 568 567
f 580 567 579
f 581 569 570
f 581 570 582
f 583 571 569
f 583 569 581
f 584 572 571
f 584 571 583
f 585 573 572
f 585 572 584
f 586 574 573
f 586 573 585
f 587 575 574
f 587 574 586
f 588 576 575
f 588 575 587
f 589 577 576
f 589 576 588
f 590 578 577
f 590 577 589
f 591 579 578
f 591 578 590
f 592 580 579
f 592 579 591
f 593 581 582
f 593 582 594
f 595 583 581
f 595 581 593
f 596 584 583
f 596 583 595
f 597 585 584
f 597 584 596
f 598 586 585
f 598 585 597
f 599 587 586
f 599 586 598
f 600 588 587
f 600 587 599
f 601 589 588
f 601 588 600
f 602 590 589
f 602 589 601
f 603 591 590
f 603 590 602
f 604 592 591
f 604 591 603
f 605 593 594
f 605 594 606
f 607 595 593
f 607 593 605
f 608 596 595
f 608 595 607
f 609 597 596
f 609 596 608
f 610 598 597
f 610 597 609
f 611 599 598
f 611 598 610
f 612 600 599
f 612 599 611
f 613 601 600
f 613 600 612
f 614 602 601
f 614 601 613
f 615 603 602
f 615 602 614
f 616 604 603
f 616 603 615
f 617 605 606
f 617 606 618
f 619 607 605
f 619 605 617
f 620 608 607
f 620 607 619
f 621 609 608
f 621 608 620
f 622 610 609
f 622 609 621
f 623 611 610
f 623 610 622
f 624 612 611
f 624 611 623
f 625 613 612
f 625 612 624
f 626 614 613
f 626 613 625
f 627 615 614
f 627 614 626
f 628 616 615
f 628 615 627
f 629 617 618
f 629 618 630
f 631 619 617
f 631 617 629
f 632 620 619
f 632 619 631
f 633 621 620
f 633 620 632
f 634 622 621
f 634 621 633
f 635 623 622
f 635 622 634
f 636 624 623
f 636 623 635
f 637 625 624
f 637 624 636
f 638 626 625
f 638 625 637
f 639 627 626
f 639 626 638
f 640 628 627
f 640 627 639
f 641 629 630
f 641 630 642
f 643 631 629
f 643 629 641
f 644 632 631
f 644 631 643
f 645 633 632
f 645 632 644
f 646 634 633
f 646 633 645
f 647 635 634
f 647 634 646
f 648 636 635
f 648 635 647
f 649 637 636
f 649 636 648
f 650 638 637
f 650 637 649
f 651 639 638
f 651 638 650
f 652 640 639
f 652 639 651
f 653 641 642
f 653 642 654
f 655 643 641
f 655 641 653
f 656 644 643
f 656 643 655
f 657 645 644
f 657 644 656
f 658 646 645
f 658 645 657
f 659 647 646
f 659 646 658
f 660 648 647
f 660 647 659
f 661 649 648
f 661 648 660
f 662 650 649
f 662 649 661
f 663 651 650
f 663 650 662
f 664 652 651
f 664 651 663
f 665 653 654
f 665 654 666
f 667 655 653
f 667 653 665
f 668 656 655
f 668 655 667
f 669 657 656
f 669 656 668
f 670 658 657
f 670 657 669
f 671 659 658
f 671 658 670
f 672 660 659
f 672 659 671
f 673 661 660
f 673 660 672
f 674 662 661
f 674 661 673
f 675 663 662
f 675 662 674
f 676 664 663
f 676 663 675
f 677 665 666
f 677 666 678
f 679 667 665
f 679 665 677
f 680 668 667
f 680 667 679
f 681 669 668
f 681 668 680
f 682 670 669
f 682 669 681
f 683 671 670
f 683 670 682
f 684 672 671
f 684 671 683
f 685 673 672
f 685 672 684
f 686 674 673
f 686 673 685
f 687 675 674
f 687 674 686
f 688 676 675
f 688 675 687
f 689 677 678
f 689 678 690
f 691 679 677
f 691 677 689
f 692 680 679
f 692 679 691
f 693 681 680
f 693 680 692
f 694 682 681
f 694 681 693
f 695 683 682
f 695 682 694
f 696 684 683
f 696 683 695
f 697 685 684
f 697 684 696
f 698 686 685
f 698 685 697
f 699 687 686
f 699 686 698
f 700 688 687
f 700 687 699
f 701 689 690
f 701 690 702
f 703 691 689
f 703 689 701
f 704 692 691
f 704 691 703
f 705 693 692
f 705 692 704
f 706 694 693
f 706 693 705
f 707 695 694
f 707 694 706
f 708 696 695
f 708 695 707
f 709 697 696
f 709 696 708
f 710 698 697
f 710 697 709
f 711 699 698
f 711 698 710
f 712 700 699
f 712 699 711
f 713 701 702
f 713 702 714
f 715 703 701
f 715 701 713
f 716 704 703
f 716 703 715
f 717 705 704
f 717 704 716
f 718 706 705
f 718 705 717
f 719 707 706
f 719 706 718
f 720 708 707
f 720 707 719
f 721 709 708
f 721 708 720
f 722 710 709
f 722 709 721
f 723 711 710
f 723 710 722
f 724 712 711
f 724 711 723
f 725 713 714
f 725 714 726
f 727 715 713
f 727 713 725
f 728 716 715
f 728 715 727
f 729 717 716
f 729 716 728
f 730 718 717
f 730 717 729
f 731 719 718
f 731 718 730
f 732 720 719
f 732 719 731
f 733 721 720
f 733 720 732
f 734 722 721
f 734 721 733
f 735 723 722
f 735 722 734
f 736 724 723
f 736 723 735
f 737 461 738
f 737 738 738
f 739 738 461
f 739 461 461
f 739 461 740
f 739 740 740
f 461 737 741
f 461 741 741
f 462 742 743
f 462 743 743
f 744 742 462
f 744 462 462
f 744 462 741
f 744 741 741
f 461 741 462
f 461 462 462
f 745 462 743
f 745 743 743
f 746 747 748
f 746 748 748
f 749 417 750
f 749 750 750
f 749 747 428
f 749 428 428
f 747 746 428
f 747 428 428
f 746 748 751
f 746 751 751
f 461 752 753
f 461 753 753
f 461 753 740
f 461 740 740
f 754 746 755
f 754 755 755
f 461 754 752
f 461 752 752
f 751 755 746
f 751 746 746
f 754 461 746
f 754 746 746
f 439 461 450
f 439 450 450
f 756 462 745
f 756 745 745
f 757 498 758
f 757 758 758
f 759 498 760
f 759 760 760
f 759 758 498
f 759 498 498
f 761 510 757
f 761 757 757
f 762 522 763
f 762 763 763
f 764 522 762
f 764 762 762
f 765 510 766
f 765 766 766
f 763 510 765
f 763 765 765
f 761 766 510
f 761 510 510
f 767 522 764
f 767 764 764
f 474 768 769
f 474 769 769
f 770 474 771
f 770 771 771
f 768 474 770
f 768 770 770
f 486 769 772
f 486 772 772
f 486 773 774
f 486 774 774
f 498 774 775
f 498 775 775
f 486 776 777
f 486 777 777
f 486 777 773
f 486 773 773
f 776 486 772
f 776 772 772
f 760 498 775
f 760 775 775
f 771 474 756
f 771 756 756
f 778 522 767
f 778 767 767
f 373 779 780
f 373 780 780
f 373 781 782
f 373 782 782
f 373 783 781
f 373 781 781
f 782 779 373
f 782 373 373
f 395 384 784
f 395 784 784
f 384 785 786
f 384 786 786
f 384 787 785
f 384 785 785
f 786 784 384
f 786 384 384
f 384 780 787
f 384 787 787
f 353 352 788
f 353 788 788
f 352 789 790
f 352 790 790
f 788 352 790
f 788 790 790
f 353 788 791
f 353 791 791
f 353 792 793
f 353 793 793
f 353 794 792
f 353 792 792
f 793 373 353
f 793 353 353
f 783 373 793
f 783 793 793
f 373 780 384
f 373 384 384
f 791 794 353
f 791 353 353
f 395 784 795
f 395 795 795
f 796 417 797
f 796 797 797
f 797 417 798
f 797 798 798
f 798 406 799
f 798 799 799
f 800 417 796
f 800 796 796
f 746 439 428
f 746 428 428
f 756 474 462
f 756 462 462
f 769 486 474
f 769 474 474
f 757 510 498
f 757 498 498
f 763 522 510
f 763 510 510
f 498 486 774
f 498 774 774
f 406 395 801
f 406 801 801
f 395 802 803
f 395 803 803
f 801 395 803
f 801 803 803
f 795 802 395
f 795 395 395
f 406 801 804
f 406 804 804
f 805 799 406
f 805 406 406
f 406 798 417
f 406 417 417
f 804 805 406
f 804 406 406
f 417 800 750
f 417 750 750
f 417 749 428
f 417 428 428
f 439 746 461
f 439 461 461
f 522 778 806
f 522 806 806
f 807 808 654
f 807 654 654
f 809 810 642
f 809 642 642
f 642 810 807
f 642 807 807
f 808 811 654
f 808 654 654
f 812 666 813
f 812 813 813
f 814 815 654
f 814 654 654
f 815 813 654
f 815 654 654
f 814 654 811
f 814 811 811
f 812 816 666
f 812 666 666
f 817 618 818
f 817 818 818
f 819 606 820
f 819 820 820
f 819 818 618
f 819 618 618
f 821 618 817
f 821 817 817
f 822 642 823
f 822 823 823
f 824 642 822
f 824 822 822
f 825 630 826
f 825 826 826
f 823 630 825
f 823 825 825
f 821 826 618
f 821 618 618
f 824 809 642
f 824 642 642
f 827 666 816
f 827 816 816
f 702 828 829
f 702 829 829
f 828 702 830
f 828 830 830
f 702 831 830
f 702 830 830
f 829 832 714
f 829 714 714
f 833 726 834
f 833 834 834
f 835 834 726
f 835 726 726
f 714 836 835
f 714 835 835
f 837 836 714
f 837 714 714
f 837 714 832
f 837 832 832
f 838 831 702
f 838 702 702
f 678 839 840
f 678 840 840
f 841 678 842
f 841 842 842
f 839 678 841
f 839 841 841
f 678 840 843
f 678 843 843
f 690 844 845
f 690 845 845
f 690 845 846
f 690 846 846
f 690 847 848
f 690 848 848
f 690 848 844
f 690 844 844
f 847 678 843
f 847 843 843
f 702 846 838
f 702 838 838
f 827 842 666
f 827 666 666
f 849 726 833
f 849 833 833
f 850 546 851
f 850 851 851
f 852 546 853
f 852 853 853
f 852 851 546
f 852 546 546
f 854 558 850
f 854 850 850
f 855 558 856
f 855 856 856
f 857 570 855
f 857 855 855
f 858 558 859
f 858 859 859
f 856 558 858
f 856 858 858
f 854 859 558
f 854 558 558
f 860 570 857
f 860 857 857
f 534 861 862
f 534 862 862
f 534 806 863
f 534 863 863
f 861 534 863
f 861 863 863
f 522 806 534
f 522 534 534
f 534 862 864
f 534 864 864
f 546 534 865
f 546 865 865
f 866 546 865
f 866 865 865
f 853 546 866
f 853 866 866
f 558 546 850
f 558 850 850
f 558 855 570
f 558 570 570
f 864 865 534
f 864 534 534
f 570 860 582
f 570 582 582
f 582 867 868
f 582 868 868
f 869 867 582
f 869 582 582
f 594 582 868
f 594 868 868
f 860 869 582
f 860 582 582
f 594 868 870
f 594 870 870
f 871 606 872
f 871 872 872
f 873 606 871
f 873 871 871
f 594 874 872
f 594 872 872
f 606 594 872
f 606 872 872
f 874 594 870
f 874 870 870
f 875 606 873
f 875 873 873
f 820 606 875
f 820 875 875
f 630 618 826
f 630 826 826
f 642 630 823
f 642 823 823
f 606 819 618
f 606 618 618
f 666 654 813
f 666 813 813
f 678 666 842
f 678 842 842
f 702 690 846
f 702 846 846
f 714 702 829
f 714 829 829
f 678 847 690
f 678 690 690
f 642 807 654
f 642 654 654
f 714 835 726
f 714 726 726
f 876 725 726
f 876 726 877
f 878 727 725
f 878 725 876
f 879 728 727
f 879 727 878
f 880 729 728
f 880 728 879
f 881 730 729
f 881 729 880
f 882 731 730
f 882 730 881
f 883 732 731
f 883 731 882
f 884 733 732
f 884 732 883
f 885 734 733
f 885 733 884
f 886 735 734
f 886 734 885
f 887 736 735
f 887 735 886
f 888 876 877
f 888 877 889
f 890 878 876
f 890 876 888
f 891 879 878
f 891 878 890
f 892 880 879
f 892 879 891
f 893 881 880
f 893 880 892
f 894 882 881
f 894 881 893
f 895 883 882
f 895 882 894
f 896 884 883
f 896 883 895
f 897 885 884
f 897 884 896
f 898 886 885
f 898 885 897
f 899 887 886
f 899 886 898
f 900 888 889
f 900 889 901
f 902 890 888
f 902 888 900
f 903 891 890
f 903 890 902
f 904 892 891
f 904 891 903
f 905 893 892
f 905 892 904
f 906 894 893
f 906 893 905
f 907 895 894
f 907 894 906
f 908 896 895
f 908 895 907
f 909 897 896
f 909 896 908
f 910 898 897
f 910 897 909
f 911 899 898
f 911 898 910
f 912 900 901
f 912 901 913
f 914 902 900
f 914 900 912
f 915 903 902
f 915 902 914
f 916 904 903
f 916 903 915
f 917 905 904
f 917 904 916
f 918 906 905
f 918 905 917
f 919 907 906
f 919 906 918
f 920 908 907
f 920 907 919
f 921 909 908
f 921 908 920
f 922 910 909
f 922 909 921
f 923 911 910
f 923 910 922
f 924 912 913
f 924 913 925
f 926 914 912
f 926 912 924
f 927 915 914
f 927 914 926
f 928 916 915
f 928 915 927
f 929 917 916
f 929 916 928
f 930 918 917
f 930 917 929
f 931 919 918
f 931 918 930
f 932 920 919
f 932 919 931
f 933 921 920
f 933 920 932
f 934 922 921
f 934 921 933
f 935 923 922
f 935 922 934
f 936 924 925
f 936 925 937
f 938 926 924
f 938 924 936
f 939 927 926
f 939 926 938
f 940 928 927
f 940 927 939
f 941 929 928
f 941 928 940
f 942 930 929
f 942 929 941
f 943 931 930
f 943 930 942
f 944 932 931
f 944 931 943
f 945 933 932
f 945 932 944
f 946 934 933
f 946 933 945
f 947 935 934
f 947 934 946
f 948 936 937
f 948 937 949
f 950 938 936
f 950 936 948
f 951 939 938
f 951 938 950
f 952 940 939
f 952 939 951
f 953 941 940
f 953 940 952
f 954 942 941
f 954 941 953
f 955 943 942
f 955 942 954
f 956 944 943
f 956 943 955
f 957 945 944
f 957 944 956
f 958 946 945
f 958 945 957
f 959 947 946
f 959 946 958
f 960 948 949
f 960 949 961
f 962 950 948
f 962 948 960
f 963 951 950
f 963 950 962
f 964 952 951
f 964 951 963
f 965 953 952
f 965 952 964
f 966 954 953
f 966 953 965
f 967 955 954
f 967 954 966
f 968 956 955
f 968 955 967
f 969 957 956
f 969 956 968
f 970 958 957
f 970 957 969
f 971 959 958
f 971 958 970
f 972 960 961
f 972 961 973
f 974 962 960
f 974 960 972
f 975 963 962
f 975 962 974
f 976 964 963
f 976 963 975
f 977 965 964
f 977 964 976
f 978 966 965
f 978 965 977
f 979 967 966
f 979 966 978
f 980 968 967
f 980 967 979
f 981 969 968
f 981 968 980
f 982 970 969
f 982 969 981
f 983 971 970
f 983 970 982
f 984 972 973
f 984 973 985
f 986 974 972
f 986 972 984
f 987 975 974
f 987 974 986
f 988 976 975
f 988 975 987
f 989 977 976
f 989 976 988
f 990 978 977
f 990 977 989
f 991 979 978
f 991 978 990
f 992 980 979
f 992 979 991
f 993 981 980
f 993 980 992
f 994 982 981
f 994 981 993
f 995 983 982
f 995 982 994
f 996 984 985
f 996 985 997
f 998 986 984
f 998 984 996
f 999 987 986
f 999 986 998
f 1000 988 987
f 1000 987 999
f 1001 989 988
f 1001 988 1000
f 1002 990 989
f 1002 989 1001
f 1003 991 990
f 1003 990 1002
f 1004 992 991
f 1004 991 1003
f 1005 993 992
f 1005 992 1004
f 1006 994 993
f 1006 993 1005
f 1007 995 994
f 1007 994 1006
f 1008 996 997
f 1008 997 1009
f 1010 998 996
f 1010 996 1008
f 1011 999 998
f 1011 998 1010
f 1012 1000 999
f 1012 999 1011
f 1013 1001 1000
f 1013 1000 1012
f 1014 1002 1001
f 1014 1001 1013
f 1015 1003 1002
f 1015 1002 1014
f 1016 1004 1003
f 1016 1003 1015
f 1017 1005 1004
f 1017 1004 1016
f 1018 1006 1005
f 1018 1005 1017
f 1019 1007 1006
f 1019 1006 1018
f 1020 1008 1009
f 1020 1009 1021
f 1022 1010 1008
f 1022 1008 1020
f 1023 1011 1010
f 1023 1010 1022
f 1024 1012 1011
f 1024 1011 1023
f 1025 1013 1012
f 1025 1012 1024
f 1026 1014 1013
f 1026 1013 1025
f 1027 1015 1014
f 1027 1014 1026
f 1028 1016 1015
f 1028 1015 1027
f 1029 1017 1016
f 1029 1016 1028
f 1030 1018 1017
f 1030 1017 1029
f 1031 1019 1018
f 1031 1018 1030
f 1032 1020 1021
f 1032 1021 1033
f 1034 1022 1020
f 1034 1020 1032
f 1035 1023 1022
f 1035 1022 1034
f 1036 1024 1023
f 1036 1023 1035
f 1037 1025 1024
f 1037 1024 1036
f 1038 1026 1025
f 1038 1025 1037
f 1039 1027 1026
f 1039 1026 1038
f 1040 1028 1027
f 1040 1027 1039
f 1041 1029 1028
f 1041 1028 1040
f 1042 1030 1029
f 1042 1029 1041
f 1043 1031 1030
f 1043 1030 1042
f 1044 1032 1033
f 1044 1033 1045
f 1046 1034 1032
f 1046 1032 1044
f 1047 1035 1034
f 1047 1034 1046
f 1048 1036 1035
f 1048 1035 1047
f 1049 1037 1036
f 1049 1036 1048
f 1050 1038 1037
f 1050 1037 1049
f 1051 1039 1038
f 1051 1038 1050
f 1052 1040 1039
f 1052 1039 1051
f 1053 1041 1040
f 1053 1040 1052
f 1054 1042 1041
f 1054 1041 1053
f 1055 1043 1042
f 1055 1042 1054
f 1056 1044 1045
f 1056 1045 1057
f 1058 1046 1044
f 1058 1044 1056
f 1059 1047 1046
f 1059 1046 1058
f 1060 1048 1047
f 1060 1047 1059
f 1061 1049 1048
f 1061 1048 1060
f 1062 1050 1049
f 1062 1049 1061
f 1063 1051 1050
f 1063 1050 1062
f 1064 1052 1051
f 1064 1051 1063
f 1065 1053 1052
f 1065 1052 1064
f 1066 1054 1053
f 1066 1053 1065
f 1067 1055 1054
f 1067 1054 1066
f 1068 1056 1057
f 1068 1057 1069
f 1070 1058 1056
f 1070 1056 1068
f 1071 1059 1058
f 1071 1058 1070
f 1072 1060 1059
f 1072 1059 1071
f 1073 1061 1060
f 1073 1060 1072
f 1074 1062 1061
f 1074 1061 1073
f 1075 1063 1062
f 1075 1062 1074
f 1076 1064 1063
f 1076 1063 1075
f 1077 1065 1064
f 1077 1064 1076
f 1078 1066 1065
f 1078 1065 1077
f 1079 1067 1066
f 1079 1066 1078
f 1080 1068 1069
f 1080 1069 1081
f 1082 1070 1068
f 1082 1068 1080
f 1083 1071 1070
f 1083 1070 1082
f 1084 1072 1071
f 1084 1071 1083
f 1085 1073 1072
f 1085 1072 1084
f 1086 1074 1073
f 1086 1073 1085
f 1087 1075 1074
f 1087 1074 1086
f 1088 1076 1075
f 1088 1075 1087
f 1089 1077 1076
f 1089 1076 1088
f 1090 1078 1077
f 1090 1077 1089
f 1091 1079 1078
f 1091 1078 1090
f 1092 1080 1081
f 1092 1081 1093
f 1094 1082 1080
f 1094 1080 1092
f 1095 1083 1082
f 1095 1082 1094
f 1096 1084 1083
f 1096 1083 1095
f 1097 1085 1084
f 1097 1084 1096
f 1098 1086 1085
f 1098 1085 1097
f 1099 1087 1086
f 1099 1086 1098
f 1100 1088 1087
f 1100 1087 1099
f 1101 1089 1088
f 1101 1088 1100
f 1102 1090 1089
f 1102 1089 1101
f 1103 1091 1090
f 1103 1090 1102
f 1104 1092 1093
f 1104 1093 1105
f 1106 1094 1092
f 1106 1092 1104
f 1107 1095 1094
f 1107 1094 1106
f 1108 1096 1095
f 1108 1095 1107
f 1109 1097 1096
f 1109 1096 1108
f 1110 1098 1097
f 1110 1097 1109
f 1111 1099 1098
f 1111 1098 1110
f 1112 1100 1099
f 1112 1099 1111
f 1113 1101 1100
f 1113 1100 1112
f 1114 1102 1101
f 1114 1101 1113
f 1115 1103 1102
f 1115 1102 1114
f 1116 1104 1105
f 1116 1105 1117
f 1118 1106 1104
f 1118 1104 1116
f 1119 1107 1106
f 1119 1106 1118
f 1120 1108 1107
f 1120 1107 1119
f 1121 1109 1108
f 1121 1108 1120
f 1122 1110 1109
f 1122 1109 1121
f 1123 1111 1110
f 1123 1110 1122
f 1124 1112 1111
f 1124 1111 1123
f 1125 1113 1112
f 1125 1112 1124
f 1126 1114 1113
f 1126 1113 1125
f 1127 1115 1114
f 1127 1114 1126
f 1128 1116 1117
f 1128 1117 1129
f 1130 1118 1116
f 1130 1116 1128
f 1131 1119 1118
f 1131 1118 1130
f 1132 1120 1119
f 1132 1119 1131
f 1133 1121 1120
f 1133 1120 1132
f 1134 1122 1121
f 1134 1121 1133
f 1135 1123 1122
f 1135 1122 1134
f 1136 1124 1123
f 1136 1123 1135
f 1137 1125 1124
f 1137 1124 1136
f 1138 1126 1125
f 1138 1125 1137
f 1139 1127 1126
f 1139 1126 1138
f 1140 1128 1129
f 1140 1129 1141
f 1142 1130 1128
f 1142 1128 1140
f 1143 1131 1130
f 1143 1130 1142
f 1144 1132 1131
f 1144 1131 1143
f 1145 1133 1132
f 1145 1132 1144
f 1146 1134 1133
f 1146 1133 1145
f 1147 1135 1134
f 1147 1134 1146
f 1148 1136 1135
f 1148 1135 1147
f 1149 1137 1136
f 1149 1136 1148
f 1150 1138 1137
f 1150 1137 1149
f 1151 1139 1138
f 1151 1138 1150
f 1152 1142 1140
f 1152 1140 1153
f 1154 1143 1142
f 1154 1142 1152
f 1155 1144 1143
f 1155 1143 1154
f 1156 1145 1144
f 1156 1144 1155
f 1157 1146 1145
f 1157 1145 1156
f 1158 1147 1146
f 1158 1146 1157
f 1159 1148 1147
f 1159 1147 1158
f 1160 1149 1148
f 1160 1148 1159
f 1161 1150 1149
f 1161 1149 1160
f 1162 1151 1150
f 1162 1150 1161
f 1163 1152 1153
f 1163 1153 1164
f 1165 1154 1152
f 1165 1152 1163
f 1166 1155 1154
f 1166 1154 1165
f 1167 1156 1155
f 1167 1155 1166
f 1168 1157 1156
f 1168 1156 1167
f 1169 1158 1157
f 1169 1157 1168
f 1170 1159 1158
f 1170 1158 1169
f 1171 1160 1159
f 1171 1159 1170
f 1172 1161 1160
f 1172 1160 1171
f 1173 1162 1161
f 1173 1161 1172
f 1174 1163 1164
f 1174 1164 1175
f 1176 1165 1163
f 1176 1163 1174
f 1177 1166 1165
f 1177 1165 1176
f 1178 1167 1166
f 1178 1166 1177
f 1179 1168 1167
f 1179 1167 1178
f 1180 1169 1168
f 1180 1168 1179
f 1181 1170 1169
f 1181 1169 1180
f 1182 1171 1170
f 1182 1170 1181
f 1183 1172 1171
f 1183 1171 1182
f 1184 1173 1172
f 1184 1172 1183
f 1185 1174 1175
f 1185 1175 1186
f 1187 1176 1174
f 1187 1174 1185
f 1188 1177 1176
f 1188 1176 1187
f 1189 1178 1177
f 1189 1177 1188
f 1190 1179 1178
f 1190 1178 1189
f 1191 1180 1179
f 1191 1179 1190
f 1192 1181 1180
f 1192 1180 1191
f 1193 1182 1181
f 1193 1181 1192
f 1194 1183 1182
f 1194 1182 1193
f 1195 1184 1183
f 1195 1183 1194
f 1196 1185 1186
f 1196 1186 1197
f 1198 1187 1185
f 1198 1185 1196
f 1199 1188 1187
f 1199 1187 1198
f 1200 1189 1188
f 1200 1188 1199
f 1201 1190 1189
f 1201 1189 1200
f 1202 1191 1190
f 1202 1190 1201
f 1203 1192 1191
f 1203 1191 1202
f 1204 1193 1192
f 1204 1192 1203
f 1205 1194 1193
f 1205 1193 1204
f 1206 1195 1194
f 1206 1194 1205
f 1207 1196 1197
f 1207 1197 1208
f 1209 1198 1196
f 1209 1196 1207
f 1210 1199 1198
f 1210 1198 1209
f 1211 1200 1199
f 1211 1199 1210
f 1212 1201 1200
f 1212 1200 1211
f 1213 1202 1201
f 1213 1201 1212
f 1214 1203 1202
f 1214 1202 1213
f 1215 1204 1203
f 1215 1203 1214
f 1216 1205 1204
f 1216 1204 1215
f 1217 1206 1205
f 1217 1205 1216
f 1218 1207 1208
f 1218 1208 1219
f 1220 1209 1207
f 1220 1207 1218
f 1221 1210 1209
f 1221 1209 1220
f 1222 1211 1210
f 1222 1210 1221
f 1223 1212 1211
f 1223 1211 1222
f 1224 1213 1212
f 1224 1212 1223
f 1225 1214 1213
f 1225 1213 1224
f 1226 1215 1214
f 1226 1214 1225
f 1227 1216 1215
f 1227 1215 1226
f 1228 1217 1216
f 1228 1216 1227
f 1229 1218 1219
f 1229 1219 1230
f 1231 1220 1218
f 1231 1218 1229
f 1232 1221 1220
f 1232 1220 1231
f 1233 1222 1221
f 1233 1221 1232
f 1234 1223 1222
f 1234 1222 1233
f 1235 1224 1223
f 1235 1223 1234
f 1236 1225 1224
f 1236 1224 1235
f 1237 1226 1225
f 1237 1225 1236
f 1238 1227 1226
f 1238 1226 1237
f 1239 1228 1227
f 1239 1227 1238
f 351 1229 1230
f 351 1230 352
f 355 1231 1229
f 355 1229 351
f 357 1232 1231
f 357 1231 355
f 359 1233 1232
f 359 1232 357
f 361 1234 1233
f 361 1233 359
f 363 1235 1234
f 363 1234 361
f 365 1236 1235
f 365 1235 363
f 367 1237 1236
f 367 1236 365
f 369 1238 1237
f 369 1237 367
f 371 1239 1238
f 371 1238 369
f 849 1240 726
f 849 726 726
f 1241 1242 877
f 1241 877 877
f 1241 726 1240
f 1241 1240 1240
f 877 1242 1243
f 877 1243 1243
f 1244 1245 877
f 1244 877 877
f 1246 889 1247
f 1246 1247 1247
f 877 1245 1247
f 877 1247 1247
f 1243 1244 877
f 1243 877 877
f 889 1246 1248
f 889 1248 1248
f 889 1249 1250
f 889 1250 1250
f 901 1251 1252
f 901 1252 1252
f 1250 1251 901
f 1250 901 901
f 1252 1253 901
f 1252 901 901
f 1254 1255 913
f 1254 913 913
f 1256 1257 913
f 1256 913 913
f 1256 913 1255
f 1256 1255 1255
f 1254 901 1253
f 1254 1253 1253
f 1248 1249 889
f 1248 889 889
f 1258 913 1257
f 1258 1257 1257
f 925 1259 1260
f 925 1260 1260
f 925 1261 1262
f 925 1262 1262
f 1260 1261 925
f 1260 925 925
f 1262 1263 925
f 1262 925 925
f 1264 1265 937
f 1264 937 937
f 1266 1267 937
f 1266 937 937
f 1266 937 1265
f 1266 1265 1265
f 1264 937 1263
f 1264 1263 1263
f 949 1267 1268
f 949 1268 1268
f 1269 1270 949
f 1269 949 949
f 1271 1272 949
f 1271 949 949
f 1271 949 1270
f 1271 1270 1270
f 1273 961 1272
f 1273 1272 1272
f 1274 961 1275
f 1274 1275 1275
f 1276 973 1277
f 1276 1277 1277
f 961 1274 1277
f 961 1277 1277
f 961 1273 1275
f 961 1275 1275
f 949 1268 1269
f 949 1269 1269
f 913 1258 1259
f 913 1259 1259
f 1276 1278 973
f 1276 973 973
f 877 1247 889
f 877 889 889
f 1241 877 726
f 1241 726 726
f 1279 1280 973
f 1279 973 973
f 1280 1281 985
f 1280 985 985
f 1278 1279 973
f 1278 973 973
f 985 1282 1283
f 985 1283 1283
f 1284 997 1285
f 1284 1285 1285
f 1283 1285 985
f 1283 985 985
f 985 1281 1282
f 985 1282 1282
f 1286 997 1284
f 1286 1284 1284
f 901 889 1250
f 901 1250 1250
f 925 913 1259
f 925 1259 1259
f 937 925 1263
f 937 1263 1263
f 901 1254 913
f 901 913 913
f 961 949 1272
f 961 1272 1272
f 1280 985 973
f 1280 973 973
f 1285 997 985
f 1285 985 985
f 961 1277 973
f 961 973 973
f 937 1267 949
f 937 949 949
f 997 1286 1287
f 997 1287 1287
f 1288 997 1289
f 1288 1289 1289
f 1288 1290 1009
f 1288 1009 1009
f 1009 997 1288
f 1009 1288 1288
f 1291 1009 1290
f 1291 1290 1290
f 1292 1009 1293
f 1292 1293 1293
f 1294 1021 1295
f 1294 1295 1295
f 1021 1292 1295
f 1021 1295 1295
f 1009 1291 1293
f 1009 1293 1293
f 1294 1296 1021
f 1294 1021 1021
f 1033 1021 1297
f 1033 1297 1297
f 1292 1021 1009
f 1292 1009 1009
f 1297 1298 1033
f 1297 1033 1033
f 1299 1033 1298
f 1299 1298 1298
f 1297 1021 1296
f 1297 1296 1296
f 1300 1033 1301
f 1300 1301 1301
f 1302 1033 1300
f 1302 1300 1300
f 1302 1303 1045
f 1302 1045 1045
f 1033 1302 1045
f 1033 1045 1045
f 1304 1045 1303
f 1304 1303 1303
f 1299 1301 1033
f 1299 1033 1033
f 1287 1289 997
f 1287 997 997
f 1305 1045 1306
f 1305 1306 1306
f 1307 1057 1308
f 1307 1308 1308
f 1057 1305 1308
f 1057 1308 1308
f 1057 1307 1309
f 1057 1309 1309
f 1057 1310 1311
f 1057 1311 1311
f 1069 1312 1313
f 1069 1313 1313
f 1311 1312 1069
f 1311 1069 1069
f 1309 1310 1057
f 1309 1057 1057
f 1314 1069 1313
f 1314 1313 1313
f 1069 1315 1316
f 1069 1316 1316
f 1081 1317 1318
f 1081 1318 1318
f 1316 1317 1081
f 1316 1081 1081
f 1318 1319 1081
f 1318 1081 1081
f 1320 1321 1093
f 1320 1093 1093
f 1322 1323 1093
f 1322 1093 1093
f 1322 1093 1321
f 1322 1321 1321
f 1320 1081 1319
f 1320 1319 1319
f 1315 1069 1314
f 1315 1314 1314
f 1324 1093 1323
f 1324 1323 1323
f 1105 1325 1326
f 1105 1326 1326
f 1105 1327 1328
f 1105 1328 1328
f 1326 1327 1105
f 1326 1105 1105
f 1328 1329 1105
f 1328 1105 1105
f 1330 1331 1117
f 1330 1117 1117
f 1332 1333 1117
f 1332 1117 1117
f 1332 1117 1331
f 1332 1331 1331
f 1330 1105 1329
f 1330 1329 1329
f 1117 1333 1334
f 1117 1334 1334
f 1335 1129 1336
f 1335 1336 1336
f 1337 1129 1338
f 1337 1338 1338
f 1335 1338 1129
f 1335 1129 1129
f 1129 1337 1339
f 1129 1339 1339
f 1340 1141 1341
f 1340 1341 1341
f 1342 1141 1340
f 1342 1340 1340
f 1343 1141 1344
f 1343 1344 1344
f 1141 1342 1344
f 1141 1344 1344
f 1129 1339 1341
f 1129 1341 1341
f 1336 1117 1334
f 1336 1334 1334
f 1093 1324 1325
f 1093 1325 1325
f 1345 1346 1141
f 1345 1141 1141
f 1057 1045 1305
f 1057 1305 1305
f 1081 1069 1316
f 1081 1316 1316
f 1093 1081 1320
f 1093 1320 1320
f 1057 1311 1069
f 1057 1069 1069
f 1105 1330 1117
f 1105 1117 1117
f 1347 1348 1349
f 1347 1349 1349
f 1141 1346 1349
f 1141 1349 1349
f 1350 1349 1348
f 1350 1348 1348
f 1325 1105 1093
f 1325 1093 1093
f 1346 1347 1349
f 1346 1349 1349
f 1129 1117 1336
f 1129 1336 1336
f 1345 1141 1343
f 1345 1343 1343
f 1153 1140 1141
f 1153 1141 1141
f 1141 1129 1341
f 1141 1341 1341
f 1349 1350 1164
f 1349 1164 1164
f 1175 1350 1351
f 1175 1351 1351
f 1350 1175 1164
f 1350 1164 1164
f 1352 1175 1351
f 1352 1351 1351
f 1353 1175 1352
f 1353 1352 1352
f 1153 1141 1349
f 1153 1349 1349
f 1164 1153 1349
f 1164 1349 1349
f 1186 1353 1354
f 1186 1354 1354
f 1197 1355 1356
f 1197 1356 1356
f 1186 1357 1355
f 1186 1355 1355
f 1186 1354 1357
f 1186 1357 1357
f 1208 1358 1359
f 1208 1359 1359
f 1219 1360 1361
f 1219 1361 1361
f 1208 1362 1360
f 1208 1360 1360
f 1208 1359 1362
f 1208 1362 1362
f 1197 1356 1358
f 1197 1358 1358
f 1186 1355 1197
f 1186 1197 1197
f 1361 1363 1219
f 1361 1219 1219
f 1208 1197 1358
f 1208 1358 1358
f 1219 1208 1360
f 1219 1360 1360
f 1219 1363 1230
f 1219 1230 1230
f 1230 1364 1365
f 1230 1365 1365
f 1230 1366 1364
f 1230 1364 1364
f 1230 1365 352
f 1230 352 352
f 789 352 1365
f 789 1365 1365
f 1363 1366 1230
f 1363 1230 1230
f 1175 1353 1186
f 1175 1186 1186
f 1304 1306 1045
f 1304 1045 1045
