$MeshFormat
2.2 0 8
$EndMeshFormat
$PhysicalNames
1
2 1 "gdf_created_by_manipulating_UMaineSemi.gdf"
$EndPhysicalNames
$Nodes
792
1 -15.39000034 5.208000183 -20
2 -17.01000023 5.208000183 -20
3 -17.01000023 6.25 -20
4 -15.39000034 6.25 -20
5 -13.77000046 5.208000183 -20
6 -13.77000046 6.25 -20
7 -12.14999962 5.208000183 -20
8 -12.14999962 6.25 -20
9 -10.52999973 5.208000183 -20
10 -10.52999973 6.25 -20
11 -8.909999847 5.208000183 -20
12 -8.909999847 6.25 -20
13 -7.289999962 5.208000183 -20
14 -7.289999962 6.25 -20
15 -5.670000076 5.208000183 -20
16 -5.670000076 6.25 -20
17 -4.050000191 5.208000183 -20
18 -4.050000191 6.25 -20
19 -2.430000067 5.208000183 -20
20 -2.430000067 6.25 -20
21 -0.8100000024 5.208000183 -20
22 -0.8100000024 6.25 -20
23 0.8100000024 5.208000183 -20
24 0.8100000024 6.25 -20
25 2.430000067 5.208000183 -20
26 2.430000067 6.25 -20
27 4.050000191 5.208000183 -20
28 4.050000191 6.25 -20
29 5.670000076 5.208000183 -20
30 5.670000076 6.25 -20
31 7.289999962 5.208000183 -20
32 7.289999962 6.25 -20
33 8.909999847 5.208000183 -20
34 8.909999847 6.25 -20
35 10.52999973 5.208000183 -20
36 10.52999973 6.25 -20
37 12.14999962 5.208000183 -20
38 12.14999962 6.25 -20
39 13.77000046 5.208000183 -20
40 13.77000046 6.25 -20
41 15.39000034 5.208000183 -20
42 15.39000034 6.25 -20
43 17.01000023 5.208000183 -20
44 17.01000023 6.25 -20
45 -15.39000034 4.166999817 -20
46 -17.01000023 4.166999817 -20
47 -13.77000046 4.166999817 -20
48 -12.14999962 4.166999817 -20
49 -10.52999973 4.166999817 -20
50 -8.909999847 4.166999817 -20
51 -7.289999962 4.166999817 -20
52 -5.670000076 4.166999817 -20
53 -4.050000191 4.166999817 -20
54 -2.430000067 4.166999817 -20
55 -0.8100000024 4.166999817 -20
56 0.8100000024 4.166999817 -20
57 2.430000067 4.166999817 -20
58 4.050000191 4.166999817 -20
59 5.670000076 4.166999817 -20
60 7.289999962 4.166999817 -20
61 8.909999847 4.166999817 -20
62 10.52999973 4.166999817 -20
63 12.14999962 4.166999817 -20
64 13.77000046 4.166999817 -20
65 15.39000034 4.166999817 -20
66 17.01000023 4.166999817 -20
67 -15.39000034 3.125 -20
68 -17.01000023 3.125 -20
69 -13.77000046 3.125 -20
70 -12.14999962 3.125 -20
71 -10.52999973 3.125 -20
72 -8.909999847 3.125 -20
73 -7.289999962 3.125 -20
74 -5.670000076 3.125 -20
75 -4.050000191 3.125 -20
76 -2.430000067 3.125 -20
77 -0.8100000024 3.125 -20
78 0.8100000024 3.125 -20
79 2.430000067 3.125 -20
80 4.050000191 3.125 -20
81 5.670000076 3.125 -20
82 7.289999962 3.125 -20
83 8.909999847 3.125 -20
84 10.52999973 3.125 -20
85 12.14999962 3.125 -20
86 13.77000046 3.125 -20
87 15.39000034 3.125 -20
88 17.01000023 3.125 -20
89 -15.39000034 2.082999945 -20
90 -17.01000023 2.082999945 -20
91 -13.77000046 2.082999945 -20
92 -12.14999962 2.082999945 -20
93 -10.52999973 2.082999945 -20
94 -8.909999847 2.082999945 -20
95 -7.289999962 2.082999945 -20
96 -5.670000076 2.082999945 -20
97 -4.050000191 2.082999945 -20
98 -2.430000067 2.082999945 -20
99 -0.8100000024 2.082999945 -20
100 0.8100000024 2.082999945 -20
101 2.430000067 2.082999945 -20
102 4.050000191 2.082999945 -20
103 5.670000076 2.082999945 -20
104 7.289999962 2.082999945 -20
105 8.909999847 2.082999945 -20
106 10.52999973 2.082999945 -20
107 12.14999962 2.082999945 -20
108 13.77000046 2.082999945 -20
109 15.39000034 2.082999945 -20
110 17.01000023 2.082999945 -20
111 -15.39000034 1.042000055 -20
112 -17.01000023 1.042000055 -20
113 -13.77000046 1.042000055 -20
114 -12.14999962 1.042000055 -20
115 -10.52999973 1.042000055 -20
116 -8.909999847 1.042000055 -20
117 -7.289999962 1.042000055 -20
118 -5.670000076 1.042000055 -20
119 -4.050000191 1.042000055 -20
120 -2.430000067 1.042000055 -20
121 -0.8100000024 1.042000055 -20
122 0.8100000024 1.042000055 -20
123 2.430000067 1.042000055 -20
124 4.050000191 1.042000055 -20
125 5.670000076 1.042000055 -20
126 7.289999962 1.042000055 -20
127 8.909999847 1.042000055 -20
128 10.52999973 1.042000055 -20
129 12.14999962 1.042000055 -20
130 13.77000046 1.042000055 -20
131 15.39000034 1.042000055 -20
132 17.01000023 1.042000055 -20
133 -15.39000034 0 -20
134 -17.01000023 0 -20
135 -13.77000046 0 -20
136 -12.14999962 0 -20
137 -10.52999973 0 -20
138 -8.909999847 0 -20
139 -7.289999962 0 -20
140 -5.670000076 0 -20
141 -4.050000191 0 -20
142 -2.430000067 0 -20
143 -0.8100000024 0 -20
144 0.8100000024 0 -20
145 2.430000067 0 -20
146 4.050000191 0 -20
147 5.670000076 0 -20
148 7.289999962 0 -20
149 8.909999847 0 -20
150 10.52999973 0 -20
151 12.14999962 0 -20
152 13.77000046 0 -20
153 15.39000034 0 -20
154 17.01000023 0 -20
155 -15.39000034 6.25 -18.83300018
156 -17.01000023 6.25 -18.83300018
157 -13.77000046 6.25 -18.83300018
158 -12.14999962 6.25 -18.83300018
159 -10.52999973 6.25 -18.83300018
160 -8.909999847 6.25 -18.83300018
161 -7.289999962 6.25 -18.83300018
162 -5.670000076 6.25 -18.83300018
163 -4.050000191 6.25 -18.83300018
164 -2.430000067 6.25 -18.83300018
165 -0.8100000024 6.25 -18.83300018
166 0.8100000024 6.25 -18.83300018
167 2.430000067 6.25 -18.83300018
168 4.050000191 6.25 -18.83300018
169 5.670000076 6.25 -18.83300018
170 7.289999962 6.25 -18.83300018
171 8.909999847 6.25 -18.83300018
172 10.52999973 6.25 -18.83300018
173 12.14999962 6.25 -18.83300018
174 13.77000046 6.25 -18.83300018
175 15.39000034 6.25 -18.83300018
176 17.01000023 6.25 -18.83300018
177 -15.39000034 6.25 -17.66699982
178 -17.01000023 6.25 -17.66699982
179 -13.77000046 6.25 -17.66699982
180 -12.14999962 6.25 -17.66699982
181 -10.52999973 6.25 -17.66699982
182 -8.909999847 6.25 -17.66699982
183 -7.289999962 6.25 -17.66699982
184 -5.670000076 6.25 -17.66699982
185 -4.050000191 6.25 -17.66699982
186 -2.430000067 6.25 -17.66699982
187 -0.8100000024 6.25 -17.66699982
188 0.8100000024 6.25 -17.66699982
189 2.430000067 6.25 -17.66699982
190 4.050000191 6.25 -17.66699982
191 5.670000076 6.25 -17.66699982
192 7.289999962 6.25 -17.66699982
193 8.909999847 6.25 -17.66699982
194 10.52999973 6.25 -17.66699982
195 12.14999962 6.25 -17.66699982
196 13.77000046 6.25 -17.66699982
197 15.39000034 6.25 -17.66699982
198 17.01000023 6.25 -17.66699982
199 -15.39000034 6.25 -16.5
200 -17.01000023 6.25 -16.5
201 -13.77000046 6.25 -16.5
202 -12.14999962 6.25 -16.5
203 -10.52999973 6.25 -16.5
204 -8.909999847 6.25 -16.5
205 -7.289999962 6.25 -16.5
206 -5.670000076 6.25 -16.5
207 -4.050000191 6.25 -16.5
208 -2.430000067 6.25 -16.5
209 -0.8100000024 6.25 -16.5
210 0.8100000024 6.25 -16.5
211 2.430000067 6.25 -16.5
212 4.050000191 6.25 -16.5
213 5.670000076 6.25 -16.5
214 7.289999962 6.25 -16.5
215 8.909999847 6.25 -16.5
216 10.52999973 6.25 -16.5
217 12.14999962 6.25 -16.5
218 13.77000046 6.25 -16.5
219 15.39000034 6.25 -16.5
220 17.01000023 6.25 -16.5
221 -15.39000034 6.25 -15.33300018
222 -17.01000023 6.25 -15.33300018
223 -13.77000046 6.25 -15.33300018
224 -12.14999962 6.25 -15.33300018
225 -10.52999973 6.25 -15.33300018
226 -8.909999847 6.25 -15.33300018
227 -7.289999962 6.25 -15.33300018
228 -5.670000076 6.25 -15.33300018
229 -4.050000191 6.25 -15.33300018
230 -2.430000067 6.25 -15.33300018
231 -0.8100000024 6.25 -15.33300018
232 0.8100000024 6.25 -15.33300018
233 2.430000067 6.25 -15.33300018
234 4.050000191 6.25 -15.33300018
235 5.670000076 6.25 -15.33300018
236 7.289999962 6.25 -15.33300018
237 8.909999847 6.25 -15.33300018
238 10.52999973 6.25 -15.33300018
239 12.14999962 6.25 -15.33300018
240 13.77000046 6.25 -15.33300018
241 15.39000034 6.25 -15.33300018
242 17.01000023 6.25 -15.33300018
243 -15.39000034 6.25 -14.16699982
244 -17.01000023 6.25 -14.16699982
245 -13.77000046 6.25 -14.16699982
246 -12.14999962 6.25 -14.16699982
247 -10.52999973 6.25 -14.16699982
248 -8.909999847 6.25 -14.16699982
249 -7.289999962 6.25 -14.16699982
250 -5.670000076 6.25 -14.16699982
251 -4.050000191 6.25 -14.16699982
252 -2.430000067 6.25 -14.16699982
253 -0.8100000024 6.25 -14.16699982
254 0.8100000024 6.25 -14.16699982
255 2.430000067 6.25 -14.16699982
256 4.050000191 6.25 -14.16699982
257 5.670000076 6.25 -14.16699982
258 7.289999962 6.25 -14.16699982
259 8.909999847 6.25 -14.16699982
260 10.52999973 6.25 -14.16699982
261 12.14999962 6.25 -14.16699982
262 13.77000046 6.25 -14.16699982
263 15.39000034 6.25 -14.16699982
264 17.01000023 6.25 -14.16699982
265 -15.39000034 6.25 -13
266 -17.01000023 6.25 -13
267 -13.77000046 6.25 -13
268 -12.14999962 6.25 -13
269 -10.52999973 6.25 -13
270 -8.909999847 6.25 -13
271 -7.289999962 6.25 -13
272 -5.670000076 6.25 -13
273 -4.050000191 6.25 -13
274 -2.430000067 6.25 -13
275 -0.8100000024 6.25 -13
276 0.8100000024 6.25 -13
277 2.430000067 6.25 -13
278 4.050000191 6.25 -13
279 5.670000076 6.25 -13
280 7.289999962 6.25 -13
281 8.909999847 6.25 -13
282 10.52999973 6.25 -13
283 12.14999962 6.25 -13
284 13.77000046 6.25 -13
285 15.39000034 6.25 -13
286 17.01000023 6.25 -13
287 -15.39000034 5.208000183 -13
288 -17.01000023 5.208000183 -13
289 -13.77000046 5.208000183 -13
290 -12.14999962 5.208000183 -13
291 -10.52999973 5.208000183 -13
292 -8.909999847 5.208000183 -13
293 -7.289999962 5.208000183 -13
294 -5.670000076 5.208000183 -13
295 -4.050000191 5.208000183 -13
296 -2.430000067 5.208000183 -13
297 -0.8100000024 5.208000183 -13
298 0.8100000024 5.208000183 -13
299 2.430000067 5.208000183 -13
300 4.050000191 5.208000183 -13
301 5.670000076 5.208000183 -13
302 7.289999962 5.208000183 -13
303 8.909999847 5.208000183 -13
304 10.52999973 5.208000183 -13
305 12.14999962 5.208000183 -13
306 13.77000046 5.208000183 -13
307 15.39000034 5.208000183 -13
308 17.01000023 5.208000183 -13
309 -15.39000034 4.166999817 -13
310 -17.01000023 4.166999817 -13
311 -13.77000046 4.166999817 -13
312 -12.14999962 4.166999817 -13
313 -10.52999973 4.166999817 -13
314 -8.909999847 4.166999817 -13
315 -7.289999962 4.166999817 -13
316 -5.670000076 4.166999817 -13
317 -4.050000191 4.166999817 -13
318 -2.430000067 4.166999817 -13
319 -0.8100000024 4.166999817 -13
320 0.8100000024 4.166999817 -13
321 2.430000067 4.166999817 -13
322 4.050000191 4.166999817 -13
323 5.670000076 4.166999817 -13
324 7.289999962 4.166999817 -13
325 8.909999847 4.166999817 -13
326 10.52999973 4.166999817 -13
327 12.14999962 4.166999817 -13
328 13.77000046 4.166999817 -13
329 15.39000034 4.166999817 -13
330 17.01000023 4.166999817 -13
331 -15.39000034 3.125 -13
332 -17.01000023 3.125 -13
333 -13.77000046 3.125 -13
334 -12.14999962 3.125 -13
335 -10.52999973 3.125 -13
336 -8.909999847 3.125 -13
337 -7.289999962 3.125 -13
338 -5.670000076 3.125 -13
339 -4.050000191 3.125 -13
340 -2.430000067 3.125 -13
341 -0.8100000024 3.125 -13
342 0.8100000024 3.125 -13
343 2.430000067 3.125 -13
344 4.050000191 3.125 -13
345 5.670000076 3.125 -13
346 7.289999962 3.125 -13
347 8.909999847 3.125 -13
348 10.52999973 3.125 -13
349 12.14999962 3.125 -13
350 13.77000046 3.125 -13
351 15.39000034 3.125 -13
352 17.01000023 3.125 -13
353 -15.39000034 2.082999945 -13
354 -17.01000023 2.082999945 -13
355 -13.77000046 2.082999945 -13
356 -12.14999962 2.082999945 -13
357 -10.52999973 2.082999945 -13
358 -8.909999847 2.082999945 -13
359 -7.289999962 2.082999945 -13
360 -5.670000076 2.082999945 -13
361 -4.050000191 2.082999945 -13
362 -2.430000067 2.082999945 -13
363 -0.8100000024 2.082999945 -13
364 0.8100000024 2.082999945 -13
365 2.430000067 2.082999945 -13
366 4.050000191 2.082999945 -13
367 5.670000076 2.082999945 -13
368 7.289999962 2.082999945 -13
369 8.909999847 2.082999945 -13
370 10.52999973 2.082999945 -13
371 12.14999962 2.082999945 -13
372 13.77000046 2.082999945 -13
373 15.39000034 2.082999945 -13
374 17.01000023 2.082999945 -13
375 -15.39000034 1.042000055 -13
376 -17.01000023 1.042000055 -13
377 -13.77000046 1.042000055 -13
378 -12.14999962 1.042000055 -13
379 -10.52999973 1.042000055 -13
380 -8.909999847 1.042000055 -13
381 -7.289999962 1.042000055 -13
382 -5.670000076 1.042000055 -13
383 -4.050000191 1.042000055 -13
384 -2.430000067 1.042000055 -13
385 -0.8100000024 1.042000055 -13
386 0.8100000024 1.042000055 -13
387 2.430000067 1.042000055 -13
388 4.050000191 1.042000055 -13
389 5.670000076 1.042000055 -13
390 7.289999962 1.042000055 -13
391 8.909999847 1.042000055 -13
392 10.52999973 1.042000055 -13
393 12.14999962 1.042000055 -13
394 13.77000046 1.042000055 -13
395 15.39000034 1.042000055 -13
396 17.01000023 1.042000055 -13
397 -15.39000034 0 -13
398 -17.01000023 0 -13
399 -13.77000046 0 -13
400 -12.14999962 0 -13
401 -10.52999973 0 -13
402 -8.909999847 0 -13
403 -7.289999962 0 -13
404 -5.670000076 0 -13
405 -4.050000191 0 -13
406 -2.430000067 0 -13
407 -0.8100000024 0 -13
408 0.8100000024 0 -13
409 2.430000067 0 -13
410 4.050000191 0 -13
411 5.670000076 0 -13
412 7.289999962 0 -13
413 8.909999847 0 -13
414 10.52999973 0 -13
415 12.14999962 0 -13
416 13.77000046 0 -13
417 15.39000034 0 -13
418 17.01000023 0 -13
419 -15.39000034 -5.208000183 -20
420 -17.01000023 -5.208000183 -20
421 -17.01000023 -6.25 -20
422 -15.39000034 -6.25 -20
423 -13.77000046 -5.208000183 -20
424 -13.77000046 -6.25 -20
425 -12.14999962 -5.208000183 -20
426 -12.14999962 -6.25 -20
427 -10.52999973 -5.208000183 -20
428 -10.52999973 -6.25 -20
429 -8.909999847 -5.208000183 -20
430 -8.909999847 -6.25 -20
431 -7.289999962 -5.208000183 -20
432 -7.289999962 -6.25 -20
433 -5.670000076 -5.208000183 -20
434 -5.670000076 -6.25 -20
435 -4.050000191 -5.208000183 -20
436 -4.050000191 -6.25 -20
437 -2.430000067 -5.208000183 -20
438 -2.430000067 -6.25 -20
439 -0.8100000024 -5.208000183 -20
440 -0.8100000024 -6.25 -20
441 0.8100000024 -5.208000183 -20
442 0.8100000024 -6.25 -20
443 2.430000067 -5.208000183 -20
444 2.430000067 -6.25 -20
445 4.050000191 -5.208000183 -20
446 4.050000191 -6.25 -20
447 5.670000076 -5.208000183 -20
448 5.670000076 -6.25 -20
449 7.289999962 -5.208000183 -20
450 7.289999962 -6.25 -20
451 8.909999847 -5.208000183 -20
452 8.909999847 -6.25 -20
453 10.52999973 -5.208000183 -20
454 10.52999973 -6.25 -20
455 12.14999962 -5.208000183 -20
456 12.14999962 -6.25 -20
457 13.77000046 -5.208000183 -20
458 13.77000046 -6.25 -20
459 15.39000034 -5.208000183 -20
460 15.39000034 -6.25 -20
461 17.01000023 -5.208000183 -20
462 17.01000023 -6.25 -20
463 -15.39000034 -4.166999817 -20
464 -17.01000023 -4.166999817 -20
465 -13.77000046 -4.166999817 -20
466 -12.14999962 -4.166999817 -20
467 -10.52999973 -4.166999817 -20
468 -8.909999847 -4.166999817 -20
469 -7.289999962 -4.166999817 -20
470 -5.670000076 -4.166999817 -20
471 -4.050000191 -4.166999817 -20
472 -2.430000067 -4.166999817 -20
473 -0.8100000024 -4.166999817 -20
474 0.8100000024 -4.166999817 -20
475 2.430000067 -4.166999817 -20
476 4.050000191 -4.166999817 -20
477 5.670000076 -4.166999817 -20
478 7.289999962 -4.166999817 -20
479 8.909999847 -4.166999817 -20
480 10.52999973 -4.166999817 -20
481 12.14999962 -4.166999817 -20
482 13.77000046 -4.166999817 -20
483 15.39000034 -4.166999817 -20
484 17.01000023 -4.166999817 -20
485 -15.39000034 -3.125 -20
486 -17.01000023 -3.125 -20
487 -13.77000046 -3.125 -20
488 -12.14999962 -3.125 -20
489 -10.52999973 -3.125 -20
490 -8.909999847 -3.125 -20
491 -7.289999962 -3.125 -20
492 -5.670000076 -3.125 -20
493 -4.050000191 -3.125 -20
494 -2.430000067 -3.125 -20
495 -0.8100000024 -3.125 -20
496 0.8100000024 -3.125 -20
497 2.430000067 -3.125 -20
498 4.050000191 -3.125 -20
499 5.670000076 -3.125 -20
500 7.289999962 -3.125 -20
501 8.909999847 -3.125 -20
502 10.52999973 -3.125 -20
503 12.14999962 -3.125 -20
504 13.77000046 -3.125 -20
505 15.39000034 -3.125 -20
506 17.01000023 -3.125 -20
507 -15.39000034 -2.082999945 -20
508 -17.01000023 -2.082999945 -20
509 -13.77000046 -2.082999945 -20
510 -12.14999962 -2.082999945 -20
511 -10.52999973 -2.082999945 -20
512 -8.909999847 -2.082999945 -20
513 -7.289999962 -2.082999945 -20
514 -5.670000076 -2.082999945 -20
515 -4.050000191 -2.082999945 -20
516 -2.430000067 -2.082999945 -20
517 -0.8100000024 -2.082999945 -20
518 0.8100000024 -2.082999945 -20
519 2.430000067 -2.082999945 -20
520 4.050000191 -2.082999945 -20
521 5.670000076 -2.082999945 -20
522 7.289999962 -2.082999945 -20
523 8.909999847 -2.082999945 -20
524 10.52999973 -2.082999945 -20
525 12.14999962 -2.082999945 -20
526 13.77000046 -2.082999945 -20
527 15.39000034 -2.082999945 -20
528 17.01000023 -2.082999945 -20
529 -15.39000034 -1.042000055 -20
530 -17.01000023 -1.042000055 -20
531 -13.77000046 -1.042000055 -20
532 -12.14999962 -1.042000055 -20
533 -10.52999973 -1.042000055 -20
534 -8.909999847 -1.042000055 -20
535 -7.289999962 -1.042000055 -20
536 -5.670000076 -1.042000055 -20
537 -4.050000191 -1.042000055 -20
538 -2.430000067 -1.042000055 -20
539 -0.8100000024 -1.042000055 -20
540 0.8100000024 -1.042000055 -20
541 2.430000067 -1.042000055 -20
542 4.050000191 -1.042000055 -20
543 5.670000076 -1.042000055 -20
544 7.289999962 -1.042000055 -20
545 8.909999847 -1.042000055 -20
546 10.52999973 -1.042000055 -20
547 12.14999962 -1.042000055 -20
548 13.77000046 -1.042000055 -20
549 15.39000034 -1.042000055 -20
550 17.01000023 -1.042000055 -20
551 -15.39000034 -6.25 -18.83300018
552 -17.01000023 -6.25 -18.83300018
553 -13.77000046 -6.25 -18.83300018
554 -12.14999962 -6.25 -18.83300018
555 -10.52999973 -6.25 -18.83300018
556 -8.909999847 -6.25 -18.83300018
557 -7.289999962 -6.25 -18.83300018
558 -5.670000076 -6.25 -18.83300018
559 -4.050000191 -6.25 -18.83300018
560 -2.430000067 -6.25 -18.83300018
561 -0.8100000024 -6.25 -18.83300018
562 0.8100000024 -6.25 -18.83300018
563 2.430000067 -6.25 -18.83300018
564 4.050000191 -6.25 -18.83300018
565 5.670000076 -6.25 -18.83300018
566 7.289999962 -6.25 -18.83300018
567 8.909999847 -6.25 -18.83300018
568 10.52999973 -6.25 -18.83300018
569 12.14999962 -6.25 -18.83300018
570 13.77000046 -6.25 -18.83300018
571 15.39000034 -6.25 -18.83300018
572 17.01000023 -6.25 -18.83300018
573 -15.39000034 -6.25 -17.66699982
574 -17.01000023 -6.25 -17.66699982
575 -13.77000046 -6.25 -17.66699982
576 -12.14999962 -6.25 -17.66699982
577 -10.52999973 -6.25 -17.66699982
578 -8.909999847 -6.25 -17.66699982
579 -7.289999962 -6.25 -17.66699982
580 -5.670000076 -6.25 -17.66699982
581 -4.050000191 -6.25 -17.66699982
582 -2.430000067 -6.25 -17.66699982
583 -0.8100000024 -6.25 -17.66699982
584 0.8100000024 -6.25 -17.66699982
585 2.430000067 -6.25 -17.66699982
586 4.050000191 -6.25 -17.66699982
587 5.670000076 -6.25 -17.66699982
588 7.289999962 -6.25 -17.66699982
589 8.909999847 -6.25 -17.66699982
590 10.52999973 -6.25 -17.66699982
591 12.14999962 -6.25 -17.66699982
592 13.77000046 -6.25 -17.66699982
593 15.39000034 -6.25 -17.66699982
594 17.01000023 -6.25 -17.66699982
595 -15.39000034 -6.25 -16.5
596 -17.01000023 -6.25 -16.5
597 -13.77000046 -6.25 -16.5
598 -12.14999962 -6.25 -16.5
599 -10.52999973 -6.25 -16.5
600 -8.909999847 -6.25 -16.5
601 -7.289999962 -6.25 -16.5
602 -5.670000076 -6.25 -16.5
603 -4.050000191 -6.25 -16.5
604 -2.430000067 -6.25 -16.5
605 -0.8100000024 -6.25 -16.5
606 0.8100000024 -6.25 -16.5
607 2.430000067 -6.25 -16.5
608 4.050000191 -6.25 -16.5
609 5.670000076 -6.25 -16.5
610 7.289999962 -6.25 -16.5
611 8.909999847 -6.25 -16.5
612 10.52999973 -6.25 -16.5
613 12.14999962 -6.25 -16.5
614 13.77000046 -6.25 -16.5
615 15.39000034 -6.25 -16.5
616 17.01000023 -6.25 -16.5
617 -15.39000034 -6.25 -15.33300018
618 -17.01000023 -6.25 -15.33300018
619 -13.77000046 -6.25 -15.33300018
620 -12.14999962 -6.25 -15.33300018
621 -10.52999973 -6.25 -15.33300018
622 -8.909999847 -6.25 -15.33300018
623 -7.289999962 -6.25 -15.33300018
624 -5.670000076 -6.25 -15.33300018
625 -4.050000191 -6.25 -15.33300018
626 -2.430000067 -6.25 -15.33300018
627 -0.8100000024 -6.25 -15.33300018
628 0.8100000024 -6.25 -15.33300018
629 2.430000067 -6.25 -15.33300018
630 4.050000191 -6.25 -15.33300018
631 5.670000076 -6.25 -15.33300018
632 7.289999962 -6.25 -15.33300018
633 8.909999847 -6.25 -15.33300018
634 10.52999973 -6.25 -15.33300018
635 12.14999962 -6.25 -15.33300018
636 13.77000046 -6.25 -15.33300018
637 15.39000034 -6.25 -15.33300018
638 17.01000023 -6.25 -15.33300018
639 -15.39000034 -6.25 -14.16699982
640 -17.01000023 -6.25 -14.16699982
641 -13.77000046 -6.25 -14.16699982
642 -12.14999962 -6.25 -14.16699982
643 -10.52999973 -6.25 -14.16699982
644 -8.909999847 -6.25 -14.16699982
645 -7.289999962 -6.25 -14.16699982
646 -5.670000076 -6.25 -14.16699982
647 -4.050000191 -6.25 -14.16699982
648 -2.430000067 -6.25 -14.16699982
649 -0.8100000024 -6.25 -14.16699982
650 0.8100000024 -6.25 -14.16699982
651 2.430000067 -6.25 -14.16699982
652 4.050000191 -6.25 -14.16699982
653 5.670000076 -6.25 -14.16699982
654 7.289999962 -6.25 -14.16699982
655 8.909999847 -6.25 -14.16699982
656 10.52999973 -6.25 -14.16699982
657 12.14999962 -6.25 -14.16699982
658 13.77000046 -6.25 -14.16699982
659 15.39000034 -6.25 -14.16699982
660 17.01000023 -6.25 -14.16699982
661 -15.39000034 -6.25 -13
662 -17.01000023 -6.25 -13
663 -13.77000046 -6.25 -13
664 -12.14999962 -6.25 -13
665 -10.52999973 -6.25 -13
666 -8.909999847 -6.25 -13
667 -7.289999962 -6.25 -13
668 -5.670000076 -6.25 -13
669 -4.050000191 -6.25 -13
670 -2.430000067 -6.25 -13
671 -0.8100000024 -6.25 -13
672 0.8100000024 -6.25 -13
673 2.430000067 -6.25 -13
674 4.050000191 -6.25 -13
675 5.670000076 -6.25 -13
676 7.289999962 -6.25 -13
677 8.909999847 -6.25 -13
678 10.52999973 -6.25 -13
679 12.14999962 -6.25 -13
680 13.77000046 -6.25 -13
681 15.39000034 -6.25 -13
682 17.01000023 -6.25 -13
683 -15.39000034 -5.208000183 -13
684 -17.01000023 -5.208000183 -13
685 -13.77000046 -5.208000183 -13
686 -12.14999962 -5.208000183 -13
687 -10.52999973 -5.208000183 -13
688 -8.909999847 -5.208000183 -13
689 -7.289999962 -5.208000183 -13
690 -5.670000076 -5.208000183 -13
691 -4.050000191 -5.208000183 -13
692 -2.430000067 -5.208000183 -13
693 -0.8100000024 -5.208000183 -13
694 0.8100000024 -5.208000183 -13
695 2.430000067 -5.208000183 -13
696 4.050000191 -5.208000183 -13
697 5.670000076 -5.208000183 -13
698 7.289999962 -5.208000183 -13
699 8.909999847 -5.208000183 -13
700 10.52999973 -5.208000183 -13
701 12.14999962 -5.208000183 -13
702 13.77000046 -5.208000183 -13
703 15.39000034 -5.208000183 -13
704 17.01000023 -5.208000183 -13
705 -15.39000034 -4.166999817 -13
706 -17.01000023 -4.166999817 -13
707 -13.77000046 -4.166999817 -13
708 -12.14999962 -4.166999817 -13
709 -10.52999973 -4.166999817 -13
710 -8.909999847 -4.166999817 -13
711 -7.289999962 -4.166999817 -13
712 -5.670000076 -4.166999817 -13
713 -4.050000191 -4.166999817 -13
714 -2.430000067 -4.166999817 -13
715 -0.8100000024 -4.166999817 -13
716 0.8100000024 -4.166999817 -13
717 2.430000067 -4.166999817 -13
718 4.050000191 -4.166999817 -13
719 5.670000076 -4.166999817 -13
720 7.289999962 -4.166999817 -13
721 8.909999847 -4.166999817 -13
722 10.52999973 -4.166999817 -13
723 12.14999962 -4.166999817 -13
724 13.77000046 -4.166999817 -13
725 15.39000034 -4.166999817 -13
726 17.01000023 -4.166999817 -13
727 -15.39000034 -3.125 -13
728 -17.01000023 -3.125 -13
729 -13.77000046 -3.125 -13
730 -12.14999962 -3.125 -13
731 -10.52999973 -3.125 -13
732 -8.909999847 -3.125 -13
733 -7.289999962 -3.125 -13
734 -5.670000076 -3.125 -13
735 -4.050000191 -3.125 -13
736 -2.430000067 -3.125 -13
737 -0.8100000024 -3.125 -13
738 0.8100000024 -3.125 -13
739 2.430000067 -3.125 -13
740 4.050000191 -3.125 -13
741 5.670000076 -3.125 -13
742 7.289999962 -3.125 -13
743 8.909999847 -3.125 -13
744 10.52999973 -3.125 -13
745 12.14999962 -3.125 -13
746 13.77000046 -3.125 -13
747 15.39000034 -3.125 -13
748 17.01000023 -3.125 -13
749 -15.39000034 -2.082999945 -13
750 -17.01000023 -2.082999945 -13
751 -13.77000046 -2.082999945 -13
752 -12.14999962 -2.082999945 -13
753 -10.52999973 -2.082999945 -13
754 -8.909999847 -2.082999945 -13
755 -7.289999962 -2.082999945 -13
756 -5.670000076 -2.082999945 -13
757 -4.050000191 -2.082999945 -13
758 -2.430000067 -2.082999945 -13
759 -0.8100000024 -2.082999945 -13
760 0.8100000024 -2.082999945 -13
761 2.430000067 -2.082999945 -13
762 4.050000191 -2.082999945 -13
763 5.670000076 -2.082999945 -13
764 7.289999962 -2.082999945 -13
765 8.909999847 -2.082999945 -13
766 10.52999973 -2.082999945 -13
767 12.14999962 -2.082999945 -13
768 13.77000046 -2.082999945 -13
769 15.39000034 -2.082999945 -13
770 17.01000023 -2.082999945 -13
771 -15.39000034 -1.042000055 -13
772 -17.01000023 -1.042000055 -13
773 -13.77000046 -1.042000055 -13
774 -12.14999962 -1.042000055 -13
775 -10.52999973 -1.042000055 -13
776 -8.909999847 -1.042000055 -13
777 -7.289999962 -1.042000055 -13
778 -5.670000076 -1.042000055 -13
779 -4.050000191 -1.042000055 -13
780 -2.430000067 -1.042000055 -13
781 -0.8100000024 -1.042000055 -13
782 0.8100000024 -1.042000055 -13
783 2.430000067 -1.042000055 -13
784 4.050000191 -1.042000055 -13
785 5.670000076 -1.042000055 -13
786 7.289999962 -1.042000055 -13
787 8.909999847 -1.042000055 -13
788 10.52999973 -1.042000055 -13
789 12.14999962 -1.042000055 -13
790 13.77000046 -1.042000055 -13
791 15.39000034 -1.042000055 -13
792 17.01000023 -1.042000055 -13
$EndNodes
$Elements
1512
1 2 2 1 1 1 2 3
2 2 2 1 1 1 3 4
3 2 2 1 1 5 1 4
4 2 2 1 1 5 4 6
5 2 2 1 1 7 5 6
6 2 2 1 1 7 6 8
7 2 2 1 1 9 7 8
8 2 2 1 1 9 8 10
9 2 2 1 1 11 9 10
10 2 2 1 1 11 10 12
11 2 2 1 1 13 11 12
12 2 2 1 1 13 12 14
13 2 2 1 1 15 13 14
14 2 2 1 1 15 14 16
15 2 2 1 1 17 15 16
16 2 2 1 1 17 16 18
17 2 2 1 1 19 17 18
18 2 2 1 1 19 18 20
19 2 2 1 1 21 19 20
20 2 2 1 1 21 20 22
21 2 2 1 1 23 21 22
22 2 2 1 1 23 22 24
23 2 2 1 1 25 23 24
24 2 2 1 1 25 24 26
25 2 2 1 1 27 25 26
26 2 2 1 1 27 26 28
27 2 2 1 1 29 27 28
28 2 2 1 1 29 28 30
29 2 2 1 1 31 29 30
30 2 2 1 1 31 30 32
31 2 2 1 1 33 31 32
32 2 2 1 1 33 32 34
33 2 2 1 1 35 33 34
34 2 2 1 1 35 34 36
35 2 2 1 1 37 35 36
36 2 2 1 1 37 36 38
37 2 2 1 1 39 37 38
38 2 2 1 1 39 38 40
39 2 2 1 1 41 39 40
40 2 2 1 1 41 40 42
41 2 2 1 1 43 41 42
42 2 2 1 1 43 42 44
43 2 2 1 1 45 46 2
44 2 2 1 1 45 2 1
45 2 2 1 1 47 45 1
46 2 2 1 1 47 1 5
47 2 2 1 1 48 47 5
48 2 2 1 1 48 5 7
49 2 2 1 1 49 48 7
50 2 2 1 1 49 7 9
51 2 2 1 1 50 49 9
52 2 2 1 1 50 9 11
53 2 2 1 1 51 50 11
54 2 2 1 1 51 11 13
55 2 2 1 1 52 51 13
56 2 2 1 1 52 13 15
57 2 2 1 1 53 52 15
58 2 2 1 1 53 15 17
59 2 2 1 1 54 53 17
60 2 2 1 1 54 17 19
61 2 2 1 1 55 54 19
62 2 2 1 1 55 19 21
63 2 2 1 1 56 55 21
64 2 2 1 1 56 21 23
65 2 2 1 1 57 56 23
66 2 2 1 1 57 23 25
67 2 2 1 1 58 57 25
68 2 2 1 1 58 25 27
69 2 2 1 1 59 58 27
70 2 2 1 1 59 27 29
71 2 2 1 1 60 59 29
72 2 2 1 1 60 29 31
73 2 2 1 1 61 60 31
74 2 2 1 1 61 31 33
75 2 2 1 1 62 61 33
76 2 2 1 1 62 33 35
77 2 2 1 1 63 62 35
78 2 2 1 1 63 35 37
79 2 2 1 1 64 63 37
80 2 2 1 1 64 37 39
81 2 2 1 1 65 64 39
82 2 2 1 1 65 39 41
83 2 2 1 1 66 65 41
84 2 2 1 1 66 41 43
85 2 2 1 1 67 68 46
86 2 2 1 1 67 46 45
87 2 2 1 1 69 67 45
88 2 2 1 1 69 45 47
89 2 2 1 1 70 69 47
90 2 2 1 1 70 47 48
91 2 2 1 1 71 70 48
92 2 2 1 1 71 48 49
93 2 2 1 1 72 71 49
94 2 2 1 1 72 49 50
95 2 2 1 1 73 72 50
96 2 2 1 1 73 50 51
97 2 2 1 1 74 73 51
98 2 2 1 1 74 51 52
99 2 2 1 1 75 74 52
100 2 2 1 1 75 52 53
101 2 2 1 1 76 75 53
102 2 2 1 1 76 53 54
103 2 2 1 1 77 76 54
104 2 2 1 1 77 54 55
105 2 2 1 1 78 77 55
106 2 2 1 1 78 55 56
107 2 2 1 1 79 78 56
108 2 2 1 1 79 56 57
109 2 2 1 1 80 79 57
110 2 2 1 1 80 57 58
111 2 2 1 1 81 80 58
112 2 2 1 1 81 58 59
113 2 2 1 1 82 81 59
114 2 2 1 1 82 59 60
115 2 2 1 1 83 82 60
116 2 2 1 1 83 60 61
117 2 2 1 1 84 83 61
118 2 2 1 1 84 61 62
119 2 2 1 1 85 84 62
120 2 2 1 1 85 62 63
121 2 2 1 1 86 85 63
122 2 2 1 1 86 63 64
123 2 2 1 1 87 86 64
124 2 2 1 1 87 64 65
125 2 2 1 1 88 87 65
126 2 2 1 1 88 65 66
127 2 2 1 1 89 90 68
128 2 2 1 1 89 68 67
129 2 2 1 1 91 89 67
130 2 2 1 1 91 67 69
131 2 2 1 1 92 91 69
132 2 2 1 1 92 69 70
133 2 2 1 1 93 92 70
134 2 2 1 1 93 70 71
135 2 2 1 1 94 93 71
136 2 2 1 1 94 71 72
137 2 2 1 1 95 94 72
138 2 2 1 1 95 72 73
139 2 2 1 1 96 95 73
140 2 2 1 1 96 73 74
141 2 2 1 1 97 96 74
142 2 2 1 1 97 74 75
143 2 2 1 1 98 97 75
144 2 2 1 1 98 75 76
145 2 2 1 1 99 98 76
146 2 2 1 1 99 76 77
147 2 2 1 1 100 99 77
148 2 2 1 1 100 77 78
149 2 2 1 1 101 100 78
150 2 2 1 1 101 78 79
151 2 2 1 1 102 101 79
152 2 2 1 1 102 79 80
153 2 2 1 1 103 102 80
154 2 2 1 1 103 80 81
155 2 2 1 1 104 103 81
156 2 2 1 1 104 81 82
157 2 2 1 1 105 104 82
158 2 2 1 1 105 82 83
159 2 2 1 1 106 105 83
160 2 2 1 1 106 83 84
161 2 2 1 1 107 106 84
162 2 2 1 1 107 84 85
163 2 2 1 1 108 107 85
164 2 2 1 1 108 85 86
165 2 2 1 1 109 108 86
166 2 2 1 1 109 86 87
167 2 2 1 1 110 109 87
168 2 2 1 1 110 87 88
169 2 2 1 1 111 112 90
170 2 2 1 1 111 90 89
171 2 2 1 1 113 111 89
172 2 2 1 1 113 89 91
173 2 2 1 1 114 113 91
174 2 2 1 1 114 91 92
175 2 2 1 1 115 114 92
176 2 2 1 1 115 92 93
177 2 2 1 1 116 115 93
178 2 2 1 1 116 93 94
179 2 2 1 1 117 116 94
180 2 2 1 1 117 94 95
181 2 2 1 1 118 117 95
182 2 2 1 1 118 95 96
183 2 2 1 1 119 118 96
184 2 2 1 1 119 96 97
185 2 2 1 1 120 119 97
186 2 2 1 1 120 97 98
187 2 2 1 1 121 120 98
188 2 2 1 1 121 98 99
189 2 2 1 1 122 121 99
190 2 2 1 1 122 99 100
191 2 2 1 1 123 122 100
192 2 2 1 1 123 100 101
193 2 2 1 1 124 123 101
194 2 2 1 1 124 101 102
195 2 2 1 1 125 124 102
196 2 2 1 1 125 102 103
197 2 2 1 1 126 125 103
198 2 2 1 1 126 103 104
199 2 2 1 1 127 126 104
200 2 2 1 1 127 104 105
201 2 2 1 1 128 127 105
202 2 2 1 1 128 105 106
203 2 2 1 1 129 128 106
204 2 2 1 1 129 106 107
205 2 2 1 1 130 129 107
206 2 2 1 1 130 107 108
207 2 2 1 1 131 130 108
208 2 2 1 1 131 108 109
209 2 2 1 1 132 131 109
210 2 2 1 1 132 109 110
211 2 2 1 1 133 134 112
212 2 2 1 1 133 112 111
213 2 2 1 1 135 133 111
214 2 2 1 1 135 111 113
215 2 2 1 1 136 135 113
216 2 2 1 1 136 113 114
217 2 2 1 1 137 136 114
218 2 2 1 1 137 114 115
219 2 2 1 1 138 137 115
220 2 2 1 1 138 115 116
221 2 2 1 1 139 138 116
222 2 2 1 1 139 116 117
223 2 2 1 1 140 139 117
224 2 2 1 1 140 117 118
225 2 2 1 1 141 140 118
226 2 2 1 1 141 118 119
227 2 2 1 1 142 141 119
228 2 2 1 1 142 119 120
229 2 2 1 1 143 142 120
230 2 2 1 1 143 120 121
231 2 2 1 1 144 143 121
232 2 2 1 1 144 121 122
233 2 2 1 1 145 144 122
234 2 2 1 1 145 122 123
235 2 2 1 1 146 145 123
236 2 2 1 1 146 123 124
237 2 2 1 1 147 146 124
238 2 2 1 1 147 124 125
239 2 2 1 1 148 147 125
240 2 2 1 1 148 125 126
241 2 2 1 1 149 148 126
242 2 2 1 1 149 126 127
243 2 2 1 1 150 149 127
244 2 2 1 1 150 127 128
245 2 2 1 1 151 150 128
246 2 2 1 1 151 128 129
247 2 2 1 1 152 151 129
248 2 2 1 1 152 129 130
249 2 2 1 1 153 152 130
250 2 2 1 1 153 130 131
251 2 2 1 1 154 153 131
252 2 2 1 1 154 131 132
253 2 2 1 1 155 4 3
254 2 2 1 1 155 3 156
255 2 2 1 1 157 6 4
256 2 2 1 1 157 4 155
257 2 2 1 1 158 8 6
258 2 2 1 1 158 6 157
259 2 2 1 1 159 10 8
260 2 2 1 1 159 8 158
261 2 2 1 1 160 12 10
262 2 2 1 1 160 10 159
263 2 2 1 1 161 14 12
264 2 2 1 1 161 12 160
265 2 2 1 1 162 16 14
266 2 2 1 1 162 14 161
267 2 2 1 1 163 18 16
268 2 2 1 1 163 16 162
269 2 2 1 1 164 20 18
270 2 2 1 1 164 18 163
271 2 2 1 1 165 22 20
272 2 2 1 1 165 20 164
273 2 2 1 1 166 24 22
274 2 2 1 1 166 22 165
275 2 2 1 1 167 26 24
276 2 2 1 1 167 24 166
277 2 2 1 1 168 28 26
278 2 2 1 1 168 26 167
279 2 2 1 1 169 30 28
280 2 2 1 1 169 28 168
281 2 2 1 1 170 32 30
282 2 2 1 1 170 30 169
283 2 2 1 1 171 34 32
284 2 2 1 1 171 32 170
285 2 2 1 1 172 36 34
286 2 2 1 1 172 34 171
287 2 2 1 1 173 38 36
288 2 2 1 1 173 36 172
289 2 2 1 1 174 40 38
290 2 2 1 1 174 38 173
291 2 2 1 1 175 42 40
292 2 2 1 1 175 40 174
293 2 2 1 1 176 44 42
294 2 2 1 1 176 42 175
295 2 2 1 1 177 155 156
296 2 2 1 1 177 156 178
297 2 2 1 1 179 157 155
298 2 2 1 1 179 155 177
299 2 2 1 1 180 158 157
300 2 2 1 1 180 157 179
301 2 2 1 1 181 159 158
302 2 2 1 1 181 158 180
303 2 2 1 1 182 160 159
304 2 2 1 1 182 159 181
305 2 2 1 1 183 161 160
306 2 2 1 1 183 160 182
307 2 2 1 1 184 162 161
308 2 2 1 1 184 161 183
309 2 2 1 1 185 163 162
310 2 2 1 1 185 162 184
311 2 2 1 1 186 164 163
312 2 2 1 1 186 163 185
313 2 2 1 1 187 165 164
314 2 2 1 1 187 164 186
315 2 2 1 1 188 166 165
316 2 2 1 1 188 165 187
317 2 2 1 1 189 167 166
318 2 2 1 1 189 166 188
319 2 2 1 1 190 168 167
320 2 2 1 1 190 167 189
321 2 2 1 1 191 169 168
322 2 2 1 1 191 168 190
323 2 2 1 1 192 170 169
324 2 2 1 1 192 169 191
325 2 2 1 1 193 171 170
326 2 2 1 1 193 170 192
327 2 2 1 1 194 172 171
328 2 2 1 1 194 171 193
329 2 2 1 1 195 173 172
330 2 2 1 1 195 172 194
331 2 2 1 1 196 174 173
332 2 2 1 1 196 173 195
333 2 2 1 1 197 175 174
334 2 2 1 1 197 174 196
335 2 2 1 1 198 176 175
336 2 2 1 1 198 175 197
337 2 2 1 1 199 177 178
338 2 2 1 1 199 178 200
339 2 2 1 1 201 179 177
340 2 2 1 1 201 177 199
341 2 2 1 1 202 180 179
342 2 2 1 1 202 179 201
343 2 2 1 1 203 181 180
344 2 2 1 1 203 180 202
345 2 2 1 1 204 182 181
346 2 2 1 1 204 181 203
347 2 2 1 1 205 183 182
348 2 2 1 1 205 182 204
349 2 2 1 1 206 184 183
350 2 2 1 1 206 183 205
351 2 2 1 1 207 185 184
352 2 2 1 1 207 184 206
353 2 2 1 1 208 186 185
354 2 2 1 1 208 185 207
355 2 2 1 1 209 187 186
356 2 2 1 1 209 186 208
357 2 2 1 1 210 188 187
358 2 2 1 1 210 187 209
359 2 2 1 1 211 189 188
360 2 2 1 1 211 188 210
361 2 2 1 1 212 190 189
362 2 2 1 1 212 189 211
363 2 2 1 1 213 191 190
364 2 2 1 1 213 190 212
365 2 2 1 1 214 192 191
366 2 2 1 1 214 191 213
367 2 2 1 1 215 193 192
368 2 2 1 1 215 192 214
369 2 2 1 1 216 194 193
370 2 2 1 1 216 193 215
371 2 2 1 1 217 195 194
372 2 2 1 1 217 194 216
373 2 2 1 1 218 196 195
374 2 2 1 1 218 195 217
375 2 2 1 1 219 197 196
376 2 2 1 1 219 196 218
377 2 2 1 1 220 198 197
378 2 2 1 1 220 197 219
379 2 2 1 1 221 199 200
380 2 2 1 1 221 200 222
381 2 2 1 1 223 201 199
382 2 2 1 1 223 199 221
383 2 2 1 1 224 202 201
384 2 2 1 1 224 201 223
385 2 2 1 1 225 203 202
386 2 2 1 1 225 202 224
387 2 2 1 1 226 204 203
388 2 2 1 1 226 203 225
389 2 2 1 1 227 205 204
390 2 2 1 1 227 204 226
391 2 2 1 1 228 206 205
392 2 2 1 1 228 205 227
393 2 2 1 1 229 207 206
394 2 2 1 1 229 206 228
395 2 2 1 1 230 208 207
396 2 2 1 1 230 207 229
397 2 2 1 1 231 209 208
398 2 2 1 1 231 208 230
399 2 2 1 1 232 210 209
400 2 2 1 1 232 209 231
401 2 2 1 1 233 211 210
402 2 2 1 1 233 210 232
403 2 2 1 1 234 212 211
404 2 2 1 1 234 211 233
405 2 2 1 1 235 213 212
406 2 2 1 1 235 212 234
407 2 2 1 1 236 214 213
408 2 2 1 1 236 213 235
409 2 2 1 1 237 215 214
410 2 2 1 1 237 214 236
411 2 2 1 1 238 216 215
412 2 2 1 1 238 215 237
413 2 2 1 1 239 217 216
414 2 2 1 1 239 216 238
415 2 2 1 1 240 218 217
416 2 2 1 1 240 217 239
417 2 2 1 1 241 219 218
418 2 2 1 1 241 218 240
419 2 2 1 1 242 220 219
420 2 2 1 1 242 219 241
421 2 2 1 1 243 221 222
422 2 2 1 1 243 222 244
423 2 2 1 1 245 223 221
424 2 2 1 1 245 221 243
425 2 2 1 1 246 224 223
426 2 2 1 1 246 223 245
427 2 2 1 1 247 225 224
428 2 2 1 1 247 224 246
429 2 2 1 1 248 226 225
430 2 2 1 1 248 225 247
431 2 2 1 1 249 227 226
432 2 2 1 1 249 226 248
433 2 2 1 1 250 228 227
434 2 2 1 1 250 227 249
435 2 2 1 1 251 229 228
436 2 2 1 1 251 228 250
437 2 2 1 1 252 230 229
438 2 2 1 1 252 229 251
439 2 2 1 1 253 231 230
440 2 2 1 1 253 230 252
441 2 2 1 1 254 232 231
442 2 2 1 1 254 231 253
443 2 2 1 1 255 233 232
444 2 2 1 1 255 232 254
445 2 2 1 1 256 234 233
446 2 2 1 1 256 233 255
447 2 2 1 1 257 235 234
448 2 2 1 1 257 234 256
449 2 2 1 1 258 236 235
450 2 2 1 1 258 235 257
451 2 2 1 1 259 237 236
452 2 2 1 1 259 236 258
453 2 2 1 1 260 238 237
454 2 2 1 1 260 237 259
455 2 2 1 1 261 239 238
456 2 2 1 1 261 238 260
457 2 2 1 1 262 240 239
458 2 2 1 1 262 239 261
459 2 2 1 1 263 241 240
460 2 2 1 1 263 240 262
461 2 2 1 1 264 242 241
462 2 2 1 1 264 241 263
463 2 2 1 1 265 243 244
464 2 2 1 1 265 244 266
465 2 2 1 1 267 245 243
466 2 2 1 1 267 243 265
467 2 2 1 1 268 246 245
468 2 2 1 1 268 245 267
469 2 2 1 1 269 247 246
470 2 2 1 1 269 246 268
471 2 2 1 1 270 248 247
472 2 2 1 1 270 247 269
473 2 2 1 1 271 249 248
474 2 2 1 1 271 248 270
475 2 2 1 1 272 250 249
476 2 2 1 1 272 249 271
477 2 2 1 1 273 251 250
478 2 2 1 1 273 250 272
479 2 2 1 1 274 252 251
480 2 2 1 1 274 251 273
481 2 2 1 1 275 253 252
482 2 2 1 1 275 252 274
483 2 2 1 1 276 254 253
484 2 2 1 1 276 253 275
485 2 2 1 1 277 255 254
486 2 2 1 1 277 254 276
487 2 2 1 1 278 256 255
488 2 2 1 1 278 255 277
489 2 2 1 1 279 257 256
490 2 2 1 1 279 256 278
491 2 2 1 1 280 258 257
492 2 2 1 1 280 257 279
493 2 2 1 1 281 259 258
494 2 2 1 1 281 258 280
495 2 2 1 1 282 260 259
496 2 2 1 1 282 259 281
497 2 2 1 1 283 261 260
498 2 2 1 1 283 260 282
499 2 2 1 1 284 262 261
500 2 2 1 1 284 261 283
501 2 2 1 1 285 263 262
502 2 2 1 1 285 262 284
503 2 2 1 1 286 264 263
504 2 2 1 1 286 263 285
505 2 2 1 1 287 265 266
506 2 2 1 1 287 266 288
507 2 2 1 1 289 267 265
508 2 2 1 1 289 265 287
509 2 2 1 1 290 268 267
510 2 2 1 1 290 267 289
511 2 2 1 1 291 269 268
512 2 2 1 1 291 268 290
513 2 2 1 1 292 270 269
514 2 2 1 1 292 269 291
515 2 2 1 1 293 271 270
516 2 2 1 1 293 270 292
517 2 2 1 1 294 272 271
518 2 2 1 1 294 271 293
519 2 2 1 1 295 273 272
520 2 2 1 1 295 272 294
521 2 2 1 1 296 274 273
522 2 2 1 1 296 273 295
523 2 2 1 1 297 275 274
524 2 2 1 1 297 274 296
525 2 2 1 1 298 276 275
526 2 2 1 1 298 275 297
527 2 2 1 1 299 277 276
528 2 2 1 1 299 276 298
529 2 2 1 1 300 278 277
530 2 2 1 1 300 277 299
531 2 2 1 1 301 279 278
532 2 2 1 1 301 278 300
533 2 2 1 1 302 280 279
534 2 2 1 1 302 279 301
535 2 2 1 1 303 281 280
536 2 2 1 1 303 280 302
537 2 2 1 1 304 282 281
538 2 2 1 1 304 281 303
539 2 2 1 1 305 283 282
540 2 2 1 1 305 282 304
541 2 2 1 1 306 284 283
542 2 2 1 1 306 283 305
543 2 2 1 1 307 285 284
544 2 2 1 1 307 284 306
545 2 2 1 1 308 286 285
546 2 2 1 1 308 285 307
547 2 2 1 1 309 287 288
548 2 2 1 1 309 288 310
549 2 2 1 1 311 289 287
550 2 2 1 1 311 287 309
551 2 2 1 1 312 290 289
552 2 2 1 1 312 289 311
553 2 2 1 1 313 291 290
554 2 2 1 1 313 290 312
555 2 2 1 1 314 292 291
556 2 2 1 1 314 291 313
557 2 2 1 1 315 293 292
558 2 2 1 1 315 292 314
559 2 2 1 1 316 294 293
560 2 2 1 1 316 293 315
561 2 2 1 1 317 295 294
562 2 2 1 1 317 294 316
563 2 2 1 1 318 296 295
564 2 2 1 1 318 295 317
565 2 2 1 1 319 297 296
566 2 2 1 1 319 296 318
567 2 2 1 1 320 298 297
568 2 2 1 1 320 297 319
569 2 2 1 1 321 299 298
570 2 2 1 1 321 298 320
571 2 2 1 1 322 300 299
572 2 2 1 1 322 299 321
573 2 2 1 1 323 301 300
574 2 2 1 1 323 300 322
575 2 2 1 1 324 302 301
576 2 2 1 1 324 301 323
577 2 2 1 1 325 303 302
578 2 2 1 1 325 302 324
579 2 2 1 1 326 304 303
580 2 2 1 1 326 303 325
581 2 2 1 1 327 305 304
582 2 2 1 1 327 304 326
583 2 2 1 1 328 306 305
584 2 2 1 1 328 305 327
585 2 2 1 1 329 307 306
586 2 2 1 1 329 306 328
587 2 2 1 1 330 308 307
588 2 2 1 1 330 307 329
589 2 2 1 1 331 309 310
590 2 2 1 1 331 310 332
591 2 2 1 1 333 311 309
592 2 2 1 1 333 309 331
593 2 2 1 1 334 312 311
594 2 2 1 1 334 311 333
595 2 2 1 1 335 313 312
596 2 2 1 1 335 312 334
597 2 2 1 1 336 314 313
598 2 2 1 1 336 313 335
599 2 2 1 1 337 315 314
600 2 2 1 1 337 314 336
601 2 2 1 1 338 316 315
602 2 2 1 1 338 315 337
603 2 2 1 1 339 317 316
604 2 2 1 1 339 316 338
605 2 2 1 1 340 318 317
606 2 2 1 1 340 317 339
607 2 2 1 1 341 319 318
608 2 2 1 1 341 318 340
609 2 2 1 1 342 320 319
610 2 2 1 1 342 319 341
611 2 2 1 1 343 321 320
612 2 2 1 1 343 320 342
613 2 2 1 1 344 322 321
614 2 2 1 1 344 321 343
615 2 2 1 1 345 323 322
616 2 2 1 1 345 322 344
617 2 2 1 1 346 324 323
618 2 2 1 1 346 323 345
619 2 2 1 1 347 325 324
620 2 2 1 1 347 324 346
621 2 2 1 1 348 326 325
622 2 2 1 1 348 325 347
623 2 2 1 1 349 327 326
624 2 2 1 1 349 326 348
625 2 2 1 1 350 328 327
626 2 2 1 1 350 327 349
627 2 2 1 1 351 329 328
628 2 2 1 1 351 328 350
629 2 2 1 1 352 330 329
630 2 2 1 1 352 329 351
631 2 2 1 1 353 331 332
632 2 2 1 1 353 332 354
633 2 2 1 1 355 333 331
634 2 2 1 1 355 331 353
635 2 2 1 1 356 334 333
636 2 2 1 1 356 333 355
637 2 2 1 1 357 335 334
638 2 2 1 1 357 334 356
639 2 2 1 1 358 336 335
640 2 2 1 1 358 335 357
641 2 2 1 1 359 337 336
642 2 2 1 1 359 336 358
643 2 2 1 1 360 338 337
644 2 2 1 1 360 337 359
645 2 2 1 1 361 339 338
646 2 2 1 1 361 338 360
647 2 2 1 1 362 340 339
648 2 2 1 1 362 339 361
649 2 2 1 1 363 341 340
650 2 2 1 1 363 340 362
651 2 2 1 1 364 342 341
652 2 2 1 1 364 341 363
653 2 2 1 1 365 343 342
654 2 2 1 1 365 342 364
655 2 2 1 1 366 344 343
656 2 2 1 1 366 343 365
657 2 2 1 1 367 345 344
658 2 2 1 1 367 344 366
659 2 2 1 1 368 346 345
660 2 2 1 1 368 345 367
661 2 2 1 1 369 347 346
662 2 2 1 1 369 346 368
663 2 2 1 1 370 348 347
664 2 2 1 1 370 347 369
665 2 2 1 1 371 349 348
666 2 2 1 1 371 348 370
667 2 2 1 1 372 350 349
668 2 2 1 1 372 349 371
669 2 2 1 1 373 351 350
670 2 2 1 1 373 350 372
671 2 2 1 1 374 352 351
672 2 2 1 1 374 351 373
673 2 2 1 1 375 353 354
674 2 2 1 1 375 354 376
675 2 2 1 1 377 355 353
676 2 2 1 1 377 353 375
677 2 2 1 1 378 356 355
678 2 2 1 1 378 355 377
679 2 2 1 1 379 357 356
680 2 2 1 1 379 356 378
681 2 2 1 1 380 358 357
682 2 2 1 1 380 357 379
683 2 2 1 1 381 359 358
684 2 2 1 1 381 358 380
685 2 2 1 1 382 360 359
686 2 2 1 1 382 359 381
687 2 2 1 1 383 361 360
688 2 2 1 1 383 360 382
689 2 2 1 1 384 362 361
690 2 2 1 1 384 361 383
691 2 2 1 1 385 363 362
692 2 2 1 1 385 362 384
693 2 2 1 1 386 364 363
694 2 2 1 1 386 363 385
695 2 2 1 1 387 365 364
696 2 2 1 1 387 364 386
697 2 2 1 1 388 366 365
698 2 2 1 1 388 365 387
699 2 2 1 1 389 367 366
700 2 2 1 1 389 366 388
701 2 2 1 1 390 368 367
702 2 2 1 1 390 367 389
703 2 2 1 1 391 369 368
704 2 2 1 1 391 368 390
705 2 2 1 1 392 370 369
706 2 2 1 1 392 369 391
707 2 2 1 1 393 371 370
708 2 2 1 1 393 370 392
709 2 2 1 1 394 372 371
710 2 2 1 1 394 371 393
711 2 2 1 1 395 373 372
712 2 2 1 1 395 372 394
713 2 2 1 1 396 374 373
714 2 2 1 1 396 373 395
715 2 2 1 1 397 375 376
716 2 2 1 1 397 376 398
717 2 2 1 1 399 377 375
718 2 2 1 1 399 375 397
719 2 2 1 1 400 378 377
720 2 2 1 1 400 377 399
721 2 2 1 1 401 379 378
722 2 2 1 1 401 378 400
723 2 2 1 1 402 380 379
724 2 2 1 1 402 379 401
725 2 2 1 1 403 381 380
726 2 2 1 1 403 380 402
727 2 2 1 1 404 382 381
728 2 2 1 1 404 381 403
729 2 2 1 1 405 383 382
730 2 2 1 1 405 382 404
731 2 2 1 1 406 384 383
732 2 2 1 1 406 383 405
733 2 2 1 1 407 385 384
734 2 2 1 1 407 384 406
735 2 2 1 1 408 386 385
736 2 2 1 1 408 385 407
737 2 2 1 1 409 387 386
738 2 2 1 1 409 386 408
739 2 2 1 1 410 388 387
740 2 2 1 1 410 387 409
741 2 2 1 1 411 389 388
742 2 2 1 1 411 388 410
743 2 2 1 1 412 390 389
744 2 2 1 1 412 389 411
745 2 2 1 1 413 391 390
746 2 2 1 1 413 390 412
747 2 2 1 1 414 392 391
748 2 2 1 1 414 391 413
749 2 2 1 1 415 393 392
750 2 2 1 1 415 392 414
751 2 2 1 1 416 394 393
752 2 2 1 1 416 393 415
753 2 2 1 1 417 395 394
754 2 2 1 1 417 394 416
755 2 2 1 1 418 396 395
756 2 2 1 1 418 395 417
757 2 2 1 1 421 420 419
758 2 2 1 1 422 421 419
759 2 2 1 1 422 419 423
760 2 2 1 1 424 422 423
761 2 2 1 1 424 423 425
762 2 2 1 1 426 424 425
763 2 2 1 1 426 425 427
764 2 2 1 1 428 426 427
765 2 2 1 1 428 427 429
766 2 2 1 1 430 428 429
767 2 2 1 1 430 429 431
768 2 2 1 1 432 430 431
769 2 2 1 1 432 431 433
770 2 2 1 1 434 432 433
771 2 2 1 1 434 433 435
772 2 2 1 1 436 434 435
773 2 2 1 1 436 435 437
774 2 2 1 1 438 436 437
775 2 2 1 1 438 437 439
776 2 2 1 1 440 438 439
777 2 2 1 1 440 439 441
778 2 2 1 1 442 440 441
779 2 2 1 1 442 441 443
780 2 2 1 1 444 442 443
781 2 2 1 1 444 443 445
782 2 2 1 1 446 444 445
783 2 2 1 1 446 445 447
784 2 2 1 1 448 446 447
785 2 2 1 1 448 447 449
786 2 2 1 1 450 448 449
787 2 2 1 1 450 449 451
788 2 2 1 1 452 450 451
789 2 2 1 1 452 451 453
790 2 2 1 1 454 452 453
791 2 2 1 1 454 453 455
792 2 2 1 1 456 454 455
793 2 2 1 1 456 455 457
794 2 2 1 1 458 456 457
795 2 2 1 1 458 457 459
796 2 2 1 1 460 458 459
797 2 2 1 1 460 459 461
798 2 2 1 1 462 460 461
799 2 2 1 1 420 464 463
800 2 2 1 1 419 420 463
801 2 2 1 1 419 463 465
802 2 2 1 1 423 419 465
803 2 2 1 1 423 465 466
804 2 2 1 1 425 423 466
805 2 2 1 1 425 466 467
806 2 2 1 1 427 425 467
807 2 2 1 1 427 467 468
808 2 2 1 1 429 427 468
809 2 2 1 1 429 468 469
810 2 2 1 1 431 429 469
811 2 2 1 1 431 469 470
812 2 2 1 1 433 431 470
813 2 2 1 1 433 470 471
814 2 2 1 1 435 433 471
815 2 2 1 1 435 471 472
816 2 2 1 1 437 435 472
817 2 2 1 1 437 472 473
818 2 2 1 1 439 437 473
819 2 2 1 1 439 473 474
820 2 2 1 1 441 439 474
821 2 2 1 1 441 474 475
822 2 2 1 1 443 441 475
823 2 2 1 1 443 475 476
824 2 2 1 1 445 443 476
825 2 2 1 1 445 476 477
826 2 2 1 1 447 445 477
827 2 2 1 1 447 477 478
828 2 2 1 1 449 447 478
829 2 2 1 1 449 478 479
830 2 2 1 1 451 449 479
831 2 2 1 1 451 479 480
832 2 2 1 1 453 451 480
833 2 2 1 1 453 480 481
834 2 2 1 1 455 453 481
835 2 2 1 1 455 481 482
836 2 2 1 1 457 455 482
837 2 2 1 1 457 482 483
838 2 2 1 1 459 457 483
839 2 2 1 1 459 483 484
840 2 2 1 1 461 459 484
841 2 2 1 1 464 486 485
842 2 2 1 1 463 464 485
843 2 2 1 1 463 485 487
844 2 2 1 1 465 463 487
845 2 2 1 1 465 487 488
846 2 2 1 1 466 465 488
847 2 2 1 1 466 488 489
848 2 2 1 1 467 466 489
849 2 2 1 1 467 489 490
850 2 2 1 1 468 467 490
851 2 2 1 1 468 490 491
852 2 2 1 1 469 468 491
853 2 2 1 1 469 491 492
854 2 2 1 1 470 469 492
855 2 2 1 1 470 492 493
856 2 2 1 1 471 470 493
857 2 2 1 1 471 493 494
858 2 2 1 1 472 471 494
859 2 2 1 1 472 494 495
860 2 2 1 1 473 472 495
861 2 2 1 1 473 495 496
862 2 2 1 1 474 473 496
863 2 2 1 1 474 496 497
864 2 2 1 1 475 474 497
865 2 2 1 1 475 497 498
866 2 2 1 1 476 475 498
867 2 2 1 1 476 498 499
868 2 2 1 1 477 476 499
869 2 2 1 1 477 499 500
870 2 2 1 1 478 477 500
871 2 2 1 1 478 500 501
872 2 2 1 1 479 478 501
873 2 2 1 1 479 501 502
874 2 2 1 1 480 479 502
875 2 2 1 1 480 502 503
876 2 2 1 1 481 480 503
877 2 2 1 1 481 503 504
878 2 2 1 1 482 481 504
879 2 2 1 1 482 504 505
880 2 2 1 1 483 482 505
881 2 2 1 1 483 505 506
882 2 2 1 1 484 483 506
883 2 2 1 1 486 508 507
884 2 2 1 1 485 486 507
885 2 2 1 1 485 507 509
886 2 2 1 1 487 485 509
887 2 2 1 1 487 509 510
888 2 2 1 1 488 487 510
889 2 2 1 1 488 510 511
890 2 2 1 1 489 488 511
891 2 2 1 1 489 511 512
892 2 2 1 1 490 489 512
893 2 2 1 1 490 512 513
894 2 2 1 1 491 490 513
895 2 2 1 1 491 513 514
896 2 2 1 1 492 491 514
897 2 2 1 1 492 514 515
898 2 2 1 1 493 492 515
899 2 2 1 1 493 515 516
900 2 2 1 1 494 493 516
901 2 2 1 1 494 516 517
902 2 2 1 1 495 494 517
903 2 2 1 1 495 517 518
904 2 2 1 1 496 495 518
905 2 2 1 1 496 518 519
906 2 2 1 1 497 496 519
907 2 2 1 1 497 519 520
908 2 2 1 1 498 497 520
909 2 2 1 1 498 520 521
910 2 2 1 1 499 498 521
911 2 2 1 1 499 521 522
912 2 2 1 1 500 499 522
913 2 2 1 1 500 522 523
914 2 2 1 1 501 500 523
915 2 2 1 1 501 523 524
916 2 2 1 1 502 501 524
917 2 2 1 1 502 524 525
918 2 2 1 1 503 502 525
919 2 2 1 1 503 525 526
920 2 2 1 1 504 503 526
921 2 2 1 1 504 526 527
922 2 2 1 1 505 504 527
923 2 2 1 1 505 527 528
924 2 2 1 1 506 505 528
925 2 2 1 1 508 530 529
926 2 2 1 1 507 508 529
927 2 2 1 1 507 529 531
928 2 2 1 1 509 507 531
929 2 2 1 1 509 531 532
930 2 2 1 1 510 509 532
931 2 2 1 1 510 532 533
932 2 2 1 1 511 510 533
933 2 2 1 1 511 533 534
934 2 2 1 1 512 511 534
935 2 2 1 1 512 534 535
936 2 2 1 1 513 512 535
937 2 2 1 1 513 535 536
938 2 2 1 1 514 513 536
939 2 2 1 1 514 536 537
940 2 2 1 1 515 514 537
941 2 2 1 1 515 537 538
942 2 2 1 1 516 515 538
943 2 2 1 1 516 538 539
944 2 2 1 1 517 516 539
945 2 2 1 1 517 539 540
946 2 2 1 1 518 517 540
947 2 2 1 1 518 540 541
948 2 2 1 1 519 518 541
949 2 2 1 1 519 541 542
950 2 2 1 1 520 519 542
951 2 2 1 1 520 542 543
952 2 2 1 1 521 520 543
953 2 2 1 1 521 543 544
954 2 2 1 1 522 521 544
955 2 2 1 1 522 544 545
956 2 2 1 1 523 522 545
957 2 2 1 1 523 545 546
958 2 2 1 1 524 523 546
959 2 2 1 1 524 546 547
960 2 2 1 1 525 524 547
961 2 2 1 1 525 547 548
962 2 2 1 1 526 525 548
963 2 2 1 1 526 548 549
964 2 2 1 1 527 526 549
965 2 2 1 1 527 549 550
966 2 2 1 1 528 527 550
967 2 2 1 1 530 134 133
968 2 2 1 1 529 530 133
969 2 2 1 1 529 133 135
970 2 2 1 1 531 529 135
971 2 2 1 1 531 135 136
972 2 2 1 1 532 531 136
973 2 2 1 1 532 136 137
974 2 2 1 1 533 532 137
975 2 2 1 1 533 137 138
976 2 2 1 1 534 533 138
977 2 2 1 1 534 138 139
978 2 2 1 1 535 534 139
979 2 2 1 1 535 139 140
980 2 2 1 1 536 535 140
981 2 2 1 1 536 140 141
982 2 2 1 1 537 536 141
983 2 2 1 1 537 141 142
984 2 2 1 1 538 537 142
985 2 2 1 1 538 142 143
986 2 2 1 1 539 538 143
987 2 2 1 1 539 143 144
988 2 2 1 1 540 539 144
989 2 2 1 1 540 144 145
990 2 2 1 1 541 540 145
991 2 2 1 1 541 145 146
992 2 2 1 1 542 541 146
993 2 2 1 1 542 146 147
994 2 2 1 1 543 542 147
995 2 2 1 1 543 147 148
996 2 2 1 1 544 543 148
997 2 2 1 1 544 148 149
998 2 2 1 1 545 544 149
999 2 2 1 1 545 149 150
1000 2 2 1 1 546 545 150
1001 2 2 1 1 546 150 151
1002 2 2 1 1 547 546 151
1003 2 2 1 1 547 151 152
1004 2 2 1 1 548 547 152
1005 2 2 1 1 548 152 153
1006 2 2 1 1 549 548 153
1007 2 2 1 1 549 153 154
1008 2 2 1 1 550 549 154
1009 2 2 1 1 421 422 551
1010 2 2 1 1 552 421 551
1011 2 2 1 1 422 424 553
1012 2 2 1 1 551 422 553
1013 2 2 1 1 424 426 554
1014 2 2 1 1 553 424 554
1015 2 2 1 1 426 428 555
1016 2 2 1 1 554 426 555
1017 2 2 1 1 428 430 556
1018 2 2 1 1 555 428 556
1019 2 2 1 1 430 432 557
1020 2 2 1 1 556 430 557
1021 2 2 1 1 432 434 558
1022 2 2 1 1 557 432 558
1023 2 2 1 1 434 436 559
1024 2 2 1 1 558 434 559
1025 2 2 1 1 436 438 560
1026 2 2 1 1 559 436 560
1027 2 2 1 1 438 440 561
1028 2 2 1 1 560 438 561
1029 2 2 1 1 440 442 562
1030 2 2 1 1 561 440 562
1031 2 2 1 1 442 444 563
1032 2 2 1 1 562 442 563
1033 2 2 1 1 444 446 564
1034 2 2 1 1 563 444 564
1035 2 2 1 1 446 448 565
1036 2 2 1 1 564 446 565
1037 2 2 1 1 448 450 566
1038 2 2 1 1 565 448 566
1039 2 2 1 1 450 452 567
1040 2 2 1 1 566 450 567
1041 2 2 1 1 452 454 568
1042 2 2 1 1 567 452 568
1043 2 2 1 1 454 456 569
1044 2 2 1 1 568 454 569
1045 2 2 1 1 456 458 570
1046 2 2 1 1 569 456 570
1047 2 2 1 1 458 460 571
1048 2 2 1 1 570 458 571
1049 2 2 1 1 460 462 572
1050 2 2 1 1 571 460 572
1051 2 2 1 1 552 551 573
1052 2 2 1 1 574 552 573
1053 2 2 1 1 551 553 575
1054 2 2 1 1 573 551 575
1055 2 2 1 1 553 554 576
1056 2 2 1 1 575 553 576
1057 2 2 1 1 554 555 577
1058 2 2 1 1 576 554 577
1059 2 2 1 1 555 556 578
1060 2 2 1 1 577 555 578
1061 2 2 1 1 556 557 579
1062 2 2 1 1 578 556 579
1063 2 2 1 1 557 558 580
1064 2 2 1 1 579 557 580
1065 2 2 1 1 558 559 581
1066 2 2 1 1 580 558 581
1067 2 2 1 1 559 560 582
1068 2 2 1 1 581 559 582
1069 2 2 1 1 560 561 583
1070 2 2 1 1 582 560 583
1071 2 2 1 1 561 562 584
1072 2 2 1 1 583 561 584
1073 2 2 1 1 562 563 585
1074 2 2 1 1 584 562 585
1075 2 2 1 1 563 564 586
1076 2 2 1 1 585 563 586
1077 2 2 1 1 564 565 587
1078 2 2 1 1 586 564 587
1079 2 2 1 1 565 566 588
1080 2 2 1 1 587 565 588
1081 2 2 1 1 566 567 589
1082 2 2 1 1 588 566 589
1083 2 2 1 1 567 568 590
1084 2 2 1 1 589 567 590
1085 2 2 1 1 568 569 591
1086 2 2 1 1 590 568 591
1087 2 2 1 1 569 570 592
1088 2 2 1 1 591 569 592
1089 2 2 1 1 570 571 593
1090 2 2 1 1 592 570 593
1091 2 2 1 1 571 572 594
1092 2 2 1 1 593 571 594
1093 2 2 1 1 574 573 595
1094 2 2 1 1 596 574 595
1095 2 2 1 1 573 575 597
1096 2 2 1 1 595 573 597
1097 2 2 1 1 575 576 598
1098 2 2 1 1 597 575 598
1099 2 2 1 1 576 577 599
1100 2 2 1 1 598 576 599
1101 2 2 1 1 577 578 600
1102 2 2 1 1 599 577 600
1103 2 2 1 1 578 579 601
1104 2 2 1 1 600 578 601
1105 2 2 1 1 579 580 602
1106 2 2 1 1 601 579 602
1107 2 2 1 1 580 581 603
1108 2 2 1 1 602 580 603
1109 2 2 1 1 581 582 604
1110 2 2 1 1 603 581 604
1111 2 2 1 1 582 583 605
1112 2 2 1 1 604 582 605
1113 2 2 1 1 583 584 606
1114 2 2 1 1 605 583 606
1115 2 2 1 1 584 585 607
1116 2 2 1 1 606 584 607
1117 2 2 1 1 585 586 608
1118 2 2 1 1 607 585 608
1119 2 2 1 1 586 587 609
1120 2 2 1 1 608 586 609
1121 2 2 1 1 587 588 610
1122 2 2 1 1 609 587 610
1123 2 2 1 1 588 589 611
1124 2 2 1 1 610 588 611
1125 2 2 1 1 589 590 612
1126 2 2 1 1 611 589 612
1127 2 2 1 1 590 591 613
1128 2 2 1 1 612 590 613
1129 2 2 1 1 591 592 614
1130 2 2 1 1 613 591 614
1131 2 2 1 1 592 593 615
1132 2 2 1 1 614 592 615
1133 2 2 1 1 593 594 616
1134 2 2 1 1 615 593 616
1135 2 2 1 1 596 595 617
1136 2 2 1 1 618 596 617
1137 2 2 1 1 595 597 619
1138 2 2 1 1 617 595 619
1139 2 2 1 1 597 598 620
1140 2 2 1 1 619 597 620
1141 2 2 1 1 598 599 621
1142 2 2 1 1 620 598 621
1143 2 2 1 1 599 600 622
1144 2 2 1 1 621 599 622
1145 2 2 1 1 600 601 623
1146 2 2 1 1 622 600 623
1147 2 2 1 1 601 602 624
1148 2 2 1 1 623 601 624
1149 2 2 1 1 602 603 625
1150 2 2 1 1 624 602 625
1151 2 2 1 1 603 604 626
1152 2 2 1 1 625 603 626
1153 2 2 1 1 604 605 627
1154 2 2 1 1 626 604 627
1155 2 2 1 1 605 606 628
1156 2 2 1 1 627 605 628
1157 2 2 1 1 606 607 629
1158 2 2 1 1 628 606 629
1159 2 2 1 1 607 608 630
1160 2 2 1 1 629 607 630
1161 2 2 1 1 608 609 631
1162 2 2 1 1 630 608 631
1163 2 2 1 1 609 610 632
1164 2 2 1 1 631 609 632
1165 2 2 1 1 610 611 633
1166 2 2 1 1 632 610 633
1167 2 2 1 1 611 612 634
1168 2 2 1 1 633 611 634
1169 2 2 1 1 612 613 635
1170 2 2 1 1 634 612 635
1171 2 2 1 1 613 614 636
1172 2 2 1 1 635 613 636
1173 2 2 1 1 614 615 637
1174 2 2 1 1 636 614 637
1175 2 2 1 1 615 616 638
1176 2 2 1 1 637 615 638
1177 2 2 1 1 618 617 639
1178 2 2 1 1 640 618 639
1179 2 2 1 1 617 619 641
1180 2 2 1 1 639 617 641
1181 2 2 1 1 619 620 642
1182 2 2 1 1 641 619 642
1183 2 2 1 1 620 621 643
1184 2 2 1 1 642 620 643
1185 2 2 1 1 621 622 644
1186 2 2 1 1 643 621 644
1187 2 2 1 1 622 623 645
1188 2 2 1 1 644 622 645
1189 2 2 1 1 623 624 646
1190 2 2 1 1 645 623 646
1191 2 2 1 1 624 625 647
1192 2 2 1 1 646 624 647
1193 2 2 1 1 625 626 648
1194 2 2 1 1 647 625 648
1195 2 2 1 1 626 627 649
1196 2 2 1 1 648 626 649
1197 2 2 1 1 627 628 650
1198 2 2 1 1 649 627 650
1199 2 2 1 1 628 629 651
1200 2 2 1 1 650 628 651
1201 2 2 1 1 629 630 652
1202 2 2 1 1 651 629 652
1203 2 2 1 1 630 631 653
1204 2 2 1 1 652 630 653
1205 2 2 1 1 631 632 654
1206 2 2 1 1 653 631 654
1207 2 2 1 1 632 633 655
1208 2 2 1 1 654 632 655
1209 2 2 1 1 633 634 656
1210 2 2 1 1 655 633 656
1211 2 2 1 1 634 635 657
1212 2 2 1 1 656 634 657
1213 2 2 1 1 635 636 658
1214 2 2 1 1 657 635 658
1215 2 2 1 1 636 637 659
1216 2 2 1 1 658 636 659
1217 2 2 1 1 637 638 660
1218 2 2 1 1 659 637 660
1219 2 2 1 1 640 639 661
1220 2 2 1 1 662 640 661
1221 2 2 1 1 639 641 663
1222 2 2 1 1 661 639 663
1223 2 2 1 1 641 642 664
1224 2 2 1 1 663 641 664
1225 2 2 1 1 642 643 665
1226 2 2 1 1 664 642 665
1227 2 2 1 1 643 644 666
1228 2 2 1 1 665 643 666
1229 2 2 1 1 644 645 667
1230 2 2 1 1 666 644 667
1231 2 2 1 1 645 646 668
1232 2 2 1 1 667 645 668
1233 2 2 1 1 646 647 669
1234 2 2 1 1 668 646 669
1235 2 2 1 1 647 648 670
1236 2 2 1 1 669 647 670
1237 2 2 1 1 648 649 671
1238 2 2 1 1 670 648 671
1239 2 2 1 1 649 650 672
1240 2 2 1 1 671 649 672
1241 2 2 1 1 650 651 673
1242 2 2 1 1 672 650 673
1243 2 2 1 1 651 652 674
1244 2 2 1 1 673 651 674
1245 2 2 1 1 652 653 675
1246 2 2 1 1 674 652 675
1247 2 2 1 1 653 654 676
1248 2 2 1 1 675 653 676
1249 2 2 1 1 654 655 677
1250 2 2 1 1 676 654 677
1251 2 2 1 1 655 656 678
1252 2 2 1 1 677 655 678
1253 2 2 1 1 656 657 679
1254 2 2 1 1 678 656 679
1255 2 2 1 1 657 658 680
1256 2 2 1 1 679 657 680
1257 2 2 1 1 658 659 681
1258 2 2 1 1 680 658 681
1259 2 2 1 1 659 660 682
1260 2 2 1 1 681 659 682
1261 2 2 1 1 662 661 683
1262 2 2 1 1 684 662 683
1263 2 2 1 1 661 663 685
1264 2 2 1 1 683 661 685
1265 2 2 1 1 663 664 686
1266 2 2 1 1 685 663 686
1267 2 2 1 1 664 665 687
1268 2 2 1 1 686 664 687
1269 2 2 1 1 665 666 688
1270 2 2 1 1 687 665 688
1271 2 2 1 1 666 667 689
1272 2 2 1 1 688 666 689
1273 2 2 1 1 667 668 690
1274 2 2 1 1 689 667 690
1275 2 2 1 1 668 669 691
1276 2 2 1 1 690 668 691
1277 2 2 1 1 669 670 692
1278 2 2 1 1 691 669 692
1279 2 2 1 1 670 671 693
1280 2 2 1 1 692 670 693
1281 2 2 1 1 671 672 694
1282 2 2 1 1 693 671 694
1283 2 2 1 1 672 673 695
1284 2 2 1 1 694 672 695
1285 2 2 1 1 673 674 696
1286 2 2 1 1 695 673 696
1287 2 2 1 1 674 675 697
1288 2 2 1 1 696 674 697
1289 2 2 1 1 675 676 698
1290 2 2 1 1 697 675 698
1291 2 2 1 1 676 677 699
1292 2 2 1 1 698 676 699
1293 2 2 1 1 677 678 700
1294 2 2 1 1 699 677 700
1295 2 2 1 1 678 679 701
1296 2 2 1 1 700 678 701
1297 2 2 1 1 679 680 702
1298 2 2 1 1 701 679 702
1299 2 2 1 1 680 681 703
1300 2 2 1 1 702 680 703
1301 2 2 1 1 681 682 704
1302 2 2 1 1 703 681 704
1303 2 2 1 1 684 683 705
1304 2 2 1 1 706 684 705
1305 2 2 1 1 683 685 707
1306 2 2 1 1 705 683 707
1307 2 2 1 1 685 686 708
1308 2 2 1 1 707 685 708
1309 2 2 1 1 686 687 709
1310 2 2 1 1 708 686 709
1311 2 2 1 1 687 688 710
1312 2 2 1 1 709 687 710
1313 2 2 1 1 688 689 711
1314 2 2 1 1 710 688 711
1315 2 2 1 1 689 690 712
1316 2 2 1 1 711 689 712
1317 2 2 1 1 690 691 713
1318 2 2 1 1 712 690 713
1319 2 2 1 1 691 692 714
1320 2 2 1 1 713 691 714
1321 2 2 1 1 692 693 715
1322 2 2 1 1 714 692 715
1323 2 2 1 1 693 694 716
1324 2 2 1 1 715 693 716
1325 2 2 1 1 694 695 717
1326 2 2 1 1 716 694 717
1327 2 2 1 1 695 696 718
1328 2 2 1 1 717 695 718
1329 2 2 1 1 696 697 719
1330 2 2 1 1 718 696 719
1331 2 2 1 1 697 698 720
1332 2 2 1 1 719 697 720
1333 2 2 1 1 698 699 721
1334 2 2 1 1 720 698 721
1335 2 2 1 1 699 700 722
1336 2 2 1 1 721 699 722
1337 2 2 1 1 700 701 723
1338 2 2 1 1 722 700 723
1339 2 2 1 1 701 702 724
1340 2 2 1 1 723 701 724
1341 2 2 1 1 702 703 725
1342 2 2 1 1 724 702 725
1343 2 2 1 1 703 704 726
1344 2 2 1 1 725 703 726
1345 2 2 1 1 706 705 727
1346 2 2 1 1 728 706 727
1347 2 2 1 1 705 707 729
1348 2 2 1 1 727 705 729
1349 2 2 1 1 707 708 730
1350 2 2 1 1 729 707 730
1351 2 2 1 1 708 709 731
1352 2 2 1 1 730 708 731
1353 2 2 1 1 709 710 732
1354 2 2 1 1 731 709 732
1355 2 2 1 1 710 711 733
1356 2 2 1 1 732 710 733
1357 2 2 1 1 711 712 734
1358 2 2 1 1 733 711 734
1359 2 2 1 1 712 713 735
1360 2 2 1 1 734 712 735
1361 2 2 1 1 713 714 736
1362 2 2 1 1 735 713 736
1363 2 2 1 1 714 715 737
1364 2 2 1 1 736 714 737
1365 2 2 1 1 715 716 738
1366 2 2 1 1 737 715 738
1367 2 2 1 1 716 717 739
1368 2 2 1 1 738 716 739
1369 2 2 1 1 717 718 740
1370 2 2 1 1 739 717 740
1371 2 2 1 1 718 719 741
1372 2 2 1 1 740 718 741
1373 2 2 1 1 719 720 742
1374 2 2 1 1 741 719 742
1375 2 2 1 1 720 721 743
1376 2 2 1 1 742 720 743
1377 2 2 1 1 721 722 744
1378 2 2 1 1 743 721 744
1379 2 2 1 1 722 723 745
1380 2 2 1 1 744 722 745
1381 2 2 1 1 723 724 746
1382 2 2 1 1 745 723 746
1383 2 2 1 1 724 725 747
1384 2 2 1 1 746 724 747
1385 2 2 1 1 725 726 748
1386 2 2 1 1 747 725 748
1387 2 2 1 1 728 727 749
1388 2 2 1 1 750 728 749
1389 2 2 1 1 727 729 751
1390 2 2 1 1 749 727 751
1391 2 2 1 1 729 730 752
1392 2 2 1 1 751 729 752
1393 2 2 1 1 730 731 753
1394 2 2 1 1 752 730 753
1395 2 2 1 1 731 732 754
1396 2 2 1 1 753 731 754
1397 2 2 1 1 732 733 755
1398 2 2 1 1 754 732 755
1399 2 2 1 1 733 734 756
1400 2 2 1 1 755 733 756
1401 2 2 1 1 734 735 757
1402 2 2 1 1 756 734 757
1403 2 2 1 1 735 736 758
1404 2 2 1 1 757 735 758
1405 2 2 1 1 736 737 759
1406 2 2 1 1 758 736 759
1407 2 2 1 1 737 738 760
1408 2 2 1 1 759 737 760
1409 2 2 1 1 738 739 761
1410 2 2 1 1 760 738 761
1411 2 2 1 1 739 740 762
1412 2 2 1 1 761 739 762
1413 2 2 1 1 740 741 763
1414 2 2 1 1 762 740 763
1415 2 2 1 1 741 742 764
1416 2 2 1 1 763 741 764
1417 2 2 1 1 742 743 765
1418 2 2 1 1 764 742 765
1419 2 2 1 1 743 744 766
1420 2 2 1 1 765 743 766
1421 2 2 1 1 744 745 767
1422 2 2 1 1 766 744 767
1423 2 2 1 1 745 746 768
1424 2 2 1 1 767 745 768
1425 2 2 1 1 746 747 769
1426 2 2 1 1 768 746 769
1427 2 2 1 1 747 748 770
1428 2 2 1 1 769 747 770
1429 2 2 1 1 750 749 771
1430 2 2 1 1 772 750 771
1431 2 2 1 1 749 751 773
1432 2 2 1 1 771 749 773
1433 2 2 1 1 751 752 774
1434 2 2 1 1 773 751 774
1435 2 2 1 1 752 753 775
1436 2 2 1 1 774 752 775
1437 2 2 1 1 753 754 776
1438 2 2 1 1 775 753 776
1439 2 2 1 1 754 755 777
1440 2 2 1 1 776 754 777
1441 2 2 1 1 755 756 778
1442 2 2 1 1 777 755 778
1443 2 2 1 1 756 757 779
1444 2 2 1 1 778 756 779
1445 2 2 1 1 757 758 780
1446 2 2 1 1 779 757 780
1447 2 2 1 1 758 759 781
1448 2 2 1 1 780 758 781
1449 2 2 1 1 759 760 782
1450 2 2 1 1 781 759 782
1451 2 2 1 1 760 761 783
1452 2 2 1 1 782 760 783
1453 2 2 1 1 761 762 784
1454 2 2 1 1 783 761 784
1455 2 2 1 1 762 763 785
1456 2 2 1 1 784 762 785
1457 2 2 1 1 763 764 786
1458 2 2 1 1 785 763 786
1459 2 2 1 1 764 765 787
1460 2 2 1 1 786 764 787
1461 2 2 1 1 765 766 788
1462 2 2 1 1 787 765 788
1463 2 2 1 1 766 767 789
1464 2 2 1 1 788 766 789
1465 2 2 1 1 767 768 790
1466 2 2 1 1 789 767 790
1467 2 2 1 1 768 769 791
1468 2 2 1 1 790 768 791
1469 2 2 1 1 769 770 792
1470 2 2 1 1 791 769 792
1471 2 2 1 1 772 771 397
1472 2 2 1 1 398 772 397
1473 2 2 1 1 771 773 399
1474 2 2 1 1 397 771 399
1475 2 2 1 1 773 774 400
1476 2 2 1 1 399 773 400
1477 2 2 1 1 774 775 401
1478 2 2 1 1 400 774 401
1479 2 2 1 1 775 776 402
1480 2 2 1 1 401 775 402
1481 2 2 1 1 776 777 403
1482 2 2 1 1 402 776 403
1483 2 2 1 1 777 778 404
1484 2 2 1 1 403 777 404
1485 2 2 1 1 778 779 405
1486 2 2 1 1 404 778 405
1487 2 2 1 1 779 780 406
1488 2 2 1 1 405 779 406
1489 2 2 1 1 780 781 407
1490 2 2 1 1 406 780 407
1491 2 2 1 1 781 782 408
1492 2 2 1 1 407 781 408
1493 2 2 1 1 782 783 409
1494 2 2 1 1 408 782 409
1495 2 2 1 1 783 784 410
1496 2 2 1 1 409 783 410
1497 2 2 1 1 784 785 411
1498 2 2 1 1 410 784 411
1499 2 2 1 1 785 786 412
1500 2 2 1 1 411 785 412
1501 2 2 1 1 786 787 413
1502 2 2 1 1 412 786 413
1503 2 2 1 1 787 788 414
1504 2 2 1 1 413 787 414
1505 2 2 1 1 788 789 415
1506 2 2 1 1 414 788 415
1507 2 2 1 1 789 790 416
1508 2 2 1 1 415 789 416
1509 2 2 1 1 790 791 417
1510 2 2 1 1 416 790 417
1511 2 2 1 1 791 792 418
1512 2 2 1 1 417 791 418
$EndElements
