# Converted from GDF: L04 Pontoon.gdf
# gdf created by manipulating UMaineSemi.gdf
# Vertices: 792
# Faces: 1512

o gdf_created_by_manipulating_UMaineSemi.gdf

v -15.390000 5.208000 -20.000000
v -17.010000 5.208000 -20.000000
v -17.010000 6.250000 -20.000000
v -15.390000 6.250000 -20.000000
v -13.770000 5.208000 -20.000000
v -13.770000 6.250000 -20.000000
v -12.150000 5.208000 -20.000000
v -12.150000 6.250000 -20.000000
v -10.530000 5.208000 -20.000000
v -10.530000 6.250000 -20.000000
v -8.910000 5.208000 -20.000000
v -8.910000 6.250000 -20.000000
v -7.290000 5.208000 -20.000000
v -7.290000 6.250000 -20.000000
v -5.670000 5.208000 -20.000000
v -5.670000 6.250000 -20.000000
v -4.050000 5.208000 -20.000000
v -4.050000 6.250000 -20.000000
v -2.430000 5.208000 -20.000000
v -2.430000 6.250000 -20.000000
v -0.810000 5.208000 -20.000000
v -0.810000 6.250000 -20.000000
v 0.810000 5.208000 -20.000000
v 0.810000 6.250000 -20.000000
v 2.430000 5.208000 -20.000000
v 2.430000 6.250000 -20.000000
v 4.050000 5.208000 -20.000000
v 4.050000 6.250000 -20.000000
v 5.670000 5.208000 -20.000000
v 5.670000 6.250000 -20.000000
v 7.290000 5.208000 -20.000000
v 7.290000 6.250000 -20.000000
v 8.910000 5.208000 -20.000000
v 8.910000 6.250000 -20.000000
v 10.530000 5.208000 -20.000000
v 10.530000 6.250000 -20.000000
v 12.150000 5.208000 -20.000000
v 12.150000 6.250000 -20.000000
v 13.770000 5.208000 -20.000000
v 13.770000 6.250000 -20.000000
v 15.390000 5.208000 -20.000000
v 15.390000 6.250000 -20.000000
v 17.010000 5.208000 -20.000000
v 17.010000 6.250000 -20.000000
v -15.390000 4.167000 -20.000000
v -17.010000 4.167000 -20.000000
v -13.770000 4.167000 -20.000000
v -12.150000 4.167000 -20.000000
v -10.530000 4.167000 -20.000000
v -8.910000 4.167000 -20.000000
v -7.290000 4.167000 -20.000000
v -5.670000 4.167000 -20.000000
v -4.050000 4.167000 -20.000000
v -2.430000 4.167000 -20.000000
v -0.810000 4.167000 -20.000000
v 0.810000 4.167000 -20.000000
v 2.430000 4.167000 -20.000000
v 4.050000 4.167000 -20.000000
v 5.670000 4.167000 -20.000000
v 7.290000 4.167000 -20.000000
v 8.910000 4.167000 -20.000000
v 10.530000 4.167000 -20.000000
v 12.150000 4.167000 -20.000000
v 13.770000 4.167000 -20.000000
v 15.390000 4.167000 -20.000000
v 17.010000 4.167000 -20.000000
v -15.390000 3.125000 -20.000000
v -17.010000 3.125000 -20.000000
v -13.770000 3.125000 -20.000000
v -12.150000 3.125000 -20.000000
v -10.530000 3.125000 -20.000000
v -8.910000 3.125000 -20.000000
v -7.290000 3.125000 -20.000000
v -5.670000 3.125000 -20.000000
v -4.050000 3.125000 -20.000000
v -2.430000 3.125000 -20.000000
v -0.810000 3.125000 -20.000000
v 0.810000 3.125000 -20.000000
v 2.430000 3.125000 -20.000000
v 4.050000 3.125000 -20.000000
v 5.670000 3.125000 -20.000000
v 7.290000 3.125000 -20.000000
v 8.910000 3.125000 -20.000000
v 10.530000 3.125000 -20.000000
v 12.150000 3.125000 -20.000000
v 13.770000 3.125000 -20.000000
v 15.390000 3.125000 -20.000000
v 17.010000 3.125000 -20.000000
v -15.390000 2.083000 -20.000000
v -17.010000 2.083000 -20.000000
v -13.770000 2.083000 -20.000000
v -12.150000 2.083000 -20.000000
v -10.530000 2.083000 -20.000000
v -8.910000 2.083000 -20.000000
v -7.290000 2.083000 -20.000000
v -5.670000 2.083000 -20.000000
v -4.050000 2.083000 -20.000000
v -2.430000 2.083000 -20.000000
v -0.810000 2.083000 -20.000000
v 0.810000 2.083000 -20.000000
v 2.430000 2.083000 -20.000000
v 4.050000 2.083000 -20.000000
v 5.670000 2.083000 -20.000000
v 7.290000 2.083000 -20.000000
v 8.910000 2.083000 -20.000000
v 10.530000 2.083000 -20.000000
v 12.150000 2.083000 -20.000000
v 13.770000 2.083000 -20.000000
v 15.390000 2.083000 -20.000000
v 17.010000 2.083000 -20.000000
v -15.390000 1.042000 -20.000000
v -17.010000 1.042000 -20.000000
v -13.770000 1.042000 -20.000000
v -12.150000 1.042000 -20.000000
v -10.530000 1.042000 -20.000000
v -8.910000 1.042000 -20.000000
v -7.290000 1.042000 -20.000000
v -5.670000 1.042000 -20.000000
v -4.050000 1.042000 -20.000000
v -2.430000 1.042000 -20.000000
v -0.810000 1.042000 -20.000000
v 0.810000 1.042000 -20.000000
v 2.430000 1.042000 -20.000000
v 4.050000 1.042000 -20.000000
v 5.670000 1.042000 -20.000000
v 7.290000 1.042000 -20.000000
v 8.910000 1.042000 -20.000000
v 10.530000 1.042000 -20.000000
v 12.150000 1.042000 -20.000000
v 13.770000 1.042000 -20.000000
v 15.390000 1.042000 -20.000000
v 17.010000 1.042000 -20.000000
v -15.390000 0.000000 -20.000000
v -17.010000 0.000000 -20.000000
v -13.770000 0.000000 -20.000000
v -12.150000 0.000000 -20.000000
v -10.530000 0.000000 -20.000000
v -8.910000 0.000000 -20.000000
v -7.290000 0.000000 -20.000000
v -5.670000 0.000000 -20.000000
v -4.050000 0.000000 -20.000000
v -2.430000 0.000000 -20.000000
v -0.810000 0.000000 -20.000000
v 0.810000 0.000000 -20.000000
v 2.430000 0.000000 -20.000000
v 4.050000 0.000000 -20.000000
v 5.670000 0.000000 -20.000000
v 7.290000 0.000000 -20.000000
v 8.910000 0.000000 -20.000000
v 10.530000 0.000000 -20.000000
v 12.150000 0.000000 -20.000000
v 13.770000 0.000000 -20.000000
v 15.390000 0.000000 -20.000000
v 17.010000 0.000000 -20.000000
v -15.390000 6.250000 -18.833000
v -17.010000 6.250000 -18.833000
v -13.770000 6.250000 -18.833000
v -12.150000 6.250000 -18.833000
v -10.530000 6.250000 -18.833000
v -8.910000 6.250000 -18.833000
v -7.290000 6.250000 -18.833000
v -5.670000 6.250000 -18.833000
v -4.050000 6.250000 -18.833000
v -2.430000 6.250000 -18.833000
v -0.810000 6.250000 -18.833000
v 0.810000 6.250000 -18.833000
v 2.430000 6.250000 -18.833000
v 4.050000 6.250000 -18.833000
v 5.670000 6.250000 -18.833000
v 7.290000 6.250000 -18.833000
v 8.910000 6.250000 -18.833000
v 10.530000 6.250000 -18.833000
v 12.150000 6.250000 -18.833000
v 13.770000 6.250000 -18.833000
v 15.390000 6.250000 -18.833000
v 17.010000 6.250000 -18.833000
v -15.390000 6.250000 -17.667000
v -17.010000 6.250000 -17.667000
v -13.770000 6.250000 -17.667000
v -12.150000 6.250000 -17.667000
v -10.530000 6.250000 -17.667000
v -8.910000 6.250000 -17.667000
v -7.290000 6.250000 -17.667000
v -5.670000 6.250000 -17.667000
v -4.050000 6.250000 -17.667000
v -2.430000 6.250000 -17.667000
v -0.810000 6.250000 -17.667000
v 0.810000 6.250000 -17.667000
v 2.430000 6.250000 -17.667000
v 4.050000 6.250000 -17.667000
v 5.670000 6.250000 -17.667000
v 7.290000 6.250000 -17.667000
v 8.910000 6.250000 -17.667000
v 10.530000 6.250000 -17.667000
v 12.150000 6.250000 -17.667000
v 13.770000 6.250000 -17.667000
v 15.390000 6.250000 -17.667000
v 17.010000 6.250000 -17.667000
v -15.390000 6.250000 -16.500000
v -17.010000 6.250000 -16.500000
v -13.770000 6.250000 -16.500000
v -12.150000 6.250000 -16.500000
v -10.530000 6.250000 -16.500000
v -8.910000 6.250000 -16.500000
v -7.290000 6.250000 -16.500000
v -5.670000 6.250000 -16.500000
v -4.050000 6.250000 -16.500000
v -2.430000 6.250000 -16.500000
v -0.810000 6.250000 -16.500000
v 0.810000 6.250000 -16.500000
v 2.430000 6.250000 -16.500000
v 4.050000 6.250000 -16.500000
v 5.670000 6.250000 -16.500000
v 7.290000 6.250000 -16.500000
v 8.910000 6.250000 -16.500000
v 10.530000 6.250000 -16.500000
v 12.150000 6.250000 -16.500000
v 13.770000 6.250000 -16.500000
v 15.390000 6.250000 -16.500000
v 17.010000 6.250000 -16.500000
v -15.390000 6.250000 -15.333000
v -17.010000 6.250000 -15.333000
v -13.770000 6.250000 -15.333000
v -12.150000 6.250000 -15.333000
v -10.530000 6.250000 -15.333000
v -8.910000 6.250000 -15.333000
v -7.290000 6.250000 -15.333000
v -5.670000 6.250000 -15.333000
v -4.050000 6.250000 -15.333000
v -2.430000 6.250000 -15.333000
v -0.810000 6.250000 -15.333000
v 0.810000 6.250000 -15.333000
v 2.430000 6.250000 -15.333000
v 4.050000 6.250000 -15.333000
v 5.670000 6.250000 -15.333000
v 7.290000 6.250000 -15.333000
v 8.910000 6.250000 -15.333000
v 10.530000 6.250000 -15.333000
v 12.150000 6.250000 -15.333000
v 13.770000 6.250000 -15.333000
v 15.390000 6.250000 -15.333000
v 17.010000 6.250000 -15.333000
v -15.390000 6.250000 -14.167000
v -17.010000 6.250000 -14.167000
v -13.770000 6.250000 -14.167000
v -12.150000 6.250000 -14.167000
v -10.530000 6.250000 -14.167000
v -8.910000 6.250000 -14.167000
v -7.290000 6.250000 -14.167000
v -5.670000 6.250000 -14.167000
v -4.050000 6.250000 -14.167000
v -2.430000 6.250000 -14.167000
v -0.810000 6.250000 -14.167000
v 0.810000 6.250000 -14.167000
v 2.430000 6.250000 -14.167000
v 4.050000 6.250000 -14.167000
v 5.670000 6.250000 -14.167000
v 7.290000 6.250000 -14.167000
v 8.910000 6.250000 -14.167000
v 10.530000 6.250000 -14.167000
v 12.150000 6.250000 -14.167000
v 13.770000 6.250000 -14.167000
v 15.390000 6.250000 -14.167000
v 17.010000 6.250000 -14.167000
v -15.390000 6.250000 -13.000000
v -17.010000 6.250000 -13.000000
v -13.770000 6.250000 -13.000000
v -12.150000 6.250000 -13.000000
v -10.530000 6.250000 -13.000000
v -8.910000 6.250000 -13.000000
v -7.290000 6.250000 -13.000000
v -5.670000 6.250000 -13.000000
v -4.050000 6.250000 -13.000000
v -2.430000 6.250000 -13.000000
v -0.810000 6.250000 -13.000000
v 0.810000 6.250000 -13.000000
v 2.430000 6.250000 -13.000000
v 4.050000 6.250000 -13.000000
v 5.670000 6.250000 -13.000000
v 7.290000 6.250000 -13.000000
v 8.910000 6.250000 -13.000000
v 10.530000 6.250000 -13.000000
v 12.150000 6.250000 -13.000000
v 13.770000 6.250000 -13.000000
v 15.390000 6.250000 -13.000000
v 17.010000 6.250000 -13.000000
v -15.390000 5.208000 -13.000000
v -17.010000 5.208000 -13.000000
v -13.770000 5.208000 -13.000000
v -12.150000 5.208000 -13.000000
v -10.530000 5.208000 -13.000000
v -8.910000 5.208000 -13.000000
v -7.290000 5.208000 -13.000000
v -5.670000 5.208000 -13.000000
v -4.050000 5.208000 -13.000000
v -2.430000 5.208000 -13.000000
v -0.810000 5.208000 -13.000000
v 0.810000 5.208000 -13.000000
v 2.430000 5.208000 -13.000000
v 4.050000 5.208000 -13.000000
v 5.670000 5.208000 -13.000000
v 7.290000 5.208000 -13.000000
v 8.910000 5.208000 -13.000000
v 10.530000 5.208000 -13.000000
v 12.150000 5.208000 -13.000000
v 13.770000 5.208000 -13.000000
v 15.390000 5.208000 -13.000000
v 17.010000 5.208000 -13.000000
v -15.390000 4.167000 -13.000000
v -17.010000 4.167000 -13.000000
v -13.770000 4.167000 -13.000000
v -12.150000 4.167000 -13.000000
v -10.530000 4.167000 -13.000000
v -8.910000 4.167000 -13.000000
v -7.290000 4.167000 -13.000000
v -5.670000 4.167000 -13.000000
v -4.050000 4.167000 -13.000000
v -2.430000 4.167000 -13.000000
v -0.810000 4.167000 -13.000000
v 0.810000 4.167000 -13.000000
v 2.430000 4.167000 -13.000000
v 4.050000 4.167000 -13.000000
v 5.670000 4.167000 -13.000000
v 7.290000 4.167000 -13.000000
v 8.910000 4.167000 -13.000000
v 10.530000 4.167000 -13.000000
v 12.150000 4.167000 -13.000000
v 13.770000 4.167000 -13.000000
v 15.390000 4.167000 -13.000000
v 17.010000 4.167000 -13.000000
v -15.390000 3.125000 -13.000000
v -17.010000 3.125000 -13.000000
v -13.770000 3.125000 -13.000000
v -12.150000 3.125000 -13.000000
v -10.530000 3.125000 -13.000000
v -8.910000 3.125000 -13.000000
v -7.290000 3.125000 -13.000000
v -5.670000 3.125000 -13.000000
v -4.050000 3.125000 -13.000000
v -2.430000 3.125000 -13.000000
v -0.810000 3.125000 -13.000000
v 0.810000 3.125000 -13.000000
v 2.430000 3.125000 -13.000000
v 4.050000 3.125000 -13.000000
v 5.670000 3.125000 -13.000000
v 7.290000 3.125000 -13.000000
v 8.910000 3.125000 -13.000000
v 10.530000 3.125000 -13.000000
v 12.150000 3.125000 -13.000000
v 13.770000 3.125000 -13.000000
v 15.390000 3.125000 -13.000000
v 17.010000 3.125000 -13.000000
v -15.390000 2.083000 -13.000000
v -17.010000 2.083000 -13.000000
v -13.770000 2.083000 -13.000000
v -12.150000 2.083000 -13.000000
v -10.530000 2.083000 -13.000000
v -8.910000 2.083000 -13.000000
v -7.290000 2.083000 -13.000000
v -5.670000 2.083000 -13.000000
v -4.050000 2.083000 -13.000000
v -2.430000 2.083000 -13.000000
v -0.810000 2.083000 -13.000000
v 0.810000 2.083000 -13.000000
v 2.430000 2.083000 -13.000000
v 4.050000 2.083000 -13.000000
v 5.670000 2.083000 -13.000000
v 7.290000 2.083000 -13.000000
v 8.910000 2.083000 -13.000000
v 10.530000 2.083000 -13.000000
v 12.150000 2.083000 -13.000000
v 13.770000 2.083000 -13.000000
v 15.390000 2.083000 -13.000000
v 17.010000 2.083000 -13.000000
v -15.390000 1.042000 -13.000000
v -17.010000 1.042000 -13.000000
v -13.770000 1.042000 -13.000000
v -12.150000 1.042000 -13.000000
v -10.530000 1.042000 -13.000000
v -8.910000 1.042000 -13.000000
v -7.290000 1.042000 -13.000000
v -5.670000 1.042000 -13.000000
v -4.050000 1.042000 -13.000000
v -2.430000 1.042000 -13.000000
v -0.810000 1.042000 -13.000000
v 0.810000 1.042000 -13.000000
v 2.430000 1.042000 -13.000000
v 4.050000 1.042000 -13.000000
v 5.670000 1.042000 -13.000000
v 7.290000 1.042000 -13.000000
v 8.910000 1.042000 -13.000000
v 10.530000 1.042000 -13.000000
v 12.150000 1.042000 -13.000000
v 13.770000 1.042000 -13.000000
v 15.390000 1.042000 -13.000000
v 17.010000 1.042000 -13.000000
v -15.390000 0.000000 -13.000000
v -17.010000 0.000000 -13.000000
v -13.770000 0.000000 -13.000000
v -12.150000 0.000000 -13.000000
v -10.530000 0.000000 -13.000000
v -8.910000 0.000000 -13.000000
v -7.290000 0.000000 -13.000000
v -5.670000 0.000000 -13.000000
v -4.050000 0.000000 -13.000000
v -2.430000 0.000000 -13.000000
v -0.810000 0.000000 -13.000000
v 0.810000 0.000000 -13.000000
v 2.430000 0.000000 -13.000000
v 4.050000 0.000000 -13.000000
v 5.670000 0.000000 -13.000000
v 7.290000 0.000000 -13.000000
v 8.910000 0.000000 -13.000000
v 10.530000 0.000000 -13.000000
v 12.150000 0.000000 -13.000000
v 13.770000 0.000000 -13.000000
v 15.390000 0.000000 -13.000000
v 17.010000 0.000000 -13.000000
v -15.390000 -5.208000 -20.000000
v -17.010000 -5.208000 -20.000000
v -17.010000 -6.250000 -20.000000
v -15.390000 -6.250000 -20.000000
v -13.770000 -5.208000 -20.000000
v -13.770000 -6.250000 -20.000000
v -12.150000 -5.208000 -20.000000
v -12.150000 -6.250000 -20.000000
v -10.530000 -5.208000 -20.000000
v -10.530000 -6.250000 -20.000000
v -8.910000 -5.208000 -20.000000
v -8.910000 -6.250000 -20.000000
v -7.290000 -5.208000 -20.000000
v -7.290000 -6.250000 -20.000000
v -5.670000 -5.208000 -20.000000
v -5.670000 -6.250000 -20.000000
v -4.050000 -5.208000 -20.000000
v -4.050000 -6.250000 -20.000000
v -2.430000 -5.208000 -20.000000
v -2.430000 -6.250000 -20.000000
v -0.810000 -5.208000 -20.000000
v -0.810000 -6.250000 -20.000000
v 0.810000 -5.208000 -20.000000
v 0.810000 -6.250000 -20.000000
v 2.430000 -5.208000 -20.000000
v 2.430000 -6.250000 -20.000000
v 4.050000 -5.208000 -20.000000
v 4.050000 -6.250000 -20.000000
v 5.670000 -5.208000 -20.000000
v 5.670000 -6.250000 -20.000000
v 7.290000 -5.208000 -20.000000
v 7.290000 -6.250000 -20.000000
v 8.910000 -5.208000 -20.000000
v 8.910000 -6.250000 -20.000000
v 10.530000 -5.208000 -20.000000
v 10.530000 -6.250000 -20.000000
v 12.150000 -5.208000 -20.000000
v 12.150000 -6.250000 -20.000000
v 13.770000 -5.208000 -20.000000
v 13.770000 -6.250000 -20.000000
v 15.390000 -5.208000 -20.000000
v 15.390000 -6.250000 -20.000000
v 17.010000 -5.208000 -20.000000
v 17.010000 -6.250000 -20.000000
v -15.390000 -4.167000 -20.000000
v -17.010000 -4.167000 -20.000000
v -13.770000 -4.167000 -20.000000
v -12.150000 -4.167000 -20.000000
v -10.530000 -4.167000 -20.000000
v -8.910000 -4.167000 -20.000000
v -7.290000 -4.167000 -20.000000
v -5.670000 -4.167000 -20.000000
v -4.050000 -4.167000 -20.000000
v -2.430000 -4.167000 -20.000000
v -0.810000 -4.167000 -20.000000
v 0.810000 -4.167000 -20.000000
v 2.430000 -4.167000 -20.000000
v 4.050000 -4.167000 -20.000000
v 5.670000 -4.167000 -20.000000
v 7.290000 -4.167000 -20.000000
v 8.910000 -4.167000 -20.000000
v 10.530000 -4.167000 -20.000000
v 12.150000 -4.167000 -20.000000
v 13.770000 -4.167000 -20.000000
v 15.390000 -4.167000 -20.000000
v 17.010000 -4.167000 -20.000000
v -15.390000 -3.125000 -20.000000
v -17.010000 -3.125000 -20.000000
v -13.770000 -3.125000 -20.000000
v -12.150000 -3.125000 -20.000000
v -10.530000 -3.125000 -20.000000
v -8.910000 -3.125000 -20.000000
v -7.290000 -3.125000 -20.000000
v -5.670000 -3.125000 -20.000000
v -4.050000 -3.125000 -20.000000
v -2.430000 -3.125000 -20.000000
v -0.810000 -3.125000 -20.000000
v 0.810000 -3.125000 -20.000000
v 2.430000 -3.125000 -20.000000
v 4.050000 -3.125000 -20.000000
v 5.670000 -3.125000 -20.000000
v 7.290000 -3.125000 -20.000000
v 8.910000 -3.125000 -20.000000
v 10.530000 -3.125000 -20.000000
v 12.150000 -3.125000 -20.000000
v 13.770000 -3.125000 -20.000000
v 15.390000 -3.125000 -20.000000
v 17.010000 -3.125000 -20.000000
v -15.390000 -2.083000 -20.000000
v -17.010000 -2.083000 -20.000000
v -13.770000 -2.083000 -20.000000
v -12.150000 -2.083000 -20.000000
v -10.530000 -2.083000 -20.000000
v -8.910000 -2.083000 -20.000000
v -7.290000 -2.083000 -20.000000
v -5.670000 -2.083000 -20.000000
v -4.050000 -2.083000 -20.000000
v -2.430000 -2.083000 -20.000000
v -0.810000 -2.083000 -20.000000
v 0.810000 -2.083000 -20.000000
v 2.430000 -2.083000 -20.000000
v 4.050000 -2.083000 -20.000000
v 5.670000 -2.083000 -20.000000
v 7.290000 -2.083000 -20.000000
v 8.910000 -2.083000 -20.000000
v 10.530000 -2.083000 -20.000000
v 12.150000 -2.083000 -20.000000
v 13.770000 -2.083000 -20.000000
v 15.390000 -2.083000 -20.000000
v 17.010000 -2.083000 -20.000000
v -15.390000 -1.042000 -20.000000
v -17.010000 -1.042000 -20.000000
v -13.770000 -1.042000 -20.000000
v -12.150000 -1.042000 -20.000000
v -10.530000 -1.042000 -20.000000
v -8.910000 -1.042000 -20.000000
v -7.290000 -1.042000 -20.000000
v -5.670000 -1.042000 -20.000000
v -4.050000 -1.042000 -20.000000
v -2.430000 -1.042000 -20.000000
v -0.810000 -1.042000 -20.000000
v 0.810000 -1.042000 -20.000000
v 2.430000 -1.042000 -20.000000
v 4.050000 -1.042000 -20.000000
v 5.670000 -1.042000 -20.000000
v 7.290000 -1.042000 -20.000000
v 8.910000 -1.042000 -20.000000
v 10.530000 -1.042000 -20.000000
v 12.150000 -1.042000 -20.000000
v 13.770000 -1.042000 -20.000000
v 15.390000 -1.042000 -20.000000
v 17.010000 -1.042000 -20.000000
v -15.390000 -6.250000 -18.833000
v -17.010000 -6.250000 -18.833000
v -13.770000 -6.250000 -18.833000
v -12.150000 -6.250000 -18.833000
v -10.530000 -6.250000 -18.833000
v -8.910000 -6.250000 -18.833000
v -7.290000 -6.250000 -18.833000
v -5.670000 -6.250000 -18.833000
v -4.050000 -6.250000 -18.833000
v -2.430000 -6.250000 -18.833000
v -0.810000 -6.250000 -18.833000
v 0.810000 -6.250000 -18.833000
v 2.430000 -6.250000 -18.833000
v 4.050000 -6.250000 -18.833000
v 5.670000 -6.250000 -18.833000
v 7.290000 -6.250000 -18.833000
v 8.910000 -6.250000 -18.833000
v 10.530000 -6.250000 -18.833000
v 12.150000 -6.250000 -18.833000
v 13.770000 -6.250000 -18.833000
v 15.390000 -6.250000 -18.833000
v 17.010000 -6.250000 -18.833000
v -15.390000 -6.250000 -17.667000
v -17.010000 -6.250000 -17.667000
v -13.770000 -6.250000 -17.667000
v -12.150000 -6.250000 -17.667000
v -10.530000 -6.250000 -17.667000
v -8.910000 -6.250000 -17.667000
v -7.290000 -6.250000 -17.667000
v -5.670000 -6.250000 -17.667000
v -4.050000 -6.250000 -17.667000
v -2.430000 -6.250000 -17.667000
v -0.810000 -6.250000 -17.667000
v 0.810000 -6.250000 -17.667000
v 2.430000 -6.250000 -17.667000
v 4.050000 -6.250000 -17.667000
v 5.670000 -6.250000 -17.667000
v 7.290000 -6.250000 -17.667000
v 8.910000 -6.250000 -17.667000
v 10.530000 -6.250000 -17.667000
v 12.150000 -6.250000 -17.667000
v 13.770000 -6.250000 -17.667000
v 15.390000 -6.250000 -17.667000
v 17.010000 -6.250000 -17.667000
v -15.390000 -6.250000 -16.500000
v -17.010000 -6.250000 -16.500000
v -13.770000 -6.250000 -16.500000
v -12.150000 -6.250000 -16.500000
v -10.530000 -6.250000 -16.500000
v -8.910000 -6.250000 -16.500000
v -7.290000 -6.250000 -16.500000
v -5.670000 -6.250000 -16.500000
v -4.050000 -6.250000 -16.500000
v -2.430000 -6.250000 -16.500000
v -0.810000 -6.250000 -16.500000
v 0.810000 -6.250000 -16.500000
v 2.430000 -6.250000 -16.500000
v 4.050000 -6.250000 -16.500000
v 5.670000 -6.250000 -16.500000
v 7.290000 -6.250000 -16.500000
v 8.910000 -6.250000 -16.500000
v 10.530000 -6.250000 -16.500000
v 12.150000 -6.250000 -16.500000
v 13.770000 -6.250000 -16.500000
v 15.390000 -6.250000 -16.500000
v 17.010000 -6.250000 -16.500000
v -15.390000 -6.250000 -15.333000
v -17.010000 -6.250000 -15.333000
v -13.770000 -6.250000 -15.333000
v -12.150000 -6.250000 -15.333000
v -10.530000 -6.250000 -15.333000
v -8.910000 -6.250000 -15.333000
v -7.290000 -6.250000 -15.333000
v -5.670000 -6.250000 -15.333000
v -4.050000 -6.250000 -15.333000
v -2.430000 -6.250000 -15.333000
v -0.810000 -6.250000 -15.333000
v 0.810000 -6.250000 -15.333000
v 2.430000 -6.250000 -15.333000
v 4.050000 -6.250000 -15.333000
v 5.670000 -6.250000 -15.333000
v 7.290000 -6.250000 -15.333000
v 8.910000 -6.250000 -15.333000
v 10.530000 -6.250000 -15.333000
v 12.150000 -6.250000 -15.333000
v 13.770000 -6.250000 -15.333000
v 15.390000 -6.250000 -15.333000
v 17.010000 -6.250000 -15.333000
v -15.390000 -6.250000 -14.167000
v -17.010000 -6.250000 -14.167000
v -13.770000 -6.250000 -14.167000
v -12.150000 -6.250000 -14.167000
v -10.530000 -6.250000 -14.167000
v -8.910000 -6.250000 -14.167000
v -7.290000 -6.250000 -14.167000
v -5.670000 -6.250000 -14.167000
v -4.050000 -6.250000 -14.167000
v -2.430000 -6.250000 -14.167000
v -0.810000 -6.250000 -14.167000
v 0.810000 -6.250000 -14.167000
v 2.430000 -6.250000 -14.167000
v 4.050000 -6.250000 -14.167000
v 5.670000 -6.250000 -14.167000
v 7.290000 -6.250000 -14.167000
v 8.910000 -6.250000 -14.167000
v 10.530000 -6.250000 -14.167000
v 12.150000 -6.250000 -14.167000
v 13.770000 -6.250000 -14.167000
v 15.390000 -6.250000 -14.167000
v 17.010000 -6.250000 -14.167000
v -15.390000 -6.250000 -13.000000
v -17.010000 -6.250000 -13.000000
v -13.770000 -6.250000 -13.000000
v -12.150000 -6.250000 -13.000000
v -10.530000 -6.250000 -13.000000
v -8.910000 -6.250000 -13.000000
v -7.290000 -6.250000 -13.000000
v -5.670000 -6.250000 -13.000000
v -4.050000 -6.250000 -13.000000
v -2.430000 -6.250000 -13.000000
v -0.810000 -6.250000 -13.000000
v 0.810000 -6.250000 -13.000000
v 2.430000 -6.250000 -13.000000
v 4.050000 -6.250000 -13.000000
v 5.670000 -6.250000 -13.000000
v 7.290000 -6.250000 -13.000000
v 8.910000 -6.250000 -13.000000
v 10.530000 -6.250000 -13.000000
v 12.150000 -6.250000 -13.000000
v 13.770000 -6.250000 -13.000000
v 15.390000 -6.250000 -13.000000
v 17.010000 -6.250000 -13.000000
v -15.390000 -5.208000 -13.000000
v -17.010000 -5.208000 -13.000000
v -13.770000 -5.208000 -13.000000
v -12.150000 -5.208000 -13.000000
v -10.530000 -5.208000 -13.000000
v -8.910000 -5.208000 -13.000000
v -7.290000 -5.208000 -13.000000
v -5.670000 -5.208000 -13.000000
v -4.050000 -5.208000 -13.000000
v -2.430000 -5.208000 -13.000000
v -0.810000 -5.208000 -13.000000
v 0.810000 -5.208000 -13.000000
v 2.430000 -5.208000 -13.000000
v 4.050000 -5.208000 -13.000000
v 5.670000 -5.208000 -13.000000
v 7.290000 -5.208000 -13.000000
v 8.910000 -5.208000 -13.000000
v 10.530000 -5.208000 -13.000000
v 12.150000 -5.208000 -13.000000
v 13.770000 -5.208000 -13.000000
v 15.390000 -5.208000 -13.000000
v 17.010000 -5.208000 -13.000000
v -15.390000 -4.167000 -13.000000
v -17.010000 -4.167000 -13.000000
v -13.770000 -4.167000 -13.000000
v -12.150000 -4.167000 -13.000000
v -10.530000 -4.167000 -13.000000
v -8.910000 -4.167000 -13.000000
v -7.290000 -4.167000 -13.000000
v -5.670000 -4.167000 -13.000000
v -4.050000 -4.167000 -13.000000
v -2.430000 -4.167000 -13.000000
v -0.810000 -4.167000 -13.000000
v 0.810000 -4.167000 -13.000000
v 2.430000 -4.167000 -13.000000
v 4.050000 -4.167000 -13.000000
v 5.670000 -4.167000 -13.000000
v 7.290000 -4.167000 -13.000000
v 8.910000 -4.167000 -13.000000
v 10.530000 -4.167000 -13.000000
v 12.150000 -4.167000 -13.000000
v 13.770000 -4.167000 -13.000000
v 15.390000 -4.167000 -13.000000
v 17.010000 -4.167000 -13.000000
v -15.390000 -3.125000 -13.000000
v -17.010000 -3.125000 -13.000000
v -13.770000 -3.125000 -13.000000
v -12.150000 -3.125000 -13.000000
v -10.530000 -3.125000 -13.000000
v -8.910000 -3.125000 -13.000000
v -7.290000 -3.125000 -13.000000
v -5.670000 -3.125000 -13.000000
v -4.050000 -3.125000 -13.000000
v -2.430000 -3.125000 -13.000000
v -0.810000 -3.125000 -13.000000
v 0.810000 -3.125000 -13.000000
v 2.430000 -3.125000 -13.000000
v 4.050000 -3.125000 -13.000000
v 5.670000 -3.125000 -13.000000
v 7.290000 -3.125000 -13.000000
v 8.910000 -3.125000 -13.000000
v 10.530000 -3.125000 -13.000000
v 12.150000 -3.125000 -13.000000
v 13.770000 -3.125000 -13.000000
v 15.390000 -3.125000 -13.000000
v 17.010000 -3.125000 -13.000000
v -15.390000 -2.083000 -13.000000
v -17.010000 -2.083000 -13.000000
v -13.770000 -2.083000 -13.000000
v -12.150000 -2.083000 -13.000000
v -10.530000 -2.083000 -13.000000
v -8.910000 -2.083000 -13.000000
v -7.290000 -2.083000 -13.000000
v -5.670000 -2.083000 -13.000000
v -4.050000 -2.083000 -13.000000
v -2.430000 -2.083000 -13.000000
v -0.810000 -2.083000 -13.000000
v 0.810000 -2.083000 -13.000000
v 2.430000 -2.083000 -13.000000
v 4.050000 -2.083000 -13.000000
v 5.670000 -2.083000 -13.000000
v 7.290000 -2.083000 -13.000000
v 8.910000 -2.083000 -13.000000
v 10.530000 -2.083000 -13.000000
v 12.150000 -2.083000 -13.000000
v 13.770000 -2.083000 -13.000000
v 15.390000 -2.083000 -13.000000
v 17.010000 -2.083000 -13.000000
v -15.390000 -1.042000 -13.000000
v -17.010000 -1.042000 -13.000000
v -13.770000 -1.042000 -13.000000
v -12.150000 -1.042000 -13.000000
v -10.530000 -1.042000 -13.000000
v -8.910000 -1.042000 -13.000000
v -7.290000 -1.042000 -13.000000
v -5.670000 -1.042000 -13.000000
v -4.050000 -1.042000 -13.000000
v -2.430000 -1.042000 -13.000000
v -0.810000 -1.042000 -13.000000
v 0.810000 -1.042000 -13.000000
v 2.430000 -1.042000 -13.000000
v 4.050000 -1.042000 -13.000000
v 5.670000 -1.042000 -13.000000
v 7.290000 -1.042000 -13.000000
v 8.910000 -1.042000 -13.000000
v 10.530000 -1.042000 -13.000000
v 12.150000 -1.042000 -13.000000
v 13.770000 -1.042000 -13.000000
v 15.390000 -1.042000 -13.000000
v 17.010000 -1.042000 -13.000000

f 1 2 3
f 1 3 4
f 5 1 4
f 5 4 6
f 7 5 6
f 7 6 8
f 9 7 8
f 9 8 10
f 11 9 10
f 11 10 12
f 13 11 12
f 13 12 14
f 15 13 14
f 15 14 16
f 17 15 16
f 17 16 18
f 19 17 18
f 19 18 20
f 21 19 20
f 21 20 22
f 23 21 22
f 23 22 24
f 25 23 24
f 25 24 26
f 27 25 26
f 27 26 28
f 29 27 28
f 29 28 30
f 31 29 30
f 31 30 32
f 33 31 32
f 33 32 34
f 35 33 34
f 35 34 36
f 37 35 36
f 37 36 38
f 39 37 38
f 39 38 40
f 41 39 40
f 41 40 42
f 43 41 42
f 43 42 44
f 45 46 2
f 45 2 1
f 47 45 1
f 47 1 5
f 48 47 5
f 48 5 7
f 49 48 7
f 49 7 9
f 50 49 9
f 50 9 11
f 51 50 11
f 51 11 13
f 52 51 13
f 52 13 15
f 53 52 15
f 53 15 17
f 54 53 17
f 54 17 19
f 55 54 19
f 55 19 21
f 56 55 21
f 56 21 23
f 57 56 23
f 57 23 25
f 58 57 25
f 58 25 27
f 59 58 27
f 59 27 29
f 60 59 29
f 60 29 31
f 61 60 31
f 61 31 33
f 62 61 33
f 62 33 35
f 63 62 35
f 63 35 37
f 64 63 37
f 64 37 39
f 65 64 39
f 65 39 41
f 66 65 41
f 66 41 43
f 67 68 46
f 67 46 45
f 69 67 45
f 69 45 47
f 70 69 47
f 70 47 48
f 71 70 48
f 71 48 49
f 72 71 49
f 72 49 50
f 73 72 50
f 73 50 51
f 74 73 51
f 74 51 52
f 75 74 52
f 75 52 53
f 76 75 53
f 76 53 54
f 77 76 54
f 77 54 55
f 78 77 55
f 78 55 56
f 79 78 56
f 79 56 57
f 80 79 57
f 80 57 58
f 81 80 58
f 81 58 59
f 82 81 59
f 82 59 60
f 83 82 60
f 83 60 61
f 84 83 61
f 84 61 62
f 85 84 62
f 85 62 63
f 86 85 63
f 86 63 64
f 87 86 64
f 87 64 65
f 88 87 65
f 88 65 66
f 89 90 68
f 89 68 67
f 91 89 67
f 91 67 69
f 92 91 69
f 92 69 70
f 93 92 70
f 93 70 71
f 94 93 71
f 94 71 72
f 95 94 72
f 95 72 73
f 96 95 73
f 96 73 74
f 97 96 74
f 97 74 75
f 98 97 75
f 98 75 76
f 99 98 76
f 99 76 77
f 100 99 77
f 100 77 78
f 101 100 78
f 101 78 79
f 102 101 79
f 102 79 80
f 103 102 80
f 103 80 81
f 104 103 81
f 104 81 82
f 105 104 82
f 105 82 83
f 106 105 83
f 106 83 84
f 107 106 84
f 107 84 85
f 108 107 85
f 108 85 86
f 109 108 86
f 109 86 87
f 110 109 87
f 110 87 88
f 111 112 90
f 111 90 89
f 113 111 89
f 113 89 91
f 114 113 91
f 114 91 92
f 115 114 92
f 115 92 93
f 116 115 93
f 116 93 94
f 117 116 94
f 117 94 95
f 118 117 95
f 118 95 96
f 119 118 96
f 119 96 97
f 120 119 97
f 120 97 98
f 121 120 98
f 121 98 99
f 122 121 99
f 122 99 100
f 123 122 100
f 123 100 101
f 124 123 101
f 124 101 102
f 125 124 102
f 125 102 103
f 126 125 103
f 126 103 104
f 127 126 104
f 127 104 105
f 128 127 105
f 128 105 106
f 129 128 106
f 129 106 107
f 130 129 107
f 130 107 108
f 131 130 108
f 131 108 109
f 132 131 109
f 132 109 110
f 133 134 112
f 133 112 111
f 135 133 111
f 135 111 113
f 136 135 113
f 136 113 114
f 137 136 114
f 137 114 115
f 138 137 115
f 138 115 116
f 139 138 116
f 139 116 117
f 140 139 117
f 140 117 118
f 141 140 118
f 141 118 119
f 142 141 119
f 142 119 120
f 143 142 120
f 143 120 121
f 144 143 121
f 144 121 122
f 145 144 122
f 145 122 123
f 146 145 123
f 146 123 124
f 147 146 124
f 147 124 125
f 148 147 125
f 148 125 126
f 149 148 126
f 149 126 127
f 150 149 127
f 150 127 128
f 151 150 128
f 151 128 129
f 152 151 129
f 152 129 130
f 153 152 130
f 153 130 131
f 154 153 131
f 154 131 132
f 155 4 3
f 155 3 156
f 157 6 4
f 157 4 155
f 158 8 6
f 158 6 157
f 159 10 8
f 159 8 158
f 160 12 10
f 160 10 159
f 161 14 12
f 161 12 160
f 162 16 14
f 162 14 161
f 163 18 16
f 163 16 162
f 164 20 18
f 164 18 163
f 165 22 20
f 165 20 164
f 166 24 22
f 166 22 165
f 167 26 24
f 167 24 166
f 168 28 26
f 168 26 167
f 169 30 28
f 169 28 168
f 170 32 30
f 170 30 169
f 171 34 32
f 171 32 170
f 172 36 34
f 172 34 171
f 173 38 36
f 173 36 172
f 174 40 38
f 174 38 173
f 175 42 40
f 175 40 174
f 176 44 42
f 176 42 175
f 177 155 156
f 177 156 178
f 179 157 155
f 179 155 177
f 180 158 157
f 180 157 179
f 181 159 158
f 181 158 180
f 182 160 159
f 182 159 181
f 183 161 160
f 183 160 182
f 184 162 161
f 184 161 183
f 185 163 162
f 185 162 184
f 186 164 163
f 186 163 185
f 187 165 164
f 187 164 186
f 188 166 165
f 188 165 187
f 189 167 166
f 189 166 188
f 190 168 167
f 190 167 189
f 191 169 168
f 191 168 190
f 192 170 169
f 192 169 191
f 193 171 170
f 193 170 192
f 194 172 171
f 194 171 193
f 195 173 172
f 195 172 194
f 196 174 173
f 196 173 195
f 197 175 174
f 197 174 196
f 198 176 175
f 198 175 197
f 199 177 178
f 199 178 200
f 201 179 177
f 201 177 199
f 202 180 179
f 202 179 201
f 203 181 180
f 203 180 202
f 204 182 181
f 204 181 203
f 205 183 182
f 205 182 204
f 206 184 183
f 206 183 205
f 207 185 184
f 207 184 206
f 208 186 185
f 208 185 207
f 209 187 186
f 209 186 208
f 210 188 187
f 210 187 209
f 211 189 188
f 211 188 210
f 212 190 189
f 212 189 211
f 213 191 190
f 213 190 212
f 214 192 191
f 214 191 213
f 215 193 192
f 215 192 214
f 216 194 193
f 216 193 215
f 217 195 194
f 217 194 216
f 218 196 195
f 218 195 217
f 219 197 196
f 219 196 218
f 220 198 197
f 220 197 219
f 221 199 200
f 221 200 222
f 223 201 199
f 223 199 221
f 224 202 201
f 224 201 223
f 225 203 202
f 225 202 224
f 226 204 203
f 226 203 225
f 227 205 204
f 227 204 226
f 228 206 205
f 228 205 227
f 229 207 206
f 229 206 228
f 230 208 207
f 230 207 229
f 231 209 208
f 231 208 230
f 232 210 209
f 232 209 231
f 233 211 210
f 233 210 232
f 234 212 211
f 234 211 233
f 235 213 212
f 235 212 234
f 236 214 213
f 236 213 235
f 237 215 214
f 237 214 236
f 238 216 215
f 238 215 237
f 239 217 216
f 239 216 238
f 240 218 217
f 240 217 239
f 241 219 218
f 241 218 240
f 242 220 219
f 242 219 241
f 243 221 222
f 243 222 244
f 245 223 221
f 245 221 243
f 246 224 223
f 246 223 245
f 247 225 224
f 247 224 246
f 248 226 225
f 248 225 247
f 249 227 226
f 249 226 248
f 250 228 227
f 250 227 249
f 251 229 228
f 251 228 250
f 252 230 229
f 252 229 251
f 253 231 230
f 253 230 252
f 254 232 231
f 254 231 253
f 255 233 232
f 255 232 254
f 256 234 233
f 256 233 255
f 257 235 234
f 257 234 256
f 258 236 235
f 258 235 257
f 259 237 236
f 259 236 258
f 260 238 237
f 260 237 259
f 261 239 238
f 261 238 260
f 262 240 239
f 262 239 261
f 263 241 240
f 263 240 262
f 264 242 241
f 264 241 263
f 265 243 244
f 265 244 266
f 267 245 243
f 267 243 265
f 268 246 245
f 268 245 267
f 269 247 246
f 269 246 268
f 270 248 247
f 270 247 269
f 271 249 248
f 271 248 270
f 272 250 249
f 272 249 271
f 273 251 250
f 273 250 272
f 274 252 251
f 274 251 273
f 275 253 252
f 275 252 274
f 276 254 253
f 276 253 275
f 277 255 254
f 277 254 276
f 278 256 255
f 278 255 277
f 279 257 256
f 279 256 278
f 280 258 257
f 280 257 279
f 281 259 258
f 281 258 280
f 282 260 259
f 282 259 281
f 283 261 260
f 283 260 282
f 284 262 261
f 284 261 283
f 285 263 262
f 285 262 284
f 286 264 263
f 286 263 285
f 287 265 266
f 287 266 288
f 289 267 265
f 289 265 287
f 290 268 267
f 290 267 289
f 291 269 268
f 291 268 290
f 292 270 269
f 292 269 291
f 293 271 270
f 293 270 292
f 294 272 271
f 294 271 293
f 295 273 272
f 295 272 294
f 296 274 273
f 296 273 295
f 297 275 274
f 297 274 296
f 298 276 275
f 298 275 297
f 299 277 276
f 299 276 298
f 300 278 277
f 300 277 299
f 301 279 278
f 301 278 300
f 302 280 279
f 302 279 301
f 303 281 280
f 303 280 302
f 304 282 281
f 304 281 303
f 305 283 282
f 305 282 304
f 306 284 283
f 306 283 305
f 307 285 284
f 307 284 306
f 308 286 285
f 308 285 307
f 309 287 288
f 309 288 310
f 311 289 287
f 311 287 309
f 312 290 289
f 312 289 311
f 313 291 290
f 313 290 312
f 314 292 291
f 314 291 313
f 315 293 292
f 315 292 314
f 316 294 293
f 316 293 315
f 317 295 294
f 317 294 316
f 318 296 295
f 318 295 317
f 319 297 296
f 319 296 318
f 320 298 297
f 320 297 319
f 321 299 298
f 321 298 320
f 322 300 299
f 322 299 321
f 323 301 300
f 323 300 322
f 324 302 301
f 324 301 323
f 325 303 302
f 325 302 324
f 326 304 303
f 326 303 325
f 327 305 304
f 327 304 326
f 328 306 305
f 328 305 327
f 329 307 306
f 329 306 328
f 330 308 307
f 330 307 329
f 331 309 310
f 331 310 332
f 333 311 309
f 333 309 331
f 334 312 311
f 334 311 333
f 335 313 312
f 335 312 334
f 336 314 313
f 336 313 335
f 337 315 314
f 337 314 336
f 338 316 315
f 338 315 337
f 339 317 316
f 339 316 338
f 340 318 317
f 340 317 339
f 341 319 318
f 341 318 340
f 342 320 319
f 342 319 341
f 343 321 320
f 343 320 342
f 344 322 321
f 344 321 343
f 345 323 322
f 345 322 344
f 346 324 323
f 346 323 345
f 347 325 324
f 347 324 346
f 348 326 325
f 348 325 347
f 349 327 326
f 349 326 348
f 350 328 327
f 350 327 349
f 351 329 328
f 351 328 350
f 352 330 329
f 352 329 351
f 353 331 332
f 353 332 354
f 355 333 331
f 355 331 353
f 356 334 333
f 356 333 355
f 357 335 334
f 357 334 356
f 358 336 335
f 358 335 357
f 359 337 336
f 359 336 358
f 360 338 337
f 360 337 359
f 361 339 338
f 361 338 360
f 362 340 339
f 362 339 361
f 363 341 340
f 363 340 362
f 364 342 341
f 364 341 363
f 365 343 342
f 365 342 364
f 366 344 343
f 366 343 365
f 367 345 344
f 367 344 366
f 368 346 345
f 368 345 367
f 369 347 346
f 369 346 368
f 370 348 347
f 370 347 369
f 371 349 348
f 371 348 370
f 372 350 349
f 372 349 371
f 373 351 350
f 373 350 372
f 374 352 351
f 374 351 373
f 375 353 354
f 375 354 376
f 377 355 353
f 377 353 375
f 378 356 355
f 378 355 377
f 379 357 356
f 379 356 378
f 380 358 357
f 380 357 379
f 381 359 358
f 381 358 380
f 382 360 359
f 382 359 381
f 383 361 360
f 383 360 382
f 384 362 361
f 384 361 383
f 385 363 362
f 385 362 384
f 386 364 363
f 386 363 385
f 387 365 364
f 387 364 386
f 388 366 365
f 388 365 387
f 389 367 366
f 389 366 388
f 390 368 367
f 390 367 389
f 391 369 368
f 391 368 390
f 392 370 369
f 392 369 391
f 393 371 370
f 393 370 392
f 394 372 371
f 394 371 393
f 395 373 372
f 395 372 394
f 396 374 373
f 396 373 395
f 397 375 376
f 397 376 398
f 399 377 375
f 399 375 397
f 400 378 377
f 400 377 399
f 401 379 378
f 401 378 400
f 402 380 379
f 402 379 401
f 403 381 380
f 403 380 402
f 404 382 381
f 404 381 403
f 405 383 382
f 405 382 404
f 406 384 383
f 406 383 405
f 407 385 384
f 407 384 406
f 408 386 385
f 408 385 407
f 409 387 386
f 409 386 408
f 410 388 387
f 410 387 409
f 411 389 388
f 411 388 410
f 412 390 389
f 412 389 411
f 413 391 390
f 413 390 412
f 414 392 391
f 414 391 413
f 415 393 392
f 415 392 414
f 416 394 393
f 416 393 415
f 417 395 394
f 417 394 416
f 418 396 395
f 418 395 417
f 421 420 419
f 422 421 419
f 422 419 423
f 424 422 423
f 424 423 425
f 426 424 425
f 426 425 427
f 428 426 427
f 428 427 429
f 430 428 429
f 430 429 431
f 432 430 431
f 432 431 433
f 434 432 433
f 434 433 435
f 436 434 435
f 436 435 437
f 438 436 437
f 438 437 439
f 440 438 439
f 440 439 441
f 442 440 441
f 442 441 443
f 444 442 443
f 444 443 445
f 446 444 445
f 446 445 447
f 448 446 447
f 448 447 449
f 450 448 449
f 450 449 451
f 452 450 451
f 452 451 453
f 454 452 453
f 454 453 455
f 456 454 455
f 456 455 457
f 458 456 457
f 458 457 459
f 460 458 459
f 460 459 461
f 462 460 461
f 420 464 463
f 419 420 463
f 419 463 465
f 423 419 465
f 423 465 466
f 425 423 466
f 425 466 467
f 427 425 467
f 427 467 468
f 429 427 468
f 429 468 469
f 431 429 469
f 431 469 470
f 433 431 470
f 433 470 471
f 435 433 471
f 435 471 472
f 437 435 472
f 437 472 473
f 439 437 473
f 439 473 474
f 441 439 474
f 441 474 475
f 443 441 475
f 443 475 476
f 445 443 476
f 445 476 477
f 447 445 477
f 447 477 478
f 449 447 478
f 449 478 479
f 451 449 479
f 451 479 480
f 453 451 480
f 453 480 481
f 455 453 481
f 455 481 482
f 457 455 482
f 457 482 483
f 459 457 483
f 459 483 484
f 461 459 484
f 464 486 485
f 463 464 485
f 463 485 487
f 465 463 487
f 465 487 488
f 466 465 488
f 466 488 489
f 467 466 489
f 467 489 490
f 468 467 490
f 468 490 491
f 469 468 491
f 469 491 492
f 470 469 492
f 470 492 493
f 471 470 493
f 471 493 494
f 472 471 494
f 472 494 495
f 473 472 495
f 473 495 496
f 474 473 496
f 474 496 497
f 475 474 497
f 475 497 498
f 476 475 498
f 476 498 499
f 477 476 499
f 477 499 500
f 478 477 500
f 478 500 501
f 479 478 501
f 479 501 502
f 480 479 502
f 480 502 503
f 481 480 503
f 481 503 504
f 482 481 504
f 482 504 505
f 483 482 505
f 483 505 506
f 484 483 506
f 486 508 507
f 485 486 507
f 485 507 509
f 487 485 509
f 487 509 510
f 488 487 510
f 488 510 511
f 489 488 511
f 489 511 512
f 490 489 512
f 490 512 513
f 491 490 513
f 491 513 514
f 492 491 514
f 492 514 515
f 493 492 515
f 493 515 516
f 494 493 516
f 494 516 517
f 495 494 517
f 495 517 518
f 496 495 518
f 496 518 519
f 497 496 519
f 497 519 520
f 498 497 520
f 498 520 521
f 499 498 521
f 499 521 522
f 500 499 522
f 500 522 523
f 501 500 523
f 501 523 524
f 502 501 524
f 502 524 525
f 503 502 525
f 503 525 526
f 504 503 526
f 504 526 527
f 505 504 527
f 505 527 528
f 506 505 528
f 508 530 529
f 507 508 529
f 507 529 531
f 509 507 531
f 509 531 532
f 510 509 532
f 510 532 533
f 511 510 533
f 511 533 534
f 512 511 534
f 512 534 535
f 513 512 535
f 513 535 536
f 514 513 536
f 514 536 537
f 515 514 537
f 515 537 538
f 516 515 538
f 516 538 539
f 517 516 539
f 517 539 540
f 518 517 540
f 518 540 541
f 519 518 541
f 519 541 542
f 520 519 542
f 520 542 543
f 521 520 543
f 521 543 544
f 522 521 544
f 522 544 545
f 523 522 545
f 523 545 546
f 524 523 546
f 524 546 547
f 525 524 547
f 525 547 548
f 526 525 548
f 526 548 549
f 527 526 549
f 527 549 550
f 528 527 550
f 530 134 133
f 529 530 133
f 529 133 135
f 531 529 135
f 531 135 136
f 532 531 136
f 532 136 137
f 533 532 137
f 533 137 138
f 534 533 138
f 534 138 139
f 535 534 139
f 535 139 140
f 536 535 140
f 536 140 141
f 537 536 141
f 537 141 142
f 538 537 142
f 538 142 143
f 539 538 143
f 539 143 144
f 540 539 144
f 540 144 145
f 541 540 145
f 541 145 146
f 542 541 146
f 542 146 147
f 543 542 147
f 543 147 148
f 544 543 148
f 544 148 149
f 545 544 149
f 545 149 150
f 546 545 150
f 546 150 151
f 547 546 151
f 547 151 152
f 548 547 152
f 548 152 153
f 549 548 153
f 549 153 154
f 550 549 154
f 421 422 551
f 552 421 551
f 422 424 553
f 551 422 553
f 424 426 554
f 553 424 554
f 426 428 555
f 554 426 555
f 428 430 556
f 555 428 556
f 430 432 557
f 556 430 557
f 432 434 558
f 557 432 558
f 434 436 559
f 558 434 559
f 436 438 560
f 559 436 560
f 438 440 561
f 560 438 561
f 440 442 562
f 561 440 562
f 442 444 563
f 562 442 563
f 444 446 564
f 563 444 564
f 446 448 565
f 564 446 565
f 448 450 566
f 565 448 566
f 450 452 567
f 566 450 567
f 452 454 568
f 567 452 568
f 454 456 569
f 568 454 569
f 456 458 570
f 569 456 570
f 458 460 571
f 570 458 571
f 460 462 572
f 571 460 572
f 552 551 573
f 574 552 573
f 551 553 575
f 573 551 575
f 553 554 576
f 575 553 576
f 554 555 577
f 576 554 577
f 555 556 578
f 577 555 578
f 556 557 579
f 578 556 579
f 557 558 580
f 579 557 580
f 558 559 581
f 580 558 581
f 559 560 582
f 581 559 582
f 560 561 583
f 582 560 583
f 561 562 584
f 583 561 584
f 562 563 585
f 584 562 585
f 563 564 586
f 585 563 586
f 564 565 587
f 586 564 587
f 565 566 588
f 587 565 588
f 566 567 589
f 588 566 589
f 567 568 590
f 589 567 590
f 568 569 591
f 590 568 591
f 569 570 592
f 591 569 592
f 570 571 593
f 592 570 593
f 571 572 594
f 593 571 594
f 574 573 595
f 596 574 595
f 573 575 597
f 595 573 597
f 575 576 598
f 597 575 598
f 576 577 599
f 598 576 599
f 577 578 600
f 599 577 600
f 578 579 601
f 600 578 601
f 579 580 602
f 601 579 602
f 580 581 603
f 602 580 603
f 581 582 604
f 603 581 604
f 582 583 605
f 604 582 605
f 583 584 606
f 605 583 606
f 584 585 607
f 606 584 607
f 585 586 608
f 607 585 608
f 586 587 609
f 608 586 609
f 587 588 610
f 609 587 610
f 588 589 611
f 610 588 611
f 589 590 612
f 611 589 612
f 590 591 613
f 612 590 613
f 591 592 614
f 613 591 614
f 592 593 615
f 614 592 615
f 593 594 616
f 615 593 616
f 596 595 617
f 618 596 617
f 595 597 619
f 617 595 619
f 597 598 620
f 619 597 620
f 598 599 621
f 620 598 621
f 599 600 622
f 621 599 622
f 600 601 623
f 622 600 623
f 601 602 624
f 623 601 624
f 602 603 625
f 624 602 625
f 603 604 626
f 625 603 626
f 604 605 627
f 626 604 627
f 605 606 628
f 627 605 628
f 606 607 629
f 628 606 629
f 607 608 630
f 629 607 630
f 608 609 631
f 630 608 631
f 609 610 632
f 631 609 632
f 610 611 633
f 632 610 633
f 611 612 634
f 633 611 634
f 612 613 635
f 634 612 635
f 613 614 636
f 635 613 636
f 614 615 637
f 636 614 637
f 615 616 638
f 637 615 638
f 618 617 639
f 640 618 639
f 617 619 641
f 639 617 641
f 619 620 642
f 641 619 642
f 620 621 643
f 642 620 643
f 621 622 644
f 643 621 644
f 622 623 645
f 644 622 645
f 623 624 646
f 645 623 646
f 624 625 647
f 646 624 647
f 625 626 648
f 647 625 648
f 626 627 649
f 648 626 649
f 627 628 650
f 649 627 650
f 628 629 651
f 650 628 651
f 629 630 652
f 651 629 652
f 630 631 653
f 652 630 653
f 631 632 654
f 653 631 654
f 632 633 655
f 654 632 655
f 633 634 656
f 655 633 656
f 634 635 657
f 656 634 657
f 635 636 658
f 657 635 658
f 636 637 659
f 658 636 659
f 637 638 660
f 659 637 660
f 640 639 661
f 662 640 661
f 639 641 663
f 661 639 663
f 641 642 664
f 663 641 664
f 642 643 665
f 664 642 665
f 643 644 666
f 665 643 666
f 644 645 667
f 666 644 667
f 645 646 668
f 667 645 668
f 646 647 669
f 668 646 669
f 647 648 670
f 669 647 670
f 648 649 671
f 670 648 671
f 649 650 672
f 671 649 672
f 650 651 673
f 672 650 673
f 651 652 674
f 673 651 674
f 652 653 675
f 674 652 675
f 653 654 676
f 675 653 676
f 654 655 677
f 676 654 677
f 655 656 678
f 677 655 678
f 656 657 679
f 678 656 679
f 657 658 680
f 679 657 680
f 658 659 681
f 680 658 681
f 659 660 682
f 681 659 682
f 662 661 683
f 684 662 683
f 661 663 685
f 683 661 685
f 663 664 686
f 685 663 686
f 664 665 687
f 686 664 687
f 665 666 688
f 687 665 688
f 666 667 689
f 688 666 689
f 667 668 690
f 689 667 690
f 668 669 691
f 690 668 691
f 669 670 692
f 691 669 692
f 670 671 693
f 692 670 693
f 671 672 694
f 693 671 694
f 672 673 695
f 694 672 695
f 673 674 696
f 695 673 696
f 674 675 697
f 696 674 697
f 675 676 698
f 697 675 698
f 676 677 699
f 698 676 699
f 677 678 700
f 699 677 700
f 678 679 701
f 700 678 701
f 679 680 702
f 701 679 702
f 680 681 703
f 702 680 703
f 681 682 704
f 703 681 704
f 684 683 705
f 706 684 705
f 683 685 707
f 705 683 707
f 685 686 708
f 707 685 708
f 686 687 709
f 708 686 709
f 687 688 710
f 709 687 710
f 688 689 711
f 710 688 711
f 689 690 712
f 711 689 712
f 690 691 713
f 712 690 713
f 691 692 714
f 713 691 714
f 692 693 715
f 714 692 715
f 693 694 716
f 715 693 716
f 694 695 717
f 716 694 717
f 695 696 718
f 717 695 718
f 696 697 719
f 718 696 719
f 697 698 720
f 719 697 720
f 698 699 721
f 720 698 721
f 699 700 722
f 721 699 722
f 700 701 723
f 722 700 723
f 701 702 724
f 723 701 724
f 702 703 725
f 724 702 725
f 703 704 726
f 725 703 726
f 706 705 727
f 728 706 727
f 705 707 729
f 727 705 729
f 707 708 730
f 729 707 730
f 708 709 731
f 730 708 731
f 709 710 732
f 731 709 732
f 710 711 733
f 732 710 733
f 711 712 734
f 733 711 734
f 712 713 735
f 734 712 735
f 713 714 736
f 735 713 736
f 714 715 737
f 736 714 737
f 715 716 738
f 737 715 738
f 716 717 739
f 738 716 739
f 717 718 740
f 739 717 740
f 718 719 741
f 740 718 741
f 719 720 742
f 741 719 742
f 720 721 743
f 742 720 743
f 721 722 744
f 743 721 744
f 722 723 745
f 744 722 745
f 723 724 746
f 745 723 746
f 724 725 747
f 746 724 747
f 725 726 748
f 747 725 748
f 728 727 749
f 750 728 749
f 727 729 751
f 749 727 751
f 729 730 752
f 751 729 752
f 730 731 753
f 752 730 753
f 731 732 754
f 753 731 754
f 732 733 755
f 754 732 755
f 733 734 756
f 755 733 756
f 734 735 757
f 756 734 757
f 735 736 758
f 757 735 758
f 736 737 759
f 758 736 759
f 737 738 760
f 759 737 760
f 738 739 761
f 760 738 761
f 739 740 762
f 761 739 762
f 740 741 763
f 762 740 763
f 741 742 764
f 763 741 764
f 742 743 765
f 764 742 765
f 743 744 766
f 765 743 766
f 744 745 767
f 766 744 767
f 745 746 768
f 767 745 768
f 746 747 769
f 768 746 769
f 747 748 770
f 769 747 770
f 750 749 771
f 772 750 771
f 749 751 773
f 771 749 773
f 751 752 774
f 773 751 774
f 752 753 775
f 774 752 775
f 753 754 776
f 775 753 776
f 754 755 777
f 776 754 777
f 755 756 778
f 777 755 778
f 756 757 779
f 778 756 779
f 757 758 780
f 779 757 780
f 758 759 781
f 780 758 781
f 759 760 782
f 781 759 782
f 760 761 783
f 782 760 783
f 761 762 784
f 783 761 784
f 762 763 785
f 784 762 785
f 763 764 786
f 785 763 786
f 764 765 787
f 786 764 787
f 765 766 788
f 787 765 788
f 766 767 789
f 788 766 789
f 767 768 790
f 789 767 790
f 768 769 791
f 790 768 791
f 769 770 792
f 791 769 792
f 772 771 397
f 398 772 397
f 771 773 399
f 397 771 399
f 773 774 400
f 399 773 400
f 774 775 401
f 400 774 401
f 775 776 402
f 401 775 402
f 776 777 403
f 402 776 403
f 777 778 404
f 403 777 404
f 778 779 405
f 404 778 405
f 779 780 406
f 405 779 406
f 780 781 407
f 406 780 407
f 781 782 408
f 407 781 408
f 782 783 409
f 408 782 409
f 783 784 410
f 409 783 410
f 784 785 411
f 410 784 411
f 785 786 412
f 411 785 412
f 786 787 413
f 412 786 413
f 787 788 414
f 413 787 414
f 788 789 415
f 414 788 415
f 789 790 416
f 415 789 416
f 790 791 417
f 416 790 417
f 791 792 418
f 417 791 418
