<svg xmlns="http://www.w3.org/2000/svg" xmlns:xlink="http://www.w3.org/1999/xlink" contentStyleType="text/css" height="442px" preserveAspectRatio="none" style="width:468px;height:442px;background:#FFFFFF;" version="1.1" viewBox="0 0 468 442" width="468px" zoomAndPan="magnify"><defs/><g><rect fill="#FF6347" height="27.6094" id="_title" rx="7.5" ry="7.5" style="stroke:#FF0000;stroke-width:2.0;" width="129.0342" x="168.1689" y="15"/><text fill="#000000" font-family="sans-serif" font-size="14" font-weight="bold" lengthAdjust="spacing" textLength="119.0342" x="173.1689" y="34.5332">BSEE Data Status</text><ellipse cx="88.6943" cy="58.6094" fill="#222222" rx="10" ry="10" style="stroke:#222222;stroke-width:1.0;"/><rect fill="none" height="284.7109" style="stroke:#000000;stroke-width:1.5;" width="446.3721" x="11" y="78.6094"/><path d="M24.8896,78.6094 L24.8896,89.2188 L14.8896,99.2188 L11,99.2188 " fill="none" style="stroke:#000000;stroke-width:1.5;"/><text fill="#000000" font-family="sans-serif" font-size="14" lengthAdjust="spacing" textLength="3.8896" x="14" y="94.1426">&#160;</text><path d="M144.7012,109.2188 L144.7012,134.7461 L124.7012,138.7461 L144.7012,142.7461 L144.7012,168.2734 A0,0 0 0 0 144.7012,168.2734 L380.3154,168.2734 A0,0 0 0 0 380.3154,168.2734 L380.3154,119.2188 L370.3154,109.2188 L144.7012,109.2188 A0,0 0 0 0 144.7012,109.2188 " fill="#FEFFDD" style="stroke:#181818;stroke-width:0.5;"/><path d="M370.3154,109.2188 L370.3154,119.2188 L380.3154,119.2188 L370.3154,109.2188 " fill="#FEFFDD" style="stroke:#181818;stroke-width:0.5;"/><text fill="#000000" font-family="sans-serif" font-size="13" lengthAdjust="spacing" textLength="83.0972" x="150.7012" y="127.7139">by url &amp; API12</text><text fill="#000000" font-family="sans-serif" font-size="13" lengthAdjust="spacing" textLength="214.6143" x="150.7012" y="144.0654">by url &amp; block area and block number</text><text fill="#000000" font-family="sans-serif" font-size="13" lengthAdjust="spacing" textLength="181.3271" x="150.7012" y="160.417">by zipfile, All Data (APD , APM)</text><rect fill="#F1F1F1" height="35.0938" rx="12.5" ry="12.5" style="stroke:#181818;stroke-width:0.5;" width="72.0137" x="52.6875" y="121.1992"/><text fill="#000000" font-family="sans-serif" font-size="12" lengthAdjust="spacing" textLength="52.0137" x="62.6875" y="143.6563">Well Data</text><path d="M160.0586,178.2734 L160.0586,203.8008 L140.0586,207.8008 L160.0586,211.8008 L160.0586,237.3281 A0,0 0 0 0 160.0586,237.3281 L431.042,237.3281 A0,0 0 0 0 431.042,237.3281 L431.042,188.2734 L421.042,178.2734 L160.0586,178.2734 A0,0 0 0 0 160.0586,178.2734 " fill="#FEFFDD" style="stroke:#181818;stroke-width:0.5;"/><path d="M421.042,178.2734 L421.042,188.2734 L431.042,188.2734 L421.042,178.2734 " fill="#FEFFDD" style="stroke:#181818;stroke-width:0.5;"/><text fill="#000000" font-family="sans-serif" font-size="13" lengthAdjust="spacing" textLength="132.9517" x="166.0586" y="196.7686">by url &amp; Lease Number</text><text fill="#000000" font-family="sans-serif" font-size="13" lengthAdjust="spacing" textLength="112.7344" x="166.0586" y="213.1201">by API12 (Pending)</text><text fill="#000000" font-family="sans-serif" font-size="13" lengthAdjust="spacing" textLength="249.9834" x="166.0586" y="229.4717">by zipfile, All Data (Data Verification ONLY)</text><rect fill="#F1F1F1" height="35.0938" rx="12.5" ry="12.5" style="stroke:#181818;stroke-width:0.5;" width="102.7285" x="37.3301" y="190.2539"/><text fill="#000000" font-family="sans-serif" font-size="12" lengthAdjust="spacing" textLength="82.7285" x="47.3301" y="212.7109">production data</text><path d="M147.042,253.5234 L147.042,270.875 L127.042,274.875 L147.042,278.875 L147.042,296.2266 A0,0 0 0 0 147.042,296.2266 L418.0254,296.2266 A0,0 0 0 0 418.0254,296.2266 L418.0254,263.5234 L408.0254,253.5234 L147.042,253.5234 A0,0 0 0 0 147.042,253.5234 " fill="#FEFFDD" style="stroke:#181818;stroke-width:0.5;"/><path d="M408.0254,253.5234 L408.0254,263.5234 L418.0254,263.5234 L408.0254,253.5234 " fill="#FEFFDD" style="stroke:#181818;stroke-width:0.5;"/><text fill="#000000" font-family="sans-serif" font-size="13" lengthAdjust="spacing" textLength="83.0972" x="153.042" y="272.0186">by url &amp; API12</text><text fill="#000000" font-family="sans-serif" font-size="13" lengthAdjust="spacing" textLength="249.9834" x="153.042" y="288.3701">by zipfile, All Data (Data Verification ONLY)</text><rect fill="#F1F1F1" height="35.0938" rx="12.5" ry="12.5" style="stroke:#181818;stroke-width:0.5;" width="76.6953" x="50.3467" y="257.3281"/><text fill="#000000" font-family="sans-serif" font-size="12" lengthAdjust="spacing" textLength="53.3613" x="63.6807" y="279.7852">Bore Hole</text><path d="M176.3887,320.5977 L176.3887,329.7734 L156.3887,333.7734 L176.3887,337.7734 L176.3887,346.9492 A0,0 0 0 0 176.3887,346.9492 L447.3721,346.9492 A0,0 0 0 0 447.3721,346.9492 L447.3721,330.5977 L437.3721,320.5977 L176.3887,320.5977 A0,0 0 0 0 176.3887,320.5977 " fill="#FEFFDD" style="stroke:#181818;stroke-width:0.5;"/><path d="M437.3721,320.5977 L437.3721,330.5977 L447.3721,330.5977 L437.3721,320.5977 " fill="#FEFFDD" style="stroke:#181818;stroke-width:0.5;"/><text fill="#000000" font-family="sans-serif" font-size="13" lengthAdjust="spacing" textLength="249.9834" x="182.3887" y="339.0928">by zipfile, All Data (Data Verification ONLY)</text><rect fill="#F1F1F1" height="35.0938" rx="12.5" ry="12.5" style="stroke:#181818;stroke-width:0.5;" width="135.3887" x="21" y="316.2266"/><text fill="#000000" font-family="sans-serif" font-size="12" lengthAdjust="spacing" textLength="112.0547" x="34.334" y="338.6836">Bottomhole Pressure</text><ellipse cx="88.6943" cy="394.3203" fill="none" rx="11" ry="11" style="stroke:#222222;stroke-width:1.0;"/><ellipse cx="88.6943" cy="394.3203" fill="#222222" rx="6" ry="6" style="stroke:#222222;stroke-width:1.0;"/><line style="stroke:#181818;stroke-width:1.0;" x1="88.6943" x2="88.6943" y1="156.293" y2="190.2539"/><polygon fill="#181818" points="84.6943,180.2539,88.6943,190.2539,92.6943,180.2539,88.6943,184.2539" style="stroke:#181818;stroke-width:1.0;"/><line style="stroke:#181818;stroke-width:1.0;" x1="88.6943" x2="88.6943" y1="225.3477" y2="257.3281"/><polygon fill="#181818" points="84.6943,247.3281,88.6943,257.3281,92.6943,247.3281,88.6943,251.3281" style="stroke:#181818;stroke-width:1.0;"/><line style="stroke:#181818;stroke-width:1.0;" x1="88.6943" x2="88.6943" y1="292.4219" y2="316.2266"/><polygon fill="#181818" points="84.6943,306.2266,88.6943,316.2266,92.6943,306.2266,88.6943,310.2266" style="stroke:#181818;stroke-width:1.0;"/><line style="stroke:#181818;stroke-width:1.0;" x1="88.6943" x2="88.6943" y1="68.6094" y2="121.1992"/><polygon fill="#181818" points="84.6943,111.1992,88.6943,121.1992,92.6943,111.1992,88.6943,115.1992" style="stroke:#181818;stroke-width:1.0;"/><line style="stroke:#181818;stroke-width:1.0;" x1="88.6943" x2="88.6943" y1="351.3203" y2="383.3203"/><polygon fill="#181818" points="84.6943,373.3203,88.6943,383.3203,92.6943,373.3203,88.6943,377.3203" style="stroke:#181818;stroke-width:1.0;"/><text fill="#888888" font-family="sans-serif" font-size="10" lengthAdjust="spacing" textLength="88.9697" x="188.2012" y="414.7012">2024.11.14 at 10:27</text><text fill="#888888" font-family="sans-serif" font-size="10" lengthAdjust="spacing" textLength="103.4033" x="180.9844" y="427.2793">bsee_data_status.puml</text><!--SRC=[hL9DQm8n4BtdLmo2THUAeD2BFVa55jGkLLfw73UZXiqcospsO4l_UvDLYbAb7_WEWRpvUe-PCbEcGCOSd7AQ1fObyPEjZ1nQDiJGkHFbkPpbLgMPeRA4xlc4eTMMWKb-2sEQRNW_8gGiROxE2b47OR0OZs643c7Xq5Kb254wP2S4UFWsFarP0-zx8g3tGbhNDVTVN82nZe3LPkjEw83L3YhMS0FzvA7JlHnUQPjcW4m8QEJXQwfyHNokw4qLQwNf5le7GH3ran7uVpABJmh8TmlwZbmKR6MLrkRalxnC2Kk2-KLrjLU84ZzRcKqCltHGly_4QgrIhEKzpgUlFze1VmO44wlfYbkvgZpdRBxr-Y1XVySL_qdeLPHyXEEsXH1hwpaMJRzuYXexZ_PirfQo1UYWDPdqyhmHYsQOQ32dA1QXqQ7g4m00]--></g></svg>