# Converted from GDF: L03 Centre column.gdf
# gdf created by Python script
# Vertices: 337
# Faces: 672

o gdf_created_by_Python_script

v 3.250000 0.000000 -20.000000
v 2.928149 1.410122 -20.000000
v 2.928149 1.410122 -18.505398
v 3.250000 0.000000 -18.505398
v 2.026342 2.540952 -20.000000
v 2.026342 2.540952 -18.505398
v 0.723193 3.168516 -20.000000
v 0.723193 3.168516 -18.505398
v -0.723193 3.168516 -20.000000
v -0.723193 3.168516 -18.505398
v -2.026342 2.540952 -20.000000
v -2.026342 2.540952 -18.505398
v -2.928149 1.410122 -20.000000
v -2.928149 1.410122 -18.505398
v -3.250000 0.000000 -20.000000
v -3.250000 0.000000 -18.505398
v -2.928149 -1.410122 -20.000000
v -2.928149 -1.410122 -18.505398
v -2.026342 -2.540952 -20.000000
v -2.026342 -2.540952 -18.505398
v -0.723193 -3.168516 -20.000000
v -0.723193 -3.168516 -18.505398
v 0.723193 -3.168516 -20.000000
v 0.723193 -3.168516 -18.505398
v 2.026342 -2.540952 -20.000000
v 2.026342 -2.540952 -18.505398
v 2.928149 -1.410122 -20.000000
v 2.928149 -1.410122 -18.505398
v 2.928149 1.410122 -17.019155
v 3.250000 0.000000 -17.019155
v 2.026342 2.540952 -17.019155
v 0.723193 3.168516 -17.019155
v -0.723193 3.168516 -17.019155
v -2.026342 2.540952 -17.019155
v -2.928149 1.410122 -17.019155
v -3.250000 0.000000 -17.019155
v -2.928149 -1.410122 -17.019155
v -2.026342 -2.540952 -17.019155
v -0.723193 -3.168516 -17.019155
v 0.723193 -3.168516 -17.019155
v 2.026342 -2.540952 -17.019155
v 2.928149 -1.410122 -17.019155
v 2.928149 1.410122 -15.549581
v 3.250000 0.000000 -15.549581
v 2.026342 2.540952 -15.549581
v 0.723193 3.168516 -15.549581
v -0.723193 3.168516 -15.549581
v -2.026342 2.540952 -15.549581
v -2.928149 1.410122 -15.549581
v -3.250000 0.000000 -15.549581
v -2.928149 -1.410122 -15.549581
v -2.026342 -2.540952 -15.549581
v -0.723193 -3.168516 -15.549581
v 0.723193 -3.168516 -15.549581
v 2.026342 -2.540952 -15.549581
v 2.928149 -1.410122 -15.549581
v 2.928149 1.410122 -14.104897
v 3.250000 0.000000 -14.104897
v 2.026342 2.540952 -14.104897
v 0.723193 3.168516 -14.104897
v -0.723193 3.168516 -14.104897
v -2.026342 2.540952 -14.104897
v -2.928149 1.410122 -14.104897
v -3.250000 0.000000 -14.104897
v -2.928149 -1.410122 -14.104897
v -2.026342 -2.540952 -14.104897
v -0.723193 -3.168516 -14.104897
v 0.723193 -3.168516 -14.104897
v 2.026342 -2.540952 -14.104897
v 2.928149 -1.410122 -14.104897
v 2.928149 1.410122 -12.693180
v 3.250000 0.000000 -12.693180
v 2.026342 2.540952 -12.693180
v 0.723193 3.168516 -12.693180
v -0.723193 3.168516 -12.693180
v -2.026342 2.540952 -12.693180
v -2.928149 1.410122 -12.693180
v -3.250000 0.000000 -12.693180
v -2.928149 -1.410122 -12.693180
v -2.026342 -2.540952 -12.693180
v -0.723193 -3.168516 -12.693180
v 0.723193 -3.168516 -12.693180
v 2.026342 -2.540952 -12.693180
v 2.928149 -1.410122 -12.693180
v 2.928149 1.410122 -11.322325
v 3.250000 0.000000 -11.322325
v 2.026342 2.540952 -11.322325
v 0.723193 3.168516 -11.322325
v -0.723193 3.168516 -11.322325
v -2.026342 2.540952 -11.322325
v -2.928149 1.410122 -11.322325
v -3.250000 0.000000 -11.322325
v -2.928149 -1.410122 -11.322325
v -2.026342 -2.540952 -11.322325
v -0.723193 -3.168516 -11.322325
v 0.723193 -3.168516 -11.322325
v 2.026342 -2.540952 -11.322325
v 2.928149 -1.410122 -11.322325
v 2.928149 1.410122 -10.000000
v 3.250000 0.000000 -10.000000
v 2.026342 2.540952 -10.000000
v 0.723193 3.168516 -10.000000
v -0.723193 3.168516 -10.000000
v -2.026342 2.540952 -10.000000
v -2.928149 1.410122 -10.000000
v -3.250000 0.000000 -10.000000
v -2.928149 -1.410122 -10.000000
v -2.026342 -2.540952 -10.000000
v -0.723193 -3.168516 -10.000000
v 0.723193 -3.168516 -10.000000
v 2.026342 -2.540952 -10.000000
v 2.928149 -1.410122 -10.000000
v 2.928149 1.410122 -8.733599
v 3.250000 0.000000 -8.733599
v 2.026342 2.540952 -8.733599
v 0.723193 3.168516 -8.733599
v -0.723193 3.168516 -8.733599
v -2.026342 2.540952 -8.733599
v -2.928149 1.410122 -8.733599
v -3.250000 0.000000 -8.733599
v -2.928149 -1.410122 -8.733599
v -2.026342 -2.540952 -8.733599
v -0.723193 -3.168516 -8.733599
v 0.723193 -3.168516 -8.733599
v 2.026342 -2.540952 -8.733599
v 2.928149 -1.410122 -8.733599
v 2.928149 1.410122 -7.530204
v 3.250000 0.000000 -7.530204
v 2.026342 2.540952 -7.530204
v 0.723193 3.168516 -7.530204
v -0.723193 3.168516 -7.530204
v -2.026342 2.540952 -7.530204
v -2.928149 1.410122 -7.530204
v -3.250000 0.000000 -7.530204
v -2.928149 -1.410122 -7.530204
v -2.026342 -2.540952 -7.530204
v -0.723193 -3.168516 -7.530204
v 0.723193 -3.168516 -7.530204
v 2.026342 -2.540952 -7.530204
v 2.928149 -1.410122 -7.530204
v 2.928149 1.410122 -6.396545
v 3.250000 0.000000 -6.396545
v 2.026342 2.540952 -6.396545
v 0.723193 3.168516 -6.396545
v -0.723193 3.168516 -6.396545
v -2.026342 2.540952 -6.396545
v -2.928149 1.410122 -6.396545
v -3.250000 0.000000 -6.396545
v -2.928149 -1.410122 -6.396545
v -2.026342 -2.540952 -6.396545
v -0.723193 -3.168516 -6.396545
v 0.723193 -3.168516 -6.396545
v 2.026342 -2.540952 -6.396545
v 2.928149 -1.410122 -6.396545
v 2.928149 1.410122 -5.338963
v 3.250000 0.000000 -5.338963
v 2.026342 2.540952 -5.338963
v 0.723193 3.168516 -5.338963
v -0.723193 3.168516 -5.338963
v -2.026342 2.540952 -5.338963
v -2.928149 1.410122 -5.338963
v -3.250000 0.000000 -5.338963
v -2.928149 -1.410122 -5.338963
v -2.026342 -2.540952 -5.338963
v -0.723193 -3.168516 -5.338963
v 0.723193 -3.168516 -5.338963
v 2.026342 -2.540952 -5.338963
v 2.928149 -1.410122 -5.338963
v 2.928149 1.410122 -4.363370
v 3.250000 0.000000 -4.363370
v 2.026342 2.540952 -4.363370
v 0.723193 3.168516 -4.363370
v -0.723193 3.168516 -4.363370
v -2.026342 2.540952 -4.363370
v -2.928149 1.410122 -4.363370
v -3.250000 0.000000 -4.363370
v -2.928149 -1.410122 -4.363370
v -2.026342 -2.540952 -4.363370
v -0.723193 -3.168516 -4.363370
v 0.723193 -3.168516 -4.363370
v 2.026342 -2.540952 -4.363370
v 2.928149 -1.410122 -4.363370
v 2.928149 1.410122 -3.475225
v 3.250000 0.000000 -3.475225
v 2.026342 2.540952 -3.475225
v 0.723193 3.168516 -3.475225
v -0.723193 3.168516 -3.475225
v -2.026342 2.540952 -3.475225
v -2.928149 1.410122 -3.475225
v -3.250000 0.000000 -3.475225
v -2.928149 -1.410122 -3.475225
v -2.026342 -2.540952 -3.475225
v -0.723193 -3.168516 -3.475225
v 0.723193 -3.168516 -3.475225
v 2.026342 -2.540952 -3.475225
v 2.928149 -1.410122 -3.475225
v 2.928149 1.410122 -2.679492
v 3.250000 0.000000 -2.679492
v 2.026342 2.540952 -2.679492
v 0.723193 3.168516 -2.679492
v -0.723193 3.168516 -2.679492
v -2.026342 2.540952 -2.679492
v -2.928149 1.410122 -2.679492
v -3.250000 0.000000 -2.679492
v -2.928149 -1.410122 -2.679492
v -2.026342 -2.540952 -2.679492
v -0.723193 -3.168516 -2.679492
v 0.723193 -3.168516 -2.679492
v 2.026342 -2.540952 -2.679492
v 2.928149 -1.410122 -2.679492
v 2.928149 1.410122 -1.980623
v 3.250000 0.000000 -1.980623
v 2.026342 2.540952 -1.980623
v 0.723193 3.168516 -1.980623
v -0.723193 3.168516 -1.980623
v -2.026342 2.540952 -1.980623
v -2.928149 1.410122 -1.980623
v -3.250000 0.000000 -1.980623
v -2.928149 -1.410122 -1.980623
v -2.026342 -2.540952 -1.980623
v -0.723193 -3.168516 -1.980623
v 0.723193 -3.168516 -1.980623
v 2.026342 -2.540952 -1.980623
v 2.928149 -1.410122 -1.980623
v 2.928149 1.410122 -1.382525
v 3.250000 0.000000 -1.382525
v 2.026342 2.540952 -1.382525
v 0.723193 3.168516 -1.382525
v -0.723193 3.168516 -1.382525
v -2.026342 2.540952 -1.382525
v -2.928149 1.410122 -1.382525
v -3.250000 0.000000 -1.382525
v -2.928149 -1.410122 -1.382525
v -2.026342 -2.540952 -1.382525
v -0.723193 -3.168516 -1.382525
v 0.723193 -3.168516 -1.382525
v 2.026342 -2.540952 -1.382525
v 2.928149 -1.410122 -1.382525
v 2.928149 1.410122 -0.888544
v 3.250000 0.000000 -0.888544
v 2.026342 2.540952 -0.888544
v 0.723193 3.168516 -0.888544
v -0.723193 3.168516 -0.888544
v -2.026342 2.540952 -0.888544
v -2.928149 1.410122 -0.888544
v -3.250000 0.000000 -0.888544
v -2.928149 -1.410122 -0.888544
v -2.026342 -2.540952 -0.888544
v -0.723193 -3.168516 -0.888544
v 0.723193 -3.168516 -0.888544
v 2.026342 -2.540952 -0.888544
v 2.928149 -1.410122 -0.888544
v 2.928149 1.410122 -0.501442
v 3.250000 0.000000 -0.501442
v 2.026342 2.540952 -0.501442
v 0.723193 3.168516 -0.501442
v -0.723193 3.168516 -0.501442
v -2.026342 2.540952 -0.501442
v -2.928149 1.410122 -0.501442
v -3.250000 0.000000 -0.501442
v -2.928149 -1.410122 -0.501442
v -2.026342 -2.540952 -0.501442
v -0.723193 -3.168516 -0.501442
v 0.723193 -3.168516 -0.501442
v 2.026342 -2.540952 -0.501442
v 2.928149 -1.410122 -0.501442
v 2.928149 1.410122 -0.223383
v 3.250000 0.000000 -0.223383
v 2.026342 2.540952 -0.223383
v 0.723193 3.168516 -0.223383
v -0.723193 3.168516 -0.223383
v -2.026342 2.540952 -0.223383
v -2.928149 1.410122 -0.223383
v -3.250000 0.000000 -0.223383
v -2.928149 -1.410122 -0.223383
v -2.026342 -2.540952 -0.223383
v -0.723193 -3.168516 -0.223383
v 0.723193 -3.168516 -0.223383
v 2.026342 -2.540952 -0.223383
v 2.928149 -1.410122 -0.223383
v 2.928149 1.410122 -0.055924
v 3.250000 0.000000 -0.055924
v 2.026342 2.540952 -0.055924
v 0.723193 3.168516 -0.055924
v -0.723193 3.168516 -0.055924
v -2.026342 2.540952 -0.055924
v -2.928149 1.410122 -0.055924
v -3.250000 0.000000 -0.055924
v -2.928149 -1.410122 -0.055924
v -2.026342 -2.540952 -0.055924
v -0.723193 -3.168516 -0.055924
v 0.723193 -3.168516 -0.055924
v 2.026342 -2.540952 -0.055924
v 2.928149 -1.410122 -0.055924
v 2.928149 1.410122 0.000000
v 3.250000 0.000000 0.000000
v 2.026342 2.540952 0.000000
v 0.723193 3.168516 0.000000
v -0.723193 3.168516 0.000000
v -2.026342 2.540952 0.000000
v -2.928149 1.410122 0.000000
v -3.250000 0.000000 0.000000
v -2.928149 -1.410122 0.000000
v -2.026342 -2.540952 0.000000
v -0.723193 -3.168516 0.000000
v 0.723193 -3.168516 0.000000
v 2.026342 -2.540952 0.000000
v 2.928149 -1.410122 0.000000
v 0.000000 0.000000 -20.000000
v 0.976050 0.470041 -20.000000
v 1.083333 0.000000 -20.000000
v 0.675447 0.846984 -20.000000
v 0.241064 1.056172 -20.000000
v -0.241064 1.056172 -20.000000
v -0.675447 0.846984 -20.000000
v -0.976050 0.470041 -20.000000
v -1.083333 0.000000 -20.000000
v -0.976050 -0.470041 -20.000000
v -0.675447 -0.846984 -20.000000
v -0.241064 -1.056172 -20.000000
v 0.241064 -1.056172 -20.000000
v 0.675447 -0.846984 -20.000000
v 0.976050 -0.470041 -20.000000
v 1.952099 0.940081 -20.000000
v 2.166667 0.000000 -20.000000
v 1.350895 1.693968 -20.000000
v 0.482129 2.112344 -20.000000
v -0.482129 2.112344 -20.000000
v -1.350895 1.693968 -20.000000
v -1.952099 0.940081 -20.000000
v -2.166667 0.000000 -20.000000
v -1.952099 -0.940081 -20.000000
v -1.350895 -1.693968 -20.000000
v -0.482129 -2.112344 -20.000000
v 0.482129 -2.112344 -20.000000
v 1.350895 -1.693968 -20.000000
v 1.952099 -0.940081 -20.000000

f 1 2 3
f 1 3 4
f 2 5 6
f 2 6 3
f 5 7 8
f 5 8 6
f 7 9 10
f 7 10 8
f 9 11 12
f 9 12 10
f 11 13 14
f 11 14 12
f 13 15 16
f 13 16 14
f 15 17 18
f 15 18 16
f 17 19 20
f 17 20 18
f 19 21 22
f 19 22 20
f 21 23 24
f 21 24 22
f 23 25 26
f 23 26 24
f 25 27 28
f 25 28 26
f 27 1 4
f 27 4 28
f 4 3 29
f 4 29 30
f 3 6 31
f 3 31 29
f 6 8 32
f 6 32 31
f 8 10 33
f 8 33 32
f 10 12 34
f 10 34 33
f 12 14 35
f 12 35 34
f 14 16 36
f 14 36 35
f 16 18 37
f 16 37 36
f 18 20 38
f 18 38 37
f 20 22 39
f 20 39 38
f 22 24 40
f 22 40 39
f 24 26 41
f 24 41 40
f 26 28 42
f 26 42 41
f 28 4 30
f 28 30 42
f 30 29 43
f 30 43 44
f 29 31 45
f 29 45 43
f 31 32 46
f 31 46 45
f 32 33 47
f 32 47 46
f 33 34 48
f 33 48 47
f 34 35 49
f 34 49 48
f 35 36 50
f 35 50 49
f 36 37 51
f 36 51 50
f 37 38 52
f 37 52 51
f 38 39 53
f 38 53 52
f 39 40 54
f 39 54 53
f 40 41 55
f 40 55 54
f 41 42 56
f 41 56 55
f 42 30 44
f 42 44 56
f 44 43 57
f 44 57 58
f 43 45 59
f 43 59 57
f 45 46 60
f 45 60 59
f 46 47 61
f 46 61 60
f 47 48 62
f 47 62 61
f 48 49 63
f 48 63 62
f 49 50 64
f 49 64 63
f 50 51 65
f 50 65 64
f 51 52 66
f 51 66 65
f 52 53 67
f 52 67 66
f 53 54 68
f 53 68 67
f 54 55 69
f 54 69 68
f 55 56 70
f 55 70 69
f 56 44 58
f 56 58 70
f 58 57 71
f 58 71 72
f 57 59 73
f 57 73 71
f 59 60 74
f 59 74 73
f 60 61 75
f 60 75 74
f 61 62 76
f 61 76 75
f 62 63 77
f 62 77 76
f 63 64 78
f 63 78 77
f 64 65 79
f 64 79 78
f 65 66 80
f 65 80 79
f 66 67 81
f 66 81 80
f 67 68 82
f 67 82 81
f 68 69 83
f 68 83 82
f 69 70 84
f 69 84 83
f 70 58 72
f 70 72 84
f 72 71 85
f 72 85 86
f 71 73 87
f 71 87 85
f 73 74 88
f 73 88 87
f 74 75 89
f 74 89 88
f 75 76 90
f 75 90 89
f 76 77 91
f 76 91 90
f 77 78 92
f 77 92 91
f 78 79 93
f 78 93 92
f 79 80 94
f 79 94 93
f 80 81 95
f 80 95 94
f 81 82 96
f 81 96 95
f 82 83 97
f 82 97 96
f 83 84 98
f 83 98 97
f 84 72 86
f 84 86 98
f 86 85 99
f 86 99 100
f 85 87 101
f 85 101 99
f 87 88 102
f 87 102 101
f 88 89 103
f 88 103 102
f 89 90 104
f 89 104 103
f 90 91 105
f 90 105 104
f 91 92 106
f 91 106 105
f 92 93 107
f 92 107 106
f 93 94 108
f 93 108 107
f 94 95 109
f 94 109 108
f 95 96 110
f 95 110 109
f 96 97 111
f 96 111 110
f 97 98 112
f 97 112 111
f 98 86 100
f 98 100 112
f 100 99 113
f 100 113 114
f 99 101 115
f 99 115 113
f 101 102 116
f 101 116 115
f 102 103 117
f 102 117 116
f 103 104 118
f 103 118 117
f 104 105 119
f 104 119 118
f 105 106 120
f 105 120 119
f 106 107 121
f 106 121 120
f 107 108 122
f 107 122 121
f 108 109 123
f 108 123 122
f 109 110 124
f 109 124 123
f 110 111 125
f 110 125 124
f 111 112 126
f 111 126 125
f 112 100 114
f 112 114 126
f 114 113 127
f 114 127 128
f 113 115 129
f 113 129 127
f 115 116 130
f 115 130 129
f 116 117 131
f 116 131 130
f 117 118 132
f 117 132 131
f 118 119 133
f 118 133 132
f 119 120 134
f 119 134 133
f 120 121 135
f 120 135 134
f 121 122 136
f 121 136 135
f 122 123 137
f 122 137 136
f 123 124 138
f 123 138 137
f 124 125 139
f 124 139 138
f 125 126 140
f 125 140 139
f 126 114 128
f 126 128 140
f 128 127 141
f 128 141 142
f 127 129 143
f 127 143 141
f 129 130 144
f 129 144 143
f 130 131 145
f 130 145 144
f 131 132 146
f 131 146 145
f 132 133 147
f 132 147 146
f 133 134 148
f 133 148 147
f 134 135 149
f 134 149 148
f 135 136 150
f 135 150 149
f 136 137 151
f 136 151 150
f 137 138 152
f 137 152 151
f 138 139 153
f 138 153 152
f 139 140 154
f 139 154 153
f 140 128 142
f 140 142 154
f 142 141 155
f 142 155 156
f 141 143 157
f 141 157 155
f 143 144 158
f 143 158 157
f 144 145 159
f 144 159 158
f 145 146 160
f 145 160 159
f 146 147 161
f 146 161 160
f 147 148 162
f 147 162 161
f 148 149 163
f 148 163 162
f 149 150 164
f 149 164 163
f 150 151 165
f 150 165 164
f 151 152 166
f 151 166 165
f 152 153 167
f 152 167 166
f 153 154 168
f 153 168 167
f 154 142 156
f 154 156 168
f 156 155 169
f 156 169 170
f 155 157 171
f 155 171 169
f 157 158 172
f 157 172 171
f 158 159 173
f 158 173 172
f 159 160 174
f 159 174 173
f 160 161 175
f 160 175 174
f 161 162 176
f 161 176 175
f 162 163 177
f 162 177 176
f 163 164 178
f 163 178 177
f 164 165 179
f 164 179 178
f 165 166 180
f 165 180 179
f 166 167 181
f 166 181 180
f 167 168 182
f 167 182 181
f 168 156 170
f 168 170 182
f 170 169 183
f 170 183 184
f 169 171 185
f 169 185 183
f 171 172 186
f 171 186 185
f 172 173 187
f 172 187 186
f 173 174 188
f 173 188 187
f 174 175 189
f 174 189 188
f 175 176 190
f 175 190 189
f 176 177 191
f 176 191 190
f 177 178 192
f 177 192 191
f 178 179 193
f 178 193 192
f 179 180 194
f 179 194 193
f 180 181 195
f 180 195 194
f 181 182 196
f 181 196 195
f 182 170 184
f 182 184 196
f 184 183 197
f 184 197 198
f 183 185 199
f 183 199 197
f 185 186 200
f 185 200 199
f 186 187 201
f 186 201 200
f 187 188 202
f 187 202 201
f 188 189 203
f 188 203 202
f 189 190 204
f 189 204 203
f 190 191 205
f 190 205 204
f 191 192 206
f 191 206 205
f 192 193 207
f 192 207 206
f 193 194 208
f 193 208 207
f 194 195 209
f 194 209 208
f 195 196 210
f 195 210 209
f 196 184 198
f 196 198 210
f 198 197 211
f 198 211 212
f 197 199 213
f 197 213 211
f 199 200 214
f 199 214 213
f 200 201 215
f 200 215 214
f 201 202 216
f 201 216 215
f 202 203 217
f 202 217 216
f 203 204 218
f 203 218 217
f 204 205 219
f 204 219 218
f 205 206 220
f 205 220 219
f 206 207 221
f 206 221 220
f 207 208 222
f 207 222 221
f 208 209 223
f 208 223 222
f 209 210 224
f 209 224 223
f 210 198 212
f 210 212 224
f 212 211 225
f 212 225 226
f 211 213 227
f 211 227 225
f 213 214 228
f 213 228 227
f 214 215 229
f 214 229 228
f 215 216 230
f 215 230 229
f 216 217 231
f 216 231 230
f 217 218 232
f 217 232 231
f 218 219 233
f 218 233 232
f 219 220 234
f 219 234 233
f 220 221 235
f 220 235 234
f 221 222 236
f 221 236 235
f 222 223 237
f 222 237 236
f 223 224 238
f 223 238 237
f 224 212 226
f 224 226 238
f 226 225 239
f 226 239 240
f 225 227 241
f 225 241 239
f 227 228 242
f 227 242 241
f 228 229 243
f 228 243 242
f 229 230 244
f 229 244 243
f 230 231 245
f 230 245 244
f 231 232 246
f 231 246 245
f 232 233 247
f 232 247 246
f 233 234 248
f 233 248 247
f 234 235 249
f 234 249 248
f 235 236 250
f 235 250 249
f 236 237 251
f 236 251 250
f 237 238 252
f 237 252 251
f 238 226 240
f 238 240 252
f 240 239 253
f 240 253 254
f 239 241 255
f 239 255 253
f 241 242 256
f 241 256 255
f 242 243 257
f 242 257 256
f 243 244 258
f 243 258 257
f 244 245 259
f 244 259 258
f 245 246 260
f 245 260 259
f 246 247 261
f 246 261 260
f 247 248 262
f 247 262 261
f 248 249 263
f 248 263 262
f 249 250 264
f 249 264 263
f 250 251 265
f 250 265 264
f 251 252 266
f 251 266 265
f 252 240 254
f 252 254 266
f 254 253 267
f 254 267 268
f 253 255 269
f 253 269 267
f 255 256 270
f 255 270 269
f 256 257 271
f 256 271 270
f 257 258 272
f 257 272 271
f 258 259 273
f 258 273 272
f 259 260 274
f 259 274 273
f 260 261 275
f 260 275 274
f 261 262 276
f 261 276 275
f 262 263 277
f 262 277 276
f 263 264 278
f 263 278 277
f 264 265 279
f 264 279 278
f 265 266 280
f 265 280 279
f 266 254 268
f 266 268 280
f 268 267 281
f 268 281 282
f 267 269 283
f 267 283 281
f 269 270 284
f 269 284 283
f 270 271 285
f 270 285 284
f 271 272 286
f 271 286 285
f 272 273 287
f 272 287 286
f 273 274 288
f 273 288 287
f 274 275 289
f 274 289 288
f 275 276 290
f 275 290 289
f 276 277 291
f 276 291 290
f 277 278 292
f 277 292 291
f 278 279 293
f 278 293 292
f 279 280 294
f 279 294 293
f 280 268 282
f 280 282 294
f 282 281 295
f 282 295 296
f 281 283 297
f 281 297 295
f 283 284 298
f 283 298 297
f 284 285 299
f 284 299 298
f 285 286 300
f 285 300 299
f 286 287 301
f 286 301 300
f 287 288 302
f 287 302 301
f 288 289 303
f 288 303 302
f 289 290 304
f 289 304 303
f 290 291 305
f 290 305 304
f 291 292 306
f 291 306 305
f 292 293 307
f 292 307 306
f 293 294 308
f 293 308 307
f 294 282 296
f 294 296 308
f 309 309 310
f 309 310 311
f 309 309 312
f 309 312 310
f 309 309 313
f 309 313 312
f 309 309 314
f 309 314 313
f 309 309 315
f 309 315 314
f 309 309 316
f 309 316 315
f 309 309 317
f 309 317 316
f 309 309 318
f 309 318 317
f 309 309 319
f 309 319 318
f 309 309 320
f 309 320 319
f 309 309 321
f 309 321 320
f 309 309 322
f 309 322 321
f 309 309 323
f 309 323 322
f 309 309 311
f 309 311 323
f 311 310 324
f 311 324 325
f 310 312 326
f 310 326 324
f 312 313 327
f 312 327 326
f 313 314 328
f 313 328 327
f 314 315 329
f 314 329 328
f 315 316 330
f 315 330 329
f 316 317 331
f 316 331 330
f 317 318 332
f 317 332 331
f 318 319 333
f 318 333 332
f 319 320 334
f 319 334 333
f 320 321 335
f 320 335 334
f 321 322 336
f 321 336 335
f 322 323 337
f 322 337 336
f 323 311 325
f 323 325 337
f 325 324 2
f 325 2 1
f 324 326 5
f 324 5 2
f 326 327 7
f 326 7 5
f 327 328 9
f 327 9 7
f 328 329 11
f 328 11 9
f 329 330 13
f 329 13 11
f 330 331 15
f 330 15 13
f 331 332 17
f 331 17 15
f 332 333 19
f 332 19 17
f 333 334 21
f 333 21 19
f 334 335 23
f 334 23 21
f 335 336 25
f 335 25 23
f 336 337 27
f 336 27 25
f 337 325 1
f 337 1 27
