$MeshFormat
2.2 0 8
$EndMeshFormat
$PhysicalNames
1
2 1 "gdf_created_by_manipulating_UMaineSemi.gdf"
$EndPhysicalNames
$Nodes
1033
1 -6.25 0 1.299999952
2 -6.248000145 0 2.599999905
3 -6.09100008 1.391000032 2.599999905
4 -6.092999935 1.391000032 1.299999952
5 -5.629000187 2.711999893 2.599999905
6 -5.631000042 2.711999893 1.299999952
7 -4.883999825 3.897000074 2.599999905
8 -4.886000156 3.897000074 1.299999952
9 -3.894999981 4.886000156 2.599999905
10 -3.897000074 4.886000156 1.299999952
11 -2.710000038 5.631000042 2.599999905
12 -2.711999893 5.631000042 1.299999952
13 -1.389000058 6.092999935 2.599999905
14 -1.391000032 6.092999935 1.299999952
15 0.002000000095 6.25 2.599999905
16 0 6.25 1.299999952
17 1.393000007 6.092999935 2.599999905
18 1.391000032 6.092999935 1.299999952
19 2.713999987 5.631000042 2.599999905
20 2.711999893 5.631000042 1.299999952
21 3.898999929 4.886000156 2.599999905
22 3.897000074 4.886000156 1.299999952
23 4.888000011 3.897000074 2.599999905
24 4.886000156 3.897000074 1.299999952
25 5.632999897 2.711999893 2.599999905
26 5.631000042 2.711999893 1.299999952
27 6.09499979 1.391000032 2.599999905
28 6.092999935 1.391000032 1.299999952
29 6.251999855 0 2.599999905
30 6.25 0 1.299999952
31 3.895999908 4.887000084 -20
32 4.886000156 3.897000074 -20
33 3.664999962 2.923000097 -20
34 2.923000097 3.664999962 -20
35 2.710999966 5.631999969 -20
36 2.03399992 4.22300005 -20
37 1.389000058 6.093999863 -20
38 1.042999983 4.570000172 -20
39 -2.711999893 5.631000042 -10.39999962
40 -2.711999893 5.631000042 -9.100000381
41 -1.391000032 6.092999935 -9.100000381
42 -1.391000032 6.092999935 -10.39999962
43 -1.56400001 6.25 -13
44 -0.6970000267 6.171500206 -13
45 -0.7829999924 6.25 -13
46 -4.886000156 3.897000074 -13
47 -5.56799984 3.822999954 -13
48 -5.940999985 2.605999947 -13
49 -5.631000042 2.711999893 -13
50 -3.898000002 4.886000156 -13
51 -5.073999882 4.94299984 -13
52 3.895999908 4.887000084 -13
53 3.897000074 4.886000156 -11.69999981
54 4.886000156 3.897000074 -11.69999981
55 4.886000156 3.897000074 -13
56 2.710999966 5.631999969 -13
57 2.711999893 5.631000042 -11.69999981
58 1.389000058 6.093999863 -13
59 1.391000032 6.092999935 -11.69999981
60 -0.002000000095 6.25 -13
61 0 6.25 -11.69999981
62 6.09499979 1.391000032 14.30000019
63 6.092999935 1.391000032 15
64 6.25 0 15
65 6.251999855 0 14.30000019
66 -6.248000145 0 14.30000019
67 -6.25 0 15
68 -6.092999935 1.391000032 15
69 -6.09100008 1.391000032 14.30000019
70 -2.259000063 6.171000004 -20
71 -3.125999928 6.25 -20
72 -2.345000029 6.25 -20
73 -1.391000032 6.092999935 -20
74 -1.56400001 6.25 -20
75 -0.6965000033 6.171500206 -20
76 -0.7829999924 6.25 -20
77 -0.002000000095 6.25 -20
78 -2.345000029 6.25 -13
79 -3.125999928 6.25 -13
80 -2.259000063 6.171000004 -13
81 -1.39199996 6.092999935 -13
82 -5.940999985 2.605999947 -20
83 -6.171999931 1.320000052 -20
84 -6.25 1.25 -20
85 -6.25 2.5 -20
86 -5.56799984 3.822999954 -20
87 -6.25 3.75 -20
88 -5.073999882 4.94299984 -20
89 -6.25 5 -20
90 -4.480999947 5.940000057 -20
91 -6.25 6.25 -20
92 -6.25 2.5 -13
93 -6.25 1.25 -13
94 -6.171999931 1.320000052 -13
95 -6.25 3.75 -13
96 -6.25 5 -13
97 -4.480999947 5.940000057 -13
98 -6.25 6.25 -13
99 6.092999935 1.391000032 -2.599999905
100 6.092999935 1.391000032 -1.299999952
101 6.25 0 -1.299999952
102 6.25 0 -2.599999905
103 6.092999935 1.391000032 -3.900000095
104 6.25 0 -3.900000095
105 6.092999935 1.391000032 -5.199999809
106 6.25 0 -5.199999809
107 6.092999935 1.391000032 -6.5
108 6.25 0 -6.5
109 6.092999935 1.391000032 -7.800000191
110 6.25 0 -7.800000191
111 6.092999935 1.391000032 -9.100000381
112 6.25 0 -9.100000381
113 6.092999935 1.391000032 -10.39999962
114 6.25 0 -10.39999962
115 6.092999935 1.391000032 -11.69999981
116 6.25 0 -11.69999981
117 6.092999935 1.391000032 -13
118 6.25 0 -13
119 5.631000042 2.711999893 -2.599999905
120 5.631000042 2.711999893 -1.299999952
121 5.631000042 2.711999893 -3.900000095
122 5.631000042 2.711999893 -5.199999809
123 5.631000042 2.711999893 -6.5
124 5.631000042 2.711999893 -7.800000191
125 5.631000042 2.711999893 -9.100000381
126 5.631000042 2.711999893 -10.39999962
127 5.631000042 2.711999893 -11.69999981
128 5.631000042 2.711999893 -13
129 4.886000156 3.897000074 -2.599999905
130 4.886000156 3.897000074 -1.299999952
131 4.886000156 3.897000074 -3.900000095
132 4.886000156 3.897000074 -5.199999809
133 4.886000156 3.897000074 -6.5
134 4.886000156 3.897000074 -7.800000191
135 4.886000156 3.897000074 -9.100000381
136 4.886000156 3.897000074 -10.39999962
137 3.897000074 4.886000156 -2.599999905
138 3.897000074 4.886000156 -1.299999952
139 3.897000074 4.886000156 -3.900000095
140 3.897000074 4.886000156 -5.199999809
141 3.897000074 4.886000156 -6.5
142 3.897000074 4.886000156 -7.800000191
143 3.897000074 4.886000156 -9.100000381
144 3.897000074 4.886000156 -10.39999962
145 2.711999893 5.631000042 -2.599999905
146 2.711999893 5.631000042 -1.299999952
147 2.711999893 5.631000042 -3.900000095
148 2.711999893 5.631000042 -5.199999809
149 2.711999893 5.631000042 -6.5
150 2.711999893 5.631000042 -7.800000191
151 2.711999893 5.631000042 -9.100000381
152 2.711999893 5.631000042 -10.39999962
153 1.391000032 6.092999935 -2.599999905
154 1.391000032 6.092999935 -1.299999952
155 1.391000032 6.092999935 -3.900000095
156 1.391000032 6.092999935 -5.199999809
157 1.391000032 6.092999935 -6.5
158 1.391000032 6.092999935 -7.800000191
159 1.391000032 6.092999935 -9.100000381
160 1.391000032 6.092999935 -10.39999962
161 0 6.25 -2.599999905
162 0 6.25 -1.299999952
163 0 6.25 -3.900000095
164 0 6.25 -5.199999809
165 0 6.25 -6.5
166 0 6.25 -7.800000191
167 0 6.25 -9.100000381
168 0 6.25 -10.39999962
169 -1.391000032 6.092999935 -2.599999905
170 -1.391000032 6.092999935 -1.299999952
171 -1.391000032 6.092999935 -3.900000095
172 -1.391000032 6.092999935 -5.199999809
173 -1.391000032 6.092999935 -6.5
174 -1.391000032 6.092999935 -7.800000191
175 -1.391000032 6.092999935 -11.69999981
176 -2.711999893 5.631000042 -2.599999905
177 -2.711999893 5.631000042 -1.299999952
178 -2.711999893 5.631000042 -3.900000095
179 -2.711999893 5.631000042 -5.199999809
180 -2.711999893 5.631000042 -6.5
181 -2.711999893 5.631000042 -7.800000191
182 -2.711999893 5.631000042 -11.69999981
183 -3.897000074 4.886000156 -2.599999905
184 -3.897000074 4.886000156 -1.299999952
185 -3.897000074 4.886000156 -3.900000095
186 -3.897000074 4.886000156 -5.199999809
187 -3.897000074 4.886000156 -6.5
188 -3.897000074 4.886000156 -7.800000191
189 -3.897000074 4.886000156 -9.100000381
190 -3.897000074 4.886000156 -10.39999962
191 -3.897000074 4.886000156 -11.69999981
192 -4.886000156 3.897000074 -2.599999905
193 -4.886000156 3.897000074 -1.299999952
194 -4.886000156 3.897000074 -3.900000095
195 -4.886000156 3.897000074 -5.199999809
196 -4.886000156 3.897000074 -6.5
197 -4.886000156 3.897000074 -7.800000191
198 -4.886000156 3.897000074 -9.100000381
199 -4.886000156 3.897000074 -10.39999962
200 -4.886000156 3.897000074 -11.69999981
201 -5.631000042 2.711999893 -2.599999905
202 -5.631000042 2.711999893 -1.299999952
203 -5.631000042 2.711999893 -3.900000095
204 -5.631000042 2.711999893 -5.199999809
205 -5.631000042 2.711999893 -6.5
206 -5.631000042 2.711999893 -7.800000191
207 -5.631000042 2.711999893 -9.100000381
208 -5.631000042 2.711999893 -10.39999962
209 -5.631000042 2.711999893 -11.69999981
210 -6.092999935 1.391000032 -2.599999905
211 -6.092999935 1.391000032 -1.299999952
212 -6.092999935 1.391000032 -3.900000095
213 -6.092999935 1.391000032 -5.199999809
214 -6.092999935 1.391000032 -6.5
215 -6.092999935 1.391000032 -7.800000191
216 -6.092999935 1.391000032 -9.100000381
217 -6.092999935 1.391000032 -10.39999962
218 -6.092999935 1.391000032 -11.69999981
219 -6.092999935 1.391000032 -13
220 -6.25 0 -2.599999905
221 -6.25 0 -1.299999952
222 -6.25 0 -3.900000095
223 -6.25 0 -5.199999809
224 -6.25 0 -6.5
225 -6.25 0 -7.800000191
226 -6.25 0 -9.100000381
227 -6.25 0 -10.39999962
228 -6.25 0 -11.69999981
229 -6.25 0 -13
230 -4.688000202 6.25 -18.83300018
231 -4.688000202 6.25 -20
232 -6.25 6.25 -18.83300018
233 -3.125999928 6.25 -18.83300018
234 -1.56400001 6.25 -18.83300018
235 -0.002000000095 6.25 -18.83300018
236 -4.688000202 6.25 -17.66699982
237 -6.25 6.25 -17.66699982
238 -3.125999928 6.25 -17.66699982
239 -1.56400001 6.25 -17.66699982
240 -0.002000000095 6.25 -17.66699982
241 -4.688000202 6.25 -16.5
242 -6.25 6.25 -16.5
243 -3.125999928 6.25 -16.5
244 -1.56400001 6.25 -16.5
245 -0.002000000095 6.25 -16.5
246 -4.688000202 6.25 -15.33300018
247 -6.25 6.25 -15.33300018
248 -3.125999928 6.25 -15.33300018
249 -1.56400001 6.25 -15.33300018
250 -0.002000000095 6.25 -15.33300018
251 -4.688000202 6.25 -14.16699982
252 -6.25 6.25 -14.16699982
253 -3.125999928 6.25 -14.16699982
254 -1.56400001 6.25 -14.16699982
255 -0.002000000095 6.25 -14.16699982
256 -4.688000202 6.25 -13
257 1.562999964 0 -20
258 0 0 -20
259 1.523000002 0.34799999 -20
260 3.046999931 0.6949999928 -20
261 3.125 0 -20
262 4.570000172 1.042999983 -20
263 4.688000202 0 -20
264 6.092999935 1.391000032 -20
265 6.25 0 -20
266 1.407999992 0.6779999733 -20
267 2.815999985 1.355999947 -20
268 4.22300005 2.03399992 -20
269 5.631000042 2.711999893 -20
270 1.222000003 0.9739999771 -20
271 2.443000078 1.947999954 -20
272 0.9739999771 1.222000003 -20
273 1.947999954 2.443000078 -20
274 0.6779999733 1.407999992 -20
275 1.355999947 2.815999985 -20
276 0.34799999 1.523000002 -20
277 0.6949999928 3.046999931 -20
278 0 1.562000036 -20
279 0 3.125 -20
280 0 4.686999798 -20
281 -0.34799999 1.523000002 -20
282 -0.6949999928 3.046999931 -20
283 -1.042999983 4.570000172 -20
284 -0.6779999733 1.407999992 -20
285 -1.355999947 2.815999985 -20
286 -2.03399992 4.22300005 -20
287 -2.711999893 5.631000042 -20
288 -0.9739999771 1.222000003 -20
289 -1.947999954 2.443000078 -20
290 -2.923000097 3.664999962 -20
291 -3.897000074 4.886000156 -20
292 -1.222000003 0.9739999771 -20
293 -2.443000078 1.947999954 -20
294 -3.664999962 2.923000097 -20
295 -4.886000156 3.897000074 -20
296 -1.407999992 0.6779999733 -20
297 -2.815999985 1.355999947 -20
298 -4.22300005 2.03399992 -20
299 -5.631000042 2.711999893 -20
300 -1.523000002 0.34799999 -20
301 -3.046999931 0.6949999928 -20
302 -4.570000172 1.042999983 -20
303 -6.092999935 1.391000032 -20
304 -1.562000036 0 -20
305 -3.125 0 -20
306 -4.686999798 0 -20
307 -6.25 0 -20
308 6.092999935 1.391000032 -14.16699982
309 6.25 0 -14.16699982
310 6.092999935 1.391000032 -15.33300018
311 6.25 0 -15.33300018
312 6.092999935 1.391000032 -16.5
313 6.25 0 -16.5
314 6.092999935 1.391000032 -17.66699982
315 6.25 0 -17.66699982
316 6.092999935 1.391000032 -18.83300018
317 6.25 0 -18.83300018
318 5.631000042 2.711999893 -14.16699982
319 5.631000042 2.711999893 -15.33300018
320 5.631000042 2.711999893 -16.5
321 5.631000042 2.711999893 -17.66699982
322 5.631000042 2.711999893 -18.83300018
323 4.886000156 3.897000074 -14.16699982
324 4.886000156 3.897000074 -15.33300018
325 4.886000156 3.897000074 -16.5
326 4.886000156 3.897000074 -17.66699982
327 4.886000156 3.897000074 -18.83300018
328 3.895999908 4.887000084 -14.16699982
329 3.895999908 4.887000084 -15.33300018
330 3.895999908 4.887000084 -16.5
331 3.895999908 4.887000084 -17.66699982
332 3.895999908 4.887000084 -18.83300018
333 2.710999966 5.631999969 -14.16699982
334 2.710999966 5.631999969 -15.33300018
335 2.710999966 5.631999969 -16.5
336 2.710999966 5.631999969 -17.66699982
337 2.710999966 5.631999969 -18.83300018
338 1.389000058 6.093999863 -14.16699982
339 1.389000058 6.093999863 -15.33300018
340 1.389000058 6.093999863 -16.5
341 1.389000058 6.093999863 -17.66699982
342 1.389000058 6.093999863 -18.83300018
343 -2.711999893 5.631000042 -13
344 6.092999935 1.391000032 0
345 6.25 0 0
346 5.631000042 2.711999893 0
347 4.886000156 3.897000074 0
348 3.897000074 4.886000156 0
349 2.711999893 5.631000042 0
350 1.391000032 6.092999935 0
351 0 6.25 0
352 -1.391000032 6.092999935 0
353 -2.711999893 5.631000042 0
354 -3.897000074 4.886000156 0
355 -4.886000156 3.897000074 0
356 -5.631000042 2.711999893 0
357 -6.092999935 1.391000032 0
358 -6.25 0 0
359 -6.25 0.625 -13
360 -6.171500206 0.6955000162 -13
361 5.632999897 2.711999893 14.30000019
362 5.631000042 2.711999893 15
363 4.888000011 3.897000074 14.30000019
364 4.886000156 3.897000074 15
365 3.898999929 4.886000156 14.30000019
366 3.897000074 4.886000156 15
367 2.713999987 5.631000042 14.30000019
368 2.711999893 5.631000042 15
369 1.393000007 6.092999935 14.30000019
370 1.391000032 6.092999935 15
371 0.002000000095 6.25 14.30000019
372 0 6.25 15
373 -1.389000058 6.092999935 14.30000019
374 -1.391000032 6.092999935 15
375 -2.710000038 5.631000042 14.30000019
376 -2.711999893 5.631000042 15
377 -3.894999981 4.886000156 14.30000019
378 -3.897000074 4.886000156 15
379 -4.883999825 3.897000074 14.30000019
380 -4.886000156 3.897000074 15
381 -5.629000187 2.711999893 14.30000019
382 -5.631000042 2.711999893 15
383 6.09499979 1.391000032 13
384 6.251999855 0 13
385 6.09499979 1.391000032 11.69999981
386 6.251999855 0 11.69999981
387 5.632999897 2.711999893 13
388 5.632999897 2.711999893 11.69999981
389 4.888000011 3.897000074 13
390 4.888000011 3.897000074 11.69999981
391 3.898999929 4.886000156 13
392 3.898999929 4.886000156 11.69999981
393 2.713999987 5.631000042 13
394 2.713999987 5.631000042 11.69999981
395 1.393000007 6.092999935 13
396 1.393000007 6.092999935 11.69999981
397 0.002000000095 6.25 13
398 0.002000000095 6.25 11.69999981
399 -1.389000058 6.092999935 13
400 -1.389000058 6.092999935 11.69999981
401 -2.710000038 5.631000042 13
402 -2.710000038 5.631000042 11.69999981
403 -3.894999981 4.886000156 13
404 -3.894999981 4.886000156 11.69999981
405 -4.883999825 3.897000074 13
406 -4.883999825 3.897000074 11.69999981
407 -5.629000187 2.711999893 13
408 -5.629000187 2.711999893 11.69999981
409 -6.09100008 1.391000032 13
410 -6.09100008 1.391000032 11.69999981
411 -6.248000145 0 13
412 -6.248000145 0 11.69999981
413 -1.562000036 0 15
414 0 0 15
415 -1.523000002 0.34799999 15
416 -3.046999931 0.6949999928 15
417 -3.125 0 15
418 -4.570000172 1.042999983 15
419 -4.686999798 0 15
420 -2.815999985 1.355999947 15
421 -4.22300005 2.03399992 15
422 -1.407999992 0.6779999733 15
423 -1.222000003 0.9739999771 15
424 -3.664999962 2.923000097 15
425 -0.9739999771 1.222000003 15
426 -1.947999954 2.443000078 15
427 -2.443000078 1.947999954 15
428 -2.923000097 3.664999962 15
429 -0.6779999733 1.407999992 15
430 -0.34799999 1.523000002 15
431 -0.6949999928 3.046999931 15
432 -1.355999947 2.815999985 15
433 -1.042999983 4.570000172 15
434 -2.03399992 4.22300005 15
435 0 1.562000036 15
436 0 3.125 15
437 0.6949999928 3.046999931 15
438 1.042999983 4.570000172 15
439 0 4.686999798 15
440 0.34799999 1.523000002 15
441 0.6779999733 1.407999992 15
442 1.355999947 2.815999985 15
443 2.03399992 4.22300005 15
444 1.947999954 2.443000078 15
445 2.923000097 3.664999962 15
446 0.9739999771 1.222000003 15
447 1.222000003 0.9739999771 15
448 3.664999962 2.923000097 15
449 1.407999992 0.6779999733 15
450 2.815999985 1.355999947 15
451 2.443000078 1.947999954 15
452 1.523000002 0.34799999 15
453 3.046999931 0.6949999928 15
454 4.570000172 1.042999983 15
455 4.22300005 2.03399992 15
456 1.562999964 0 15
457 3.125 0 15
458 4.688000202 0 15
459 -6.248000145 0 3.900000095
460 -6.09100008 1.391000032 3.900000095
461 -6.248000145 0 5.199999809
462 -6.09100008 1.391000032 5.199999809
463 -6.248000145 0 6.5
464 -6.09100008 1.391000032 6.5
465 -6.248000145 0 7.800000191
466 -6.09100008 1.391000032 7.800000191
467 -6.248000145 0 9.100000381
468 -6.09100008 1.391000032 9.100000381
469 -6.248000145 0 10.39999962
470 -6.09100008 1.391000032 10.39999962
471 -5.629000187 2.711999893 3.900000095
472 -5.629000187 2.711999893 5.199999809
473 -5.629000187 2.711999893 6.5
474 -5.629000187 2.711999893 7.800000191
475 -5.629000187 2.711999893 9.100000381
476 -5.629000187 2.711999893 10.39999962
477 -4.883999825 3.897000074 3.900000095
478 -4.883999825 3.897000074 5.199999809
479 -4.883999825 3.897000074 6.5
480 -4.883999825 3.897000074 7.800000191
481 -4.883999825 3.897000074 9.100000381
482 -4.883999825 3.897000074 10.39999962
483 -3.894999981 4.886000156 3.900000095
484 -3.894999981 4.886000156 5.199999809
485 -3.894999981 4.886000156 6.5
486 -3.894999981 4.886000156 7.800000191
487 -3.894999981 4.886000156 9.100000381
488 -3.894999981 4.886000156 10.39999962
489 -2.710000038 5.631000042 3.900000095
490 -2.710000038 5.631000042 5.199999809
491 -2.710000038 5.631000042 6.5
492 -2.710000038 5.631000042 7.800000191
493 -2.710000038 5.631000042 9.100000381
494 -2.710000038 5.631000042 10.39999962
495 -1.389000058 6.092999935 3.900000095
496 -1.389000058 6.092999935 5.199999809
497 -1.389000058 6.092999935 6.5
498 -1.389000058 6.092999935 7.800000191
499 -1.389000058 6.092999935 9.100000381
500 -1.389000058 6.092999935 10.39999962
501 0.002000000095 6.25 3.900000095
502 0.002000000095 6.25 5.199999809
503 0.002000000095 6.25 6.5
504 0.002000000095 6.25 7.800000191
505 0.002000000095 6.25 9.100000381
506 0.002000000095 6.25 10.39999962
507 1.393000007 6.092999935 3.900000095
508 1.393000007 6.092999935 5.199999809
509 1.393000007 6.092999935 6.5
510 1.393000007 6.092999935 7.800000191
511 1.393000007 6.092999935 9.100000381
512 1.393000007 6.092999935 10.39999962
513 2.713999987 5.631000042 3.900000095
514 2.713999987 5.631000042 5.199999809
515 2.713999987 5.631000042 6.5
516 2.713999987 5.631000042 7.800000191
517 2.713999987 5.631000042 9.100000381
518 2.713999987 5.631000042 10.39999962
519 3.898999929 4.886000156 3.900000095
520 3.898999929 4.886000156 5.199999809
521 3.898999929 4.886000156 6.5
522 3.898999929 4.886000156 7.800000191
523 3.898999929 4.886000156 9.100000381
524 3.898999929 4.886000156 10.39999962
525 4.888000011 3.897000074 3.900000095
526 4.888000011 3.897000074 5.199999809
527 4.888000011 3.897000074 6.5
528 4.888000011 3.897000074 7.800000191
529 4.888000011 3.897000074 9.100000381
530 4.888000011 3.897000074 10.39999962
531 5.632999897 2.711999893 3.900000095
532 5.632999897 2.711999893 5.199999809
533 5.632999897 2.711999893 6.5
534 5.632999897 2.711999893 7.800000191
535 5.632999897 2.711999893 9.100000381
536 5.632999897 2.711999893 10.39999962
537 6.09499979 1.391000032 3.900000095
538 6.09499979 1.391000032 5.199999809
539 6.09499979 1.391000032 6.5
540 6.09499979 1.391000032 7.800000191
541 6.09499979 1.391000032 9.100000381
542 6.09499979 1.391000032 10.39999962
543 6.251999855 0 3.900000095
544 6.251999855 0 5.199999809
545 6.251999855 0 6.5
546 6.251999855 0 7.800000191
547 6.251999855 0 9.100000381
548 6.251999855 0 10.39999962
549 -6.25 0.625 -20
550 -6.171500206 0.6949999928 -20
551 -6.09100008 -1.391000032 2.599999905
552 -6.092999935 -1.391000032 1.299999952
553 -5.629000187 -2.711999893 2.599999905
554 -5.631000042 -2.711999893 1.299999952
555 -4.883999825 -3.897000074 2.599999905
556 -4.886000156 -3.897000074 1.299999952
557 -3.894999981 -4.886000156 2.599999905
558 -3.897000074 -4.886000156 1.299999952
559 -2.710000038 -5.631000042 2.599999905
560 -2.711999893 -5.631000042 1.299999952
561 -1.389000058 -6.092999935 2.599999905
562 -1.391000032 -6.092999935 1.299999952
563 0.002000000095 -6.25 2.599999905
564 0 -6.25 1.299999952
565 1.393000007 -6.092999935 2.599999905
566 1.391000032 -6.092999935 1.299999952
567 2.713999987 -5.631000042 2.599999905
568 2.711999893 -5.631000042 1.299999952
569 3.898999929 -4.886000156 2.599999905
570 3.897000074 -4.886000156 1.299999952
571 4.888000011 -3.897000074 2.599999905
572 4.886000156 -3.897000074 1.299999952
573 5.632999897 -2.711999893 2.599999905
574 5.631000042 -2.711999893 1.299999952
575 6.09499979 -1.391000032 2.599999905
576 6.092999935 -1.391000032 1.299999952
577 3.895999908 -4.887000084 -20
578 4.886000156 -3.897000074 -20
579 3.664999962 -2.923000097 -20
580 2.923000097 -3.664999962 -20
581 2.710999966 -5.631999969 -20
582 2.03399992 -4.22300005 -20
583 1.389000058 -6.093999863 -20
584 1.042999983 -4.570000172 -20
585 -2.711999893 -5.631000042 -10.39999962
586 -2.711999893 -5.631000042 -9.100000381
587 -1.391000032 -6.092999935 -9.100000381
588 -1.391000032 -6.092999935 -10.39999962
589 -1.56400001 -6.25 -13
590 -0.6970000267 -6.171500206 -13
591 -0.7829999924 -6.25 -13
592 -4.886000156 -3.897000074 -13
593 -5.56799984 -3.822999954 -13
594 -5.940999985 -2.605999947 -13
595 -5.631000042 -2.711999893 -13
596 -3.898000002 -4.886000156 -13
597 -5.073999882 -4.94299984 -13
598 3.895999908 -4.887000084 -13
599 3.897000074 -4.886000156 -11.69999981
600 4.886000156 -3.897000074 -11.69999981
601 4.886000156 -3.897000074 -13
602 2.710999966 -5.631999969 -13
603 2.711999893 -5.631000042 -11.69999981
604 1.389000058 -6.093999863 -13
605 1.391000032 -6.092999935 -11.69999981
606 -0.002000000095 -6.25 -13
607 0 -6.25 -11.69999981
608 6.09499979 -1.391000032 14.30000019
609 6.092999935 -1.391000032 15
610 -6.092999935 -1.391000032 15
611 -6.09100008 -1.391000032 14.30000019
612 -2.259000063 -6.171000004 -20
613 -3.125999928 -6.25 -20
614 -2.345000029 -6.25 -20
615 -1.391000032 -6.092999935 -20
616 -1.56400001 -6.25 -20
617 -0.6965000033 -6.171500206 -20
618 -0.7829999924 -6.25 -20
619 -0.002000000095 -6.25 -20
620 -2.345000029 -6.25 -13
621 -3.125999928 -6.25 -13
622 -2.259000063 -6.171000004 -13
623 -1.39199996 -6.092999935 -13
624 -5.940999985 -2.605999947 -20
625 -6.171999931 -1.320000052 -20
626 -6.25 -1.25 -20
627 -6.25 -2.5 -20
628 -5.56799984 -3.822999954 -20
629 -6.25 -3.75 -20
630 -5.073999882 -4.94299984 -20
631 -6.25 -5 -20
632 -4.480999947 -5.940000057 -20
633 -6.25 -6.25 -20
634 -6.25 -2.5 -13
635 -6.25 -1.25 -13
636 -6.171999931 -1.320000052 -13
637 -6.25 -3.75 -13
638 -6.25 -5 -13
639 -4.480999947 -5.940000057 -13
640 -6.25 -6.25 -13
641 6.092999935 -1.391000032 -2.599999905
642 6.092999935 -1.391000032 -1.299999952
643 6.092999935 -1.391000032 -3.900000095
644 6.092999935 -1.391000032 -5.199999809
645 6.092999935 -1.391000032 -6.5
646 6.092999935 -1.391000032 -7.800000191
647 6.092999935 -1.391000032 -9.100000381
648 6.092999935 -1.391000032 -10.39999962
649 6.092999935 -1.391000032 -11.69999981
650 6.092999935 -1.391000032 -13
651 5.631000042 -2.711999893 -2.599999905
652 5.631000042 -2.711999893 -1.299999952
653 5.631000042 -2.711999893 -3.900000095
654 5.631000042 -2.711999893 -5.199999809
655 5.631000042 -2.711999893 -6.5
656 5.631000042 -2.711999893 -7.800000191
657 5.631000042 -2.711999893 -9.100000381
658 5.631000042 -2.711999893 -10.39999962
659 5.631000042 -2.711999893 -11.69999981
660 5.631000042 -2.711999893 -13
661 4.886000156 -3.897000074 -2.599999905
662 4.886000156 -3.897000074 -1.299999952
663 4.886000156 -3.897000074 -3.900000095
664 4.886000156 -3.897000074 -5.199999809
665 4.886000156 -3.897000074 -6.5
666 4.886000156 -3.897000074 -7.800000191
667 4.886000156 -3.897000074 -9.100000381
668 4.886000156 -3.897000074 -10.39999962
669 3.897000074 -4.886000156 -2.599999905
670 3.897000074 -4.886000156 -1.299999952
671 3.897000074 -4.886000156 -3.900000095
672 3.897000074 -4.886000156 -5.199999809
673 3.897000074 -4.886000156 -6.5
674 3.897000074 -4.886000156 -7.800000191
675 3.897000074 -4.886000156 -9.100000381
676 3.897000074 -4.886000156 -10.39999962
677 2.711999893 -5.631000042 -2.599999905
678 2.711999893 -5.631000042 -1.299999952
679 2.711999893 -5.631000042 -3.900000095
680 2.711999893 -5.631000042 -5.199999809
681 2.711999893 -5.631000042 -6.5
682 2.711999893 -5.631000042 -7.800000191
683 2.711999893 -5.631000042 -9.100000381
684 2.711999893 -5.631000042 -10.39999962
685 1.391000032 -6.092999935 -2.599999905
686 1.391000032 -6.092999935 -1.299999952
687 1.391000032 -6.092999935 -3.900000095
688 1.391000032 -6.092999935 -5.199999809
689 1.391000032 -6.092999935 -6.5
690 1.391000032 -6.092999935 -7.800000191
691 1.391000032 -6.092999935 -9.100000381
692 1.391000032 -6.092999935 -10.39999962
693 0 -6.25 -2.599999905
694 0 -6.25 -1.299999952
695 0 -6.25 -3.900000095
696 0 -6.25 -5.199999809
697 0 -6.25 -6.5
698 0 -6.25 -7.800000191
699 0 -6.25 -9.100000381
700 0 -6.25 -10.39999962
701 -1.391000032 -6.092999935 -2.599999905
702 -1.391000032 -6.092999935 -1.299999952
703 -1.391000032 -6.092999935 -3.900000095
704 -1.391000032 -6.092999935 -5.199999809
705 -1.391000032 -6.092999935 -6.5
706 -1.391000032 -6.092999935 -7.800000191
707 -1.391000032 -6.092999935 -11.69999981
708 -2.711999893 -5.631000042 -2.599999905
709 -2.711999893 -5.631000042 -1.299999952
710 -2.711999893 -5.631000042 -3.900000095
711 -2.711999893 -5.631000042 -5.199999809
712 -2.711999893 -5.631000042 -6.5
713 -2.711999893 -5.631000042 -7.800000191
714 -2.711999893 -5.631000042 -11.69999981
715 -3.897000074 -4.886000156 -2.599999905
716 -3.897000074 -4.886000156 -1.299999952
717 -3.897000074 -4.886000156 -3.900000095
718 -3.897000074 -4.886000156 -5.199999809
719 -3.897000074 -4.886000156 -6.5
720 -3.897000074 -4.886000156 -7.800000191
721 -3.897000074 -4.886000156 -9.100000381
722 -3.897000074 -4.886000156 -10.39999962
723 -3.897000074 -4.886000156 -11.69999981
724 -4.886000156 -3.897000074 -2.599999905
725 -4.886000156 -3.897000074 -1.299999952
726 -4.886000156 -3.897000074 -3.900000095
727 -4.886000156 -3.897000074 -5.199999809
728 -4.886000156 -3.897000074 -6.5
729 -4.886000156 -3.897000074 -7.800000191
730 -4.886000156 -3.897000074 -9.100000381
731 -4.886000156 -3.897000074 -10.39999962
732 -4.886000156 -3.897000074 -11.69999981
733 -5.631000042 -2.711999893 -2.599999905
734 -5.631000042 -2.711999893 -1.299999952
735 -5.631000042 -2.711999893 -3.900000095
736 -5.631000042 -2.711999893 -5.199999809
737 -5.631000042 -2.711999893 -6.5
738 -5.631000042 -2.711999893 -7.800000191
739 -5.631000042 -2.711999893 -9.100000381
740 -5.631000042 -2.711999893 -10.39999962
741 -5.631000042 -2.711999893 -11.69999981
742 -6.092999935 -1.391000032 -2.599999905
743 -6.092999935 -1.391000032 -1.299999952
744 -6.092999935 -1.391000032 -3.900000095
745 -6.092999935 -1.391000032 -5.199999809
746 -6.092999935 -1.391000032 -6.5
747 -6.092999935 -1.391000032 -7.800000191
748 -6.092999935 -1.391000032 -9.100000381
749 -6.092999935 -1.391000032 -10.39999962
750 -6.092999935 -1.391000032 -11.69999981
751 -6.092999935 -1.391000032 -13
752 -4.688000202 -6.25 -18.83300018
753 -4.688000202 -6.25 -20
754 -6.25 -6.25 -18.83300018
755 -3.125999928 -6.25 -18.83300018
756 -1.56400001 -6.25 -18.83300018
757 -0.002000000095 -6.25 -18.83300018
758 -4.688000202 -6.25 -17.66699982
759 -6.25 -6.25 -17.66699982
760 -3.125999928 -6.25 -17.66699982
761 -1.56400001 -6.25 -17.66699982
762 -0.002000000095 -6.25 -17.66699982
763 -4.688000202 -6.25 -16.5
764 -6.25 -6.25 -16.5
765 -3.125999928 -6.25 -16.5
766 -1.56400001 -6.25 -16.5
767 -0.002000000095 -6.25 -16.5
768 -4.688000202 -6.25 -15.33300018
769 -6.25 -6.25 -15.33300018
770 -3.125999928 -6.25 -15.33300018
771 -1.56400001 -6.25 -15.33300018
772 -0.002000000095 -6.25 -15.33300018
773 -4.688000202 -6.25 -14.16699982
774 -6.25 -6.25 -14.16699982
775 -3.125999928 -6.25 -14.16699982
776 -1.56400001 -6.25 -14.16699982
777 -0.002000000095 -6.25 -14.16699982
778 -4.688000202 -6.25 -13
779 1.523000002 -0.34799999 -20
780 3.046999931 -0.6949999928 -20
781 4.570000172 -1.042999983 -20
782 6.092999935 -1.391000032 -20
783 1.407999992 -0.6779999733 -20
784 2.815999985 -1.355999947 -20
785 4.22300005 -2.03399992 -20
786 5.631000042 -2.711999893 -20
787 1.222000003 -0.9739999771 -20
788 2.443000078 -1.947999954 -20
789 0.9739999771 -1.222000003 -20
790 1.947999954 -2.443000078 -20
791 0.6779999733 -1.407999992 -20
792 1.355999947 -2.815999985 -20
793 0.34799999 -1.523000002 -20
794 0.6949999928 -3.046999931 -20
795 0 -1.562000036 -20
796 0 -3.125 -20
797 0 -4.686999798 -20
798 -0.34799999 -1.523000002 -20
799 -0.6949999928 -3.046999931 -20
800 -1.042999983 -4.570000172 -20
801 -0.6779999733 -1.407999992 -20
802 -1.355999947 -2.815999985 -20
803 -2.03399992 -4.22300005 -20
804 -2.711999893 -5.631000042 -20
805 -0.9739999771 -1.222000003 -20
806 -1.947999954 -2.443000078 -20
807 -2.923000097 -3.664999962 -20
808 -3.897000074 -4.886000156 -20
809 -1.222000003 -0.9739999771 -20
810 -2.443000078 -1.947999954 -20
811 -3.664999962 -2.923000097 -20
812 -4.886000156 -3.897000074 -20
813 -1.407999992 -0.6779999733 -20
814 -2.815999985 -1.355999947 -20
815 -4.22300005 -2.03399992 -20
816 -5.631000042 -2.711999893 -20
817 -1.523000002 -0.34799999 -20
818 -3.046999931 -0.6949999928 -20
819 -4.570000172 -1.042999983 -20
820 -6.092999935 -1.391000032 -20
821 6.092999935 -1.391000032 -14.16699982
822 6.092999935 -1.391000032 -15.33300018
823 6.092999935 -1.391000032 -16.5
824 6.092999935 -1.391000032 -17.66699982
825 6.092999935 -1.391000032 -18.83300018
826 5.631000042 -2.711999893 -14.16699982
827 5.631000042 -2.711999893 -15.33300018
828 5.631000042 -2.711999893 -16.5
829 5.631000042 -2.711999893 -17.66699982
830 5.631000042 -2.711999893 -18.83300018
831 4.886000156 -3.897000074 -14.16699982
832 4.886000156 -3.897000074 -15.33300018
833 4.886000156 -3.897000074 -16.5
834 4.886000156 -3.897000074 -17.66699982
835 4.886000156 -3.897000074 -18.83300018
836 3.895999908 -4.887000084 -14.16699982
837 3.895999908 -4.887000084 -15.33300018
838 3.895999908 -4.887000084 -16.5
839 3.895999908 -4.887000084 -17.66699982
840 3.895999908 -4.887000084 -18.83300018
841 2.710999966 -5.631999969 -14.16699982
842 2.710999966 -5.631999969 -15.33300018
843 2.710999966 -5.631999969 -16.5
844 2.710999966 -5.631999969 -17.66699982
845 2.710999966 -5.631999969 -18.83300018
846 1.389000058 -6.093999863 -14.16699982
847 1.389000058 -6.093999863 -15.33300018
848 1.389000058 -6.093999863 -16.5
849 1.389000058 -6.093999863 -17.66699982
850 1.389000058 -6.093999863 -18.83300018
851 -2.711999893 -5.631000042 -13
852 6.092999935 -1.391000032 0
853 5.631000042 -2.711999893 0
854 4.886000156 -3.897000074 0
855 3.897000074 -4.886000156 0
856 2.711999893 -5.631000042 0
857 1.391000032 -6.092999935 0
858 0 -6.25 0
859 -1.391000032 -6.092999935 0
860 -2.711999893 -5.631000042 0
861 -3.897000074 -4.886000156 0
862 -4.886000156 -3.897000074 0
863 -5.631000042 -2.711999893 0
864 -6.092999935 -1.391000032 0
865 -6.25 -0.625 -13
866 -6.171500206 -0.6955000162 -13
867 5.632999897 -2.711999893 14.30000019
868 5.631000042 -2.711999893 15
869 4.888000011 -3.897000074 14.30000019
870 4.886000156 -3.897000074 15
871 3.898999929 -4.886000156 14.30000019
872 3.897000074 -4.886000156 15
873 2.713999987 -5.631000042 14.30000019
874 2.711999893 -5.631000042 15
875 1.393000007 -6.092999935 14.30000019
876 1.391000032 -6.092999935 15
877 0.002000000095 -6.25 14.30000019
878 0 -6.25 15
879 -1.389000058 -6.092999935 14.30000019
880 -1.391000032 -6.092999935 15
881 -2.710000038 -5.631000042 14.30000019
882 -2.711999893 -5.631000042 15
883 -3.894999981 -4.886000156 14.30000019
884 -3.897000074 -4.886000156 15
885 -4.883999825 -3.897000074 14.30000019
886 -4.886000156 -3.897000074 15
887 -5.629000187 -2.711999893 14.30000019
888 -5.631000042 -2.711999893 15
889 6.09499979 -1.391000032 13
890 6.09499979 -1.391000032 11.69999981
891 5.632999897 -2.711999893 13
892 5.632999897 -2.711999893 11.69999981
893 4.888000011 -3.897000074 13
894 4.888000011 -3.897000074 11.69999981
895 3.898999929 -4.886000156 13
896 3.898999929 -4.886000156 11.69999981
897 2.713999987 -5.631000042 13
898 2.713999987 -5.631000042 11.69999981
899 1.393000007 -6.092999935 13
900 1.393000007 -6.092999935 11.69999981
901 0.002000000095 -6.25 13
902 0.002000000095 -6.25 11.69999981
903 -1.389000058 -6.092999935 13
904 -1.389000058 -6.092999935 11.69999981
905 -2.710000038 -5.631000042 13
906 -2.710000038 -5.631000042 11.69999981
907 -3.894999981 -4.886000156 13
908 -3.894999981 -4.886000156 11.69999981
909 -4.883999825 -3.897000074 13
910 -4.883999825 -3.897000074 11.69999981
911 -5.629000187 -2.711999893 13
912 -5.629000187 -2.711999893 11.69999981
913 -6.09100008 -1.391000032 13
914 -6.09100008 -1.391000032 11.69999981
915 -1.523000002 -0.34799999 15
916 -3.046999931 -0.6949999928 15
917 -4.570000172 -1.042999983 15
918 -2.815999985 -1.355999947 15
919 -4.22300005 -2.03399992 15
920 -1.407999992 -0.6779999733 15
921 -1.222000003 -0.9739999771 15
922 -3.664999962 -2.923000097 15
923 -0.9739999771 -1.222000003 15
924 -1.947999954 -2.443000078 15
925 -2.443000078 -1.947999954 15
926 -2.923000097 -3.664999962 15
927 -0.6779999733 -1.407999992 15
928 -0.34799999 -1.523000002 15
929 -0.6949999928 -3.046999931 15
930 -1.355999947 -2.815999985 15
931 -1.042999983 -4.570000172 15
932 -2.03399992 -4.22300005 15
933 0 -1.562000036 15
934 0 -3.125 15
935 0.6949999928 -3.046999931 15
936 1.042999983 -4.570000172 15
937 0 -4.686999798 15
938 0.34799999 -1.523000002 15
939 0.6779999733 -1.407999992 15
940 1.355999947 -2.815999985 15
941 2.03399992 -4.22300005 15
942 1.947999954 -2.443000078 15
943 2.923000097 -3.664999962 15
944 0.9739999771 -1.222000003 15
945 1.222000003 -0.9739999771 15
946 3.664999962 -2.923000097 15
947 1.407999992 -0.6779999733 15
948 2.815999985 -1.355999947 15
949 2.443000078 -1.947999954 15
950 1.523000002 -0.34799999 15
951 3.046999931 -0.6949999928 15
952 4.570000172 -1.042999983 15
953 4.22300005 -2.03399992 15
954 -6.09100008 -1.391000032 3.900000095
955 -6.09100008 -1.391000032 5.199999809
956 -6.09100008 -1.391000032 6.5
957 -6.09100008 -1.391000032 7.800000191
958 -6.09100008 -1.391000032 9.100000381
959 -6.09100008 -1.391000032 10.39999962
960 -5.629000187 -2.711999893 3.900000095
961 -5.629000187 -2.711999893 5.199999809
962 -5.629000187 -2.711999893 6.5
963 -5.629000187 -2.711999893 7.800000191
964 -5.629000187 -2.711999893 9.100000381
965 -5.629000187 -2.711999893 10.39999962
966 -4.883999825 -3.897000074 3.900000095
967 -4.883999825 -3.897000074 5.199999809
968 -4.883999825 -3.897000074 6.5
969 -4.883999825 -3.897000074 7.800000191
970 -4.883999825 -3.897000074 9.100000381
971 -4.883999825 -3.897000074 10.39999962
972 -3.894999981 -4.886000156 3.900000095
973 -3.894999981 -4.886000156 5.199999809
974 -3.894999981 -4.886000156 6.5
975 -3.894999981 -4.886000156 7.800000191
976 -3.894999981 -4.886000156 9.100000381
977 -3.894999981 -4.886000156 10.39999962
978 -2.710000038 -5.631000042 3.900000095
979 -2.710000038 -5.631000042 5.199999809
980 -2.710000038 -5.631000042 6.5
981 -2.710000038 -5.631000042 7.800000191
982 -2.710000038 -5.631000042 9.100000381
983 -2.710000038 -5.631000042 10.39999962
984 -1.389000058 -6.092999935 3.900000095
985 -1.389000058 -6.092999935 5.199999809
986 -1.389000058 -6.092999935 6.5
987 -1.389000058 -6.092999935 7.800000191
988 -1.389000058 -6.092999935 9.100000381
989 -1.389000058 -6.092999935 10.39999962
990 0.002000000095 -6.25 3.900000095
991 0.002000000095 -6.25 5.199999809
992 0.002000000095 -6.25 6.5
993 0.002000000095 -6.25 7.800000191
994 0.002000000095 -6.25 9.100000381
995 0.002000000095 -6.25 10.39999962
996 1.393000007 -6.092999935 3.900000095
997 1.393000007 -6.092999935 5.199999809
998 1.393000007 -6.092999935 6.5
999 1.393000007 -6.092999935 7.800000191
1000 1.393000007 -6.092999935 9.100000381
1001 1.393000007 -6.092999935 10.39999962
1002 2.713999987 -5.631000042 3.900000095
1003 2.713999987 -5.631000042 5.199999809
1004 2.713999987 -5.631000042 6.5
1005 2.713999987 -5.631000042 7.800000191
1006 2.713999987 -5.631000042 9.100000381
1007 2.713999987 -5.631000042 10.39999962
1008 3.898999929 -4.886000156 3.900000095
1009 3.898999929 -4.886000156 5.199999809
1010 3.898999929 -4.886000156 6.5
1011 3.898999929 -4.886000156 7.800000191
1012 3.898999929 -4.886000156 9.100000381
1013 3.898999929 -4.886000156 10.39999962
1014 4.888000011 -3.897000074 3.900000095
1015 4.888000011 -3.897000074 5.199999809
1016 4.888000011 -3.897000074 6.5
1017 4.888000011 -3.897000074 7.800000191
1018 4.888000011 -3.897000074 9.100000381
1019 4.888000011 -3.897000074 10.39999962
1020 5.632999897 -2.711999893 3.900000095
1021 5.632999897 -2.711999893 5.199999809
1022 5.632999897 -2.711999893 6.5
1023 5.632999897 -2.711999893 7.800000191
1024 5.632999897 -2.711999893 9.100000381
1025 5.632999897 -2.711999893 10.39999962
1026 6.09499979 -1.391000032 3.900000095
1027 6.09499979 -1.391000032 5.199999809
1028 6.09499979 -1.391000032 6.5
1029 6.09499979 -1.391000032 7.800000191
1030 6.09499979 -1.391000032 9.100000381
1031 6.09499979 -1.391000032 10.39999962
1032 -6.25 -0.625 -20
1033 -6.171500206 -0.6949999928 -20
$EndNodes
$Elements
2096
1 2 2 1 1 1 2 3
2 2 2 1 1 1 3 4
3 2 2 1 1 4 3 5
4 2 2 1 1 4 5 6
5 2 2 1 1 6 5 7
6 2 2 1 1 6 7 8
7 2 2 1 1 8 7 9
8 2 2 1 1 8 9 10
9 2 2 1 1 10 9 11
10 2 2 1 1 10 11 12
11 2 2 1 1 12 11 13
12 2 2 1 1 12 13 14
13 2 2 1 1 14 13 15
14 2 2 1 1 14 15 16
15 2 2 1 1 16 15 17
16 2 2 1 1 16 17 18
17 2 2 1 1 18 17 19
18 2 2 1 1 18 19 20
19 2 2 1 1 20 19 21
20 2 2 1 1 20 21 22
21 2 2 1 1 22 21 23
22 2 2 1 1 22 23 24
23 2 2 1 1 24 23 25
24 2 2 1 1 24 25 26
25 2 2 1 1 26 25 27
26 2 2 1 1 26 27 28
27 2 2 1 1 28 27 29
28 2 2 1 1 28 29 30
29 2 2 1 1 31 32 33
30 2 2 1 1 31 33 34
31 2 2 1 1 35 31 34
32 2 2 1 1 35 34 36
33 2 2 1 1 37 35 36
34 2 2 1 1 37 36 38
35 2 2 1 1 39 40 41
36 2 2 1 1 39 41 42
37 2 2 1 1 43 44 45
38 2 2 1 1 43 45 45
39 2 2 1 1 46 47 48
40 2 2 1 1 46 48 49
41 2 2 1 1 50 51 47
42 2 2 1 1 50 47 46
43 2 2 1 1 52 53 54
44 2 2 1 1 52 54 55
45 2 2 1 1 56 57 53
46 2 2 1 1 56 53 52
47 2 2 1 1 58 59 57
48 2 2 1 1 58 57 56
49 2 2 1 1 60 61 59
50 2 2 1 1 60 59 58
51 2 2 1 1 62 63 64
52 2 2 1 1 62 64 65
53 2 2 1 1 66 67 68
54 2 2 1 1 66 68 69
55 2 2 1 1 70 71 72
56 2 2 1 1 70 72 72
57 2 2 1 1 73 70 74
58 2 2 1 1 73 74 74
59 2 2 1 1 72 74 70
60 2 2 1 1 72 70 70
61 2 2 1 1 75 76 77
62 2 2 1 1 75 77 77
63 2 2 1 1 75 73 74
64 2 2 1 1 75 74 74
65 2 2 1 1 76 75 74
66 2 2 1 1 76 74 74
67 2 2 1 1 78 79 80
68 2 2 1 1 78 80 80
69 2 2 1 1 80 43 78
70 2 2 1 1 80 78 78
71 2 2 1 1 43 80 81
72 2 2 1 1 43 81 81
73 2 2 1 1 44 60 45
74 2 2 1 1 44 45 45
75 2 2 1 1 81 44 43
76 2 2 1 1 81 43 43
77 2 2 1 1 82 83 84
78 2 2 1 1 82 84 85
79 2 2 1 1 86 82 85
80 2 2 1 1 86 85 87
81 2 2 1 1 88 86 87
82 2 2 1 1 88 87 89
83 2 2 1 1 90 88 89
84 2 2 1 1 90 89 91
85 2 2 1 1 70 90 91
86 2 2 1 1 70 91 71
87 2 2 1 1 48 92 93
88 2 2 1 1 48 93 94
89 2 2 1 1 47 95 92
90 2 2 1 1 47 92 48
91 2 2 1 1 51 96 95
92 2 2 1 1 51 95 47
93 2 2 1 1 97 98 96
94 2 2 1 1 97 96 51
95 2 2 1 1 80 79 98
96 2 2 1 1 80 98 97
97 2 2 1 1 99 100 101
98 2 2 1 1 99 101 102
99 2 2 1 1 103 99 102
100 2 2 1 1 103 102 104
101 2 2 1 1 105 103 104
102 2 2 1 1 105 104 106
103 2 2 1 1 107 105 106
104 2 2 1 1 107 106 108
105 2 2 1 1 109 107 108
106 2 2 1 1 109 108 110
107 2 2 1 1 111 109 110
108 2 2 1 1 111 110 112
109 2 2 1 1 113 111 112
110 2 2 1 1 113 112 114
111 2 2 1 1 115 113 114
112 2 2 1 1 115 114 116
113 2 2 1 1 117 115 116
114 2 2 1 1 117 116 118
115 2 2 1 1 119 120 100
116 2 2 1 1 119 100 99
117 2 2 1 1 121 119 99
118 2 2 1 1 121 99 103
119 2 2 1 1 122 121 103
120 2 2 1 1 122 103 105
121 2 2 1 1 123 122 105
122 2 2 1 1 123 105 107
123 2 2 1 1 124 123 107
124 2 2 1 1 124 107 109
125 2 2 1 1 125 124 109
126 2 2 1 1 125 109 111
127 2 2 1 1 126 125 111
128 2 2 1 1 126 111 113
129 2 2 1 1 127 126 113
130 2 2 1 1 127 113 115
131 2 2 1 1 128 127 115
132 2 2 1 1 128 115 117
133 2 2 1 1 129 130 120
134 2 2 1 1 129 120 119
135 2 2 1 1 131 129 119
136 2 2 1 1 131 119 121
137 2 2 1 1 132 131 121
138 2 2 1 1 132 121 122
139 2 2 1 1 133 132 122
140 2 2 1 1 133 122 123
141 2 2 1 1 134 133 123
142 2 2 1 1 134 123 124
143 2 2 1 1 135 134 124
144 2 2 1 1 135 124 125
145 2 2 1 1 136 135 125
146 2 2 1 1 136 125 126
147 2 2 1 1 54 136 126
148 2 2 1 1 54 126 127
149 2 2 1 1 55 54 127
150 2 2 1 1 55 127 128
151 2 2 1 1 137 138 130
152 2 2 1 1 137 130 129
153 2 2 1 1 139 137 129
154 2 2 1 1 139 129 131
155 2 2 1 1 140 139 131
156 2 2 1 1 140 131 132
157 2 2 1 1 141 140 132
158 2 2 1 1 141 132 133
159 2 2 1 1 142 141 133
160 2 2 1 1 142 133 134
161 2 2 1 1 143 142 134
162 2 2 1 1 143 134 135
163 2 2 1 1 144 143 135
164 2 2 1 1 144 135 136
165 2 2 1 1 53 144 136
166 2 2 1 1 53 136 54
167 2 2 1 1 145 146 138
168 2 2 1 1 145 138 137
169 2 2 1 1 147 145 137
170 2 2 1 1 147 137 139
171 2 2 1 1 148 147 139
172 2 2 1 1 148 139 140
173 2 2 1 1 149 148 140
174 2 2 1 1 149 140 141
175 2 2 1 1 150 149 141
176 2 2 1 1 150 141 142
177 2 2 1 1 151 150 142
178 2 2 1 1 151 142 143
179 2 2 1 1 152 151 143
180 2 2 1 1 152 143 144
181 2 2 1 1 57 152 144
182 2 2 1 1 57 144 53
183 2 2 1 1 153 154 146
184 2 2 1 1 153 146 145
185 2 2 1 1 155 153 145
186 2 2 1 1 155 145 147
187 2 2 1 1 156 155 147
188 2 2 1 1 156 147 148
189 2 2 1 1 157 156 148
190 2 2 1 1 157 148 149
191 2 2 1 1 158 157 149
192 2 2 1 1 158 149 150
193 2 2 1 1 159 158 150
194 2 2 1 1 159 150 151
195 2 2 1 1 160 159 151
196 2 2 1 1 160 151 152
197 2 2 1 1 59 160 152
198 2 2 1 1 59 152 57
199 2 2 1 1 161 162 154
200 2 2 1 1 161 154 153
201 2 2 1 1 163 161 153
202 2 2 1 1 163 153 155
203 2 2 1 1 164 163 155
204 2 2 1 1 164 155 156
205 2 2 1 1 165 164 156
206 2 2 1 1 165 156 157
207 2 2 1 1 166 165 157
208 2 2 1 1 166 157 158
209 2 2 1 1 167 166 158
210 2 2 1 1 167 158 159
211 2 2 1 1 168 167 159
212 2 2 1 1 168 159 160
213 2 2 1 1 61 168 160
214 2 2 1 1 61 160 59
215 2 2 1 1 169 170 162
216 2 2 1 1 169 162 161
217 2 2 1 1 171 169 161
218 2 2 1 1 171 161 163
219 2 2 1 1 172 171 163
220 2 2 1 1 172 163 164
221 2 2 1 1 173 172 164
222 2 2 1 1 173 164 165
223 2 2 1 1 174 173 165
224 2 2 1 1 174 165 166
225 2 2 1 1 41 174 166
226 2 2 1 1 41 166 167
227 2 2 1 1 42 41 167
228 2 2 1 1 42 167 168
229 2 2 1 1 175 42 168
230 2 2 1 1 175 168 61
231 2 2 1 1 176 177 170
232 2 2 1 1 176 170 169
233 2 2 1 1 178 176 169
234 2 2 1 1 178 169 171
235 2 2 1 1 179 178 171
236 2 2 1 1 179 171 172
237 2 2 1 1 180 179 172
238 2 2 1 1 180 172 173
239 2 2 1 1 181 180 173
240 2 2 1 1 181 173 174
241 2 2 1 1 40 181 174
242 2 2 1 1 40 174 41
243 2 2 1 1 182 39 42
244 2 2 1 1 182 42 175
245 2 2 1 1 183 184 177
246 2 2 1 1 183 177 176
247 2 2 1 1 185 183 176
248 2 2 1 1 185 176 178
249 2 2 1 1 186 185 178
250 2 2 1 1 186 178 179
251 2 2 1 1 187 186 179
252 2 2 1 1 187 179 180
253 2 2 1 1 188 187 180
254 2 2 1 1 188 180 181
255 2 2 1 1 189 188 181
256 2 2 1 1 189 181 40
257 2 2 1 1 190 189 40
258 2 2 1 1 190 40 39
259 2 2 1 1 191 190 39
260 2 2 1 1 191 39 182
261 2 2 1 1 192 193 184
262 2 2 1 1 192 184 183
263 2 2 1 1 194 192 183
264 2 2 1 1 194 183 185
265 2 2 1 1 195 194 185
266 2 2 1 1 195 185 186
267 2 2 1 1 196 195 186
268 2 2 1 1 196 186 187
269 2 2 1 1 197 196 187
270 2 2 1 1 197 187 188
271 2 2 1 1 198 197 188
272 2 2 1 1 198 188 189
273 2 2 1 1 199 198 189
274 2 2 1 1 199 189 190
275 2 2 1 1 200 199 190
276 2 2 1 1 200 190 191
277 2 2 1 1 201 202 193
278 2 2 1 1 201 193 192
279 2 2 1 1 203 201 192
280 2 2 1 1 203 192 194
281 2 2 1 1 204 203 194
282 2 2 1 1 204 194 195
283 2 2 1 1 205 204 195
284 2 2 1 1 205 195 196
285 2 2 1 1 206 205 196
286 2 2 1 1 206 196 197
287 2 2 1 1 207 206 197
288 2 2 1 1 207 197 198
289 2 2 1 1 208 207 198
290 2 2 1 1 208 198 199
291 2 2 1 1 209 208 199
292 2 2 1 1 209 199 200
293 2 2 1 1 49 209 200
294 2 2 1 1 49 200 46
295 2 2 1 1 210 211 202
296 2 2 1 1 210 202 201
297 2 2 1 1 212 210 201
298 2 2 1 1 212 201 203
299 2 2 1 1 213 212 203
300 2 2 1 1 213 203 204
301 2 2 1 1 214 213 204
302 2 2 1 1 214 204 205
303 2 2 1 1 215 214 205
304 2 2 1 1 215 205 206
305 2 2 1 1 216 215 206
306 2 2 1 1 216 206 207
307 2 2 1 1 217 216 207
308 2 2 1 1 217 207 208
309 2 2 1 1 218 217 208
310 2 2 1 1 218 208 209
311 2 2 1 1 219 218 209
312 2 2 1 1 219 209 49
313 2 2 1 1 220 221 211
314 2 2 1 1 220 211 210
315 2 2 1 1 222 220 210
316 2 2 1 1 222 210 212
317 2 2 1 1 223 222 212
318 2 2 1 1 223 212 213
319 2 2 1 1 224 223 213
320 2 2 1 1 224 213 214
321 2 2 1 1 225 224 214
322 2 2 1 1 225 214 215
323 2 2 1 1 226 225 215
324 2 2 1 1 226 215 216
325 2 2 1 1 227 226 216
326 2 2 1 1 227 216 217
327 2 2 1 1 228 227 217
328 2 2 1 1 228 217 218
329 2 2 1 1 229 228 218
330 2 2 1 1 229 218 219
331 2 2 1 1 230 231 91
332 2 2 1 1 230 91 232
333 2 2 1 1 233 71 231
334 2 2 1 1 233 231 230
335 2 2 1 1 234 74 71
336 2 2 1 1 234 71 233
337 2 2 1 1 235 77 74
338 2 2 1 1 235 74 234
339 2 2 1 1 236 230 232
340 2 2 1 1 236 232 237
341 2 2 1 1 238 233 230
342 2 2 1 1 238 230 236
343 2 2 1 1 239 234 233
344 2 2 1 1 239 233 238
345 2 2 1 1 240 235 234
346 2 2 1 1 240 234 239
347 2 2 1 1 241 236 237
348 2 2 1 1 241 237 242
349 2 2 1 1 243 238 236
350 2 2 1 1 243 236 241
351 2 2 1 1 244 239 238
352 2 2 1 1 244 238 243
353 2 2 1 1 245 240 239
354 2 2 1 1 245 239 244
355 2 2 1 1 246 241 242
356 2 2 1 1 246 242 247
357 2 2 1 1 248 243 241
358 2 2 1 1 248 241 246
359 2 2 1 1 249 244 243
360 2 2 1 1 249 243 248
361 2 2 1 1 250 245 244
362 2 2 1 1 250 244 249
363 2 2 1 1 251 246 247
364 2 2 1 1 251 247 252
365 2 2 1 1 253 248 246
366 2 2 1 1 253 246 251
367 2 2 1 1 254 249 248
368 2 2 1 1 254 248 253
369 2 2 1 1 255 250 249
370 2 2 1 1 255 249 254
371 2 2 1 1 256 251 252
372 2 2 1 1 256 252 98
373 2 2 1 1 79 253 251
374 2 2 1 1 79 251 256
375 2 2 1 1 43 254 253
376 2 2 1 1 43 253 79
377 2 2 1 1 60 255 254
378 2 2 1 1 60 254 43
379 2 2 1 1 257 258 259
380 2 2 1 1 257 259 259
381 2 2 1 1 260 261 257
382 2 2 1 1 260 257 259
383 2 2 1 1 262 263 261
384 2 2 1 1 262 261 260
385 2 2 1 1 264 265 263
386 2 2 1 1 264 263 262
387 2 2 1 1 259 258 266
388 2 2 1 1 259 266 266
389 2 2 1 1 267 260 259
390 2 2 1 1 267 259 266
391 2 2 1 1 268 262 260
392 2 2 1 1 268 260 267
393 2 2 1 1 269 264 262
394 2 2 1 1 269 262 268
395 2 2 1 1 266 258 270
396 2 2 1 1 266 270 270
397 2 2 1 1 271 267 266
398 2 2 1 1 271 266 270
399 2 2 1 1 33 268 267
400 2 2 1 1 33 267 271
401 2 2 1 1 32 269 268
402 2 2 1 1 32 268 33
403 2 2 1 1 270 258 272
404 2 2 1 1 270 272 272
405 2 2 1 1 273 271 270
406 2 2 1 1 273 270 272
407 2 2 1 1 34 33 271
408 2 2 1 1 34 271 273
409 2 2 1 1 272 258 274
410 2 2 1 1 272 274 274
411 2 2 1 1 275 273 272
412 2 2 1 1 275 272 274
413 2 2 1 1 36 34 273
414 2 2 1 1 36 273 275
415 2 2 1 1 274 258 276
416 2 2 1 1 274 276 276
417 2 2 1 1 277 275 274
418 2 2 1 1 277 274 276
419 2 2 1 1 38 36 275
420 2 2 1 1 38 275 277
421 2 2 1 1 276 258 278
422 2 2 1 1 276 278 278
423 2 2 1 1 279 277 276
424 2 2 1 1 279 276 278
425 2 2 1 1 280 38 277
426 2 2 1 1 280 277 279
427 2 2 1 1 278 258 281
428 2 2 1 1 278 281 281
429 2 2 1 1 282 279 278
430 2 2 1 1 282 278 281
431 2 2 1 1 283 280 279
432 2 2 1 1 283 279 282
433 2 2 1 1 281 258 284
434 2 2 1 1 281 284 284
435 2 2 1 1 285 282 281
436 2 2 1 1 285 281 284
437 2 2 1 1 286 283 282
438 2 2 1 1 286 282 285
439 2 2 1 1 287 73 283
440 2 2 1 1 287 283 286
441 2 2 1 1 284 258 288
442 2 2 1 1 284 288 288
443 2 2 1 1 289 285 284
444 2 2 1 1 289 284 288
445 2 2 1 1 290 286 285
446 2 2 1 1 290 285 289
447 2 2 1 1 291 287 286
448 2 2 1 1 291 286 290
449 2 2 1 1 288 258 292
450 2 2 1 1 288 292 292
451 2 2 1 1 293 289 288
452 2 2 1 1 293 288 292
453 2 2 1 1 294 290 289
454 2 2 1 1 294 289 293
455 2 2 1 1 295 291 290
456 2 2 1 1 295 290 294
457 2 2 1 1 292 258 296
458 2 2 1 1 292 296 296
459 2 2 1 1 297 293 292
460 2 2 1 1 297 292 296
461 2 2 1 1 298 294 293
462 2 2 1 1 298 293 297
463 2 2 1 1 299 295 294
464 2 2 1 1 299 294 298
465 2 2 1 1 296 258 300
466 2 2 1 1 296 300 300
467 2 2 1 1 301 297 296
468 2 2 1 1 301 296 300
469 2 2 1 1 302 298 297
470 2 2 1 1 302 297 301
471 2 2 1 1 303 299 298
472 2 2 1 1 303 298 302
473 2 2 1 1 300 258 304
474 2 2 1 1 300 304 304
475 2 2 1 1 305 301 300
476 2 2 1 1 305 300 304
477 2 2 1 1 306 302 301
478 2 2 1 1 306 301 305
479 2 2 1 1 307 303 302
480 2 2 1 1 307 302 306
481 2 2 1 1 308 117 118
482 2 2 1 1 308 118 309
483 2 2 1 1 310 308 309
484 2 2 1 1 310 309 311
485 2 2 1 1 312 310 311
486 2 2 1 1 312 311 313
487 2 2 1 1 314 312 313
488 2 2 1 1 314 313 315
489 2 2 1 1 316 314 315
490 2 2 1 1 316 315 317
491 2 2 1 1 264 316 317
492 2 2 1 1 264 317 265
493 2 2 1 1 318 128 117
494 2 2 1 1 318 117 308
495 2 2 1 1 319 318 308
496 2 2 1 1 319 308 310
497 2 2 1 1 320 319 310
498 2 2 1 1 320 310 312
499 2 2 1 1 321 320 312
500 2 2 1 1 321 312 314
501 2 2 1 1 322 321 314
502 2 2 1 1 322 314 316
503 2 2 1 1 269 322 316
504 2 2 1 1 269 316 264
505 2 2 1 1 323 55 128
506 2 2 1 1 323 128 318
507 2 2 1 1 324 323 318
508 2 2 1 1 324 318 319
509 2 2 1 1 325 324 319
510 2 2 1 1 325 319 320
511 2 2 1 1 326 325 320
512 2 2 1 1 326 320 321
513 2 2 1 1 327 326 321
514 2 2 1 1 327 321 322
515 2 2 1 1 32 327 322
516 2 2 1 1 32 322 269
517 2 2 1 1 328 52 55
518 2 2 1 1 328 55 323
519 2 2 1 1 329 328 323
520 2 2 1 1 329 323 324
521 2 2 1 1 330 329 324
522 2 2 1 1 330 324 325
523 2 2 1 1 331 330 325
524 2 2 1 1 331 325 326
525 2 2 1 1 332 331 326
526 2 2 1 1 332 326 327
527 2 2 1 1 31 332 327
528 2 2 1 1 31 327 32
529 2 2 1 1 333 56 52
530 2 2 1 1 333 52 328
531 2 2 1 1 334 333 328
532 2 2 1 1 334 328 329
533 2 2 1 1 335 334 329
534 2 2 1 1 335 329 330
535 2 2 1 1 336 335 330
536 2 2 1 1 336 330 331
537 2 2 1 1 337 336 331
538 2 2 1 1 337 331 332
539 2 2 1 1 35 337 332
540 2 2 1 1 35 332 31
541 2 2 1 1 338 58 56
542 2 2 1 1 338 56 333
543 2 2 1 1 339 338 333
544 2 2 1 1 339 333 334
545 2 2 1 1 340 339 334
546 2 2 1 1 340 334 335
547 2 2 1 1 341 340 335
548 2 2 1 1 341 335 336
549 2 2 1 1 342 341 336
550 2 2 1 1 342 336 337
551 2 2 1 1 37 342 337
552 2 2 1 1 37 337 35
553 2 2 1 1 255 60 58
554 2 2 1 1 255 58 338
555 2 2 1 1 250 255 338
556 2 2 1 1 250 338 339
557 2 2 1 1 245 250 339
558 2 2 1 1 245 339 340
559 2 2 1 1 240 245 340
560 2 2 1 1 240 340 341
561 2 2 1 1 235 240 341
562 2 2 1 1 235 341 342
563 2 2 1 1 77 235 342
564 2 2 1 1 77 342 37
565 2 2 1 1 49 48 94
566 2 2 1 1 49 94 219
567 2 2 1 1 46 200 191
568 2 2 1 1 46 191 50
569 2 2 1 1 50 191 182
570 2 2 1 1 50 182 343
571 2 2 1 1 343 97 51
572 2 2 1 1 343 51 50
573 2 2 1 1 81 80 97
574 2 2 1 1 81 97 343
575 2 2 1 1 343 182 175
576 2 2 1 1 343 175 81
577 2 2 1 1 81 175 61
578 2 2 1 1 81 61 60
579 2 2 1 1 73 77 280
580 2 2 1 1 73 280 283
581 2 2 1 1 77 37 38
582 2 2 1 1 77 38 280
583 2 2 1 1 73 287 90
584 2 2 1 1 73 90 70
585 2 2 1 1 287 291 88
586 2 2 1 1 287 88 90
587 2 2 1 1 291 295 86
588 2 2 1 1 291 86 88
589 2 2 1 1 295 299 82
590 2 2 1 1 295 82 86
591 2 2 1 1 299 303 83
592 2 2 1 1 299 83 82
593 2 2 1 1 344 28 30
594 2 2 1 1 344 30 345
595 2 2 1 1 100 344 345
596 2 2 1 1 100 345 101
597 2 2 1 1 346 26 28
598 2 2 1 1 346 28 344
599 2 2 1 1 120 346 344
600 2 2 1 1 120 344 100
601 2 2 1 1 347 24 26
602 2 2 1 1 347 26 346
603 2 2 1 1 130 347 346
604 2 2 1 1 130 346 120
605 2 2 1 1 348 22 24
606 2 2 1 1 348 24 347
607 2 2 1 1 138 348 347
608 2 2 1 1 138 347 130
609 2 2 1 1 349 20 22
610 2 2 1 1 349 22 348
611 2 2 1 1 146 349 348
612 2 2 1 1 146 348 138
613 2 2 1 1 350 18 20
614 2 2 1 1 350 20 349
615 2 2 1 1 154 350 349
616 2 2 1 1 154 349 146
617 2 2 1 1 351 16 18
618 2 2 1 1 351 18 350
619 2 2 1 1 162 351 350
620 2 2 1 1 162 350 154
621 2 2 1 1 352 14 16
622 2 2 1 1 352 16 351
623 2 2 1 1 170 352 351
624 2 2 1 1 170 351 162
625 2 2 1 1 353 12 14
626 2 2 1 1 353 14 352
627 2 2 1 1 177 353 352
628 2 2 1 1 177 352 170
629 2 2 1 1 354 10 12
630 2 2 1 1 354 12 353
631 2 2 1 1 184 354 353
632 2 2 1 1 184 353 177
633 2 2 1 1 355 8 10
634 2 2 1 1 355 10 354
635 2 2 1 1 193 355 354
636 2 2 1 1 193 354 184
637 2 2 1 1 356 6 8
638 2 2 1 1 356 8 355
639 2 2 1 1 202 356 355
640 2 2 1 1 202 355 193
641 2 2 1 1 357 4 6
642 2 2 1 1 357 6 356
643 2 2 1 1 211 357 356
644 2 2 1 1 211 356 202
645 2 2 1 1 358 1 4
646 2 2 1 1 358 4 357
647 2 2 1 1 221 358 357
648 2 2 1 1 221 357 211
649 2 2 1 1 359 360 93
650 2 2 1 1 359 93 93
651 2 2 1 1 219 93 360
652 2 2 1 1 219 360 360
653 2 2 1 1 360 359 229
654 2 2 1 1 360 229 229
655 2 2 1 1 361 362 63
656 2 2 1 1 361 63 62
657 2 2 1 1 363 364 362
658 2 2 1 1 363 362 361
659 2 2 1 1 365 366 364
660 2 2 1 1 365 364 363
661 2 2 1 1 367 368 366
662 2 2 1 1 367 366 365
663 2 2 1 1 369 370 368
664 2 2 1 1 369 368 367
665 2 2 1 1 371 372 370
666 2 2 1 1 371 370 369
667 2 2 1 1 373 374 372
668 2 2 1 1 373 372 371
669 2 2 1 1 375 376 374
670 2 2 1 1 375 374 373
671 2 2 1 1 377 378 376
672 2 2 1 1 377 376 375
673 2 2 1 1 379 380 378
674 2 2 1 1 379 378 377
675 2 2 1 1 381 382 380
676 2 2 1 1 381 380 379
677 2 2 1 1 69 68 382
678 2 2 1 1 69 382 381
679 2 2 1 1 383 62 65
680 2 2 1 1 383 65 384
681 2 2 1 1 385 383 384
682 2 2 1 1 385 384 386
683 2 2 1 1 387 361 62
684 2 2 1 1 387 62 383
685 2 2 1 1 388 387 383
686 2 2 1 1 388 383 385
687 2 2 1 1 389 363 361
688 2 2 1 1 389 361 387
689 2 2 1 1 390 389 387
690 2 2 1 1 390 387 388
691 2 2 1 1 391 365 363
692 2 2 1 1 391 363 389
693 2 2 1 1 392 391 389
694 2 2 1 1 392 389 390
695 2 2 1 1 393 367 365
696 2 2 1 1 393 365 391
697 2 2 1 1 394 393 391
698 2 2 1 1 394 391 392
699 2 2 1 1 395 369 367
700 2 2 1 1 395 367 393
701 2 2 1 1 396 395 393
702 2 2 1 1 396 393 394
703 2 2 1 1 397 371 369
704 2 2 1 1 397 369 395
705 2 2 1 1 398 397 395
706 2 2 1 1 398 395 396
707 2 2 1 1 399 373 371
708 2 2 1 1 399 371 397
709 2 2 1 1 400 399 397
710 2 2 1 1 400 397 398
711 2 2 1 1 401 375 373
712 2 2 1 1 401 373 399
713 2 2 1 1 402 401 399
714 2 2 1 1 402 399 400
715 2 2 1 1 403 377 375
716 2 2 1 1 403 375 401
717 2 2 1 1 404 403 401
718 2 2 1 1 404 401 402
719 2 2 1 1 405 379 377
720 2 2 1 1 405 377 403
721 2 2 1 1 406 405 403
722 2 2 1 1 406 403 404
723 2 2 1 1 407 381 379
724 2 2 1 1 407 379 405
725 2 2 1 1 408 407 405
726 2 2 1 1 408 405 406
727 2 2 1 1 409 69 381
728 2 2 1 1 409 381 407
729 2 2 1 1 410 409 407
730 2 2 1 1 410 407 408
731 2 2 1 1 411 66 69
732 2 2 1 1 411 69 409
733 2 2 1 1 412 411 409
734 2 2 1 1 412 409 410
735 2 2 1 1 413 414 415
736 2 2 1 1 413 415 415
737 2 2 1 1 413 415 416
738 2 2 1 1 413 416 417
739 2 2 1 1 417 416 418
740 2 2 1 1 417 418 419
741 2 2 1 1 419 418 68
742 2 2 1 1 419 68 67
743 2 2 1 1 416 420 421
744 2 2 1 1 416 421 418
745 2 2 1 1 418 421 382
746 2 2 1 1 418 382 68
747 2 2 1 1 422 414 423
748 2 2 1 1 422 423 423
749 2 2 1 1 421 424 380
750 2 2 1 1 421 380 382
751 2 2 1 1 423 414 425
752 2 2 1 1 423 425 425
753 2 2 1 1 423 425 426
754 2 2 1 1 423 426 427
755 2 2 1 1 424 428 378
756 2 2 1 1 424 378 380
757 2 2 1 1 425 414 429
758 2 2 1 1 425 429 429
759 2 2 1 1 429 414 430
760 2 2 1 1 429 430 430
761 2 2 1 1 429 430 431
762 2 2 1 1 429 431 432
763 2 2 1 1 432 431 433
764 2 2 1 1 432 433 434
765 2 2 1 1 434 433 374
766 2 2 1 1 434 374 376
767 2 2 1 1 430 414 435
768 2 2 1 1 430 435 435
769 2 2 1 1 430 435 436
770 2 2 1 1 430 436 431
771 2 2 1 1 436 437 438
772 2 2 1 1 436 438 439
773 2 2 1 1 439 438 370
774 2 2 1 1 439 370 372
775 2 2 1 1 440 414 441
776 2 2 1 1 440 441 441
777 2 2 1 1 440 441 442
778 2 2 1 1 440 442 437
779 2 2 1 1 437 442 443
780 2 2 1 1 437 443 438
781 2 2 1 1 438 443 368
782 2 2 1 1 438 368 370
783 2 2 1 1 442 444 445
784 2 2 1 1 442 445 443
785 2 2 1 1 446 414 447
786 2 2 1 1 446 447 447
787 2 2 1 1 445 448 364
788 2 2 1 1 445 364 366
789 2 2 1 1 447 449 450
790 2 2 1 1 447 450 451
791 2 2 1 1 449 414 452
792 2 2 1 1 449 452 452
793 2 2 1 1 450 453 454
794 2 2 1 1 450 454 455
795 2 2 1 1 455 454 63
796 2 2 1 1 455 63 362
797 2 2 1 1 452 414 456
798 2 2 1 1 452 456 456
799 2 2 1 1 452 456 457
800 2 2 1 1 452 457 453
801 2 2 1 1 453 457 458
802 2 2 1 1 453 458 454
803 2 2 1 1 454 458 64
804 2 2 1 1 454 64 63
805 2 2 1 1 415 414 422
806 2 2 1 1 415 422 422
807 2 2 1 1 415 422 420
808 2 2 1 1 415 420 416
809 2 2 1 1 422 423 427
810 2 2 1 1 422 427 420
811 2 2 1 1 420 427 424
812 2 2 1 1 420 424 421
813 2 2 1 1 427 426 428
814 2 2 1 1 427 428 424
815 2 2 1 1 425 429 432
816 2 2 1 1 425 432 426
817 2 2 1 1 426 432 434
818 2 2 1 1 426 434 428
819 2 2 1 1 428 434 376
820 2 2 1 1 428 376 378
821 2 2 1 1 431 436 439
822 2 2 1 1 431 439 433
823 2 2 1 1 433 439 372
824 2 2 1 1 433 372 374
825 2 2 1 1 435 414 440
826 2 2 1 1 435 440 440
827 2 2 1 1 435 440 437
828 2 2 1 1 435 437 436
829 2 2 1 1 441 414 446
830 2 2 1 1 441 446 446
831 2 2 1 1 441 446 444
832 2 2 1 1 441 444 442
833 2 2 1 1 443 445 366
834 2 2 1 1 443 366 368
835 2 2 1 1 446 447 451
836 2 2 1 1 446 451 444
837 2 2 1 1 444 451 448
838 2 2 1 1 444 448 445
839 2 2 1 1 447 414 449
840 2 2 1 1 447 449 449
841 2 2 1 1 451 450 455
842 2 2 1 1 451 455 448
843 2 2 1 1 448 455 362
844 2 2 1 1 448 362 364
845 2 2 1 1 449 452 453
846 2 2 1 1 449 453 450
847 2 2 1 1 2 459 460
848 2 2 1 1 2 460 3
849 2 2 1 1 459 461 462
850 2 2 1 1 459 462 460
851 2 2 1 1 461 463 464
852 2 2 1 1 461 464 462
853 2 2 1 1 463 465 466
854 2 2 1 1 463 466 464
855 2 2 1 1 465 467 468
856 2 2 1 1 465 468 466
857 2 2 1 1 467 469 470
858 2 2 1 1 467 470 468
859 2 2 1 1 469 412 410
860 2 2 1 1 469 410 470
861 2 2 1 1 3 460 471
862 2 2 1 1 3 471 5
863 2 2 1 1 460 462 472
864 2 2 1 1 460 472 471
865 2 2 1 1 462 464 473
866 2 2 1 1 462 473 472
867 2 2 1 1 464 466 474
868 2 2 1 1 464 474 473
869 2 2 1 1 466 468 475
870 2 2 1 1 466 475 474
871 2 2 1 1 468 470 476
872 2 2 1 1 468 476 475
873 2 2 1 1 470 410 408
874 2 2 1 1 470 408 476
875 2 2 1 1 5 471 477
876 2 2 1 1 5 477 7
877 2 2 1 1 471 472 478
878 2 2 1 1 471 478 477
879 2 2 1 1 472 473 479
880 2 2 1 1 472 479 478
881 2 2 1 1 473 474 480
882 2 2 1 1 473 480 479
883 2 2 1 1 474 475 481
884 2 2 1 1 474 481 480
885 2 2 1 1 475 476 482
886 2 2 1 1 475 482 481
887 2 2 1 1 476 408 406
888 2 2 1 1 476 406 482
889 2 2 1 1 7 477 483
890 2 2 1 1 7 483 9
891 2 2 1 1 477 478 484
892 2 2 1 1 477 484 483
893 2 2 1 1 478 479 485
894 2 2 1 1 478 485 484
895 2 2 1 1 479 480 486
896 2 2 1 1 479 486 485
897 2 2 1 1 480 481 487
898 2 2 1 1 480 487 486
899 2 2 1 1 481 482 488
900 2 2 1 1 481 488 487
901 2 2 1 1 482 406 404
902 2 2 1 1 482 404 488
903 2 2 1 1 9 483 489
904 2 2 1 1 9 489 11
905 2 2 1 1 483 484 490
906 2 2 1 1 483 490 489
907 2 2 1 1 484 485 491
908 2 2 1 1 484 491 490
909 2 2 1 1 485 486 492
910 2 2 1 1 485 492 491
911 2 2 1 1 486 487 493
912 2 2 1 1 486 493 492
913 2 2 1 1 487 488 494
914 2 2 1 1 487 494 493
915 2 2 1 1 488 404 402
916 2 2 1 1 488 402 494
917 2 2 1 1 11 489 495
918 2 2 1 1 11 495 13
919 2 2 1 1 489 490 496
920 2 2 1 1 489 496 495
921 2 2 1 1 490 491 497
922 2 2 1 1 490 497 496
923 2 2 1 1 491 492 498
924 2 2 1 1 491 498 497
925 2 2 1 1 492 493 499
926 2 2 1 1 492 499 498
927 2 2 1 1 493 494 500
928 2 2 1 1 493 500 499
929 2 2 1 1 494 402 400
930 2 2 1 1 494 400 500
931 2 2 1 1 13 495 501
932 2 2 1 1 13 501 15
933 2 2 1 1 495 496 502
934 2 2 1 1 495 502 501
935 2 2 1 1 496 497 503
936 2 2 1 1 496 503 502
937 2 2 1 1 497 498 504
938 2 2 1 1 497 504 503
939 2 2 1 1 498 499 505
940 2 2 1 1 498 505 504
941 2 2 1 1 499 500 506
942 2 2 1 1 499 506 505
943 2 2 1 1 500 400 398
944 2 2 1 1 500 398 506
945 2 2 1 1 15 501 507
946 2 2 1 1 15 507 17
947 2 2 1 1 501 502 508
948 2 2 1 1 501 508 507
949 2 2 1 1 502 503 509
950 2 2 1 1 502 509 508
951 2 2 1 1 503 504 510
952 2 2 1 1 503 510 509
953 2 2 1 1 504 505 511
954 2 2 1 1 504 511 510
955 2 2 1 1 505 506 512
956 2 2 1 1 505 512 511
957 2 2 1 1 506 398 396
958 2 2 1 1 506 396 512
959 2 2 1 1 17 507 513
960 2 2 1 1 17 513 19
961 2 2 1 1 507 508 514
962 2 2 1 1 507 514 513
963 2 2 1 1 508 509 515
964 2 2 1 1 508 515 514
965 2 2 1 1 509 510 516
966 2 2 1 1 509 516 515
967 2 2 1 1 510 511 517
968 2 2 1 1 510 517 516
969 2 2 1 1 511 512 518
970 2 2 1 1 511 518 517
971 2 2 1 1 512 396 394
972 2 2 1 1 512 394 518
973 2 2 1 1 19 513 519
974 2 2 1 1 19 519 21
975 2 2 1 1 513 514 520
976 2 2 1 1 513 520 519
977 2 2 1 1 514 515 521
978 2 2 1 1 514 521 520
979 2 2 1 1 515 516 522
980 2 2 1 1 515 522 521
981 2 2 1 1 516 517 523
982 2 2 1 1 516 523 522
983 2 2 1 1 517 518 524
984 2 2 1 1 517 524 523
985 2 2 1 1 518 394 392
986 2 2 1 1 518 392 524
987 2 2 1 1 21 519 525
988 2 2 1 1 21 525 23
989 2 2 1 1 519 520 526
990 2 2 1 1 519 526 525
991 2 2 1 1 520 521 527
992 2 2 1 1 520 527 526
993 2 2 1 1 521 522 528
994 2 2 1 1 521 528 527
995 2 2 1 1 522 523 529
996 2 2 1 1 522 529 528
997 2 2 1 1 523 524 530
998 2 2 1 1 523 530 529
999 2 2 1 1 524 392 390
1000 2 2 1 1 524 390 530
1001 2 2 1 1 23 525 531
1002 2 2 1 1 23 531 25
1003 2 2 1 1 525 526 532
1004 2 2 1 1 525 532 531
1005 2 2 1 1 526 527 533
1006 2 2 1 1 526 533 532
1007 2 2 1 1 527 528 534
1008 2 2 1 1 527 534 533
1009 2 2 1 1 528 529 535
1010 2 2 1 1 528 535 534
1011 2 2 1 1 529 530 536
1012 2 2 1 1 529 536 535
1013 2 2 1 1 530 390 388
1014 2 2 1 1 530 388 536
1015 2 2 1 1 25 531 537
1016 2 2 1 1 25 537 27
1017 2 2 1 1 531 532 538
1018 2 2 1 1 531 538 537
1019 2 2 1 1 532 533 539
1020 2 2 1 1 532 539 538
1021 2 2 1 1 533 534 540
1022 2 2 1 1 533 540 539
1023 2 2 1 1 534 535 541
1024 2 2 1 1 534 541 540
1025 2 2 1 1 535 536 542
1026 2 2 1 1 535 542 541
1027 2 2 1 1 536 388 385
1028 2 2 1 1 536 385 542
1029 2 2 1 1 27 537 543
1030 2 2 1 1 27 543 29
1031 2 2 1 1 537 538 544
1032 2 2 1 1 537 544 543
1033 2 2 1 1 538 539 545
1034 2 2 1 1 538 545 544
1035 2 2 1 1 539 540 546
1036 2 2 1 1 539 546 545
1037 2 2 1 1 540 541 547
1038 2 2 1 1 540 547 546
1039 2 2 1 1 541 542 548
1040 2 2 1 1 541 548 547
1041 2 2 1 1 542 385 386
1042 2 2 1 1 542 386 548
1043 2 2 1 1 549 550 307
1044 2 2 1 1 549 307 307
1045 2 2 1 1 550 549 84
1046 2 2 1 1 550 84 84
1047 2 2 1 1 84 303 550
1048 2 2 1 1 84 550 550
1049 2 2 1 1 551 2 1
1050 2 2 1 1 552 551 1
1051 2 2 1 1 553 551 552
1052 2 2 1 1 554 553 552
1053 2 2 1 1 555 553 554
1054 2 2 1 1 556 555 554
1055 2 2 1 1 557 555 556
1056 2 2 1 1 558 557 556
1057 2 2 1 1 559 557 558
1058 2 2 1 1 560 559 558
1059 2 2 1 1 561 559 560
1060 2 2 1 1 562 561 560
1061 2 2 1 1 563 561 562
1062 2 2 1 1 564 563 562
1063 2 2 1 1 565 563 564
1064 2 2 1 1 566 565 564
1065 2 2 1 1 567 565 566
1066 2 2 1 1 568 567 566
1067 2 2 1 1 569 567 568
1068 2 2 1 1 570 569 568
1069 2 2 1 1 571 569 570
1070 2 2 1 1 572 571 570
1071 2 2 1 1 573 571 572
1072 2 2 1 1 574 573 572
1073 2 2 1 1 575 573 574
1074 2 2 1 1 576 575 574
1075 2 2 1 1 29 575 576
1076 2 2 1 1 30 29 576
1077 2 2 1 1 579 578 577
1078 2 2 1 1 580 579 577
1079 2 2 1 1 580 577 581
1080 2 2 1 1 582 580 581
1081 2 2 1 1 582 581 583
1082 2 2 1 1 584 582 583
1083 2 2 1 1 587 586 585
1084 2 2 1 1 588 587 585
1085 2 2 1 1 591 590 589
1086 2 2 1 1 591 591 589
1087 2 2 1 1 594 593 592
1088 2 2 1 1 595 594 592
1089 2 2 1 1 593 597 596
1090 2 2 1 1 592 593 596
1091 2 2 1 1 600 599 598
1092 2 2 1 1 601 600 598
1093 2 2 1 1 599 603 602
1094 2 2 1 1 598 599 602
1095 2 2 1 1 603 605 604
1096 2 2 1 1 602 603 604
1097 2 2 1 1 605 607 606
1098 2 2 1 1 604 605 606
1099 2 2 1 1 64 609 608
1100 2 2 1 1 65 64 608
1101 2 2 1 1 610 67 66
1102 2 2 1 1 611 610 66
1103 2 2 1 1 614 613 612
1104 2 2 1 1 614 614 612
1105 2 2 1 1 616 612 615
1106 2 2 1 1 616 616 615
1107 2 2 1 1 612 616 614
1108 2 2 1 1 612 612 614
1109 2 2 1 1 619 618 617
1110 2 2 1 1 619 619 617
1111 2 2 1 1 616 615 617
1112 2 2 1 1 616 616 617
1113 2 2 1 1 616 617 618
1114 2 2 1 1 616 616 618
1115 2 2 1 1 622 621 620
1116 2 2 1 1 622 622 620
1117 2 2 1 1 620 589 622
1118 2 2 1 1 620 620 622
1119 2 2 1 1 623 622 589
1120 2 2 1 1 623 623 589
1121 2 2 1 1 591 606 590
1122 2 2 1 1 591 591 590
1123 2 2 1 1 589 590 623
1124 2 2 1 1 589 589 623
1125 2 2 1 1 626 625 624
1126 2 2 1 1 627 626 624
1127 2 2 1 1 627 624 628
1128 2 2 1 1 629 627 628
1129 2 2 1 1 629 628 630
1130 2 2 1 1 631 629 630
1131 2 2 1 1 631 630 632
1132 2 2 1 1 633 631 632
1133 2 2 1 1 633 632 612
1134 2 2 1 1 613 633 612
1135 2 2 1 1 635 634 594
1136 2 2 1 1 636 635 594
1137 2 2 1 1 634 637 593
1138 2 2 1 1 594 634 593
1139 2 2 1 1 637 638 597
1140 2 2 1 1 593 637 597
1141 2 2 1 1 638 640 639
1142 2 2 1 1 597 638 639
1143 2 2 1 1 640 621 622
1144 2 2 1 1 639 640 622
1145 2 2 1 1 101 642 641
1146 2 2 1 1 102 101 641
1147 2 2 1 1 102 641 643
1148 2 2 1 1 104 102 643
1149 2 2 1 1 104 643 644
1150 2 2 1 1 106 104 644
1151 2 2 1 1 106 644 645
1152 2 2 1 1 108 106 645
1153 2 2 1 1 108 645 646
1154 2 2 1 1 110 108 646
1155 2 2 1 1 110 646 647
1156 2 2 1 1 112 110 647
1157 2 2 1 1 112 647 648
1158 2 2 1 1 114 112 648
1159 2 2 1 1 114 648 649
1160 2 2 1 1 116 114 649
1161 2 2 1 1 116 649 650
1162 2 2 1 1 118 116 650
1163 2 2 1 1 642 652 651
1164 2 2 1 1 641 642 651
1165 2 2 1 1 641 651 653
1166 2 2 1 1 643 641 653
1167 2 2 1 1 643 653 654
1168 2 2 1 1 644 643 654
1169 2 2 1 1 644 654 655
1170 2 2 1 1 645 644 655
1171 2 2 1 1 645 655 656
1172 2 2 1 1 646 645 656
1173 2 2 1 1 646 656 657
1174 2 2 1 1 647 646 657
1175 2 2 1 1 647 657 658
1176 2 2 1 1 648 647 658
1177 2 2 1 1 648 658 659
1178 2 2 1 1 649 648 659
1179 2 2 1 1 649 659 660
1180 2 2 1 1 650 649 660
1181 2 2 1 1 652 662 661
1182 2 2 1 1 651 652 661
1183 2 2 1 1 651 661 663
1184 2 2 1 1 653 651 663
1185 2 2 1 1 653 663 664
1186 2 2 1 1 654 653 664
1187 2 2 1 1 654 664 665
1188 2 2 1 1 655 654 665
1189 2 2 1 1 655 665 666
1190 2 2 1 1 656 655 666
1191 2 2 1 1 656 666 667
1192 2 2 1 1 657 656 667
1193 2 2 1 1 657 667 668
1194 2 2 1 1 658 657 668
1195 2 2 1 1 658 668 600
1196 2 2 1 1 659 658 600
1197 2 2 1 1 659 600 601
1198 2 2 1 1 660 659 601
1199 2 2 1 1 662 670 669
1200 2 2 1 1 661 662 669
1201 2 2 1 1 661 669 671
1202 2 2 1 1 663 661 671
1203 2 2 1 1 663 671 672
1204 2 2 1 1 664 663 672
1205 2 2 1 1 664 672 673
1206 2 2 1 1 665 664 673
1207 2 2 1 1 665 673 674
1208 2 2 1 1 666 665 674
1209 2 2 1 1 666 674 675
1210 2 2 1 1 667 666 675
1211 2 2 1 1 667 675 676
1212 2 2 1 1 668 667 676
1213 2 2 1 1 668 676 599
1214 2 2 1 1 600 668 599
1215 2 2 1 1 670 678 677
1216 2 2 1 1 669 670 677
1217 2 2 1 1 669 677 679
1218 2 2 1 1 671 669 679
1219 2 2 1 1 671 679 680
1220 2 2 1 1 672 671 680
1221 2 2 1 1 672 680 681
1222 2 2 1 1 673 672 681
1223 2 2 1 1 673 681 682
1224 2 2 1 1 674 673 682
1225 2 2 1 1 674 682 683
1226 2 2 1 1 675 674 683
1227 2 2 1 1 675 683 684
1228 2 2 1 1 676 675 684
1229 2 2 1 1 676 684 603
1230 2 2 1 1 599 676 603
1231 2 2 1 1 678 686 685
1232 2 2 1 1 677 678 685
1233 2 2 1 1 677 685 687
1234 2 2 1 1 679 677 687
1235 2 2 1 1 679 687 688
1236 2 2 1 1 680 679 688
1237 2 2 1 1 680 688 689
1238 2 2 1 1 681 680 689
1239 2 2 1 1 681 689 690
1240 2 2 1 1 682 681 690
1241 2 2 1 1 682 690 691
1242 2 2 1 1 683 682 691
1243 2 2 1 1 683 691 692
1244 2 2 1 1 684 683 692
1245 2 2 1 1 684 692 605
1246 2 2 1 1 603 684 605
1247 2 2 1 1 686 694 693
1248 2 2 1 1 685 686 693
1249 2 2 1 1 685 693 695
1250 2 2 1 1 687 685 695
1251 2 2 1 1 687 695 696
1252 2 2 1 1 688 687 696
1253 2 2 1 1 688 696 697
1254 2 2 1 1 689 688 697
1255 2 2 1 1 689 697 698
1256 2 2 1 1 690 689 698
1257 2 2 1 1 690 698 699
1258 2 2 1 1 691 690 699
1259 2 2 1 1 691 699 700
1260 2 2 1 1 692 691 700
1261 2 2 1 1 692 700 607
1262 2 2 1 1 605 692 607
1263 2 2 1 1 694 702 701
1264 2 2 1 1 693 694 701
1265 2 2 1 1 693 701 703
1266 2 2 1 1 695 693 703
1267 2 2 1 1 695 703 704
1268 2 2 1 1 696 695 704
1269 2 2 1 1 696 704 705
1270 2 2 1 1 697 696 705
1271 2 2 1 1 697 705 706
1272 2 2 1 1 698 697 706
1273 2 2 1 1 698 706 587
1274 2 2 1 1 699 698 587
1275 2 2 1 1 699 587 588
1276 2 2 1 1 700 699 588
1277 2 2 1 1 700 588 707
1278 2 2 1 1 607 700 707
1279 2 2 1 1 702 709 708
1280 2 2 1 1 701 702 708
1281 2 2 1 1 701 708 710
1282 2 2 1 1 703 701 710
1283 2 2 1 1 703 710 711
1284 2 2 1 1 704 703 711
1285 2 2 1 1 704 711 712
1286 2 2 1 1 705 704 712
1287 2 2 1 1 705 712 713
1288 2 2 1 1 706 705 713
1289 2 2 1 1 706 713 586
1290 2 2 1 1 587 706 586
1291 2 2 1 1 588 585 714
1292 2 2 1 1 707 588 714
1293 2 2 1 1 709 716 715
1294 2 2 1 1 708 709 715
1295 2 2 1 1 708 715 717
1296 2 2 1 1 710 708 717
1297 2 2 1 1 710 717 718
1298 2 2 1 1 711 710 718
1299 2 2 1 1 711 718 719
1300 2 2 1 1 712 711 719
1301 2 2 1 1 712 719 720
1302 2 2 1 1 713 712 720
1303 2 2 1 1 713 720 721
1304 2 2 1 1 586 713 721
1305 2 2 1 1 586 721 722
1306 2 2 1 1 585 586 722
1307 2 2 1 1 585 722 723
1308 2 2 1 1 714 585 723
1309 2 2 1 1 716 725 724
1310 2 2 1 1 715 716 724
1311 2 2 1 1 715 724 726
1312 2 2 1 1 717 715 726
1313 2 2 1 1 717 726 727
1314 2 2 1 1 718 717 727
1315 2 2 1 1 718 727 728
1316 2 2 1 1 719 718 728
1317 2 2 1 1 719 728 729
1318 2 2 1 1 720 719 729
1319 2 2 1 1 720 729 730
1320 2 2 1 1 721 720 730
1321 2 2 1 1 721 730 731
1322 2 2 1 1 722 721 731
1323 2 2 1 1 722 731 732
1324 2 2 1 1 723 722 732
1325 2 2 1 1 725 734 733
1326 2 2 1 1 724 725 733
1327 2 2 1 1 724 733 735
1328 2 2 1 1 726 724 735
1329 2 2 1 1 726 735 736
1330 2 2 1 1 727 726 736
1331 2 2 1 1 727 736 737
1332 2 2 1 1 728 727 737
1333 2 2 1 1 728 737 738
1334 2 2 1 1 729 728 738
1335 2 2 1 1 729 738 739
1336 2 2 1 1 730 729 739
1337 2 2 1 1 730 739 740
1338 2 2 1 1 731 730 740
1339 2 2 1 1 731 740 741
1340 2 2 1 1 732 731 741
1341 2 2 1 1 732 741 595
1342 2 2 1 1 592 732 595
1343 2 2 1 1 734 743 742
1344 2 2 1 1 733 734 742
1345 2 2 1 1 733 742 744
1346 2 2 1 1 735 733 744
1347 2 2 1 1 735 744 745
1348 2 2 1 1 736 735 745
1349 2 2 1 1 736 745 746
1350 2 2 1 1 737 736 746
1351 2 2 1 1 737 746 747
1352 2 2 1 1 738 737 747
1353 2 2 1 1 738 747 748
1354 2 2 1 1 739 738 748
1355 2 2 1 1 739 748 749
1356 2 2 1 1 740 739 749
1357 2 2 1 1 740 749 750
1358 2 2 1 1 741 740 750
1359 2 2 1 1 741 750 751
1360 2 2 1 1 595 741 751
1361 2 2 1 1 743 221 220
1362 2 2 1 1 742 743 220
1363 2 2 1 1 742 220 222
1364 2 2 1 1 744 742 222
1365 2 2 1 1 744 222 223
1366 2 2 1 1 745 744 223
1367 2 2 1 1 745 223 224
1368 2 2 1 1 746 745 224
1369 2 2 1 1 746 224 225
1370 2 2 1 1 747 746 225
1371 2 2 1 1 747 225 226
1372 2 2 1 1 748 747 226
1373 2 2 1 1 748 226 227
1374 2 2 1 1 749 748 227
1375 2 2 1 1 749 227 228
1376 2 2 1 1 750 749 228
1377 2 2 1 1 750 228 229
1378 2 2 1 1 751 750 229
1379 2 2 1 1 633 753 752
1380 2 2 1 1 754 633 752
1381 2 2 1 1 753 613 755
1382 2 2 1 1 752 753 755
1383 2 2 1 1 613 616 756
1384 2 2 1 1 755 613 756
1385 2 2 1 1 616 619 757
1386 2 2 1 1 756 616 757
1387 2 2 1 1 754 752 758
1388 2 2 1 1 759 754 758
1389 2 2 1 1 752 755 760
1390 2 2 1 1 758 752 760
1391 2 2 1 1 755 756 761
1392 2 2 1 1 760 755 761
1393 2 2 1 1 756 757 762
1394 2 2 1 1 761 756 762
1395 2 2 1 1 759 758 763
1396 2 2 1 1 764 759 763
1397 2 2 1 1 758 760 765
1398 2 2 1 1 763 758 765
1399 2 2 1 1 760 761 766
1400 2 2 1 1 765 760 766
1401 2 2 1 1 761 762 767
1402 2 2 1 1 766 761 767
1403 2 2 1 1 764 763 768
1404 2 2 1 1 769 764 768
1405 2 2 1 1 763 765 770
1406 2 2 1 1 768 763 770
1407 2 2 1 1 765 766 771
1408 2 2 1 1 770 765 771
1409 2 2 1 1 766 767 772
1410 2 2 1 1 771 766 772
1411 2 2 1 1 769 768 773
1412 2 2 1 1 774 769 773
1413 2 2 1 1 768 770 775
1414 2 2 1 1 773 768 775
1415 2 2 1 1 770 771 776
1416 2 2 1 1 775 770 776
1417 2 2 1 1 771 772 777
1418 2 2 1 1 776 771 777
1419 2 2 1 1 774 773 778
1420 2 2 1 1 640 774 778
1421 2 2 1 1 773 775 621
1422 2 2 1 1 778 773 621
1423 2 2 1 1 775 776 589
1424 2 2 1 1 621 775 589
1425 2 2 1 1 776 777 606
1426 2 2 1 1 589 776 606
1427 2 2 1 1 779 258 257
1428 2 2 1 1 779 779 257
1429 2 2 1 1 257 261 780
1430 2 2 1 1 779 257 780
1431 2 2 1 1 261 263 781
1432 2 2 1 1 780 261 781
1433 2 2 1 1 263 265 782
1434 2 2 1 1 781 263 782
1435 2 2 1 1 783 258 779
1436 2 2 1 1 783 783 779
1437 2 2 1 1 779 780 784
1438 2 2 1 1 783 779 784
1439 2 2 1 1 780 781 785
1440 2 2 1 1 784 780 785
1441 2 2 1 1 781 782 786
1442 2 2 1 1 785 781 786
1443 2 2 1 1 787 258 783
1444 2 2 1 1 787 787 783
1445 2 2 1 1 783 784 788
1446 2 2 1 1 787 783 788
1447 2 2 1 1 784 785 579
1448 2 2 1 1 788 784 579
1449 2 2 1 1 785 786 578
1450 2 2 1 1 579 785 578
1451 2 2 1 1 789 258 787
1452 2 2 1 1 789 789 787
1453 2 2 1 1 787 788 790
1454 2 2 1 1 789 787 790
1455 2 2 1 1 788 579 580
1456 2 2 1 1 790 788 580
1457 2 2 1 1 791 258 789
1458 2 2 1 1 791 791 789
1459 2 2 1 1 789 790 792
1460 2 2 1 1 791 789 792
1461 2 2 1 1 790 580 582
1462 2 2 1 1 792 790 582
1463 2 2 1 1 793 258 791
1464 2 2 1 1 793 793 791
1465 2 2 1 1 791 792 794
1466 2 2 1 1 793 791 794
1467 2 2 1 1 792 582 584
1468 2 2 1 1 794 792 584
1469 2 2 1 1 795 258 793
1470 2 2 1 1 795 795 793
1471 2 2 1 1 793 794 796
1472 2 2 1 1 795 793 796
1473 2 2 1 1 794 584 797
1474 2 2 1 1 796 794 797
1475 2 2 1 1 798 258 795
1476 2 2 1 1 798 798 795
1477 2 2 1 1 795 796 799
1478 2 2 1 1 798 795 799
1479 2 2 1 1 796 797 800
1480 2 2 1 1 799 796 800
1481 2 2 1 1 801 258 798
1482 2 2 1 1 801 801 798
1483 2 2 1 1 798 799 802
1484 2 2 1 1 801 798 802
1485 2 2 1 1 799 800 803
1486 2 2 1 1 802 799 803
1487 2 2 1 1 800 615 804
1488 2 2 1 1 803 800 804
1489 2 2 1 1 805 258 801
1490 2 2 1 1 805 805 801
1491 2 2 1 1 801 802 806
1492 2 2 1 1 805 801 806
1493 2 2 1 1 802 803 807
1494 2 2 1 1 806 802 807
1495 2 2 1 1 803 804 808
1496 2 2 1 1 807 803 808
1497 2 2 1 1 809 258 805
1498 2 2 1 1 809 809 805
1499 2 2 1 1 805 806 810
1500 2 2 1 1 809 805 810
1501 2 2 1 1 806 807 811
1502 2 2 1 1 810 806 811
1503 2 2 1 1 807 808 812
1504 2 2 1 1 811 807 812
1505 2 2 1 1 813 258 809
1506 2 2 1 1 813 813 809
1507 2 2 1 1 809 810 814
1508 2 2 1 1 813 809 814
1509 2 2 1 1 810 811 815
1510 2 2 1 1 814 810 815
1511 2 2 1 1 811 812 816
1512 2 2 1 1 815 811 816
1513 2 2 1 1 817 258 813
1514 2 2 1 1 817 817 813
1515 2 2 1 1 813 814 818
1516 2 2 1 1 817 813 818
1517 2 2 1 1 814 815 819
1518 2 2 1 1 818 814 819
1519 2 2 1 1 815 816 820
1520 2 2 1 1 819 815 820
1521 2 2 1 1 304 258 817
1522 2 2 1 1 304 304 817
1523 2 2 1 1 817 818 305
1524 2 2 1 1 304 817 305
1525 2 2 1 1 818 819 306
1526 2 2 1 1 305 818 306
1527 2 2 1 1 819 820 307
1528 2 2 1 1 306 819 307
1529 2 2 1 1 118 650 821
1530 2 2 1 1 309 118 821
1531 2 2 1 1 309 821 822
1532 2 2 1 1 311 309 822
1533 2 2 1 1 311 822 823
1534 2 2 1 1 313 311 823
1535 2 2 1 1 313 823 824
1536 2 2 1 1 315 313 824
1537 2 2 1 1 315 824 825
1538 2 2 1 1 317 315 825
1539 2 2 1 1 317 825 782
1540 2 2 1 1 265 317 782
1541 2 2 1 1 650 660 826
1542 2 2 1 1 821 650 826
1543 2 2 1 1 821 826 827
1544 2 2 1 1 822 821 827
1545 2 2 1 1 822 827 828
1546 2 2 1 1 823 822 828
1547 2 2 1 1 823 828 829
1548 2 2 1 1 824 823 829
1549 2 2 1 1 824 829 830
1550 2 2 1 1 825 824 830
1551 2 2 1 1 825 830 786
1552 2 2 1 1 782 825 786
1553 2 2 1 1 660 601 831
1554 2 2 1 1 826 660 831
1555 2 2 1 1 826 831 832
1556 2 2 1 1 827 826 832
1557 2 2 1 1 827 832 833
1558 2 2 1 1 828 827 833
1559 2 2 1 1 828 833 834
1560 2 2 1 1 829 828 834
1561 2 2 1 1 829 834 835
1562 2 2 1 1 830 829 835
1563 2 2 1 1 830 835 578
1564 2 2 1 1 786 830 578
1565 2 2 1 1 601 598 836
1566 2 2 1 1 831 601 836
1567 2 2 1 1 831 836 837
1568 2 2 1 1 832 831 837
1569 2 2 1 1 832 837 838
1570 2 2 1 1 833 832 838
1571 2 2 1 1 833 838 839
1572 2 2 1 1 834 833 839
1573 2 2 1 1 834 839 840
1574 2 2 1 1 835 834 840
1575 2 2 1 1 835 840 577
1576 2 2 1 1 578 835 577
1577 2 2 1 1 598 602 841
1578 2 2 1 1 836 598 841
1579 2 2 1 1 836 841 842
1580 2 2 1 1 837 836 842
1581 2 2 1 1 837 842 843
1582 2 2 1 1 838 837 843
1583 2 2 1 1 838 843 844
1584 2 2 1 1 839 838 844
1585 2 2 1 1 839 844 845
1586 2 2 1 1 840 839 845
1587 2 2 1 1 840 845 581
1588 2 2 1 1 577 840 581
1589 2 2 1 1 602 604 846
1590 2 2 1 1 841 602 846
1591 2 2 1 1 841 846 847
1592 2 2 1 1 842 841 847
1593 2 2 1 1 842 847 848
1594 2 2 1 1 843 842 848
1595 2 2 1 1 843 848 849
1596 2 2 1 1 844 843 849
1597 2 2 1 1 844 849 850
1598 2 2 1 1 845 844 850
1599 2 2 1 1 845 850 583
1600 2 2 1 1 581 845 583
1601 2 2 1 1 604 606 777
1602 2 2 1 1 846 604 777
1603 2 2 1 1 846 777 772
1604 2 2 1 1 847 846 772
1605 2 2 1 1 847 772 767
1606 2 2 1 1 848 847 767
1607 2 2 1 1 848 767 762
1608 2 2 1 1 849 848 762
1609 2 2 1 1 849 762 757
1610 2 2 1 1 850 849 757
1611 2 2 1 1 850 757 619
1612 2 2 1 1 583 850 619
1613 2 2 1 1 636 594 595
1614 2 2 1 1 751 636 595
1615 2 2 1 1 723 732 592
1616 2 2 1 1 596 723 592
1617 2 2 1 1 714 723 596
1618 2 2 1 1 851 714 596
1619 2 2 1 1 597 639 851
1620 2 2 1 1 596 597 851
1621 2 2 1 1 639 622 623
1622 2 2 1 1 851 639 623
1623 2 2 1 1 707 714 851
1624 2 2 1 1 623 707 851
1625 2 2 1 1 607 707 623
1626 2 2 1 1 606 607 623
1627 2 2 1 1 797 619 615
1628 2 2 1 1 800 797 615
1629 2 2 1 1 584 583 619
1630 2 2 1 1 797 584 619
1631 2 2 1 1 632 804 615
1632 2 2 1 1 612 632 615
1633 2 2 1 1 630 808 804
1634 2 2 1 1 632 630 804
1635 2 2 1 1 628 812 808
1636 2 2 1 1 630 628 808
1637 2 2 1 1 624 816 812
1638 2 2 1 1 628 624 812
1639 2 2 1 1 625 820 816
1640 2 2 1 1 624 625 816
1641 2 2 1 1 30 576 852
1642 2 2 1 1 345 30 852
1643 2 2 1 1 345 852 642
1644 2 2 1 1 101 345 642
1645 2 2 1 1 576 574 853
1646 2 2 1 1 852 576 853
1647 2 2 1 1 852 853 652
1648 2 2 1 1 642 852 652
1649 2 2 1 1 574 572 854
1650 2 2 1 1 853 574 854
1651 2 2 1 1 853 854 662
1652 2 2 1 1 652 853 662
1653 2 2 1 1 572 570 855
1654 2 2 1 1 854 572 855
1655 2 2 1 1 854 855 670
1656 2 2 1 1 662 854 670
1657 2 2 1 1 570 568 856
1658 2 2 1 1 855 570 856
1659 2 2 1 1 855 856 678
1660 2 2 1 1 670 855 678
1661 2 2 1 1 568 566 857
1662 2 2 1 1 856 568 857
1663 2 2 1 1 856 857 686
1664 2 2 1 1 678 856 686
1665 2 2 1 1 566 564 858
1666 2 2 1 1 857 566 858
1667 2 2 1 1 857 858 694
1668 2 2 1 1 686 857 694
1669 2 2 1 1 564 562 859
1670 2 2 1 1 858 564 859
1671 2 2 1 1 858 859 702
1672 2 2 1 1 694 858 702
1673 2 2 1 1 562 560 860
1674 2 2 1 1 859 562 860
1675 2 2 1 1 859 860 709
1676 2 2 1 1 702 859 709
1677 2 2 1 1 560 558 861
1678 2 2 1 1 860 560 861
1679 2 2 1 1 860 861 716
1680 2 2 1 1 709 860 716
1681 2 2 1 1 558 556 862
1682 2 2 1 1 861 558 862
1683 2 2 1 1 861 862 725
1684 2 2 1 1 716 861 725
1685 2 2 1 1 556 554 863
1686 2 2 1 1 862 556 863
1687 2 2 1 1 862 863 734
1688 2 2 1 1 725 862 734
1689 2 2 1 1 554 552 864
1690 2 2 1 1 863 554 864
1691 2 2 1 1 863 864 743
1692 2 2 1 1 734 863 743
1693 2 2 1 1 552 1 358
1694 2 2 1 1 864 552 358
1695 2 2 1 1 864 358 221
1696 2 2 1 1 743 864 221
1697 2 2 1 1 635 866 865
1698 2 2 1 1 635 635 865
1699 2 2 1 1 866 635 751
1700 2 2 1 1 866 866 751
1701 2 2 1 1 229 865 866
1702 2 2 1 1 229 229 866
1703 2 2 1 1 609 868 867
1704 2 2 1 1 608 609 867
1705 2 2 1 1 868 870 869
1706 2 2 1 1 867 868 869
1707 2 2 1 1 870 872 871
1708 2 2 1 1 869 870 871
1709 2 2 1 1 872 874 873
1710 2 2 1 1 871 872 873
1711 2 2 1 1 874 876 875
1712 2 2 1 1 873 874 875
1713 2 2 1 1 876 878 877
1714 2 2 1 1 875 876 877
1715 2 2 1 1 878 880 879
1716 2 2 1 1 877 878 879
1717 2 2 1 1 880 882 881
1718 2 2 1 1 879 880 881
1719 2 2 1 1 882 884 883
1720 2 2 1 1 881 882 883
1721 2 2 1 1 884 886 885
1722 2 2 1 1 883 884 885
1723 2 2 1 1 886 888 887
1724 2 2 1 1 885 886 887
1725 2 2 1 1 888 610 611
1726 2 2 1 1 887 888 611
1727 2 2 1 1 65 608 889
1728 2 2 1 1 384 65 889
1729 2 2 1 1 384 889 890
1730 2 2 1 1 386 384 890
1731 2 2 1 1 608 867 891
1732 2 2 1 1 889 608 891
1733 2 2 1 1 889 891 892
1734 2 2 1 1 890 889 892
1735 2 2 1 1 867 869 893
1736 2 2 1 1 891 867 893
1737 2 2 1 1 891 893 894
1738 2 2 1 1 892 891 894
1739 2 2 1 1 869 871 895
1740 2 2 1 1 893 869 895
1741 2 2 1 1 893 895 896
1742 2 2 1 1 894 893 896
1743 2 2 1 1 871 873 897
1744 2 2 1 1 895 871 897
1745 2 2 1 1 895 897 898
1746 2 2 1 1 896 895 898
1747 2 2 1 1 873 875 899
1748 2 2 1 1 897 873 899
1749 2 2 1 1 897 899 900
1750 2 2 1 1 898 897 900
1751 2 2 1 1 875 877 901
1752 2 2 1 1 899 875 901
1753 2 2 1 1 899 901 902
1754 2 2 1 1 900 899 902
1755 2 2 1 1 877 879 903
1756 2 2 1 1 901 877 903
1757 2 2 1 1 901 903 904
1758 2 2 1 1 902 901 904
1759 2 2 1 1 879 881 905
1760 2 2 1 1 903 879 905
1761 2 2 1 1 903 905 906
1762 2 2 1 1 904 903 906
1763 2 2 1 1 881 883 907
1764 2 2 1 1 905 881 907
1765 2 2 1 1 905 907 908
1766 2 2 1 1 906 905 908
1767 2 2 1 1 883 885 909
1768 2 2 1 1 907 883 909
1769 2 2 1 1 907 909 910
1770 2 2 1 1 908 907 910
1771 2 2 1 1 885 887 911
1772 2 2 1 1 909 885 911
1773 2 2 1 1 909 911 912
1774 2 2 1 1 910 909 912
1775 2 2 1 1 887 611 913
1776 2 2 1 1 911 887 913
1777 2 2 1 1 911 913 914
1778 2 2 1 1 912 911 914
1779 2 2 1 1 611 66 411
1780 2 2 1 1 913 611 411
1781 2 2 1 1 913 411 412
1782 2 2 1 1 914 913 412
1783 2 2 1 1 915 414 413
1784 2 2 1 1 915 915 413
1785 2 2 1 1 916 915 413
1786 2 2 1 1 417 916 413
1787 2 2 1 1 917 916 417
1788 2 2 1 1 419 917 417
1789 2 2 1 1 610 917 419
1790 2 2 1 1 67 610 419
1791 2 2 1 1 919 918 916
1792 2 2 1 1 917 919 916
1793 2 2 1 1 888 919 917
1794 2 2 1 1 610 888 917
1795 2 2 1 1 921 414 920
1796 2 2 1 1 921 921 920
1797 2 2 1 1 886 922 919
1798 2 2 1 1 888 886 919
1799 2 2 1 1 923 414 921
1800 2 2 1 1 923 923 921
1801 2 2 1 1 924 923 921
1802 2 2 1 1 925 924 921
1803 2 2 1 1 884 926 922
1804 2 2 1 1 886 884 922
1805 2 2 1 1 927 414 923
1806 2 2 1 1 927 927 923
1807 2 2 1 1 928 414 927
1808 2 2 1 1 928 928 927
1809 2 2 1 1 929 928 927
1810 2 2 1 1 930 929 927
1811 2 2 1 1 931 929 930
1812 2 2 1 1 932 931 930
1813 2 2 1 1 880 931 932
1814 2 2 1 1 882 880 932
1815 2 2 1 1 933 414 928
1816 2 2 1 1 933 933 928
1817 2 2 1 1 934 933 928
1818 2 2 1 1 929 934 928
1819 2 2 1 1 936 935 934
1820 2 2 1 1 937 936 934
1821 2 2 1 1 876 936 937
1822 2 2 1 1 878 876 937
1823 2 2 1 1 939 414 938
1824 2 2 1 1 939 939 938
1825 2 2 1 1 940 939 938
1826 2 2 1 1 935 940 938
1827 2 2 1 1 941 940 935
1828 2 2 1 1 936 941 935
1829 2 2 1 1 874 941 936
1830 2 2 1 1 876 874 936
1831 2 2 1 1 943 942 940
1832 2 2 1 1 941 943 940
1833 2 2 1 1 945 414 944
1834 2 2 1 1 945 945 944
1835 2 2 1 1 870 946 943
1836 2 2 1 1 872 870 943
1837 2 2 1 1 948 947 945
1838 2 2 1 1 949 948 945
1839 2 2 1 1 950 414 947
1840 2 2 1 1 950 950 947
1841 2 2 1 1 952 951 948
1842 2 2 1 1 953 952 948
1843 2 2 1 1 609 952 953
1844 2 2 1 1 868 609 953
1845 2 2 1 1 456 414 950
1846 2 2 1 1 456 456 950
1847 2 2 1 1 457 456 950
1848 2 2 1 1 951 457 950
1849 2 2 1 1 458 457 951
1850 2 2 1 1 952 458 951
1851 2 2 1 1 64 458 952
1852 2 2 1 1 609 64 952
1853 2 2 1 1 920 414 915
1854 2 2 1 1 920 920 915
1855 2 2 1 1 918 920 915
1856 2 2 1 1 916 918 915
1857 2 2 1 1 925 921 920
1858 2 2 1 1 918 925 920
1859 2 2 1 1 922 925 918
1860 2 2 1 1 919 922 918
1861 2 2 1 1 926 924 925
1862 2 2 1 1 922 926 925
1863 2 2 1 1 930 927 923
1864 2 2 1 1 924 930 923
1865 2 2 1 1 932 930 924
1866 2 2 1 1 926 932 924
1867 2 2 1 1 882 932 926
1868 2 2 1 1 884 882 926
1869 2 2 1 1 937 934 929
1870 2 2 1 1 931 937 929
1871 2 2 1 1 878 937 931
1872 2 2 1 1 880 878 931
1873 2 2 1 1 938 414 933
1874 2 2 1 1 938 938 933
1875 2 2 1 1 935 938 933
1876 2 2 1 1 934 935 933
1877 2 2 1 1 944 414 939
1878 2 2 1 1 944 944 939
1879 2 2 1 1 942 944 939
1880 2 2 1 1 940 942 939
1881 2 2 1 1 872 943 941
1882 2 2 1 1 874 872 941
1883 2 2 1 1 949 945 944
1884 2 2 1 1 942 949 944
1885 2 2 1 1 946 949 942
1886 2 2 1 1 943 946 942
1887 2 2 1 1 947 414 945
1888 2 2 1 1 947 947 945
1889 2 2 1 1 953 948 949
1890 2 2 1 1 946 953 949
1891 2 2 1 1 868 953 946
1892 2 2 1 1 870 868 946
1893 2 2 1 1 951 950 947
1894 2 2 1 1 948 951 947
1895 2 2 1 1 954 459 2
1896 2 2 1 1 551 954 2
1897 2 2 1 1 955 461 459
1898 2 2 1 1 954 955 459
1899 2 2 1 1 956 463 461
1900 2 2 1 1 955 956 461
1901 2 2 1 1 957 465 463
1902 2 2 1 1 956 957 463
1903 2 2 1 1 958 467 465
1904 2 2 1 1 957 958 465
1905 2 2 1 1 959 469 467
1906 2 2 1 1 958 959 467
1907 2 2 1 1 914 412 469
1908 2 2 1 1 959 914 469
1909 2 2 1 1 960 954 551
1910 2 2 1 1 553 960 551
1911 2 2 1 1 961 955 954
1912 2 2 1 1 960 961 954
1913 2 2 1 1 962 956 955
1914 2 2 1 1 961 962 955
1915 2 2 1 1 963 957 956
1916 2 2 1 1 962 963 956
1917 2 2 1 1 964 958 957
1918 2 2 1 1 963 964 957
1919 2 2 1 1 965 959 958
1920 2 2 1 1 964 965 958
1921 2 2 1 1 912 914 959
1922 2 2 1 1 965 912 959
1923 2 2 1 1 966 960 553
1924 2 2 1 1 555 966 553
1925 2 2 1 1 967 961 960
1926 2 2 1 1 966 967 960
1927 2 2 1 1 968 962 961
1928 2 2 1 1 967 968 961
1929 2 2 1 1 969 963 962
1930 2 2 1 1 968 969 962
1931 2 2 1 1 970 964 963
1932 2 2 1 1 969 970 963
1933 2 2 1 1 971 965 964
1934 2 2 1 1 970 971 964
1935 2 2 1 1 910 912 965
1936 2 2 1 1 971 910 965
1937 2 2 1 1 972 966 555
1938 2 2 1 1 557 972 555
1939 2 2 1 1 973 967 966
1940 2 2 1 1 972 973 966
1941 2 2 1 1 974 968 967
1942 2 2 1 1 973 974 967
1943 2 2 1 1 975 969 968
1944 2 2 1 1 974 975 968
1945 2 2 1 1 976 970 969
1946 2 2 1 1 975 976 969
1947 2 2 1 1 977 971 970
1948 2 2 1 1 976 977 970
1949 2 2 1 1 908 910 971
1950 2 2 1 1 977 908 971
1951 2 2 1 1 978 972 557
1952 2 2 1 1 559 978 557
1953 2 2 1 1 979 973 972
1954 2 2 1 1 978 979 972
1955 2 2 1 1 980 974 973
1956 2 2 1 1 979 980 973
1957 2 2 1 1 981 975 974
1958 2 2 1 1 980 981 974
1959 2 2 1 1 982 976 975
1960 2 2 1 1 981 982 975
1961 2 2 1 1 983 977 976
1962 2 2 1 1 982 983 976
1963 2 2 1 1 906 908 977
1964 2 2 1 1 983 906 977
1965 2 2 1 1 984 978 559
1966 2 2 1 1 561 984 559
1967 2 2 1 1 985 979 978
1968 2 2 1 1 984 985 978
1969 2 2 1 1 986 980 979
1970 2 2 1 1 985 986 979
1971 2 2 1 1 987 981 980
1972 2 2 1 1 986 987 980
1973 2 2 1 1 988 982 981
1974 2 2 1 1 987 988 981
1975 2 2 1 1 989 983 982
1976 2 2 1 1 988 989 982
1977 2 2 1 1 904 906 983
1978 2 2 1 1 989 904 983
1979 2 2 1 1 990 984 561
1980 2 2 1 1 563 990 561
1981 2 2 1 1 991 985 984
1982 2 2 1 1 990 991 984
1983 2 2 1 1 992 986 985
1984 2 2 1 1 991 992 985
1985 2 2 1 1 993 987 986
1986 2 2 1 1 992 993 986
1987 2 2 1 1 994 988 987
1988 2 2 1 1 993 994 987
1989 2 2 1 1 995 989 988
1990 2 2 1 1 994 995 988
1991 2 2 1 1 902 904 989
1992 2 2 1 1 995 902 989
1993 2 2 1 1 996 990 563
1994 2 2 1 1 565 996 563
1995 2 2 1 1 997 991 990
1996 2 2 1 1 996 997 990
1997 2 2 1 1 998 992 991
1998 2 2 1 1 997 998 991
1999 2 2 1 1 999 993 992
2000 2 2 1 1 998 999 992
2001 2 2 1 1 1000 994 993
2002 2 2 1 1 999 1000 993
2003 2 2 1 1 1001 995 994
2004 2 2 1 1 1000 1001 994
2005 2 2 1 1 900 902 995
2006 2 2 1 1 1001 900 995
2007 2 2 1 1 1002 996 565
2008 2 2 1 1 567 1002 565
2009 2 2 1 1 1003 997 996
2010 2 2 1 1 1002 1003 996
2011 2 2 1 1 1004 998 997
2012 2 2 1 1 1003 1004 997
2013 2 2 1 1 1005 999 998
2014 2 2 1 1 1004 1005 998
2015 2 2 1 1 1006 1000 999
2016 2 2 1 1 1005 1006 999
2017 2 2 1 1 1007 1001 1000
2018 2 2 1 1 1006 1007 1000
2019 2 2 1 1 898 900 1001
2020 2 2 1 1 1007 898 1001
2021 2 2 1 1 1008 1002 567
2022 2 2 1 1 569 1008 567
2023 2 2 1 1 1009 1003 1002
2024 2 2 1 1 1008 1009 1002
2025 2 2 1 1 1010 1004 1003
2026 2 2 1 1 1009 1010 1003
2027 2 2 1 1 1011 1005 1004
2028 2 2 1 1 1010 1011 1004
2029 2 2 1 1 1012 1006 1005
2030 2 2 1 1 1011 1012 1005
2031 2 2 1 1 1013 1007 1006
2032 2 2 1 1 1012 1013 1006
2033 2 2 1 1 896 898 1007
2034 2 2 1 1 1013 896 1007
2035 2 2 1 1 1014 1008 569
2036 2 2 1 1 571 1014 569
2037 2 2 1 1 1015 1009 1008
2038 2 2 1 1 1014 1015 1008
2039 2 2 1 1 1016 1010 1009
2040 2 2 1 1 1015 1016 1009
2041 2 2 1 1 1017 1011 1010
2042 2 2 1 1 1016 1017 1010
2043 2 2 1 1 1018 1012 1011
2044 2 2 1 1 1017 1018 1011
2045 2 2 1 1 1019 1013 1012
2046 2 2 1 1 1018 1019 1012
2047 2 2 1 1 894 896 1013
2048 2 2 1 1 1019 894 1013
2049 2 2 1 1 1020 1014 571
2050 2 2 1 1 573 1020 571
2051 2 2 1 1 1021 1015 1014
2052 2 2 1 1 1020 1021 1014
2053 2 2 1 1 1022 1016 1015
2054 2 2 1 1 1021 1022 1015
2055 2 2 1 1 1023 1017 1016
2056 2 2 1 1 1022 1023 1016
2057 2 2 1 1 1024 1018 1017
2058 2 2 1 1 1023 1024 1017
2059 2 2 1 1 1025 1019 1018
2060 2 2 1 1 1024 1025 1018
2061 2 2 1 1 892 894 1019
2062 2 2 1 1 1025 892 1019
2063 2 2 1 1 1026 1020 573
2064 2 2 1 1 575 1026 573
2065 2 2 1 1 1027 1021 1020
2066 2 2 1 1 1026 1027 1020
2067 2 2 1 1 1028 1022 1021
2068 2 2 1 1 1027 1028 1021
2069 2 2 1 1 1029 1023 1022
2070 2 2 1 1 1028 1029 1022
2071 2 2 1 1 1030 1024 1023
2072 2 2 1 1 1029 1030 1023
2073 2 2 1 1 1031 1025 1024
2074 2 2 1 1 1030 1031 1024
2075 2 2 1 1 890 892 1025
2076 2 2 1 1 1031 890 1025
2077 2 2 1 1 543 1026 575
2078 2 2 1 1 29 543 575
2079 2 2 1 1 544 1027 1026
2080 2 2 1 1 543 544 1026
2081 2 2 1 1 545 1028 1027
2082 2 2 1 1 544 545 1027
2083 2 2 1 1 546 1029 1028
2084 2 2 1 1 545 546 1028
2085 2 2 1 1 547 1030 1029
2086 2 2 1 1 546 547 1029
2087 2 2 1 1 548 1031 1030
2088 2 2 1 1 547 548 1030
2089 2 2 1 1 386 890 1031
2090 2 2 1 1 548 386 1031
2091 2 2 1 1 307 1033 1032
2092 2 2 1 1 307 307 1032
2093 2 2 1 1 626 1032 1033
2094 2 2 1 1 626 626 1033
2095 2 2 1 1 1033 820 626
2096 2 2 1 1 1033 1033 626
$EndElements
