# Converted from GDF: L05 Column.gdf
# gdf created by manipulating UMaineSemi.gdf
# Vertices: 1033
# Faces: 2096

o gdf_created_by_manipulating_UMaineSemi.gdf

v -6.250000 0.000000 1.300000
v -6.248000 0.000000 2.600000
v -6.091000 1.391000 2.600000
v -6.093000 1.391000 1.300000
v -5.629000 2.712000 2.600000
v -5.631000 2.712000 1.300000
v -4.884000 3.897000 2.600000
v -4.886000 3.897000 1.300000
v -3.895000 4.886000 2.600000
v -3.897000 4.886000 1.300000
v -2.710000 5.631000 2.600000
v -2.712000 5.631000 1.300000
v -1.389000 6.093000 2.600000
v -1.391000 6.093000 1.300000
v 0.002000 6.250000 2.600000
v 0.000000 6.250000 1.300000
v 1.393000 6.093000 2.600000
v 1.391000 6.093000 1.300000
v 2.714000 5.631000 2.600000
v 2.712000 5.631000 1.300000
v 3.899000 4.886000 2.600000
v 3.897000 4.886000 1.300000
v 4.888000 3.897000 2.600000
v 4.886000 3.897000 1.300000
v 5.633000 2.712000 2.600000
v 5.631000 2.712000 1.300000
v 6.095000 1.391000 2.600000
v 6.093000 1.391000 1.300000
v 6.252000 0.000000 2.600000
v 6.250000 0.000000 1.300000
v 3.896000 4.887000 -20.000000
v 4.886000 3.897000 -20.000000
v 3.665000 2.923000 -20.000000
v 2.923000 3.665000 -20.000000
v 2.711000 5.632000 -20.000000
v 2.034000 4.223000 -20.000000
v 1.389000 6.094000 -20.000000
v 1.043000 4.570000 -20.000000
v -2.712000 5.631000 -10.400000
v -2.712000 5.631000 -9.100000
v -1.391000 6.093000 -9.100000
v -1.391000 6.093000 -10.400000
v -1.564000 6.250000 -13.000000
v -0.697000 6.171500 -13.000000
v -0.783000 6.250000 -13.000000
v -4.886000 3.897000 -13.000000
v -5.568000 3.823000 -13.000000
v -5.941000 2.606000 -13.000000
v -5.631000 2.712000 -13.000000
v -3.898000 4.886000 -13.000000
v -5.074000 4.943000 -13.000000
v 3.896000 4.887000 -13.000000
v 3.897000 4.886000 -11.700000
v 4.886000 3.897000 -11.700000
v 4.886000 3.897000 -13.000000
v 2.711000 5.632000 -13.000000
v 2.712000 5.631000 -11.700000
v 1.389000 6.094000 -13.000000
v 1.391000 6.093000 -11.700000
v -0.002000 6.250000 -13.000000
v 0.000000 6.250000 -11.700000
v 6.095000 1.391000 14.300000
v 6.093000 1.391000 15.000000
v 6.250000 0.000000 15.000000
v 6.252000 0.000000 14.300000
v -6.248000 0.000000 14.300000
v -6.250000 0.000000 15.000000
v -6.093000 1.391000 15.000000
v -6.091000 1.391000 14.300000
v -2.259000 6.171000 -20.000000
v -3.126000 6.250000 -20.000000
v -2.345000 6.250000 -20.000000
v -1.391000 6.093000 -20.000000
v -1.564000 6.250000 -20.000000
v -0.696500 6.171500 -20.000000
v -0.783000 6.250000 -20.000000
v -0.002000 6.250000 -20.000000
v -2.345000 6.250000 -13.000000
v -3.126000 6.250000 -13.000000
v -2.259000 6.171000 -13.000000
v -1.392000 6.093000 -13.000000
v -5.941000 2.606000 -20.000000
v -6.172000 1.320000 -20.000000
v -6.250000 1.250000 -20.000000
v -6.250000 2.500000 -20.000000
v -5.568000 3.823000 -20.000000
v -6.250000 3.750000 -20.000000
v -5.074000 4.943000 -20.000000
v -6.250000 5.000000 -20.000000
v -4.481000 5.940000 -20.000000
v -6.250000 6.250000 -20.000000
v -6.250000 2.500000 -13.000000
v -6.250000 1.250000 -13.000000
v -6.172000 1.320000 -13.000000
v -6.250000 3.750000 -13.000000
v -6.250000 5.000000 -13.000000
v -4.481000 5.940000 -13.000000
v -6.250000 6.250000 -13.000000
v 6.093000 1.391000 -2.600000
v 6.093000 1.391000 -1.300000
v 6.250000 0.000000 -1.300000
v 6.250000 0.000000 -2.600000
v 6.093000 1.391000 -3.900000
v 6.250000 0.000000 -3.900000
v 6.093000 1.391000 -5.200000
v 6.250000 0.000000 -5.200000
v 6.093000 1.391000 -6.500000
v 6.250000 0.000000 -6.500000
v 6.093000 1.391000 -7.800000
v 6.250000 0.000000 -7.800000
v 6.093000 1.391000 -9.100000
v 6.250000 0.000000 -9.100000
v 6.093000 1.391000 -10.400000
v 6.250000 0.000000 -10.400000
v 6.093000 1.391000 -11.700000
v 6.250000 0.000000 -11.700000
v 6.093000 1.391000 -13.000000
v 6.250000 0.000000 -13.000000
v 5.631000 2.712000 -2.600000
v 5.631000 2.712000 -1.300000
v 5.631000 2.712000 -3.900000
v 5.631000 2.712000 -5.200000
v 5.631000 2.712000 -6.500000
v 5.631000 2.712000 -7.800000
v 5.631000 2.712000 -9.100000
v 5.631000 2.712000 -10.400000
v 5.631000 2.712000 -11.700000
v 5.631000 2.712000 -13.000000
v 4.886000 3.897000 -2.600000
v 4.886000 3.897000 -1.300000
v 4.886000 3.897000 -3.900000
v 4.886000 3.897000 -5.200000
v 4.886000 3.897000 -6.500000
v 4.886000 3.897000 -7.800000
v 4.886000 3.897000 -9.100000
v 4.886000 3.897000 -10.400000
v 3.897000 4.886000 -2.600000
v 3.897000 4.886000 -1.300000
v 3.897000 4.886000 -3.900000
v 3.897000 4.886000 -5.200000
v 3.897000 4.886000 -6.500000
v 3.897000 4.886000 -7.800000
v 3.897000 4.886000 -9.100000
v 3.897000 4.886000 -10.400000
v 2.712000 5.631000 -2.600000
v 2.712000 5.631000 -1.300000
v 2.712000 5.631000 -3.900000
v 2.712000 5.631000 -5.200000
v 2.712000 5.631000 -6.500000
v 2.712000 5.631000 -7.800000
v 2.712000 5.631000 -9.100000
v 2.712000 5.631000 -10.400000
v 1.391000 6.093000 -2.600000
v 1.391000 6.093000 -1.300000
v 1.391000 6.093000 -3.900000
v 1.391000 6.093000 -5.200000
v 1.391000 6.093000 -6.500000
v 1.391000 6.093000 -7.800000
v 1.391000 6.093000 -9.100000
v 1.391000 6.093000 -10.400000
v 0.000000 6.250000 -2.600000
v 0.000000 6.250000 -1.300000
v 0.000000 6.250000 -3.900000
v 0.000000 6.250000 -5.200000
v 0.000000 6.250000 -6.500000
v 0.000000 6.250000 -7.800000
v 0.000000 6.250000 -9.100000
v 0.000000 6.250000 -10.400000
v -1.391000 6.093000 -2.600000
v -1.391000 6.093000 -1.300000
v -1.391000 6.093000 -3.900000
v -1.391000 6.093000 -5.200000
v -1.391000 6.093000 -6.500000
v -1.391000 6.093000 -7.800000
v -1.391000 6.093000 -11.700000
v -2.712000 5.631000 -2.600000
v -2.712000 5.631000 -1.300000
v -2.712000 5.631000 -3.900000
v -2.712000 5.631000 -5.200000
v -2.712000 5.631000 -6.500000
v -2.712000 5.631000 -7.800000
v -2.712000 5.631000 -11.700000
v -3.897000 4.886000 -2.600000
v -3.897000 4.886000 -1.300000
v -3.897000 4.886000 -3.900000
v -3.897000 4.886000 -5.200000
v -3.897000 4.886000 -6.500000
v -3.897000 4.886000 -7.800000
v -3.897000 4.886000 -9.100000
v -3.897000 4.886000 -10.400000
v -3.897000 4.886000 -11.700000
v -4.886000 3.897000 -2.600000
v -4.886000 3.897000 -1.300000
v -4.886000 3.897000 -3.900000
v -4.886000 3.897000 -5.200000
v -4.886000 3.897000 -6.500000
v -4.886000 3.897000 -7.800000
v -4.886000 3.897000 -9.100000
v -4.886000 3.897000 -10.400000
v -4.886000 3.897000 -11.700000
v -5.631000 2.712000 -2.600000
v -5.631000 2.712000 -1.300000
v -5.631000 2.712000 -3.900000
v -5.631000 2.712000 -5.200000
v -5.631000 2.712000 -6.500000
v -5.631000 2.712000 -7.800000
v -5.631000 2.712000 -9.100000
v -5.631000 2.712000 -10.400000
v -5.631000 2.712000 -11.700000
v -6.093000 1.391000 -2.600000
v -6.093000 1.391000 -1.300000
v -6.093000 1.391000 -3.900000
v -6.093000 1.391000 -5.200000
v -6.093000 1.391000 -6.500000
v -6.093000 1.391000 -7.800000
v -6.093000 1.391000 -9.100000
v -6.093000 1.391000 -10.400000
v -6.093000 1.391000 -11.700000
v -6.093000 1.391000 -13.000000
v -6.250000 0.000000 -2.600000
v -6.250000 0.000000 -1.300000
v -6.250000 0.000000 -3.900000
v -6.250000 0.000000 -5.200000
v -6.250000 0.000000 -6.500000
v -6.250000 0.000000 -7.800000
v -6.250000 0.000000 -9.100000
v -6.250000 0.000000 -10.400000
v -6.250000 0.000000 -11.700000
v -6.250000 0.000000 -13.000000
v -4.688000 6.250000 -18.833000
v -4.688000 6.250000 -20.000000
v -6.250000 6.250000 -18.833000
v -3.126000 6.250000 -18.833000
v -1.564000 6.250000 -18.833000
v -0.002000 6.250000 -18.833000
v -4.688000 6.250000 -17.667000
v -6.250000 6.250000 -17.667000
v -3.126000 6.250000 -17.667000
v -1.564000 6.250000 -17.667000
v -0.002000 6.250000 -17.667000
v -4.688000 6.250000 -16.500000
v -6.250000 6.250000 -16.500000
v -3.126000 6.250000 -16.500000
v -1.564000 6.250000 -16.500000
v -0.002000 6.250000 -16.500000
v -4.688000 6.250000 -15.333000
v -6.250000 6.250000 -15.333000
v -3.126000 6.250000 -15.333000
v -1.564000 6.250000 -15.333000
v -0.002000 6.250000 -15.333000
v -4.688000 6.250000 -14.167000
v -6.250000 6.250000 -14.167000
v -3.126000 6.250000 -14.167000
v -1.564000 6.250000 -14.167000
v -0.002000 6.250000 -14.167000
v -4.688000 6.250000 -13.000000
v 1.563000 0.000000 -20.000000
v 0.000000 0.000000 -20.000000
v 1.523000 0.348000 -20.000000
v 3.047000 0.695000 -20.000000
v 3.125000 0.000000 -20.000000
v 4.570000 1.043000 -20.000000
v 4.688000 0.000000 -20.000000
v 6.093000 1.391000 -20.000000
v 6.250000 0.000000 -20.000000
v 1.408000 0.678000 -20.000000
v 2.816000 1.356000 -20.000000
v 4.223000 2.034000 -20.000000
v 5.631000 2.712000 -20.000000
v 1.222000 0.974000 -20.000000
v 2.443000 1.948000 -20.000000
v 0.974000 1.222000 -20.000000
v 1.948000 2.443000 -20.000000
v 0.678000 1.408000 -20.000000
v 1.356000 2.816000 -20.000000
v 0.348000 1.523000 -20.000000
v 0.695000 3.047000 -20.000000
v 0.000000 1.562000 -20.000000
v 0.000000 3.125000 -20.000000
v 0.000000 4.687000 -20.000000
v -0.348000 1.523000 -20.000000
v -0.695000 3.047000 -20.000000
v -1.043000 4.570000 -20.000000
v -0.678000 1.408000 -20.000000
v -1.356000 2.816000 -20.000000
v -2.034000 4.223000 -20.000000
v -2.712000 5.631000 -20.000000
v -0.974000 1.222000 -20.000000
v -1.948000 2.443000 -20.000000
v -2.923000 3.665000 -20.000000
v -3.897000 4.886000 -20.000000
v -1.222000 0.974000 -20.000000
v -2.443000 1.948000 -20.000000
v -3.665000 2.923000 -20.000000
v -4.886000 3.897000 -20.000000
v -1.408000 0.678000 -20.000000
v -2.816000 1.356000 -20.000000
v -4.223000 2.034000 -20.000000
v -5.631000 2.712000 -20.000000
v -1.523000 0.348000 -20.000000
v -3.047000 0.695000 -20.000000
v -4.570000 1.043000 -20.000000
v -6.093000 1.391000 -20.000000
v -1.562000 0.000000 -20.000000
v -3.125000 0.000000 -20.000000
v -4.687000 0.000000 -20.000000
v -6.250000 0.000000 -20.000000
v 6.093000 1.391000 -14.167000
v 6.250000 0.000000 -14.167000
v 6.093000 1.391000 -15.333000
v 6.250000 0.000000 -15.333000
v 6.093000 1.391000 -16.500000
v 6.250000 0.000000 -16.500000
v 6.093000 1.391000 -17.667000
v 6.250000 0.000000 -17.667000
v 6.093000 1.391000 -18.833000
v 6.250000 0.000000 -18.833000
v 5.631000 2.712000 -14.167000
v 5.631000 2.712000 -15.333000
v 5.631000 2.712000 -16.500000
v 5.631000 2.712000 -17.667000
v 5.631000 2.712000 -18.833000
v 4.886000 3.897000 -14.167000
v 4.886000 3.897000 -15.333000
v 4.886000 3.897000 -16.500000
v 4.886000 3.897000 -17.667000
v 4.886000 3.897000 -18.833000
v 3.896000 4.887000 -14.167000
v 3.896000 4.887000 -15.333000
v 3.896000 4.887000 -16.500000
v 3.896000 4.887000 -17.667000
v 3.896000 4.887000 -18.833000
v 2.711000 5.632000 -14.167000
v 2.711000 5.632000 -15.333000
v 2.711000 5.632000 -16.500000
v 2.711000 5.632000 -17.667000
v 2.711000 5.632000 -18.833000
v 1.389000 6.094000 -14.167000
v 1.389000 6.094000 -15.333000
v 1.389000 6.094000 -16.500000
v 1.389000 6.094000 -17.667000
v 1.389000 6.094000 -18.833000
v -2.712000 5.631000 -13.000000
v 6.093000 1.391000 0.000000
v 6.250000 0.000000 0.000000
v 5.631000 2.712000 0.000000
v 4.886000 3.897000 0.000000
v 3.897000 4.886000 0.000000
v 2.712000 5.631000 0.000000
v 1.391000 6.093000 0.000000
v 0.000000 6.250000 0.000000
v -1.391000 6.093000 0.000000
v -2.712000 5.631000 0.000000
v -3.897000 4.886000 0.000000
v -4.886000 3.897000 0.000000
v -5.631000 2.712000 0.000000
v -6.093000 1.391000 0.000000
v -6.250000 0.000000 0.000000
v -6.250000 0.625000 -13.000000
v -6.171500 0.695500 -13.000000
v 5.633000 2.712000 14.300000
v 5.631000 2.712000 15.000000
v 4.888000 3.897000 14.300000
v 4.886000 3.897000 15.000000
v 3.899000 4.886000 14.300000
v 3.897000 4.886000 15.000000
v 2.714000 5.631000 14.300000
v 2.712000 5.631000 15.000000
v 1.393000 6.093000 14.300000
v 1.391000 6.093000 15.000000
v 0.002000 6.250000 14.300000
v 0.000000 6.250000 15.000000
v -1.389000 6.093000 14.300000
v -1.391000 6.093000 15.000000
v -2.710000 5.631000 14.300000
v -2.712000 5.631000 15.000000
v -3.895000 4.886000 14.300000
v -3.897000 4.886000 15.000000
v -4.884000 3.897000 14.300000
v -4.886000 3.897000 15.000000
v -5.629000 2.712000 14.300000
v -5.631000 2.712000 15.000000
v 6.095000 1.391000 13.000000
v 6.252000 0.000000 13.000000
v 6.095000 1.391000 11.700000
v 6.252000 0.000000 11.700000
v 5.633000 2.712000 13.000000
v 5.633000 2.712000 11.700000
v 4.888000 3.897000 13.000000
v 4.888000 3.897000 11.700000
v 3.899000 4.886000 13.000000
v 3.899000 4.886000 11.700000
v 2.714000 5.631000 13.000000
v 2.714000 5.631000 11.700000
v 1.393000 6.093000 13.000000
v 1.393000 6.093000 11.700000
v 0.002000 6.250000 13.000000
v 0.002000 6.250000 11.700000
v -1.389000 6.093000 13.000000
v -1.389000 6.093000 11.700000
v -2.710000 5.631000 13.000000
v -2.710000 5.631000 11.700000
v -3.895000 4.886000 13.000000
v -3.895000 4.886000 11.700000
v -4.884000 3.897000 13.000000
v -4.884000 3.897000 11.700000
v -5.629000 2.712000 13.000000
v -5.629000 2.712000 11.700000
v -6.091000 1.391000 13.000000
v -6.091000 1.391000 11.700000
v -6.248000 0.000000 13.000000
v -6.248000 0.000000 11.700000
v -1.562000 0.000000 15.000000
v 0.000000 0.000000 15.000000
v -1.523000 0.348000 15.000000
v -3.047000 0.695000 15.000000
v -3.125000 0.000000 15.000000
v -4.570000 1.043000 15.000000
v -4.687000 0.000000 15.000000
v -2.816000 1.356000 15.000000
v -4.223000 2.034000 15.000000
v -1.408000 0.678000 15.000000
v -1.222000 0.974000 15.000000
v -3.665000 2.923000 15.000000
v -0.974000 1.222000 15.000000
v -1.948000 2.443000 15.000000
v -2.443000 1.948000 15.000000
v -2.923000 3.665000 15.000000
v -0.678000 1.408000 15.000000
v -0.348000 1.523000 15.000000
v -0.695000 3.047000 15.000000
v -1.356000 2.816000 15.000000
v -1.043000 4.570000 15.000000
v -2.034000 4.223000 15.000000
v 0.000000 1.562000 15.000000
v 0.000000 3.125000 15.000000
v 0.695000 3.047000 15.000000
v 1.043000 4.570000 15.000000
v 0.000000 4.687000 15.000000
v 0.348000 1.523000 15.000000
v 0.678000 1.408000 15.000000
v 1.356000 2.816000 15.000000
v 2.034000 4.223000 15.000000
v 1.948000 2.443000 15.000000
v 2.923000 3.665000 15.000000
v 0.974000 1.222000 15.000000
v 1.222000 0.974000 15.000000
v 3.665000 2.923000 15.000000
v 1.408000 0.678000 15.000000
v 2.816000 1.356000 15.000000
v 2.443000 1.948000 15.000000
v 1.523000 0.348000 15.000000
v 3.047000 0.695000 15.000000
v 4.570000 1.043000 15.000000
v 4.223000 2.034000 15.000000
v 1.563000 0.000000 15.000000
v 3.125000 0.000000 15.000000
v 4.688000 0.000000 15.000000
v -6.248000 0.000000 3.900000
v -6.091000 1.391000 3.900000
v -6.248000 0.000000 5.200000
v -6.091000 1.391000 5.200000
v -6.248000 0.000000 6.500000
v -6.091000 1.391000 6.500000
v -6.248000 0.000000 7.800000
v -6.091000 1.391000 7.800000
v -6.248000 0.000000 9.100000
v -6.091000 1.391000 9.100000
v -6.248000 0.000000 10.400000
v -6.091000 1.391000 10.400000
v -5.629000 2.712000 3.900000
v -5.629000 2.712000 5.200000
v -5.629000 2.712000 6.500000
v -5.629000 2.712000 7.800000
v -5.629000 2.712000 9.100000
v -5.629000 2.712000 10.400000
v -4.884000 3.897000 3.900000
v -4.884000 3.897000 5.200000
v -4.884000 3.897000 6.500000
v -4.884000 3.897000 7.800000
v -4.884000 3.897000 9.100000
v -4.884000 3.897000 10.400000
v -3.895000 4.886000 3.900000
v -3.895000 4.886000 5.200000
v -3.895000 4.886000 6.500000
v -3.895000 4.886000 7.800000
v -3.895000 4.886000 9.100000
v -3.895000 4.886000 10.400000
v -2.710000 5.631000 3.900000
v -2.710000 5.631000 5.200000
v -2.710000 5.631000 6.500000
v -2.710000 5.631000 7.800000
v -2.710000 5.631000 9.100000
v -2.710000 5.631000 10.400000
v -1.389000 6.093000 3.900000
v -1.389000 6.093000 5.200000
v -1.389000 6.093000 6.500000
v -1.389000 6.093000 7.800000
v -1.389000 6.093000 9.100000
v -1.389000 6.093000 10.400000
v 0.002000 6.250000 3.900000
v 0.002000 6.250000 5.200000
v 0.002000 6.250000 6.500000
v 0.002000 6.250000 7.800000
v 0.002000 6.250000 9.100000
v 0.002000 6.250000 10.400000
v 1.393000 6.093000 3.900000
v 1.393000 6.093000 5.200000
v 1.393000 6.093000 6.500000
v 1.393000 6.093000 7.800000
v 1.393000 6.093000 9.100000
v 1.393000 6.093000 10.400000
v 2.714000 5.631000 3.900000
v 2.714000 5.631000 5.200000
v 2.714000 5.631000 6.500000
v 2.714000 5.631000 7.800000
v 2.714000 5.631000 9.100000
v 2.714000 5.631000 10.400000
v 3.899000 4.886000 3.900000
v 3.899000 4.886000 5.200000
v 3.899000 4.886000 6.500000
v 3.899000 4.886000 7.800000
v 3.899000 4.886000 9.100000
v 3.899000 4.886000 10.400000
v 4.888000 3.897000 3.900000
v 4.888000 3.897000 5.200000
v 4.888000 3.897000 6.500000
v 4.888000 3.897000 7.800000
v 4.888000 3.897000 9.100000
v 4.888000 3.897000 10.400000
v 5.633000 2.712000 3.900000
v 5.633000 2.712000 5.200000
v 5.633000 2.712000 6.500000
v 5.633000 2.712000 7.800000
v 5.633000 2.712000 9.100000
v 5.633000 2.712000 10.400000
v 6.095000 1.391000 3.900000
v 6.095000 1.391000 5.200000
v 6.095000 1.391000 6.500000
v 6.095000 1.391000 7.800000
v 6.095000 1.391000 9.100000
v 6.095000 1.391000 10.400000
v 6.252000 0.000000 3.900000
v 6.252000 0.000000 5.200000
v 6.252000 0.000000 6.500000
v 6.252000 0.000000 7.800000
v 6.252000 0.000000 9.100000
v 6.252000 0.000000 10.400000
v -6.250000 0.625000 -20.000000
v -6.171500 0.695000 -20.000000
v -6.091000 -1.391000 2.600000
v -6.093000 -1.391000 1.300000
v -5.629000 -2.712000 2.600000
v -5.631000 -2.712000 1.300000
v -4.884000 -3.897000 2.600000
v -4.886000 -3.897000 1.300000
v -3.895000 -4.886000 2.600000
v -3.897000 -4.886000 1.300000
v -2.710000 -5.631000 2.600000
v -2.712000 -5.631000 1.300000
v -1.389000 -6.093000 2.600000
v -1.391000 -6.093000 1.300000
v 0.002000 -6.250000 2.600000
v 0.000000 -6.250000 1.300000
v 1.393000 -6.093000 2.600000
v 1.391000 -6.093000 1.300000
v 2.714000 -5.631000 2.600000
v 2.712000 -5.631000 1.300000
v 3.899000 -4.886000 2.600000
v 3.897000 -4.886000 1.300000
v 4.888000 -3.897000 2.600000
v 4.886000 -3.897000 1.300000
v 5.633000 -2.712000 2.600000
v 5.631000 -2.712000 1.300000
v 6.095000 -1.391000 2.600000
v 6.093000 -1.391000 1.300000
v 3.896000 -4.887000 -20.000000
v 4.886000 -3.897000 -20.000000
v 3.665000 -2.923000 -20.000000
v 2.923000 -3.665000 -20.000000
v 2.711000 -5.632000 -20.000000
v 2.034000 -4.223000 -20.000000
v 1.389000 -6.094000 -20.000000
v 1.043000 -4.570000 -20.000000
v -2.712000 -5.631000 -10.400000
v -2.712000 -5.631000 -9.100000
v -1.391000 -6.093000 -9.100000
v -1.391000 -6.093000 -10.400000
v -1.564000 -6.250000 -13.000000
v -0.697000 -6.171500 -13.000000
v -0.783000 -6.250000 -13.000000
v -4.886000 -3.897000 -13.000000
v -5.568000 -3.823000 -13.000000
v -5.941000 -2.606000 -13.000000
v -5.631000 -2.712000 -13.000000
v -3.898000 -4.886000 -13.000000
v -5.074000 -4.943000 -13.000000
v 3.896000 -4.887000 -13.000000
v 3.897000 -4.886000 -11.700000
v 4.886000 -3.897000 -11.700000
v 4.886000 -3.897000 -13.000000
v 2.711000 -5.632000 -13.000000
v 2.712000 -5.631000 -11.700000
v 1.389000 -6.094000 -13.000000
v 1.391000 -6.093000 -11.700000
v -0.002000 -6.250000 -13.000000
v 0.000000 -6.250000 -11.700000
v 6.095000 -1.391000 14.300000
v 6.093000 -1.391000 15.000000
v -6.093000 -1.391000 15.000000
v -6.091000 -1.391000 14.300000
v -2.259000 -6.171000 -20.000000
v -3.126000 -6.250000 -20.000000
v -2.345000 -6.250000 -20.000000
v -1.391000 -6.093000 -20.000000
v -1.564000 -6.250000 -20.000000
v -0.696500 -6.171500 -20.000000
v -0.783000 -6.250000 -20.000000
v -0.002000 -6.250000 -20.000000
v -2.345000 -6.250000 -13.000000
v -3.126000 -6.250000 -13.000000
v -2.259000 -6.171000 -13.000000
v -1.392000 -6.093000 -13.000000
v -5.941000 -2.606000 -20.000000
v -6.172000 -1.320000 -20.000000
v -6.250000 -1.250000 -20.000000
v -6.250000 -2.500000 -20.000000
v -5.568000 -3.823000 -20.000000
v -6.250000 -3.750000 -20.000000
v -5.074000 -4.943000 -20.000000
v -6.250000 -5.000000 -20.000000
v -4.481000 -5.940000 -20.000000
v -6.250000 -6.250000 -20.000000
v -6.250000 -2.500000 -13.000000
v -6.250000 -1.250000 -13.000000
v -6.172000 -1.320000 -13.000000
v -6.250000 -3.750000 -13.000000
v -6.250000 -5.000000 -13.000000
v -4.481000 -5.940000 -13.000000
v -6.250000 -6.250000 -13.000000
v 6.093000 -1.391000 -2.600000
v 6.093000 -1.391000 -1.300000
v 6.093000 -1.391000 -3.900000
v 6.093000 -1.391000 -5.200000
v 6.093000 -1.391000 -6.500000
v 6.093000 -1.391000 -7.800000
v 6.093000 -1.391000 -9.100000
v 6.093000 -1.391000 -10.400000
v 6.093000 -1.391000 -11.700000
v 6.093000 -1.391000 -13.000000
v 5.631000 -2.712000 -2.600000
v 5.631000 -2.712000 -1.300000
v 5.631000 -2.712000 -3.900000
v 5.631000 -2.712000 -5.200000
v 5.631000 -2.712000 -6.500000
v 5.631000 -2.712000 -7.800000
v 5.631000 -2.712000 -9.100000
v 5.631000 -2.712000 -10.400000
v 5.631000 -2.712000 -11.700000
v 5.631000 -2.712000 -13.000000
v 4.886000 -3.897000 -2.600000
v 4.886000 -3.897000 -1.300000
v 4.886000 -3.897000 -3.900000
v 4.886000 -3.897000 -5.200000
v 4.886000 -3.897000 -6.500000
v 4.886000 -3.897000 -7.800000
v 4.886000 -3.897000 -9.100000
v 4.886000 -3.897000 -10.400000
v 3.897000 -4.886000 -2.600000
v 3.897000 -4.886000 -1.300000
v 3.897000 -4.886000 -3.900000
v 3.897000 -4.886000 -5.200000
v 3.897000 -4.886000 -6.500000
v 3.897000 -4.886000 -7.800000
v 3.897000 -4.886000 -9.100000
v 3.897000 -4.886000 -10.400000
v 2.712000 -5.631000 -2.600000
v 2.712000 -5.631000 -1.300000
v 2.712000 -5.631000 -3.900000
v 2.712000 -5.631000 -5.200000
v 2.712000 -5.631000 -6.500000
v 2.712000 -5.631000 -7.800000
v 2.712000 -5.631000 -9.100000
v 2.712000 -5.631000 -10.400000
v 1.391000 -6.093000 -2.600000
v 1.391000 -6.093000 -1.300000
v 1.391000 -6.093000 -3.900000
v 1.391000 -6.093000 -5.200000
v 1.391000 -6.093000 -6.500000
v 1.391000 -6.093000 -7.800000
v 1.391000 -6.093000 -9.100000
v 1.391000 -6.093000 -10.400000
v 0.000000 -6.250000 -2.600000
v 0.000000 -6.250000 -1.300000
v 0.000000 -6.250000 -3.900000
v 0.000000 -6.250000 -5.200000
v 0.000000 -6.250000 -6.500000
v 0.000000 -6.250000 -7.800000
v 0.000000 -6.250000 -9.100000
v 0.000000 -6.250000 -10.400000
v -1.391000 -6.093000 -2.600000
v -1.391000 -6.093000 -1.300000
v -1.391000 -6.093000 -3.900000
v -1.391000 -6.093000 -5.200000
v -1.391000 -6.093000 -6.500000
v -1.391000 -6.093000 -7.800000
v -1.391000 -6.093000 -11.700000
v -2.712000 -5.631000 -2.600000
v -2.712000 -5.631000 -1.300000
v -2.712000 -5.631000 -3.900000
v -2.712000 -5.631000 -5.200000
v -2.712000 -5.631000 -6.500000
v -2.712000 -5.631000 -7.800000
v -2.712000 -5.631000 -11.700000
v -3.897000 -4.886000 -2.600000
v -3.897000 -4.886000 -1.300000
v -3.897000 -4.886000 -3.900000
v -3.897000 -4.886000 -5.200000
v -3.897000 -4.886000 -6.500000
v -3.897000 -4.886000 -7.800000
v -3.897000 -4.886000 -9.100000
v -3.897000 -4.886000 -10.400000
v -3.897000 -4.886000 -11.700000
v -4.886000 -3.897000 -2.600000
v -4.886000 -3.897000 -1.300000
v -4.886000 -3.897000 -3.900000
v -4.886000 -3.897000 -5.200000
v -4.886000 -3.897000 -6.500000
v -4.886000 -3.897000 -7.800000
v -4.886000 -3.897000 -9.100000
v -4.886000 -3.897000 -10.400000
v -4.886000 -3.897000 -11.700000
v -5.631000 -2.712000 -2.600000
v -5.631000 -2.712000 -1.300000
v -5.631000 -2.712000 -3.900000
v -5.631000 -2.712000 -5.200000
v -5.631000 -2.712000 -6.500000
v -5.631000 -2.712000 -7.800000
v -5.631000 -2.712000 -9.100000
v -5.631000 -2.712000 -10.400000
v -5.631000 -2.712000 -11.700000
v -6.093000 -1.391000 -2.600000
v -6.093000 -1.391000 -1.300000
v -6.093000 -1.391000 -3.900000
v -6.093000 -1.391000 -5.200000
v -6.093000 -1.391000 -6.500000
v -6.093000 -1.391000 -7.800000
v -6.093000 -1.391000 -9.100000
v -6.093000 -1.391000 -10.400000
v -6.093000 -1.391000 -11.700000
v -6.093000 -1.391000 -13.000000
v -4.688000 -6.250000 -18.833000
v -4.688000 -6.250000 -20.000000
v -6.250000 -6.250000 -18.833000
v -3.126000 -6.250000 -18.833000
v -1.564000 -6.250000 -18.833000
v -0.002000 -6.250000 -18.833000
v -4.688000 -6.250000 -17.667000
v -6.250000 -6.250000 -17.667000
v -3.126000 -6.250000 -17.667000
v -1.564000 -6.250000 -17.667000
v -0.002000 -6.250000 -17.667000
v -4.688000 -6.250000 -16.500000
v -6.250000 -6.250000 -16.500000
v -3.126000 -6.250000 -16.500000
v -1.564000 -6.250000 -16.500000
v -0.002000 -6.250000 -16.500000
v -4.688000 -6.250000 -15.333000
v -6.250000 -6.250000 -15.333000
v -3.126000 -6.250000 -15.333000
v -1.564000 -6.250000 -15.333000
v -0.002000 -6.250000 -15.333000
v -4.688000 -6.250000 -14.167000
v -6.250000 -6.250000 -14.167000
v -3.126000 -6.250000 -14.167000
v -1.564000 -6.250000 -14.167000
v -0.002000 -6.250000 -14.167000
v -4.688000 -6.250000 -13.000000
v 1.523000 -0.348000 -20.000000
v 3.047000 -0.695000 -20.000000
v 4.570000 -1.043000 -20.000000
v 6.093000 -1.391000 -20.000000
v 1.408000 -0.678000 -20.000000
v 2.816000 -1.356000 -20.000000
v 4.223000 -2.034000 -20.000000
v 5.631000 -2.712000 -20.000000
v 1.222000 -0.974000 -20.000000
v 2.443000 -1.948000 -20.000000
v 0.974000 -1.222000 -20.000000
v 1.948000 -2.443000 -20.000000
v 0.678000 -1.408000 -20.000000
v 1.356000 -2.816000 -20.000000
v 0.348000 -1.523000 -20.000000
v 0.695000 -3.047000 -20.000000
v 0.000000 -1.562000 -20.000000
v 0.000000 -3.125000 -20.000000
v 0.000000 -4.687000 -20.000000
v -0.348000 -1.523000 -20.000000
v -0.695000 -3.047000 -20.000000
v -1.043000 -4.570000 -20.000000
v -0.678000 -1.408000 -20.000000
v -1.356000 -2.816000 -20.000000
v -2.034000 -4.223000 -20.000000
v -2.712000 -5.631000 -20.000000
v -0.974000 -1.222000 -20.000000
v -1.948000 -2.443000 -20.000000
v -2.923000 -3.665000 -20.000000
v -3.897000 -4.886000 -20.000000
v -1.222000 -0.974000 -20.000000
v -2.443000 -1.948000 -20.000000
v -3.665000 -2.923000 -20.000000
v -4.886000 -3.897000 -20.000000
v -1.408000 -0.678000 -20.000000
v -2.816000 -1.356000 -20.000000
v -4.223000 -2.034000 -20.000000
v -5.631000 -2.712000 -20.000000
v -1.523000 -0.348000 -20.000000
v -3.047000 -0.695000 -20.000000
v -4.570000 -1.043000 -20.000000
v -6.093000 -1.391000 -20.000000
v 6.093000 -1.391000 -14.167000
v 6.093000 -1.391000 -15.333000
v 6.093000 -1.391000 -16.500000
v 6.093000 -1.391000 -17.667000
v 6.093000 -1.391000 -18.833000
v 5.631000 -2.712000 -14.167000
v 5.631000 -2.712000 -15.333000
v 5.631000 -2.712000 -16.500000
v 5.631000 -2.712000 -17.667000
v 5.631000 -2.712000 -18.833000
v 4.886000 -3.897000 -14.167000
v 4.886000 -3.897000 -15.333000
v 4.886000 -3.897000 -16.500000
v 4.886000 -3.897000 -17.667000
v 4.886000 -3.897000 -18.833000
v 3.896000 -4.887000 -14.167000
v 3.896000 -4.887000 -15.333000
v 3.896000 -4.887000 -16.500000
v 3.896000 -4.887000 -17.667000
v 3.896000 -4.887000 -18.833000
v 2.711000 -5.632000 -14.167000
v 2.711000 -5.632000 -15.333000
v 2.711000 -5.632000 -16.500000
v 2.711000 -5.632000 -17.667000
v 2.711000 -5.632000 -18.833000
v 1.389000 -6.094000 -14.167000
v 1.389000 -6.094000 -15.333000
v 1.389000 -6.094000 -16.500000
v 1.389000 -6.094000 -17.667000
v 1.389000 -6.094000 -18.833000
v -2.712000 -5.631000 -13.000000
v 6.093000 -1.391000 0.000000
v 5.631000 -2.712000 0.000000
v 4.886000 -3.897000 0.000000
v 3.897000 -4.886000 0.000000
v 2.712000 -5.631000 0.000000
v 1.391000 -6.093000 0.000000
v 0.000000 -6.250000 0.000000
v -1.391000 -6.093000 0.000000
v -2.712000 -5.631000 0.000000
v -3.897000 -4.886000 0.000000
v -4.886000 -3.897000 0.000000
v -5.631000 -2.712000 0.000000
v -6.093000 -1.391000 0.000000
v -6.250000 -0.625000 -13.000000
v -6.171500 -0.695500 -13.000000
v 5.633000 -2.712000 14.300000
v 5.631000 -2.712000 15.000000
v 4.888000 -3.897000 14.300000
v 4.886000 -3.897000 15.000000
v 3.899000 -4.886000 14.300000
v 3.897000 -4.886000 15.000000
v 2.714000 -5.631000 14.300000
v 2.712000 -5.631000 15.000000
v 1.393000 -6.093000 14.300000
v 1.391000 -6.093000 15.000000
v 0.002000 -6.250000 14.300000
v 0.000000 -6.250000 15.000000
v -1.389000 -6.093000 14.300000
v -1.391000 -6.093000 15.000000
v -2.710000 -5.631000 14.300000
v -2.712000 -5.631000 15.000000
v -3.895000 -4.886000 14.300000
v -3.897000 -4.886000 15.000000
v -4.884000 -3.897000 14.300000
v -4.886000 -3.897000 15.000000
v -5.629000 -2.712000 14.300000
v -5.631000 -2.712000 15.000000
v 6.095000 -1.391000 13.000000
v 6.095000 -1.391000 11.700000
v 5.633000 -2.712000 13.000000
v 5.633000 -2.712000 11.700000
v 4.888000 -3.897000 13.000000
v 4.888000 -3.897000 11.700000
v 3.899000 -4.886000 13.000000
v 3.899000 -4.886000 11.700000
v 2.714000 -5.631000 13.000000
v 2.714000 -5.631000 11.700000
v 1.393000 -6.093000 13.000000
v 1.393000 -6.093000 11.700000
v 0.002000 -6.250000 13.000000
v 0.002000 -6.250000 11.700000
v -1.389000 -6.093000 13.000000
v -1.389000 -6.093000 11.700000
v -2.710000 -5.631000 13.000000
v -2.710000 -5.631000 11.700000
v -3.895000 -4.886000 13.000000
v -3.895000 -4.886000 11.700000
v -4.884000 -3.897000 13.000000
v -4.884000 -3.897000 11.700000
v -5.629000 -2.712000 13.000000
v -5.629000 -2.712000 11.700000
v -6.091000 -1.391000 13.000000
v -6.091000 -1.391000 11.700000
v -1.523000 -0.348000 15.000000
v -3.047000 -0.695000 15.000000
v -4.570000 -1.043000 15.000000
v -2.816000 -1.356000 15.000000
v -4.223000 -2.034000 15.000000
v -1.408000 -0.678000 15.000000
v -1.222000 -0.974000 15.000000
v -3.665000 -2.923000 15.000000
v -0.974000 -1.222000 15.000000
v -1.948000 -2.443000 15.000000
v -2.443000 -1.948000 15.000000
v -2.923000 -3.665000 15.000000
v -0.678000 -1.408000 15.000000
v -0.348000 -1.523000 15.000000
v -0.695000 -3.047000 15.000000
v -1.356000 -2.816000 15.000000
v -1.043000 -4.570000 15.000000
v -2.034000 -4.223000 15.000000
v 0.000000 -1.562000 15.000000
v 0.000000 -3.125000 15.000000
v 0.695000 -3.047000 15.000000
v 1.043000 -4.570000 15.000000
v 0.000000 -4.687000 15.000000
v 0.348000 -1.523000 15.000000
v 0.678000 -1.408000 15.000000
v 1.356000 -2.816000 15.000000
v 2.034000 -4.223000 15.000000
v 1.948000 -2.443000 15.000000
v 2.923000 -3.665000 15.000000
v 0.974000 -1.222000 15.000000
v 1.222000 -0.974000 15.000000
v 3.665000 -2.923000 15.000000
v 1.408000 -0.678000 15.000000
v 2.816000 -1.356000 15.000000
v 2.443000 -1.948000 15.000000
v 1.523000 -0.348000 15.000000
v 3.047000 -0.695000 15.000000
v 4.570000 -1.043000 15.000000
v 4.223000 -2.034000 15.000000
v -6.091000 -1.391000 3.900000
v -6.091000 -1.391000 5.200000
v -6.091000 -1.391000 6.500000
v -6.091000 -1.391000 7.800000
v -6.091000 -1.391000 9.100000
v -6.091000 -1.391000 10.400000
v -5.629000 -2.712000 3.900000
v -5.629000 -2.712000 5.200000
v -5.629000 -2.712000 6.500000
v -5.629000 -2.712000 7.800000
v -5.629000 -2.712000 9.100000
v -5.629000 -2.712000 10.400000
v -4.884000 -3.897000 3.900000
v -4.884000 -3.897000 5.200000
v -4.884000 -3.897000 6.500000
v -4.884000 -3.897000 7.800000
v -4.884000 -3.897000 9.100000
v -4.884000 -3.897000 10.400000
v -3.895000 -4.886000 3.900000
v -3.895000 -4.886000 5.200000
v -3.895000 -4.886000 6.500000
v -3.895000 -4.886000 7.800000
v -3.895000 -4.886000 9.100000
v -3.895000 -4.886000 10.400000
v -2.710000 -5.631000 3.900000
v -2.710000 -5.631000 5.200000
v -2.710000 -5.631000 6.500000
v -2.710000 -5.631000 7.800000
v -2.710000 -5.631000 9.100000
v -2.710000 -5.631000 10.400000
v -1.389000 -6.093000 3.900000
v -1.389000 -6.093000 5.200000
v -1.389000 -6.093000 6.500000
v -1.389000 -6.093000 7.800000
v -1.389000 -6.093000 9.100000
v -1.389000 -6.093000 10.400000
v 0.002000 -6.250000 3.900000
v 0.002000 -6.250000 5.200000
v 0.002000 -6.250000 6.500000
v 0.002000 -6.250000 7.800000
v 0.002000 -6.250000 9.100000
v 0.002000 -6.250000 10.400000
v 1.393000 -6.093000 3.900000
v 1.393000 -6.093000 5.200000
v 1.393000 -6.093000 6.500000
v 1.393000 -6.093000 7.800000
v 1.393000 -6.093000 9.100000
v 1.393000 -6.093000 10.400000
v 2.714000 -5.631000 3.900000
v 2.714000 -5.631000 5.200000
v 2.714000 -5.631000 6.500000
v 2.714000 -5.631000 7.800000
v 2.714000 -5.631000 9.100000
v 2.714000 -5.631000 10.400000
v 3.899000 -4.886000 3.900000
v 3.899000 -4.886000 5.200000
v 3.899000 -4.886000 6.500000
v 3.899000 -4.886000 7.800000
v 3.899000 -4.886000 9.100000
v 3.899000 -4.886000 10.400000
v 4.888000 -3.897000 3.900000
v 4.888000 -3.897000 5.200000
v 4.888000 -3.897000 6.500000
v 4.888000 -3.897000 7.800000
v 4.888000 -3.897000 9.100000
v 4.888000 -3.897000 10.400000
v 5.633000 -2.712000 3.900000
v 5.633000 -2.712000 5.200000
v 5.633000 -2.712000 6.500000
v 5.633000 -2.712000 7.800000
v 5.633000 -2.712000 9.100000
v 5.633000 -2.712000 10.400000
v 6.095000 -1.391000 3.900000
v 6.095000 -1.391000 5.200000
v 6.095000 -1.391000 6.500000
v 6.095000 -1.391000 7.800000
v 6.095000 -1.391000 9.100000
v 6.095000 -1.391000 10.400000
v -6.250000 -0.625000 -20.000000
v -6.171500 -0.695000 -20.000000

f 1 2 3
f 1 3 4
f 4 3 5
f 4 5 6
f 6 5 7
f 6 7 8
f 8 7 9
f 8 9 10
f 10 9 11
f 10 11 12
f 12 11 13
f 12 13 14
f 14 13 15
f 14 15 16
f 16 15 17
f 16 17 18
f 18 17 19
f 18 19 20
f 20 19 21
f 20 21 22
f 22 21 23
f 22 23 24
f 24 23 25
f 24 25 26
f 26 25 27
f 26 27 28
f 28 27 29
f 28 29 30
f 31 32 33
f 31 33 34
f 35 31 34
f 35 34 36
f 37 35 36
f 37 36 38
f 39 40 41
f 39 41 42
f 43 44 45
f 43 45 45
f 46 47 48
f 46 48 49
f 50 51 47
f 50 47 46
f 52 53 54
f 52 54 55
f 56 57 53
f 56 53 52
f 58 59 57
f 58 57 56
f 60 61 59
f 60 59 58
f 62 63 64
f 62 64 65
f 66 67 68
f 66 68 69
f 70 71 72
f 70 72 72
f 73 70 74
f 73 74 74
f 72 74 70
f 72 70 70
f 75 76 77
f 75 77 77
f 75 73 74
f 75 74 74
f 76 75 74
f 76 74 74
f 78 79 80
f 78 80 80
f 80 43 78
f 80 78 78
f 43 80 81
f 43 81 81
f 44 60 45
f 44 45 45
f 81 44 43
f 81 43 43
f 82 83 84
f 82 84 85
f 86 82 85
f 86 85 87
f 88 86 87
f 88 87 89
f 90 88 89
f 90 89 91
f 70 90 91
f 70 91 71
f 48 92 93
f 48 93 94
f 47 95 92
f 47 92 48
f 51 96 95
f 51 95 47
f 97 98 96
f 97 96 51
f 80 79 98
f 80 98 97
f 99 100 101
f 99 101 102
f 103 99 102
f 103 102 104
f 105 103 104
f 105 104 106
f 107 105 106
f 107 106 108
f 109 107 108
f 109 108 110
f 111 109 110
f 111 110 112
f 113 111 112
f 113 112 114
f 115 113 114
f 115 114 116
f 117 115 116
f 117 116 118
f 119 120 100
f 119 100 99
f 121 119 99
f 121 99 103
f 122 121 103
f 122 103 105
f 123 122 105
f 123 105 107
f 124 123 107
f 124 107 109
f 125 124 109
f 125 109 111
f 126 125 111
f 126 111 113
f 127 126 113
f 127 113 115
f 128 127 115
f 128 115 117
f 129 130 120
f 129 120 119
f 131 129 119
f 131 119 121
f 132 131 121
f 132 121 122
f 133 132 122
f 133 122 123
f 134 133 123
f 134 123 124
f 135 134 124
f 135 124 125
f 136 135 125
f 136 125 126
f 54 136 126
f 54 126 127
f 55 54 127
f 55 127 128
f 137 138 130
f 137 130 129
f 139 137 129
f 139 129 131
f 140 139 131
f 140 131 132
f 141 140 132
f 141 132 133
f 142 141 133
f 142 133 134
f 143 142 134
f 143 134 135
f 144 143 135
f 144 135 136
f 53 144 136
f 53 136 54
f 145 146 138
f 145 138 137
f 147 145 137
f 147 137 139
f 148 147 139
f 148 139 140
f 149 148 140
f 149 140 141
f 150 149 141
f 150 141 142
f 151 150 142
f 151 142 143
f 152 151 143
f 152 143 144
f 57 152 144
f 57 144 53
f 153 154 146
f 153 146 145
f 155 153 145
f 155 145 147
f 156 155 147
f 156 147 148
f 157 156 148
f 157 148 149
f 158 157 149
f 158 149 150
f 159 158 150
f 159 150 151
f 160 159 151
f 160 151 152
f 59 160 152
f 59 152 57
f 161 162 154
f 161 154 153
f 163 161 153
f 163 153 155
f 164 163 155
f 164 155 156
f 165 164 156
f 165 156 157
f 166 165 157
f 166 157 158
f 167 166 158
f 167 158 159
f 168 167 159
f 168 159 160
f 61 168 160
f 61 160 59
f 169 170 162
f 169 162 161
f 171 169 161
f 171 161 163
f 172 171 163
f 172 163 164
f 173 172 164
f 173 164 165
f 174 173 165
f 174 165 166
f 41 174 166
f 41 166 167
f 42 41 167
f 42 167 168
f 175 42 168
f 175 168 61
f 176 177 170
f 176 170 169
f 178 176 169
f 178 169 171
f 179 178 171
f 179 171 172
f 180 179 172
f 180 172 173
f 181 180 173
f 181 173 174
f 40 181 174
f 40 174 41
f 182 39 42
f 182 42 175
f 183 184 177
f 183 177 176
f 185 183 176
f 185 176 178
f 186 185 178
f 186 178 179
f 187 186 179
f 187 179 180
f 188 187 180
f 188 180 181
f 189 188 181
f 189 181 40
f 190 189 40
f 190 40 39
f 191 190 39
f 191 39 182
f 192 193 184
f 192 184 183
f 194 192 183
f 194 183 185
f 195 194 185
f 195 185 186
f 196 195 186
f 196 186 187
f 197 196 187
f 197 187 188
f 198 197 188
f 198 188 189
f 199 198 189
f 199 189 190
f 200 199 190
f 200 190 191
f 201 202 193
f 201 193 192
f 203 201 192
f 203 192 194
f 204 203 194
f 204 194 195
f 205 204 195
f 205 195 196
f 206 205 196
f 206 196 197
f 207 206 197
f 207 197 198
f 208 207 198
f 208 198 199
f 209 208 199
f 209 199 200
f 49 209 200
f 49 200 46
f 210 211 202
f 210 202 201
f 212 210 201
f 212 201 203
f 213 212 203
f 213 203 204
f 214 213 204
f 214 204 205
f 215 214 205
f 215 205 206
f 216 215 206
f 216 206 207
f 217 216 207
f 217 207 208
f 218 217 208
f 218 208 209
f 219 218 209
f 219 209 49
f 220 221 211
f 220 211 210
f 222 220 210
f 222 210 212
f 223 222 212
f 223 212 213
f 224 223 213
f 224 213 214
f 225 224 214
f 225 214 215
f 226 225 215
f 226 215 216
f 227 226 216
f 227 216 217
f 228 227 217
f 228 217 218
f 229 228 218
f 229 218 219
f 230 231 91
f 230 91 232
f 233 71 231
f 233 231 230
f 234 74 71
f 234 71 233
f 235 77 74
f 235 74 234
f 236 230 232
f 236 232 237
f 238 233 230
f 238 230 236
f 239 234 233
f 239 233 238
f 240 235 234
f 240 234 239
f 241 236 237
f 241 237 242
f 243 238 236
f 243 236 241
f 244 239 238
f 244 238 243
f 245 240 239
f 245 239 244
f 246 241 242
f 246 242 247
f 248 243 241
f 248 241 246
f 249 244 243
f 249 243 248
f 250 245 244
f 250 244 249
f 251 246 247
f 251 247 252
f 253 248 246
f 253 246 251
f 254 249 248
f 254 248 253
f 255 250 249
f 255 249 254
f 256 251 252
f 256 252 98
f 79 253 251
f 79 251 256
f 43 254 253
f 43 253 79
f 60 255 254
f 60 254 43
f 257 258 259
f 257 259 259
f 260 261 257
f 260 257 259
f 262 263 261
f 262 261 260
f 264 265 263
f 264 263 262
f 259 258 266
f 259 266 266
f 267 260 259
f 267 259 266
f 268 262 260
f 268 260 267
f 269 264 262
f 269 262 268
f 266 258 270
f 266 270 270
f 271 267 266
f 271 266 270
f 33 268 267
f 33 267 271
f 32 269 268
f 32 268 33
f 270 258 272
f 270 272 272
f 273 271 270
f 273 270 272
f 34 33 271
f 34 271 273
f 272 258 274
f 272 274 274
f 275 273 272
f 275 272 274
f 36 34 273
f 36 273 275
f 274 258 276
f 274 276 276
f 277 275 274
f 277 274 276
f 38 36 275
f 38 275 277
f 276 258 278
f 276 278 278
f 279 277 276
f 279 276 278
f 280 38 277
f 280 277 279
f 278 258 281
f 278 281 281
f 282 279 278
f 282 278 281
f 283 280 279
f 283 279 282
f 281 258 284
f 281 284 284
f 285 282 281
f 285 281 284
f 286 283 282
f 286 282 285
f 287 73 283
f 287 283 286
f 284 258 288
f 284 288 288
f 289 285 284
f 289 284 288
f 290 286 285
f 290 285 289
f 291 287 286
f 291 286 290
f 288 258 292
f 288 292 292
f 293 289 288
f 293 288 292
f 294 290 289
f 294 289 293
f 295 291 290
f 295 290 294
f 292 258 296
f 292 296 296
f 297 293 292
f 297 292 296
f 298 294 293
f 298 293 297
f 299 295 294
f 299 294 298
f 296 258 300
f 296 300 300
f 301 297 296
f 301 296 300
f 302 298 297
f 302 297 301
f 303 299 298
f 303 298 302
f 300 258 304
f 300 304 304
f 305 301 300
f 305 300 304
f 306 302 301
f 306 301 305
f 307 303 302
f 307 302 306
f 308 117 118
f 308 118 309
f 310 308 309
f 310 309 311
f 312 310 311
f 312 311 313
f 314 312 313
f 314 313 315
f 316 314 315
f 316 315 317
f 264 316 317
f 264 317 265
f 318 128 117
f 318 117 308
f 319 318 308
f 319 308 310
f 320 319 310
f 320 310 312
f 321 320 312
f 321 312 314
f 322 321 314
f 322 314 316
f 269 322 316
f 269 316 264
f 323 55 128
f 323 128 318
f 324 323 318
f 324 318 319
f 325 324 319
f 325 319 320
f 326 325 320
f 326 320 321
f 327 326 321
f 327 321 322
f 32 327 322
f 32 322 269
f 328 52 55
f 328 55 323
f 329 328 323
f 329 323 324
f 330 329 324
f 330 324 325
f 331 330 325
f 331 325 326
f 332 331 326
f 332 326 327
f 31 332 327
f 31 327 32
f 333 56 52
f 333 52 328
f 334 333 328
f 334 328 329
f 335 334 329
f 335 329 330
f 336 335 330
f 336 330 331
f 337 336 331
f 337 331 332
f 35 337 332
f 35 332 31
f 338 58 56
f 338 56 333
f 339 338 333
f 339 333 334
f 340 339 334
f 340 334 335
f 341 340 335
f 341 335 336
f 342 341 336
f 342 336 337
f 37 342 337
f 37 337 35
f 255 60 58
f 255 58 338
f 250 255 338
f 250 338 339
f 245 250 339
f 245 339 340
f 240 245 340
f 240 340 341
f 235 240 341
f 235 341 342
f 77 235 342
f 77 342 37
f 49 48 94
f 49 94 219
f 46 200 191
f 46 191 50
f 50 191 182
f 50 182 343
f 343 97 51
f 343 51 50
f 81 80 97
f 81 97 343
f 343 182 175
f 343 175 81
f 81 175 61
f 81 61 60
f 73 77 280
f 73 280 283
f 77 37 38
f 77 38 280
f 73 287 90
f 73 90 70
f 287 291 88
f 287 88 90
f 291 295 86
f 291 86 88
f 295 299 82
f 295 82 86
f 299 303 83
f 299 83 82
f 344 28 30
f 344 30 345
f 100 344 345
f 100 345 101
f 346 26 28
f 346 28 344
f 120 346 344
f 120 344 100
f 347 24 26
f 347 26 346
f 130 347 346
f 130 346 120
f 348 22 24
f 348 24 347
f 138 348 347
f 138 347 130
f 349 20 22
f 349 22 348
f 146 349 348
f 146 348 138
f 350 18 20
f 350 20 349
f 154 350 349
f 154 349 146
f 351 16 18
f 351 18 350
f 162 351 350
f 162 350 154
f 352 14 16
f 352 16 351
f 170 352 351
f 170 351 162
f 353 12 14
f 353 14 352
f 177 353 352
f 177 352 170
f 354 10 12
f 354 12 353
f 184 354 353
f 184 353 177
f 355 8 10
f 355 10 354
f 193 355 354
f 193 354 184
f 356 6 8
f 356 8 355
f 202 356 355
f 202 355 193
f 357 4 6
f 357 6 356
f 211 357 356
f 211 356 202
f 358 1 4
f 358 4 357
f 221 358 357
f 221 357 211
f 359 360 93
f 359 93 93
f 219 93 360
f 219 360 360
f 360 359 229
f 360 229 229
f 361 362 63
f 361 63 62
f 363 364 362
f 363 362 361
f 365 366 364
f 365 364 363
f 367 368 366
f 367 366 365
f 369 370 368
f 369 368 367
f 371 372 370
f 371 370 369
f 373 374 372
f 373 372 371
f 375 376 374
f 375 374 373
f 377 378 376
f 377 376 375
f 379 380 378
f 379 378 377
f 381 382 380
f 381 380 379
f 69 68 382
f 69 382 381
f 383 62 65
f 383 65 384
f 385 383 384
f 385 384 386
f 387 361 62
f 387 62 383
f 388 387 383
f 388 383 385
f 389 363 361
f 389 361 387
f 390 389 387
f 390 387 388
f 391 365 363
f 391 363 389
f 392 391 389
f 392 389 390
f 393 367 365
f 393 365 391
f 394 393 391
f 394 391 392
f 395 369 367
f 395 367 393
f 396 395 393
f 396 393 394
f 397 371 369
f 397 369 395
f 398 397 395
f 398 395 396
f 399 373 371
f 399 371 397
f 400 399 397
f 400 397 398
f 401 375 373
f 401 373 399
f 402 401 399
f 402 399 400
f 403 377 375
f 403 375 401
f 404 403 401
f 404 401 402
f 405 379 377
f 405 377 403
f 406 405 403
f 406 403 404
f 407 381 379
f 407 379 405
f 408 407 405
f 408 405 406
f 409 69 381
f 409 381 407
f 410 409 407
f 410 407 408
f 411 66 69
f 411 69 409
f 412 411 409
f 412 409 410
f 413 414 415
f 413 415 415
f 413 415 416
f 413 416 417
f 417 416 418
f 417 418 419
f 419 418 68
f 419 68 67
f 416 420 421
f 416 421 418
f 418 421 382
f 418 382 68
f 422 414 423
f 422 423 423
f 421 424 380
f 421 380 382
f 423 414 425
f 423 425 425
f 423 425 426
f 423 426 427
f 424 428 378
f 424 378 380
f 425 414 429
f 425 429 429
f 429 414 430
f 429 430 430
f 429 430 431
f 429 431 432
f 432 431 433
f 432 433 434
f 434 433 374
f 434 374 376
f 430 414 435
f 430 435 435
f 430 435 436
f 430 436 431
f 436 437 438
f 436 438 439
f 439 438 370
f 439 370 372
f 440 414 441
f 440 441 441
f 440 441 442
f 440 442 437
f 437 442 443
f 437 443 438
f 438 443 368
f 438 368 370
f 442 444 445
f 442 445 443
f 446 414 447
f 446 447 447
f 445 448 364
f 445 364 366
f 447 449 450
f 447 450 451
f 449 414 452
f 449 452 452
f 450 453 454
f 450 454 455
f 455 454 63
f 455 63 362
f 452 414 456
f 452 456 456
f 452 456 457
f 452 457 453
f 453 457 458
f 453 458 454
f 454 458 64
f 454 64 63
f 415 414 422
f 415 422 422
f 415 422 420
f 415 420 416
f 422 423 427
f 422 427 420
f 420 427 424
f 420 424 421
f 427 426 428
f 427 428 424
f 425 429 432
f 425 432 426
f 426 432 434
f 426 434 428
f 428 434 376
f 428 376 378
f 431 436 439
f 431 439 433
f 433 439 372
f 433 372 374
f 435 414 440
f 435 440 440
f 435 440 437
f 435 437 436
f 441 414 446
f 441 446 446
f 441 446 444
f 441 444 442
f 443 445 366
f 443 366 368
f 446 447 451
f 446 451 444
f 444 451 448
f 444 448 445
f 447 414 449
f 447 449 449
f 451 450 455
f 451 455 448
f 448 455 362
f 448 362 364
f 449 452 453
f 449 453 450
f 2 459 460
f 2 460 3
f 459 461 462
f 459 462 460
f 461 463 464
f 461 464 462
f 463 465 466
f 463 466 464
f 465 467 468
f 465 468 466
f 467 469 470
f 467 470 468
f 469 412 410
f 469 410 470
f 3 460 471
f 3 471 5
f 460 462 472
f 460 472 471
f 462 464 473
f 462 473 472
f 464 466 474
f 464 474 473
f 466 468 475
f 466 475 474
f 468 470 476
f 468 476 475
f 470 410 408
f 470 408 476
f 5 471 477
f 5 477 7
f 471 472 478
f 471 478 477
f 472 473 479
f 472 479 478
f 473 474 480
f 473 480 479
f 474 475 481
f 474 481 480
f 475 476 482
f 475 482 481
f 476 408 406
f 476 406 482
f 7 477 483
f 7 483 9
f 477 478 484
f 477 484 483
f 478 479 485
f 478 485 484
f 479 480 486
f 479 486 485
f 480 481 487
f 480 487 486
f 481 482 488
f 481 488 487
f 482 406 404
f 482 404 488
f 9 483 489
f 9 489 11
f 483 484 490
f 483 490 489
f 484 485 491
f 484 491 490
f 485 486 492
f 485 492 491
f 486 487 493
f 486 493 492
f 487 488 494
f 487 494 493
f 488 404 402
f 488 402 494
f 11 489 495
f 11 495 13
f 489 490 496
f 489 496 495
f 490 491 497
f 490 497 496
f 491 492 498
f 491 498 497
f 492 493 499
f 492 499 498
f 493 494 500
f 493 500 499
f 494 402 400
f 494 400 500
f 13 495 501
f 13 501 15
f 495 496 502
f 495 502 501
f 496 497 503
f 496 503 502
f 497 498 504
f 497 504 503
f 498 499 505
f 498 505 504
f 499 500 506
f 499 506 505
f 500 400 398
f 500 398 506
f 15 501 507
f 15 507 17
f 501 502 508
f 501 508 507
f 502 503 509
f 502 509 508
f 503 504 510
f 503 510 509
f 504 505 511
f 504 511 510
f 505 506 512
f 505 512 511
f 506 398 396
f 506 396 512
f 17 507 513
f 17 513 19
f 507 508 514
f 507 514 513
f 508 509 515
f 508 515 514
f 509 510 516
f 509 516 515
f 510 511 517
f 510 517 516
f 511 512 518
f 511 518 517
f 512 396 394
f 512 394 518
f 19 513 519
f 19 519 21
f 513 514 520
f 513 520 519
f 514 515 521
f 514 521 520
f 515 516 522
f 515 522 521
f 516 517 523
f 516 523 522
f 517 518 524
f 517 524 523
f 518 394 392
f 518 392 524
f 21 519 525
f 21 525 23
f 519 520 526
f 519 526 525
f 520 521 527
f 520 527 526
f 521 522 528
f 521 528 527
f 522 523 529
f 522 529 528
f 523 524 530
f 523 530 529
f 524 392 390
f 524 390 530
f 23 525 531
f 23 531 25
f 525 526 532
f 525 532 531
f 526 527 533
f 526 533 532
f 527 528 534
f 527 534 533
f 528 529 535
f 528 535 534
f 529 530 536
f 529 536 535
f 530 390 388
f 530 388 536
f 25 531 537
f 25 537 27
f 531 532 538
f 531 538 537
f 532 533 539
f 532 539 538
f 533 534 540
f 533 540 539
f 534 535 541
f 534 541 540
f 535 536 542
f 535 542 541
f 536 388 385
f 536 385 542
f 27 537 543
f 27 543 29
f 537 538 544
f 537 544 543
f 538 539 545
f 538 545 544
f 539 540 546
f 539 546 545
f 540 541 547
f 540 547 546
f 541 542 548
f 541 548 547
f 542 385 386
f 542 386 548
f 549 550 307
f 549 307 307
f 550 549 84
f 550 84 84
f 84 303 550
f 84 550 550
f 551 2 1
f 552 551 1
f 553 551 552
f 554 553 552
f 555 553 554
f 556 555 554
f 557 555 556
f 558 557 556
f 559 557 558
f 560 559 558
f 561 559 560
f 562 561 560
f 563 561 562
f 564 563 562
f 565 563 564
f 566 565 564
f 567 565 566
f 568 567 566
f 569 567 568
f 570 569 568
f 571 569 570
f 572 571 570
f 573 571 572
f 574 573 572
f 575 573 574
f 576 575 574
f 29 575 576
f 30 29 576
f 579 578 577
f 580 579 577
f 580 577 581
f 582 580 581
f 582 581 583
f 584 582 583
f 587 586 585
f 588 587 585
f 591 590 589
f 591 591 589
f 594 593 592
f 595 594 592
f 593 597 596
f 592 593 596
f 600 599 598
f 601 600 598
f 599 603 602
f 598 599 602
f 603 605 604
f 602 603 604
f 605 607 606
f 604 605 606
f 64 609 608
f 65 64 608
f 610 67 66
f 611 610 66
f 614 613 612
f 614 614 612
f 616 612 615
f 616 616 615
f 612 616 614
f 612 612 614
f 619 618 617
f 619 619 617
f 616 615 617
f 616 616 617
f 616 617 618
f 616 616 618
f 622 621 620
f 622 622 620
f 620 589 622
f 620 620 622
f 623 622 589
f 623 623 589
f 591 606 590
f 591 591 590
f 589 590 623
f 589 589 623
f 626 625 624
f 627 626 624
f 627 624 628
f 629 627 628
f 629 628 630
f 631 629 630
f 631 630 632
f 633 631 632
f 633 632 612
f 613 633 612
f 635 634 594
f 636 635 594
f 634 637 593
f 594 634 593
f 637 638 597
f 593 637 597
f 638 640 639
f 597 638 639
f 640 621 622
f 639 640 622
f 101 642 641
f 102 101 641
f 102 641 643
f 104 102 643
f 104 643 644
f 106 104 644
f 106 644 645
f 108 106 645
f 108 645 646
f 110 108 646
f 110 646 647
f 112 110 647
f 112 647 648
f 114 112 648
f 114 648 649
f 116 114 649
f 116 649 650
f 118 116 650
f 642 652 651
f 641 642 651
f 641 651 653
f 643 641 653
f 643 653 654
f 644 643 654
f 644 654 655
f 645 644 655
f 645 655 656
f 646 645 656
f 646 656 657
f 647 646 657
f 647 657 658
f 648 647 658
f 648 658 659
f 649 648 659
f 649 659 660
f 650 649 660
f 652 662 661
f 651 652 661
f 651 661 663
f 653 651 663
f 653 663 664
f 654 653 664
f 654 664 665
f 655 654 665
f 655 665 666
f 656 655 666
f 656 666 667
f 657 656 667
f 657 667 668
f 658 657 668
f 658 668 600
f 659 658 600
f 659 600 601
f 660 659 601
f 662 670 669
f 661 662 669
f 661 669 671
f 663 661 671
f 663 671 672
f 664 663 672
f 664 672 673
f 665 664 673
f 665 673 674
f 666 665 674
f 666 674 675
f 667 666 675
f 667 675 676
f 668 667 676
f 668 676 599
f 600 668 599
f 670 678 677
f 669 670 677
f 669 677 679
f 671 669 679
f 671 679 680
f 672 671 680
f 672 680 681
f 673 672 681
f 673 681 682
f 674 673 682
f 674 682 683
f 675 674 683
f 675 683 684
f 676 675 684
f 676 684 603
f 599 676 603
f 678 686 685
f 677 678 685
f 677 685 687
f 679 677 687
f 679 687 688
f 680 679 688
f 680 688 689
f 681 680 689
f 681 689 690
f 682 681 690
f 682 690 691
f 683 682 691
f 683 691 692
f 684 683 692
f 684 692 605
f 603 684 605
f 686 694 693
f 685 686 693
f 685 693 695
f 687 685 695
f 687 695 696
f 688 687 696
f 688 696 697
f 689 688 697
f 689 697 698
f 690 689 698
f 690 698 699
f 691 690 699
f 691 699 700
f 692 691 700
f 692 700 607
f 605 692 607
f 694 702 701
f 693 694 701
f 693 701 703
f 695 693 703
f 695 703 704
f 696 695 704
f 696 704 705
f 697 696 705
f 697 705 706
f 698 697 706
f 698 706 587
f 699 698 587
f 699 587 588
f 700 699 588
f 700 588 707
f 607 700 707
f 702 709 708
f 701 702 708
f 701 708 710
f 703 701 710
f 703 710 711
f 704 703 711
f 704 711 712
f 705 704 712
f 705 712 713
f 706 705 713
f 706 713 586
f 587 706 586
f 588 585 714
f 707 588 714
f 709 716 715
f 708 709 715
f 708 715 717
f 710 708 717
f 710 717 718
f 711 710 718
f 711 718 719
f 712 711 719
f 712 719 720
f 713 712 720
f 713 720 721
f 586 713 721
f 586 721 722
f 585 586 722
f 585 722 723
f 714 585 723
f 716 725 724
f 715 716 724
f 715 724 726
f 717 715 726
f 717 726 727
f 718 717 727
f 718 727 728
f 719 718 728
f 719 728 729
f 720 719 729
f 720 729 730
f 721 720 730
f 721 730 731
f 722 721 731
f 722 731 732
f 723 722 732
f 725 734 733
f 724 725 733
f 724 733 735
f 726 724 735
f 726 735 736
f 727 726 736
f 727 736 737
f 728 727 737
f 728 737 738
f 729 728 738
f 729 738 739
f 730 729 739
f 730 739 740
f 731 730 740
f 731 740 741
f 732 731 741
f 732 741 595
f 592 732 595
f 734 743 742
f 733 734 742
f 733 742 744
f 735 733 744
f 735 744 745
f 736 735 745
f 736 745 746
f 737 736 746
f 737 746 747
f 738 737 747
f 738 747 748
f 739 738 748
f 739 748 749
f 740 739 749
f 740 749 750
f 741 740 750
f 741 750 751
f 595 741 751
f 743 221 220
f 742 743 220
f 742 220 222
f 744 742 222
f 744 222 223
f 745 744 223
f 745 223 224
f 746 745 224
f 746 224 225
f 747 746 225
f 747 225 226
f 748 747 226
f 748 226 227
f 749 748 227
f 749 227 228
f 750 749 228
f 750 228 229
f 751 750 229
f 633 753 752
f 754 633 752
f 753 613 755
f 752 753 755
f 613 616 756
f 755 613 756
f 616 619 757
f 756 616 757
f 754 752 758
f 759 754 758
f 752 755 760
f 758 752 760
f 755 756 761
f 760 755 761
f 756 757 762
f 761 756 762
f 759 758 763
f 764 759 763
f 758 760 765
f 763 758 765
f 760 761 766
f 765 760 766
f 761 762 767
f 766 761 767
f 764 763 768
f 769 764 768
f 763 765 770
f 768 763 770
f 765 766 771
f 770 765 771
f 766 767 772
f 771 766 772
f 769 768 773
f 774 769 773
f 768 770 775
f 773 768 775
f 770 771 776
f 775 770 776
f 771 772 777
f 776 771 777
f 774 773 778
f 640 774 778
f 773 775 621
f 778 773 621
f 775 776 589
f 621 775 589
f 776 777 606
f 589 776 606
f 779 258 257
f 779 779 257
f 257 261 780
f 779 257 780
f 261 263 781
f 780 261 781
f 263 265 782
f 781 263 782
f 783 258 779
f 783 783 779
f 779 780 784
f 783 779 784
f 780 781 785
f 784 780 785
f 781 782 786
f 785 781 786
f 787 258 783
f 787 787 783
f 783 784 788
f 787 783 788
f 784 785 579
f 788 784 579
f 785 786 578
f 579 785 578
f 789 258 787
f 789 789 787
f 787 788 790
f 789 787 790
f 788 579 580
f 790 788 580
f 791 258 789
f 791 791 789
f 789 790 792
f 791 789 792
f 790 580 582
f 792 790 582
f 793 258 791
f 793 793 791
f 791 792 794
f 793 791 794
f 792 582 584
f 794 792 584
f 795 258 793
f 795 795 793
f 793 794 796
f 795 793 796
f 794 584 797
f 796 794 797
f 798 258 795
f 798 798 795
f 795 796 799
f 798 795 799
f 796 797 800
f 799 796 800
f 801 258 798
f 801 801 798
f 798 799 802
f 801 798 802
f 799 800 803
f 802 799 803
f 800 615 804
f 803 800 804
f 805 258 801
f 805 805 801
f 801 802 806
f 805 801 806
f 802 803 807
f 806 802 807
f 803 804 808
f 807 803 808
f 809 258 805
f 809 809 805
f 805 806 810
f 809 805 810
f 806 807 811
f 810 806 811
f 807 808 812
f 811 807 812
f 813 258 809
f 813 813 809
f 809 810 814
f 813 809 814
f 810 811 815
f 814 810 815
f 811 812 816
f 815 811 816
f 817 258 813
f 817 817 813
f 813 814 818
f 817 813 818
f 814 815 819
f 818 814 819
f 815 816 820
f 819 815 820
f 304 258 817
f 304 304 817
f 817 818 305
f 304 817 305
f 818 819 306
f 305 818 306
f 819 820 307
f 306 819 307
f 118 650 821
f 309 118 821
f 309 821 822
f 311 309 822
f 311 822 823
f 313 311 823
f 313 823 824
f 315 313 824
f 315 824 825
f 317 315 825
f 317 825 782
f 265 317 782
f 650 660 826
f 821 650 826
f 821 826 827
f 822 821 827
f 822 827 828
f 823 822 828
f 823 828 829
f 824 823 829
f 824 829 830
f 825 824 830
f 825 830 786
f 782 825 786
f 660 601 831
f 826 660 831
f 826 831 832
f 827 826 832
f 827 832 833
f 828 827 833
f 828 833 834
f 829 828 834
f 829 834 835
f 830 829 835
f 830 835 578
f 786 830 578
f 601 598 836
f 831 601 836
f 831 836 837
f 832 831 837
f 832 837 838
f 833 832 838
f 833 838 839
f 834 833 839
f 834 839 840
f 835 834 840
f 835 840 577
f 578 835 577
f 598 602 841
f 836 598 841
f 836 841 842
f 837 836 842
f 837 842 843
f 838 837 843
f 838 843 844
f 839 838 844
f 839 844 845
f 840 839 845
f 840 845 581
f 577 840 581
f 602 604 846
f 841 602 846
f 841 846 847
f 842 841 847
f 842 847 848
f 843 842 848
f 843 848 849
f 844 843 849
f 844 849 850
f 845 844 850
f 845 850 583
f 581 845 583
f 604 606 777
f 846 604 777
f 846 777 772
f 847 846 772
f 847 772 767
f 848 847 767
f 848 767 762
f 849 848 762
f 849 762 757
f 850 849 757
f 850 757 619
f 583 850 619
f 636 594 595
f 751 636 595
f 723 732 592
f 596 723 592
f 714 723 596
f 851 714 596
f 597 639 851
f 596 597 851
f 639 622 623
f 851 639 623
f 707 714 851
f 623 707 851
f 607 707 623
f 606 607 623
f 797 619 615
f 800 797 615
f 584 583 619
f 797 584 619
f 632 804 615
f 612 632 615
f 630 808 804
f 632 630 804
f 628 812 808
f 630 628 808
f 624 816 812
f 628 624 812
f 625 820 816
f 624 625 816
f 30 576 852
f 345 30 852
f 345 852 642
f 101 345 642
f 576 574 853
f 852 576 853
f 852 853 652
f 642 852 652
f 574 572 854
f 853 574 854
f 853 854 662
f 652 853 662
f 572 570 855
f 854 572 855
f 854 855 670
f 662 854 670
f 570 568 856
f 855 570 856
f 855 856 678
f 670 855 678
f 568 566 857
f 856 568 857
f 856 857 686
f 678 856 686
f 566 564 858
f 857 566 858
f 857 858 694
f 686 857 694
f 564 562 859
f 858 564 859
f 858 859 702
f 694 858 702
f 562 560 860
f 859 562 860
f 859 860 709
f 702 859 709
f 560 558 861
f 860 560 861
f 860 861 716
f 709 860 716
f 558 556 862
f 861 558 862
f 861 862 725
f 716 861 725
f 556 554 863
f 862 556 863
f 862 863 734
f 725 862 734
f 554 552 864
f 863 554 864
f 863 864 743
f 734 863 743
f 552 1 358
f 864 552 358
f 864 358 221
f 743 864 221
f 635 866 865
f 635 635 865
f 866 635 751
f 866 866 751
f 229 865 866
f 229 229 866
f 609 868 867
f 608 609 867
f 868 870 869
f 867 868 869
f 870 872 871
f 869 870 871
f 872 874 873
f 871 872 873
f 874 876 875
f 873 874 875
f 876 878 877
f 875 876 877
f 878 880 879
f 877 878 879
f 880 882 881
f 879 880 881
f 882 884 883
f 881 882 883
f 884 886 885
f 883 884 885
f 886 888 887
f 885 886 887
f 888 610 611
f 887 888 611
f 65 608 889
f 384 65 889
f 384 889 890
f 386 384 890
f 608 867 891
f 889 608 891
f 889 891 892
f 890 889 892
f 867 869 893
f 891 867 893
f 891 893 894
f 892 891 894
f 869 871 895
f 893 869 895
f 893 895 896
f 894 893 896
f 871 873 897
f 895 871 897
f 895 897 898
f 896 895 898
f 873 875 899
f 897 873 899
f 897 899 900
f 898 897 900
f 875 877 901
f 899 875 901
f 899 901 902
f 900 899 902
f 877 879 903
f 901 877 903
f 901 903 904
f 902 901 904
f 879 881 905
f 903 879 905
f 903 905 906
f 904 903 906
f 881 883 907
f 905 881 907
f 905 907 908
f 906 905 908
f 883 885 909
f 907 883 909
f 907 909 910
f 908 907 910
f 885 887 911
f 909 885 911
f 909 911 912
f 910 909 912
f 887 611 913
f 911 887 913
f 911 913 914
f 912 911 914
f 611 66 411
f 913 611 411
f 913 411 412
f 914 913 412
f 915 414 413
f 915 915 413
f 916 915 413
f 417 916 413
f 917 916 417
f 419 917 417
f 610 917 419
f 67 610 419
f 919 918 916
f 917 919 916
f 888 919 917
f 610 888 917
f 921 414 920
f 921 921 920
f 886 922 919
f 888 886 919
f 923 414 921
f 923 923 921
f 924 923 921
f 925 924 921
f 884 926 922
f 886 884 922
f 927 414 923
f 927 927 923
f 928 414 927
f 928 928 927
f 929 928 927
f 930 929 927
f 931 929 930
f 932 931 930
f 880 931 932
f 882 880 932
f 933 414 928
f 933 933 928
f 934 933 928
f 929 934 928
f 936 935 934
f 937 936 934
f 876 936 937
f 878 876 937
f 939 414 938
f 939 939 938
f 940 939 938
f 935 940 938
f 941 940 935
f 936 941 935
f 874 941 936
f 876 874 936
f 943 942 940
f 941 943 940
f 945 414 944
f 945 945 944
f 870 946 943
f 872 870 943
f 948 947 945
f 949 948 945
f 950 414 947
f 950 950 947
f 952 951 948
f 953 952 948
f 609 952 953
f 868 609 953
f 456 414 950
f 456 456 950
f 457 456 950
f 951 457 950
f 458 457 951
f 952 458 951
f 64 458 952
f 609 64 952
f 920 414 915
f 920 920 915
f 918 920 915
f 916 918 915
f 925 921 920
f 918 925 920
f 922 925 918
f 919 922 918
f 926 924 925
f 922 926 925
f 930 927 923
f 924 930 923
f 932 930 924
f 926 932 924
f 882 932 926
f 884 882 926
f 937 934 929
f 931 937 929
f 878 937 931
f 880 878 931
f 938 414 933
f 938 938 933
f 935 938 933
f 934 935 933
f 944 414 939
f 944 944 939
f 942 944 939
f 940 942 939
f 872 943 941
f 874 872 941
f 949 945 944
f 942 949 944
f 946 949 942
f 943 946 942
f 947 414 945
f 947 947 945
f 953 948 949
f 946 953 949
f 868 953 946
f 870 868 946
f 951 950 947
f 948 951 947
f 954 459 2
f 551 954 2
f 955 461 459
f 954 955 459
f 956 463 461
f 955 956 461
f 957 465 463
f 956 957 463
f 958 467 465
f 957 958 465
f 959 469 467
f 958 959 467
f 914 412 469
f 959 914 469
f 960 954 551
f 553 960 551
f 961 955 954
f 960 961 954
f 962 956 955
f 961 962 955
f 963 957 956
f 962 963 956
f 964 958 957
f 963 964 957
f 965 959 958
f 964 965 958
f 912 914 959
f 965 912 959
f 966 960 553
f 555 966 553
f 967 961 960
f 966 967 960
f 968 962 961
f 967 968 961
f 969 963 962
f 968 969 962
f 970 964 963
f 969 970 963
f 971 965 964
f 970 971 964
f 910 912 965
f 971 910 965
f 972 966 555
f 557 972 555
f 973 967 966
f 972 973 966
f 974 968 967
f 973 974 967
f 975 969 968
f 974 975 968
f 976 970 969
f 975 976 969
f 977 971 970
f 976 977 970
f 908 910 971
f 977 908 971
f 978 972 557
f 559 978 557
f 979 973 972
f 978 979 972
f 980 974 973
f 979 980 973
f 981 975 974
f 980 981 974
f 982 976 975
f 981 982 975
f 983 977 976
f 982 983 976
f 906 908 977
f 983 906 977
f 984 978 559
f 561 984 559
f 985 979 978
f 984 985 978
f 986 980 979
f 985 986 979
f 987 981 980
f 986 987 980
f 988 982 981
f 987 988 981
f 989 983 982
f 988 989 982
f 904 906 983
f 989 904 983
f 990 984 561
f 563 990 561
f 991 985 984
f 990 991 984
f 992 986 985
f 991 992 985
f 993 987 986
f 992 993 986
f 994 988 987
f 993 994 987
f 995 989 988
f 994 995 988
f 902 904 989
f 995 902 989
f 996 990 563
f 565 996 563
f 997 991 990
f 996 997 990
f 998 992 991
f 997 998 991
f 999 993 992
f 998 999 992
f 1000 994 993
f 999 1000 993
f 1001 995 994
f 1000 1001 994
f 900 902 995
f 1001 900 995
f 1002 996 565
f 567 1002 565
f 1003 997 996
f 1002 1003 996
f 1004 998 997
f 1003 1004 997
f 1005 999 998
f 1004 1005 998
f 1006 1000 999
f 1005 1006 999
f 1007 1001 1000
f 1006 1007 1000
f 898 900 1001
f 1007 898 1001
f 1008 1002 567
f 569 1008 567
f 1009 1003 1002
f 1008 1009 1002
f 1010 1004 1003
f 1009 1010 1003
f 1011 1005 1004
f 1010 1011 1004
f 1012 1006 1005
f 1011 1012 1005
f 1013 1007 1006
f 1012 1013 1006
f 896 898 1007
f 1013 896 1007
f 1014 1008 569
f 571 1014 569
f 1015 1009 1008
f 1014 1015 1008
f 1016 1010 1009
f 1015 1016 1009
f 1017 1011 1010
f 1016 1017 1010
f 1018 1012 1011
f 1017 1018 1011
f 1019 1013 1012
f 1018 1019 1012
f 894 896 1013
f 1019 894 1013
f 1020 1014 571
f 573 1020 571
f 1021 1015 1014
f 1020 1021 1014
f 1022 1016 1015
f 1021 1022 1015
f 1023 1017 1016
f 1022 1023 1016
f 1024 1018 1017
f 1023 1024 1017
f 1025 1019 1018
f 1024 1025 1018
f 892 894 1019
f 1025 892 1019
f 1026 1020 573
f 575 1026 573
f 1027 1021 1020
f 1026 1027 1020
f 1028 1022 1021
f 1027 1028 1021
f 1029 1023 1022
f 1028 1029 1022
f 1030 1024 1023
f 1029 1030 1023
f 1031 1025 1024
f 1030 1031 1024
f 890 892 1025
f 1031 890 1025
f 543 1026 575
f 29 543 575
f 544 1027 1026
f 543 544 1026
f 545 1028 1027
f 544 545 1027
f 546 1029 1028
f 545 546 1028
f 547 1030 1029
f 546 547 1029
f 548 1031 1030
f 547 548 1030
f 386 890 1031
f 548 386 1031
f 307 1033 1032
f 307 307 1032
f 626 1032 1033
f 626 626 1033
f 1033 820 626
f 1033 1033 626
