<?xml version="1.0" encoding="us-ascii" standalone="no"?><svg xmlns="http://www.w3.org/2000/svg" xmlns:xlink="http://www.w3.org/1999/xlink" contentStyleType="text/css" height="428px" preserveAspectRatio="none" style="width:616px;height:428px;background:#FFFFFF;" version="1.1" viewBox="0 0 616 428" width="616px" zoomAndPan="magnify"><defs/><g><rect fill="#FF6347" height="27.6094" id="_title" rx="7.5" ry="7.5" style="stroke:#FF0000;stroke-width:2.0;" width="246" x="183.5" y="15"/><text fill="#000000" font-family="sans-serif" font-size="14" font-weight="bold" lengthAdjust="spacing" textLength="236" x="188.5" y="34.5332">BSEE Data API Selenium Workflow</text><path d="M179.5,48.6094 L179.5,57.7852 L159.5,61.7852 L179.5,65.7852 L179.5,74.9609 A0,0 0 0 0 179.5,74.9609 L462.5,74.9609 A0,0 0 0 0 462.5,74.9609 L462.5,58.6094 L452.5,48.6094 L179.5,48.6094 A0,0 0 0 0 179.5,48.6094 " fill="#FEFFDD" style="stroke:#181818;stroke-width:0.5;"/><path d="M452.5,48.6094 L452.5,58.6094 L462.5,58.6094 L452.5,48.6094 " fill="#FEFFDD" style="stroke:#181818;stroke-width:0.5;"/><text fill="#000000" font-family="sans-serif" font-size="13" lengthAdjust="spacing" textLength="262" x="185.5" y="67.1045">All manual operations performed by Selenium</text><ellipse cx="149.5" cy="61.7852" fill="#222222" rx="10" ry="10" style="stroke:#222222;stroke-width:1.0;"/><rect fill="none" height="263.9453" style="stroke:#000000;stroke-width:1.5;" width="594" x="11" y="84.9609"/><path d="M25,84.9609 L25,95.5703 L15,105.5703 L11,105.5703 " fill="none" style="stroke:#000000;stroke-width:1.5;"/><text fill="#000000" font-family="sans-serif" font-size="14" lengthAdjust="spacing" textLength="4" x="14" y="100.4941">&#160;</text><path d="M244.5,126.9414 L244.5,136.1172 L224.5,140.1172 L244.5,144.1172 L244.5,153.293 A0,0 0 0 0 244.5,153.293 L327.5,153.293 A0,0 0 0 0 327.5,153.293 L327.5,136.9414 L317.5,126.9414 L244.5,126.9414 A0,0 0 0 0 244.5,126.9414 " fill="#FEFFDD" style="stroke:#181818;stroke-width:0.5;"/><path d="M317.5,126.9414 L317.5,136.9414 L327.5,136.9414 L317.5,126.9414 " fill="#FEFFDD" style="stroke:#181818;stroke-width:0.5;"/><text fill="#000000" font-family="sans-serif" font-size="13" lengthAdjust="spacing" textLength="62" x="250.5" y="145.4365">- Selenium</text><rect fill="#F1F1F1" height="35.0938" rx="12.5" ry="12.5" style="stroke:#181818;stroke-width:0.5;" width="150" x="74.5" y="122.5703"/><text fill="#000000" font-family="sans-serif" font-size="12" lengthAdjust="spacing" textLength="130" x="84.5" y="145.0273">Open Browser | manual</text><path d="M298,167.6641 L298,193.1914 L278,197.1914 L298,201.1914 L298,226.7188 A0,0 0 0 0 298,226.7188 L595,226.7188 A0,0 0 0 0 595,226.7188 L595,177.6641 L585,167.6641 L298,167.6641 A0,0 0 0 0 298,167.6641 " fill="#FEFFDD" style="stroke:#181818;stroke-width:0.5;"/><path d="M585,167.6641 L585,177.6641 L595,177.6641 L585,167.6641 " fill="#FEFFDD" style="stroke:#181818;stroke-width:0.5;"/><text fill="#000000" font-family="sans-serif" font-size="13" lengthAdjust="spacing" textLength="133" x="304" y="186.1592">- URL does not change</text><text fill="#000000" font-family="sans-serif" font-size="13" lengthAdjust="spacing" textLength="82" x="304" y="202.5107">- Grid appears</text><text fill="#000000" font-family="sans-serif" font-size="13" lengthAdjust="spacing" textLength="276" x="304" y="218.8623">- Explore: Does grid have a sub url we can use?</text><rect fill="#F1F1F1" height="35.0938" rx="12.5" ry="12.5" style="stroke:#181818;stroke-width:0.5;" width="257" x="21" y="179.6445"/><text fill="#000000" font-family="sans-serif" font-size="12" lengthAdjust="spacing" textLength="237" x="31" y="202.1016">Enter WellAPI12 and submit query | manual</text><path d="M222.5,251.0898 L222.5,260.2656 L202.5,264.2656 L222.5,268.2656 L222.5,277.4414 A0,0 0 0 0 222.5,277.4414 L268.5,277.4414 A0,0 0 0 0 268.5,277.4414 L268.5,261.0898 L258.5,251.0898 L222.5,251.0898 A0,0 0 0 0 222.5,251.0898 " fill="#FEFFDD" style="stroke:#181818;stroke-width:0.5;"/><path d="M258.5,251.0898 L258.5,261.0898 L268.5,261.0898 L258.5,251.0898 " fill="#FEFFDD" style="stroke:#181818;stroke-width:0.5;"/><text fill="#000000" font-family="sans-serif" font-size="13" lengthAdjust="spacing" textLength="25" x="228.5" y="269.585">TBA</text><rect fill="#F1F1F1" height="35.0938" rx="12.5" ry="12.5" style="stroke:#181818;stroke-width:0.5;" width="106" x="96.5" y="246.7188"/><text fill="#000000" font-family="sans-serif" font-size="12" lengthAdjust="spacing" textLength="83" x="109.5" y="269.1758">Download CSV</text><path d="M219.5,306.1836 L219.5,315.3594 L199.5,319.3594 L219.5,323.3594 L219.5,332.5352 A0,0 0 0 0 219.5,332.5352 L265.5,332.5352 A0,0 0 0 0 265.5,332.5352 L265.5,316.1836 L255.5,306.1836 L219.5,306.1836 A0,0 0 0 0 219.5,306.1836 " fill="#FEFFDD" style="stroke:#181818;stroke-width:0.5;"/><path d="M255.5,306.1836 L255.5,316.1836 L265.5,316.1836 L255.5,306.1836 " fill="#FEFFDD" style="stroke:#181818;stroke-width:0.5;"/><text fill="#000000" font-family="sans-serif" font-size="13" lengthAdjust="spacing" textLength="25" x="225.5" y="324.6787">TBA</text><rect fill="#F1F1F1" height="35.0938" rx="12.5" ry="12.5" style="stroke:#181818;stroke-width:0.5;" width="100" x="99.5" y="301.8125"/><text fill="#000000" font-family="sans-serif" font-size="12" lengthAdjust="spacing" textLength="80" x="109.5" y="324.2695">Read all CSVs</text><ellipse cx="149.5" cy="379.9063" fill="none" rx="11" ry="11" style="stroke:#222222;stroke-width:1.0;"/><ellipse cx="149.5" cy="379.9063" fill="#222222" rx="6" ry="6" style="stroke:#222222;stroke-width:1.0;"/><line style="stroke:#181818;stroke-width:1.0;" x1="149.5" x2="149.5" y1="157.6641" y2="179.6445"/><polygon fill="#181818" points="145.5,169.6445,149.5,179.6445,153.5,169.6445,149.5,173.6445" style="stroke:#181818;stroke-width:1.0;"/><line style="stroke:#181818;stroke-width:1.0;" x1="149.5" x2="149.5" y1="214.7383" y2="246.7188"/><polygon fill="#181818" points="145.5,236.7188,149.5,246.7188,153.5,236.7188,149.5,240.7188" style="stroke:#181818;stroke-width:1.0;"/><line style="stroke:#181818;stroke-width:1.0;" x1="149.5" x2="149.5" y1="281.8125" y2="301.8125"/><polygon fill="#181818" points="145.5,291.8125,149.5,301.8125,153.5,291.8125,149.5,295.8125" style="stroke:#181818;stroke-width:1.0;"/><line style="stroke:#181818;stroke-width:1.0;" x1="149.5" x2="149.5" y1="71.7852" y2="122.5703"/><polygon fill="#181818" points="145.5,112.5703,149.5,122.5703,153.5,112.5703,149.5,116.5703" style="stroke:#181818;stroke-width:1.0;"/><line style="stroke:#181818;stroke-width:1.0;" x1="149.5" x2="149.5" y1="336.9063" y2="368.9063"/><polygon fill="#181818" points="145.5,358.9063,149.5,368.9063,153.5,358.9063,149.5,362.9063" style="stroke:#181818;stroke-width:1.0;"/><text fill="#888888" font-family="sans-serif" font-size="10" lengthAdjust="spacing" textLength="96" x="258.5" y="400.2871">2024.10.16 at 06:50</text><text fill="#888888" font-family="sans-serif" font-size="10" lengthAdjust="spacing" textLength="97" x="258" y="412.8652">bsee_data_api.puml</text><!--SRC=[fP9BQrin48Nt-XM7W76ogC61Rjn5yOia4DDYkybwOerjOKbpCzAjQzh-z-hQ8GzgY6cr4ZDdpZSpKjguM95IG7RPyq3KiawbZdOe6bdH_MZICSryxHQRo2dXyhXWA5uKolQlD2qsApqW6ibS0cKnPf_4O3OUOqIPqFzwWnbxZguEk1VTBBriZKcPD1k3LoTAPgXRhVERCD3t7e5YJHvIiL9s4XFARIaQsE9XzqnuKydHxaqFcD9xwQsKugTv0VU-L1mnKDccigPVJvnFfpK6V3Y5lEUCOow0U_Q-RAHx2IgIL3y4b_5Oi-x-XVrjUWihd1eL5ckAApwYkb9dGLN5fEb8UloZAk_7FOmQfrKZNjDt1ZNjeLQFBMD14NNYp-zDMKosqGjP36Tt9qqo7_JVCvroyQFo2Ofd-a_JVVXty_-aCcOf9QYcPIdp-TckdCvaqh6s3SfeNr_tGZYxCAsbAszCWSylJEFqLFK7]--></g></svg>