<?xml version="1.0" encoding="us-ascii" standalone="no"?><svg xmlns="http://www.w3.org/2000/svg" xmlns:xlink="http://www.w3.org/1999/xlink" contentStyleType="text/css" height="868px" preserveAspectRatio="none" style="width:479px;height:868px;background:#FFFFFF;" version="1.1" viewBox="0 0 479 868" width="479px" zoomAndPan="magnify"><defs/><g><rect fill="#FF6347" height="27.6094" id="_title" rx="7.5" ry="7.5" style="stroke:#FF0000;stroke-width:2.0;" width="151" x="162.75" y="15"/><text fill="#000000" font-family="sans-serif" font-size="14" font-weight="bold" lengthAdjust="spacing" textLength="141" x="167.75" y="34.5332">BSEE Data Workflow</text><ellipse cx="94" cy="58.6094" fill="#222222" rx="10" ry="10" style="stroke:#222222;stroke-width:1.0;"/><rect fill="none" height="710.3281" style="stroke:#000000;stroke-width:1.5;" width="457.5" x="11" y="78.6094"/><path d="M25,78.6094 L25,89.2188 L15,99.2188 L11,99.2188 " fill="none" style="stroke:#000000;stroke-width:1.5;"/><text fill="#000000" font-family="sans-serif" font-size="14" lengthAdjust="spacing" textLength="4" x="14" y="94.1426">&#160;</text><path d="M176,109.2188 L176,167.4492 L156,171.4492 L176,175.4492 L176,233.6797 A0,0 0 0 0 176,233.6797 L437,233.6797 A0,0 0 0 0 437,233.6797 L437,119.2188 L427,109.2188 L176,109.2188 A0,0 0 0 0 176,109.2188 " fill="#FEFFDD" style="stroke:#181818;stroke-width:0.5;"/><path d="M427,109.2188 L427,119.2188 L437,119.2188 L427,109.2188 " fill="#FEFFDD" style="stroke:#181818;stroke-width:0.5;"/><text fill="#000000" font-family="sans-serif" font-size="13" lengthAdjust="spacing" textLength="151" x="182" y="127.7139">- Use local/supabase data</text><text fill="#000000" font-family="sans-serif" font-size="13" lengthAdjust="spacing" textLength="202" x="182" y="144.0654">- User well if not found -&gt; download</text><text fill="#000000" font-family="sans-serif" font-size="13" lengthAdjust="spacing" textLength="240" x="182" y="160.417">- Batchfile mode (Repository or database)</text><text fill="#000000" font-family="sans-serif" font-size="13" lengthAdjust="spacing" textLength="155" x="182" y="176.7686">- Frequency to be decided.</text><text fill="#000000" font-family="sans-serif" font-size="13" lengthAdjust="spacing" textLength="165" x="182" y="193.1201">If online queries do not work:</text><text fill="#000000" font-family="sans-serif" font-size="13" lengthAdjust="spacing" textLength="115" x="182" y="209.4717">- Download the data</text><text fill="#000000" font-family="sans-serif" font-size="13" lengthAdjust="spacing" textLength="197" x="182" y="225.8232">- Break into individual files and run</text><rect fill="#F1F1F1" height="35.0938" rx="12.5" ry="12.5" style="stroke:#181818;stroke-width:0.5;" width="124" x="32" y="153.9023"/><text fill="#000000" font-family="sans-serif" font-size="12" lengthAdjust="spacing" textLength="104" x="42" y="176.3594">Download API data</text><path d="M187,249.875 L187,267.2266 L167,271.2266 L187,275.2266 L187,292.5781 A0,0 0 0 0 187,292.5781 L382,292.5781 A0,0 0 0 0 382,292.5781 L382,259.875 L372,249.875 L187,249.875 A0,0 0 0 0 187,249.875 " fill="#FEFFDD" style="stroke:#181818;stroke-width:0.5;"/><path d="M372,249.875 L372,259.875 L382,259.875 L372,249.875 " fill="#FEFFDD" style="stroke:#181818;stroke-width:0.5;"/><text fill="#000000" font-family="sans-serif" font-size="13" lengthAdjust="spacing" textLength="150" x="193" y="268.3701">- Load into in-line program</text><text fill="#000000" font-family="sans-serif" font-size="13" lengthAdjust="spacing" textLength="174" x="193" y="284.7217">- python database or inline sql</text><rect fill="#F1F1F1" height="35.0938" rx="12.5" ry="12.5" style="stroke:#181818;stroke-width:0.5;" width="146" x="21" y="253.6797"/><text fill="#000000" font-family="sans-serif" font-size="12" lengthAdjust="spacing" textLength="126" x="31" y="276.1367">Read the API Raw data</text><path d="M155.5,302.5781 L155.5,352.6328 L135.5,356.6328 L155.5,360.6328 L155.5,410.6875 A0,0 0 0 0 155.5,410.6875 L458.5,410.6875 A0,0 0 0 0 458.5,410.6875 L458.5,312.5781 L448.5,302.5781 L155.5,302.5781 A0,0 0 0 0 155.5,302.5781 " fill="#FEFFDD" style="stroke:#181818;stroke-width:0.5;"/><path d="M448.5,302.5781 L448.5,312.5781 L458.5,312.5781 L448.5,302.5781 " fill="#FEFFDD" style="stroke:#181818;stroke-width:0.5;"/><text fill="#000000" font-family="sans-serif" font-size="13" lengthAdjust="spacing" textLength="176" x="161.5" y="321.0732">- Ask for data for a well API 12</text><text fill="#000000" font-family="sans-serif" font-size="13" lengthAdjust="spacing" textLength="232" x="169.5" y="337.4248">- API 12 is the unique identifier for a well</text><text fill="#000000" font-family="sans-serif" font-size="13" lengthAdjust="spacing" textLength="105" x="169.5" y="353.7764">- Find related data</text><text fill="#000000" font-family="sans-serif" font-size="13" lengthAdjust="spacing" textLength="282" x="161.5" y="370.1279">- Ask for data for a block or lease (multiple wells)</text><text fill="#000000" font-family="sans-serif" font-size="13" lengthAdjust="spacing" textLength="260" x="169.5" y="386.4795">- If block is given, get all API12 wells in block</text><text fill="#000000" font-family="sans-serif" font-size="13" lengthAdjust="spacing" textLength="134" x="169.5" y="402.8311">- read for each API well</text><rect fill="#F1F1F1" height="35.0938" rx="12.5" ry="12.5" style="stroke:#181818;stroke-width:0.5;" width="83" x="52.5" y="339.0859"/><text fill="#000000" font-family="sans-serif" font-size="12" lengthAdjust="spacing" textLength="60" x="65.5" y="361.543">User query</text><path d="M176.5,426.8828 L176.5,444.2344 L156.5,448.2344 L176.5,452.2344 L176.5,469.5859 A0,0 0 0 0 176.5,469.5859 L298.5,469.5859 A0,0 0 0 0 298.5,469.5859 L298.5,436.8828 L288.5,426.8828 L176.5,426.8828 A0,0 0 0 0 176.5,426.8828 " fill="#FEFFDD" style="stroke:#181818;stroke-width:0.5;"/><path d="M288.5,426.8828 L288.5,436.8828 L298.5,436.8828 L288.5,426.8828 " fill="#FEFFDD" style="stroke:#181818;stroke-width:0.5;"/><text fill="#000000" font-family="sans-serif" font-size="13" lengthAdjust="spacing" textLength="97" x="182.5" y="445.3779">Use online query</text><text fill="#000000" font-family="sans-serif" font-size="13" lengthAdjust="spacing" textLength="82" x="182.5" y="461.7295">where working</text><rect fill="#F1F1F1" height="35.0938" rx="12.5" ry="12.5" style="stroke:#181818;stroke-width:0.5;" width="125" x="31.5" y="430.6875"/><text fill="#000000" font-family="sans-serif" font-size="12" lengthAdjust="spacing" textLength="105" x="41.5" y="453.1445">Well Highlevel data</text><path d="M174,479.5859 L174,537.8164 L154,541.8164 L174,545.8164 L174,604.0469 A0,0 0 0 0 174,604.0469 L327,604.0469 A0,0 0 0 0 327,604.0469 L327,489.5859 L317,479.5859 L174,479.5859 A0,0 0 0 0 174,479.5859 " fill="#FEFFDD" style="stroke:#181818;stroke-width:0.5;"/><path d="M317,479.5859 L317,489.5859 L327,489.5859 L317,479.5859 " fill="#FEFFDD" style="stroke:#181818;stroke-width:0.5;"/><text fill="#000000" font-family="sans-serif" font-size="13" lengthAdjust="spacing" textLength="132" x="180" y="498.0811">- borehole data (online)</text><text fill="#000000" font-family="sans-serif" font-size="13" lengthAdjust="spacing" textLength="122" x="180" y="514.4326">- Get production data</text><text fill="#000000" font-family="sans-serif" font-size="13" lengthAdjust="spacing" textLength="125" x="180" y="530.7842">- Get completion data</text><text fill="#000000" font-family="sans-serif" font-size="13" lengthAdjust="spacing" textLength="99" x="180" y="547.1357">- Get drilling data</text><text fill="#000000" font-family="sans-serif" font-size="13" lengthAdjust="spacing" textLength="98" x="180" y="563.4873">- Get permit data</text><text fill="#000000" font-family="sans-serif" font-size="13" lengthAdjust="spacing" textLength="121" x="180" y="579.8389">- Get inspection data</text><text fill="#000000" font-family="sans-serif" font-size="13" lengthAdjust="spacing" textLength="108" x="180" y="596.1904">- Get violation data</text><rect fill="#F1F1F1" height="35.0938" rx="12.5" ry="12.5" style="stroke:#181818;stroke-width:0.5;" width="120" x="34" y="524.2695"/><text fill="#000000" font-family="sans-serif" font-size="12" lengthAdjust="spacing" textLength="100" x="44" y="546.7266">Well Detailed data</text><path d="M177.5,620.2422 L177.5,637.5938 L157.5,641.5938 L177.5,645.5938 L177.5,662.9453 A0,0 0 0 0 177.5,662.9453 L425.5,662.9453 A0,0 0 0 0 425.5,662.9453 L425.5,630.2422 L415.5,620.2422 L177.5,620.2422 A0,0 0 0 0 177.5,620.2422 " fill="#FEFFDD" style="stroke:#181818;stroke-width:0.5;"/><path d="M415.5,620.2422 L415.5,630.2422 L425.5,630.2422 L415.5,620.2422 " fill="#FEFFDD" style="stroke:#181818;stroke-width:0.5;"/><text fill="#000000" font-family="sans-serif" font-size="13" lengthAdjust="spacing" textLength="80" x="183.5" y="638.7373">- Yml file data</text><text fill="#000000" font-family="sans-serif" font-size="13" lengthAdjust="spacing" textLength="227" x="183.5" y="655.0889">- Production data from downloaded files</text><rect fill="#F1F1F1" height="35.0938" rx="12.5" ry="12.5" style="stroke:#181818;stroke-width:0.5;" width="127" x="30.5" y="624.0469"/><text fill="#000000" font-family="sans-serif" font-size="12" lengthAdjust="spacing" textLength="107" x="40.5" y="646.5039">Get production data</text><path d="M155.5,687.3164 L155.5,696.4922 L135.5,700.4922 L155.5,704.4922 L155.5,713.668 A0,0 0 0 0 155.5,713.668 L352.5,713.668 A0,0 0 0 0 352.5,713.668 L352.5,697.3164 L342.5,687.3164 L155.5,687.3164 A0,0 0 0 0 155.5,687.3164 " fill="#FEFFDD" style="stroke:#181818;stroke-width:0.5;"/><path d="M342.5,687.3164 L342.5,697.3164 L352.5,697.3164 L342.5,687.3164 " fill="#FEFFDD" style="stroke:#181818;stroke-width:0.5;"/><text fill="#000000" font-family="sans-serif" font-size="13" lengthAdjust="spacing" textLength="176" x="161.5" y="705.8115">- Ask for data for a well API 14</text><rect fill="#F1F1F1" height="35.0938" rx="12.5" ry="12.5" style="stroke:#181818;stroke-width:0.5;" width="83" x="52.5" y="682.9453"/><text fill="#000000" font-family="sans-serif" font-size="12" lengthAdjust="spacing" textLength="60" x="65.5" y="705.4023">User query</text><path d="M153.5,734.2344 L153.5,751.5859 L133.5,755.5859 L153.5,759.5859 L153.5,776.9375 A0,0 0 0 0 153.5,776.9375 L427.5,776.9375 A0,0 0 0 0 427.5,776.9375 L427.5,744.2344 L417.5,734.2344 L153.5,734.2344 A0,0 0 0 0 153.5,734.2344 " fill="#FEFFDD" style="stroke:#181818;stroke-width:0.5;"/><path d="M417.5,734.2344 L417.5,744.2344 L427.5,744.2344 L417.5,734.2344 " fill="#FEFFDD" style="stroke:#181818;stroke-width:0.5;"/><text fill="#000000" font-family="sans-serif" font-size="13" lengthAdjust="spacing" textLength="253" x="159.5" y="752.7295">- Use API 14 to perform other queries online</text><text fill="#000000" font-family="sans-serif" font-size="13" lengthAdjust="spacing" textLength="215" x="159.5" y="769.0811">- Program will get other data possible</text><rect fill="#F1F1F1" height="35.0938" rx="12.5" ry="12.5" style="stroke:#181818;stroke-width:0.5;" width="79" x="54.5" y="738.0391"/><text fill="#000000" font-family="sans-serif" font-size="12" lengthAdjust="spacing" textLength="59" x="64.5" y="760.4961">Query data</text><ellipse cx="94" cy="819.9375" fill="none" rx="11" ry="11" style="stroke:#222222;stroke-width:1.0;"/><ellipse cx="94" cy="819.9375" fill="#222222" rx="6" ry="6" style="stroke:#222222;stroke-width:1.0;"/><line style="stroke:#181818;stroke-width:1.0;" x1="94" x2="94" y1="188.9961" y2="253.6797"/><polygon fill="#181818" points="90,243.6797,94,253.6797,98,243.6797,94,247.6797" style="stroke:#181818;stroke-width:1.0;"/><line style="stroke:#181818;stroke-width:1.0;" x1="94" x2="94" y1="288.7734" y2="339.0859"/><polygon fill="#181818" points="90,329.0859,94,339.0859,98,329.0859,94,333.0859" style="stroke:#181818;stroke-width:1.0;"/><line style="stroke:#181818;stroke-width:1.0;" x1="94" x2="94" y1="374.1797" y2="430.6875"/><polygon fill="#181818" points="90,420.6875,94,430.6875,98,420.6875,94,424.6875" style="stroke:#181818;stroke-width:1.0;"/><line style="stroke:#181818;stroke-width:1.0;" x1="94" x2="94" y1="465.7813" y2="524.2695"/><polygon fill="#181818" points="90,514.2695,94,524.2695,98,514.2695,94,518.2695" style="stroke:#181818;stroke-width:1.0;"/><line style="stroke:#181818;stroke-width:1.0;" x1="94" x2="94" y1="559.3633" y2="624.0469"/><polygon fill="#181818" points="90,614.0469,94,624.0469,98,614.0469,94,618.0469" style="stroke:#181818;stroke-width:1.0;"/><line style="stroke:#181818;stroke-width:1.0;" x1="94" x2="94" y1="659.1406" y2="682.9453"/><polygon fill="#181818" points="90,672.9453,94,682.9453,98,672.9453,94,676.9453" style="stroke:#181818;stroke-width:1.0;"/><line style="stroke:#181818;stroke-width:1.0;" x1="94" x2="94" y1="718.0391" y2="738.0391"/><polygon fill="#181818" points="90,728.0391,94,738.0391,98,728.0391,94,732.0391" style="stroke:#181818;stroke-width:1.0;"/><line style="stroke:#181818;stroke-width:1.0;" x1="94" x2="94" y1="68.6094" y2="153.9023"/><polygon fill="#181818" points="90,143.9023,94,153.9023,98,143.9023,94,147.9023" style="stroke:#181818;stroke-width:1.0;"/><line style="stroke:#181818;stroke-width:1.0;" x1="94" x2="94" y1="773.1328" y2="808.9375"/><polygon fill="#181818" points="90,798.9375,94,808.9375,98,798.9375,94,802.9375" style="stroke:#181818;stroke-width:1.0;"/><text fill="#888888" font-family="sans-serif" font-size="10" lengthAdjust="spacing" textLength="96" x="190.25" y="840.3184">2024.10.17 at 10:28</text><text fill="#888888" font-family="sans-serif" font-size="10" lengthAdjust="spacing" textLength="76" x="200.25" y="852.8965">bsee_data.puml</text><!--SRC=[nLLDQnin4BtlhnW28JOqAGdj9OL2d8ycq43gf8GUvTNihh1MsaXQ6rFwtpiZkKw2vRZkfJhPsZSpRzuyINwgJ2USQ26ee75adKGtjhsHvzOPT73yiV0vp4EZogb1x-4a3pYtsZfmADS-Yt9QkrI28G-s5S4MHVm8e_lBIxWGGS2ZTTDAstbH-21SA0gWHNa8fwo1dqNQuNLwOUT6Mo7XxEu694L_MdtZPMn0SAfkmgjjNeVmtIDeMmhztlUTc0ZwondoI0Tpr1fKnJcXuYxWy3F8PVrCq4Y4igaKjTPQYJ0OOsUz2jOjW9hdIbnoc8cySlZKeoaN42nCY1MMIg8yMeFUL62DLWQ1y4wX9pwHtvmaFCraNiaLcetDZXoAAIX3jPMHQgPaBpHm8nu4TUrwyoeAQOzrVZ6LCIvBy5J6OhxhPBuonIM3mzXVvsnDHifWkqLeo1L_z6HjLTB4F-bjHDDaMRp53lJE_9GSa6OOVuXa3kxs-6Gj88R4Jw1ybAKtYce23TK4LIcYy9mb6twbM7ZK8g3SDBSCgmdPUygAQ6Hf1cslW-h8aLp83xEbo5CfZBZMQeRc7TGOGAJ-g8SOInedM3Q7u_ap1HHb4tkF-coRnYE3habqZJFKkvc63_EBix20DSIyGOVnP2XJ_nML2mo2R2ztjU_4EcoiJYSC1ebMxg1_8M79sR8luyssOR2CAcrBSzk6aavfgbM_XUdGjIgyXL36TxYLqKnPicCMzApdiw2PLdTGz4URRg1DXEvUPuRAsNPrDzC0u-tr7ow33_cQgvBVebN_uTrAsVbze7bIrHOiNInkzGuap-MLueiKvkIKUB1JN6HFxvDN4url2FMB7sNR5KLbQSyL-nI8Wxq5hQFRsoCf3q04EBY-FctRlM6npy8RqU9WM72YPTHl]--></g></svg>