<?xml version="1.0" encoding="us-ascii" standalone="no"?><svg xmlns="http://www.w3.org/2000/svg" xmlns:xlink="http://www.w3.org/1999/xlink" contentStyleType="text/css" height="462px" preserveAspectRatio="none" style="width:616px;height:462px;background:#FFFFFF;" version="1.1" viewBox="0 0 616 462" width="616px" zoomAndPan="magnify"><defs/><g><rect fill="#FF6347" height="27.6094" id="_title" rx="7.5" ry="7.5" style="stroke:#FF0000;stroke-width:2.0;" width="246" x="183.5" y="15"/><text fill="#000000" font-family="sans-serif" font-size="14" font-weight="bold" lengthAdjust="spacing" textLength="236" x="188.5" y="34.5332">BSEE Data API Selenium Workflow</text><path d="M179.5,48.6094 L179.5,57.7852 L159.5,61.7852 L179.5,65.7852 L179.5,74.9609 A0,0 0 0 0 179.5,74.9609 L462.5,74.9609 A0,0 0 0 0 462.5,74.9609 L462.5,58.6094 L452.5,48.6094 L179.5,48.6094 A0,0 0 0 0 179.5,48.6094 " fill="#FEFFDD" style="stroke:#181818;stroke-width:0.5;"/><path d="M452.5,48.6094 L452.5,58.6094 L462.5,58.6094 L452.5,48.6094 " fill="#FEFFDD" style="stroke:#181818;stroke-width:0.5;"/><text fill="#000000" font-family="sans-serif" font-size="13" lengthAdjust="spacing" textLength="262" x="185.5" y="67.1045">All manual operations performed by Selenium</text><ellipse cx="149.5" cy="61.7852" fill="#222222" rx="10" ry="10" style="stroke:#222222;stroke-width:1.0;"/><rect fill="none" height="298.0625" style="stroke:#000000;stroke-width:1.5;" width="594" x="11" y="84.9609"/><path d="M25,84.9609 L25,95.5703 L15,105.5703 L11,105.5703 " fill="none" style="stroke:#000000;stroke-width:1.5;"/><text fill="#000000" font-family="sans-serif" font-size="14" lengthAdjust="spacing" textLength="4" x="14" y="100.4941">&#160;</text><path d="M244.5,126.9414 L244.5,136.1172 L224.5,140.1172 L244.5,144.1172 L244.5,153.293 A0,0 0 0 0 244.5,153.293 L327.5,153.293 A0,0 0 0 0 327.5,153.293 L327.5,136.9414 L317.5,126.9414 L244.5,126.9414 A0,0 0 0 0 244.5,126.9414 " fill="#FEFFDD" style="stroke:#181818;stroke-width:0.5;"/><path d="M317.5,126.9414 L317.5,136.9414 L327.5,136.9414 L317.5,126.9414 " fill="#FEFFDD" style="stroke:#181818;stroke-width:0.5;"/><text fill="#000000" font-family="sans-serif" font-size="13" lengthAdjust="spacing" textLength="62" x="250.5" y="145.4365">- Selenium</text><rect fill="#F1F1F1" height="35.0938" rx="12.5" ry="12.5" style="stroke:#181818;stroke-width:0.5;" width="150" x="74.5" y="122.5703"/><text fill="#000000" font-family="sans-serif" font-size="12" lengthAdjust="spacing" textLength="130" x="84.5" y="145.0273">Open Browser | manual</text><path d="M298,167.6641 L298,193.1914 L278,197.1914 L298,201.1914 L298,226.7188 A0,0 0 0 0 298,226.7188 L595,226.7188 A0,0 0 0 0 595,226.7188 L595,177.6641 L585,167.6641 L298,167.6641 A0,0 0 0 0 298,167.6641 " fill="#FEFFDD" style="stroke:#181818;stroke-width:0.5;"/><path d="M585,167.6641 L585,177.6641 L595,177.6641 L585,167.6641 " fill="#FEFFDD" style="stroke:#181818;stroke-width:0.5;"/><text fill="#000000" font-family="sans-serif" font-size="13" lengthAdjust="spacing" textLength="133" x="304" y="186.1592">- URL does not change</text><text fill="#000000" font-family="sans-serif" font-size="13" lengthAdjust="spacing" textLength="82" x="304" y="202.5107">- Grid appears</text><text fill="#000000" font-family="sans-serif" font-size="13" lengthAdjust="spacing" textLength="276" x="304" y="218.8623">- Explore: Does grid have a sub url we can use?</text><rect fill="#F1F1F1" height="35.0938" rx="12.5" ry="12.5" style="stroke:#181818;stroke-width:0.5;" width="257" x="21" y="179.6445"/><text fill="#000000" font-family="sans-serif" font-size="12" lengthAdjust="spacing" textLength="237" x="31" y="202.1016">Enter WellAPI12 and submit query | manual</text><path d="M272,236.7188 L272,270.4219 L252,274.4219 L272,278.4219 L272,312.125 A0,0 0 0 0 272,312.125 L485,312.125 A0,0 0 0 0 485,312.125 L485,246.7188 L475,236.7188 L272,236.7188 A0,0 0 0 0 272,236.7188 " fill="#FEFFDD" style="stroke:#181818;stroke-width:0.5;"/><path d="M475,236.7188 L475,246.7188 L485,246.7188 L475,236.7188 " fill="#FEFFDD" style="stroke:#181818;stroke-width:0.5;"/><text fill="#000000" font-family="sans-serif" font-size="13" lengthAdjust="spacing" textLength="108" x="278" y="255.2139">- Click CSV button</text><text fill="#000000" font-family="sans-serif" font-size="13" lengthAdjust="spacing" textLength="111" x="278" y="271.5654">- Wait for download</text><text fill="#000000" font-family="sans-serif" font-size="13" lengthAdjust="spacing" textLength="192" x="278" y="287.917">- Rename file to .csv if necessary</text><text fill="#000000" font-family="sans-serif" font-size="13" lengthAdjust="spacing" textLength="162" x="278" y="304.2686">- Read CSV into DataFrame</text><rect fill="#F1F1F1" height="35.0938" rx="12.5" ry="12.5" style="stroke:#181818;stroke-width:0.5;" width="205" x="47" y="256.875"/><text fill="#000000" font-family="sans-serif" font-size="12" lengthAdjust="spacing" textLength="185" x="57" y="279.332">Download and Process CSV Data</text><path d="M257,328.3203 L257,345.6719 L237,349.6719 L257,353.6719 L257,371.0234 A0,0 0 0 0 257,371.0234 L458,371.0234 A0,0 0 0 0 458,371.0234 L458,338.3203 L448,328.3203 L257,328.3203 A0,0 0 0 0 257,328.3203 " fill="#FEFFDD" style="stroke:#181818;stroke-width:0.5;"/><path d="M448,328.3203 L448,338.3203 L458,338.3203 L448,328.3203 " fill="#FEFFDD" style="stroke:#181818;stroke-width:0.5;"/><text fill="#000000" font-family="sans-serif" font-size="13" lengthAdjust="spacing" textLength="149" x="263" y="346.8154">- Extract data for analysis</text><text fill="#000000" font-family="sans-serif" font-size="13" lengthAdjust="spacing" textLength="180" x="263" y="363.167">- Remove CSV file after reading</text><rect fill="#F1F1F1" height="35.0938" rx="12.5" ry="12.5" style="stroke:#181818;stroke-width:0.5;" width="175" x="62" y="332.125"/><text fill="#000000" font-family="sans-serif" font-size="12" lengthAdjust="spacing" textLength="155" x="72" y="354.582">Extract and Delete CSV Data</text><ellipse cx="149.5" cy="414.0234" fill="none" rx="11" ry="11" style="stroke:#222222;stroke-width:1.0;"/><ellipse cx="149.5" cy="414.0234" fill="#222222" rx="6" ry="6" style="stroke:#222222;stroke-width:1.0;"/><line style="stroke:#181818;stroke-width:1.0;" x1="149.5" x2="149.5" y1="157.6641" y2="179.6445"/><polygon fill="#181818" points="145.5,169.6445,149.5,179.6445,153.5,169.6445,149.5,173.6445" style="stroke:#181818;stroke-width:1.0;"/><line style="stroke:#181818;stroke-width:1.0;" x1="149.5" x2="149.5" y1="214.7383" y2="256.875"/><polygon fill="#181818" points="145.5,246.875,149.5,256.875,153.5,246.875,149.5,250.875" style="stroke:#181818;stroke-width:1.0;"/><line style="stroke:#181818;stroke-width:1.0;" x1="149.5" x2="149.5" y1="291.9688" y2="332.125"/><polygon fill="#181818" points="145.5,322.125,149.5,332.125,153.5,322.125,149.5,326.125" style="stroke:#181818;stroke-width:1.0;"/><line style="stroke:#181818;stroke-width:1.0;" x1="149.5" x2="149.5" y1="71.7852" y2="122.5703"/><polygon fill="#181818" points="145.5,112.5703,149.5,122.5703,153.5,112.5703,149.5,116.5703" style="stroke:#181818;stroke-width:1.0;"/><line style="stroke:#181818;stroke-width:1.0;" x1="149.5" x2="149.5" y1="367.2188" y2="403.0234"/><polygon fill="#181818" points="145.5,393.0234,149.5,403.0234,153.5,393.0234,149.5,397.0234" style="stroke:#181818;stroke-width:1.0;"/><text fill="#888888" font-family="sans-serif" font-size="10" lengthAdjust="spacing" textLength="96" x="258.5" y="434.4043">2024.10.17 at 10:25</text><text fill="#888888" font-family="sans-serif" font-size="10" lengthAdjust="spacing" textLength="97" x="258" y="446.9824">bsee_data_api.puml</text><!--SRC=[dLDDJnin4BtxLuoG470W4aYzf8UAVBHKAYfAe3bFrhCRArxFTknDYDh-zuutg2qXY52VLfutyzuRlurB5neKh26vv6d0Oaact0OxP0aaSF7En7sOkuKhbe5YXClzW25x5X2opyfOB2lPKcJ87TUOs9Yk28FfU0mZJ0XNjvzXIfw2QskOiInBpsjZOa99ni0_9t0Y45SjqfDhW2lleSRGeWTkI30v3X7qgsIfoS9yyuVXIIS5smtTqgXsrQQjyCFy9Uv_RIZ0G7WTTKq_7tdU7oOCuFmGvevd798IpCXxtSZ59Q12OZklNOBlBSdcVxZl9r_0CiMCWcA1eQ8zg4_YB63J44hSKnu_DFf-r8THdbHby09N19ZbGIiUrWG51cWZVNZDvOZNmJFQpjwjS96ZDPn-wx9mcBDp67eDPTSrRrFYi5kVeIvDtrwzRzbs0HCAM1EKJfEO67f5N84h8L2MWx9vZbV5cSy5XMUf7pNdzEgJFYJ18dLUHne3zVCcgtdtsmas_odP4GRqc-YYsHLOysexlJE5PGwJg6mNgXTaTjU_yf_6ZJ4bwwMOOsMYqwEDdjxDJS_Q4y049zVN_Re-EZF7UNhUtUcPoPCUktu3]--></g></svg>