<svg xmlns="http://www.w3.org/2000/svg" xmlns:xlink="http://www.w3.org/1999/xlink" contentStyleType="text/css" height="868px" preserveAspectRatio="none" style="width:477px;height:868px;background:#FFFFFF;" version="1.1" viewBox="0 0 477 868" width="477px" zoomAndPan="magnify"><defs/><g><rect fill="#FF6347" height="27.6094" id="_title" rx="7.5" ry="7.5" style="stroke:#FF0000;stroke-width:2.0;" width="149.2412" x="162.3994" y="15"/><text fill="#000000" font-family="sans-serif" font-size="14" font-weight="bold" lengthAdjust="spacing" textLength="139.2412" x="167.3994" y="34.5332">BSEE Data Workflow</text><ellipse cx="93.7041" cy="58.6094" fill="#222222" rx="10" ry="10" style="stroke:#222222;stroke-width:1.0;"/><rect fill="none" height="710.3281" style="stroke:#000000;stroke-width:1.5;" width="455.04" x="11" y="78.6094"/><path d="M24.8896,78.6094 L24.8896,89.2188 L14.8896,99.2188 L11,99.2188 " fill="none" style="stroke:#000000;stroke-width:1.5;"/><text fill="#000000" font-family="sans-serif" font-size="14" lengthAdjust="spacing" textLength="3.8896" x="14" y="94.1426">&#160;</text><path d="M175.0703,109.2188 L175.0703,167.4492 L155.0703,171.4492 L175.0703,175.4492 L175.0703,233.6797 A0,0 0 0 0 175.0703,233.6797 L436.6846,233.6797 A0,0 0 0 0 436.6846,233.6797 L436.6846,119.2188 L426.6846,109.2188 L175.0703,109.2188 A0,0 0 0 0 175.0703,109.2188 " fill="#FEFFDD" style="stroke:#181818;stroke-width:0.5;"/><path d="M426.6846,109.2188 L426.6846,119.2188 L436.6846,119.2188 L426.6846,109.2188 " fill="#FEFFDD" style="stroke:#181818;stroke-width:0.5;"/><text fill="#000000" font-family="sans-serif" font-size="13" lengthAdjust="spacing" textLength="150.3125" x="181.0703" y="127.7139">- Use local/supabase data</text><text fill="#000000" font-family="sans-serif" font-size="13" lengthAdjust="spacing" textLength="204.1343" x="181.0703" y="144.0654">- User well if not found -&gt; download</text><text fill="#000000" font-family="sans-serif" font-size="13" lengthAdjust="spacing" textLength="240.6143" x="181.0703" y="160.417">- Batchfile mode (Repository or database)</text><text fill="#000000" font-family="sans-serif" font-size="13" lengthAdjust="spacing" textLength="154.6479" x="181.0703" y="176.7686">- Frequency to be decided.</text><text fill="#000000" font-family="sans-serif" font-size="13" lengthAdjust="spacing" textLength="166.207" x="181.0703" y="193.1201">If online queries do not work:</text><text fill="#000000" font-family="sans-serif" font-size="13" lengthAdjust="spacing" textLength="116.3525" x="181.0703" y="209.4717">- Download the data</text><text fill="#000000" font-family="sans-serif" font-size="13" lengthAdjust="spacing" textLength="198.7197" x="181.0703" y="225.8232">- Break into individual files and run</text><rect fill="#F1F1F1" height="35.0938" rx="12.5" ry="12.5" style="stroke:#181818;stroke-width:0.5;" width="122.7324" x="32.3379" y="153.9023"/><text fill="#000000" font-family="sans-serif" font-size="12" lengthAdjust="spacing" textLength="102.7324" x="42.3379" y="176.3594">Download API data</text><path d="M186.4082,249.875 L186.4082,267.2266 L166.4082,271.2266 L186.4082,275.2266 L186.4082,292.5781 A0,0 0 0 0 186.4082,292.5781 L380.8516,292.5781 A0,0 0 0 0 380.8516,292.5781 L380.8516,259.875 L370.8516,249.875 L186.4082,249.875 A0,0 0 0 0 186.4082,249.875 " fill="#FEFFDD" style="stroke:#181818;stroke-width:0.5;"/><path d="M370.8516,249.875 L370.8516,259.875 L380.8516,259.875 L370.8516,249.875 " fill="#FEFFDD" style="stroke:#181818;stroke-width:0.5;"/><text fill="#000000" font-family="sans-serif" font-size="13" lengthAdjust="spacing" textLength="151.7471" x="192.4082" y="268.3701">- Load into in-line program</text><text fill="#000000" font-family="sans-serif" font-size="13" lengthAdjust="spacing" textLength="173.4434" x="192.4082" y="284.7217">- python database or inline sql</text><rect fill="#F1F1F1" height="35.0938" rx="12.5" ry="12.5" style="stroke:#181818;stroke-width:0.5;" width="145.4082" x="21" y="253.6797"/><text fill="#000000" font-family="sans-serif" font-size="12" lengthAdjust="spacing" textLength="125.4082" x="31" y="276.1367">Read the API Raw data</text><path d="M154.7148,302.5781 L154.7148,352.6328 L134.7148,356.6328 L154.7148,360.6328 L154.7148,410.6875 A0,0 0 0 0 154.7148,410.6875 L456.04,410.6875 A0,0 0 0 0 456.04,410.6875 L456.04,312.5781 L446.04,302.5781 L154.7148,302.5781 A0,0 0 0 0 154.7148,302.5781 " fill="#FEFFDD" style="stroke:#181818;stroke-width:0.5;"/><path d="M446.04,302.5781 L446.04,312.5781 L456.04,312.5781 L446.04,302.5781 " fill="#FEFFDD" style="stroke:#181818;stroke-width:0.5;"/><text fill="#000000" font-family="sans-serif" font-size="13" lengthAdjust="spacing" textLength="175.5762" x="160.7148" y="321.0732">- Ask for data for a well API 12</text><text fill="#000000" font-family="sans-serif" font-size="13" lengthAdjust="spacing" textLength="232.6797" x="167.9385" y="337.4248">- API 12 is the unique identifier for a well</text><text fill="#000000" font-family="sans-serif" font-size="13" lengthAdjust="spacing" textLength="105.5044" x="167.9385" y="353.7764">- Find related data</text><text fill="#000000" font-family="sans-serif" font-size="13" lengthAdjust="spacing" textLength="280.3252" x="160.7148" y="370.1279">- Ask for data for a block or lease (multiple wells)</text><text fill="#000000" font-family="sans-serif" font-size="13" lengthAdjust="spacing" textLength="257.9497" x="167.9385" y="386.4795">- If block is given, get all API12 wells in block</text><text fill="#000000" font-family="sans-serif" font-size="13" lengthAdjust="spacing" textLength="135.1162" x="167.9385" y="402.8311">- read for each API well</text><rect fill="#F1F1F1" height="35.0938" rx="12.5" ry="12.5" style="stroke:#181818;stroke-width:0.5;" width="82.0215" x="52.6934" y="339.0859"/><text fill="#000000" font-family="sans-serif" font-size="12" lengthAdjust="spacing" textLength="58.6875" x="66.0273" y="361.543">User query</text><path d="M175.0615,426.8828 L175.0615,444.2344 L155.0615,448.2344 L175.0615,452.2344 L175.0615,469.5859 A0,0 0 0 0 175.0615,469.5859 L297.2305,469.5859 A0,0 0 0 0 297.2305,469.5859 L297.2305,436.8828 L287.2305,426.8828 L175.0615,426.8828 A0,0 0 0 0 175.0615,426.8828 " fill="#FEFFDD" style="stroke:#181818;stroke-width:0.5;"/><path d="M287.2305,426.8828 L287.2305,436.8828 L297.2305,436.8828 L287.2305,426.8828 " fill="#FEFFDD" style="stroke:#181818;stroke-width:0.5;"/><text fill="#000000" font-family="sans-serif" font-size="13" lengthAdjust="spacing" textLength="97.5571" x="181.0615" y="445.3779">Use online query</text><text fill="#000000" font-family="sans-serif" font-size="13" lengthAdjust="spacing" textLength="83.8145" x="181.0615" y="461.7295">where working</text><rect fill="#F1F1F1" height="35.0938" rx="12.5" ry="12.5" style="stroke:#181818;stroke-width:0.5;" width="122.7148" x="32.3467" y="430.6875"/><text fill="#000000" font-family="sans-serif" font-size="12" lengthAdjust="spacing" textLength="102.7148" x="42.3467" y="453.1445">Well Highlevel data</text><path d="M172.3955,479.5859 L172.3955,537.8164 L152.3955,541.8164 L172.3955,545.8164 L172.3955,604.0469 A0,0 0 0 0 172.3955,604.0469 L327.8135,604.0469 A0,0 0 0 0 327.8135,604.0469 L327.8135,489.5859 L317.8135,479.5859 L172.3955,479.5859 A0,0 0 0 0 172.3955,479.5859 " fill="#FEFFDD" style="stroke:#181818;stroke-width:0.5;"/><path d="M317.8135,479.5859 L317.8135,489.5859 L327.8135,489.5859 L317.8135,479.5859 " fill="#FEFFDD" style="stroke:#181818;stroke-width:0.5;"/><text fill="#000000" font-family="sans-serif" font-size="13" lengthAdjust="spacing" textLength="134.418" x="178.3955" y="498.0811">- borehole data (online)</text><text fill="#000000" font-family="sans-serif" font-size="13" lengthAdjust="spacing" textLength="122.1289" x="178.3955" y="514.4326">- Get production data</text><text fill="#000000" font-family="sans-serif" font-size="13" lengthAdjust="spacing" textLength="124.2871" x="178.3955" y="530.7842">- Get completion data</text><text fill="#000000" font-family="sans-serif" font-size="13" lengthAdjust="spacing" textLength="98.9917" x="178.3955" y="547.1357">- Get drilling data</text><text fill="#000000" font-family="sans-serif" font-size="13" lengthAdjust="spacing" textLength="97.5381" x="178.3955" y="563.4873">- Get permit data</text><text fill="#000000" font-family="sans-serif" font-size="13" lengthAdjust="spacing" textLength="119.958" x="178.3955" y="579.8389">- Get inspection data</text><text fill="#000000" font-family="sans-serif" font-size="13" lengthAdjust="spacing" textLength="109.1162" x="178.3955" y="596.1904">- Get violation data</text><rect fill="#F1F1F1" height="35.0938" rx="12.5" ry="12.5" style="stroke:#181818;stroke-width:0.5;" width="117.3828" x="35.0127" y="524.2695"/><text fill="#000000" font-family="sans-serif" font-size="12" lengthAdjust="spacing" textLength="97.3828" x="45.0127" y="546.7266">Well Detailed data</text><path d="M176.4063,620.2422 L176.4063,637.5938 L156.4063,641.5938 L176.4063,645.5938 L176.4063,662.9453 A0,0 0 0 0 176.4063,662.9453 L426.4805,662.9453 A0,0 0 0 0 426.4805,662.9453 L426.4805,630.2422 L416.4805,620.2422 L176.4063,620.2422 A0,0 0 0 0 176.4063,620.2422 " fill="#FEFFDD" style="stroke:#181818;stroke-width:0.5;"/><path d="M416.4805,620.2422 L416.4805,630.2422 L426.4805,630.2422 L416.4805,620.2422 " fill="#FEFFDD" style="stroke:#181818;stroke-width:0.5;"/><text fill="#000000" font-family="sans-serif" font-size="13" lengthAdjust="spacing" textLength="79.4727" x="182.4063" y="638.7373">- Yml file data</text><text fill="#000000" font-family="sans-serif" font-size="13" lengthAdjust="spacing" textLength="229.0742" x="182.4063" y="655.0889">- Production data from downloaded files</text><rect fill="#F1F1F1" height="35.0938" rx="12.5" ry="12.5" style="stroke:#181818;stroke-width:0.5;" width="125.4043" x="31.002" y="624.0469"/><text fill="#000000" font-family="sans-serif" font-size="12" lengthAdjust="spacing" textLength="105.4043" x="41.002" y="646.5039">Get production data</text><path d="M154.7148,687.3164 L154.7148,696.4922 L134.7148,700.4922 L154.7148,704.4922 L154.7148,713.668 A0,0 0 0 0 154.7148,713.668 L351.291,713.668 A0,0 0 0 0 351.291,713.668 L351.291,697.3164 L341.291,687.3164 L154.7148,687.3164 A0,0 0 0 0 154.7148,687.3164 " fill="#FEFFDD" style="stroke:#181818;stroke-width:0.5;"/><path d="M341.291,687.3164 L341.291,697.3164 L351.291,697.3164 L341.291,687.3164 " fill="#FEFFDD" style="stroke:#181818;stroke-width:0.5;"/><text fill="#000000" font-family="sans-serif" font-size="13" lengthAdjust="spacing" textLength="175.5762" x="160.7148" y="705.8115">- Ask for data for a well API 14</text><rect fill="#F1F1F1" height="35.0938" rx="12.5" ry="12.5" style="stroke:#181818;stroke-width:0.5;" width="82.0215" x="52.6934" y="682.9453"/><text fill="#000000" font-family="sans-serif" font-size="12" lengthAdjust="spacing" textLength="58.6875" x="66.0273" y="705.4023">User query</text><path d="M153.3877,734.2344 L153.3877,751.5859 L133.3877,755.5859 L153.3877,759.5859 L153.3877,776.9375 A0,0 0 0 0 153.3877,776.9375 L428.7383,776.9375 A0,0 0 0 0 428.7383,776.9375 L428.7383,744.2344 L418.7383,734.2344 L153.3877,734.2344 A0,0 0 0 0 153.3877,734.2344 " fill="#FEFFDD" style="stroke:#181818;stroke-width:0.5;"/><path d="M418.7383,734.2344 L418.7383,744.2344 L428.7383,744.2344 L418.7383,734.2344 " fill="#FEFFDD" style="stroke:#181818;stroke-width:0.5;"/><text fill="#000000" font-family="sans-serif" font-size="13" lengthAdjust="spacing" textLength="254.3506" x="159.3877" y="752.7295">- Use API 14 to perform other queries online</text><text fill="#000000" font-family="sans-serif" font-size="13" lengthAdjust="spacing" textLength="214.6016" x="159.3877" y="769.0811">- Program will get other data possible</text><rect fill="#F1F1F1" height="35.0938" rx="12.5" ry="12.5" style="stroke:#181818;stroke-width:0.5;" width="79.3672" x="54.0205" y="738.0391"/><text fill="#000000" font-family="sans-serif" font-size="12" lengthAdjust="spacing" textLength="59.3672" x="64.0205" y="760.4961">Query data</text><ellipse cx="93.7041" cy="819.9375" fill="none" rx="11" ry="11" style="stroke:#222222;stroke-width:1.0;"/><ellipse cx="93.7041" cy="819.9375" fill="#222222" rx="6" ry="6" style="stroke:#222222;stroke-width:1.0;"/><line style="stroke:#181818;stroke-width:1.0;" x1="93.7041" x2="93.7041" y1="188.9961" y2="253.6797"/><polygon fill="#181818" points="89.7041,243.6797,93.7041,253.6797,97.7041,243.6797,93.7041,247.6797" style="stroke:#181818;stroke-width:1.0;"/><line style="stroke:#181818;stroke-width:1.0;" x1="93.7041" x2="93.7041" y1="288.7734" y2="339.0859"/><polygon fill="#181818" points="89.7041,329.0859,93.7041,339.0859,97.7041,329.0859,93.7041,333.0859" style="stroke:#181818;stroke-width:1.0;"/><line style="stroke:#181818;stroke-width:1.0;" x1="93.7041" x2="93.7041" y1="374.1797" y2="430.6875"/><polygon fill="#181818" points="89.7041,420.6875,93.7041,430.6875,97.7041,420.6875,93.7041,424.6875" style="stroke:#181818;stroke-width:1.0;"/><line style="stroke:#181818;stroke-width:1.0;" x1="93.7041" x2="93.7041" y1="465.7813" y2="524.2695"/><polygon fill="#181818" points="89.7041,514.2695,93.7041,524.2695,97.7041,514.2695,93.7041,518.2695" style="stroke:#181818;stroke-width:1.0;"/><line style="stroke:#181818;stroke-width:1.0;" x1="93.7041" x2="93.7041" y1="559.3633" y2="624.0469"/><polygon fill="#181818" points="89.7041,614.0469,93.7041,624.0469,97.7041,614.0469,93.7041,618.0469" style="stroke:#181818;stroke-width:1.0;"/><line style="stroke:#181818;stroke-width:1.0;" x1="93.7041" x2="93.7041" y1="659.1406" y2="682.9453"/><polygon fill="#181818" points="89.7041,672.9453,93.7041,682.9453,97.7041,672.9453,93.7041,676.9453" style="stroke:#181818;stroke-width:1.0;"/><line style="stroke:#181818;stroke-width:1.0;" x1="93.7041" x2="93.7041" y1="718.0391" y2="738.0391"/><polygon fill="#181818" points="89.7041,728.0391,93.7041,738.0391,97.7041,728.0391,93.7041,732.0391" style="stroke:#181818;stroke-width:1.0;"/><line style="stroke:#181818;stroke-width:1.0;" x1="93.7041" x2="93.7041" y1="68.6094" y2="153.9023"/><polygon fill="#181818" points="89.7041,143.9023,93.7041,153.9023,97.7041,143.9023,93.7041,147.9023" style="stroke:#181818;stroke-width:1.0;"/><line style="stroke:#181818;stroke-width:1.0;" x1="93.7041" x2="93.7041" y1="773.1328" y2="808.9375"/><polygon fill="#181818" points="89.7041,798.9375,93.7041,808.9375,97.7041,798.9375,93.7041,802.9375" style="stroke:#181818;stroke-width:1.0;"/><text fill="#888888" font-family="sans-serif" font-size="10" lengthAdjust="spacing" textLength="88.9697" x="192.5352" y="840.3184">2024.10.11 at 11:23</text><text fill="#888888" font-family="sans-serif" font-size="10" lengthAdjust="spacing" textLength="71.1621" x="201.439" y="852.8965">bsee_data.puml</text><!--SRC=[nLLDQnin4BtlhnW28JOqAGdj9OL2d8ycq43gf8GUvTNihh1MsaXQ6rFwtpiZkKw2vRZkfJhPsZSpRzuyINwgJ2USQ26ee75adKGtjhsHvzOPT73yiV0vp4EZogb1x-4a3pYtsZfmADS-Yt9QkrI28G-s5S4MHVm8e_lBIxWGGS2ZTTDAstbH-21SA0gWHNa8fwo1dqNQuNLwOUT6Mo7XxEu694L_MdtZPMn0SAfkmgjjNeVmtIDeMmhztlUTc0ZwondoI0Tpr1fKnJcXuYxWy3F8PVrCq4Y4igaKjTPQYJ0OOsUz2jOjW9hdIbnoc8cySlZKeoaN42nCY1MMIg8yMeFUL62DLWQ1y4wX9pwHtvmaFCraNiaLcetDZXoAAIX3jPMHQgPaBpHm8nu4TUrwyoeAQOzrVZ6LCIvBy5J6OhxhPBuonIM3mzXVvsnDHifWkqLeo1L_z6HjLTB4F-bjHDDaMRp53lJE_9GSa6OOVuXa3kxs-6Gj88R4Jw1ybAKtYce23TK4LIcYy9mb6twbM7ZK8g3SDBSCgmdPUygAQ6Hf1cslW-h8aLp83xEbo5CfZBZMQeRc7TGOGAJ-g8SOInedM3Q7u_ap1HHb4tkF-coRnYE3habqZJFKkvc63_EBix20DSIyGOVnP2XJ_nML2mo2R2ztjU_4EcoiJYSC1ebMxg1_8M79sR8luyssOR2CAcrBSzk6aavfgbM_XUdGjIgyXL36TxYLqKnPicCMzApdiw2PLdTGz4URRg1DXEvUPuRAsNPrDzC0u-tr7ow33_cQgvBVebN_uTrAsVbze7bIrHOiNInkzGuap-MLueiKvkIKUB1JN6HFxvDN4url2FMB7sNR5KLbQSyL-nI8Wxq5hQFRsoCf3q04EBY-FctRlM6npy8RqU9WM72YPTHl]--></g></svg>